<?xml version="1.0" encoding="UTF-8"?><svg id="a" xmlns="http://www.w3.org/2000/svg" viewBox="0 0 232.27 21.16"><defs><style>.c{fill:#f5ac18;}</style></defs><g id="b"><g><path class="c" d="M13.26,5.03v3.62c0,3.76-2.07,5-6.52,5H3.57v7.33H0V.2H6.68c4.32-.03,6.58,1.07,6.58,4.83Zm-3.61,.24c0-1.69-.51-2.72-3-2.72H3.57V11.35h3.08c2.49,0,3-1,3-2.7v-3.38Z"/><path class="c" d="M26.83,13.48h-3v7.5h-3.64V.2h6.67c4.27,0,6.58,1,6.58,4.8v3.41c0,2.55-.95,3.94-2.94,4.62l3.74,7.95h-3.82l-3.59-7.5Zm-3-2.34h3c2.52,0,3-1.07,3-2.7v-3.23c0-1.63-.47-2.66-3-2.66h-3V11.14Z"/><path class="c" d="M40.75,15.98V5.18C40.75,1.09,43.18,.03,47.48,.03s6.73,1.06,6.73,5.15V15.98c0,4.12-2.49,5.18-6.73,5.18s-6.73-1.07-6.73-5.18Zm9.84-.27V5.45c0-2.08-.62-3.11-3.11-3.11s-3.11,1-3.11,3.11V15.7c0,2.08,.59,3.11,3.11,3.11s3.11-1.03,3.11-3.11h0Z"/><path class="c" d="M60.37,18.31h2.25c1.22,.1,2.29-.8,2.39-2.01,.01-.16,.01-.32-.01-.48V.2h3.61V16.27c0,3.61-2.51,4.68-5.51,4.68h-2.76l.03-2.64Z"/><path class="c" d="M80.1,2.81v6.17h6.72v2.57h-6.72v6.79h6.72v2.64h-10.34V.2h10.34V2.81h-6.72Z"/><path class="c" d="M94.05,15.98V5.18c0-4.12,2.4-5.18,6.73-5.18s6.73,1.06,6.73,4.65v2.19h-3.62v-2c0-1.48-.56-2.55-3.11-2.55s-3.11,1.07-3.11,3V15.79c0,2,.56,3.08,3.11,3.08s3.11-1.15,3.11-2.66v-1.93h3.62v2.1c0,3.59-2.43,4.77-6.73,4.77s-6.73-1.09-6.73-5.17Z"/><path class="c" d="M126.82,2.81h-4.95V20.98h-3.61V2.81h-5V.2h13.51l.05,2.61Z"/><path class="c" d="M161.55,.2V20.98h-3.38V5.77l-4.48,15.21h-2.54l-4.42-15v15h-3V.2h4.41l4.57,15.18L157.09,.2h4.46Z"/><path class="c" d="M169.34,15.98V5.18c0-4.09,2.42-5.15,6.72-5.15s6.73,1.06,6.73,5.15V15.98c0,4.12-2.49,5.18-6.73,5.18s-6.72-1.07-6.72-5.18Zm9.83-.27V5.45c0-2.08-.62-3.11-3.11-3.11s-3.11,1-3.11,3.11V15.7c0,2.08,.59,3.11,3.11,3.11s3.11-1.03,3.11-3.11h0Z"/><path class="c" d="M203.88,.2l-5.42,20.78h-4.3L188.77,.23h3.68l4.17,16.66L200.74,.23l3.14-.03Z"/><path class="c" d="M210.22,.2h3.62V20.98h-3.62V.2Z"/><path class="c" d="M225.54,2.81v6.17h6.73v2.57h-6.73v6.79h6.73v2.64h-10.35V.2h10.35V2.81h-6.73Z"/></g></g></svg>