<svg xmlns="http://www.w3.org/2000/svg" viewBox="0 0 160.28 42.53"><defs><style>.a{isolation:isolate;}.b{fill:#ffa219;}</style></defs><g class="a"><g class="a"><path class="b" d="M15,12.49V.23h3.57V12.07c0,1.59.41,2.3,2.23,2.3S23,13.66,23,12.07V.23h3.56V12.49c0,3.12-2.18,4-5.79,4S15,15.61,15,12.49Z"/><path class="b" d="M42,.23v16.1H38.7l-5.27-10v10h-3V.23h3.2L39,10.83V.23Z"/><path class="b" d="M57.62,4.23v8.1c0,3.12-2.07,4-5.63,4H46.06V.23H52C55.55.23,57.62,1.1,57.62,4.23Zm-3.56.44c0-1.59-.37-2.28-2.14-2.28h-2.3V14.17h2.3c1.77,0,2.14-.72,2.14-2.28Z"/><path class="b" d="M65,2.76v4h5.38V9.29H65V13.8h5.38v2.53h-9V.23h9V2.76Z"/><path class="b" d="M79.71,10.78h-2v5.55H74.09V.23h5.82c3.54,0,5.64.83,5.64,3.68v3a3.26,3.26,0,0,1-2.24,3.38l3,6H82.51Zm-2-2.16h2.18c1.75,0,2.14-.71,2.14-1.86V4.23c0-1.15-.39-1.84-2.14-1.84H77.66Z"/><path class="b" d="M95.94,16.33h-6.6V.23h6.44c2.74,0,5,.48,5,3.24V5.36A2.52,2.52,0,0,1,98.86,8a2.68,2.68,0,0,1,2,2.89l0,2.16C100.93,15.84,98.68,16.33,95.94,16.33Zm-.3-13.92H92.91V6.9h2.73c1,0,1.54-.37,1.54-1.34V3.72C97.18,2.76,96.63,2.41,95.64,2.41Zm1.71,10.42V10.49c0-1-.56-1.34-1.57-1.34H92.91v5H95.8C96.79,14.14,97.37,13.8,97.35,12.83Z"/><path class="b" d="M104.48,12.49V4.05c0-3.15,2.18-4,5.77-4S116,.9,116,4.05v8.44c0,3.15-2.23,4-5.79,4S104.48,15.64,104.48,12.49Zm8-.42V4.46c0-1.59-.46-2.3-2.23-2.3S108,2.87,108,4.46v7.61c0,1.59.46,2.3,2.21,2.3S112.48,13.66,112.48,12.07Z"/><path class="b" d="M131.41,4.23v8.1c0,3.12-2.07,4-5.64,4h-5.93V.23h5.93C129.34.23,131.41,1.1,131.41,4.23Zm-3.57.44c0-1.59-.37-2.28-2.14-2.28h-2.3V14.17h2.3c1.77,0,2.14-.72,2.14-2.28Z"/><path class="b" d="M146.52.23l-4.74,11.4v4.7h-3.56V11.61L133.57.23h3.57L140.36,8,143.51.23Z"/></g><g class="a"><path class="b" d="M5.61,36.78H3.56v5.55H0V26.23H5.82c3.54,0,5.63.83,5.63,3.68v3A3.25,3.25,0,0,1,9.22,36.3l2.94,6H8.42ZM3.56,34.62H5.75c1.75,0,2.14-.71,2.14-1.86V30.23c0-1.15-.39-1.84-2.14-1.84H3.56Z"/><path class="b" d="M18.81,28.76v4h5.38v2.51H18.81V39.8h5.38v2.53H15.25V26.23h8.94v2.53Z"/><path class="b" d="M35.76,31.63V30.12c0-1.25-.41-2-2.23-2s-2.23.71-2.23,2.21v7.77c0,1.5.39,2.23,2.23,2.23s2.23-.76,2.23-2.07V35.63H33.58v-2.5h5.75v5.49c0,3-2.19,3.91-5.82,3.91s-5.77-.92-5.77-4V30.05c0-3.15,2.11-4.05,5.77-4.05s5.82.9,5.82,3.82v1.81Z"/><path class="b" d="M46.69,28.76v4h5.38v2.51H46.69V39.8h5.38v2.53h-9V26.23h9v2.53Z"/><path class="b" d="M67.36,26.23v16.1H64l-5.27-10v10h-3V26.23H59l5.39,10.6V26.23Z"/><path class="b" d="M75,28.76v4h5.38v2.51H75V39.8h5.38v2.53h-9V26.23h9v2.53Z"/><path class="b" d="M89.67,36.78h-2v5.55H84.06V26.23h5.82c3.54,0,5.64.83,5.64,3.68v3a3.26,3.26,0,0,1-2.23,3.38l2.94,6H92.48Zm-2-2.16h2.18c1.75,0,2.14-.71,2.14-1.86V30.23c0-1.15-.39-1.84-2.14-1.84H87.63Z"/><path class="b" d="M106.92,39.84h-5l-.63,2.49h-3.1l4.25-16.1h4.51l4.23,16.1h-3.59Zm-.59-2.39-1.94-7.59-1.9,7.59Z"/><path class="b" d="M123.16,28.76h-4V42.33h-3.57V28.76h-4V26.23h11.61Z"/><path class="b" d="M126,26.23h3.56v16.1H126Z"/><path class="b" d="M133.35,38.49V30.05c0-3.15,2.19-4.05,5.77-4.05s5.8.9,5.8,4.05v8.44c0,3.15-2.23,4-5.8,4S133.35,41.64,133.35,38.49Zm8-.42V30.46c0-1.59-.46-2.3-2.24-2.3s-2.2.71-2.2,2.3v7.61c0,1.59.46,2.3,2.2,2.3S141.36,39.66,141.36,38.07Z"/><path class="b" d="M160.28,26.23v16.1H157l-5.27-10v10h-3V26.23h3.19l5.38,10.6V26.23Z"/></g></g></svg>