<svg xmlns="http://www.w3.org/2000/svg" viewBox="0 0 226.48 16.53"><defs><style>.a{isolation:isolate;}.b{fill:#ffa219;}</style></defs><g class="a"><g class="a"><path class="b" d="M6.6,16.33H0V.23H6.44c2.73,0,5,.48,5,3.24V5.36A2.53,2.53,0,0,1,9.52,8a2.67,2.67,0,0,1,2,2.89l0,2.16C11.59,15.84,9.34,16.33,6.6,16.33ZM6.3,2.41H3.56V6.9H6.3c1,0,1.54-.37,1.54-1.34V3.72C7.84,2.76,7.29,2.41,6.3,2.41ZM8,12.83V10.49c0-1-.55-1.34-1.56-1.34H3.56v5h2.9C7.45,14.14,8,13.8,8,12.83Z"/><path class="b" d="M15.13,12.49V4.05c0-3.15,2.19-4,5.78-4S26.7.9,26.7,4.05v8.44c0,3.15-2.23,4-5.79,4S15.13,15.64,15.13,12.49Zm8-.42V4.46c0-1.59-.46-2.3-2.23-2.3s-2.21.71-2.21,2.3v7.61c0,1.59.46,2.3,2.21,2.3S23.14,13.66,23.14,12.07Z"/><path class="b" d="M42.06,4.23v8.1c0,3.12-2.07,4-5.63,4H30.5V.23h5.93C40,.23,42.06,1.1,42.06,4.23Zm-3.56.44c0-1.59-.37-2.28-2.14-2.28h-2.3V14.17h2.3c1.77,0,2.14-.72,2.14-2.28Z"/><path class="b" d="M57.18.23l-4.74,11.4v4.7H48.87V11.61L44.23.23h3.56L51,8,54.16.23Z"/><path class="b" d="M71.8,10.78h-2v5.55H66.19V.23H72c3.54,0,5.64.83,5.64,3.68v3a3.26,3.26,0,0,1-2.24,3.38l3,6H74.61Zm-2-2.16h2.18c1.75,0,2.14-.71,2.14-1.86V4.23c0-1.15-.39-1.84-2.14-1.84H69.76Z"/><path class="b" d="M85,2.76v4h5.38V9.29H85V13.8h5.38v2.53h-9V.23h9V2.76Z"/><path class="b" d="M102,5.63V4.12c0-1.25-.42-2-2.23-2s-2.23.71-2.23,2.21v7.77c0,1.5.39,2.23,2.23,2.23S102,13.61,102,12.3V9.63H99.77V7.13h5.75v5.49c0,3-2.18,3.91-5.82,3.91s-5.77-.92-5.77-4V4.05c0-3.15,2.12-4,5.77-4s5.82.9,5.82,3.82V5.63Z"/><path class="b" d="M112.88,2.76v4h5.38V9.29h-5.38V13.8h5.38v2.53h-8.94V.23h8.94V2.76Z"/><path class="b" d="M133.56.23v16.1h-3.34L125,6.28v10h-3V.23h3.2l5.38,10.6V.23Z"/><path class="b" d="M141.15,2.76v4h5.38V9.29h-5.38V13.8h5.38v2.53h-8.95V.23h8.95V2.76Z"/><path class="b" d="M155.87,10.78h-2.05v5.55h-3.56V.23h5.82c3.54,0,5.63.83,5.63,3.68v3a3.25,3.25,0,0,1-2.23,3.38l2.94,6h-3.75Zm-2.05-2.16H156c1.74,0,2.14-.71,2.14-1.86V4.23c0-1.15-.4-1.84-2.14-1.84h-2.19Z"/><path class="b" d="M173.12,13.84h-5.06l-.62,2.49h-3.11L168.59.23h4.5l4.24,16.1h-3.59Zm-.6-2.39-1.93-7.59-1.91,7.59Z"/><path class="b" d="M189.35,2.76h-4V16.33h-3.57V2.76h-4V.23h11.61Z"/><path class="b" d="M192.14.23h3.56v16.1h-3.56Z"/><path class="b" d="M199.55,12.49V4.05c0-3.15,2.18-4,5.77-4s5.79.9,5.79,4.05v8.44c0,3.15-2.23,4-5.79,4S199.55,15.64,199.55,12.49Zm8-.42V4.46c0-1.59-.46-2.3-2.23-2.3s-2.21.71-2.21,2.3v7.61c0,1.59.46,2.3,2.21,2.3S207.55,13.66,207.55,12.07Z"/><path class="b" d="M226.48.23v16.1h-3.34l-5.26-10v10h-3V.23h3.2l5.38,10.6V.23Z"/></g></g></svg>