<svg xmlns="http://www.w3.org/2000/svg" viewBox="0 0 229.86 16.53"><defs><style>.a{isolation:isolate;}.b{fill:#ffa219;}</style></defs><g class="a"><g class="a"><path class="b" d="M11.45,4V7.29c0,2.87-2,3.84-5.61,3.82H3.56v5.22H0V.23H5.82C9.38.23,11.45,1.08,11.45,4Zm-3.56.36c0-1.24-.37-1.93-2.14-1.93H3.56V8.94H5.75c1.77,0,2.14-.71,2.14-1.93Z"/><path class="b" d="M21.62,13.84H16.56l-.62,2.49H12.83L17.09.23H21.6l4.23,16.1H22.24ZM21,11.45,19.09,3.86l-1.91,7.59Z"/><path class="b" d="M34.29,10.78h-2v5.55H28.68V.23H34.5c3.54,0,5.63.83,5.63,3.68v3A3.25,3.25,0,0,1,37.9,10.3l3,6H37.1Zm-2-2.16h2.19c1.75,0,2.14-.71,2.14-1.86V4.23c0-1.15-.39-1.84-2.14-1.84H32.24Z"/><path class="b" d="M54.3,2.76h-4V16.33H46.69V2.76h-4V.23H54.3Z"/><path class="b" d="M56.76,13.08V11h3.57v1.84c0,1,.76,1.58,2.25,1.58s2.19-.55,2.19-1.56V11c0-1-.44-1.52-1.57-1.54l-2.5,0c-2.65-.07-4-.89-4-2.94V3.68C56.74.76,59.59,0,62.51,0s5.82.76,5.82,3.47V5.68H64.77V3.79c0-1.08-.81-1.63-2.26-1.63s-2.21.55-2.21,1.59V5.56c0,1,.49,1.41,1.55,1.43l2.53.07c2.66.05,4,1,4,2.87v3c0,2.87-2.83,3.65-5.77,3.65S56.76,15.75,56.76,13.08Z"/><path class="b" d="M90,4.23v8.1c0,3.12-2.07,4-5.63,4H78.41V.23h5.93C87.9.23,90,1.1,90,4.23Zm-3.56.44c0-1.59-.37-2.28-2.14-2.28H82V14.17h2.3c1.77,0,2.14-.72,2.14-2.28Z"/><path class="b" d="M93.77.23h3.56v16.1H93.77Z"/><path class="b" d="M101.08,13.08V11h3.57v1.84c0,1,.76,1.58,2.25,1.58s2.19-.55,2.19-1.56V11c0-1-.44-1.52-1.57-1.54l-2.5,0c-2.65-.07-4-.89-4-2.94V3.68c0-2.92,2.85-3.68,5.77-3.68s5.82.76,5.82,3.47V5.68h-3.56V3.79c0-1.08-.81-1.63-2.26-1.63s-2.21.55-2.21,1.59V5.56c0,1,.49,1.41,1.55,1.43l2.53.07c2.66.05,4,1,4,2.87v3c0,2.87-2.82,3.65-5.77,3.65S101.08,15.75,101.08,13.08Z"/><path class="b" d="M124,13.84H119l-.62,2.49h-3.1L119.48.23H124l4.23,16.1h-3.59Zm-.6-2.39-1.93-7.59-1.91,7.59Z"/><path class="b" d="M130.82,13.08V11h3.57v1.84c0,1,.76,1.58,2.25,1.58s2.18-.55,2.18-1.56V11c0-1-.43-1.52-1.56-1.54l-2.51,0c-2.64-.07-3.95-.89-3.95-2.94V3.68C130.8.76,133.65,0,136.57,0s5.82.76,5.82,3.47V5.68h-3.57V3.79c0-1.08-.8-1.63-2.25-1.63s-2.21.55-2.21,1.59V5.56c0,1,.49,1.41,1.54,1.43l2.53.07c2.67.05,4,1,4,2.87v3c0,2.87-2.83,3.65-5.77,3.65S130.82,15.75,130.82,13.08Z"/><path class="b" d="M145.68,13.08V11h3.56v1.84c0,1,.76,1.58,2.26,1.58s2.18-.55,2.18-1.56V11c0-1-.43-1.52-1.56-1.54l-2.51,0c-2.64-.07-4-.89-4-2.94V3.68c0-2.92,2.85-3.68,5.77-3.68s5.82.76,5.82,3.47V5.68h-3.57V3.79c0-1.08-.8-1.63-2.25-1.63s-2.21.55-2.21,1.59V5.56c0,1,.48,1.41,1.54,1.43l2.53.07c2.67.05,4,1,4,2.87v3c0,2.87-2.83,3.65-5.77,3.65S145.68,15.75,145.68,13.08Z"/><path class="b" d="M164.56,2.76v4h5.38V9.29h-5.38V13.8h5.38v2.53H161V.23h8.94V2.76Z"/><path class="b" d="M189.08.23v16.1h-3.36V4.94l-3.36,11.39H180L176.61,4.94V16.33h-2.94V.23h4.6L181.44,11l3-10.76Z"/><path class="b" d="M199.73,16.33h-6.6V.23h6.44c2.73,0,5,.48,5,3.24V5.36A2.52,2.52,0,0,1,202.65,8a2.67,2.67,0,0,1,2,2.89l0,2.16C204.72,15.84,202.46,16.33,199.73,16.33Zm-.3-13.92h-2.74V6.9h2.74c1,0,1.54-.37,1.54-1.34V3.72C201,2.76,200.42,2.41,199.43,2.41Zm1.7,10.42V10.49c0-1-.55-1.34-1.56-1.34h-2.88v5h2.9C200.58,14.14,201.15,13.8,201.13,12.83Z"/><path class="b" d="M217.16,13.8v2.53h-8.78V.23h3.56V13.8Z"/><path class="b" d="M229.86.23l-4.74,11.4v4.7h-3.56V11.61L216.91.23h3.57L223.69,8,226.84.23Z"/></g></g></svg>