<svg xmlns="http://www.w3.org/2000/svg" viewBox="0 0 289.8 25.88"><defs><style>.a{isolation:isolate;}.b{fill:#ffa219;}</style></defs><g class="a"><g class="a"><path class="b" d="M5.58,4.32v6.3H14v3.92H5.58V21.6H14v4H0V.36H14v4Z"/><path class="b" d="M37.94.36v25.2H32.72L24.48,9.83V25.56H19.84V.36h5L33.26,17V.36Z"/><path class="b" d="M56.52,8.82V6.44c0-1.94-.65-3.06-3.49-3.06S49.54,4.5,49.54,6.84V19c0,2.33.61,3.49,3.49,3.49s3.49-1.19,3.49-3.24V15.08H53.1V11.16h9v8.6c0,4.64-3.42,6.12-9.11,6.12s-9-1.44-9-6.34V6.33C44,1.4,47.27,0,53,0S62.1,1.4,62.1,6V8.82Z"/><path class="b" d="M68,.36h5.58v25.2H68Z"/><path class="b" d="M98,.36v25.2H92.81L84.56,9.83V25.56H79.92V.36h5L93.35,17V.36Z"/><path class="b" d="M109.91,4.32v6.3h8.42v3.92h-8.42V21.6h8.42v4h-14V.36h14v4Z"/><path class="b" d="M142.85,16.88h-3.21v8.68h-5.58V.36h9.11c5.54,0,8.82,1.3,8.82,5.76v4.71a5.1,5.1,0,0,1-3.49,5.3l4.6,9.43h-5.86Zm-3.21-3.38h3.42c2.74,0,3.35-1.12,3.35-2.92v-4c0-1.8-.61-2.88-3.35-2.88h-3.42Z"/><path class="b" d="M163.51,4.32v6.3h8.42v3.92h-8.42V21.6h8.42v4h-14V.36h14v4Z"/><path class="b" d="M201.88.36v25.2h-5.25V7.74l-5.26,17.82h-3.74L182.37,7.74V25.56h-4.6V.36H185l5,16.85L194.65.36Z"/><path class="b" d="M207.93,19.54V6.33c0-4.93,3.42-6.33,9-6.33S226,1.4,226,6.33V19.54c0,4.94-3.49,6.34-9.07,6.34S207.93,24.48,207.93,19.54Zm12.53-.64V7c0-2.48-.72-3.6-3.49-3.6S213.51,4.5,213.51,7V18.9c0,2.48.72,3.6,3.46,3.6S220.46,21.38,220.46,18.9Z"/><path class="b" d="M250.16.36l-6.66,25.2h-6.95L229.93.36h5.62l4.93,19.55L245.37.36Z"/><path class="b" d="M265,21.67h-7.91l-1,3.89h-4.86L257.9.36H265l6.62,25.2H266Zm-.93-3.74L261,6.05l-3,11.88Z"/><path class="b" d="M289.8,21.6v4H276.05V.36h5.58V21.6Z"/></g></g></svg>