<?xml version="1.0" encoding="utf-8"?>
<!-- Generator: Adobe Illustrator 26.1.0, SVG Export Plug-In . SVG Version: 6.00 Build 0)  -->
<svg version="1.1" id="a" xmlns="http://www.w3.org/2000/svg" xmlns:xlink="http://www.w3.org/1999/xlink" x="0px" y="0px"
	 viewBox="0 0 1914.1 401.5" style="enable-background:new 0 0 1914.1 401.5;" xml:space="preserve">
<style type="text/css">
	.st0{fill:#FFA219;}
</style>
<path class="st0" d="M315.4,401.5V169.1h45.9l61.3,123.1h0.9l60.9-123.1h46.4v232.4h-47.8V260.2h-0.9L434.8,360h-23.9l-46.8-99.9
	h-0.9v141.3H315.4z"/>
<path class="st0" d="M587.5,401.5V169.1h142.3v31.3h-94.6v68.2h82.4V300h-82.4v68.2h94.6v33.3H587.5z"/>
<path class="st0" d="M772.4,401.5V169.1h45.9l61.3,123.1h0.9l60.9-123.1h46.4v232.4h-47.8V260.2h-0.9L891.8,360H868l-46.8-99.9h-0.9
	v141.3H772.4L772.4,401.5z"/>
<path class="st0" d="M1044.5,401.5V169.1h69.8c15.3,0,28.3,1.6,39.1,4.9c10.8,3.3,19.6,7.6,26.5,13.1c6.9,5.4,11.8,11.7,14.7,18.8
	c3,7.1,4.4,14.4,4.4,22v8.5c0,6.3-0.7,11.6-2.1,16c-1.4,4.4-3.5,8.2-6.3,11.4c-5.3,6.1-13.4,11.3-24.4,15.7
	c11.2,3.7,19.5,9.1,24.8,16.3c5.3,7.2,8,17,8,29.4v13.1c0,20.5-7.1,36.1-21.3,47c-14.2,10.9-36.9,16.3-68.1,16.3H1044.5
	L1044.5,401.5z M1092.3,200.4v64h21.5c15.9,0,26.6-2.8,32.1-8.3c5.5-5.6,8.2-13.6,8.2-24.3c0-10.7-3-18.3-9.1-23.5
	c-6.1-5.2-17.1-7.8-33-7.8C1111.9,200.4,1092.3,200.4,1092.3,200.4z M1092.3,293.8v74.4h20.6c9.7,0,17.2-1,22.7-2.9
	c5.5-2,9.6-4.7,12.4-8.2c2.8-3.5,4.5-7.6,5.1-12.4c0.6-4.8,0.9-10,0.9-15.7s-0.5-11-1.4-15.3s-2.8-8.1-5.6-11.1
	c-3.1-3-7.3-5.3-12.6-6.7s-12.3-2.1-21.1-2.1H1092.3L1092.3,293.8z"/>
<path class="st0" d="M1255.7,401.5V169.1H1398v31.3h-94.6v68.2h82.4V300h-82.4v68.2h94.6v33.3H1255.7z"/>
<path class="st0" d="M1440.6,401.5V169.1h76.8c56.2,0,84.3,22.7,84.3,68.2c0,13.7-3,25.4-9.1,34.9c-6.1,9.6-16.8,17.3-32.1,23.2
	l51.5,106.1h-50.6l-44.5-99.2h-28.6v99.2L1440.6,401.5L1440.6,401.5z M1488.4,200.4v72.5h27.2c8.4,0,15.1-0.8,20.1-2.5
	c5-1.6,8.9-4,11.7-7c2.5-3,4.2-6.8,5.1-11.3c0.9-4.5,1.4-9.6,1.4-15.5s-0.5-11-1.4-15.5c-0.9-4.5-2.8-8.3-5.6-11.6
	c-5.9-6.1-17.2-9.1-33.7-9.1L1488.4,200.4L1488.4,200.4z"/>
<path class="st0" d="M0,122.4L38.9,1h20.8l38.9,121.4H73.6l-7.3-26.1h-34l-7.3,26.1H0z M61.6,79.9l-12.2-44h-0.5l-12.2,44H61.6
	L61.6,79.9z"/>
<path class="st0" d="M116.9,122.4V1h74.4v16.4h-49.4V53h43v16.4h-43V105h49.4v17.4H116.9z"/>
<path class="st0" d="M210.1,32.7c0-3.3,0.2-6.1,0.5-8.4c0.3-2.3,0.9-4.4,1.7-6.1c0.8-1.7,1.7-3.2,2.8-4.6c1.1-1.4,2.4-2.8,4-4.3
	c3.3-3,7.3-5.3,12.2-6.9s10.2-2.5,15.9-2.5s11,0.8,15.9,2.5c4.9,1.7,9,4,12.2,6.9c1.6,1.5,3,2.9,4.2,4.3c1.1,1.4,2.1,2.9,2.9,4.6
	c0.8,1.7,1.4,3.7,1.6,6.1s0.4,5.1,0.4,8.4c0,3.6-0.1,6.7-0.2,9.2c-0.2,2.5-0.7,4.7-1.5,6.6c-0.8,1.9-2.1,3.7-3.8,5.2
	c-1.7,1.5-4,3.2-7,4.9c2.9,1.6,5.3,3.2,7,4.8c1.7,1.6,3,3.5,3.8,5.6c0.8,2.2,1.3,4.8,1.5,7.9c0.2,3.1,0.2,7,0.2,11.5
	c0,3.8-0.1,6.8-0.4,9.3s-0.6,4.6-1.1,6.4c-0.5,1.8-1.2,3.4-2.1,4.6c-0.9,1.3-2,2.6-3.3,3.9c-2.8,3-6.7,5.5-11.7,7.6
	c-5.1,2.1-11.3,3.1-18.6,3.1s-13.5-1-18.6-3.1c-5.1-2.1-9-4.6-11.7-7.6c-1.3-1.4-2.4-2.7-3.3-3.9c-0.9-1.3-1.6-2.8-2.1-4.6
	c-0.5-1.8-0.9-3.9-1.1-6.4c-0.2-2.4-0.4-5.5-0.4-9.3c0-4.5,0.1-8.4,0.2-11.5c0.2-3.1,0.7-5.8,1.5-7.9c0.8-2.2,2.1-4,3.8-5.6
	c1.7-1.6,4-3.2,7-4.8c-2.9-1.7-5.3-3.3-7-4.9s-3-3.3-3.8-5.2c-0.8-1.9-1.3-4.1-1.5-6.6C210.2,39.4,210.1,36.3,210.1,32.7z
	 M259.5,25.9c0-2.4-1.2-4.4-3.7-6.1c-2.4-1.7-5.3-2.5-8.6-2.5s-6.1,0.8-8.6,2.5c-2.4,1.7-3.7,3.7-3.7,6.1v17.7
	c0,2.4,1.2,4.4,3.7,6.1c2.4,1.7,5.3,2.5,8.6,2.5s6.1-0.8,8.6-2.5c2.4-1.7,3.7-3.7,3.7-6.1V25.9z M259.5,73.6c0-2.4-1.2-4.4-3.7-6.1
	s-5.3-2.5-8.6-2.5s-6.1,0.8-8.6,2.5c-2.4,1.7-3.7,3.7-3.7,6.1v23.9c0,2.4,1.2,4.4,3.7,6.1c2.4,1.7,5.3,2.5,8.6,2.5s6.1-0.8,8.6-2.5
	s3.7-3.7,3.7-6.1C259.5,97.5,259.5,73.6,259.5,73.6z"/>
<path class="st0" d="M372.5,1l-28.4,51l0.5,0.3c0.8-0.5,2.1-0.8,3.8-1.1c1.7-0.3,4-0.4,6.7-0.4c4.4,0,8.5,0.7,12.2,2.2
	c3.8,1.5,6.7,3.4,8.8,5.6c1.1,1.3,2,2.5,2.7,3.8c0.7,1.3,1.2,2.9,1.7,4.9c0.3,2,0.6,4.6,0.7,7.8c0.2,3.1,0.2,7.1,0.2,11.9
	c0,4-0.1,7.2-0.2,9.8c-0.2,2.6-0.4,4.7-0.7,6.4c-0.5,1.8-1.1,3.4-1.8,4.6c-0.7,1.3-1.7,2.6-2.8,3.9c-3.3,3.8-7.6,6.6-13.1,8.7
	c-5.5,2-11.6,3.1-18.5,3.1s-13-1-18.3-3.1c-5.4-2.1-9.7-5-13-8.6c-1.3-1.4-2.3-2.7-3.1-3.9c-0.7-1.3-1.3-2.8-1.6-4.6
	c-0.5-1.7-0.8-3.8-1-6.4c-0.2-2.6-0.2-5.8-0.2-9.8c0-3.8,0.1-6.8,0.2-9.3s0.4-4.6,0.7-6.4c0.3-1.7,0.8-3.3,1.5-4.7
	c0.7-1.4,1.4-2.9,2.2-4.5l32.7-61H372.5z M356.6,74.8c0-2.6-1.2-4.7-3.7-6.3s-5.3-2.4-8.6-2.4c-3.3,0-6.1,0.8-8.6,2.4
	s-3.7,3.7-3.7,6.3v22.5c0,2.6,1.2,4.7,3.7,6.3s5.3,2.4,8.6,2.4s6.1-0.8,8.6-2.4s3.7-3.7,3.7-6.3C356.6,97.3,356.6,74.8,356.6,74.8z"
	/>
<path class="st0" d="M459.3,122.4V1h40.1c29.3,0,44,11.9,44,35.6c0,7.2-1.6,13.2-4.8,18.2s-8.8,9-16.7,12.1l26.9,55.4h-26.4
	l-23.2-51.8h-14.9v51.8L459.3,122.4L459.3,122.4z M484.3,17.3v37.9h14.2c4.4,0,7.9-0.4,10.5-1.3c2.6-0.9,4.6-2.1,6.1-3.7
	c1.3-1.6,2.2-3.5,2.7-5.9c0.5-2.3,0.7-5,0.7-8.1c0-3.1-0.2-5.8-0.7-8.1s-1.5-4.4-2.9-6.1c-3.1-3.2-9-4.8-17.6-4.8H484.3z"/>
<path class="st0" d="M569.6,122.4V1H644v16.4h-49.4V53h43v16.4h-43V105H644v17.4H569.6z"/>
<path class="st0" d="M746.9,35.9H722V32c0-4-1.4-7.4-4-10.3c-2.7-2.9-7.2-4.4-13.6-4.4c-3.4,0-6.2,0.5-8.3,1.4
	c-2.1,0.9-3.8,2-5.1,3.4c-1.3,1.5-2.2,3.1-2.7,5c-0.5,1.9-0.7,3.8-0.7,5.9c0,2.4,0.1,4.4,0.4,6c0.2,1.6,0.9,3,1.8,4.3
	c1,1.3,2.4,2.3,4.3,3.2c1.9,0.9,4.4,1.8,7.7,2.7l19.1,5.3c5.5,1.5,10,3.2,13.5,5.2c3.4,2,6.1,4.3,8.1,6.9c1.8,2.7,3,5.8,3.7,9.3
	s1,7.4,1,11.9c0,5.1-0.7,9.9-2.2,14.2c-1.5,4.4-3.8,8.1-7.1,11.2c-3.4,3.2-7.9,5.7-13.5,7.5c-5.5,1.8-12.3,2.7-20.3,2.7
	c-6,0-11.7-0.7-16.9-2.2c-5.2-1.5-9.7-3.5-13.5-6.1c-3.8-2.6-6.7-5.7-8.9-9.1s-3.3-7.2-3.3-11.3v-6.5h24.9v5.5c0,3.2,1.4,6.1,4,8.6
	c2.7,2.6,7.2,3.8,13.6,3.8c4.2,0,7.5-0.4,9.9-1.3c2.4-0.9,4.2-2.1,5.5-3.7c1.3-1.6,2.1-3.5,2.3-5.7c0.2-2.2,0.4-4.7,0.4-7.4
	c0-3.2-0.2-5.8-0.5-7.8s-1-3.7-2-4.9c-1.1-1.3-2.7-2.3-4.5-3.1c-1.9-0.8-4.4-1.7-7.5-2.6l-17.9-5.1c-10.8-3.1-18-7.1-21.6-12.2
	c-3.7-5.1-5.5-11.4-5.5-19c0-4.5,0.9-8.9,2.7-13c1.8-4.1,4.5-7.6,8.1-10.6c3.4-3,7.8-5.3,13.1-7.1c5.3-1.8,11.6-2.6,19-2.6
	c6.2,0,11.9,0.8,17,2.4c5.1,1.6,9.6,3.7,13.3,6.3c7.5,5.5,11.3,11.7,11.3,18.8V35.9L746.9,35.9z"/>
<path class="st0" d="M788,122.4v-105h-28.9V1h82.7v16.4H813v105H788z"/>
<path class="st0" d="M857.5,29.6c0-4.9,1.2-9.2,3.7-13c2.4-3.8,5.7-6.9,9.8-9.4c3.9-2.4,8.4-4.2,13.3-5.5c5-1.3,10-1.9,15-1.9
	c5.1,0,10.1,0.6,15,1.9c5,1.3,9.5,3.1,13.6,5.5c3.9,2.5,7.1,5.6,9.5,9.4c2.4,3.8,3.7,8.1,3.7,13v64.1c0,5.1-1.2,9.5-3.7,13.1
	c-2.4,3.6-5.6,6.6-9.5,9c-4.1,2.5-8.6,4.4-13.6,5.6c-5,1.3-10,1.9-15,1.9c-5.1,0-10.1-0.6-15-1.9c-5-1.3-9.4-3.1-13.3-5.6
	c-4.1-2.4-7.3-5.4-9.8-9c-2.4-3.6-3.7-8-3.7-13.1V29.6z M882.4,93.7c0,4.2,1.7,7.3,5,9.3c3.3,2,7.3,3,11.9,3c4.6,0,8.5-1,11.9-3
	c3.3-2,5-5.1,5-9.3V29.6c0-4.2-1.7-7.3-5-9.3c-3.3-2-7.3-3-11.9-3c-4.6,0-8.5,1-11.9,3c-3.3,2-5,5.1-5,9.3
	C882.4,29.6,882.4,93.7,882.4,93.7z"/>
<path class="st0" d="M969.3,122.4V1h40.1c29.3,0,44,11.9,44,35.6c0,7.2-1.6,13.2-4.8,18.2c-3.2,5-8.8,9-16.7,12.1l26.9,55.4h-26.4
	l-23.2-51.8h-14.9v51.8L969.3,122.4L969.3,122.4z M994.2,17.3v37.9h14.2c4.4,0,7.9-0.4,10.5-1.3c2.6-0.9,4.6-2.1,6.1-3.7
	c1.3-1.6,2.2-3.5,2.7-5.9c0.5-2.3,0.7-5,0.7-8.1c0-3.1-0.2-5.8-0.7-8.1s-1.5-4.4-2.9-6.1c-3.1-3.2-9-4.8-17.6-4.8H994.2z"/>
<path class="st0" d="M1079.6,122.4V1h74.4v16.4h-49.4V53h43v16.4h-43V105h49.4v17.4H1079.6z"/>
<path class="st0" d="M1227.8,122.4V1h37.4c6.8,0,12.9,0.6,18.1,1.9c5.2,1.3,9.9,3.5,14.2,6.6s7.2,6.9,8.8,11.2
	c1.6,4.3,2.4,10,2.4,17.3c0,5.5-0.4,10.1-1.4,13.8c-0.9,3.8-2.8,7.3-5.8,10.6c-3.4,4-8,7.1-13.7,9.3c-5.7,2.2-13.2,3.3-22.5,3.3
	h-12.7v47.4L1227.8,122.4L1227.8,122.4z M1252.7,17.3v41.3h12c5.1,0,9-0.5,11.7-1.5c2.8-1,4.8-2.4,6.1-4.3c1.3-1.7,2.1-3.8,2.3-6.3
	c0.2-2.5,0.4-5.3,0.4-8.4c0-2.8-0.1-5.5-0.2-8.1c-0.2-2.6-0.9-4.8-2.2-6.7s-3.3-3.4-5.9-4.4c-2.6-1-6.4-1.5-11.3-1.5L1252.7,17.3
	L1252.7,17.3z"/>
<path class="st0" d="M1333.4,122.4V1h40.1c29.3,0,44,11.9,44,35.6c0,7.2-1.6,13.2-4.8,18.2c-3.2,5-8.8,9-16.7,12.1l26.9,55.4h-26.4
	l-23.2-51.8h-14.9v51.8L1333.4,122.4L1333.4,122.4z M1358.4,17.3v37.9h14.2c4.4,0,7.9-0.4,10.5-1.3c2.6-0.9,4.6-2.1,6.1-3.7
	c1.3-1.6,2.2-3.5,2.7-5.9c0.5-2.3,0.7-5,0.7-8.1c0-3.1-0.2-5.8-0.7-8.1c-0.5-2.3-1.5-4.4-2.9-6.1c-3.1-3.2-9-4.8-17.6-4.8H1358.4z"
	/>
<path class="st0" d="M1442.3,29.6c0-4.9,1.2-9.2,3.7-13c2.4-3.8,5.7-6.9,9.8-9.4c3.9-2.4,8.4-4.2,13.3-5.5c5-1.3,10-1.9,15-1.9
	s10.1,0.6,15,1.9c5,1.3,9.5,3.1,13.6,5.5c3.9,2.5,7.1,5.6,9.5,9.4c2.4,3.8,3.7,8.1,3.7,13v64.1c0,5.1-1.2,9.5-3.7,13.1
	c-2.4,3.6-5.6,6.6-9.5,9c-4.1,2.5-8.6,4.4-13.6,5.6c-5,1.3-10,1.9-15,1.9s-10.1-0.6-15-1.9c-5-1.3-9.4-3.1-13.3-5.6
	c-4.1-2.4-7.3-5.4-9.8-9c-2.4-3.6-3.7-8-3.7-13.1V29.6z M1467.2,93.7c0,4.2,1.7,7.3,5,9.3c3.3,2,7.3,3,11.9,3s8.5-1,11.9-3
	c3.3-2,5-5.1,5-9.3V29.6c0-4.2-1.7-7.3-5-9.3c-3.3-2-7.3-3-11.9-3c-4.6,0-8.5,1-11.9,3c-3.3,2-5,5.1-5,9.3
	C1467.2,29.6,1467.2,93.7,1467.2,93.7z"/>
<path class="st0" d="M1612,1v92.8c0,8.3-3.8,15.2-11.3,20.8c-3.8,2.7-8.2,4.9-13.3,6.5c-5.1,1.6-11.1,2.4-18,2.4
	c-8,0-14.6-1.2-19.9-3.7c-5.3-2.4-9.5-4.9-12.6-7.2l19.6-10.9c1.8,1.3,3.9,2.3,6.2,3.1c2.4,0.9,4.8,1.3,7.5,1.3
	c1.5,0,3.2-0.2,5.1-0.6c2-0.4,3.8-1.2,5.6-2.3c1.8-1,3.3-2.5,4.4-4.4c1.1-1.9,1.7-4.4,1.7-7.4V1H1612L1612,1z"/>
<path class="st0" d="M1641.6,122.4V1h74.4v16.4h-49.4V53h43v16.4h-43V105h49.4v17.4H1641.6z"/>
<path class="st0" d="M1817.4,87.7v7.5c0,3.8-1,7.3-3.1,10.7c-2,3.4-4.8,6.3-8.4,8.9c-3.6,2.6-7.8,4.7-12.6,6.2s-10,2.3-15.5,2.3
	c-4.7,0-9.5-0.5-14.4-1.4c-4.9-0.9-9.3-2.5-13.2-4.8c-3.9-2.3-7.1-5.2-9.7-8.8c-2.5-3.6-3.8-8.2-3.8-13.7V27.9c0-4,1-7.7,2.9-11.1
	s4.7-6.4,8.3-8.9s7.9-4.5,12.8-5.9s10.5-2.1,16.5-2.1c11.7,0,21.3,2.7,28.6,8c3.6,2.6,6.4,5.7,8.4,9.3c2,3.6,3.1,7.5,3.1,11.7v6.8
	h-24.9V30c0-3.4-1.4-6.4-4.2-8.9c-2.8-2.5-6.5-3.8-11.3-3.8c-6.2,0-10.3,1.3-12.3,4c-2,2.7-3.1,6.1-3.1,10.1v62.1
	c0,3.5,1.1,6.5,3.3,8.9c2.2,2.4,6.1,3.6,11.9,3.6c1.6,0,3.4-0.2,5.3-0.6c1.9-0.4,3.6-1,5.3-2c1.5-0.9,2.7-2.2,3.7-3.8
	c1-1.6,1.5-3.6,1.5-6v-6L1817.4,87.7L1817.4,87.7z"/>
<path class="st0" d="M1860.2,122.4v-105h-28.9V1h82.7v16.4h-28.9v105H1860.2z"/>
</svg>
