<?xml version="1.0" encoding="utf-8"?>
<!-- Generator: Adobe Illustrator 26.1.0, SVG Export Plug-In . SVG Version: 6.00 Build 0)  -->
<svg version="1.1" id="a" xmlns="http://www.w3.org/2000/svg" xmlns:xlink="http://www.w3.org/1999/xlink" x="0px" y="0px"
	 viewBox="0 0 1204.5 270.7" style="enable-background:new 0 0 1204.5 270.7;" xml:space="preserve">
<style type="text/css">
	.st0{fill:#FFA219;}
</style>
<path class="st0" d="M0,77L24.5,0.6h13.1L62,77H46.3l-4.6-16.4H20.3L15.7,77H0z M38.8,50.3l-7.7-27.7h-0.3l-7.7,27.7H38.8L38.8,50.3
	z"/>
<path class="st0" d="M73.6,77V0.6h46.8v10.3H89.3v22.4h27.1v10.3H89.3v22.4h31.1V77H73.6z"/>
<path class="st0" d="M132.2,20.6c0-2.1,0.1-3.8,0.3-5.3c0.2-1.5,0.6-2.7,1.1-3.8c0.5-1.1,1.1-2,1.8-2.9s1.5-1.8,2.5-2.7
	c2.1-1.9,4.6-3.3,7.7-4.3S152,0,155.6,0s6.9,0.5,10,1.6c3.1,1,5.6,2.5,7.7,4.3c1,0.9,1.9,1.8,2.6,2.7s1.3,1.8,1.9,2.9
	c0.5,1.1,0.9,2.3,1,3.8s0.2,3.2,0.2,5.3c0,2.3-0.1,4.2-0.1,5.8c-0.1,1.6-0.4,3-0.9,4.2c-0.5,1.2-1.3,2.3-2.4,3.3
	c-1.1,1-2.5,2-4.4,3.1c1.9,1,3.3,2,4.4,3s1.9,2.2,2.4,3.5c0.5,1.4,0.8,3,0.9,5c0.1,2,0.1,4.4,0.1,7.2c0,2.4-0.1,4.3-0.2,5.8
	c-0.1,1.5-0.4,2.9-0.7,4c-0.3,1.2-0.8,2.1-1.3,2.9s-1.3,1.6-2.1,2.5c-1.8,1.9-4.2,3.4-7.4,4.8s-7.1,2-11.7,2s-8.5-0.7-11.7-2
	s-5.6-2.9-7.4-4.8c-0.8-0.9-1.5-1.7-2.1-2.5s-1-1.8-1.3-2.9c-0.3-1.1-0.5-2.5-0.7-4c-0.1-1.5-0.2-3.5-0.2-5.8c0-2.9,0.1-5.3,0.1-7.2
	c0.1-2,0.4-3.6,0.9-5c0.5-1.4,1.3-2.5,2.4-3.5s2.5-2,4.4-3c-1.9-1.1-3.3-2.1-4.4-3.1s-1.9-2.1-2.4-3.3c-0.5-1.2-0.8-2.6-0.9-4.2
	C132.3,24.8,132.2,22.9,132.2,20.6z M163.3,16.3c0-1.5-0.8-2.8-2.3-3.8s-3.3-1.6-5.4-1.6s-3.9,0.5-5.4,1.6s-2.3,2.3-2.3,3.8v11.2
	c0,1.5,0.8,2.8,2.3,3.8s3.3,1.6,5.4,1.6s3.9-0.5,5.4-1.6s2.3-2.3,2.3-3.8V16.3z M163.3,46.4c0-1.5-0.8-2.8-2.3-3.8s-3.3-1.6-5.4-1.6
	s-3.9,0.5-5.4,1.6s-2.3,2.3-2.3,3.8v15c0,1.5,0.8,2.8,2.3,3.8s3.3,1.6,5.4,1.6s3.9-0.5,5.4-1.6s2.3-2.3,2.3-3.8
	C163.3,61.4,163.3,46.3,163.3,46.4z"/>
<path class="st0" d="M234.4,0.6l-17.9,32.1l0.3,0.2c0.5-0.3,1.3-0.5,2.4-0.7s2.5-0.3,4.2-0.3c2.8,0,5.3,0.5,7.7,1.4
	c2.4,0.9,4.2,2.1,5.5,3.5c0.7,0.8,1.3,1.6,1.7,2.4s0.8,1.8,1.1,3.1c0.2,1.3,0.4,2.9,0.5,4.9c0.1,2,0.1,4.5,0.1,7.5
	c0,2.5-0.1,4.6-0.1,6.2c-0.1,1.6-0.3,3-0.5,4c-0.3,1.2-0.7,2.1-1.1,2.9c-0.5,0.8-1.1,1.6-1.8,2.5c-2.1,2.4-4.8,4.2-8.2,5.5
	c-3.4,1.3-7.3,1.9-11.6,1.9s-8.2-0.7-11.5-2c-3.4-1.3-6.1-3.1-8.2-5.4c-0.8-0.9-1.5-1.7-1.9-2.5c-0.5-0.8-0.8-1.8-1-2.9
	c-0.3-1.1-0.5-2.4-0.6-4c-0.1-1.6-0.1-3.7-0.1-6.2c0-2.4,0.1-4.3,0.1-5.8c0.1-1.5,0.2-2.9,0.5-4c0.2-1.1,0.5-2.1,0.9-3
	s0.9-1.8,1.4-2.8l20.6-38.4H234.4z M224.4,47.1c0-1.6-0.8-3-2.3-4s-3.3-1.5-5.4-1.5s-3.9,0.5-5.4,1.5s-2.3,2.3-2.3,4v14.2
	c0,1.7,0.8,3,2.3,4s3.3,1.5,5.4,1.5s3.9-0.5,5.4-1.5s2.3-2.3,2.3-4C224.4,61.3,224.4,47.1,224.4,47.1z"/>
<path class="st0" d="M289.1,77V0.6h25.2c18.5,0,27.7,7.5,27.7,22.4c0,4.5-1,8.3-3,11.5s-5.5,5.7-10.5,7.6L345.4,77h-16.6l-14.6-32.6
	h-9.4V77L289.1,77L289.1,77z M304.8,10.9v23.8h8.9c2.8,0,5-0.3,6.6-0.8c1.6-0.5,2.9-1.3,3.9-2.3c0.8-1,1.4-2.2,1.7-3.7
	c0.3-1.5,0.5-3.2,0.5-5.1s-0.1-3.6-0.5-5.1s-0.9-2.7-1.9-3.8c-2-2-5.6-3-11.1-3H304.8z"/>
<path class="st0" d="M358.5,77V0.6h46.8v10.3h-31.1v22.4h27.1v10.3h-27.1v22.4h31.1V77H358.5z"/>
<path class="st0" d="M470.1,22.6h-15.7v-2.5c0-2.5-0.9-4.7-2.5-6.5s-4.5-2.7-8.5-2.7c-2.1,0-3.9,0.3-5.2,0.9
	c-1.3,0.6-2.4,1.3-3.2,2.2c-0.8,0.9-1.4,2-1.7,3.2c-0.3,1.2-0.5,2.4-0.5,3.7c0,1.5,0.1,2.8,0.2,3.8c0.1,1,0.5,1.9,1.1,2.7
	c0.6,0.8,1.5,1.5,2.7,2c1.2,0.6,2.8,1.1,4.9,1.7l12,3.3c3.5,0.9,6.3,2,8.5,3.3s3.9,2.7,5.1,4.3c1.1,1.7,1.9,3.7,2.3,5.8
	s0.6,4.7,0.6,7.5c0,3.2-0.5,6.2-1.4,9c-0.9,2.8-2.4,5.1-4.5,7c-2.2,2-5,3.6-8.5,4.7s-7.8,1.7-12.8,1.7c-3.8,0-7.3-0.5-10.6-1.4
	c-3.3-0.9-6.1-2.2-8.5-3.9c-2.4-1.7-4.2-3.6-5.6-5.7c-1.4-2.2-2.1-4.6-2.1-7.1v-4.1h15.7v3.4c0,2,0.9,3.8,2.5,5.4
	c1.7,1.6,4.5,2.4,8.5,2.4c2.7,0,4.7-0.3,6.2-0.8c1.5-0.5,2.6-1.3,3.5-2.3c0.8-1,1.3-2.2,1.5-3.6c0.1-1.4,0.2-3,0.2-4.7
	c0-2-0.1-3.7-0.3-4.9c-0.2-1.3-0.6-2.3-1.2-3.1c-0.7-0.8-1.7-1.4-2.9-1.9s-2.8-1-4.7-1.6L434,40.6c-6.8-1.9-11.3-4.5-13.6-7.7
	s-3.5-7.2-3.5-12c0-2.9,0.6-5.6,1.7-8.1c1.1-2.6,2.8-4.8,5.1-6.7c2.2-1.9,4.9-3.3,8.2-4.4c3.3-1.1,7.3-1.7,11.9-1.7
	c3.9,0,7.5,0.5,10.7,1.5c3.2,1,6,2.3,8.4,4c4.7,3.4,7.1,7.4,7.1,11.8L470.1,22.6L470.1,22.6z"/>
<path class="st0" d="M495.9,77V10.9h-18.2V0.6h52v10.3h-18.2V77H495.9z"/>
<path class="st0" d="M539.6,18.7c0-3.1,0.8-5.8,2.3-8.1s3.6-4.3,6.2-5.9c2.5-1.5,5.3-2.7,8.4-3.4c3.1-0.8,6.3-1.2,9.5-1.2
	s6.3,0.4,9.5,1.2c3.1,0.8,6,1.9,8.5,3.4c2.5,1.6,4.5,3.5,6,5.9s2.3,5.1,2.3,8.1V59c0,3.2-0.8,6-2.3,8.3s-3.5,4.2-6,5.7
	c-2.6,1.6-5.4,2.8-8.5,3.5s-6.3,1.2-9.5,1.2s-6.3-0.4-9.5-1.2c-3.1-0.8-5.9-2-8.4-3.5c-2.6-1.5-4.6-3.4-6.2-5.7s-2.3-5-2.3-8.3V18.7
	z M555.3,59c0,2.7,1,4.6,3.2,5.8c2.1,1.2,4.6,1.9,7.5,1.9s5.4-0.6,7.5-1.9c2.1-1.2,3.2-3.2,3.2-5.8V18.7c0-2.6-1-4.6-3.2-5.9
	c-2.1-1.2-4.6-1.9-7.5-1.9s-5.4,0.6-7.5,1.9c-2.1,1.2-3.2,3.2-3.2,5.9C555.3,18.7,555.3,59,555.3,59z"/>
<path class="st0" d="M610,77V0.6h25.2c18.5,0,27.7,7.5,27.7,22.4c0,4.5-1,8.3-3,11.5s-5.5,5.7-10.5,7.6L666.3,77h-16.6l-14.6-32.6
	h-9.4V77L610,77L610,77z M625.7,10.9v23.8h8.9c2.8,0,5-0.3,6.6-0.8c1.6-0.5,2.9-1.3,3.8-2.3c0.8-1,1.4-2.2,1.7-3.7
	c0.3-1.5,0.5-3.2,0.5-5.1s-0.2-3.6-0.5-5.1s-0.9-2.7-1.8-3.8c-2-2-5.6-3-11.1-3H625.7z"/>
<path class="st0" d="M679.4,77V0.6h46.8v10.3h-31.1v22.4h27.1v10.3h-27.1v22.4h31.1V77H679.4z"/>
<path class="st0" d="M772.7,77V0.6h23.5c4.3,0,8.1,0.4,11.4,1.2c3.3,0.8,6.3,2.2,8.9,4.2s4.5,4.4,5.5,7c1,2.7,1.5,6.3,1.5,10.9
	c0,3.4-0.3,6.3-0.8,8.7c-0.6,2.4-1.8,4.6-3.6,6.7c-2.2,2.5-5,4.5-8.6,5.8c-3.6,1.4-8.3,2.1-14.2,2.1h-8V77L772.7,77L772.7,77z
	 M788.4,10.9v26h7.5c3.2,0,5.6-0.3,7.4-1c1.7-0.6,3-1.5,3.8-2.7c0.8-1.1,1.3-2.4,1.5-4s0.2-3.3,0.2-5.3c0-1.8,0-3.5-0.2-5.1
	c-0.1-1.6-0.6-3-1.4-4.2s-2-2.1-3.7-2.8s-4-1-7.1-1L788.4,10.9L788.4,10.9z"/>
<path class="st0" d="M839.2,77V0.6h25.2c18.5,0,27.7,7.5,27.7,22.4c0,4.5-1,8.3-3,11.5s-5.5,5.7-10.5,7.6L895.5,77h-16.6l-14.6-32.6
	h-9.4V77L839.2,77L839.2,77z M854.9,10.9v23.8h8.9c2.8,0,5-0.3,6.6-0.8c1.6-0.5,2.9-1.3,3.8-2.3c0.8-1,1.4-2.2,1.7-3.7
	c0.3-1.5,0.5-3.2,0.5-5.1s-0.2-3.6-0.5-5.1s-0.9-2.7-1.8-3.8c-2-2-5.6-3-11.1-3H854.9z"/>
<path class="st0" d="M907.6,18.7c0-3.1,0.8-5.8,2.3-8.1s3.6-4.3,6.2-5.9c2.5-1.5,5.3-2.7,8.4-3.4c3.1-0.8,6.3-1.2,9.5-1.2
	s6.3,0.4,9.5,1.2c3.1,0.8,6,1.9,8.5,3.4c2.5,1.6,4.5,3.5,6,5.9s2.3,5.1,2.3,8.1V59c0,3.2-0.8,6-2.3,8.3s-3.5,4.2-6,5.7
	c-2.6,1.6-5.4,2.8-8.5,3.5s-6.3,1.2-9.5,1.2s-6.3-0.4-9.5-1.2c-3.1-0.8-5.9-2-8.4-3.5c-2.6-1.5-4.6-3.4-6.2-5.7s-2.3-5-2.3-8.3V18.7
	z M923.3,59c0,2.7,1,4.6,3.2,5.8c2.1,1.2,4.6,1.9,7.5,1.9s5.4-0.6,7.5-1.9c2.1-1.2,3.2-3.2,3.2-5.8V18.7c0-2.6-1-4.6-3.2-5.9
	c-2.1-1.2-4.6-1.9-7.5-1.9s-5.4,0.6-7.5,1.9c-2.1,1.2-3.2,3.2-3.2,5.9C923.3,18.7,923.3,59,923.3,59z"/>
<path class="st0" d="M1014.5,0.6V59c0,5.2-2.4,9.6-7.1,13.1c-2.4,1.7-5.2,3.1-8.4,4.1c-3.2,1-7,1.5-11.3,1.5c-5,0-9.2-0.8-12.5-2.3
	c-3.3-1.5-6-3.1-7.9-4.6l12.3-6.9c1.1,0.8,2.4,1.5,3.9,2c1.5,0.5,3,0.8,4.7,0.8c0.9,0,2-0.1,3.2-0.4c1.2-0.2,2.4-0.7,3.5-1.4
	c1.1-0.6,2-1.6,2.8-2.7c0.7-1.2,1.1-2.7,1.1-4.7V0.6H1014.5L1014.5,0.6z"/>
<path class="st0" d="M1033.1,77V0.6h46.8v10.3h-31.1v22.4h27.1v10.3h-27.1v22.4h31.1V77H1033.1z"/>
<path class="st0" d="M1143.8,55.3V60c0,2.4-0.6,4.6-1.9,6.7s-3.1,4-5.3,5.6c-2.3,1.7-4.9,2.9-7.9,3.9s-6.3,1.4-9.8,1.4
	c-3,0-6-0.3-9.1-0.9s-5.8-1.6-8.3-3c-2.5-1.4-4.5-3.3-6.1-5.5c-1.6-2.2-2.4-5.1-2.4-8.6V17.6c0-2.5,0.6-4.8,1.8-7s3-4,5.2-5.6
	s4.9-2.8,8.1-3.7s6.6-1.3,10.4-1.3c7.4,0,13.4,1.7,18,5c2.3,1.7,4,3.6,5.3,5.9c1.3,2.2,1.9,4.7,1.9,7.4v4.3H1128v-3.6
	c0-2.1-0.9-4-2.6-5.6c-1.8-1.6-4.1-2.4-7.1-2.4c-3.9,0-6.5,0.8-7.8,2.5s-1.9,3.8-1.9,6.4v39.1c0,2.2,0.7,4.1,2.1,5.6
	s3.9,2.2,7.5,2.2c1,0,2.1-0.1,3.3-0.4c1.2-0.2,2.3-0.7,3.3-1.2c0.9-0.6,1.7-1.4,2.3-2.4c0.6-1,0.9-2.2,0.9-3.8v-3.8L1143.8,55.3
	L1143.8,55.3z"/>
<path class="st0" d="M1170.7,77V10.9h-18.2V0.6h52v10.3h-18.2V77H1170.7z"/>
<path class="st0" d="M209,270.7V136.1h26.6l35.5,71.3h0.5l35.3-71.3h26.9v134.7h-27.7v-81.9h-0.5l-27.4,57.9h-13.8l-27.1-57.9h-0.5
	v81.9H209z"/>
<path class="st0" d="M366.7,270.7V136.1h82.5v18.2h-54.8v39.5h47.8v18.2h-47.8v39.5h54.8v19.3H366.7z"/>
<path class="st0" d="M473.8,270.7V136.1h26.6l35.5,71.3h0.5l35.3-71.3h26.9v134.7H571v-81.9h-0.5L543,246.7h-13.8L502,188.8h-0.5
	v81.9H473.8L473.8,270.7z"/>
<path class="st0" d="M631.5,270.7V136.1h40.4c8.9,0,16.4,0.9,22.7,2.8c6.2,1.9,11.4,4.4,15.3,7.6c4,3.2,6.8,6.8,8.5,10.9
	c1.7,4.1,2.6,8.4,2.6,12.8v4.9c0,3.7-0.4,6.7-1.2,9.3c-0.8,2.5-2,4.7-3.7,6.6c-3.1,3.5-7.8,6.6-14.1,9.1c6.5,2.1,11.3,5.3,14.4,9.5
	c3.1,4.2,4.6,9.8,4.6,17v7.6c0,11.9-4.1,20.9-12.3,27.2c-8.2,6.3-21.4,9.5-39.5,9.5H631.5L631.5,270.7z M659.1,154.2v37.1h12.5
	c9.2,0,15.4-1.6,18.6-4.8c3.2-3.2,4.7-7.9,4.7-14.1s-1.8-10.6-5.3-13.6c-3.5-3-9.9-4.5-19.1-4.5
	C670.5,154.2,659.1,154.2,659.1,154.2z M659.1,208.3v43.1h11.9c5.6,0,10-0.6,13.2-1.7c3.2-1.1,5.6-2.7,7.2-4.7c1.6-2,2.6-4.4,3-7.2
	c0.4-2.8,0.5-5.8,0.5-9.1s-0.3-6.4-0.8-8.9c-0.5-2.5-1.6-4.7-3.3-6.4c-1.8-1.8-4.3-3.1-7.3-3.9c-3.1-0.8-7.2-1.2-12.2-1.2H659.1
	L659.1,208.3z"/>
<path class="st0" d="M753.8,270.7V136.1h82.5v18.2h-54.8v39.5h47.8v18.2h-47.8v39.5h54.8v19.3H753.8z"/>
<path class="st0" d="M861,270.7V136.1h44.5c32.6,0,48.8,13.2,48.8,39.5c0,7.9-1.8,14.7-5.3,20.2c-3.5,5.6-9.7,10-18.6,13.4
	l29.8,61.5H931l-25.8-57.5h-16.6v57.5L861,270.7L861,270.7z M888.7,154.2v42h15.7c4.9,0,8.8-0.5,11.7-1.4c2.9-0.9,5.2-2.3,6.8-4.1
	c1.4-1.8,2.4-3.9,3-6.5c0.5-2.6,0.8-5.6,0.8-9c0-3.4-0.3-6.4-0.8-9c-0.5-2.6-1.6-4.8-3.3-6.7c-3.4-3.5-9.9-5.3-19.5-5.3L888.7,154.2
	L888.7,154.2z"/>
</svg>
