<?xml version="1.0" encoding="utf-8"?>
<!-- Generator: Adobe Illustrator 26.1.0, SVG Export Plug-In . SVG Version: 6.00 Build 0)  -->
<svg version="1.1" id="a" xmlns="http://www.w3.org/2000/svg" xmlns:xlink="http://www.w3.org/1999/xlink" x="0px" y="0px"
	 viewBox="0 0 564.1 118.3" style="enable-background:new 0 0 564.1 118.3;" xml:space="preserve">
<style type="text/css">
	.st0{fill:#FFA219;}
</style>
<path class="st0" d="M93,118.3V49.8h13.5l18.1,36.3h0.3l17.9-36.3h13.7v68.5h-14.1V76.7h-0.3l-13.9,29.4h-7l-13.8-29.4H107v41.7H93z
	"/>
<path class="st0" d="M173.1,118.3V49.8h41.9v9.2h-27.9v20.1h24.3v9.2h-24.3v20.1h27.9v9.8H173.1z"/>
<path class="st0" d="M227.6,118.3V49.8h13.5l18.1,36.3h0.3l17.9-36.3h13.7v68.5H277V76.7h-0.3l-13.9,29.4h-7L242,76.7h-0.3v41.7
	H227.6L227.6,118.3z"/>
<path class="st0" d="M307.8,118.3V49.8h20.6c4.5,0,8.3,0.5,11.5,1.4c3.2,1,5.8,2.2,7.8,3.8c2,1.6,3.5,3.4,4.3,5.5
	c0.9,2.1,1.3,4.2,1.3,6.5v2.5c0,1.9-0.2,3.4-0.6,4.7c-0.4,1.3-1,2.4-1.9,3.4c-1.6,1.8-4,3.3-7.2,4.6c3.3,1.1,5.7,2.7,7.3,4.8
	c1.6,2.1,2.3,5,2.3,8.7v3.8c0,6-2.1,10.6-6.3,13.9c-4.2,3.2-10.9,4.8-20.1,4.8H307.8L307.8,118.3z M321.9,59.1v18.9h6.3
	c4.7,0,7.8-0.8,9.5-2.5c1.6-1.6,2.4-4,2.4-7.2s-0.9-5.4-2.7-6.9s-5-2.3-9.7-2.3C327.7,59.1,321.9,59.1,321.9,59.1z M321.9,86.6v21.9
	h6.1c2.8,0,5.1-0.3,6.7-0.9c1.6-0.6,2.8-1.4,3.7-2.4c0.8-1,1.3-2.2,1.5-3.7c0.2-1.4,0.3-2.9,0.3-4.6s-0.1-3.2-0.4-4.5
	c-0.3-1.3-0.8-2.4-1.7-3.3c-0.9-0.9-2.2-1.6-3.7-2c-1.6-0.4-3.6-0.6-6.2-0.6H321.9L321.9,86.6z"/>
<path class="st0" d="M370,118.3V49.8H412v9.2h-27.9v20.1h24.3v9.2h-24.3v20.1H412v9.8H370z"/>
<path class="st0" d="M424.5,118.3V49.8h22.6c16.6,0,24.8,6.7,24.8,20.1c0,4-0.9,7.5-2.7,10.3c-1.8,2.8-4.9,5.1-9.5,6.8l15.2,31.3
	h-14.9L447,89.1h-8.4v29.2L424.5,118.3L424.5,118.3z M438.6,59.1v21.4h8c2.5,0,4.5-0.2,5.9-0.7c1.5-0.5,2.6-1.2,3.4-2.1
	c0.7-0.9,1.2-2,1.5-3.3c0.3-1.3,0.4-2.8,0.4-4.6s-0.1-3.3-0.4-4.6c-0.3-1.3-0.8-2.5-1.7-3.4c-1.8-1.8-5.1-2.7-9.9-2.7L438.6,59.1
	L438.6,59.1z"/>
<path class="st0" d="M0,36.1L11.5,0.3h6.1L29,36.1h-7.4l-2.2-7.7h-10l-2.2,7.7H0z M18.2,23.6l-3.6-13h-0.1l-3.6,13H18.2L18.2,23.6z"
	/>
<path class="st0" d="M34.5,36.1V0.3h21.9v4.8H41.8v10.5h12.7v4.8H41.8v10.5h14.6v5.1H34.5z"/>
<path class="st0" d="M61.9,9.6c0-1,0-1.8,0.1-2.5c0.1-0.7,0.3-1.3,0.5-1.8c0.2-0.5,0.5-1,0.8-1.4s0.7-0.8,1.2-1.3
	c1-0.9,2.2-1.6,3.6-2c1.4-0.5,3-0.7,4.7-0.7s3.2,0.2,4.7,0.7c1.4,0.5,2.6,1.2,3.6,2c0.5,0.4,0.9,0.9,1.2,1.3
	c0.3,0.4,0.6,0.9,0.9,1.4c0.2,0.5,0.4,1.1,0.5,1.8c0.1,0.7,0.1,1.5,0.1,2.5c0,1.1,0,2-0.1,2.7c0,0.7-0.2,1.4-0.4,2
	c-0.2,0.6-0.6,1.1-1.1,1.5c-0.5,0.5-1.2,0.9-2.1,1.4c0.9,0.5,1.6,0.9,2.1,1.4s0.9,1,1.1,1.7c0.2,0.6,0.4,1.4,0.4,2.3
	c0,0.9,0.1,2.1,0.1,3.4c0,1.1,0,2-0.1,2.7c-0.1,0.7-0.2,1.3-0.3,1.9c-0.1,0.5-0.4,1-0.6,1.4c-0.3,0.4-0.6,0.8-1,1.2
	c-0.8,0.9-2,1.6-3.5,2.2c-1.5,0.6-3.3,0.9-5.5,0.9s-4-0.3-5.5-0.9c-1.5-0.6-2.6-1.4-3.5-2.2c-0.4-0.4-0.7-0.8-1-1.2
	c-0.3-0.4-0.5-0.8-0.6-1.4c-0.1-0.5-0.3-1.2-0.3-1.9c-0.1-0.7-0.1-1.6-0.1-2.7c0-1.3,0-2.5,0.1-3.4c0-0.9,0.2-1.7,0.4-2.3
	c0.2-0.6,0.6-1.2,1.1-1.7c0.5-0.5,1.2-0.9,2.1-1.4c-0.9-0.5-1.6-1-2.1-1.4c-0.5-0.5-0.9-1-1.1-1.5c-0.2-0.6-0.4-1.2-0.4-2
	C61.9,11.6,61.9,10.7,61.9,9.6z M76.5,7.6c0-0.7-0.4-1.3-1.1-1.8c-0.7-0.5-1.6-0.7-2.5-0.7c-1,0-1.8,0.2-2.5,0.7s-1.1,1.1-1.1,1.8
	v5.2c0,0.7,0.4,1.3,1.1,1.8s1.6,0.7,2.5,0.7s1.8-0.2,2.5-0.7c0.7-0.5,1.1-1.1,1.1-1.8V7.6z M76.5,21.7c0-0.7-0.4-1.3-1.1-1.8
	c-0.7-0.5-1.6-0.7-2.5-0.7c-1,0-1.8,0.2-2.5,0.7s-1.1,1.1-1.1,1.8v7c0,0.7,0.4,1.3,1.1,1.8s1.6,0.7,2.5,0.7s1.8-0.2,2.5-0.7
	c0.7-0.5,1.1-1.1,1.1-1.8C76.5,28.7,76.5,21.7,76.5,21.7z"/>
<path class="st0" d="M109.8,0.3l-8.4,15l0.1,0.1c0.2-0.1,0.6-0.2,1.1-0.3c0.5-0.1,1.2-0.1,2-0.1c1.3,0,2.5,0.2,3.6,0.7
	c1.1,0.4,2,1,2.6,1.7c0.3,0.4,0.6,0.7,0.8,1.1c0.2,0.4,0.4,0.9,0.5,1.5c0.1,0.6,0.2,1.4,0.2,2.3c0,0.9,0.1,2.1,0.1,3.5
	c0,1.2,0,2.1-0.1,2.9c0,0.8-0.1,1.4-0.2,1.9c-0.1,0.5-0.3,1-0.5,1.4c-0.2,0.4-0.5,0.8-0.8,1.2c-1,1.1-2.2,2-3.9,2.6
	c-1.6,0.6-3.4,0.9-5.4,0.9s-3.8-0.3-5.4-0.9c-1.6-0.6-2.9-1.5-3.8-2.5c-0.4-0.4-0.7-0.8-0.9-1.2c-0.2-0.4-0.4-0.8-0.5-1.4
	c-0.1-0.5-0.2-1.1-0.3-1.9c0-0.8-0.1-1.7-0.1-2.9c0-1.1,0-2,0.1-2.7c0-0.7,0.1-1.3,0.2-1.9c0.1-0.5,0.2-1,0.4-1.4
	c0.2-0.4,0.4-0.9,0.7-1.3l9.6-18H109.8z M105.1,22c0-0.8-0.4-1.4-1.1-1.9c-0.7-0.5-1.6-0.7-2.5-0.7c-1,0-1.8,0.2-2.5,0.7
	c-0.7,0.5-1.1,1.1-1.1,1.9v6.6c0,0.8,0.4,1.4,1.1,1.9s1.6,0.7,2.5,0.7s1.8-0.2,2.5-0.7s1.1-1.1,1.1-1.9
	C105.1,28.7,105.1,22,105.1,22z"/>
<path class="st0" d="M135.4,36.1V0.3h11.8c8.6,0,13,3.5,13,10.5c0,2.1-0.5,3.9-1.4,5.4s-2.6,2.7-4.9,3.6l7.9,16.3H154l-6.8-15.3
	h-4.4v15.3L135.4,36.1L135.4,36.1z M142.7,5.1v11.2h4.2c1.3,0,2.3-0.1,3.1-0.4c0.8-0.3,1.4-0.6,1.8-1.1c0.4-0.5,0.7-1,0.8-1.7
	c0.1-0.7,0.2-1.5,0.2-2.4s-0.1-1.7-0.2-2.4c-0.1-0.7-0.4-1.3-0.9-1.8c-0.9-0.9-2.6-1.4-5.2-1.4H142.7z"/>
<path class="st0" d="M167.9,36.1V0.3h21.9v4.8h-14.6v10.5h12.7v4.8h-12.7v10.5h14.6v5.1H167.9z"/>
<path class="st0" d="M220.1,10.6h-7.4V9.4c0-1.2-0.4-2.2-1.2-3c-0.8-0.9-2.1-1.3-4-1.3c-1,0-1.8,0.1-2.4,0.4c-0.6,0.3-1.1,0.6-1.5,1
	C203.2,7,203,7.5,202.8,8c-0.1,0.6-0.2,1.1-0.2,1.7c0,0.7,0,1.3,0.1,1.8c0.1,0.5,0.3,0.9,0.5,1.3c0.3,0.4,0.7,0.7,1.3,1
	c0.6,0.3,1.3,0.5,2.3,0.8l5.6,1.6c1.6,0.4,3,0.9,4,1.5c1,0.6,1.8,1.3,2.4,2c0.5,0.8,0.9,1.7,1.1,2.7c0.2,1,0.3,2.2,0.3,3.5
	c0,1.5-0.2,2.9-0.7,4.2c-0.4,1.3-1.1,2.4-2.1,3.3c-1,0.9-2.3,1.7-4,2.2c-1.6,0.5-3.6,0.8-6,0.8c-1.8,0-3.4-0.2-5-0.7
	c-1.5-0.4-2.9-1-4-1.8c-1.1-0.8-2-1.7-2.6-2.7c-0.7-1-1-2.1-1-3.3V26h7.4v1.6c0,0.9,0.4,1.8,1.2,2.5c0.8,0.8,2.1,1.1,4,1.1
	c1.3,0,2.2-0.1,2.9-0.4c0.7-0.3,1.2-0.6,1.6-1.1c0.4-0.5,0.6-1,0.7-1.7c0.1-0.7,0.1-1.4,0.1-2.2c0-0.9,0-1.7-0.1-2.3
	c-0.1-0.6-0.3-1.1-0.6-1.5c-0.3-0.4-0.8-0.7-1.3-0.9s-1.3-0.5-2.2-0.8l-5.3-1.5c-3.2-0.9-5.3-2.1-6.4-3.6c-1.1-1.5-1.6-3.4-1.6-5.6
	c0-1.3,0.3-2.6,0.8-3.8c0.5-1.2,1.3-2.2,2.4-3.1c1-0.9,2.3-1.6,3.9-2.1c1.6-0.5,3.4-0.8,5.6-0.8c1.8,0,3.5,0.2,5,0.7
	c1.5,0.5,2.8,1.1,3.9,1.9c2.2,1.6,3.3,3.5,3.3,5.5L220.1,10.6L220.1,10.6z"/>
<path class="st0" d="M232.2,36.1v-31h-8.5V0.3h24.4v4.8h-8.5v31H232.2z"/>
<path class="st0" d="M252.7,8.7c0-1.4,0.4-2.7,1.1-3.8s1.7-2,2.9-2.8c1.2-0.7,2.5-1.2,3.9-1.6c1.5-0.4,2.9-0.6,4.4-0.6
	s3,0.2,4.4,0.6c1.5,0.4,2.8,0.9,4,1.6c1.2,0.7,2.1,1.7,2.8,2.8s1.1,2.4,1.1,3.8v18.9c0,1.5-0.4,2.8-1.1,3.9c-0.7,1.1-1.7,2-2.8,2.7
	c-1.2,0.7-2.5,1.3-4,1.7c-1.5,0.4-2.9,0.6-4.4,0.6c-1.5,0-3-0.2-4.4-0.6c-1.5-0.4-2.8-0.9-3.9-1.7c-1.2-0.7-2.2-1.6-2.9-2.7
	c-0.7-1.1-1.1-2.4-1.1-3.9V8.7z M260,27.6c0,1.2,0.5,2.2,1.5,2.7c1,0.6,2.1,0.9,3.5,0.9s2.5-0.3,3.5-0.9c1-0.6,1.5-1.5,1.5-2.7V8.7
	c0-1.2-0.5-2.2-1.5-2.7c-1-0.6-2.1-0.9-3.5-0.9s-2.5,0.3-3.5,0.9c-1,0.6-1.5,1.5-1.5,2.7C260,8.7,260,27.6,260,27.6z"/>
<path class="st0" d="M285.6,36.1V0.3h11.8c8.6,0,13,3.5,13,10.5c0,2.1-0.5,3.9-1.4,5.4s-2.6,2.7-4.9,3.6l7.9,16.3h-7.8l-6.8-15.3
	H293v15.3L285.6,36.1L285.6,36.1z M293,5.1v11.2h4.2c1.3,0,2.3-0.1,3.1-0.4c0.8-0.3,1.4-0.6,1.8-1.1c0.4-0.5,0.7-1,0.8-1.7
	c0.1-0.7,0.2-1.5,0.2-2.4S303,9,302.9,8.3c-0.1-0.7-0.4-1.3-0.9-1.8c-0.9-0.9-2.6-1.4-5.2-1.4H293z"/>
<path class="st0" d="M318.1,36.1V0.3h21.9v4.8h-14.6v10.5h12.7v4.8h-12.7v10.5h14.6v5.1H318.1z"/>
<path class="st0" d="M361.8,36.1V0.3h11c2,0,3.8,0.2,5.3,0.6c1.5,0.4,2.9,1,4.2,2c1.3,0.9,2.1,2,2.6,3.3c0.5,1.3,0.7,3,0.7,5.1
	c0,1.6-0.1,3-0.4,4.1c-0.3,1.1-0.8,2.1-1.7,3.1c-1,1.2-2.4,2.1-4,2.7c-1.7,0.7-3.9,1-6.6,1h-3.7v14L361.8,36.1L361.8,36.1z
	 M369.2,5.1v12.2h3.5c1.5,0,2.6-0.1,3.5-0.5c0.8-0.3,1.4-0.7,1.8-1.3c0.4-0.5,0.6-1.1,0.7-1.9s0.1-1.6,0.1-2.5c0-0.8,0-1.6-0.1-2.4
	c0-0.8-0.3-1.4-0.7-2c-0.4-0.6-1-1-1.7-1.3c-0.8-0.3-1.9-0.5-3.3-0.5L369.2,5.1L369.2,5.1z"/>
<path class="st0" d="M393,36.1V0.3h11.8c8.6,0,13,3.5,13,10.5c0,2.1-0.5,3.9-1.4,5.4c-0.9,1.5-2.6,2.7-4.9,3.6l7.9,16.3h-7.8
	l-6.8-15.3h-4.4v15.3L393,36.1L393,36.1z M400.3,5.1v11.2h4.2c1.3,0,2.3-0.1,3.1-0.4c0.8-0.3,1.4-0.6,1.8-1.1c0.4-0.5,0.7-1,0.8-1.7
	c0.1-0.7,0.2-1.5,0.2-2.4s-0.1-1.7-0.2-2.4c-0.1-0.7-0.4-1.3-0.9-1.8c-0.9-0.9-2.6-1.4-5.2-1.4H400.3z"/>
<path class="st0" d="M425,8.7c0-1.4,0.4-2.7,1.1-3.8c0.7-1.1,1.7-2,2.9-2.8c1.2-0.7,2.5-1.2,3.9-1.6c1.5-0.4,2.9-0.6,4.4-0.6
	c1.5,0,3,0.2,4.4,0.6c1.5,0.4,2.8,0.9,4,1.6c1.2,0.7,2.1,1.7,2.8,2.8c0.7,1.1,1.1,2.4,1.1,3.8v18.9c0,1.5-0.4,2.8-1.1,3.9
	c-0.7,1.1-1.7,2-2.8,2.7c-1.2,0.7-2.5,1.3-4,1.7c-1.5,0.4-2.9,0.6-4.4,0.6c-1.5,0-3-0.2-4.4-0.6c-1.5-0.4-2.8-0.9-3.9-1.7
	c-1.2-0.7-2.2-1.6-2.9-2.7c-0.7-1.1-1.1-2.4-1.1-3.9V8.7z M432.4,27.6c0,1.2,0.5,2.2,1.5,2.7c1,0.6,2.1,0.9,3.5,0.9
	c1.3,0,2.5-0.3,3.5-0.9c1-0.6,1.5-1.5,1.5-2.7V8.7c0-1.2-0.5-2.2-1.5-2.7c-1-0.6-2.1-0.9-3.5-0.9c-1.3,0-2.5,0.3-3.5,0.9
	c-1,0.6-1.5,1.5-1.5,2.7C432.4,8.7,432.4,27.6,432.4,27.6z"/>
<path class="st0" d="M475.1,0.3v27.3c0,2.4-1.1,4.5-3.3,6.1c-1.1,0.8-2.4,1.4-3.9,1.9c-1.5,0.5-3.3,0.7-5.3,0.7
	c-2.4,0-4.3-0.4-5.9-1.1c-1.6-0.7-2.8-1.4-3.7-2.1l5.8-3.2c0.5,0.4,1.1,0.7,1.8,0.9c0.7,0.3,1.4,0.4,2.2,0.4c0.4,0,0.9-0.1,1.5-0.2
	c0.6-0.1,1.1-0.3,1.7-0.7c0.5-0.3,1-0.7,1.3-1.3c0.3-0.6,0.5-1.3,0.5-2.2V0.3H475.1L475.1,0.3z"/>
<path class="st0" d="M483.8,36.1V0.3h21.9v4.8h-14.6v10.5h12.7v4.8h-12.7v10.5h14.6v5.1H483.8z"/>
<path class="st0" d="M535.6,25.9v2.2c0,1.1-0.3,2.2-0.9,3.1c-0.6,1-1.4,1.9-2.5,2.6c-1.1,0.8-2.3,1.4-3.7,1.8
	c-1.4,0.5-2.9,0.7-4.6,0.7c-1.4,0-2.8-0.1-4.3-0.4c-1.4-0.3-2.7-0.7-3.9-1.4c-1.2-0.7-2.1-1.5-2.8-2.6c-0.7-1.1-1.1-2.4-1.1-4V8.2
	c0-1.2,0.3-2.3,0.9-3.3c0.6-1,1.4-1.9,2.4-2.6c1.1-0.7,2.3-1.3,3.8-1.7c1.5-0.4,3.1-0.6,4.9-0.6c3.5,0,6.3,0.8,8.4,2.4
	c1.1,0.8,1.9,1.7,2.5,2.7c0.6,1.1,0.9,2.2,0.9,3.4v2h-7.4V8.8c0-1-0.4-1.9-1.2-2.6c-0.8-0.7-1.9-1.1-3.3-1.1c-1.8,0-3,0.4-3.6,1.2
	c-0.6,0.8-0.9,1.8-0.9,3v18.3c0,1,0.3,1.9,1,2.6c0.7,0.7,1.8,1.1,3.5,1.1c0.5,0,1-0.1,1.6-0.2c0.6-0.1,1.1-0.3,1.6-0.6
	c0.4-0.3,0.8-0.6,1.1-1.1s0.4-1.1,0.4-1.8v-1.8L535.6,25.9L535.6,25.9z"/>
<path class="st0" d="M548.2,36.1v-31h-8.5V0.3h24.4v4.8h-8.5v31H548.2z"/>
</svg>
