<?xml version="1.0" encoding="UTF-8"?><svg id="a" xmlns="http://www.w3.org/2000/svg" viewBox="0 0 1204.55 77.68"><defs><style>.b{fill:#ffa219;}</style></defs><path class="b" d="M0,77.04L24.47,.64h13.08l24.47,76.4h-15.7l-4.62-16.42H20.32l-4.62,16.42H0Zm38.79-26.72l-7.7-27.68h-.31l-7.7,27.68h15.7Z"/><path class="b" d="M73.57,77.04V.64h46.79V10.94h-31.09v22.43h27.09v10.3h-27.09v22.43h31.09v10.94h-46.79Z"/><path class="b" d="M132.22,20.6c0-2.07,.1-3.84,.31-5.31,.2-1.47,.56-2.74,1.08-3.81,.51-1.07,1.1-2.04,1.77-2.9,.67-.86,1.51-1.75,2.54-2.68,2.05-1.86,4.62-3.31,7.7-4.35,3.08-1.04,6.41-1.56,10-1.56s6.93,.52,10,1.56c3.08,1.04,5.64,2.49,7.7,4.35,1.02,.93,1.9,1.82,2.62,2.68,.72,.86,1.33,1.82,1.85,2.9,.51,1.07,.85,2.34,1,3.81,.15,1.47,.23,3.24,.23,5.31,0,2.29-.05,4.22-.15,5.79-.1,1.57-.41,2.97-.92,4.18-.51,1.22-1.31,2.31-2.39,3.27-1.08,.97-2.54,1.99-4.39,3.06,1.85,1,3.31,2,4.39,3,1.08,1,1.87,2.18,2.39,3.54,.51,1.36,.82,3.02,.92,4.99,.1,1.97,.15,4.38,.15,7.24,0,2.36-.08,4.31-.23,5.85-.15,1.54-.38,2.88-.69,4.02-.31,1.15-.75,2.11-1.31,2.9-.56,.79-1.26,1.61-2.08,2.47-1.75,1.86-4.21,3.45-7.39,4.77-3.18,1.32-7.08,1.98-11.7,1.98s-8.52-.66-11.7-1.98c-3.18-1.32-5.64-2.91-7.39-4.77-.82-.86-1.52-1.68-2.08-2.47-.56-.79-1-1.75-1.31-2.9-.31-1.14-.54-2.48-.69-4.02-.15-1.54-.23-3.49-.23-5.85,0-2.86,.05-5.27,.15-7.24,.1-1.97,.41-3.63,.92-4.99,.51-1.36,1.31-2.54,2.39-3.54,1.08-1,2.54-2,4.39-3-1.85-1.07-3.31-2.09-4.39-3.06-1.08-.97-1.87-2.06-2.39-3.27-.51-1.22-.82-2.61-.92-4.18-.1-1.57-.15-3.5-.15-5.79Zm31.09-4.29c0-1.5-.77-2.77-2.31-3.81-1.54-1.04-3.34-1.56-5.39-1.56s-3.85,.52-5.39,1.56c-1.54,1.04-2.31,2.31-2.31,3.81v11.16c0,1.5,.77,2.77,2.31,3.81,1.54,1.04,3.33,1.56,5.39,1.56s3.85-.52,5.39-1.56c1.54-1.04,2.31-2.31,2.31-3.81v-11.16Zm0,30.04c0-1.5-.77-2.77-2.31-3.81-1.54-1.04-3.34-1.56-5.39-1.56s-3.85,.52-5.39,1.56c-1.54,1.04-2.31,2.31-2.31,3.81v15.02c0,1.5,.77,2.77,2.31,3.81,1.54,1.04,3.33,1.56,5.39,1.56s3.85-.52,5.39-1.56c1.54-1.04,2.31-2.31,2.31-3.81v-15.02Z"/><path class="b" d="M234.42,.64l-17.85,32.08,.31,.21c.51-.29,1.31-.52,2.39-.7,1.08-.18,2.49-.27,4.23-.27,2.77,0,5.33,.47,7.7,1.39,2.36,.93,4.21,2.11,5.54,3.54,.72,.79,1.28,1.57,1.69,2.36,.41,.79,.77,1.82,1.08,3.11,.2,1.29,.36,2.92,.46,4.88,.1,1.97,.15,4.45,.15,7.46,0,2.5-.05,4.56-.15,6.17-.1,1.61-.26,2.95-.46,4.02-.31,1.15-.69,2.11-1.15,2.9-.46,.79-1.05,1.61-1.77,2.47-2.05,2.36-4.8,4.18-8.23,5.47-3.44,1.29-7.31,1.93-11.62,1.93s-8.16-.66-11.54-1.98c-3.39-1.32-6.11-3.13-8.16-5.42-.82-.86-1.46-1.68-1.92-2.47-.46-.79-.8-1.75-1-2.9-.31-1.07-.51-2.41-.62-4.02-.1-1.61-.15-3.67-.15-6.17,0-2.36,.05-4.31,.15-5.85,.1-1.54,.25-2.88,.46-4.02,.2-1.07,.51-2.06,.92-2.95,.41-.89,.87-1.84,1.39-2.84L216.87,.64h17.55Zm-10,46.46c0-1.64-.77-2.97-2.31-3.97-1.54-1-3.34-1.5-5.39-1.5s-3.85,.5-5.39,1.5c-1.54,1-2.31,2.33-2.31,3.97v14.16c0,1.65,.77,2.97,2.31,3.97,1.54,1,3.33,1.5,5.39,1.5s3.85-.5,5.39-1.5c1.54-1,2.31-2.32,2.31-3.97v-14.16Z"/><path class="b" d="M289.06,77.04V.64h25.24c18.47,0,27.71,7.48,27.71,22.43,0,4.51-1,8.33-3,11.48-2,3.15-5.52,5.69-10.54,7.62l16.93,34.87h-16.62l-14.62-32.62h-9.39v32.62h-15.7Zm15.7-66.1v23.82h8.93c2.77,0,4.98-.27,6.62-.8,1.64-.54,2.92-1.3,3.85-2.31,.82-1,1.39-2.23,1.69-3.7,.31-1.47,.46-3.17,.46-5.1s-.15-3.63-.46-5.1c-.31-1.47-.92-2.74-1.85-3.81-1.95-2-5.64-3-11.08-3h-8.16Z"/><path class="b" d="M358.47,77.04V.64h46.79V10.94h-31.09v22.43h27.09v10.3h-27.09v22.43h31.09v10.94h-46.79Z"/><path class="b" d="M470.06,22.64h-15.7v-2.47c0-2.5-.85-4.67-2.54-6.49-1.69-1.82-4.54-2.74-8.54-2.74-2.15,0-3.9,.29-5.23,.86-1.33,.57-2.41,1.29-3.23,2.15-.82,.93-1.39,1.98-1.69,3.17-.31,1.18-.46,2.41-.46,3.7,0,1.5,.08,2.75,.23,3.76,.15,1,.54,1.9,1.15,2.68,.62,.79,1.51,1.47,2.69,2.04,1.18,.57,2.79,1.15,4.85,1.72l12.01,3.33c3.49,.93,6.31,2.02,8.47,3.27,2.16,1.25,3.85,2.7,5.08,4.35,1.13,1.72,1.9,3.67,2.31,5.85,.41,2.18,.62,4.67,.62,7.46,0,3.22-.46,6.21-1.39,8.96-.92,2.75-2.41,5.1-4.46,7.03-2.16,2-4.98,3.58-8.47,4.72-3.49,1.14-7.75,1.72-12.77,1.72-3.8,0-7.34-.47-10.62-1.39-3.29-.93-6.11-2.22-8.47-3.86-2.36-1.65-4.23-3.56-5.62-5.74-1.39-2.18-2.08-4.56-2.08-7.14v-4.08h15.7v3.43c0,2,.85,3.81,2.54,5.42,1.69,1.61,4.54,2.41,8.54,2.41,2.67,0,4.74-.27,6.23-.8,1.49-.54,2.64-1.3,3.46-2.31,.82-1,1.31-2.2,1.46-3.59,.15-1.4,.23-2.95,.23-4.67,0-2-.1-3.65-.31-4.94-.21-1.29-.62-2.32-1.23-3.11-.72-.79-1.67-1.43-2.85-1.93-1.18-.5-2.75-1.04-4.69-1.61l-11.24-3.22c-6.77-1.93-11.31-4.49-13.62-7.67-2.31-3.18-3.46-7.17-3.46-11.96,0-2.86,.56-5.58,1.69-8.15,1.13-2.58,2.82-4.79,5.08-6.65,2.16-1.86,4.9-3.34,8.23-4.45,3.33-1.11,7.31-1.66,11.93-1.66,3.9,0,7.46,.5,10.7,1.5,3.23,1,6.03,2.33,8.39,3.97,4.72,3.43,7.08,7.37,7.08,11.8v5.37Z"/><path class="b" d="M495.92,77.04V10.94h-18.16V.64h52.02V10.94h-18.16V77.04h-15.7Z"/><path class="b" d="M539.63,18.67c0-3.07,.77-5.79,2.31-8.15,1.54-2.36,3.59-4.33,6.16-5.9,2.46-1.5,5.26-2.65,8.39-3.43,3.13-.79,6.28-1.18,9.47-1.18s6.33,.39,9.47,1.18c3.13,.79,5.98,1.93,8.54,3.43,2.46,1.57,4.46,3.54,6,5.9,1.54,2.36,2.31,5.08,2.31,8.15V59.01c0,3.22-.77,5.97-2.31,8.26-1.54,2.29-3.54,4.18-6,5.69-2.57,1.57-5.41,2.75-8.54,3.54-3.13,.79-6.29,1.18-9.47,1.18s-6.34-.39-9.47-1.18c-3.13-.79-5.93-1.97-8.39-3.54-2.57-1.5-4.62-3.4-6.16-5.69-1.54-2.29-2.31-5.04-2.31-8.26V18.67Zm15.7,40.34c0,2.65,1.05,4.6,3.16,5.85,2.1,1.25,4.59,1.88,7.46,1.88s5.36-.63,7.46-1.88c2.1-1.25,3.16-3.2,3.16-5.85V18.67c0-2.65-1.05-4.6-3.16-5.85-2.1-1.25-4.59-1.88-7.46-1.88s-5.36,.63-7.46,1.88c-2.1,1.25-3.16,3.2-3.16,5.85V59.01Z"/><path class="b" d="M609.97,77.04V.64h25.24c18.47,0,27.71,7.48,27.71,22.43,0,4.51-1,8.33-3,11.48-2,3.15-5.52,5.69-10.54,7.62l16.93,34.87h-16.62l-14.62-32.62h-9.39v32.62h-15.7Zm15.7-66.1v23.82h8.93c2.77,0,4.98-.27,6.62-.8,1.64-.54,2.92-1.3,3.85-2.31,.82-1,1.39-2.23,1.69-3.7,.31-1.47,.46-3.17,.46-5.1s-.15-3.63-.46-5.1c-.31-1.47-.92-2.74-1.85-3.81-1.95-2-5.64-3-11.08-3h-8.16Z"/><path class="b" d="M679.39,77.04V.64h46.79V10.94h-31.09v22.43h27.09v10.3h-27.09v22.43h31.09v10.94h-46.79Z"/><path class="b" d="M772.66,77.04V.64h23.55c4.31,0,8.1,.39,11.39,1.18,3.28,.79,6.26,2.18,8.93,4.18,2.67,2,4.51,4.35,5.54,7.03,1.02,2.68,1.54,6.31,1.54,10.89,0,3.43-.28,6.33-.85,8.69-.56,2.36-1.77,4.58-3.62,6.65-2.15,2.5-5.03,4.45-8.62,5.85-3.59,1.4-8.31,2.09-14.16,2.09h-8v29.83h-15.7Zm15.7-66.1v25.97h7.54c3.18,0,5.64-.32,7.39-.97,1.74-.64,3.03-1.54,3.85-2.68,.82-1.07,1.31-2.4,1.46-3.97,.15-1.57,.23-3.33,.23-5.26,0-1.79-.05-3.49-.15-5.1-.1-1.61-.57-3.02-1.39-4.24-.82-1.22-2.05-2.15-3.69-2.79-1.64-.64-4-.97-7.08-.97h-8.16Z"/><path class="b" d="M839.15,77.04V.64h25.24c18.47,0,27.71,7.48,27.71,22.43,0,4.51-1,8.33-3,11.48-2,3.15-5.52,5.69-10.54,7.62l16.93,34.87h-16.62l-14.62-32.62h-9.39v32.62h-15.7Zm15.7-66.1v23.82h8.93c2.77,0,4.98-.27,6.62-.8,1.64-.54,2.92-1.3,3.85-2.31,.82-1,1.39-2.23,1.69-3.7,.31-1.47,.46-3.17,.46-5.1s-.15-3.63-.46-5.1c-.31-1.47-.92-2.74-1.85-3.81-1.95-2-5.64-3-11.08-3h-8.16Z"/><path class="b" d="M907.64,18.67c0-3.07,.77-5.79,2.31-8.15,1.54-2.36,3.59-4.33,6.16-5.9,2.46-1.5,5.26-2.65,8.39-3.43,3.13-.79,6.28-1.18,9.47-1.18s6.33,.39,9.47,1.18c3.13,.79,5.98,1.93,8.54,3.43,2.46,1.57,4.46,3.54,6,5.9,1.54,2.36,2.31,5.08,2.31,8.15V59.01c0,3.22-.77,5.97-2.31,8.26-1.54,2.29-3.54,4.18-6,5.69-2.57,1.57-5.41,2.75-8.54,3.54-3.13,.79-6.29,1.18-9.47,1.18s-6.34-.39-9.47-1.18c-3.13-.79-5.93-1.97-8.39-3.54-2.57-1.5-4.62-3.4-6.16-5.69-1.54-2.29-2.31-5.04-2.31-8.26V18.67Zm15.7,40.34c0,2.65,1.05,4.6,3.16,5.85,2.1,1.25,4.59,1.88,7.47,1.88s5.36-.63,7.46-1.88c2.1-1.25,3.16-3.2,3.16-5.85V18.67c0-2.65-1.05-4.6-3.16-5.85-2.1-1.25-4.59-1.88-7.46-1.88s-5.36,.63-7.47,1.88c-2.1,1.25-3.16,3.2-3.16,5.85V59.01Z"/><path class="b" d="M1014.46,.64V59.01c0,5.22-2.36,9.59-7.08,13.09-2.36,1.72-5.16,3.08-8.39,4.08-3.23,1-7,1.5-11.31,1.5-5.03,0-9.21-.77-12.54-2.31-3.34-1.54-5.98-3.06-7.93-4.56l12.31-6.87c1.13,.79,2.44,1.45,3.92,1.98,1.49,.54,3.05,.8,4.69,.8,.92,0,2-.12,3.23-.38,1.23-.25,2.41-.73,3.54-1.45,1.13-.64,2.05-1.56,2.77-2.74,.72-1.18,1.08-2.74,1.08-4.67V.64h15.7Z"/><path class="b" d="M1033.08,77.04V.64h46.79V10.94h-31.09v22.43h27.09v10.3h-27.09v22.43h31.09v10.94h-46.79Z"/><path class="b" d="M1143.75,55.26v4.72c0,2.36-.64,4.6-1.92,6.71-1.28,2.11-3.05,3.99-5.31,5.63-2.26,1.65-4.9,2.95-7.93,3.92-3.03,.97-6.29,1.45-9.77,1.45-2.98,0-6-.29-9.08-.86-3.08-.57-5.85-1.57-8.31-3-2.46-1.43-4.49-3.27-6.08-5.53-1.59-2.25-2.39-5.13-2.39-8.64V17.6c0-2.5,.62-4.83,1.85-6.97s2.97-4.01,5.23-5.58c2.26-1.57,4.95-2.81,8.08-3.7,3.13-.89,6.59-1.34,10.39-1.34,7.39,0,13.39,1.68,18.01,5.04,2.26,1.65,4.03,3.59,5.31,5.85,1.28,2.25,1.92,4.7,1.92,7.35v4.29h-15.7v-3.65c0-2.15-.87-4-2.62-5.58-1.75-1.57-4.11-2.36-7.08-2.36-3.9,0-6.49,.84-7.77,2.52-1.28,1.68-1.92,3.81-1.92,6.38V58.91c0,2.22,.69,4.08,2.08,5.58,1.39,1.5,3.87,2.25,7.46,2.25,1.02,0,2.13-.12,3.31-.38,1.18-.25,2.28-.66,3.31-1.23,.92-.57,1.69-1.36,2.31-2.36,.62-1,.92-2.25,.92-3.76v-3.76h15.7Z"/><path class="b" d="M1170.69,77.04V10.94h-18.16V.64h52.02V10.94h-18.16V77.04h-15.7Z"/></svg>