<?xml version="1.0" encoding="UTF-8"?><svg id="a" xmlns="http://www.w3.org/2000/svg" viewBox="0 0 2291.27 214.87"><defs><style>.b{fill:#ffa219;}</style></defs><path class="b" d="M0,213.09V1.78H129.42V30.27H43.42v62.03H118.35v28.49H43.42v62.03h86v30.27H0Z"/><path class="b" d="M166.46,213.09V1.78h41.72l65.56,127.32h.85V1.78h43.43V213.09h-40.87l-66.42-127.02h-.85v127.02h-43.42Z"/><path class="b" d="M365.27,51.64c0-8.5,2.13-16.03,6.39-22.56s9.93-11.97,17.03-16.32c6.81-4.16,14.54-7.32,23.2-9.5,8.65-2.18,17.38-3.26,26.18-3.26s17.52,1.09,26.18,3.26c8.65,2.18,16.53,5.34,23.63,9.5,6.81,4.35,12.35,9.79,16.6,16.32s6.39,14.05,6.39,22.56v10.68h-43.42v-10.68c0-7.32-2.91-12.71-8.73-16.17-5.82-3.46-12.71-5.19-20.65-5.19s-14.83,1.73-20.65,5.19c-5.82,3.46-8.73,8.86-8.73,16.17v111.59c0,7.32,2.91,12.72,8.73,16.17,5.81,3.46,12.7,5.19,20.65,5.19s14.83-1.73,20.65-5.19c5.81-3.46,8.73-8.85,8.73-16.17v-39.77h-34.48v-26.71h77.91v66.48c0,8.9-2.13,16.52-6.39,22.85-4.26,6.33-9.79,11.58-16.6,15.73-7.1,4.35-14.97,7.62-23.63,9.79-8.66,2.17-17.39,3.26-26.18,3.26s-17.53-1.09-26.18-3.26c-8.66-2.17-16.39-5.44-23.2-9.79-7.1-4.16-12.77-9.4-17.03-15.73-4.26-6.33-6.39-13.95-6.39-22.85V51.64Z"/><path class="b" d="M561.11,213.09V1.78h43.43V213.09h-43.43Z"/><path class="b" d="M655.62,213.09V1.78h41.72l65.56,127.32h.85V1.78h43.42V213.09h-40.87l-66.42-127.02h-.85v127.02h-43.42Z"/><path class="b" d="M856.99,213.09V1.78h129.42V30.27h-86v62.03h74.93v28.49h-74.93v62.03h86v30.27h-129.42Z"/><path class="b" d="M1114.98,213.09V1.78h43.42V182.82h86v30.27h-129.42Z"/><path class="b" d="M1280.59,51.64c0-8.5,2.13-16.03,6.39-22.56,4.26-6.53,9.93-11.97,17.03-16.32,6.81-4.16,14.54-7.32,23.2-9.5,8.65-2.18,17.38-3.26,26.18-3.26s17.52,1.09,26.18,3.26c8.65,2.18,16.53,5.34,23.63,9.5,6.81,4.35,12.35,9.79,16.6,16.32,4.26,6.53,6.39,14.05,6.39,22.56v111.59c0,8.9-2.13,16.52-6.39,22.85-4.26,6.33-9.79,11.58-16.6,15.73-7.1,4.35-14.97,7.62-23.63,9.79-8.66,2.17-17.39,3.26-26.18,3.26s-17.53-1.09-26.18-3.26c-8.66-2.17-16.39-5.44-23.2-9.79-7.1-4.16-12.77-9.4-17.03-15.73-4.26-6.33-6.39-13.95-6.39-22.85V51.64Zm43.42,111.59c0,7.32,2.91,12.72,8.73,16.17,5.81,3.46,12.7,5.19,20.65,5.19s14.83-1.73,20.65-5.19c5.81-3.46,8.73-8.85,8.73-16.17V51.64c0-7.32-2.91-12.71-8.73-16.17-5.82-3.46-12.71-5.19-20.65-5.19s-14.83,1.73-20.65,5.19c-5.82,3.46-8.73,8.86-8.73,16.17v111.59Z"/><path class="b" d="M1455.56,213.09L1523.25,1.78h36.19l67.69,211.31h-43.42l-12.77-45.41h-59.18l-12.77,45.41h-43.42Zm107.29-73.9l-21.29-76.57h-.85l-21.29,76.57h43.42Z"/><path class="b" d="M1659.06,213.09V1.78h64.29c24.97,0,43.92,4.75,56.84,14.25,12.91,9.5,19.37,22.95,19.37,40.36v98.83c0,19.79-6.88,34.38-20.65,43.78-13.77,9.4-33.57,14.1-59.39,14.1h-60.45Zm43.42-182.82V184.6h20.01c12.2,0,20.86-2.12,25.97-6.38,5.11-4.25,7.66-10.93,7.66-20.03V56.39c0-8.31-2.42-14.74-7.24-19.29-4.83-4.55-13.62-6.83-26.4-6.83h-20.01Z"/><path class="b" d="M1852.34,213.09V1.78h43.42V213.09h-43.42Z"/><path class="b" d="M1946.86,213.09V1.78h41.72l65.56,127.32h.85V1.78h43.42V213.09h-40.87l-66.42-127.02h-.85v127.02h-43.42Z"/><path class="b" d="M2145.67,51.64c0-8.5,2.13-16.03,6.39-22.56,4.26-6.53,9.93-11.97,17.03-16.32,6.81-4.16,14.54-7.32,23.2-9.5,8.65-2.18,17.38-3.26,26.18-3.26s17.52,1.09,26.18,3.26c8.65,2.18,16.53,5.34,23.63,9.5,6.81,4.35,12.35,9.79,16.6,16.32,4.26,6.53,6.39,14.05,6.39,22.56v10.68h-43.42v-10.68c0-7.32-2.91-12.71-8.73-16.17-5.82-3.46-12.71-5.19-20.65-5.19s-14.83,1.73-20.65,5.19c-5.82,3.46-8.73,8.86-8.73,16.17v111.59c0,7.32,2.91,12.72,8.73,16.17,5.81,3.46,12.7,5.19,20.65,5.19s14.83-1.73,20.65-5.19c5.81-3.46,8.73-8.85,8.73-16.17v-39.77h-34.48v-26.71h77.91v66.48c0,8.9-2.13,16.52-6.39,22.85-4.26,6.33-9.79,11.58-16.6,15.73-7.1,4.35-14.97,7.62-23.63,9.79-8.66,2.17-17.39,3.26-26.18,3.26s-17.53-1.09-26.18-3.26c-8.66-2.17-16.39-5.44-23.2-9.79-7.1-4.16-12.77-9.4-17.03-15.73-4.26-6.33-6.39-13.95-6.39-22.85V51.64Z"/></svg>