<?xml version="1.0" encoding="utf-8"?>
<!-- Generator: Adobe Illustrator 25.4.1, SVG Export Plug-In . SVG Version: 6.00 Build 0)  -->
<svg version="1.1" id="レイヤー_1" xmlns="http://www.w3.org/2000/svg" xmlns:xlink="http://www.w3.org/1999/xlink" x="0px"
	 y="0px" viewBox="0 0 1925.5 1458.3" style="enable-background:new 0 0 1925.5 1458.3;" xml:space="preserve">
<style type="text/css">
	.st0{fill:url(#SVGID_1_);}
	.st1{fill:url(#SVGID_00000062874340620419230160000000301740880461963697_);}
</style>
<g>
	
		<linearGradient id="SVGID_1_" gradientUnits="userSpaceOnUse" x1="-1262.08" y1="3729.8079" x2="195.5" y2="3729.8079" gradientTransform="matrix(6.123234e-17 1 1 -6.123234e-17 -3262.4478 1262.4099)">
		<stop  offset="0" style="stop-color:#FFE900"/>
		<stop  offset="1" style="stop-color:#F38200"/>
	</linearGradient>
	<path class="st0" d="M467.4,1457.9c-77.3,0-143.6-14.6-197-43.4c-51.7-27.4-96.7-65.8-132-112.4c-34.5-46.2-61.3-97.8-79.4-152.6
		c-17.9-53.6-31.6-108.4-41-164.1C9.5,936,4.4,886.1,2.7,836c-1.2-45.2-1.9-80.8-1.9-105.9c0-31.3,1.9-71.2,5.7-118.8l0,0
		c4.3-51.5,11.7-102.6,21.9-153.2c11.2-55.6,27.2-110.2,47.7-163.1c20.1-52.8,48.1-102.3,83.1-146.7
		c34.8-43.7,78.1-79.9,127.2-106.5c50.2-27.5,111-41.4,180.9-41.4c77.4,0,143.6,14.9,197.1,44.4c51.4,27.8,96.4,66.1,132,112.4
		c34.8,46.1,61.6,97.7,79.3,152.7c17.9,54.2,31.6,109.7,41,166c8.4,49.4,13.5,99.3,15.3,149.4c1.3,46.2,1.9,80.5,1.9,105
		c0,31.2-1.9,71.2-5.7,118.8c-4.4,51.5-11.7,102.6-21.9,153.2c-11.1,55.3-27.1,109.6-47.7,162.2c-20.4,52.7-48.4,102.1-83.1,146.7
		c-34.5,44-77.8,80.3-127.2,106.5C597.9,1444.3,537.1,1457.9,467.4,1457.9z M11.2,611.7C7.4,659.1,5.5,699,5.5,730.1
		c0,25,0.6,60.6,1.9,105.8c1.7,49.8,6.8,99.5,15.2,148.7c9.3,55.4,23,110,40.8,163.3c17.8,54.3,44.4,105.4,78.6,151.3
		c34.9,46.1,79.4,84,130.5,111.1c52.7,28.4,118.3,42.9,194.9,42.9c69,0,129.1-13.4,178.7-39.9c48.8-25.9,91.7-61.7,125.8-105.3
		c34.4-44.2,62.2-93.2,82.4-145.4c20.5-52.3,36.4-106.3,47.4-161.3c10.2-50.4,17.5-101.4,21.8-152.6c3.8-47.5,5.7-87.3,5.7-118.4
		c0-24.4-0.6-58.7-1.9-104.8c-1.8-49.8-6.9-99.5-15.2-148.7c-9.4-56.1-23-111.3-40.8-165.3c-17.6-54.4-44.1-105.5-78.6-151.2
		C757.5,114.3,713,76.5,662.2,49C609.5,19.9,544,5.2,467.3,5.2c-69.1,0-129.2,13.8-178.7,40.9c-48.6,26.3-91.4,62.1-125.8,105.3
		c-34.6,44-62.4,93-82.4,145.4C60,349.3,44.2,403.6,33,459C22.8,509.4,15.5,560.4,11.2,611.7L11.2,611.7z M467.4,1432.4
		c-49.9,0-89.1-13.7-116.7-40.8c-27.5-27-48.5-69.2-62.5-125.7c-14-56.1-22.6-129.5-25.8-218.1l0,0c-3.1-88-4.8-194.9-4.8-317.7
		c0-124.1,1.6-231.4,4.8-318.7c3.1-87.9,11.8-161,25.8-217.1c14-56.4,35-98.7,62.5-125.7s66.9-40.8,116.7-40.8s89,12.4,116.6,36.8
		s48.5,65.1,62.6,120.8c13.9,55.5,22.6,128.5,25.8,217.2c3.2,89.1,4.8,199.3,4.8,327.5c0,121.8-1.6,228.6-4.8,317.7
		c-3.2,88.7-11.8,162-25.8,218.1c-14,56.4-35,98.7-62.5,125.7C556.5,1418.7,517.2,1432.4,467.4,1432.4L467.4,1432.4z M467.4,32.6
		c-48.6,0-86.8,13.3-113.5,39.5s-47.4,67.9-61.2,123.4c-13.9,55.8-22.5,128.6-25.6,216.1c-3.1,87.3-4.8,194.4-4.8,318.5
		c0,122.8,1.6,229.6,4.8,317.5l0,0c3.1,88.2,11.7,161.3,25.6,217.1c13.8,55.5,34.4,97,61.2,123.4c26.7,26.2,64.9,39.5,113.5,39.5
		s86.8-13.3,113.5-39.5s47.4-67.8,61.2-123.4c13.8-55.7,22.4-128.8,25.6-217.1c3.2-89,4.8-195.8,4.8-317.5
		c0-128.2-1.6-238.3-4.8-327.3c-3.2-88.3-11.8-161-25.6-216.1c-13.8-54.8-34.3-94.6-61.1-118.4S516,32.6,467.4,32.6L467.4,32.6z"/>
	
		<linearGradient id="SVGID_00000031176379565585976410000007076227708089648523_" gradientUnits="userSpaceOnUse" x1="-1262.08" y1="4720.478" x2="195.5" y2="4720.478" gradientTransform="matrix(6.123234e-17 1 1 -6.123234e-17 -3262.4478 1262.4099)">
		<stop  offset="0" style="stop-color:#FFE900"/>
		<stop  offset="1" style="stop-color:#F38200"/>
	</linearGradient>
	<path style="fill:url(#SVGID_00000031176379565585976410000007076227708089648523_);" d="M1458.1,1457.9
		c-77.3,0-143.6-14.6-197-43.4c-51.7-27.4-96.7-65.8-132-112.4c-34.5-46.2-61.3-97.8-79.3-152.6c-17.9-53.5-31.6-108.4-41-164.1
		c-8.5-49.4-13.6-99.3-15.3-149.4c-1.2-45.2-1.9-80.8-1.9-105.9c0-31.3,1.9-71.2,5.7-118.8l0,0c4.3-51.4,11.7-102.6,21.9-153.2
		c11.2-55.6,27.2-110.2,47.7-163.1c20.1-52.8,48.2-102.3,83.2-146.7c34.8-43.7,78.1-79.9,127.2-106.5c50.2-27.5,111-41.4,180.9-41.4
		c77.4,0,143.7,14.9,197,44.4c51.4,27.8,96.4,66.1,132,112.4c34.8,46.1,61.6,97.7,79.3,152.7c17.9,54.2,31.6,109.7,41,166
		c8.4,49.4,13.5,99.3,15.2,149.3c1.3,46.3,1.9,80.7,1.9,105c0,31.2-1.9,71.2-5.7,118.8c-4.3,51.4-11.6,102.6-21.8,153.2
		c-11.1,55.3-27.1,109.6-47.7,162.2c-20.4,52.7-48.4,102.1-83.1,146.7c-34.5,44-77.8,80.3-127.2,106.5
		C1588.6,1444.3,1527.8,1457.9,1458.1,1457.9z M1001.9,611.7c-3.8,47.5-5.7,87.3-5.7,118.4c0,25,0.7,60.6,1.9,105.8
		c1.7,49.8,6.8,99.5,15.2,148.7c9.3,55.4,23,110,40.8,163.3c17.8,54.3,44.4,105.4,78.6,151.3c34.9,46.1,79.4,84,130.5,111.1
		c52.7,28.4,118.3,42.9,194.9,42.9c69,0,129.1-13.4,178.7-39.9c48.8-25.9,91.7-61.7,125.8-105.3c34.4-44.2,62.2-93.2,82.4-145.4
		c20.5-52.3,36.4-106.3,47.4-161.3c10.2-50.4,17.5-101.4,21.8-152.6c3.8-47.5,5.7-87.3,5.7-118.4c0-24.2-0.6-58.5-1.9-104.8
		c-1.8-49.8-6.9-99.5-15.2-148.7c-9.4-56.1-23-111.3-40.8-165.3c-17.6-54.4-44.1-105.5-78.6-151.2c-35.3-45.8-79.7-83.6-130.6-111.1
		C1600.2,19.9,1534.6,5.2,1458,5.2c-69.1,0-129.2,13.8-178.7,40.9c-48.6,26.3-91.3,62.1-125.8,105.3c-34.7,44-62.4,93.1-82.4,145.4
		c-20.4,52.6-36.3,107-47.4,162.3C1013.5,509.5,1006.2,560.4,1001.9,611.7L1001.9,611.7z M1458.1,1432.4
		c-49.9,0-89.1-13.7-116.7-40.8c-27.5-27-48.5-69.2-62.5-125.7c-14-56.1-22.6-129.5-25.8-218.1l0,0c-3.2-88-4.8-194.9-4.8-317.7
		c0-124.1,1.6-231.4,4.8-318.7c3.1-87.9,11.8-161,25.8-217.1c14-56.4,35-98.7,62.5-125.7c27.6-27.1,66.9-40.8,116.7-40.8
		s89,12.4,116.6,36.8s48.6,65.1,62.6,120.8c13.9,55.5,22.6,128.5,25.8,217.2c3.2,89.1,4.8,199.3,4.8,327.5
		c0,121.8-1.6,228.6-4.8,317.7c-3.2,88.7-11.8,162-25.8,218.1c-14,56.4-35,98.7-62.5,125.7
		C1547.2,1418.7,1507.9,1432.4,1458.1,1432.4L1458.1,1432.4z M1458.1,32.6c-48.6,0-86.8,13.3-113.5,39.5s-47.4,67.9-61.2,123.4
		c-13.9,55.8-22.5,128.5-25.6,216.1c-3.2,87.3-4.8,194.4-4.8,318.5c0,122.8,1.6,229.6,4.8,317.5l0,0c3.1,88.2,11.7,161.3,25.6,217.1
		c13.8,55.5,34.3,97,61.2,123.4s64.9,39.5,113.5,39.5s86.8-13.3,113.5-39.5s47.4-67.8,61.2-123.4c13.8-55.7,22.4-128.8,25.6-217.1
		c3.2-89,4.8-195.8,4.8-317.5c0-128.2-1.6-238.3-4.8-327.3c-3.2-88.3-11.8-161-25.6-216.1c-13.8-54.8-34.3-94.6-61.1-118.4
		S1506.6,32.6,1458.1,32.6L1458.1,32.6z"/>
</g>
</svg>
