<?xml version="1.0" encoding="utf-8"?>
<!-- Generator: Adobe Illustrator 25.4.1, SVG Export Plug-In . SVG Version: 6.00 Build 0)  -->
<svg version="1.1" id="レイヤー_1" xmlns="http://www.w3.org/2000/svg" xmlns:xlink="http://www.w3.org/1999/xlink" x="0px"
	 y="0px" viewBox="0 0 1473.7 1943.2" style="enable-background:new 0 0 1473.7 1943.2;" xml:space="preserve">
<style type="text/css">
	.st0{fill:url(#SVGID_1_);}
	.st1{fill:url(#SVGID_00000108301557139550258080000003644086189548816574_);}
</style>
<linearGradient id="SVGID_1_" gradientUnits="userSpaceOnUse" x1="-1722.5535" y1="5179.4473" x2="-1722.5535" y2="3721.9475" gradientTransform="matrix(6.123234e-17 1 1 -6.123234e-17 -3713.8474 2198.8035)">
	<stop  offset="0" style="stop-color:#FFE900"/>
	<stop  offset="1" style="stop-color:#F38200"/>
</linearGradient>
<path class="st0" d="M8.1,476.3c0-77.3,14.6-143.6,43.4-197c27.4-51.7,65.8-96.7,112.4-132c46.2-34.5,97.8-61.3,152.6-79.4
	c53.6-17.9,108.4-31.6,164.1-41C530,18.4,579.9,13.3,630,11.6c45.2-1.2,80.8-1.9,105.9-1.9c31.3,0,71.2,1.9,118.8,5.7l0,0
	c51.5,4.3,102.6,11.7,153.2,21.9c55.6,11.2,110.2,27.2,163.1,47.7c52.8,20.1,102.3,48.1,146.7,83.1c43.7,34.8,79.9,78.1,106.5,127.2
	c27.5,50.2,41.4,111,41.4,180.9c0,77.4-14.9,143.6-44.4,197.1c-27.8,51.4-66.1,96.4-112.4,132c-46.1,34.8-97.7,61.6-152.7,79.3
	c-54.2,17.9-109.7,31.6-166,41c-49.4,8.4-99.3,13.5-149.4,15.3c-46.2,1.3-80.5,1.9-105,1.9c-31.2,0-71.2-1.9-118.8-5.7
	c-51.5-4.4-102.6-11.7-153.2-21.9c-55.3-11.1-109.6-27.1-162.2-47.7c-52.7-20.4-102.1-48.4-146.7-83.1
	c-44-34.5-80.3-77.8-106.5-127.2C21.7,606.8,8.1,546,8.1,476.3z M854.3,20.1c-47.4-3.8-87.3-5.7-118.4-5.7c-25,0-60.6,0.6-105.8,1.9
	c-49.8,1.7-99.5,6.8-148.7,15.2c-55.4,9.3-110,23-163.3,40.8c-54.3,17.8-105.4,44.4-151.3,78.6c-46.1,34.9-84,79.4-111.1,130.5
	c-28.4,52.7-42.9,118.3-42.9,194.9c0,69,13.4,129.1,39.9,178.7c25.9,48.8,61.7,91.7,105.3,125.8c44.2,34.4,93.2,62.2,145.4,82.4
	c52.3,20.5,106.3,36.4,161.3,47.4c50.4,10.2,101.4,17.5,152.6,21.8c47.5,3.8,87.3,5.7,118.4,5.7c24.4,0,58.7-0.6,104.8-1.9
	c49.8-1.8,99.5-6.9,148.7-15.2c56.1-9.4,111.3-23,165.3-40.8c54.4-17.6,105.5-44.1,151.2-78.6c46-35.2,83.8-79.7,111.3-130.5
	c29.1-52.7,43.8-118.2,43.8-194.9c0-69.1-13.8-129.2-40.9-178.7c-26.3-48.6-62.1-91.4-105.3-125.8c-44-34.6-93-62.4-145.4-82.4
	c-52.5-20.4-106.8-36.2-162.2-47.4C956.6,31.7,905.6,24.4,854.3,20.1L854.3,20.1z M33.6,476.3c0-49.9,13.7-89.1,40.8-116.7
	c27-27.5,69.2-48.5,125.7-62.5c56.1-14,129.5-22.6,218.1-25.8l0,0c88-3.1,194.9-4.8,317.7-4.8c124.1,0,231.4,1.6,318.7,4.8
	c87.9,3.1,161,11.8,217.1,25.8c56.4,14,98.7,35,125.7,62.5s40.8,66.9,40.8,116.7c0,49.8-12.4,89-36.8,116.6s-65.1,48.5-120.8,62.6
	c-55.5,13.9-128.5,22.6-217.2,25.8c-89.1,3.2-199.3,4.8-327.5,4.8c-121.8,0-228.6-1.6-317.7-4.8c-88.7-3.2-162-11.8-218.1-25.8
	c-56.4-14-98.7-35-125.7-62.5C47.3,565.4,33.6,526.1,33.6,476.3L33.6,476.3z M1433.4,476.3c0-48.6-13.3-86.8-39.5-113.5
	s-67.9-47.4-123.4-61.2c-55.8-13.9-128.6-22.5-216.1-25.6c-87.3-3.1-194.4-4.8-318.5-4.8c-122.8,0-229.6,1.6-317.5,4.8l0,0
	c-88.2,3.1-161.3,11.7-217.1,25.6c-55.5,13.8-97,34.4-123.4,61.2c-26.2,26.7-39.5,64.9-39.5,113.5s13.3,86.8,39.5,113.5
	s67.8,47.4,123.4,61.2c55.7,13.8,128.8,22.4,217.1,25.6c89,3.2,195.8,4.8,317.5,4.8c128.2,0,238.3-1.6,327.3-4.8
	c88.3-3.2,161-11.8,216.1-25.6c54.8-13.8,94.6-34.3,118.4-61.1C1421.5,563.1,1433.4,524.9,1433.4,476.3L1433.4,476.3z"/>
<linearGradient id="SVGID_00000125594829082971293820000009764875739697410720_" gradientUnits="userSpaceOnUse" x1="-731.8036" y1="5179.4473" x2="-731.8036" y2="3721.9475" gradientTransform="matrix(6.123234e-17 1 1 -6.123234e-17 -3713.8474 2198.8035)">
	<stop  offset="0" style="stop-color:#FFE900"/>
	<stop  offset="1" style="stop-color:#F38200"/>
</linearGradient>
<path style="fill:url(#SVGID_00000125594829082971293820000009764875739697410720_);" d="M8.1,1467c0-77.3,14.6-143.6,43.4-197
	c27.4-51.7,65.8-96.7,112.4-132c46.2-34.5,97.8-61.3,152.6-79.3c53.5-17.9,108.4-31.6,164.1-41c49.4-8.5,99.3-13.6,149.4-15.3
	c45.2-1.2,80.8-1.9,105.9-1.9c31.3,0,71.2,1.9,118.8,5.7l0,0c51.4,4.3,102.6,11.7,153.2,21.9c55.6,11.2,110.2,27.2,163.1,47.7
	c52.8,20.1,102.3,48.2,146.7,83.2c43.7,34.8,79.9,78.1,106.5,127.2c27.5,50.2,41.4,111,41.4,180.9c0,77.4-14.9,143.7-44.4,197
	c-27.8,51.4-66.1,96.4-112.4,132c-46.1,34.8-97.7,61.6-152.7,79.3c-54.2,17.9-109.7,31.6-166,41c-49.4,8.4-99.3,13.5-149.3,15.2
	c-46.3,1.3-80.7,1.9-105,1.9c-31.2,0-71.2-1.9-118.8-5.7c-51.4-4.3-102.6-11.6-153.2-21.8c-55.3-11.1-109.6-27.1-162.2-47.7
	c-52.7-20.4-102.1-48.4-146.7-83.1c-44-34.5-80.3-77.8-106.5-127.2C21.7,1597.5,8.1,1536.7,8.1,1467z M854.3,1010.8
	c-47.5-3.8-87.3-5.7-118.4-5.7c-25,0-60.6,0.7-105.8,1.9c-49.8,1.7-99.5,6.8-148.7,15.2c-55.4,9.3-110,23-163.3,40.8
	c-54.3,17.8-105.4,44.4-151.3,78.6c-46.1,34.9-84,79.4-111.1,130.5c-28.4,52.7-42.9,118.3-42.9,194.9c0,69,13.4,129.1,39.9,178.7
	c25.9,48.8,61.7,91.7,105.3,125.8c44.2,34.4,93.2,62.2,145.4,82.4c52.3,20.5,106.3,36.4,161.3,47.4c50.4,10.2,101.4,17.5,152.6,21.8
	c47.5,3.8,87.3,5.7,118.4,5.7c24.2,0,58.5-0.6,104.8-1.9c49.8-1.8,99.5-6.9,148.7-15.2c56.1-9.4,111.3-23,165.3-40.8
	c54.4-17.6,105.5-44.1,151.2-78.6c45.8-35.3,83.6-79.7,111.1-130.6c29.3-52.6,44-118.2,44-194.8c0-69.1-13.8-129.2-40.9-178.7
	c-26.3-48.6-62.1-91.3-105.3-125.8c-44-34.7-93.1-62.4-145.4-82.4c-52.6-20.4-107-36.3-162.3-47.4
	C956.5,1022.4,905.6,1015.1,854.3,1010.8L854.3,1010.8z M33.6,1467c0-49.9,13.7-89.1,40.8-116.7c27-27.5,69.2-48.5,125.7-62.5
	c56.1-14,129.5-22.6,218.1-25.8l0,0c88-3.2,194.9-4.8,317.7-4.8c124.1,0,231.4,1.6,318.7,4.8c87.9,3.1,161,11.8,217.1,25.8
	c56.4,14,98.7,35,125.7,62.5c27.1,27.6,40.8,66.9,40.8,116.7s-12.4,89-36.8,116.6s-65.1,48.6-120.8,62.6
	c-55.5,13.9-128.5,22.6-217.2,25.8c-89.1,3.2-199.3,4.8-327.5,4.8c-121.8,0-228.6-1.6-317.7-4.8c-88.7-3.2-162-11.8-218.1-25.8
	c-56.4-14-98.7-35-125.7-62.5C47.3,1556.1,33.6,1516.8,33.6,1467L33.6,1467z M1433.4,1467c0-48.6-13.3-86.8-39.5-113.5
	s-67.9-47.4-123.4-61.2c-55.8-13.9-128.5-22.5-216.1-25.6c-87.3-3.2-194.4-4.8-318.5-4.8c-122.8,0-229.6,1.6-317.5,4.8l0,0
	c-88.2,3.1-161.3,11.7-217.1,25.6c-55.5,13.8-97,34.3-123.4,61.2s-39.5,64.9-39.5,113.5s13.3,86.8,39.5,113.5s67.8,47.4,123.4,61.2
	c55.7,13.8,128.8,22.4,217.1,25.6c89,3.2,195.8,4.8,317.5,4.8c128.2,0,238.3-1.6,327.3-4.8c88.3-3.2,161-11.8,216.1-25.6
	c54.8-13.8,94.6-34.3,118.4-61.1S1433.4,1515.5,1433.4,1467L1433.4,1467z"/>
</svg>
