<svg xmlns="http://www.w3.org/2000/svg" xmlns:xlink="http://www.w3.org/1999/xlink" viewBox="0 0 1658.22 1458.3"><defs><style>.a{fill:url(#a);}.b{fill:url(#b);}</style><linearGradient id="a" x1="481.71" y1="1.2" x2="481.71" y2="1457.6" gradientUnits="userSpaceOnUse"><stop offset="0" stop-color="#ffe900"/><stop offset="1" stop-color="#f38200"/></linearGradient><linearGradient id="b" x1="1308.36" y1="0.1" x2="1308.36" y2="1458.3" xlink:href="#a"/></defs><path class="a" d="M481.86,1457.6c-79.9,0-148.3-14.6-203.4-43.3s-100.9-66.6-136.3-112.3a526.91,526.91,0,0,1-81.9-152.5,1065.5,1065.5,0,0,1-42.4-164c-9.1-53.4-14.4-103.6-15.8-149.3-1.3-45-2-80.6-2-105.9,0-31.5,2-71.4,5.9-118.8H6c3.9-47.5,11.5-99,22.6-153.1a960.77,960.77,0,0,1,49.3-163c21.6-54.2,50.5-103.5,85.8-146.5S243.26,70,295,42.6,409.56,1.2,481.66,1.2c79.9,0,148.3,14.9,203.4,44.3S786,112.7,821.36,157.8s62.9,96.4,81.9,152.5,33.2,112,42.3,165.9c9.1,54.1,14.4,104.3,15.8,149.2s2,80.2,2,104.9c0,31.2-2,71.1-5.9,118.7s-11.6,99.2-22.6,153.1a938.08,938.08,0,0,1-49.3,162.1,575.89,575.89,0,0,1-85.8,146.5c-35.4,43.8-79.6,79.6-131.4,106.4C616.76,1444,554,1457.6,481.86,1457.6Zm0-1452.4C410.46,5.2,348.26,19,297,46.1s-95.1,62.6-130.1,105.3-63.7,91.7-85.2,145.5a965.52,965.52,0,0,0-49.1,162.4c-11.1,54-18.7,105.3-22.6,152.6h0c-3.9,47.2-5.9,87.1-5.9,118.4,0,25.3.7,60.9,1.9,105.8,1.3,45.4,6.6,95.5,15.7,148.7s23.3,108.1,42.2,163.4a521.2,521.2,0,0,0,81.3,151.3c35,45.3,80.4,82.7,135,111.2s122.3,42.9,201.6,42.9c71.4,0,133.6-13.4,184.9-40s95-62,130.1-105.3A569.76,569.76,0,0,0,882,1162.8a927,927,0,0,0,49-161.4c11-53.8,18.6-105.1,22.6-152.7s5.9-87.4,5.9-118.4c0-24.7-.7-60-2-104.8s-6.6-94.8-15.7-148.7c-9.1-53.7-23.3-109.4-42.2-165.3-18.9-55.7-46.2-106.6-81.3-151.3s-80.5-82.1-135-111.2C629,20,561.06,5.2,481.86,5.2Zm0,1426.5c-51.3,0-91.8-13.7-120.1-40.7s-49.9-69.1-64.3-125.4c-14.4-56.1-23.3-129.5-26.5-218h0c-3.3-88.1-4.9-194.9-4.9-317.7,0-124,1.7-231.2,4.9-318.6,3.3-87.9,12.2-160.9,26.5-217,14.4-56.3,36.1-98.5,64.3-125.4,28.4-27,68.8-40.8,120.1-40.8s91.7,12.4,120,36.8,50,64.9,64.4,120.6c14.4,55.4,23.3,128.5,26.6,217.1s4.9,198.9,4.9,327.5c0,122.1-1.7,229-4.9,317.7s-12.2,162-26.6,218c-14.4,56.3-36,98.5-64.3,125.4S533.16,1431.7,481.86,1431.7Zm0-1399.8c-50.3,0-89.7,13.3-117.4,39.7s-49,68-63.2,123.5c-14.3,55.8-23.2,128.6-26.4,216.2-3.3,87.4-4.9,194.5-4.9,318.5,0,122.7,1.7,229.5,4.9,317.5h0c3.2,88.3,12.1,161.4,26.4,217.2,14.2,55.6,35.5,97.1,63.2,123.5s67.1,39.6,117.4,39.6,89.7-13.3,117.4-39.6,49-68,63.2-123.5c14.3-55.8,23.2-128.9,26.5-217.2,3.3-88.7,4.9-195.5,4.9-317.5,0-128.5-1.7-238.7-4.9-327.3-3.3-88.3-12.2-161.1-26.4-216.2-14.2-54.9-35.4-94.8-63.1-118.6S532.16,31.9,481.86,31.9Z"/><path class="b" d="M1658.06,1458.3h-610.2v-32h185V187.2c-42,23.3-84.7,47.6-126.9,72.3-43.4,25.4-86.4,50.3-127.9,74l-1.7,1-17.8-29.4,1.7-1c45.6-27,87.9-51.9,126-74,36.6-21.2,71.3-42.7,103.2-63.9s64.7-45,97.3-70.8S1355.86,37.7,1395,.6l.6-.5h81.6V1426.4h181v31.9Zm-606.2-4h602.2v-24h-181V4h-76c-39,36.9-75.3,68.7-107.9,94.5s-65.6,49.8-97.6,71-66.8,42.7-103.4,64c-37.5,21.8-79.3,46.3-124.2,72.9l13.7,22.6c40.9-23.4,83.4-47.9,126.2-73,43.2-25.3,86.9-50.1,129.9-74l3-1.6V1430.3h-185v24Z"/></svg>