<?xml version="1.0" encoding="utf-8"?>
<!-- Generator: Adobe Illustrator 26.0.2, SVG Export Plug-In . SVG Version: 6.00 Build 0)  -->
<svg version="1.1" id="レイヤー_1" xmlns="http://www.w3.org/2000/svg" xmlns:xlink="http://www.w3.org/1999/xlink" x="0px"
	 y="0px" viewBox="0 0 1473.7 1685.6" style="enable-background:new 0 0 1473.7 1685.6;" xml:space="preserve">
<style type="text/css">
	.st0{fill:url(#SVGID_1_);}
	.st1{fill:url(#SVGID_00000181803990231821298050000001235882143999277746_);}
	.st2{fill:url(#SVGID_00000045583469323378477130000013543568250001160074_);}
	.st3{fill:url(#SVGID_00000083085783417847747240000001318804920662164868_);}
</style>
<linearGradient id="SVGID_1_" gradientUnits="userSpaceOnUse" x1="924.2288" y1="-158.2187" x2="924.2288" y2="1298.1813" gradientTransform="matrix(-6.123234e-17 1 -1 -6.123234e-17 1308.0811 -432.579)">
	<stop  offset="0" style="stop-color:#FFE900"/>
	<stop  offset="1" style="stop-color:#F38200"/>
</linearGradient>
<path class="st0" d="M9.9,491.8c0-79.9,14.6-148.3,43.3-203.4s66.6-100.9,112.3-136.3c46-35.5,97.5-63.2,152.5-81.9
	c53.5-18.5,108.3-32.6,164-42.4c53.4-9.1,103.6-14.4,149.3-15.8c45-1.3,80.6-2,105.9-2c31.5,0,71.4,2,118.8,5.9v0
	c47.5,3.9,99,11.5,153.1,22.6c55.7,11.6,110.2,28.1,163,49.3c54.2,21.6,103.5,50.5,146.5,85.8s78.9,79.6,106.3,131.3
	s41.4,114.6,41.4,186.7c0,79.9-14.9,148.3-44.3,203.4s-67.2,100.9-112.3,136.3c-45.1,35.4-96.4,62.9-152.5,81.9
	s-112,33.2-165.9,42.3c-54.1,9.1-104.3,14.4-149.2,15.8s-80.2,2-104.9,2c-31.2,0-71.1-2-118.7-5.9s-99.2-11.6-153.1-22.6
	c-55.4-11.5-109.7-28-162.1-49.3c-52.8-21.2-102.2-50.1-146.5-85.8C113,774.3,77.2,730.1,50.4,678.3C23.5,626.7,9.9,563.9,9.9,491.8
	z M1462.3,491.8c0-71.4-13.8-133.6-40.9-184.9s-62.6-95.1-105.3-130.1c-42.7-35-91.7-63.7-145.5-85.2
	c-52.6-21.1-106.9-37.5-162.4-49.1c-54-11.1-105.3-18.7-152.6-22.6l0,0C808.4,16,768.5,14,737.2,14c-25.3,0-60.9,0.7-105.8,1.9
	c-45.4,1.3-95.5,6.6-148.7,15.7c-53.2,9.1-108.1,23.3-163.4,42.2c-54.6,18.5-105.7,46-151.3,81.3c-45.3,35-82.7,80.4-111.2,135
	S13.9,412.4,13.9,491.7c0,71.4,13.4,133.6,40,184.9s62,95,105.3,130.1c44,35.5,93,64.2,145.5,85.2c52.2,21.2,106.2,37.6,161.4,49
	c53.8,11,105.1,18.6,152.7,22.6s87.4,5.9,118.4,5.9c24.7,0,60-0.7,104.8-2s94.8-6.6,148.7-15.7c53.7-9.1,109.4-23.3,165.3-42.2
	c55.7-18.9,106.6-46.2,151.3-81.3c44.7-35.1,82.1-80.5,111.2-135C1447.5,638.9,1462.3,571,1462.3,491.8L1462.3,491.8z M35.8,491.8
	c0-51.3,13.7-91.8,40.7-120.1s69.1-49.9,125.4-64.3c56.1-14.4,129.5-23.3,218-26.5l0,0c88.1-3.3,194.9-4.9,317.7-4.9
	c124,0,231.2,1.7,318.6,4.9c87.9,3.3,160.9,12.2,217,26.5c56.3,14.4,98.5,36.1,125.4,64.3c27,28.4,40.8,68.8,40.8,120.1
	s-12.4,91.7-36.8,120c-24.4,28.3-64.9,50-120.6,64.4c-55.4,14.4-128.5,23.3-217.1,26.6s-198.9,4.9-327.5,4.9
	c-122.1,0-229-1.7-317.7-4.9s-162-12.2-218-26.6c-56.3-14.4-98.5-36-125.4-64.3S35.8,543.1,35.8,491.8z M1435.6,491.8
	c0-50.3-13.3-89.7-39.7-117.4c-26.4-27.7-68-49-123.5-63.2c-55.8-14.3-128.6-23.2-216.2-26.4c-87.4-3.3-194.5-4.9-318.5-4.9
	c-122.7,0-229.5,1.7-317.5,4.9l0,0c-88.3,3.2-161.4,12.1-217.2,26.4c-55.6,14.2-97.1,35.5-123.5,63.2s-39.6,67.1-39.6,117.4
	s13.3,89.7,39.6,117.4s68,49,123.5,63.2c55.8,14.3,128.9,23.2,217.2,26.5c88.7,3.3,195.5,4.9,317.5,4.9c128.5,0,238.7-1.7,327.3-4.9
	c88.3-3.3,161.1-12.2,216.2-26.4c54.9-14.2,94.8-35.4,118.6-63.1C1423.6,581.7,1435.6,542.1,1435.6,491.8L1435.6,491.8z"/>
<linearGradient id="SVGID_00000099658878992961551090000006768012645148803494_" gradientUnits="userSpaceOnUse" x1="1750.8988" y1="-158.2187" x2="1750.8988" y2="1299.9813" gradientTransform="matrix(-6.123234e-17 1 -1 -6.123234e-17 1308.0811 -432.579)">
	<stop  offset="0" style="stop-color:#FFE900"/>
	<stop  offset="1" style="stop-color:#F38200"/>
</linearGradient>
<path style="fill:url(#SVGID_00000099658878992961551090000006768012645148803494_);" d="M8.1,1668v-610.2h32v185h1239.1
	c-23.3-42-47.6-84.7-72.3-126.9c-25.4-43.4-50.3-86.4-74-127.9l-1-1.7l29.4-17.8l1,1.7c27,45.6,51.9,87.9,74,126
	c21.2,36.6,42.7,71.3,63.9,103.2c21.2,31.9,45,64.7,70.8,97.3s57.7,69.1,94.8,108.2l0.5,0.6v81.6H40v181H8.1V1668z M12.1,1061.8
	V1664h24v-181h1426.3v-76c-36.9-39-68.7-75.3-94.5-107.9s-49.8-65.6-71-97.6s-42.7-66.8-64-103.4c-21.8-37.5-46.3-79.3-72.9-124.2
	l-22.6,13.7c23.4,40.9,47.9,83.4,73,126.2c25.3,43.2,50.1,86.9,74,129.9l1.6,3H36.1v-185h-24V1061.8z"/>
<linearGradient id="SVGID_00000101082252915777278130000018278613346760121505_" gradientUnits="userSpaceOnUse" x1="-3488.7649" y1="-2947.1687" x2="-3488.7649" y2="-1489.6687" gradientTransform="matrix(6.123234e-17 1 -1 6.123234e-17 -1481.5686 1908.4147)">
	<stop  offset="0" style="stop-color:#FFE900"/>
	<stop  offset="1" style="stop-color:#F38200"/>
</linearGradient>
<path style="fill:url(#SVGID_00000101082252915777278130000018278613346760121505_);" d="M8.1-1580.3c0-77.3,14.6-143.6,43.4-197
	c27.4-51.7,65.8-96.7,112.4-132c46.2-34.5,97.8-61.3,152.6-79.4c53.6-17.9,108.4-31.6,164.1-41c49.4-8.5,99.3-13.6,149.4-15.3
	c45.2-1.2,80.8-1.9,105.9-1.9c31.3,0,71.2,1.9,118.8,5.7l0,0c51.5,4.3,102.6,11.7,153.2,21.9c55.6,11.2,110.2,27.2,163.1,47.7
	c52.8,20.1,102.3,48.1,146.7,83.1c43.7,34.8,79.9,78.1,106.5,127.2c27.5,50.2,41.4,111,41.4,180.9c0,77.4-14.9,143.6-44.4,197.1
	c-27.8,51.4-66.1,96.4-112.4,132c-46.1,34.8-97.7,61.6-152.7,79.3c-54.2,17.9-109.7,31.6-166,41c-49.4,8.4-99.3,13.5-149.4,15.3
	c-46.2,1.3-80.5,1.9-105,1.9c-31.2,0-71.2-1.9-118.8-5.7c-51.5-4.4-102.6-11.7-153.2-21.9c-55.3-11.1-109.6-27.1-162.2-47.7
	c-52.7-20.4-102.1-48.4-146.7-83.1c-44-34.5-80.3-77.8-106.5-127.2C21.7-1449.8,8.1-1510.6,8.1-1580.3z M854.3-2036.5
	c-47.4-3.8-87.3-5.7-118.4-5.7c-25,0-60.6,0.6-105.8,1.9c-49.8,1.7-99.5,6.8-148.7,15.2c-55.4,9.3-110,23-163.3,40.8
	c-54.3,17.8-105.4,44.4-151.3,78.6c-46.1,34.9-84,79.4-111.1,130.5c-28.4,52.7-42.9,118.3-42.9,194.9c0,69,13.4,129.1,39.9,178.7
	c25.9,48.8,61.7,91.7,105.3,125.8c44.2,34.4,93.2,62.2,145.4,82.4c52.3,20.5,106.3,36.4,161.3,47.4c50.4,10.2,101.4,17.5,152.6,21.8
	c47.5,3.8,87.3,5.7,118.4,5.7c24.4,0,58.7-0.6,104.8-1.9c49.8-1.8,99.5-6.9,148.7-15.2c56.1-9.4,111.3-23,165.3-40.8
	c54.4-17.6,105.5-44.1,151.2-78.6c46-35.2,83.8-79.7,111.3-130.5c29.1-52.7,43.8-118.2,43.8-194.9c0-69.1-13.8-129.2-40.9-178.7
	c-26.3-48.6-62.1-91.4-105.3-125.8c-44-34.6-93-62.4-145.4-82.4c-52.5-20.4-106.8-36.2-162.2-47.4
	C956.6-2024.9,905.6-2032.2,854.3-2036.5L854.3-2036.5z M33.6-1580.3c0-49.9,13.7-89.1,40.8-116.7c27-27.5,69.2-48.5,125.7-62.5
	c56.1-14,129.5-22.6,218.1-25.8l0,0c88-3.1,194.9-4.8,317.7-4.8c124.1,0,231.4,1.6,318.7,4.8c87.9,3.1,161,11.8,217.1,25.8
	c56.4,14,98.7,35,125.7,62.5s40.8,66.9,40.8,116.7s-12.4,89-36.8,116.6s-65.1,48.5-120.8,62.6c-55.5,13.9-128.5,22.6-217.2,25.8
	c-89.1,3.2-199.3,4.8-327.5,4.8c-121.8,0-228.6-1.6-317.7-4.8c-88.7-3.2-162-11.8-218.1-25.8c-56.4-14-98.7-35-125.7-62.5
	C47.3-1491.2,33.6-1530.5,33.6-1580.3L33.6-1580.3z M1433.4-1580.3c0-48.6-13.3-86.8-39.5-113.5c-26.2-26.7-67.9-47.4-123.4-61.2
	c-55.8-13.9-128.6-22.5-216.1-25.6c-87.3-3.1-194.4-4.8-318.5-4.8c-122.8,0-229.6,1.6-317.5,4.8l0,0
	c-88.2,3.1-161.3,11.7-217.1,25.6c-55.5,13.8-97,34.4-123.4,61.2c-26.2,26.7-39.5,64.9-39.5,113.5c0,48.6,13.3,86.8,39.5,113.5
	c26.2,26.7,67.8,47.4,123.4,61.2c55.7,13.8,128.8,22.4,217.1,25.6c89,3.2,195.8,4.8,317.5,4.8c128.2,0,238.3-1.6,327.3-4.8
	c88.3-3.2,161-11.8,216.1-25.6c54.8-13.8,94.6-34.3,118.4-61.1C1421.5-1493.5,1433.4-1531.7,1433.4-1580.3L1433.4-1580.3z"/>
<linearGradient id="SVGID_00000027563205203214987140000011561882610364159126_" gradientUnits="userSpaceOnUse" x1="-2498.0149" y1="-2947.1687" x2="-2498.0149" y2="-1489.6687" gradientTransform="matrix(6.123234e-17 1 -1 6.123234e-17 -1481.5686 1908.4147)">
	<stop  offset="0" style="stop-color:#FFE900"/>
	<stop  offset="1" style="stop-color:#F38200"/>
</linearGradient>
<path style="fill:url(#SVGID_00000027563205203214987140000011561882610364159126_);" d="M8.1-589.6c0-77.3,14.6-143.6,43.4-197
	c27.4-51.7,65.8-96.7,112.4-132c46.2-34.5,97.8-61.3,152.6-79.3c53.5-17.9,108.4-31.6,164.1-41c49.4-8.5,99.3-13.6,149.4-15.3
	c45.2-1.2,80.8-1.9,105.9-1.9c31.3,0,71.2,1.9,118.8,5.7l0,0c51.4,4.3,102.6,11.7,153.2,21.9c55.6,11.2,110.2,27.2,163.1,47.7
	c52.8,20.1,102.3,48.2,146.7,83.2c43.7,34.8,79.9,78.1,106.5,127.2c27.5,50.2,41.4,111,41.4,180.9c0,77.4-14.9,143.7-44.4,197
	c-27.8,51.4-66.1,96.4-112.4,132c-46.1,34.8-97.7,61.6-152.7,79.3c-54.2,17.9-109.7,31.6-166,41c-49.4,8.4-99.3,13.5-149.3,15.2
	c-46.3,1.3-80.7,1.9-105,1.9c-31.2,0-71.2-1.9-118.8-5.7c-51.4-4.3-102.6-11.6-153.2-21.8c-55.3-11.1-109.6-27.1-162.2-47.7
	c-52.7-20.4-102.1-48.4-146.7-83.1c-44-34.5-80.3-77.8-106.5-127.2C21.7-459.1,8.1-519.9,8.1-589.6z M854.3-1045.8
	c-47.5-3.8-87.3-5.7-118.4-5.7c-25,0-60.6,0.7-105.8,1.9c-49.8,1.7-99.5,6.8-148.7,15.2c-55.4,9.3-110,23-163.3,40.8
	c-54.3,17.8-105.4,44.4-151.3,78.6c-46.1,34.9-84,79.4-111.1,130.5c-28.4,52.7-42.9,118.3-42.9,194.9c0,69,13.4,129.1,39.9,178.7
	c25.9,48.8,61.7,91.7,105.3,125.8c44.2,34.4,93.2,62.2,145.4,82.4c52.3,20.5,106.3,36.4,161.3,47.4c50.4,10.2,101.4,17.5,152.6,21.8
	c47.5,3.8,87.3,5.7,118.4,5.7c24.2,0,58.5-0.6,104.8-1.9c49.8-1.8,99.5-6.9,148.7-15.2c56.1-9.4,111.3-23,165.3-40.8
	c54.4-17.6,105.5-44.1,151.2-78.6c45.8-35.3,83.6-79.7,111.1-130.6c29.3-52.6,44-118.2,44-194.8c0-69.1-13.8-129.2-40.9-178.7
	c-26.3-48.6-62.1-91.3-105.3-125.8c-44-34.7-93.1-62.4-145.4-82.4c-52.6-20.4-107-36.3-162.3-47.4
	C956.5-1034.2,905.6-1041.5,854.3-1045.8L854.3-1045.8z M33.6-589.6c0-49.9,13.7-89.1,40.8-116.7c27-27.5,69.2-48.5,125.7-62.5
	c56.1-14,129.5-22.6,218.1-25.8l0,0c88-3.2,194.9-4.8,317.7-4.8c124.1,0,231.4,1.6,318.7,4.8c87.9,3.1,161,11.8,217.1,25.8
	c56.4,14,98.7,35,125.7,62.5c27.1,27.6,40.8,66.9,40.8,116.7s-12.4,89-36.8,116.6s-65.1,48.6-120.8,62.6
	c-55.5,13.9-128.5,22.6-217.2,25.8c-89.1,3.2-199.3,4.8-327.5,4.8c-121.8,0-228.6-1.6-317.7-4.8c-88.7-3.2-162-11.8-218.1-25.8
	c-56.4-14-98.7-35-125.7-62.5C47.3-500.5,33.6-539.8,33.6-589.6L33.6-589.6z M1433.4-589.6c0-48.6-13.3-86.8-39.5-113.5
	s-67.9-47.4-123.4-61.2c-55.8-13.9-128.5-22.5-216.1-25.6c-87.3-3.2-194.4-4.8-318.5-4.8c-122.8,0-229.6,1.6-317.5,4.8l0,0
	c-88.2,3.1-161.3,11.7-217.1,25.6c-55.5,13.8-97,34.3-123.4,61.2s-39.5,64.9-39.5,113.5s13.3,86.8,39.5,113.5s67.8,47.4,123.4,61.2
	c55.7,13.8,128.8,22.4,217.1,25.6c89,3.2,195.8,4.8,317.5,4.8c128.2,0,238.3-1.6,327.3-4.8c88.3-3.2,161-11.8,216.1-25.6
	c54.8-13.8,94.6-34.3,118.4-61.1S1433.4-541.1,1433.4-589.6L1433.4-589.6z"/>
</svg>
