<?xml version="1.0" encoding="utf-8"?>
<!-- Generator: Adobe Illustrator 26.0.2, SVG Export Plug-In . SVG Version: 6.00 Build 0)  -->
<svg version="1.1" id="レイヤー_1" xmlns="http://www.w3.org/2000/svg" xmlns:xlink="http://www.w3.org/1999/xlink" x="0px"
	 y="0px" viewBox="0 0 1473.7 1685.6" style="enable-background:new 0 0 1473.7 1685.6;" xml:space="preserve">
<style type="text/css">
	.st0{fill:url(#SVGID_1_);}
	.st1{fill:url(#SVGID_00000166662211672380310960000008324048835840464305_);}
</style>
<linearGradient id="SVGID_1_" gradientUnits="userSpaceOnUse" x1="942.229" y1="982.109" x2="942.229" y2="-474.291" gradientTransform="matrix(-6.123234e-17 1 1 6.123234e-17 484.191 -450.579)">
	<stop  offset="0" style="stop-color:#FFE900"/>
	<stop  offset="1" style="stop-color:#F38200"/>
</linearGradient>
<path class="st0" d="M9.9,491.8c0-79.9,14.6-148.3,43.3-203.4s66.6-100.9,112.3-136.3c46-35.5,97.5-63.2,152.5-81.9
	c53.5-18.5,108.3-32.6,164-42.4c53.4-9.1,103.6-14.4,149.3-15.8c45-1.3,80.6-2,105.9-2c31.5,0,71.4,2,118.8,5.9l0,0
	c47.5,3.9,99,11.5,153.1,22.6c55.7,11.6,110.2,28.1,163,49.3c54.2,21.6,103.5,50.5,146.5,85.8s78.9,79.6,106.3,131.3
	s41.4,114.6,41.4,186.7c0,79.9-14.9,148.3-44.3,203.4s-67.2,100.9-112.3,136.3c-45.1,35.4-96.4,62.9-152.5,81.9
	s-112,33.2-165.9,42.3c-54.1,9.1-104.3,14.4-149.2,15.8s-80.2,2-104.9,2c-31.2,0-71.1-2-118.7-5.9s-99.2-11.6-153.1-22.6
	c-55.4-11.5-109.7-28-162.1-49.3c-52.8-21.2-102.2-50.1-146.5-85.8C113,774.3,77.2,730.1,50.4,678.3C23.5,626.7,9.9,563.9,9.9,491.8
	z M1462.3,491.8c0-71.4-13.8-133.6-40.9-184.9s-62.6-95.1-105.3-130.1c-42.7-35-91.7-63.7-145.5-85.2
	c-52.6-21.1-106.9-37.5-162.4-49.1c-54-11.1-105.3-18.7-152.6-22.6l0,0C808.4,16,768.5,14,737.2,14c-25.3,0-60.9,0.7-105.8,1.9
	c-45.4,1.3-95.5,6.6-148.7,15.7S374.6,54.9,319.3,73.8c-54.6,18.5-105.7,46-151.3,81.3c-45.3,35-82.7,80.4-111.2,135
	S13.9,412.4,13.9,491.7c0,71.4,13.4,133.6,40,184.9s62,95,105.3,130.1c44,35.5,93,64.2,145.5,85.2c52.2,21.2,106.2,37.6,161.4,49
	c53.8,11,105.1,18.6,152.7,22.6s87.4,5.9,118.4,5.9c24.7,0,60-0.7,104.8-2s94.8-6.6,148.7-15.7c53.7-9.1,109.4-23.3,165.3-42.2
	c55.7-18.9,106.6-46.2,151.3-81.3c44.7-35.1,82.1-80.5,111.2-135C1447.5,638.9,1462.3,571,1462.3,491.8L1462.3,491.8z M35.8,491.8
	c0-51.3,13.7-91.8,40.7-120.1s69.1-49.9,125.4-64.3c56.1-14.4,129.5-23.3,218-26.5l0,0c88.1-3.3,194.9-4.9,317.7-4.9
	c124,0,231.2,1.7,318.6,4.9c87.9,3.3,160.9,12.2,217,26.5c56.3,14.4,98.5,36.1,125.4,64.3c27,28.4,40.8,68.8,40.8,120.1
	s-12.4,91.7-36.8,120s-64.9,50-120.6,64.4c-55.4,14.4-128.5,23.3-217.1,26.6s-198.9,4.9-327.5,4.9c-122.1,0-229-1.7-317.7-4.9
	s-162-12.2-218-26.6c-56.3-14.4-98.5-36-125.4-64.3S35.8,543.1,35.8,491.8z M1435.6,491.8c0-50.3-13.3-89.7-39.7-117.4
	c-26.4-27.7-68-49-123.5-63.2c-55.8-14.3-128.6-23.2-216.2-26.4c-87.4-3.3-194.5-4.9-318.5-4.9c-122.7,0-229.5,1.7-317.5,4.9l0,0
	c-88.3,3.2-161.4,12.1-217.2,26.4c-55.6,14.2-97.1,35.5-123.5,63.2s-39.6,67.1-39.6,117.4s13.3,89.7,39.6,117.4s68,49,123.5,63.2
	c55.8,14.3,128.9,23.2,217.2,26.5c88.7,3.3,195.5,4.9,317.5,4.9c128.5,0,238.7-1.7,327.3-4.9c88.3-3.3,161.1-12.2,216.2-26.4
	c54.9-14.2,94.8-35.4,118.6-63.1C1423.6,581.7,1435.6,542.1,1435.6,491.8L1435.6,491.8z"/>
<linearGradient id="SVGID_00000167380565227947278800000012795898282034163603_" gradientUnits="userSpaceOnUse" x1="1768.8789" y1="982.109" x2="1768.8789" y2="-476.0911" gradientTransform="matrix(-6.123234e-17 1 1 6.123234e-17 484.191 -450.579)">
	<stop  offset="0" style="stop-color:#FFE900"/>
	<stop  offset="1" style="stop-color:#F38200"/>
</linearGradient>
<path style="fill:url(#SVGID_00000167380565227947278800000012795898282034163603_);" d="M8.1,1668v-610.2h32v185h1239.1
	c-23.3-42-47.6-84.7-72.3-126.9c-25.4-43.4-50.3-86.4-74-127.9l-1-1.7l29.4-17.8l1,1.7c27,45.6,51.9,87.9,74,126
	c21.2,36.6,42.7,71.3,63.9,103.2c21.2,31.9,45,64.7,70.8,97.3s57.7,69.1,94.8,108.2l0.5,0.6v81.6H40v181L8.1,1668L8.1,1668z
	 M12.1,1061.8V1664h24v-181h1426.3v-76c-36.9-39-68.7-75.3-94.5-107.9s-49.8-65.6-71-97.6s-42.7-66.8-64-103.4
	c-21.8-37.5-46.3-79.3-72.9-124.2l-22.6,13.7c23.4,40.9,47.9,83.4,73,126.2c25.3,43.2,50.1,86.9,74,129.9l1.6,3H36.1v-185h-24
	C12.1,1061.7,12.1,1061.8,12.1,1061.8z"/>
</svg>
