<?xml version="1.0" encoding="utf-8"?>
<!-- Generator: Adobe Illustrator 26.0.2, SVG Export Plug-In . SVG Version: 6.00 Build 0)  -->
<svg version="1.1" id="レイヤー_1" xmlns="http://www.w3.org/2000/svg" xmlns:xlink="http://www.w3.org/1999/xlink" x="0px"
	 y="0px" viewBox="0 0 1907.9 1458.3" style="enable-background:new 0 0 1907.9 1458.3;" xml:space="preserve">
<style type="text/css">
	.st0{fill:url(#SVGID_1_);}
	.st1{fill:url(#SVGID_00000085946685228751634510000013152304442526159261_);}
</style>
<linearGradient id="SVGID_1_" gradientUnits="userSpaceOnUse" x1="3438.051" y1="-148.5538" x2="1979.7509" y2="-148.5538" gradientTransform="matrix(6.123234e-17 -1 1 6.123234e-17 630.8921 3438.051)">
	<stop  offset="0" style="stop-color:#FFE900"/>
	<stop  offset="1" style="stop-color:#F38200"/>
</linearGradient>
<path class="st0" d="M482.5,1458.3c-80,0-148.5-14.6-203.7-43.4c-55.2-28.7-101-66.7-136.5-112.4c-35.5-46.1-63.3-97.6-82-152.7
	c-18.5-53.6-32.6-108.4-42.5-164.2C8.8,932.1,3.5,881.8,2.1,836.1c-1.3-45.1-2-80.7-2-106c0-31.5,2-71.5,5.9-119l0,0
	c3.9-47.6,11.5-99.1,22.6-153.3C40.2,402,56.7,347.5,78,294.6c21.6-54.3,50.6-103.6,85.9-146.7s79.7-79,131.5-106.4S410.1,0,482.3,0
	c80,0,148.5,14.9,203.7,44.4c55.2,29.4,101,67.3,136.5,112.4c35.4,45.2,63,96.5,82,152.7s33.2,112.1,42.4,166.1
	c9.1,54.2,14.4,104.4,15.8,149.4c1.4,45,2,80.3,2,105c0,31.2-2,71.2-5.9,118.9c-3.9,47.7-11.6,99.3-22.6,153.3
	c-11.5,55.5-28,109.8-49.4,162.3c-21.2,52.9-50.2,102.3-85.9,146.7c-35.4,43.9-79.7,79.7-131.6,106.5
	C617.6,1444.7,554.7,1458.3,482.5,1458.3z M482.5,4C411,4,348.7,17.8,297.3,45s-95.2,62.7-130.3,105.4
	c-35,42.8-63.8,91.8-85.3,145.7c-21.1,52.7-37.5,107-49.2,162.6C21.5,512.8,13.9,564.1,10,611.5l0,0c-3.9,47.3-5.9,87.2-5.9,118.6
	c0,25.3,0.7,61,1.9,105.9c1.3,45.5,6.6,95.6,15.7,148.9c9.1,53.3,23.3,108.2,42.3,163.6c18.5,54.7,46.1,105.8,81.4,151.5
	c35,45.4,80.5,82.8,135.2,111.3s122.5,43,201.9,43c71.5,0,133.8-13.4,185.1-40.1c51.4-26.6,95.1-62.1,130.3-105.4
	c35.5-44.1,64.3-93.1,85.3-145.7c21.2-52.3,37.6-106.3,49.1-161.6c11-53.9,18.6-105.2,22.6-152.9c4-47.7,5.9-87.5,5.9-118.6
	c0-24.7-0.7-60.1-2-104.9c-1.3-44.9-6.6-94.9-15.7-148.9c-9.1-53.8-23.3-109.5-42.3-165.5c-18.9-55.8-46.3-106.7-81.4-151.5
	C784.2,114.4,738.7,77,684.2,47.9C629.8,18.8,561.8,4,482.5,4L482.5,4z M482.5,1432.4c-51.4,0-91.9-13.7-120.3-40.8
	c-28.3-27-50-69.2-64.4-125.6c-14.4-56.2-23.3-129.7-26.5-218.3l0,0c-3.3-88.2-4.9-195.2-4.9-318.1c0-124.2,1.7-231.5,4.9-319
	c3.3-88,12.2-161.1,26.5-217.3C312.3,137,334,94.7,362.2,67.8c28.4-27,68.9-40.9,120.3-40.9s91.8,12.4,120.2,36.8
	s50.1,65,64.5,120.8c14.4,55.5,23.3,128.7,26.6,217.4s4.9,199.2,4.9,327.9c0,122.3-1.7,229.3-4.9,318.1
	c-3.2,88.8-12.2,162.2-26.6,218.3c-14.4,56.4-36,98.6-64.4,125.6C574.4,1418.7,533.9,1432.4,482.5,1432.4z M482.5,30.7
	c-50.4,0-89.8,13.3-117.6,39.8c-27.7,26.4-49.1,68.1-63.3,123.7c-14.3,55.9-23.2,128.8-26.4,216.5c-3.3,87.5-4.9,194.8-4.9,318.9
	c0,122.9,1.7,229.8,4.9,317.9l0,0c3.2,88.4,12.1,161.6,26.4,217.5c14.2,55.7,35.5,97.2,63.3,123.7c27.7,26.4,67.2,39.7,117.6,39.7
	s89.8-13.3,117.6-39.7c27.7-26.3,49.1-68.1,63.3-123.7c14.3-55.9,23.2-129.1,26.5-217.5c3.3-88.8,4.9-195.8,4.9-317.9
	c0-128.7-1.7-239-4.9-327.7c-3.3-88.4-12.2-161.3-26.4-216.5c-14.2-55-35.4-94.9-63.2-118.8C572.5,42.8,532.9,30.7,482.5,30.7
	L482.5,30.7z"/>
<linearGradient id="SVGID_00000026843934792922547600000001402218558099983767_" gradientUnits="userSpaceOnUse" x1="1431.8744" y1="0" x2="1431.8744" y2="1458.3">
	<stop  offset="0" style="stop-color:#FFE900"/>
	<stop  offset="1" style="stop-color:#F38200"/>
</linearGradient>
<path style="fill:url(#SVGID_00000026843934792922547600000001402218558099983767_);" d="M1882.1,1458.3H955.9v-155.9l0.7-0.6
	c154.5-131.3,312.2-278.7,421.9-394.4c82.9-86.9,141.2-167.9,178.3-247.8c36.9-79.5,54.8-162.4,54.8-253.4
	c0-94.9-25.9-174.7-74.9-230.6c-49-55.9-118.8-85.5-202-85.5c-128.8,0-255.2,105-255.2,212.1c0,33,17.7,47.3,63,51.1
	c50.5,5,86.6,16.8,110.2,36.3c23.4,19.2,34.8,45.9,34.8,81.5c0,34.8-13.5,66.3-37.9,88.8c-24.5,22.5-59.1,34.9-97.5,34.9
	c-46.9,0-87.1-18.8-116.3-54.4c-29.2-35.6-44.6-84.6-44.6-141.8c0-83.1,30.9-170.8,84.8-240.7C1159.4,54.5,1288.2,0,1448.5,0
	c65.4,0,126.6,9.4,182,27.9c54.2,18.1,101.7,44.5,141.4,78.6c39.7,34.1,70.5,75,91.6,121.6c21.6,47.7,32.5,100.4,32.5,156.7
	c0,99.6-32.5,190.5-96.6,270.1c-71.7,89.1-129.1,136.5-365.4,318.3c-106.4,81.2-205.9,172.7-298.6,259.6h586
	c57.8,0,92.5-26.5,106.1-81c10.1-36.2,13.8-78.7,19.6-160.7l0.1-1.8h60.7L1882.1,1458.3z M959.7,1454.5h918.8l25.3-461.4h-53.1
	c-5.7,81-9.5,123.4-19.6,159.6c-14.1,56.4-50,83.8-109.8,83.8h-595.6l3.5-3.3c93.8-88,194.5-180.7,302.4-263.1
	c236-181.6,293.3-228.9,364.8-317.7c63.6-78.9,95.8-169,95.8-267.7c0-55.7-10.8-107.9-32.2-155.1c-20.9-46.1-51.3-86.5-90.6-120.2
	c-39.3-33.7-86.4-59.9-140.1-77.8c-55-18.4-115.9-27.7-180.8-27.7c-159.1,0-286.9,54.1-369.5,156.3c-53.4,69.2-84,156.1-84,238.3
	c0,56.3,15.1,104.5,43.7,139.4c28.5,34.7,67.6,53,113.3,53c37.4,0,71.1-12,94.9-33.8c23.7-21.7,36.7-52.2,36.7-85.9
	c0-34.4-10.9-60.1-33.4-78.5c-23.1-18.9-58.4-30.5-108.2-35.4c-47.2-3.9-66.5-19.8-66.5-54.9c0-108.9,128.3-215.9,259-215.9
	c84.3,0,155.1,30,204.8,86.8c49.6,56.6,75.8,137.3,75.8,233.1c0,91.6-18,175-55.1,255c-37.2,80.3-95.8,161.7-179,248.8
	c-109.6,115.6-267.1,262.8-421.5,394.1V1454.5z"/>
</svg>
