<?xml version="1.0" encoding="utf-8"?>
<!-- Generator: Adobe Illustrator 26.0.2, SVG Export Plug-In . SVG Version: 6.00 Build 0)  -->
<svg version="1.1" id="レイヤー_1" xmlns="http://www.w3.org/2000/svg" xmlns:xlink="http://www.w3.org/1999/xlink" x="0px"
	 y="0px" viewBox="0 0 1473.7 1907.8" style="enable-background:new 0 0 1473.7 1907.8;" xml:space="preserve">
<style type="text/css">
	.st0{fill:url(#SVGID_1_);}
	.st1{fill:url(#SVGID_00000147213155371329422550000005358841949349029521_);}
</style>
<g>
	
		<linearGradient id="SVGID_1_" gradientUnits="userSpaceOnUse" x1="302.3733" y1="940.1688" x2="302.3733" y2="2398.4688" gradientTransform="matrix(6.123234e-17 1 -1 6.123234e-17 2406.5688 179.9267)">
		<stop  offset="0" style="stop-color:#FFE900"/>
		<stop  offset="1" style="stop-color:#F38200"/>
	</linearGradient>
	<path class="st0" d="M8.1,482.4c0-80,14.6-148.5,43.4-203.7c28.7-55.2,66.7-101,112.4-136.5c46.1-35.5,97.6-63.3,152.7-82
		C370.2,41.7,425,27.6,480.8,17.7C534.3,8.7,584.6,3.4,630.3,2c45.1-1.3,80.7-2,106-2c31.5,0,71.5,2,119,5.9l0,0
		c47.6,3.9,99.1,11.5,153.3,22.6c55.8,11.6,110.3,28.1,163.2,49.4c54.3,21.6,103.6,50.6,146.7,85.9s79,79.7,106.4,131.5
		s41.5,114.7,41.5,186.9c0,80-14.9,148.5-44.4,203.7c-29.4,55.2-67.3,101-112.4,136.5c-45.2,35.4-96.5,63-152.7,82
		c-56.2,19-112.1,33.2-166.1,42.4c-54.2,9.1-104.4,14.4-149.4,15.8c-45,1.4-80.3,2-105,2c-31.2,0-71.2-2-118.9-5.9
		s-99.3-11.6-153.3-22.6c-55.5-11.5-109.8-28-162.3-49.4c-52.9-21.2-102.3-50.2-146.7-85.9c-43.9-35.4-79.7-79.7-106.5-131.6
		C21.7,617.5,8.1,554.6,8.1,482.4z M1462.4,482.4c0-71.5-13.8-133.8-41-185.2c-27.2-51.4-62.7-95.2-105.4-130.3
		c-42.8-35-91.8-63.8-145.7-85.3c-52.7-21.1-107-37.5-162.6-49.2c-54.1-11-105.4-18.6-152.8-22.5l0,0C807.6,6,767.7,4,736.3,4
		c-25.3,0-61,0.7-105.9,1.9c-45.5,1.3-95.6,6.6-148.9,15.7S373.3,44.9,317.9,63.9c-54.7,18.5-105.8,46.1-151.5,81.4
		c-45.4,35-82.8,80.5-111.3,135.2s-43,122.5-43,201.9c0,71.5,13.4,133.8,40.1,185.1c26.6,51.4,62.1,95.1,105.4,130.3
		c44.1,35.5,93.1,64.3,145.7,85.3c52.3,21.2,106.3,37.6,161.6,49.1c53.9,11,105.2,18.6,152.9,22.6s87.5,5.9,118.6,5.9
		c24.7,0,60.1-0.7,104.9-2c44.9-1.3,94.9-6.6,148.9-15.7c53.8-9.1,109.5-23.3,165.5-42.3c55.8-18.9,106.7-46.3,151.5-81.4
		c44.8-35.2,82.2-80.7,111.3-135.2C1447.6,629.7,1462.4,561.7,1462.4,482.4L1462.4,482.4z M34,482.4c0-51.4,13.7-91.9,40.8-120.3
		c27-28.3,69.2-50,125.6-64.4c56.2-14.4,129.7-23.3,218.3-26.5l0,0c88.2-3.3,195.2-4.9,318.1-4.9c124.2,0,231.5,1.7,319,4.9
		c88,3.3,161.1,12.2,217.3,26.5c56.3,14.5,98.6,36.2,125.5,64.4c27,28.4,40.9,68.9,40.9,120.3c0,51.4-12.4,91.8-36.8,120.2
		s-65,50.1-120.8,64.5c-55.5,14.4-128.7,23.3-217.4,26.6c-88.7,3.3-199.2,4.9-327.9,4.9c-122.3,0-229.3-1.7-318.1-4.9
		s-162.2-12.2-218.3-26.6c-56.4-14.4-98.6-36-125.6-64.4C47.7,574.3,34,533.8,34,482.4z M1435.7,482.4c0-50.4-13.3-89.8-39.8-117.6
		c-26.4-27.7-68.1-49.1-123.7-63.3c-55.9-14.3-128.8-23.2-216.5-26.4c-87.5-3.3-194.8-4.9-318.9-4.9c-122.9,0-229.8,1.7-317.9,4.9
		l0,0c-88.4,3.2-161.6,12.1-217.5,26.4c-55.7,14.2-97.2,35.5-123.7,63.3C51.3,392.5,38,432,38,482.4S51.3,572.2,77.7,600
		c26.3,27.7,68.1,49.1,123.7,63.3c55.9,14.3,129.1,23.2,217.5,26.5c88.8,3.3,195.8,4.9,317.9,4.9c128.7,0,239-1.7,327.7-4.9
		c88.4-3.3,161.3-12.2,216.5-26.4c55-14.2,94.9-35.4,118.8-63.2C1423.6,572.4,1435.7,532.8,1435.7,482.4L1435.7,482.4z"/>
	
		<linearGradient id="SVGID_00000042718504014086019540000009259151821932427670_" gradientUnits="userSpaceOnUse" x1="1251.8733" y1="940.1688" x2="1251.8733" y2="2398.4688" gradientTransform="matrix(6.123234e-17 1 -1 6.123234e-17 2406.5688 179.9267)">
		<stop  offset="0" style="stop-color:#FFE900"/>
		<stop  offset="1" style="stop-color:#F38200"/>
	</linearGradient>
	<path style="fill:url(#SVGID_00000042718504014086019540000009259151821932427670_);" d="M8.1,1882V955.8H164l0.6,0.7
		C295.9,1111,443.3,1268.7,559,1378.4c86.9,82.9,167.9,141.2,247.8,178.3c79.5,36.9,162.4,54.8,253.4,54.8
		c94.9,0,174.7-25.9,230.6-74.9s85.5-118.8,85.5-202c0-128.8-105-255.2-212.1-255.2c-33,0-47.3,17.7-51.1,63
		c-5,50.5-16.8,86.6-36.3,110.2c-19.2,23.4-45.9,34.8-81.5,34.8c-34.8,0-66.3-13.5-88.8-37.9c-22.5-24.5-34.9-59.1-34.9-97.5
		c0-46.9,18.8-87.1,54.4-116.3c35.6-29.2,84.6-44.6,141.8-44.6c83.1,0,170.8,30.9,240.7,84.8c103.4,83.4,157.9,212.2,157.9,372.5
		c0,65.4-9.4,126.6-27.9,182c-18.1,54.2-44.5,101.7-78.6,141.4c-34.1,39.7-75,70.5-121.6,91.6c-47.7,21.6-100.4,32.5-156.7,32.5
		c-99.6,0-190.5-32.5-270.1-96.6c-89.1-71.7-136.5-129.1-318.3-365.4C412,1327.5,320.5,1228,233.6,1135.3v586
		c0,57.8,26.5,92.5,81,106.1c36.2,10.1,78.7,13.8,160.7,19.6l1.8,0.1v60.7L8.1,1882z M11.9,959.6v918.8l461.4,25.3v-53.1
		c-81-5.7-123.4-9.5-159.6-19.6c-56.4-14.1-83.8-50-83.8-109.8v-595.6l3.3,3.5c88,93.8,180.7,194.5,263.1,302.4
		c181.6,236,228.9,293.3,317.7,364.8c78.9,63.6,169,95.8,267.7,95.8c55.7,0,107.9-10.8,155.1-32.2c46.1-20.9,86.5-51.3,120.2-90.6
		c33.7-39.3,59.9-86.4,77.8-140.1c18.4-55,27.7-115.9,27.7-180.8c0-159.1-54.1-286.9-156.3-369.5c-69.2-53.4-156.1-84-238.3-84
		c-56.3,0-104.5,15.1-139.4,43.7c-34.7,28.5-53,67.6-53,113.3c0,37.4,12,71.1,33.8,94.9c21.7,23.7,52.2,36.7,85.9,36.7
		c34.4,0,60.1-10.9,78.5-33.4c18.9-23.1,30.5-58.4,35.4-108.2c3.9-47.2,19.8-66.5,54.9-66.5c108.9,0,215.9,128.3,215.9,259
		c0,84.3-30,155.1-86.8,204.8c-56.6,49.6-137.3,75.8-233.1,75.8c-91.6,0-175-18-255-55.1c-80.3-37.2-161.7-95.8-248.8-179
		c-115.6-109.6-262.8-267.1-394.1-421.5H11.9V959.6z"/>
</g>
</svg>
