<?xml version="1.0" encoding="utf-8"?>
<!-- Generator: Adobe Illustrator 26.0.2, SVG Export Plug-In . SVG Version: 6.00 Build 0)  -->
<svg version="1.1" id="レイヤー_1" xmlns="http://www.w3.org/2000/svg" xmlns:xlink="http://www.w3.org/1999/xlink" x="0px"
	 y="0px" viewBox="0 0 1900.9 1458.3" style="enable-background:new 0 0 1900.9 1458.3;" xml:space="preserve">
<style type="text/css">
	.st0{fill:url(#SVGID_1_);}
	.st1{fill:url(#SVGID_00000112594636947124451920000005383796164711369106_);}
	.st2{fill:url(#SVGID_00000122708739927708908540000016252503969009589906_);}
</style>
<g>
	
		<linearGradient id="SVGID_1_" gradientUnits="userSpaceOnUse" x1="2156.3577" y1="489.2441" x2="699.9575" y2="489.2441" gradientTransform="matrix(6.123234e-17 -1 1 6.123234e-17 -7.5341 2157.6575)">
		<stop  offset="0" style="stop-color:#FFE900"/>
		<stop  offset="1" style="stop-color:#F38200"/>
	</linearGradient>
	<path class="st0" d="M481.9,1457.7c-79.9,0-148.3-14.6-203.4-43.3c-55.1-28.7-100.9-66.6-136.3-112.3
		c-35.5-46-63.2-97.5-81.9-152.5c-18.5-53.5-32.6-108.3-42.4-164C8.8,932.2,3.5,882,2.1,836.3c-1.3-45-2-80.6-2-105.9
		c0-31.5,2-71.4,5.9-118.8l0,0c3.9-47.5,11.5-99,22.6-153.1c11.6-55.7,28.1-110.2,49.3-163C99.5,241.3,128.4,192,163.7,149
		S243.3,70.1,295,42.7S409.6,1.3,481.7,1.3c79.9,0,148.3,14.9,203.4,44.3S786,112.8,821.4,157.9c35.4,45.1,62.9,96.4,81.9,152.5
		s33.2,112,42.3,165.9c9.1,54.1,14.4,104.3,15.8,149.2s2,80.2,2,104.9c0,31.2-2,71.1-5.9,118.7s-11.6,99.2-22.6,153.1
		c-11.5,55.4-28,109.7-49.3,162.1c-21.2,52.8-50.1,102.2-85.8,146.5c-35.4,43.8-79.6,79.6-131.4,106.4
		C616.8,1444.1,554,1457.7,481.9,1457.7z M481.9,5.3c-71.4,0-133.6,13.8-184.9,40.9s-95.1,62.6-130.1,105.3
		c-35,42.7-63.7,91.7-85.2,145.5c-21.1,52.6-37.5,106.9-49.1,162.4C21.5,513.4,13.9,564.7,10,612l0,0c-3.9,47.2-5.9,87.1-5.9,118.4
		c0,25.3,0.7,60.9,1.9,105.8c1.3,45.4,6.6,95.5,15.7,148.7c9.1,53.2,23.3,108.1,42.2,163.4c18.5,54.6,46,105.7,81.3,151.3
		c35,45.3,80.4,82.7,135,111.2s122.3,42.9,201.6,42.9c71.4,0,133.6-13.4,184.9-40s95-62,130.1-105.3c35.5-44,64.2-93,85.2-145.5
		c21.2-52.2,37.6-106.2,49-161.4c11-53.8,18.6-105.1,22.6-152.7s5.9-87.4,5.9-118.4c0-24.7-0.7-60-2-104.8s-6.6-94.8-15.7-148.7
		c-9.1-53.7-23.3-109.4-42.2-165.3c-18.9-55.7-46.2-106.6-81.3-151.3c-35.1-44.7-80.5-82.1-135-111.2C629,20.1,561.1,5.3,481.9,5.3
		L481.9,5.3z M481.9,1431.8c-51.3,0-91.8-13.7-120.1-40.7s-49.9-69.1-64.3-125.4c-14.4-56.1-23.3-129.5-26.5-218l0,0
		c-3.3-88.1-4.9-194.9-4.9-317.7c0-124,1.7-231.2,4.9-318.6c3.3-87.9,12.2-160.9,26.5-217c14.4-56.3,36.1-98.5,64.3-125.4
		c28.4-27,68.8-40.8,120.1-40.8s91.7,12.4,120,36.8s50,64.9,64.4,120.6c14.4,55.4,23.3,128.5,26.6,217.1s4.9,198.9,4.9,327.5
		c0,122.1-1.7,229-4.9,317.7s-12.2,162-26.6,218c-14.4,56.3-36,98.5-64.3,125.4C573.7,1418.2,533.2,1431.8,481.9,1431.8z M481.9,32
		c-50.3,0-89.7,13.3-117.4,39.7c-27.7,26.4-49,68-63.2,123.5C287,251,278.1,323.8,274.9,411.4c-3.3,87.4-4.9,194.5-4.9,318.5
		c0,122.7,1.7,229.5,4.9,317.5l0,0c3.2,88.3,12.1,161.4,26.4,217.2c14.2,55.6,35.5,97.1,63.2,123.5c27.7,26.4,67.1,39.6,117.4,39.6
		s89.7-13.3,117.4-39.6c27.7-26.3,49-68,63.2-123.5c14.3-55.8,23.2-128.9,26.5-217.2c3.3-88.7,4.9-195.5,4.9-317.5
		c0-128.5-1.7-238.7-4.9-327.3c-3.3-88.3-12.2-161.1-26.4-216.2c-14.2-54.9-35.4-94.8-63.1-118.6C571.8,44,532.2,32,481.9,32
		L481.9,32z"/>
	
		<linearGradient id="SVGID_00000038397900731250981640000003579472692575850125_" gradientUnits="userSpaceOnUse" x1="2156.2578" y1="489.2941" x2="699.9575" y2="489.2941" gradientTransform="matrix(6.123234e-17 -1 1 6.123234e-17 -7.5341 2157.6575)">
		<stop  offset="0" style="stop-color:#FFE900"/>
		<stop  offset="1" style="stop-color:#F38200"/>
	</linearGradient>
	<path style="fill:url(#SVGID_00000038397900731250981640000003579472692575850125_);" d="M482.1,1457.7
		c-80,0-148.4-14.6-203.4-43.2c-55-28.8-101-66.7-136.4-112.3c-35.4-46.1-63.2-97.5-82-152.5c-18.5-53.6-32.6-108.3-42.4-164
		C8.7,932.3,3.4,882.1,2.1,836.4c-1.3-45.1-2-80.7-2-105.9c0-31.4,2-71.3,5.8-118.7l0,0c3.8-47.6,11.5-99,22.6-153.2
		c11.6-55.7,28.1-110.3,49.2-163c21.6-54.2,50.6-103.4,85.8-146.5s79.7-79,131.4-106.3C346.6,15.4,409.5,1.4,481.7,1.4
		c80,0,148.4,15,203.4,44.2c55,29.3,101,67.2,136.4,112.3s62.9,96.5,82,152.5s33.3,112.1,42.2,166c9.1,54.1,14.5,104.3,15.8,149.2
		s2,80.2,2,104.9c0,31.3-2,71.2-5.8,118.7c-3.8,47.5-11.6,99.3-22.6,153.1c-11.5,55.4-27.9,109.8-49.2,162.2
		c-21.1,52.9-50.1,102.3-85.8,146.5c-35.5,43.8-79.7,79.7-131.4,106.5C617.1,1444.2,554.3,1457.7,482.1,1457.7z M482.1,5.1
		c-71.3,0-133.5,13.8-184.9,40.9s-95.1,62.5-130.1,105.3c-34.9,42.7-63.7,91.6-85.2,145.5c-21.1,52.6-37.6,106.9-49.1,162.5
		C21.7,513.4,14.2,564.6,10.2,612l0,0c-3.8,47.2-5.8,87.1-5.8,118.4c0,25.3,0.7,60.9,1.9,105.8c1.3,45.4,6.7,95.5,15.6,148.7
		c8.9,53.2,23.3,108.1,42.2,163.5c18.5,54.6,46.1,105.8,81.3,151.3c34.9,45.2,80.5,82.7,135,111.3s122.5,42.9,201.7,42.9
		c71.3,0,133.5-13.5,184.9-40.1c51.4-26.6,95-62,130.1-105.3c35.6-44.1,64.2-93,85.2-145.5c21.3-52.2,37.6-106.3,49.1-161.5
		c11-53.9,18.6-105.1,22.6-152.7c4-47.6,5.8-87.5,5.8-118.4c0-24.8-0.7-60-2-104.8c-1.3-44.7-6.7-94.8-15.6-148.7
		c-9.1-53.7-23.3-109.4-42.2-165.3c-19-55.7-46.2-106.6-81.3-151.3c-35.1-44.7-80.5-82.2-135-111.3C629.3,19.9,561.4,5.1,482.1,5.1
		L482.1,5.1z M482.1,1431.9c-51.4,0-91.8-13.6-120.1-40.7c-28.3-26.9-49.9-69.2-64.4-125.4c-14.5-56-23.3-129.6-26.4-218l0,0
		c-3.3-88.1-4.8-194.9-4.8-317.8c0-124.1,1.7-231.2,4.8-318.7c3.3-88,12.1-161,26.4-217c14.5-56.4,36.1-98.5,64.4-125.4
		c28.4-26.9,68.9-40.7,120.1-40.7c51.4,0,91.6,12.5,120.1,36.8c28.3,24.4,50.1,64.9,64.4,120.6c14.5,55.4,23.3,128.6,26.6,217.2
		s4.8,198.9,4.8,327.6c0,122.1-1.7,229-4.8,317.8c-3.2,88.6-12.1,162-26.6,218c-14.5,56.4-36.1,98.5-64.4,125.4
		C574,1418.3,533.5,1431.9,482.1,1431.9z M482.1,31.7c-50.4,0-89.6,13.3-117.4,39.7c-27.8,26.4-49.1,68-63.2,123.6
		c-14.3,55.9-23.3,128.6-26.4,216.2c-3.3,87.5-4.8,194.6-4.8,318.5c0,122.7,1.7,229.5,4.8,317.5l0,0c3.2,88.3,12.1,161.5,26.4,217.2
		c14.1,55.5,35.4,97.1,63.2,123.6s67.1,39.6,117.4,39.6c50.4,0,89.6-13.3,117.4-39.6c27.8-26.3,49.1-68,63.2-123.6
		c14.3-55.9,23.3-128.9,26.4-217.2c3.3-88.6,4.8-195.6,4.8-317.5c0-128.6-1.7-238.8-4.8-327.3c-3.3-88.3-12.1-161.2-26.4-216.2
		c-14.1-54.9-35.4-94.8-63-118.6C572,43.7,532.5,31.7,482.1,31.7L482.1,31.7z"/>
	<g>
		
			<linearGradient id="SVGID_00000060722812193062207570000000937643672581752452_" gradientUnits="userSpaceOnUse" x1="2156.4575" y1="1442.0942" x2="699.9575" y2="1442.0942" gradientTransform="matrix(6.123234e-17 -1 1 6.123234e-17 -7.5341 2157.6575)">
			<stop  offset="0" style="stop-color:#FFE900"/>
			<stop  offset="1" style="stop-color:#F38200"/>
		</linearGradient>
		<path style="fill:url(#SVGID_00000060722812193062207570000000937643672581752452_);" d="M1370,1457.7
			c-69.2,0-127.7-8.1-178.7-24.9c-50.9-16.6-93.3-41.6-129.7-76c-59.4-55.5-93.3-133.3-93.3-213.8c0-89.1,50.9-146.8,129.3-146.8
			c34.9,0,66.5,11.8,88.9,33.1c22.3,21.3,34.6,51.4,34.6,84.6c0,43.6-12.1,65.2-56.7,100.1s-47.5,40.4-47.5,62.2
			c0,70.5,93.3,125.5,212.5,125.5c92.4,0,163.6-31.6,211.6-93.9c47.9-62.2,72.3-154.1,72.3-273.2c0-134.7-28.1-207-103.6-267
			c-67-51.7-134.8-69.2-269.2-69.2c-16.8,0-48.2,0-86.8,2l-2,0.2v-62l2,0.2c30.9,2,56.2,2,71.3,2c124.7,0,201.7-21.9,249.5-71.2
			c47.9-49.2,69.2-128.7,69.2-257.2c0-171.6-63.2-255-193.2-255c-94.6,0-187.4,55.5-187.4,112.1c0,16,6.5,25.3,45.4,48.5
			c38.6,22.8,55,49.9,55,90.4c0,30.9-10.8,57-31.3,75.8c-20.4,18.6-49,28.4-82.6,28.4c-35.6,0-65.3-12.8-86.1-36.9
			c-20.6-23.9-31.6-57.9-31.6-98.3c0-63.7,31.3-130.5,83.6-179.1c70.2-66.2,160.8-97.1,285.3-97.1c126.2,0,232.3,29.8,307.1,86.1
			c74.6,56.2,114.1,136,114.1,230.6c0,97.9-30.9,173.1-94.3,229.8c-60.8,54.4-153.6,93.4-283.1,118.9c133.7,10,204,28.1,283.6,72.7
			c56.9,31.8,100.4,74.2,129.3,125.9c28.8,51.4,43.4,112.2,43.4,181.1c0,123.9-49.7,227.6-143.6,300.4
			C1663.6,1419.5,1529.7,1457.7,1370,1457.7z M1097.6,1000c-37.4,0-69,13.3-91.3,38.4c-22.4,25.4-34.2,61.5-34.2,104.6
			c0,79.3,33.6,156.3,92.1,211c36.1,34.1,78,58.7,128.2,75.1c50.7,16.6,108.9,24.8,177.6,24.8c158.8,0,291.9-38.1,385-110.2
			c92.9-72,142.1-174.7,142.1-297.4c0-68.2-14.5-128.3-42.9-179.2c-28.6-51-71.7-92.9-128-124.4c-82-45.7-154-63.5-296.6-73.2l-15-1
			l14.8-2.8c136.3-25.3,232.9-64.8,295.6-120.7c62.7-56,93.1-130.2,93.1-226.9c0-93.4-38.9-172.1-112.4-227.6
			c-74-55.9-179.4-85.3-304.7-85.3c-123.4,0-213.3,30.6-282.6,96.1c-51.7,47.9-82.5,113.7-82.5,176.2c0,39.4,10.6,72.7,30.8,95.8
			c20.1,23.3,48.9,35.6,83.3,35.6c32.8,0,60.4-9.5,80.1-27.4c19.6-18,30.1-43.2,30.1-73c0-39.1-16-65.2-53.2-87.3
			c-38.1-22.8-47.2-32.9-47.2-51.9c0-58.5,94.8-115.9,191.2-115.9c65.8,0,115.7,21.8,148.3,64.7c32.3,42.7,48.7,107.9,48.7,194
			c0,129.7-21.6,209.8-70.3,259.9c-48.5,50-126.4,72.3-252.2,72.3c-14.8,0-39.6,0-69.5-1.8v53.9c37.7-1.8,68.3-1.8,85-1.8
			c135.3,0,203.8,17.6,271.5,70c38.9,30.9,64.7,64.8,81,106.7c16.5,42.1,24.1,93.9,24.1,163.3c0,119.9-24.6,212.6-73.2,275.5
			c-48.9,63.3-121,95.4-214.6,95.4c-121.4,0-216.3-56.9-216.3-129.3c0-24.4,4.7-30.4,49-65.2c43.4-33.9,55.4-54.9,55.4-97.1
			c0-32.3-11.8-61.3-33.4-82C1162.3,1011.5,1131.7,1000,1097.6,1000z"/>
	</g>
</g>
</svg>
