<?xml version="1.0" encoding="utf-8"?>
<!-- Generator: Adobe Illustrator 26.0.2, SVG Export Plug-In . SVG Version: 6.00 Build 0)  -->
<svg version="1.1" id="レイヤー_1" xmlns="http://www.w3.org/2000/svg" xmlns:xlink="http://www.w3.org/1999/xlink" x="0px"
	 y="0px" viewBox="0 0 1456.4 1901" style="enable-background:new 0 0 1456.4 1901;" xml:space="preserve">
<style type="text/css">
	.st0{fill:url(#SVGID_1_);}
	.st1{fill:url(#SVGID_00000183214380766966040300000004542456370833812617_);}
	.st2{fill:url(#SVGID_00000143593807221291246010000001596140985956167826_);}
</style>
<linearGradient id="SVGID_1_" gradientUnits="userSpaceOnUse" x1="968.329" y1="94.109" x2="968.329" y2="-1362.291" gradientTransform="matrix(-6.123234e-17 1 1 6.123234e-17 1362.291 -486.679)">
	<stop  offset="0" style="stop-color:#FFE900"/>
	<stop  offset="1" style="stop-color:#F38200"/>
</linearGradient>
<path class="st0" d="M0,481.8c0-79.9,14.6-148.3,43.3-203.4s66.6-100.9,112.3-136.3c46-35.5,97.5-63.2,152.5-81.9
	c53.5-18.5,108.3-32.6,164-42.4C525.5,8.7,575.7,3.4,621.4,2c45-1.3,80.6-2,105.9-2c31.5,0,71.4,2,118.8,5.9l0,0
	c47.5,3.9,99,11.5,153.1,22.6c55.7,11.6,110.2,28.1,163,49.3c54.2,21.6,103.5,50.5,146.5,85.8s78.9,79.6,106.3,131.3
	s41.4,114.6,41.4,186.7c0,79.9-14.9,148.3-44.3,203.4s-67.2,100.9-112.3,136.3c-45.1,35.4-96.4,62.9-152.5,81.9
	s-112,33.2-165.9,42.3c-54.1,9.1-104.3,14.4-149.2,15.8s-80.2,2-104.9,2c-31.2,0-71.1-2-118.7-5.9s-99.2-11.6-153.1-22.6
	c-55.4-11.5-109.7-28-162.1-49.3c-52.8-21.2-102.2-50.1-146.5-85.8c-43.8-35.4-79.6-79.6-106.4-131.4C13.6,616.7,0,553.9,0,481.8z
	 M1452.4,481.8c0-71.4-13.8-133.6-40.9-184.9s-62.6-95.1-105.3-130.1c-42.7-35-91.7-63.7-145.5-85.2
	c-52.6-21.1-106.9-37.5-162.4-49.1C944.3,21.4,893,13.8,845.7,9.9l0,0C798.5,6,758.6,4,727.3,4C702,4,666.4,4.7,621.5,5.9
	c-45.4,1.3-95.5,6.6-148.7,15.7S364.7,44.9,309.4,63.8c-54.6,18.5-105.7,46-151.3,81.3c-45.3,35-82.7,80.4-111.2,135
	S4,402.4,4,481.7c0,71.4,13.4,133.6,40,184.9s62,95,105.3,130.1c44,35.5,93,64.2,145.5,85.2c52.2,21.2,106.2,37.6,161.4,49
	c53.8,11,105.1,18.6,152.7,22.6s87.4,5.9,118.4,5.9c24.7,0,60-0.7,104.8-2s94.8-6.6,148.7-15.7c53.7-9.1,109.4-23.3,165.3-42.2
	c55.7-18.9,106.6-46.2,151.3-81.3c44.7-35.1,82.1-80.5,111.2-135C1437.6,628.9,1452.4,561,1452.4,481.8L1452.4,481.8z M25.9,481.8
	c0-51.3,13.7-91.8,40.7-120.1s69.1-49.9,125.4-64.3c56.1-14.4,129.5-23.3,218-26.5l0,0c88.1-3.3,194.9-4.9,317.7-4.9
	c124,0,231.2,1.7,318.6,4.9c87.9,3.3,160.9,12.2,217,26.5c56.3,14.4,98.5,36.1,125.4,64.3c27,28.4,40.8,68.8,40.8,120.1
	s-12.4,91.7-36.8,120s-64.9,50-120.6,64.4c-55.4,14.4-128.5,23.3-217.1,26.6s-198.9,4.9-327.5,4.9c-122.1,0-229-1.7-317.7-4.9
	s-162-12.2-218-26.6c-56.3-14.4-98.5-36-125.4-64.3S25.9,533.1,25.9,481.8z M1425.7,481.8c0-50.3-13.3-89.7-39.7-117.4
	c-26.4-27.7-68-49-123.5-63.2c-55.8-14.3-128.6-23.2-216.2-26.4c-87.4-3.3-194.5-4.9-318.5-4.9c-122.7,0-229.5,1.7-317.5,4.9l0,0
	c-88.3,3.2-161.4,12.1-217.2,26.4c-55.6,14.2-97.1,35.5-123.5,63.2S30,431.5,30,481.8s13.3,89.7,39.6,117.4s68,49,123.5,63.2
	c55.8,14.3,128.9,23.2,217.2,26.5c88.7,3.3,195.5,4.9,317.5,4.9c128.5,0,238.7-1.7,327.3-4.9c88.3-3.3,161.1-12.2,216.2-26.4
	c54.9-14.2,94.8-35.4,118.6-63.1C1413.7,571.7,1425.7,532.1,1425.7,481.8L1425.7,481.8z"/>
<linearGradient id="SVGID_00000131336589934343863330000015085315420430484654_" gradientUnits="userSpaceOnUse" x1="126.9594" y1="703.6863" x2="126.9594" y2="2160.0862" gradientTransform="matrix(6.123234e-17 1 -1 6.123234e-17 2160.0862 354.7651)">
	<stop  offset="0" style="stop-color:#FFE900"/>
	<stop  offset="1" style="stop-color:#F38200"/>
</linearGradient>
<path style="fill:url(#SVGID_00000131336589934343863330000015085315420430484654_);" d="M0,482c0-80,14.6-148.4,43.2-203.4
	c28.8-55,66.7-101,112.3-136.4C201.6,106.8,253,79,308,60.2c53.6-18.5,108.3-32.6,164-42.4C525.4,8.6,575.6,3.3,621.3,2
	c45.1-1.3,80.7-2,105.9-2c31.4,0,71.3,2,118.7,5.8l0,0c47.6,3.8,99,11.5,153.2,22.6c55.7,11.6,110.3,28.1,163,49.2
	c54.2,21.6,103.4,50.6,146.5,85.8s79,79.7,106.3,131.4c27.4,51.7,41.4,114.6,41.4,186.8c0,80-15,148.4-44.2,203.4
	c-29.3,55-67.2,101-112.3,136.4s-96.5,62.9-152.5,82c-56,19.1-112.1,33.3-166,42.2c-54.1,9.1-104.3,14.5-149.2,15.8s-80.2,2-104.9,2
	c-31.3,0-71.2-2-118.7-5.8C561,953.8,509.2,946,455.4,935c-55.4-11.5-109.8-27.9-162.2-49.2c-52.9-21.1-102.3-50.1-146.5-85.8
	C102.9,764.5,67,720.3,40.2,668.6C13.5,617,0,554.2,0,482z M1452.6,482c0-71.3-13.8-133.5-40.9-184.9
	c-27.1-51.4-62.5-95.1-105.3-130.1c-42.7-34.9-91.6-63.7-145.5-85.2c-52.6-21.1-106.9-37.6-162.5-49.1
	c-54.1-11.1-105.3-18.6-152.7-22.6l0,0c-47.2-3.8-87.1-5.8-118.4-5.8C702,4.3,666.4,5,621.5,6.2c-45.4,1.3-95.5,6.7-148.7,15.6
	S364.7,45.1,309.3,64c-54.6,18.5-105.8,46.1-151.3,81.3c-45.2,34.9-82.7,80.5-111.3,135S3.8,402.8,3.8,482
	c0,71.3,13.5,133.5,40.1,184.9s62,95,105.3,130.1c44.1,35.6,93,64.2,145.5,85.2c52.2,21.3,106.3,37.6,161.5,49.1
	c53.9,11,105.1,18.6,152.7,22.6c47.6,4,87.5,5.8,118.4,5.8c24.8,0,60-0.7,104.8-2c44.7-1.3,94.8-6.7,148.7-15.6
	c53.7-9.1,109.4-23.3,165.3-42.2c55.7-19,106.6-46.2,151.3-81.3c44.7-35.1,82.2-80.5,111.3-135
	C1437.8,629.2,1452.6,561.3,1452.6,482L1452.6,482z M25.8,482c0-51.4,13.6-91.8,40.7-120.1c26.9-28.3,69.2-49.9,125.4-64.4
	c56-14.5,129.6-23.3,218-26.4l0,0c88.1-3.3,194.9-4.8,317.8-4.8c124.1,0,231.2,1.7,318.7,4.8c88,3.3,161,12.1,217,26.4
	c56.4,14.5,98.5,36.1,125.4,64.4c26.9,28.4,40.7,68.9,40.7,120.1c0,51.4-12.5,91.6-36.8,120.1c-24.4,28.3-64.9,50.1-120.6,64.4
	c-55.4,14.5-128.6,23.3-217.2,26.6c-88.6,3.3-198.9,4.8-327.6,4.8c-122.1,0-229-1.7-317.8-4.8c-88.6-3.2-162-12.1-218-26.6
	c-56.4-14.5-98.5-36.1-125.4-64.4C39.4,573.9,25.8,533.4,25.8,482z M1426,482c0-50.4-13.3-89.6-39.7-117.4
	c-26.4-27.8-68-49.1-123.6-63.2c-55.9-14.3-128.6-23.3-216.2-26.4c-87.5-3.3-194.6-4.8-318.5-4.8c-122.7,0-229.5,1.7-317.5,4.8l0,0
	c-88.3,3.2-161.5,12.1-217.2,26.4c-55.5,14.1-97.1,35.4-123.6,63.2S30.1,431.7,30.1,482c0,50.4,13.3,89.6,39.6,117.4
	c26.3,27.8,68,49.1,123.6,63.2c55.9,14.3,128.9,23.3,217.2,26.4c88.6,3.3,195.6,4.8,317.5,4.8c128.6,0,238.8-1.7,327.3-4.8
	c88.3-3.3,161.2-12.1,216.2-26.4c54.9-14.1,94.8-35.4,118.6-63C1414,571.9,1426,532.4,1426,482L1426,482z"/>
<g>
	
		<linearGradient id="SVGID_00000058555518708850857970000002885852942862380699_" gradientUnits="userSpaceOnUse" x1="1456.3999" y1="1434.6151" x2="1.337097e-04" y2="1434.6151">
		<stop  offset="0" style="stop-color:#FFE900"/>
		<stop  offset="1" style="stop-color:#F38200"/>
	</linearGradient>
	<path style="fill:url(#SVGID_00000058555518708850857970000002885852942862380699_);" d="M0,1369.9c0-69.2,8.1-127.7,24.9-178.7
		c16.6-50.9,41.6-93.3,76-129.7c55.5-59.4,133.3-93.3,213.8-93.3c89.1,0,146.8,50.9,146.8,129.3c0,34.9-11.8,66.5-33.1,88.9
		c-21.3,22.3-51.4,34.6-84.6,34.6c-43.6,0-65.2-12.1-100.1-56.7s-40.4-47.5-62.2-47.5c-70.5,0-125.5,93.3-125.5,212.5
		c0,92.4,31.6,163.6,93.9,211.6c62.2,47.9,154.1,72.3,273.2,72.3c134.7,0,207-28.1,267-103.6c51.7-67,69.2-134.8,69.2-269.2
		c0-16.8,0-48.2-2-86.8l-0.2-2h62l-0.2,2c-2,30.9-2,56.2-2,71.3c0,124.7,21.9,201.7,71.2,249.5c49.2,47.9,128.7,69.2,257.2,69.2
		c171.6,0,255-63.2,255-193.2c0-94.6-55.5-187.4-112.1-187.4c-16,0-25.3,6.5-48.5,45.4c-22.8,38.6-49.9,55-90.4,55
		c-30.9,0-57-10.8-75.8-31.3c-18.6-20.4-28.4-49-28.4-82.6c0-35.6,12.8-65.3,36.9-86.1c23.9-20.6,57.9-31.6,98.3-31.6
		c63.7,0,130.5,31.3,179.1,83.6c66.2,70.2,97.1,160.8,97.1,285.3c0,126.2-29.8,232.3-86.1,307.1c-56.2,74.6-136,114.1-230.6,114.1
		c-97.9,0-173.1-30.9-229.8-94.3c-54.4-60.8-93.4-153.6-118.9-283.1c-10,133.7-28.1,204-72.7,283.6
		c-31.8,56.9-74.2,100.4-125.9,129.3c-51.4,28.8-112.2,43.4-181.1,43.4c-123.9,0-227.6-49.7-300.4-143.6
		C38.2,1663.5,0,1529.6,0,1369.9z M457.7,1097.5c0-37.4-13.3-69-38.4-91.3c-25.4-22.4-61.5-34.2-104.6-34.2
		c-79.3,0-156.3,33.6-211,92.1c-34.1,36.1-58.7,78-75.1,128.2C12,1243,3.8,1301.2,3.8,1369.9c0,158.8,38.1,291.9,110.2,385
		c72,92.9,174.7,142.1,297.4,142.1c68.2,0,128.3-14.5,179.2-42.9c51-28.6,92.9-71.7,124.4-128c45.7-82,63.5-154,73.2-296.6l1-15
		l2.8,14.8c25.3,136.3,64.8,232.9,120.7,295.6c56,62.7,130.2,93.1,226.9,93.1c93.4,0,172.1-38.9,227.6-112.4
		c55.9-74,85.3-179.4,85.3-304.7c0-123.4-30.6-213.3-96.1-282.6c-47.9-51.7-113.7-82.5-176.2-82.5c-39.4,0-72.7,10.6-95.8,30.8
		c-23.3,20.1-35.6,48.9-35.6,83.3c0,32.8,9.5,60.4,27.4,80.1c18,19.6,43.2,30.1,73,30.1c39.1,0,65.2-16,87.3-53.2
		c22.8-38.1,32.9-47.2,51.9-47.2c58.5,0,115.9,94.8,115.9,191.2c0,65.8-21.8,115.7-64.7,148.3c-42.7,32.3-107.9,48.7-194,48.7
		c-129.7,0-209.8-21.6-259.9-70.3c-50-48.5-72.3-126.4-72.3-252.2c0-14.8,0-39.6,1.8-69.5h-53.9c1.8,37.7,1.8,68.3,1.8,85
		c0,135.3-17.6,203.8-70,271.5c-30.9,38.9-64.8,64.7-106.7,81c-42.1,16.5-93.9,24.1-163.3,24.1c-119.9,0-212.6-24.6-275.5-73.2
		c-63.3-48.9-95.4-121-95.4-214.6c0-121.4,56.9-216.3,129.3-216.3c24.4,0,30.4,4.7,65.2,49c33.9,43.4,54.9,55.4,97.1,55.4
		c32.3,0,61.3-11.8,82-33.4C446.2,1162.2,457.7,1131.6,457.7,1097.5z"/>
</g>
</svg>
