<?xml version="1.0" encoding="utf-8"?>
<!-- Generator: Adobe Illustrator 26.0.2, SVG Export Plug-In . SVG Version: 6.00 Build 0)  -->
<svg version="1.1" id="レイヤー_1" xmlns="http://www.w3.org/2000/svg" xmlns:xlink="http://www.w3.org/1999/xlink" x="0px"
	 y="0px" viewBox="0 0 2117.1 1458.3" style="enable-background:new 0 0 2117.1 1458.3;" xml:space="preserve">
<style type="text/css">
	.st0{fill:url(#SVGID_1_);}
	.st1{fill:url(#SVGID_00000158747297894024309370000000892065384630424730_);}
</style>
<linearGradient id="SVGID_1_" gradientUnits="userSpaceOnUse" x1="38.2969" y1="8206.6602" x2="38.2969" y2="9664.6279" gradientTransform="matrix(1 0 0 1 443.9459 -8206.3271)">
	<stop  offset="0" style="stop-color:#FFE900"/>
	<stop  offset="1" style="stop-color:#F38200"/>
</linearGradient>
<path class="st0" d="M482.5,1458.3c-80.1,0-148.5-14.7-203.6-43.3c-55.1-28.8-101.1-66.8-136.5-112.4
	c-35.5-46.1-63.3-97.6-82.1-152.7c-18.5-53.6-32.6-108.4-42.5-164.2C8.7,932.4,3.3,882.1,2,836.3c-1.3-45.1-2-80.7-2-106.1
	c0-31.5,2-71.4,5.8-118.9l0,0c3.8-47.6,11.5-99.1,22.6-153.3c11.7-55.8,28.1-110.4,49.3-163.2c21.6-54.3,50.6-103.6,85.9-146.7
	s79.7-79.1,131.5-106.4C347,14.3,409.9,0.3,482.2,0.3c80.1,0,148.5,15,203.6,44.3c55.1,29.5,101.1,67.3,136.5,112.4
	c35.5,45.1,62.9,96.6,82.1,152.7c19,56.1,33.3,112.2,42.3,166.2c9.2,54.1,14.5,104.4,15.8,149.3c1.3,45,2,80.2,2,105.1
	c0,31.3-2,71.3-5.8,118.9c-3.8,47.6-11.7,99.4-22.6,153.3c-11.5,55.4-28,109.9-49.3,162.3c-21.1,52.9-50.1,102.4-85.9,146.7
	c-35.5,43.8-79.7,79.7-131.5,106.6C617.7,1444.6,554.8,1458.3,482.5,1458.3z M482.5,4c-71.4,0-133.7,13.8-185.1,41
	c-51.4,27.1-95.2,62.6-130.2,105.4c-35,42.8-63.8,91.7-85.2,145.7c-21.1,52.6-37.6,107.1-49.1,162.7
	c-11.2,54.1-18.6,105.4-22.6,152.8l0,0c-3.8,47.3-5.8,87.2-5.8,118.5C4.3,755.4,5,791,6.2,836c1.3,45.5,6.7,95.6,15.7,148.8
	c9.2,53.3,23.3,108.2,42.3,163.7c18.5,54.6,46.1,105.9,81.4,151.5c35,45.3,80.6,82.7,135.2,111.4c54.6,28.6,122.5,43,201.8,43
	c71.4,0,133.7-13.5,185.1-40.1s95.1-62.1,130.2-105.4c35.6-44.1,64.3-93.1,85.2-145.7c21.3-52.3,37.6-106.4,49.1-161.7
	c11-53.9,18.6-105.2,22.6-152.8c4-47.6,5.8-87.6,5.8-118.5c0-24.8-0.7-60.1-2-104.9c-1.3-44.8-6.7-94.9-15.7-148.8
	c-9.2-53.8-23.3-109.6-42.3-165.5c-19-55.8-46.3-106.7-81.4-151.5c-35.1-44.8-80.6-82.2-135.2-111.4C629.8,18.8,561.9,4,482.5,4
	L482.5,4z M482.5,1432.3c-51.4,0-91.9-13.7-120.2-40.8c-28.3-27-49.9-69.3-64.4-125.5c-14.5-56.1-23.3-129.7-26.5-218.3l0,0
	c-3.3-88.2-4.8-195.1-4.8-318.2c0-124.2,1.7-231.4,4.8-319c3.3-88.1,12.2-161.2,26.5-217.3c14.5-56.4,36.1-98.6,64.4-125.5
	c28.5-27,68.9-40.8,120.2-40.8c51.4,0,91.7,12.5,120.2,36.8c28.3,24.5,50.1,64.9,64.4,120.7c14.5,55.4,23.3,128.7,26.6,217.4
	c3.3,88.7,4.8,199.1,4.8,328c0,122.2-1.7,229.3-4.8,318.2c-3.2,88.7-12.2,162.2-26.6,218.3c-14.5,56.4-36.1,98.6-64.4,125.5
	S533.9,1432.3,482.5,1432.3z M482.5,30.8c-50.4,0-89.7,13.3-117.5,39.8c-27.8,26.5-49.1,68.1-63.3,123.7
	c-14.3,55.9-23.3,128.7-26.5,216.4c-3.3,87.6-4.8,194.8-4.8,318.8c0,122.9,1.7,229.8,4.8,317.8l0,0c3.2,88.4,12.2,161.7,26.5,217.4
	c14.2,55.6,35.5,97.2,63.3,123.7c27.8,26.5,67.3,39.6,117.5,39.6c50.4,0,89.7-13.3,117.5-39.6c27.8-26.3,49.1-68.1,63.3-123.7
	c14.3-55.9,23.3-129,26.5-217.4c3.3-88.7,4.8-195.8,4.8-317.8c0-128.7-1.7-239.1-4.8-327.7c-3.3-88.4-12.2-161.3-26.5-216.4
	c-14.2-54.9-35.5-94.9-63.1-118.7C572.6,42.8,532.9,30.8,482.5,30.8L482.5,30.8z"/>
<g>
	
		<linearGradient id="SVGID_00000078011023173484035240000002340986337297125308_" gradientUnits="userSpaceOnUse" x1="1119.6603" y1="8206.3271" x2="1119.6603" y2="9664.6279" gradientTransform="matrix(1 0 0 1 443.9459 -8206.3271)">
		<stop  offset="0" style="stop-color:#FFE900"/>
		<stop  offset="1" style="stop-color:#F38200"/>
	</linearGradient>
	<path style="fill:url(#SVGID_00000078011023173484035240000002340986337297125308_);" d="M2010.2,1458.3h-617v-55.4h1.8l168.7-4
		v-325.5h-553.6v-71.9l0.3-0.5L1677.7,0h161.7v1001.9h150.8c29.3,0,46.8-2.7,56.1-16.5c9.5-14.2,11.3-40.6,11.3-84.7v-51.6h59.4
		v390.8h-59.3v-75.4c-2-83.6-7.7-91.2-67.4-91.2h-150.8v325.5l170.7,4V1458.3z M1397,1454.3h609.2v-47.8l-170.7-4v-333.1h154.7
		c64.4,0,69.4,13.2,71.4,95.2v71.4h51.6V853.1h-51.6v47.6c0,92.4-8.7,105.1-71.4,105.1h-154.7V3.8h-155.7l-665.8,998.6v66.9h553.6
		v333.1h-1.8l-168.7,4v47.8H1397z M1567.7,1005.9h-479.8l479.8-726.7V1005.9z M1095.2,1001.9h468.7V292.2L1095.2,1001.9z"/>
</g>
</svg>
