<?xml version="1.0" encoding="utf-8"?>
<!-- Generator: Adobe Illustrator 26.0.2, SVG Export Plug-In . SVG Version: 6.00 Build 0)  -->
<svg version="1.1" id="レイヤー_1" xmlns="http://www.w3.org/2000/svg" xmlns:xlink="http://www.w3.org/1999/xlink" x="0px"
	 y="0px" viewBox="0 0 1473.7 2139.5" style="enable-background:new 0 0 1473.7 2139.5;" xml:space="preserve">
<style type="text/css">
	.st0{fill:url(#SVGID_1_);}
	.st1{fill:url(#SVGID_00000134229054476258508020000012418062104991972014_);}
</style>
<linearGradient id="SVGID_1_" gradientUnits="userSpaceOnUse" x1="-1639.615" y1="7440.686" x2="-1639.615" y2="8914.0498" gradientTransform="matrix(6.123234e-17 1 -1 6.123234e-17 8914.0498 2126.9502)">
	<stop  offset="0" style="stop-color:#FFE900"/>
	<stop  offset="1" style="stop-color:#F38200"/>
</linearGradient>
<path class="st0" d="M0,487.6c0-80.9,14.8-150.1,43.7-205.8c29.1-55.7,67.5-102.1,113.6-138c46.6-35.8,98.6-63.9,154.3-82.9
	c54.2-18.7,109.5-33,165.9-42.9c54-9.3,104.8-14.6,151.1-16c45.6-1.3,81.6-2,107.2-2c31.8,0,72.2,2,120.1,5.9l0,0
	c48.1,3.9,100.1,11.6,155,22.9c56.4,11.8,111.5,28.4,164.9,49.8c54.8,21.9,104.7,51.1,148.2,86.8s79.9,80.6,107.5,132.9
	c27.8,52.3,41.9,115.9,41.9,188.9c0,80.9-15.1,150.1-44.8,205.8c-29.8,55.7-68,102.1-113.6,138c-45.6,35.8-97.6,63.6-154.3,82.9
	c-56.7,19.2-113.4,33.6-167.9,42.7c-54.7,9.3-105.5,14.6-150.9,16s-81.1,2-106.2,2c-31.6,0-72-2-120.1-5.9
	c-48.1-3.9-100.4-11.8-155-22.9c-56-11.6-111-28.3-164-49.8c-53.5-21.4-103.5-50.6-148.2-86.8c-44.2-35.8-80.6-80.6-107.7-132.9
	C13.8,624.2,0,560.6,0,487.6z M1469.7,487.6c0-72.2-14-135.1-41.4-187.1c-27.4-52-63.3-96.2-106.5-131.6
	c-43.2-35.3-92.7-64.4-147.2-86.1c-53.2-21.4-108.2-38-164.4-49.6c-54.7-11.3-106.5-18.8-154.5-22.9l0,0
	c-47.8-3.9-88.2-5.9-119.8-5.9c-25.6,0-61.6,0.7-107,1.9C583,7.6,532.3,13,478.5,22c-53.8,9.3-109.4,23.6-165.4,42.7
	c-55.2,18.7-107,46.6-153.1,82.3c-45.8,35.3-83.6,81.4-112.6,136.6S4,407.5,4,487.6c0,72.2,13.6,135.1,40.5,187.1
	s62.8,96.1,106.5,131.6c44.6,36,94.1,64.9,147.2,86.1c52.8,21.5,107.5,38,163.4,49.6c54.5,11.1,106.3,18.8,154.5,22.9
	c48.1,4,88.5,5.9,119.8,5.9c25.1,0,60.7-0.7,106-2c45.3-1.3,95.9-6.7,150.4-15.8c54.3-9.3,110.7-23.6,167.2-42.7
	c56.4-19.2,107.8-46.8,153.1-82.3c45.3-35.5,83.1-81.4,112.6-136.6C1454.7,636.5,1469.7,567.8,1469.7,487.6L1469.7,487.6z
	 M26.2,487.6c0-52,13.8-92.9,41.2-121.5c27.3-28.6,70-50.5,126.9-65.1c56.7-14.6,131.1-23.6,220.6-26.8l0,0
	c89.2-3.4,197.2-4.9,321.5-4.9c125.5,0,233.9,1.7,322.4,4.9c89,3.4,162.9,12.3,219.6,26.8c57,14.6,99.6,36.5,126.9,65.1
	c27.3,28.8,41.2,69.7,41.2,121.5c0,52-12.6,92.7-37.2,121.5c-24.7,28.6-65.6,50.6-122,65.1c-56,14.6-130.1,23.6-219.7,26.9
	c-89.7,3.4-201.2,4.9-331.5,4.9c-123.5,0-231.7-1.7-321.5-4.9c-89.7-3.2-163.9-12.3-220.6-26.9c-57-14.6-99.6-36.5-126.9-65.1
	C39.9,580.5,26.2,539.6,26.2,487.6z M1442.6,487.6c0-51-13.5-90.7-40.2-118.8c-26.8-28.1-68.8-49.6-125-63.9
	c-56.5-14.5-130.1-23.6-218.7-26.8c-88.5-3.4-196.9-4.9-322.2-4.9c-124.2,0-232.2,1.7-321.2,4.9l0,0
	c-89.3,3.2-163.4,12.3-219.7,26.8c-56.2,14.3-98.3,35.8-125,63.9c-26.8,28.1-40,68-40,118.8c0,51,13.5,90.7,40,118.8
	c26.6,28.1,68.8,49.6,125,63.9c56.5,14.5,130.4,23.6,219.7,26.8c89.7,3.4,197.9,4.9,321.2,4.9c130.1,0,241.6-1.7,331.1-4.9
	c89.3-3.4,163-12.3,218.7-26.8c55.5-14.3,95.9-35.8,120-63.8C1430.5,578.6,1442.6,538.6,1442.6,487.6L1442.6,487.6z"/>
<g>
	
		<linearGradient id="SVGID_00000088115369208575496840000003917320368886985108_" gradientUnits="userSpaceOnUse" x1="-546.8326" y1="7440.3501" x2="-546.8326" y2="8914.0498" gradientTransform="matrix(6.123234e-17 1 -1 6.123234e-17 8914.0498 2126.9502)">
		<stop  offset="0" style="stop-color:#FFE900"/>
		<stop  offset="1" style="stop-color:#F38200"/>
	</linearGradient>
	<path style="fill:url(#SVGID_00000088115369208575496840000003917320368886985108_);" d="M0,2031.4v-623.5h56v1.9l4,170.4H389
		v-559.4h72.7l0.5,0.3l1011.5,674.3v163.4H461.2v152.4c0,29.6,2.7,47.3,16.7,56.7c14.3,9.6,41.1,11.4,85.6,11.4h52.2v60.1H220.7
		v-59.9H297c84.5-2,92.2-7.7,92.2-68.1V1859H60.2l-4,172.5H0z M4,1411.8v615.6h48.3l4-172.5H393v156.3c0,65.1-13.3,70.2-96.2,72.2
		h-72.2v52.2h387v-52.2h-48.1c-93.4,0-106.2-8.7-106.2-72.2V1855h1012.5v-157.3L460.7,1024.8H393v559.4H56.4v-1.9l-4-170.4H4V1411.8
		z M457.1,1584.2v-484.9l734.4,484.9H457.1z M461.2,1106.7v473.6h717.2L461.2,1106.7z"/>
</g>
</svg>
