<?xml version="1.0" encoding="utf-8"?>
<!-- Generator: Adobe Illustrator 26.0.2, SVG Export Plug-In . SVG Version: 6.00 Build 0)  -->
<svg version="1.1" id="レイヤー_1" xmlns="http://www.w3.org/2000/svg" xmlns:xlink="http://www.w3.org/1999/xlink" x="0px"
	 y="0px" viewBox="0 0 1909.8 1458.3" style="enable-background:new 0 0 1909.8 1458.3;" xml:space="preserve">
<style type="text/css">
	.st0{fill:url(#SVGID_1_);}
	.st1{fill:url(#SVGID_00000038413059653410405670000012367109389689923995_);}
</style>
<linearGradient id="SVGID_1_" gradientUnits="userSpaceOnUse" x1="-1538.318" y1="7335.9951" x2="-1538.318" y2="8793.96" gradientTransform="matrix(1 0 0 1 2020.5601 -7335.6602)">
	<stop  offset="0" style="stop-color:#FFE900"/>
	<stop  offset="1" style="stop-color:#F38200"/>
</linearGradient>
<path class="st0" d="M482.5,1458.3c-80.1,0-148.5-14.7-203.6-43.3c-55.1-28.8-101.1-66.8-136.5-112.4
	c-35.5-46.1-63.3-97.6-82.1-152.7c-18.5-53.6-32.6-108.4-42.5-164.2C8.7,932.4,3.3,882.1,2,836.3c-1.3-45.1-2-80.7-2-106.1
	c0-31.5,2-71.4,5.8-118.9l0,0c3.8-47.6,11.5-99.1,22.6-153.3c11.7-55.8,28.1-110.4,49.3-163.2c21.6-54.3,50.6-103.6,85.9-146.7
	s79.7-79.1,131.5-106.4C347,14.3,409.9,0.3,482.2,0.3c80.1,0,148.5,15,203.6,44.3c55.1,29.5,101.1,67.3,136.5,112.4
	c35.5,45.1,62.9,96.6,82.1,152.7c19,56.1,33.3,112.2,42.3,166.2c9.2,54.1,14.5,104.4,15.8,149.3c1.3,45,2,80.2,2,105.1
	c0,31.3-2,71.3-5.8,118.9c-3.8,47.6-11.7,99.4-22.6,153.3c-11.5,55.4-28,109.9-49.3,162.3c-21.1,52.9-50.1,102.4-85.9,146.7
	c-35.5,43.8-79.7,79.7-131.5,106.6C617.7,1444.6,554.7,1458.3,482.5,1458.3z M482.5,4c-71.4,0-133.7,13.8-185.1,41
	c-51.4,27.1-95.2,62.6-130.2,105.4c-35,42.8-63.8,91.7-85.2,145.7c-21.1,52.6-37.6,107.1-49.1,162.7
	c-11.2,54.1-18.6,105.4-22.6,152.8l0,0c-3.8,47.3-5.8,87.2-5.8,118.5C4.3,755.4,5,791,6.2,836c1.3,45.5,6.7,95.6,15.7,148.8
	c9.2,53.3,23.3,108.2,42.3,163.7c18.5,54.6,46.1,105.9,81.4,151.5c35,45.3,80.6,82.7,135.2,111.4c54.6,28.6,122.5,43,201.8,43
	c71.4,0,133.7-13.5,185.1-40.1c51.4-26.6,95.1-62.1,130.2-105.4c35.6-44.1,64.3-93.1,85.2-145.7c21.3-52.3,37.6-106.4,49.1-161.7
	c11-53.9,18.6-105.2,22.6-152.8c4-47.6,5.8-87.6,5.8-118.5c0-24.8-0.7-60.1-2-104.9S952,530.3,943,476.3
	c-9.2-53.8-23.3-109.6-42.3-165.5c-19-55.8-46.3-106.7-81.4-151.5C784.2,114.5,738.7,77.1,684.1,48C629.8,18.8,561.9,4,482.5,4
	L482.5,4z M482.5,1432.3c-51.4,0-91.9-13.7-120.2-40.8c-28.3-27-49.9-69.3-64.4-125.5c-14.5-56.1-23.3-129.7-26.5-218.3l0,0
	c-3.3-88.2-4.8-195.1-4.8-318.2c0-124.2,1.7-231.4,4.8-319c3.3-88.1,12.2-161.2,26.5-217.3c14.5-56.4,36.1-98.6,64.4-125.5
	c28.5-27,68.9-40.8,120.2-40.8c51.4,0,91.7,12.5,120.2,36.8c28.3,24.5,50.1,64.9,64.4,120.7c14.5,55.4,23.3,128.7,26.6,217.4
	c3.3,88.7,4.8,199.1,4.8,328c0,122.2-1.7,229.3-4.8,318.2c-3.2,88.7-12.2,162.2-26.6,218.3c-14.5,56.4-36.1,98.6-64.4,125.5
	C574.4,1418.8,533.9,1432.3,482.5,1432.3z M482.5,30.6c-50.4,0-89.7,13.3-117.5,39.8c-27.8,26.5-49.1,68.1-63.3,123.7
	c-14.3,55.9-23.3,128.7-26.5,216.4c-3.3,87.6-4.8,194.8-4.8,318.8c0,122.9,1.7,229.8,4.8,317.8l0,0c3.2,88.4,12.2,161.7,26.5,217.4
	c14.2,55.6,35.5,97.2,63.3,123.7c27.8,26.5,67.3,39.6,117.5,39.6c50.4,0,89.7-13.3,117.5-39.6c27.8-26.3,49.1-68.1,63.3-123.7
	c14.3-55.9,23.3-129,26.5-217.4c3.3-88.7,4.8-195.8,4.8-317.8c0-128.7-1.7-239.1-4.8-327.7c-3.3-88.4-12.2-161.3-26.5-216.4
	c-14.2-54.9-35.5-94.9-63.1-118.7C572.6,42.6,532.9,30.6,482.5,30.6L482.5,30.6z"/>
<g>
	
		<linearGradient id="SVGID_00000009567970993495587090000011158081161401966257_" gradientUnits="userSpaceOnUse" x1="-563.8445" y1="7335.6602" x2="-563.8445" y2="8793.96" gradientTransform="matrix(1 0 0 1 2020.5601 -7335.6602)">
		<stop  offset="0" style="stop-color:#FFE900"/>
		<stop  offset="1" style="stop-color:#F38200"/>
	</linearGradient>
	<path style="fill:url(#SVGID_00000009567970993495587090000011158081161401966257_);" d="M1380.5,1458.3
		c-120.5,0-214.8-31.3-280.2-92.9c-61.4-57.6-96.7-135.7-96.7-214.3c0-41.1,11.8-76.1,34.1-101.1c22.3-25.1,53.6-38.3,90.2-38.3
		c66.6,0,113,44.1,113,107.4c0,42.3-17.5,74.9-53.6,99.6c-34.5,26.8-40.6,35.6-40.6,58.8c0,34,21.1,65.6,59.6,89.4
		c38.6,23.8,90.4,37,145.7,37c82.4,0,152.7-35,202.8-101.1c51.1-67.3,78.1-162.7,78.1-275.9c0-104.6-28.6-201.3-80.7-272.5
		c-52.6-72.1-125-111.9-204-111.9c-73.1,0-152.2,32.3-211.8,86.2l-0.8,0.8l-43.8-16l37.8-649.5h585.9c61.8,0,73.8-8.8,84.9-62.6
		l0.3-1.5h45l-0.2,2c-7,82.6-19.8,157.5-34,200.1c-21.3,57.9-59.8,78.6-146.8,78.6h-482.5l-24.1,364.1
		c78.8-44.5,149.3-62.6,242.9-62.6c294.9,0,508.8,181.5,508.8,431.5c0,63.6-13.3,123.9-39.5,179c-25.5,53.6-62.4,100.9-109.9,140.7
		c-47.5,39.8-103.7,70.8-167.7,92.1C1527.6,1447.1,1456.1,1458.3,1380.5,1458.3z M1128,1015.4c-35.6,0-65.8,12.8-87.4,37.1
		c-21.8,24.3-33.3,58.4-33.3,98.6c0,77.6,34.8,154.7,95.6,211.6c64.6,60.9,158,91.9,277.7,91.9c75.3,0,146.3-11,211.4-32.8
		c63.4-21.1,119.4-51.9,166.3-91.4c47-39.5,83.7-86.4,108.9-139.5c26-54.6,39.1-114.2,39.1-177.3c0-247.9-212.4-427.7-505-427.7
		c-95.2,0-163.7,17.8-244.1,63.8l-3,1.7l24.8-374.4h486c85.2,0,122.7-20,143.3-76.1c14-42.1,26.6-115.7,33.6-197.3h-38
		c-11.3,53.9-25.8,64.1-88.2,64.1h-582.4L1096,710.8l39.1,14.2c60.1-54.1,139.9-86.4,213.4-86.4c80.1,0,153.5,40.3,206.9,113.4
		c52.4,71.9,81.4,169.5,81.4,274.7c0,114-27.3,210.3-78.8,278.2c-50.9,67.1-122,102.6-205.8,102.6c-56.1,0-108.6-13.3-147.7-37.5
		c-39.6-24.5-61.4-57.3-61.4-92.6c0-25.5,8.5-35.6,42.1-61.8c35.1-24,52.1-55.6,52.1-96.6c0-30-10.5-55.9-30.3-74.8
		C1187.1,1025.4,1159.8,1015.4,1128,1015.4z"/>
</g>
</svg>
