<?xml version="1.0" encoding="utf-8"?>
<!-- Generator: Adobe Illustrator 26.0.2, SVG Export Plug-In . SVG Version: 6.00 Build 0)  -->
<svg version="1.1" id="レイヤー_1" xmlns="http://www.w3.org/2000/svg" xmlns:xlink="http://www.w3.org/1999/xlink" x="0px"
	 y="0px" viewBox="0 0 1473.7 1946.8" style="enable-background:new 0 0 1473.7 1946.8;" xml:space="preserve">
<style type="text/css">
	.st0{fill:url(#SVGID_1_);}
	.st1{fill:url(#SVGID_00000036242326418511397270000011809008512950790291_);}
</style>
<linearGradient id="SVGID_1_" gradientUnits="userSpaceOnUse" x1="-1639.6157" y1="7440.6885" x2="-1639.6157" y2="8914.0498" gradientTransform="matrix(6.123234e-17 1 -1 6.123234e-17 8914.0498 2126.9502)">
	<stop  offset="0" style="stop-color:#FFE900"/>
	<stop  offset="1" style="stop-color:#F38200"/>
</linearGradient>
<path class="st0" d="M0,487.6c0-80.9,14.8-150.1,43.7-205.8c29.1-55.7,67.5-102.1,113.6-138c46.6-35.8,98.6-63.9,154.3-82.9
	c54.2-18.7,109.5-33,165.9-42.9c54-9.3,104.8-14.6,151.1-16c45.6-1.3,81.6-2,107.2-2c31.8,0,72.2,2,120.1,5.9l0,0
	c48.1,3.9,100.1,11.6,155,22.9c56.4,11.8,111.5,28.4,164.9,49.8c54.8,21.9,104.7,51.1,148.2,86.8c43.6,35.7,79.9,80.6,107.5,132.9
	c27.8,52.3,41.9,115.9,41.9,188.9c0,80.9-15.1,150.1-44.8,205.8c-29.8,55.7-68,102.1-113.6,138c-45.6,35.8-97.6,63.6-154.3,82.9
	c-56.7,19.2-113.4,33.6-167.9,42.7c-54.7,9.3-105.5,14.6-150.9,16s-81.1,2-106.2,2c-31.6,0-72-2-120.1-5.9
	c-48.1-3.9-100.4-11.8-155-22.9c-56-11.6-111-28.3-164-49.8c-53.5-21.4-103.5-50.6-148.2-86.8c-44.2-35.8-80.6-80.6-107.7-132.9
	C13.8,624.2,0,560.6,0,487.6z M1469.7,487.6c0-72.2-14-135.1-41.4-187.1c-27.4-52-63.3-96.2-106.5-131.6
	c-43.2-35.3-92.7-64.4-147.2-86.1c-53.2-21.4-108.2-38-164.4-49.6c-54.7-11.3-106.5-18.8-154.5-22.9l0,0
	c-47.8-3.9-88.2-5.9-119.8-5.9c-25.6,0-61.6,0.7-107,1.9C583,7.6,532.3,13,478.5,22c-53.8,9.3-109.4,23.6-165.4,42.7
	c-55.2,18.7-107,46.6-153.1,82.3c-45.8,35.3-83.6,81.4-112.6,136.6S4,407.5,4,487.6c0,72.2,13.6,135.1,40.5,187.1
	c26.9,52,62.8,96.1,106.5,131.6c44.6,36,94.1,64.9,147.2,86.1c52.8,21.5,107.5,38,163.4,49.6c54.5,11.1,106.3,18.8,154.5,22.9
	c48.1,4,88.5,5.9,119.8,5.9c25.1,0,60.7-0.7,106-2c45.3-1.3,95.9-6.7,150.4-15.8c54.3-9.3,110.7-23.6,167.2-42.7
	c56.4-19.2,107.8-46.8,153.1-82.3c45.3-35.5,83.1-81.4,112.6-136.6C1454.7,636.5,1469.7,567.8,1469.7,487.6L1469.7,487.6z
	 M26.2,487.6c0-52,13.8-92.9,41.2-121.5c27.3-28.6,70-50.5,126.9-65.1c56.7-14.6,131.1-23.6,220.6-26.8l0,0
	c89.2-3.4,197.2-4.9,321.5-4.9c125.5,0,233.9,1.7,322.4,4.9c89,3.4,162.9,12.3,219.6,26.8c57,14.6,99.6,36.5,126.9,65.1
	c27.3,28.8,41.2,69.7,41.2,121.5c0,52-12.6,92.7-37.2,121.5c-24.7,28.6-65.6,50.6-122,65.1c-56,14.6-130.1,23.6-219.7,26.9
	c-89.7,3.4-201.2,4.9-331.5,4.9c-123.5,0-231.7-1.7-321.5-4.9c-89.7-3.2-163.9-12.3-220.6-26.9c-57-14.6-99.6-36.5-126.9-65.1
	S26.2,539.6,26.2,487.6z M1442.7,487.6c0-51-13.5-90.7-40.2-118.8c-26.8-28.1-68.8-49.6-125-63.9c-56.5-14.5-130.1-23.6-218.7-26.8
	c-88.5-3.4-196.9-4.9-322.2-4.9c-124.2,0-232.2,1.7-321.2,4.9l0,0c-89.3,3.2-163.4,12.3-219.7,26.8c-56.2,14.3-98.3,35.8-125,63.9
	c-26.8,28.1-40,68-40,118.8c0,51,13.5,90.7,40,118.8c26.6,28.1,68.8,49.6,125,63.9c56.5,14.5,130.4,23.6,219.7,26.8
	c89.7,3.4,197.9,4.9,321.2,4.9c130.1,0,241.6-1.7,331.1-4.9c89.3-3.4,163-12.3,218.7-26.8c55.5-14.3,95.9-35.8,120-63.8
	C1430.6,578.6,1442.7,538.6,1442.7,487.6L1442.7,487.6z"/>
<g>
	
		<linearGradient id="SVGID_00000121270965217477111020000007389524854253221008_" gradientUnits="userSpaceOnUse" x1="-638.0269" y1="7440.3501" x2="-638.0269" y2="8914.0498" gradientTransform="matrix(6.123234e-17 1 -1 6.123234e-17 8914.0498 2126.9502)">
		<stop  offset="0" style="stop-color:#FFE900"/>
		<stop  offset="1" style="stop-color:#F38200"/>
	</linearGradient>
	<path style="fill:url(#SVGID_00000121270965217477111020000007389524854253221008_);" d="M0,1411.9c0-121.8,31.6-217,93.9-283.2
		c58.2-62.1,137.1-97.8,216.5-97.8c41.6,0,76.9,11.9,102.1,34.5c25.4,22.5,38.7,54.2,38.7,91.2c0,67.3-44.6,114.2-108.5,114.2
		c-42.7,0-75.7-17.7-100.6-54.2c-27.1-34.8-36-41.1-59.4-41.1c-34.3,0-66.3,21.4-90.4,60.2c-24.1,39-37.4,91.4-37.4,147.2
		c0,83.3,35.3,154.3,102.1,204.9c68,51.7,164.4,78.9,278.8,78.9c105.7,0,203.4-28.9,275.4-81.6c72.9-53.2,113.1-126.4,113.1-206.1
		c0-73.9-32.6-153.8-87.2-214l-0.8-0.8l16.2-44.2l656.3,38.2v592.1c0,62.4,8.9,74.5,63.3,85.8l1.5,0.3v45.4l-2-0.2
		c-83.5-7.1-159.2-20-202.2-34.3c-58.6-21.5-79.4-60.4-79.4-148.4v-487.6l-368-24.4c44.9,79.6,63.3,150.9,63.3,245.5
		c0,298-183.4,514.2-436.1,514.2c-64.3,0-125.2-13.5-180.9-39.9c-54.2-25.7-102-63.1-142.2-111c-40.2-48-71.5-104.8-93-169.4
		C11.3,1560.5,0,1488.3,0,1411.9z M447.5,1156.7c0-36-13-66.5-37.5-88.3c-24.6-22-59.1-33.6-99.6-33.6
		c-78.4,0-156.3,35.2-213.8,96.6C35,1196.6,3.7,1291,3.7,1411.9c0,76,11.1,147.9,33.1,213.7c21.4,64.1,52.5,120.6,92.4,168.1
		c39.9,47.4,87.3,84.6,141,110c55.2,26.2,115.4,39.5,179.2,39.5c250.5,0,432.2-214.7,432.2-510.3c0-96.2-18-165.4-64.4-246.7l-1.7-3
		l378.4,25.1v491.1c0,86.1,20.2,124,76.9,144.9c42.6,14.1,116.9,26.9,199.4,34V1840c-54.5-11.4-64.8-26.1-64.8-89.2v-588.5
		l-649.9-37.9l-14.3,39.5c54.7,60.7,87.3,141.3,87.3,215.7c0,80.9-40.7,155.1-114.6,209.1c-72.7,53-171.3,82.3-277.6,82.3
		c-115.3,0-212.5-27.6-281.1-79.6c-67.8-51.5-103.6-123.3-103.6-208c0-56.7,13.5-109.7,37.9-149.2c24.7-40,57.9-62.1,93.5-62.1
		c25.7,0,36,8.6,62.4,42.6c24.2,35.5,56.2,52.7,97.6,52.7c30.3,0,56.5-10.6,75.5-30.6C437.4,1216.4,447.5,1188.9,447.5,1156.7z"/>
</g>
</svg>
