<?xml version="1.0" encoding="utf-8"?>
<!-- Generator: Adobe Illustrator 26.0.2, SVG Export Plug-In . SVG Version: 6.00 Build 0)  -->
<svg version="1.1" id="レイヤー_1" xmlns="http://www.w3.org/2000/svg" xmlns:xlink="http://www.w3.org/1999/xlink" x="0px"
	 y="0px" viewBox="0 0 2024 1458.3" style="enable-background:new 0 0 2024 1458.3;" xml:space="preserve">
<style type="text/css">
	.st0{fill:url(#SVGID_1_);}
	.st1{fill:url(#SVGID_00000101810647288979734540000006630203341075427209_);}
</style>
<linearGradient id="SVGID_1_" gradientUnits="userSpaceOnUse" x1="571.5687" y1="5428.3066" x2="571.5687" y2="6886.2759" gradientTransform="matrix(1 0 0 1 -89.3254 -5427.9756)">
	<stop  offset="0" style="stop-color:#FFE900"/>
	<stop  offset="1" style="stop-color:#F38200"/>
</linearGradient>
<path class="st0" d="M482.5,1458.3c-80.1,0-148.5-14.7-203.6-43.3c-55.1-28.8-101.1-66.8-136.5-112.4
	c-35.5-46.1-63.3-97.6-82.1-152.7c-18.5-53.6-32.6-108.4-42.5-164.2C8.7,932.4,3.3,882.1,2,836.3c-1.3-45.1-2-80.7-2-106.1
	c0-31.5,2-71.4,5.8-118.9l0,0c3.8-47.6,11.5-99.1,22.6-153.3c11.7-55.8,28.1-110.4,49.3-163.2c21.6-54.3,50.6-103.6,85.9-146.7
	s79.7-79.1,131.5-106.4C347,14.3,409.9,0.3,482.2,0.3c80.1,0,148.5,15,203.6,44.3c55.1,29.5,101.1,67.3,136.5,112.4
	s62.9,96.6,82.1,152.7c19,56.1,33.3,112.2,42.3,166.2c9.2,54.1,14.5,104.4,15.8,149.3c1.3,45,2,80.2,2,105.1
	c0,31.3-2,71.3-5.8,118.9c-3.8,47.6-11.7,99.4-22.6,153.3c-11.5,55.4-28,109.9-49.3,162.3c-21.1,52.9-50.1,102.4-85.9,146.7
	c-35.5,43.8-79.7,79.7-131.5,106.6C617.7,1444.6,554.8,1458.3,482.5,1458.3z M482.5,4c-71.4,0-133.7,13.8-185.1,41
	c-51.4,27.1-95.2,62.6-130.2,105.4S103.4,242.1,81.9,296c-21.1,52.6-37.6,107.1-49.1,162.7c-11.2,54.1-18.6,105.4-22.6,152.8l0,0
	c-3.8,47.3-5.8,87.2-5.8,118.5C4.3,755.4,5,791,6.2,836c1.3,45.5,6.7,95.6,15.7,148.8c9.2,53.3,23.3,108.2,42.3,163.7
	c18.5,54.6,46.1,105.9,81.4,151.5c35,45.3,80.6,82.7,135.2,111.4s122.5,43,201.8,43c71.4,0,133.7-13.5,185.1-40.1
	s95.1-62.1,130.2-105.4c35.6-44.1,64.3-93.1,85.2-145.7c21.3-52.3,37.6-106.4,49.1-161.7c11-53.9,18.6-105.2,22.6-152.8
	c4-47.6,5.8-87.6,5.8-118.5c0-24.8-0.7-60.1-2-104.9c-1.3-44.8-6.7-94.9-15.7-148.8c-9.2-53.8-23.3-109.6-42.3-165.5
	c-19-55.8-46.3-106.7-81.4-151.5c-35.1-44.8-80.6-82.2-135.2-111.4C629.8,18.8,561.9,4,482.5,4L482.5,4z M482.5,1432.3
	c-51.4,0-91.9-13.7-120.2-40.8c-28.3-27-49.9-69.3-64.4-125.5c-14.5-56.1-23.3-129.7-26.5-218.3l0,0c-3.3-88.2-4.8-195.1-4.8-318.2
	c0-124.2,1.7-231.4,4.8-319c3.3-88.1,12.2-161.2,26.5-217.3c14.5-56.4,36.1-98.6,64.4-125.5c28.5-27,68.9-40.8,120.2-40.8
	c51.4,0,91.7,12.5,120.2,36.8c28.3,24.5,50.1,64.9,64.4,120.7c14.5,55.4,23.3,128.7,26.6,217.4s4.8,199.1,4.8,328
	c0,122.2-1.7,229.3-4.8,318.2c-3.2,88.7-12.2,162.2-26.6,218.3c-14.5,56.4-36.1,98.6-64.4,125.5
	C574.6,1418.7,533.9,1432.3,482.5,1432.3z M482.5,30.8c-50.4,0-89.7,13.3-117.5,39.8s-49.1,68.1-63.3,123.7
	c-14.3,55.9-23.3,128.7-26.5,216.4c-3.3,87.6-4.8,194.8-4.8,318.8c0,122.9,1.7,229.8,4.8,317.8l0,0c3.2,88.4,12.2,161.7,26.5,217.4
	c14.2,55.6,35.5,97.2,63.3,123.7s67.3,39.6,117.5,39.6c50.4,0,89.7-13.3,117.5-39.6c27.8-26.3,49.1-68.1,63.3-123.7
	c14.3-55.9,23.3-129,26.5-217.4c3.3-88.7,4.8-195.8,4.8-317.8c0-128.7-1.7-239.1-4.8-327.7c-3.3-88.4-12.2-161.3-26.5-216.4
	c-14.2-54.9-35.5-94.9-63.1-118.7C572.6,42.8,532.9,30.8,482.5,30.8L482.5,30.8z"/>
<g>
	
		<linearGradient id="SVGID_00000013161609082082119670000010634102856962314428_" gradientUnits="userSpaceOnUse" x1="1628.8746" y1="5427.9751" x2="1628.8746" y2="6886.2759" gradientTransform="matrix(1 0 0 1 -89.3254 -5427.9756)">
		<stop  offset="0" style="stop-color:#FFE900"/>
		<stop  offset="1" style="stop-color:#F38200"/>
	</linearGradient>
	<path style="fill:url(#SVGID_00000013161609082082119670000010634102856962314428_);" d="M1553.5,1458.3
		c-69.3,0-135.2-13.7-196.1-40.5c-60.9-26.8-114.2-66.9-158.7-119.2c-44.5-52.3-79.9-117.5-105.4-194
		c-25.5-76.4-38.3-164.8-38.3-262.7c0-111.1,16.1-218.4,48.1-319.5c32-101.2,76.3-191.5,131.7-268.6
		c55.4-76.9,122.4-139.2,198.8-185C1510.2,23.1,1594,0,1682.9,0c35.1,0,70.4,4.3,104.6,12.8c34.1,8.5,65.1,21.8,91.9,39.5
		c26.8,17.6,48.8,40.3,65.4,67.4c16.5,27,24.8,60.1,24.8,98.2c0,78.1-40.3,117.7-119.7,117.7c-46.1,0-77.6-8.2-93.6-24.1
		c-16-16-24.1-37.6-24.1-64.1c0-23.8,5.7-48.1,16.8-72.4c11-24,16.5-45.1,16.5-62.9c0-3.8-1-10.2-3-19.1c-1.8-8.8-5.8-18-11.5-26.8
		c-5.7-8.8-14.8-16.8-26.8-23.8c-12.2-7-29.3-10.5-51.1-10.5c-46.5,0-87.4,11.2-121.7,33.1c-34.3,22-64.3,51.3-88.7,86.7
		c-24.6,35.6-45.3,77.4-61.6,124.2c-16.3,47-30.1,95.4-41.1,144c-11,48.4-19.6,97.4-25.5,145c-5.8,47.6-10.8,91.2-14.7,129.5
		l1.7,1.7c8.8-11.2,19.1-24.1,31.1-38.6c12.5-15.2,28.8-29.5,48.4-42.6c19.6-13.2,44-24.1,72.1-32.6c28.3-8.5,62.4-12.8,101.6-12.8
		c60.1,0,117.9,11.7,171.5,34.5c53.6,22.8,101.7,54.8,142.8,94.6c41.1,40,74.3,87.2,98.6,140.9c24.1,53.6,36.5,112,36.5,173.5
		c0,61.4-13.7,119.9-40.5,173.7c-26.8,53.6-62.6,101.4-106.4,141.9c-43.8,40.6-94.6,72.8-150.7,95.6
		C1670.6,1446.6,1612.3,1458.3,1553.5,1458.3z M1683.1,3.8c-88.2,0-171.3,23-247.2,68.4c-75.9,45.5-142.5,107.4-197.6,184
		c-55.3,76.6-99.4,166.7-131.2,267.4l0,0c-31.8,100.7-47.9,207.8-47.9,318.3c0,97.4,12.8,185.5,38.1,261.4
		c25.3,76.1,60.6,140.9,104.7,192.6c44.1,51.9,97.1,91.7,157.3,118.2c60.3,26.6,125.9,40.1,194.5,40.1c58.3,0,116.2-11.5,172-34.1
		s106.1-54.6,149.5-94.7c43.5-40.1,78.9-87.6,105.6-140.9c26.5-53.1,40-111.1,40-171.8c0-60.9-12.2-118.7-36.1-172
		c-24-53.1-56.9-100.2-97.7-139.7c-41-39.6-88.6-71.1-141.7-93.7c-53.3-22.6-110.4-34.3-170-34.3c-38.8,0-72.6,4.3-100.6,12.7
		c-27.8,8.5-51.8,19.3-71.1,32.1c-19.3,13-35.5,27-47.6,41.8c-12.5,15.2-23.3,28.6-32.3,40.1l-1.3,1.7l-6.2-6.2l0.2-0.8
		c3.8-38.6,8.8-82.4,14.7-130.5c6-47.8,14.5-96.7,25.6-145.5c11-48.8,25-97.4,41.3-144.5c16.3-47,37.3-89.1,62.1-125
		c24.8-36,55.1-65.6,89.9-87.9s76.4-33.6,123.7-33.6c22.5,0,40.3,3.7,52.9,11.2c12.7,7.3,22.1,15.8,28.1,25.1c6,9.3,10,18.8,12,28.1
		s3,16,3,20c0,18.5-5.7,40.1-16.8,64.6c-11,23.8-16.5,47.6-16.5,70.8c0,25.5,7.7,46.1,23,61.4c15.3,15.3,45.8,23,90.9,23
		c38.5,0,67.8-9.5,86.9-28.3c19.1-18.8,28.8-47.6,28.8-85.4c0-37.5-8.2-69.8-24.3-96.2c-16.1-26.5-37.8-48.8-64.3-66.1
		c-26.5-17.5-56.9-30.5-90.7-39C1752.7,8.2,1717.9,3.8,1683.1,3.8z M1545.5,1432.8c-23.6,0-49.3-3.7-76.1-10.8
		c-27.1-7.3-52.6-27.3-75.6-59.6c-23-32.1-42.3-82.6-57.3-149.8c-15-67.1-22.6-161.3-22.6-280c0-39.1,1-72.1,3-98.2
		s5.3-48.4,9.8-66.1c4.7-17.8,10.3-32.8,16.8-44.6c6.5-11.8,14.5-23.8,23.6-35.6c30.1-39.5,63.9-64.8,100.1-75.3
		c36-10.5,67.6-15.8,93.7-15.8c72.4,0,124.2,32.5,153.8,96.4l0,0c29.5,63.4,44.3,159.2,44.3,284.4c0,104.2-5.7,187.6-16.6,247.7
		c-11.2,60.1-26.5,106.2-45.5,137c-19.1,31-42,50.8-67.8,58.8C1604,1428.8,1575.7,1432.8,1545.5,1432.8z M1561.4,600.5
		c-25.8,0-57.1,5.3-92.7,15.7c-35.5,10.3-68.4,35.1-98.1,73.9c-9.2,11.7-17,23.5-23.5,35.1c-6.5,11.5-12,26.3-16.5,43.8
		c-4.5,17.5-7.8,39.5-9.8,65.4c-2,26-3,58.9-3,98.1c0,118.4,7.7,212.4,22.5,279.2c14.8,66.8,34,116.7,56.6,148.5
		c22.5,31.5,47.3,51.1,73.6,58.1c26.5,7.2,51.8,10.7,75.1,10.7c29.8,0,57.6-4,82.9-11.7c25-7.7,47-26.8,65.6-57.1
		c18.8-30.5,33.8-76.1,45-135.7c11-59.9,16.6-143,16.6-246.9c0-124.7-14.8-219.9-44-282.9l0,0
		C1682.7,632.2,1632.1,600.5,1561.4,600.5z"/>
</g>
</svg>
