<?xml version="1.0" encoding="utf-8"?>
<!-- Generator: Adobe Illustrator 26.0.2, SVG Export Plug-In . SVG Version: 6.00 Build 0)  -->
<svg version="1.1" id="レイヤー_1" xmlns="http://www.w3.org/2000/svg" xmlns:xlink="http://www.w3.org/1999/xlink" x="0px"
	 y="0px" viewBox="0 0 1473.7 2025.5" style="enable-background:new 0 0 1473.7 2025.5;" xml:space="preserve">
<style type="text/css">
	.st0{fill:url(#SVGID_1_);}
	.st1{fill:url(#SVGID_00000106858550650279774450000007512364934367085969_);}
</style>
<linearGradient id="SVGID_1_" gradientUnits="userSpaceOnUse" x1="-1639.6147" y1="7440.6851" x2="-1639.6147" y2="8914.0498" gradientTransform="matrix(6.123234e-17 1 -1 6.123234e-17 8914.0498 2126.9502)">
	<stop  offset="0" style="stop-color:#FFE900"/>
	<stop  offset="1" style="stop-color:#F38200"/>
</linearGradient>
<path class="st0" d="M0,487.6c0-80.9,14.8-150.1,43.7-205.8c29.1-55.7,67.5-102.1,113.6-138c46.6-35.8,98.6-63.9,154.3-82.9
	c54.2-18.7,109.5-33,165.9-42.9c54-9.3,104.8-14.6,151.1-16c45.6-1.3,81.6-2,107.2-2c31.8,0,72.2,2,120.1,5.9l0,0
	c48.1,3.9,100.1,11.6,155,22.9c56.4,11.8,111.5,28.4,164.9,49.8c54.8,21.9,104.7,51.1,148.2,86.8c43.6,35.7,79.9,80.6,107.5,132.9
	c27.8,52.3,41.9,115.9,41.9,188.9c0,80.9-15.1,150.1-44.8,205.8c-29.8,55.7-68,102.1-113.6,138c-45.6,35.8-97.6,63.6-154.3,82.9
	c-56.7,19.2-113.4,33.6-167.9,42.7c-54.7,9.3-105.5,14.6-150.9,16c-45.4,1.3-81.1,2-106.2,2c-31.6,0-72-2-120.1-5.9
	s-100.4-11.8-155-22.9c-56-11.6-111-28.3-164-49.8c-53.5-21.4-103.5-50.6-148.2-86.8c-44.2-35.8-80.6-80.6-107.7-132.9
	C13.8,624.2,0,560.6,0,487.6z M1469.7,487.6c0-72.2-14-135.1-41.4-187.1c-27.4-52-63.3-96.2-106.5-131.6
	c-43.2-35.3-92.7-64.4-147.2-86.1c-53.2-21.4-108.2-38-164.4-49.6c-54.7-11.3-106.5-18.8-154.5-22.9l0,0
	c-47.8-3.9-88.2-5.9-119.8-5.9c-25.6,0-61.6,0.7-107,1.9C583,7.6,532.3,13,478.5,22c-53.8,9.3-109.4,23.6-165.4,42.7
	c-55.2,18.7-107,46.6-153.1,82.3c-45.8,35.3-83.6,81.4-112.6,136.6S4,407.5,4,487.6c0,72.2,13.6,135.1,40.5,187.1
	c26.9,52,62.8,96.1,106.5,131.6c44.6,36,94.1,64.9,147.2,86.1c52.8,21.5,107.5,38,163.4,49.6c54.5,11.1,106.3,18.8,154.5,22.9
	c48.1,4,88.5,5.9,119.8,5.9c25.1,0,60.7-0.7,106-2c45.3-1.3,95.9-6.7,150.4-15.8c54.3-9.3,110.7-23.6,167.2-42.7
	c56.4-19.2,107.8-46.8,153.1-82.3c45.3-35.5,83.1-81.4,112.6-136.6C1454.7,636.5,1469.7,567.8,1469.7,487.6L1469.7,487.6z
	 M26.2,487.6c0-52,13.8-92.9,41.2-121.5c27.3-28.6,70-50.5,126.9-65.1c56.7-14.6,131.1-23.6,220.6-26.8l0,0
	c89.2-3.4,197.2-4.9,321.5-4.9c125.5,0,233.9,1.7,322.4,4.9c89,3.4,162.9,12.3,219.6,26.8c57,14.6,99.6,36.5,126.9,65.1
	c27.3,28.8,41.2,69.7,41.2,121.5c0,52-12.6,92.7-37.2,121.5c-24.7,28.6-65.6,50.6-122,65.1c-56,14.6-130.1,23.6-219.7,26.9
	c-89.7,3.4-201.2,4.9-331.5,4.9c-123.5,0-231.7-1.7-321.5-4.9c-89.7-3.2-163.9-12.3-220.6-26.9c-57-14.6-99.6-36.5-126.9-65.1
	C40,580.6,26.2,539.6,26.2,487.6z M1442.6,487.6c0-51-13.5-90.7-40.2-118.8c-26.8-28.1-68.8-49.6-125-63.9
	c-56.5-14.5-130.1-23.6-218.7-26.8c-88.5-3.4-196.9-4.9-322.2-4.9c-124.2,0-232.2,1.7-321.2,4.9l0,0
	c-89.3,3.2-163.4,12.3-219.7,26.8c-56.2,14.3-98.3,35.8-125,63.9c-26.8,28.1-40,68-40,118.8c0,51,13.5,90.7,40,118.8
	c26.6,28.1,68.8,49.6,125,63.9c56.5,14.5,130.4,23.6,219.7,26.8c89.7,3.4,197.9,4.9,321.2,4.9c130.1,0,241.6-1.7,331.1-4.9
	c89.3-3.4,163-12.3,218.7-26.8c55.5-14.3,95.9-35.8,120-63.8C1430.5,578.6,1442.6,538.6,1442.6,487.6L1442.6,487.6z"/>
<g>
	
		<linearGradient id="SVGID_00000057115515092802071680000002958368714783453085_" gradientUnits="userSpaceOnUse" x1="-591.144" y1="7440.3501" x2="-591.144" y2="8914.0498" gradientTransform="matrix(6.123234e-17 1 -1 6.123234e-17 8914.0498 2126.9502)">
		<stop  offset="0" style="stop-color:#FFE900"/>
		<stop  offset="1" style="stop-color:#F38200"/>
	</linearGradient>
	<path style="fill:url(#SVGID_00000057115515092802071680000002958368714783453085_);" d="M0,1549.9c0-70,13.8-136.6,40.9-198.2
		c27.1-61.6,67.6-115.4,120.5-160.3s118.8-80.8,196-106.5s166.6-38.7,265.5-38.7c112.2,0,220.7,16.3,322.9,48.6
		c102.3,32.3,193.5,77.1,271.4,133.1c77.7,56,140.7,123.7,186.9,200.9c46.3,77.4,69.7,162,69.7,251.9c0,35.5-4.4,71.2-13,105.7
		c-8.6,34.5-22,65.8-39.9,92.9c-17.8,27.1-40.7,49.3-68.1,66.1c-27.3,16.7-60.7,25.1-99.3,25.1c-78.9,0-119-40.7-119-121
		c0-46.6,8.2-78.4,24.4-94.6c16.2-16.2,38-24.4,64.8-24.4c24.1,0,48.6,5.7,73.2,17c24.2,11.1,45.6,16.7,63.6,16.7
		c3.9,0,10.3-1,19.3-3c8.9-1.9,18.2-5.9,27.1-11.6c8.9-5.7,17-15,24.1-27.1c7.1-12.3,10.6-29.6,10.6-51.7c0-46.9-11.3-88.3-33.5-123
		c-22.2-34.7-51.8-64.9-87.7-89.7c-36-24.9-78.2-45.8-125.5-62.3c-47.4-16.5-96.4-30.5-145.5-41.6c-49-11.1-98.4-19.9-146.5-25.7
		c-48.1-5.9-92.2-10.9-130.9-14.8l-1.7,1.7c11.3,8.9,24.4,19.3,39,31.5c15.3,12.6,29.8,29.1,43.1,49c13.3,19.9,24.4,44.4,33,72.9
		c8.6,28.6,13,63.1,13,102.6c0,60.7-11.8,119.1-34.8,173.3c-23.1,54.2-55.4,102.8-95.6,144.4c-40.4,41.6-88.2,75-142.3,99.6
		c-54.2,24.4-113.2,36.8-175.3,36.8c-62.1,0-121.1-13.8-175.5-40.9c-54.2-27.1-102.5-63.3-143.3-107.5
		c-41.1-44.2-73.5-95.6-96.6-152.3C11.8,1668.2,0,1609.3,0,1549.9z M1469.8,1680.8c0-89.2-23.2-173.1-69.2-249.9
		c-45.9-76.7-108.5-144-185.9-199.7c-77.4-55.9-168.4-100.4-270.2-132.6l0,0c-101.8-32.1-210-48.5-321.7-48.5
		c-98.4,0-187.4,13-264.2,38.5c-76.9,25.6-142.3,61.2-194.7,105.8c-52.5,44.6-92.7,98.1-119.5,159C17.7,1414.5,4,1480.8,4,1550.1
		c0,58.9,11.6,117.4,34.5,173.8c22.9,56.4,55.2,107.2,95.7,151.1s88.5,79.8,142.3,106.7c53.7,26.8,112.2,40.4,173.6,40.4
		c61.6,0,120-12.3,173.8-36.5c53.7-24.2,101.3-57.5,141.2-98.8c40-41.4,71.8-89.5,94.7-143.2c22.9-53.8,34.7-111.5,34.7-171.8
		c0-39.2-4.4-73.4-12.8-101.6c-8.6-28.1-19.5-52.3-32.5-71.8c-13.1-19.5-27.3-35.8-42.2-48.1c-15.3-12.6-28.9-23.6-40.5-32.6
		l-1.7-1.3l6.2-6.2l0.8,0.2c39,3.9,83.3,8.9,131.9,14.8c48.3,6.1,97.8,14.6,147.1,25.9c49.3,11.1,98.4,25.2,146,41.7
		c47.4,16.5,90,37.7,126.4,62.8c36.3,25.1,66.3,55.7,88.8,90.9c22.5,35.2,34,77.2,34,125c0,22.7-3.7,40.7-11.3,53.5
		c-7.4,12.8-16,22.4-25.4,28.4c-9.4,6.1-19,10.1-28.4,12.1c-9.4,2-16.2,3-20.2,3c-18.7,0-40.5-5.7-65.3-17
		c-24.1-11.1-48.1-16.7-71.5-16.7c-25.7,0-46.6,7.7-62.1,23.2c-15.5,15.5-23.2,46.3-23.2,91.9c0,38.9,9.6,68.5,28.6,87.8
		c19,19.3,48.1,29.1,86.3,29.1c37.9,0,70.5-8.2,97.2-24.6c26.8-16.3,49.3-38.2,66.8-64.9c17.7-26.8,30.8-57.5,39.4-91.7
		C1465.5,1751.2,1469.8,1716,1469.8,1680.8z M25.7,1541.9c0-23.9,3.7-49.8,10.9-76.9c7.4-27.4,27.6-53.2,60.2-76.4
		c32.5-23.2,83.5-42.7,151.4-57.9c67.8-15.1,163-22.9,283-22.9c39.5,0,72.9,1,99.3,3c26.4,2,49,5.4,66.8,9.9
		c18,4.7,33.1,10.4,45.1,17c11.9,6.6,24.1,14.6,36,23.9c39.9,30.5,65.4,64.6,76,101.1c10.6,36.3,16,68.3,16,94.7
		c0,73.2-32.8,125.5-97.4,155.5l0,0c-64.1,29.8-160.8,44.8-287.4,44.8c-105.3,0-189.6-5.7-250.4-16.8
		c-60.7-11.3-107.3-26.8-138.5-45.9c-31.3-19.3-51.3-42.4-59.4-68.5C29.8,1600.9,25.7,1572.3,25.7,1541.9z M866.8,1557.8
		c0-26.1-5.4-57.7-15.8-93.7c-10.4-35.8-35.5-69.2-74.7-99.1c-11.8-9.3-23.7-17.2-35.5-23.7c-11.6-6.6-26.6-12.1-44.2-16.7
		c-17.7-4.5-39.9-7.9-66.1-9.9c-26.2-2-59.6-3-99.1-3c-119.6,0-214.7,7.7-282.2,22.7c-67.5,15-117.9,34.3-150.1,57.2
		c-31.8,22.7-51.7,47.8-58.7,74.4c-7.2,26.8-10.8,52.3-10.8,75.9c0,30.1,4,58.2,11.8,83.8c7.7,25.2,27.1,47.4,57.7,66.3
		c30.8,19,76.9,34.2,137.1,45.4c60.6,11.1,144.5,16.8,249.5,16.8c126,0,222.3-15,285.9-44.4l0,0
		C834.9,1680.5,866.8,1629.4,866.8,1557.8z"/>
</g>
</svg>
