<?xml version="1.0" encoding="utf-8"?>
<!-- Generator: Adobe Illustrator 26.0.2, SVG Export Plug-In . SVG Version: 6.00 Build 0)  -->
<svg version="1.1" id="レイヤー_1" xmlns="http://www.w3.org/2000/svg" xmlns:xlink="http://www.w3.org/1999/xlink" x="0px"
	 y="0px" viewBox="0 0 1992.5 1473.6" style="enable-background:new 0 0 1992.5 1473.6;" xml:space="preserve">
<style type="text/css">
	.st0{fill:url(#SVGID_1_);}
	.st1{fill:url(#SVGID_00000065793978251865793100000004544105908130102180_);}
</style>
<linearGradient id="SVGID_1_" gradientUnits="userSpaceOnUse" x1="-1173.9749" y1="7159.0527" x2="-1173.9749" y2="8632.248" gradientTransform="matrix(1 0 0 1 1661.3606 -7158.7607)">
	<stop  offset="0" style="stop-color:#FFE900"/>
	<stop  offset="1" style="stop-color:#F38200"/>
</linearGradient>
<path class="st0" d="M487.6,1473.5c-80.9,0-150.1-14.8-205.7-43.7c-55.7-29.1-102.1-67.5-137.9-113.6c-36-46.6-63.9-98.6-82.9-154.3
	c-18.7-54.2-33-109.5-42.9-165.9C8.9,942,3.5,891.2,2.1,845c-1.3-45.6-2-81.6-2-107.2c0-31.8,2-72.2,5.9-120.1l0,0
	c3.9-48.1,11.6-100.1,22.9-154.9c11.8-56.4,28.4-111.5,49.8-164.9c21.9-54.8,51.1-104.6,86.8-148.2s80.6-79.9,132.9-107.5
	C350.7,14.4,414.3,0.3,487.3,0.3C568.2,0.3,637.4,15.4,693,45S795.2,113,831,158.6s63.6,97.6,82.9,154.3s33.6,113.4,42.7,167.9
	c9.3,54.7,14.6,105.5,16,150.9s2,81.1,2,106.2c0,31.6-2,72-5.9,120.1c-3.9,48.1-11.8,100.4-22.9,154.9c-11.6,56-28.3,111-49.8,164
	c-21.5,53.5-50.6,103.5-86.8,148.2c-35.8,44.2-80.6,80.6-132.9,107.7C624.1,1459.7,560.5,1473.5,487.6,1473.5z M487.6,4
	c-72.2,0-135.1,14-187.1,41.4S204.3,108.6,169,151.9s-64.4,92.7-86.1,147.2c-21.4,53.2-38,108.2-49.6,164.4
	C22,518.1,14.4,569.9,10.4,617.9l0,0C6.5,665.6,4.5,706,4.5,737.6c0,25.6,0.7,61.6,1.9,107c1.3,45.9,6.7,96.6,15.8,150.4
	c9.3,53.8,23.6,109.3,42.7,165.4c18.7,55.2,46.6,107,82.3,153.1c35.3,45.8,81.4,83.6,136.6,112.5s123.8,43.4,203.9,43.4
	c72.2,0,135.1-13.6,187.1-40.5c52-26.9,96.1-62.7,131.6-106.5c36-44.6,64.9-94,86.1-147.2c21.5-52.8,38-107.5,49.6-163.4
	c11.1-54.5,18.8-106.3,22.9-154.4c4-48.1,5.9-88.5,5.9-119.8c0-25.1-0.7-60.7-2-106c-1.3-45.3-6.7-95.9-15.8-150.4
	c-9.3-54.3-23.6-110.7-42.7-167.2C891.1,257.7,863.5,206.2,828,161c-35.5-45.3-81.4-83.1-136.6-112.5C636.4,19,567.7,4,487.6,4
	L487.6,4z M487.6,1447.2c-52,0-92.9-13.8-121.5-41.2c-28.6-27.3-50.5-70-65.1-126.8c-14.6-56.7-23.6-131.1-26.7-220.6l0,0
	c-3.4-89.2-4.9-197.2-4.9-321.5c0-125.5,1.7-233.8,4.9-322.3c3.4-89,12.3-162.8,26.7-219.5c14.6-57,36.5-99.6,65.1-126.8
	c28.8-27.3,69.6-41.2,121.5-41.2c51.8,0,92.7,12.6,121.5,37.2c28.6,24.7,50.6,65.6,65.1,122c14.6,56,23.6,130,26.9,219.7
	s4.9,201.2,4.9,331.4c0,123.5-1.7,231.7-4.9,321.5c-3.2,89.7-12.3,163.9-26.9,220.6c-14.6,57-36.5,99.6-65.1,126.8
	C580.5,1433.6,539.5,1447.2,487.6,1447.2z M487.6,31.1c-51,0-90.7,13.5-118.8,40.2c-28.1,26.7-49.6,68.8-63.9,125
	c-14.5,56.5-23.6,130-26.7,218.7c-3.4,88.5-4.9,196.8-4.9,322.2c0,124.2,1.7,232.2,4.9,321.2l0,0c3.2,89.3,12.3,163.4,26.7,219.7
	c14.3,56.2,35.8,98.2,63.9,125c28.1,26.7,68,40,118.8,40s90.7-13.5,118.8-40c28.1-26.6,49.6-68.8,63.9-125
	c14.5-56.5,23.6-130.4,26.7-219.7c3.4-89.7,4.9-197.8,4.9-321.2c0-130-1.7-241.6-4.9-331.1c-3.4-89.3-12.3-163-26.7-218.7
	c-14.3-55.5-35.8-95.9-63.8-119.9C578.5,43.2,538.4,31.1,487.6,31.1L487.6,31.1z"/>
<g>
	
		<linearGradient id="SVGID_00000059269082639739318050000008383433682497450904_" gradientUnits="userSpaceOnUse" x1="-153.0482" y1="7158.5483" x2="-153.0482" y2="8632.248" gradientTransform="matrix(1 0 0 1 1661.3606 -7158.7607)">
		<stop  offset="0" style="stop-color:#FFE900"/>
		<stop  offset="1" style="stop-color:#F38200"/>
	</linearGradient>
	<path style="fill:url(#SVGID_00000059269082639739318050000008383433682497450904_);" d="M1492,1473.5
		c-45.1,0-82.6-15.1-108.5-43.7c-25.7-28.6-39.5-70-39.5-119.9c0-113.2,52.5-267.5,175.8-515.8c78.7-159.5,180.2-345,310-567.3
		h-529.3c-58.9,0-91.3,8.6-115.4,30.3c-24.2,22-41.7,57.9-64.3,132.1l-26.1,92h-71.2L1154.9-0.2h805.3l32.8,45.1l-0.5,1
		c-45.4,86.8-89,171.6-131.1,253.7c-20.2,39.5-41.2,80.4-62.2,121.1c-92.9,187.6-128.2,284.5-157.6,431.5
		c-16.5,88.7-25.6,174.1-25.6,240.2c0,40.4,3.9,91.2,7.9,140c4,48.6,5.9,73.3,5.9,90.8c0,44.9-13,82.8-37.5,109.3
		C1568,1459.5,1533.2,1473.5,1492,1473.5z M1300.5,222.9h536l-1.7,2.9c-130.7,223.6-232.7,410-311.6,570
		c-123,247.8-175.3,401.6-175.3,514.1c0,48.8,13.3,89.5,38.5,117.3c25.1,27.8,61.6,42.6,105.5,42.6c40.2,0,74-13.6,97.7-39.4
		c23.9-25.9,36.5-62.7,36.5-106.7c0-17.3-1.9-42.1-5.9-90.5c-4-48.8-7.9-99.6-7.9-140.3c0-66.5,9.1-152.1,25.7-241.1
		c29.4-147.5,64.9-244.4,158-432.5c21-40.9,42.1-81.8,62.2-121.3c41.9-81.8,85.3-166.2,130.5-252.7l-30.3-41.6h-800.4L1029,477.2
		h63.1l25.2-89.3C1159.1,250.6,1189.9,222.9,1300.5,222.9z"/>
</g>
</svg>
