<?xml version="1.0" encoding="utf-8"?>
<!-- Generator: Adobe Illustrator 26.0.2, SVG Export Plug-In . SVG Version: 6.00 Build 0)  -->
<svg version="1.1" id="レイヤー_1" xmlns="http://www.w3.org/2000/svg" xmlns:xlink="http://www.w3.org/1999/xlink" x="0px"
	 y="0px" viewBox="0 0 1473.7 1992.9" style="enable-background:new 0 0 1473.7 1992.9;" xml:space="preserve">
<style type="text/css">
	.st0{fill:url(#SVGID_1_);}
	.st1{fill:url(#SVGID_00000042696515929219135400000017007481076138781114_);}
</style>
<linearGradient id="SVGID_1_" gradientUnits="userSpaceOnUse" x1="-1639.6705" y1="7440.8545" x2="-1639.6705" y2="8914.0498" gradientTransform="matrix(6.123234e-17 1 -1 6.123234e-17 8914.0498 2126.9502)">
	<stop  offset="0" style="stop-color:#FFE900"/>
	<stop  offset="1" style="stop-color:#F38200"/>
</linearGradient>
<path class="st0" d="M0,487.5c0-80.9,14.8-150.1,43.7-205.7c29.1-55.7,67.5-102.1,113.6-137.9c46.6-36,98.6-63.9,154.3-82.9
	c54.2-18.7,109.5-33,165.9-42.9c54-9.3,104.8-14.6,151.1-16c45.6-1.3,81.6-2,107.2-2c31.8,0,72.2,2,120.1,5.9l0,0
	c48.1,3.9,100.1,11.6,154.9,22.9c56.4,11.8,111.5,28.4,164.9,49.8c54.8,21.9,104.6,51.1,148.2,86.8c43.6,35.7,79.9,80.6,107.5,132.9
	c27.8,52.3,41.9,115.9,41.9,188.9c0,80.9-15.1,150.1-44.7,205.7c-29.6,55.7-68,102.1-113.6,137.9c-45.6,35.8-97.6,63.6-154.3,82.9
	c-56.7,19.3-113.4,33.6-167.9,42.7c-54.7,9.3-105.5,14.6-150.9,16s-81.1,2-106.2,2c-31.6,0-72-2-120.1-5.9
	c-48.1-3.9-100.4-11.8-154.9-22.9c-56-11.6-111-28.3-164-49.8c-53.5-21.5-103.5-50.6-148.2-86.8c-44.2-35.8-80.6-80.6-107.7-132.9
	C13.8,624,0,560.4,0,487.5z M1469.5,487.5c0-72.2-14-135.1-41.4-187.1c-27.4-52-63.3-96.2-106.5-131.6
	c-43.2-35.3-92.7-64.4-147.2-86.1c-53.2-21.4-108.2-38-164.4-49.6c-54.7-11.3-106.5-18.8-154.4-22.9l0,0
	c-47.8-3.9-88.2-5.9-119.8-5.9c-25.6,0-61.6,0.7-107,1.9C582.9,7.6,532.3,13,478.4,22c-53.8,9.3-109.3,23.6-165.4,42.7
	c-55.2,18.7-107,46.6-153.1,82.3c-45.8,35.3-83.6,81.4-112.5,136.6S4,407.5,4,487.5c0,72.2,13.6,135.1,40.5,187.1
	c26.9,52,62.7,96.1,106.5,131.6c44.6,36,94,64.9,147.2,86.1c52.8,21.5,107.5,38,163.4,49.6c54.5,11.1,106.3,18.8,154.4,22.9
	c48.1,4,88.5,5.9,119.8,5.9c25.1,0,60.7-0.7,106-2c45.3-1.3,95.9-6.7,150.4-15.8c54.3-9.3,110.7-23.6,167.2-42.7
	c56.4-19.2,107.8-46.8,153.1-82.3c45.3-35.5,83.1-81.4,112.5-136.6C1454.5,636.2,1469.5,567.6,1469.5,487.5L1469.5,487.5z
	 M26.2,487.5c0-52,13.8-92.9,41.2-121.5c27.3-28.6,70-50.5,126.8-65.1c56.7-14.6,131.1-23.6,220.6-26.7l0,0
	c89.2-3.4,197.2-4.9,321.5-4.9c125.5,0,233.8,1.7,322.3,4.9c89,3.4,162.8,12.3,219.5,26.7c57,14.6,99.6,36.5,126.8,65.1
	c27.3,28.8,41.2,69.6,41.2,121.5c0,51.8-12.6,92.7-37.2,121.5c-24.7,28.6-65.6,50.6-122,65.1c-56,14.6-130,23.6-219.7,26.9
	c-89.7,3.4-201.2,4.9-331.4,4.9c-123.5,0-231.7-1.7-321.5-4.9c-89.7-3.2-163.9-12.3-220.6-26.9c-57-14.6-99.6-36.5-126.8-65.1
	S26.2,539.3,26.2,487.5z M1442.4,487.5c0-51-13.5-90.7-40.2-118.8c-26.7-28.1-68.8-49.6-125-63.9c-56.5-14.5-130-23.6-218.7-26.7
	c-88.5-3.4-196.8-4.9-322.2-4.9c-124.2,0-232.2,1.7-321.2,4.9l0,0c-89.3,3.2-163.4,12.3-219.7,26.7c-56.2,14.3-98.2,35.8-125,63.9
	s-40,68-40,118.8s13.5,90.7,40,118.8c26.6,28.1,68.8,49.6,125,63.9c56.5,14.5,130.4,23.6,219.7,26.7c89.7,3.4,197.8,4.9,321.2,4.9
	c130,0,241.6-1.7,331.1-4.9c89.3-3.4,163-12.3,218.7-26.7c55.5-14.3,95.9-35.8,119.9-63.8C1430.3,578.4,1442.4,538.3,1442.4,487.5
	L1442.4,487.5z"/>
<g>
	
		<linearGradient id="SVGID_00000133515018565112985950000008589834999311746987_" gradientUnits="userSpaceOnUse" x1="-618.744" y1="7440.3501" x2="-618.744" y2="8914.0498" gradientTransform="matrix(6.123234e-17 1 -1 6.123234e-17 8914.0498 2126.9502)">
		<stop  offset="0" style="stop-color:#FFE900"/>
		<stop  offset="1" style="stop-color:#F38200"/>
	</linearGradient>
	<path style="fill:url(#SVGID_00000133515018565112985950000008589834999311746987_);" d="M0,1491.9c0-45.1,15.1-82.6,43.7-108.5
		c28.6-25.7,70-39.5,119.9-39.5c113.2,0,267.5,52.5,515.8,175.8c159.5,78.7,345,180.2,567.3,310v-529.3c0-58.9-8.6-91.3-30.3-115.4
		c-22-24.2-57.9-41.7-132.1-64.3l-92-26.1v-71.2l481.3,131.2v805.3l-45.1,32.8l-1-0.5c-86.8-45.4-171.6-89-253.7-131.1
		c-39.5-20.2-80.4-41.2-121.1-62.2c-187.6-92.9-284.5-128.2-431.5-157.6c-88.7-16.5-174.1-25.6-240.2-25.6c-40.4,0-91.2,3.9-140,7.9
		c-48.6,4-73.3,5.9-90.8,5.9c-44.9,0-82.8-13-109.3-37.5C14,1567.9,0,1533.1,0,1491.9z M1250.6,1300.4v536l-2.9-1.7
		c-223.6-130.7-410-232.7-570-311.6c-247.8-123-401.6-175.3-514.1-175.3c-48.8,0-89.5,13.3-117.3,38.5
		c-27.8,25.1-42.6,61.6-42.6,105.5c0,40.2,13.6,74,39.4,97.7c25.9,23.9,62.7,36.5,106.7,36.5c17.3,0,42.1-1.9,90.5-5.9
		c48.8-4,99.6-7.9,140.3-7.9c66.5,0,152.1,9.1,241.1,25.7c147.5,29.4,244.4,64.9,432.5,158c40.9,21,81.8,42.1,121.3,62.2
		c81.8,41.9,166.2,85.3,252.7,130.5l41.6-30.3v-800.4l-473.6-129.2v63.1l89.3,25.2C1222.9,1159,1250.6,1189.7,1250.6,1300.4z"/>
</g>
</svg>
