<?xml version="1.0" encoding="utf-8"?>
<!-- Generator: Adobe Illustrator 26.0.2, SVG Export Plug-In . SVG Version: 6.00 Build 0)  -->
<svg version="1.1" id="レイヤー_1" xmlns="http://www.w3.org/2000/svg" xmlns:xlink="http://www.w3.org/1999/xlink" x="0px"
	 y="0px" viewBox="0 0 2018.2 1458.3" style="enable-background:new 0 0 2018.2 1458.3;" xml:space="preserve">
<style type="text/css">
	.st0{fill:url(#SVGID_1_);}
	.st1{fill:url(#SVGID_00000143617902442835192940000014529804409157138347_);}
</style>
<linearGradient id="SVGID_1_" gradientUnits="userSpaceOnUse" x1="1756.6005" y1="765.2064" x2="298.3009" y2="765.2064" gradientTransform="matrix(6.123234e-17 -1 1 6.123234e-17 -282.8998 1756.5999)">
	<stop  offset="0" style="stop-color:#FFE900"/>
	<stop  offset="1" style="stop-color:#F38200"/>
</linearGradient>
<path class="st0" d="M482.6,1458.3c-80.1,0-148.5-14.6-203.6-43.3c-55.1-28.8-101.1-66.8-136.6-112.4
	c-35.6-46.1-63.2-97.6-82.1-152.7c-18.5-53.6-32.7-108.5-42.5-164.2C8.6,932.3,3.4,882,2,836.2C0.7,791,0,755.4,0,730.1
	c0-31.5,2-71.4,5.8-118.9l0,0c3.9-47.6,11.5-99.1,22.7-153.4C40.2,402,56.6,347.3,77.8,294.6c21.7-54.3,50.7-103.6,85.9-146.8
	c35.3-43.1,79.8-79.1,131.5-106.4C346.9,14,410,0,482.2,0c80.1,0,148.5,14.9,203.6,44.3C741,73.8,787,111.6,822.4,156.7
	c35.4,45.1,62.9,96.6,82.1,152.7c19,56.1,33.3,112.2,42.3,166.2c9.2,54.1,14.4,104.4,15.8,149.4s2,80.3,2,105.1
	c0,31.3-2,71.2-5.8,118.9c-3.9,47.6-11.7,99.4-22.7,153.4c-11.5,55.4-28,109.9-49.3,162.4c-21.3,52.9-50.2,102.4-85.9,146.8
	c-35.4,43.8-79.8,79.8-131.5,106.6C617.7,1444.6,554.7,1458.3,482.6,1458.3z M482.6,3.7c-71.4,0-133.7,13.9-185.1,41
	S202.2,107.3,167.2,150s-63.8,91.7-85.3,145.8c-21.2,52.6-37.6,107.1-49.1,162.7c-11.2,54.1-18.6,105.4-22.7,152.9l0,0
	c-3.9,47.3-5.8,87.3-5.8,118.5c0,25.3,0.7,61,1.9,105.9c1.3,45.5,6.6,95.6,15.5,148.9C31,1038,45.1,1093,64,1148.4
	c18.5,54.6,46.1,105.9,81.4,151.5c34.9,45.3,80.6,82.7,135.2,111.4s122.7,43,202,43c71.4,0,133.7-13.5,185.1-40.2
	c51.5-26.7,95.1-62.1,130.2-105.4c35.6-44.1,64.3-93.1,85.3-145.8c21.3-52.2,37.6-106.4,49.1-161.7c11-53.9,18.6-105.3,22.7-152.9
	c4-47.6,5.8-87.6,5.8-118.5c0-24.8-0.7-60.2-2-104.9c-1.3-44.8-6.6-94.9-15.6-148.8c-9.2-53.8-23.4-109.5-42.3-165.6
	c-19-55.8-46.3-106.8-81.4-151.5c-35.1-44.8-80.6-82.2-135.3-111.4C629.8,18.5,561.9,3.7,482.6,3.7L482.6,3.7z M482.6,1432.3
	c-51.5,0-91.9-13.7-120.2-40.8c-28.3-27-50-69.3-64.4-125.6c-14.4-56.1-23.4-129.7-26.5-218.3l0,0c-3.4-88.3-4.8-195.1-4.8-318.2
	c0-124.2,1.7-231.5,4.8-319c3.4-88.1,12.2-161.2,26.5-217.3c14.4-56.4,36.1-98.6,64.4-125.6c28.5-27,69-40.8,120.2-40.8
	s91.7,12.5,120.2,36.8c28.3,24.4,50.2,64.9,64.4,120.7c14.4,55.4,23.4,128.7,26.6,217.5c3.4,88.8,4.8,199.2,4.8,328
	c0,122.2-1.7,229.3-4.8,318.2c-3.1,88.7-12.1,162.2-26.6,218.3c-14.4,56.4-36.1,98.6-64.4,125.6
	C574.5,1418.6,533.9,1432.3,482.6,1432.3z M482.6,30.3c-50.5,0-89.8,13.4-117.6,39.8c-27.8,26.5-49.1,68.1-63.2,123.7
	c-14.3,55.9-23.4,128.7-26.5,216.5c-3.4,87.6-4.8,194.8-4.8,318.9c0,122.9,1.7,229.8,4.8,317.9l0,0c3.2,88.5,12.2,161.7,26.5,217.5
	c14.2,55.6,35.4,97.3,63.2,123.7c27.8,26.4,67.3,39.7,117.6,39.7s89.8-13.4,117.6-39.7c27.8-26.3,49.1-68.1,63.2-123.7
	c14.3-55.9,23.4-129,26.5-217.5c3.4-88.8,4.8-195.8,4.8-317.9c0-128.7-1.7-239.2-4.8-327.7c-3.4-88.5-12.2-161.4-26.5-216.5
	C649.2,130,628,90,600.3,66.2C572.6,42.5,532.9,30.3,482.6,30.3L482.6,30.3z"/>
<g>
	
		<linearGradient id="SVGID_00000072989427093626545960000009642376146801064877_" gradientUnits="userSpaceOnUse" x1="1756.4023" y1="1794.4369" x2="298.3009" y2="1794.4369" gradientTransform="matrix(6.123234e-17 -1 1 6.123234e-17 -282.8998 1756.5999)">
		<stop  offset="0" style="stop-color:#FFE900"/>
		<stop  offset="1" style="stop-color:#F38200"/>
	</linearGradient>
	<path style="fill:url(#SVGID_00000072989427093626545960000009642376146801064877_);" d="M1511.6,1458.3
		c-140.7,0-269.5-38.8-362.4-109.2c-93.1-70.7-144.4-168.3-144.4-275.6c0-84.9,33.1-164.6,96.1-230.3
		c61.5-64.3,150.2-114.4,257.1-145.1c-97.8-32.9-173.4-78-225-134.7c-52.9-58.1-79.8-127.3-79.8-205.5
		c0-200.7,202.2-357.7,460.2-357.7c124.7,0,240,36.5,324.9,102.6c84.8,66.1,131.5,156.1,131.5,253.1c0,153.6-106.1,271.7-307,342.1
		c229.2,64.6,355.2,196.3,355.2,371.6c0,56.4-12.5,109.4-37.1,157.5c-24.1,47-59.1,88.3-104.2,122.9c-45.1,34.4-99,61.3-160.2,79.8
		C1653.9,1448.6,1584.9,1458.3,1511.6,1458.3z M1513.6,4c-256,0-456.5,155.6-456.5,353.9c0,77.3,26.5,145.8,78.8,203
		c52.1,57.3,129.4,102.9,229.3,135.6l6,2l-6,1.7c-108.9,30.3-199.3,80.7-261.4,145.8c-62.1,65.1-94.9,143.7-94.9,227.7
		c0,105.9,50.8,202.9,142.9,272.6c92.2,70,220,108.4,360,108.4c72.9,0,141.5-9.5,204-28.3c60.8-18.3,114.2-44.9,158.8-79.1
		c44.6-34.1,79.5-75.1,103.2-121.6c24.4-47.6,36.8-100,36.8-155.9c0-174.7-127.3-305.9-358.4-369.5l-6-1.7l5.8-2
		c102.4-35.1,180.9-82.4,233.1-140.9c51-57,76.9-124.1,76.9-199.7c0-95.9-46.1-184.6-130-250.2C1751.9,40.2,1637.3,4,1513.6,4z
		 M1513.6,1411.8c-68.3,0-124.9-21.7-163.9-62.4c-47-48.8-64.3-121.6-64.3-268.1c0-146.8,15.1-230.3,50.7-279.6
		c38.8-52.4,100.2-80.1,177.5-80.1c72.2,0,127.6,22.4,163.9,66.4c42.8,50.8,60.5,135.8,60.5,293.3c0,126.9-18,210.2-56.4,262.1
		C1644.3,1390,1591,1411.8,1513.6,1411.8z M1513.6,725.2c-76.1,0-136.4,27.1-174.6,78.6c-34.9,48.6-50,131.5-50,277.3
		c0,145.6,17.1,217.5,63.2,265.6c38.1,40.2,93.9,61.3,161,61.3c76.3,0,128.7-21.3,164.9-67c38-51.3,55.6-133.9,55.6-260
		c0-156.5-17.1-240.8-59.5-290.7l0,0C1638.8,747.2,1584.7,725.2,1513.6,725.2z M1511.6,677c-78.1,0-124.6-20.7-150.5-66.6
		c-24.8-44.1-34.9-113.7-34.9-240.8c0-113.7,10.2-191.2,31.2-236.8c25.1-54.3,80.1-84.3,154.6-84.3c66.8,0,121.7,26.3,146.8,70.7
		c29,46.5,41,120.7,41,256.3c0,124.2-12.2,196.8-41,242.8C1628.3,659.9,1585.9,677,1511.6,677z M1511.6,52.2
		c-72.7,0-126.6,29.2-151,82.1c-20.7,45.1-30.8,122.1-30.8,235.1c0,126.3,10,195.5,34.4,238.8c25.3,44.8,70.8,64.8,147.2,64.8
		c72.9,0,114.4-16.6,143.6-57.1c28.1-45.1,40.3-117.1,40.3-240.7c0-134.7-11.7-208.5-40.3-254.3l0,0
		C1630.7,78,1577,52.2,1511.6,52.2z"/>
</g>
</svg>
