<?xml version="1.0" encoding="utf-8"?>
<!-- Generator: Adobe Illustrator 26.0.2, SVG Export Plug-In . SVG Version: 6.00 Build 0)  -->
<svg version="1.1" id="レイヤー_1" xmlns="http://www.w3.org/2000/svg" xmlns:xlink="http://www.w3.org/1999/xlink" x="0px"
	 y="0px" viewBox="0 0 1473.7 2039.7" style="enable-background:new 0 0 1473.7 2039.7;" xml:space="preserve">
<style type="text/css">
	.st0{fill:url(#SVGID_1_);}
	.st1{fill:url(#SVGID_00000086660926243539182180000003868602662329787545_);}
</style>
<linearGradient id="SVGID_1_" gradientUnits="userSpaceOnUse" x1="-1639.5038" y1="7440.3506" x2="-1639.5038" y2="8914.0498" gradientTransform="matrix(6.123234e-17 1 -1 6.123234e-17 8914.0498 2126.9502)">
	<stop  offset="0" style="stop-color:#FFE900"/>
	<stop  offset="1" style="stop-color:#F38200"/>
</linearGradient>
<path class="st0" d="M0,487.7c0-80.9,14.8-150.1,43.8-205.8c29.1-55.7,67.5-102.2,113.6-138c46.6-36,98.6-63.9,154.3-83
	c54.2-18.7,109.6-33,165.9-42.9c54-9.3,104.8-14.6,151.1-16c45.6-1.3,81.6-2,107.2-2c31.8,0,72.2,2,120.2,5.9l0,0
	c48.1,3.9,100.1,11.6,155,22.9c56.4,11.8,111.6,28.4,164.9,49.8c54.9,21.9,104.7,51.2,148.3,86.8c43.6,35.7,79.9,80.6,107.5,132.9
	c27.8,52.3,41.9,116,41.9,189c0,80.9-15.1,150.1-44.8,205.8c-29.8,55.7-68,102.2-113.6,138c-45.6,35.8-97.6,63.6-154.3,83
	c-56.7,19.2-113.4,33.7-168,42.7c-54.7,9.3-105.5,14.6-151,16s-81.1,2-106.2,2c-31.6,0-72-2-120.2-5.9
	c-48.1-3.9-100.5-11.8-155-22.9c-56-11.6-111.1-28.3-164.1-49.8c-53.5-21.5-103.5-50.7-148.3-86.8c-44.3-35.8-80.6-80.6-107.7-132.9
	C13.8,624.2,0,560.6,0,487.7z M1470,487.7c0-72.2-14-135.1-41.4-187.1c-27.4-52-63.3-96.3-106.5-131.6
	c-43.2-35.3-92.7-64.5-147.3-86.2c-53.2-21.4-108.2-38-164.4-49.6c-54.7-11.3-106.5-18.8-154.5-22.9l0,0
	c-47.8-3.9-88.2-5.9-119.8-5.9c-25.6,0-61.6,0.7-107,1.9C583.1,7.6,532.5,13,478.6,22c-53.9,9.3-109.4,23.6-165.4,42.7
	c-55.2,18.7-107,46.6-153.1,82.3c-45.8,35.3-83.6,81.5-112.6,136.6S4,407.6,4,487.7c0,72.2,13.6,135.1,40.6,187.1
	s62.8,96.1,106.5,131.6c44.6,36,94.1,65,147.3,86.2c52.8,21.5,107.5,38,163.4,49.6c54.5,11.1,106.4,18.8,154.5,22.9
	c48.1,4,88.5,5.9,119.8,5.9c25.1,0,60.8-0.7,106-2c45.3-1.3,95.9-6.7,150.4-15.8c54.4-9.3,110.7-23.6,167.3-42.7
	c56.4-19.2,107.9-46.8,153.1-82.3c45.3-35.5,83.1-81.5,112.6-136.7C1455,636.5,1470,567.8,1470,487.7L1470,487.7z M26.3,487.7
	c0-52,13.8-92.9,41.2-121.5c27.3-28.6,70-50.5,126.9-65.1c56.7-14.6,131.1-23.6,220.6-26.8l0,0c89.2-3.4,197.2-4.9,321.6-4.9
	c125.5,0,233.9,1.7,322.4,4.9c89,3.4,162.9,12.3,219.6,26.8c57,14.6,99.6,36.5,126.9,65.1c27.3,28.8,41.2,69.7,41.2,121.5
	c0,51.8-12.6,92.7-37.2,121.5c-24.7,28.6-65.6,50.7-122,65.1c-56,14.6-130.1,23.6-219.8,26.9c-89.7,3.4-201.3,4.9-331.5,4.9
	c-123.5,0-231.7-1.7-321.6-4.9C325,698.1,250.7,689,194,674.3c-57-14.6-99.6-36.5-126.9-65.1C40.1,580.6,26.3,539.5,26.3,487.7z
	 M1443.1,487.7c0-51-13.5-90.7-40.2-118.8c-26.8-28.1-68.8-49.6-125-63.9c-56.5-14.5-130.1-23.6-218.8-26.8
	c-88.5-3.4-196.9-4.9-322.3-4.9c-124.2,0-232.2,1.7-321.3,4.9l0,0c-89.4,3.2-163.4,12.3-219.8,26.8c-56.2,14.3-98.3,35.8-125,63.9
	s-40.1,68-40.1,118.8s13.5,90.7,40.1,118.8c26.6,28.1,68.8,49.6,125,63.9c56.5,14.5,130.4,23.6,219.8,26.8
	c89.7,3.4,197.9,4.9,321.3,4.9c130.1,0,241.7-1.7,331.2-4.9c89.4-3.4,163.1-12.3,218.8-26.8c55.5-14.3,95.9-35.8,120-63.8
	C1430.8,578.6,1443.1,538.5,1443.1,487.7L1443.1,487.7z"/>
<g>
	
		<linearGradient id="SVGID_00000023967836321455127620000009382223198816648594_" gradientUnits="userSpaceOnUse" x1="-599.3997" y1="7440.5195" x2="-599.3997" y2="8914.0498" gradientTransform="matrix(6.123234e-17 1 -1 6.123234e-17 8914.0498 2126.9502)">
		<stop  offset="0" style="stop-color:#FFE900"/>
		<stop  offset="1" style="stop-color:#F38200"/>
	</linearGradient>
	<path style="fill:url(#SVGID_00000023967836321455127620000009382223198816648594_);" d="M0,1527.6c0-142.2,39.2-272.3,110.4-366.2
		c71.4-94.1,170.1-145.9,278.5-145.9c85.8,0,166.3,33.5,232.7,97.1c65,62.1,115.6,151.8,146.6,259.8
		c33.2-98.8,78.8-175.2,136.1-227.4c58.7-53.5,128.6-80.6,207.7-80.6c202.8,0,361.5,204.3,361.5,465.1c0,126-36.9,242.5-103.7,328.3
		c-66.8,85.7-157.7,132.9-255.8,132.9c-155.2,0-274.6-107.2-345.7-310.2c-65.3,231.6-198.4,359-375.5,359
		c-57,0-110.6-12.6-159.2-37.5c-47.5-24.4-89.2-59.7-124.2-105.3c-34.8-45.6-61.9-100-80.6-161.9C9.8,1671.4,0,1601.6,0,1527.6z
		 M1469.7,1529.6c0-258.7-157.2-461.3-357.6-461.3c-78.1,0-147.3,26.8-205.1,79.6c-57.9,52.7-104,130.8-137,231.7l-2,6.1l-1.7-6.1
		c-30.6-110.1-81.6-201.4-147.3-264.2c-65.8-62.8-145.2-95.9-230.1-95.9c-107,0-205,51.3-275.5,144.4
		C42.7,1257.1,3.9,1386.2,3.9,1527.7c0,73.7,9.6,143,28.6,206.2c18.5,61.4,45.4,115.4,79.9,160.5c34.5,45.1,75.9,80.3,122.9,104.3
		c48.1,24.7,101.1,37.2,157.5,37.2c176.5,0,309.1-128.6,373.4-362.2l1.7-6.1l2,5.9c35.5,103.5,83.3,182.8,142.4,235.6
		c57.6,51.5,125.4,77.7,201.8,77.7c96.9,0,186.6-46.6,252.8-131.4C1433.1,1770.4,1469.7,1654.6,1469.7,1529.6z M47,1529.6
		c0-69,21.9-126.2,63.1-165.6c49.3-47.5,122.9-65,270.9-65c148.3,0,232.7,15.3,282.6,51.2c53,39.2,80.9,101.3,80.9,179.4
		c0,73-22.6,128.9-67.1,165.6c-51.3,43.3-137.2,61.1-296.4,61.1c-128.2,0-212.4-18.2-264.9-57C69,1661.7,47,1607.8,47,1529.6z
		 M740.8,1529.6c0-76.9-27.4-137.8-79.4-176.4c-49.1-35.3-132.9-50.5-280.2-50.5c-147.1,0-219.8,17.3-268.4,63.9
		c-40.6,38.5-61.9,94.9-61.9,162.7c0,77.1,21.5,130.1,67.7,166.6c51.8,38.4,135.3,56.2,262.7,56.2c158.2,0,243.3-17.3,293.8-60.1
		l0,0C718.6,1656.1,740.8,1601.4,740.8,1529.6z M789.6,1527.6c0-78.9,20.9-125.9,67.3-152.1c44.6-25.1,114.9-35.3,243.3-35.3
		c114.9,0,193.2,10.3,239.3,31.5c54.9,25.4,85.2,80.9,85.2,156.2c0,67.5-26.6,123-71.4,148.3c-47,29.3-122,41.4-259,41.4
		c-125.5,0-198.9-12.3-245.4-41.4C806.8,1645.5,789.6,1602.6,789.6,1527.6z M1420.9,1527.6c0-73.5-29.5-127.9-83-152.6
		c-45.6-20.9-123.4-31.1-237.6-31.1c-127.6,0-197.6,10.1-241.3,34.8c-45.3,25.6-65.5,71.5-65.5,148.8c0,73.7,16.8,115.6,57.7,145.1
		c45.6,28.4,118.3,40.7,243.2,40.7c136.1,0,210.7-11.8,257-40.7l0,0C1394.9,1647.9,1420.9,1593.7,1420.9,1527.6z"/>
</g>
</svg>
