<?xml version="1.0" encoding="utf-8"?>
<!-- Generator: Adobe Illustrator 26.0.2, SVG Export Plug-In . SVG Version: 6.00 Build 0)  -->
<svg version="1.1" id="レイヤー_1" xmlns="http://www.w3.org/2000/svg" xmlns:xlink="http://www.w3.org/1999/xlink" x="0px"
	 y="0px" viewBox="0 0 1971.6 1458.3" style="enable-background:new 0 0 1971.6 1458.3;" xml:space="preserve">
<style type="text/css">
	.st0{fill:url(#SVGID_1_);}
	.st1{fill:url(#SVGID_00000039820448638091743950000009472216672440235938_);}
</style>
<linearGradient id="SVGID_1_" gradientUnits="userSpaceOnUse" x1="-1184.3105" y1="7164.0635" x2="-1184.3105" y2="8622.3633" gradientTransform="matrix(1 0 0 1 1666.6636 -7164.0635)">
	<stop  offset="0" style="stop-color:#FFE900"/>
	<stop  offset="1" style="stop-color:#F38200"/>
</linearGradient>
<path class="st0" d="M482.6,1458.3c-80.1,0-148.5-14.7-203.7-43.3c-55.1-28.8-101.1-66.8-136.6-112.4
	c-35.6-46.1-63.3-97.6-82.1-152.7c-18.5-53.6-32.6-108.4-42.5-164.2C8.7,932.2,3.3,881.9,2,836.1C0.7,791,0,755.4,0,730.1
	c0-31.5,2-71.4,5.8-118.9l0,0c3.8-47.6,11.5-99.1,22.6-153.4C40.1,402,56.6,347.4,77.8,294.6c21.6-54.3,50.6-103.6,85.9-146.7
	c35.3-43.1,79.8-79.1,131.6-106.4C347,14,410,0,482.3,0c80.1,0,148.5,15,203.7,44.3S787,111.6,822.5,156.7
	c35.5,45.1,62.9,96.6,82.1,152.7c19,56.1,33.3,112.2,42.3,166.2C956,529.7,961.4,580,962.7,625s2,80.3,2,105.1
	c0,31.3-2,71.3-5.8,118.9c-3.8,47.6-11.7,99.4-22.6,153.4c-11.5,55.5-28,109.9-49.3,162.4c-21.3,53-50.1,102.4-85.9,146.7
	c-35.5,43.8-79.8,79.8-131.6,106.6C617.7,1444.6,554.7,1458.3,482.6,1458.3z M482.6,3.7c-71.4,0-133.7,13.8-185.2,41
	S202.2,107.2,167.2,150s-63.8,91.8-85.3,145.7c-21.1,52.6-37.6,107.1-49.1,162.7c-11.2,54.1-18.7,105.4-22.6,152.9l0,0
	c-3.8,47.3-5.8,87.3-5.8,118.6c0,25.3,0.7,61,1.8,105.9c1.3,45.5,6.7,95.6,15.7,148.9c9.2,53.3,23.3,108.2,42.3,163.7
	c18.5,54.6,46.1,105.9,81.4,151.5c35,45.3,80.6,82.8,135.2,111.4s122.6,43,201.8,43c71.4,0,133.7-13.5,185.2-40.1
	c51.5-26.6,95.1-62.1,130.2-105.4c35.6-44.1,64.3-93.1,85.3-145.7c21.3-52.3,37.6-106.4,49.1-161.7c11-54,18.7-105.2,22.6-152.9
	c4-47.6,5.8-87.6,5.8-118.6c0-24.8-0.7-60.1-2-104.9c-1.3-44.8-6.7-94.9-15.7-148.9c-9.2-53.8-23.3-109.6-42.3-165.5
	c-19-55.8-46.3-106.7-81.4-151.5c-35.1-44.8-80.6-82.3-135.2-111.4C629.8,18.5,561.9,3.7,482.6,3.7L482.6,3.7z M482.6,1432.3
	c-51.5,0-91.9-13.7-120.2-40.8c-28.3-27-50-69.3-64.4-125.6c-14.5-56.1-23.3-129.7-26.5-218.3l0,0c-3.3-88.3-4.8-195.2-4.8-318.2
	c0-124.2,1.7-231.5,4.8-319.1c3.3-88.1,12.2-161.2,26.5-217.3c14.5-56.5,36.1-98.6,64.4-125.6c28.5-27,68.9-40.8,120.2-40.8
	c51.3,0,91.8,12.5,120.2,36.8c28.3,24.5,50.1,64.9,64.4,120.7c14.5,55.5,23.3,128.7,26.6,217.5c3.3,88.8,4.8,199.2,4.8,328.1
	c0,122.2-1.7,229.3-4.8,318.2c-3.2,88.8-12.2,162.2-26.6,218.3c-14.5,56.5-36.1,98.6-64.4,125.6
	C574.5,1418.7,533.9,1432.3,482.6,1432.3z M482.6,30.3c-50.5,0-89.8,13.3-117.6,39.8c-27.8,26.5-49.1,68.1-63.3,123.7
	c-14.3,56-23.3,128.7-26.5,216.5c-3.3,87.6-4.8,194.8-4.8,318.9c0,122.9,1.7,229.8,4.8,317.9l0,0c3.2,88.4,12.2,161.7,26.5,217.5
	c14.2,55.6,35.5,97.3,63.3,123.7s67.3,39.6,117.6,39.6s89.8-13.3,117.6-39.6c27.8-26.3,49.1-68.1,63.3-123.7
	c14.3-56,23.3-129.1,26.5-217.5c3.3-88.8,4.8-195.8,4.8-317.9c0-128.7-1.7-239.1-4.8-327.7c-3.3-88.4-12.2-161.4-26.5-216.5
	c-14.2-55-35.5-94.9-63.1-118.7C572.5,42.3,532.9,30.3,482.6,30.3L482.6,30.3z"/>
<g>
	
		<linearGradient id="SVGID_00000054974944952233242180000009191316316362714007_" gradientUnits="userSpaceOnUse" x1="-179.8715" y1="7164.3979" x2="-179.8715" y2="8622.3633" gradientTransform="matrix(1 0 0 1 1666.6636 -7164.0635)">
		<stop  offset="0" style="stop-color:#FFE900"/>
		<stop  offset="1" style="stop-color:#F38200"/>
	</linearGradient>
	<path style="fill:url(#SVGID_00000054974944952233242180000009191316316362714007_);" d="M1400.2,1458.3
		c-66.6,0-121.9-7.3-164.5-21.6c-42.5-14.3-76.1-32.6-99.8-54.3c-23.8-21.8-40.1-45.1-48.6-69.4c-8.5-24.1-12.8-45.8-12.8-64.4
		c0-42.3,11.8-73.8,35-93.8c23.1-19.8,55.6-29.8,96.4-29.8c10.2,0,21.5,0.7,33.6,2c12,1.3,23.5,5.2,34.1,11
		c10.7,6,19.5,14.5,26.1,25.1c6.7,10.8,10.2,25.6,10.2,44.1c0,7.8-1.3,18.3-4,30.8c-2.5,11.7-5,24.1-7.8,38.3
		c-2.7,13.5-5.3,25.6-7.8,37.3c-2.5,11.5-3.8,21.3-3.8,29c0,21.8,3.8,38.6,11.5,50s17.7,20.2,29.6,25.8c12.2,5.8,25.5,9,39.5,9.7
		c13.7,0.7,26.8,1,39.1,1c60.6,0,110.4-17,147.9-50.5c37.5-33.6,67.8-80.6,89.8-139.6c22.1-59.1,37.3-130.2,45-211.5
		c7.8-80.8,11.7-169.5,11.8-263.8h-1c-7.8,11.7-17.5,24.8-29,39.5c-11.8,15.2-27.5,29.5-46.5,42.6c-19.2,13.2-43,24.1-71.1,32.6
		c-28.1,8.5-62.3,12.8-101.6,12.8c-60.1,0-117.9-11.7-171.5-34.5c-53.6-22.8-101.6-54.6-142.9-94.6c-41.3-40-74.4-87.4-98.6-140.9
		c-24.1-53.6-36.5-111.9-36.5-173.5c0-61.4,13.7-119.9,40.5-173.5l0,0c26.8-53.6,62.6-101.2,106.4-141.9
		c43.8-40.6,94.6-73.1,150.7-96.6c56.3-23.5,114.6-35.5,173.5-35.5c69.3,0,135.2,14,196,41.5s114.1,67.9,158.7,120.2
		c44.5,52.3,79.9,117.6,105.4,194c25.5,76.3,38.3,164.7,38.3,262.6c0,114.7-10.8,224.1-32.5,325.2c-21.5,101.1-56,190.8-102.2,266.4
		c-46.5,75.8-106.1,136.7-177.2,181.2C1588,1435.7,1500.8,1458.3,1400.2,1458.3z M1206,1128.6c-40,0-71.4,9.8-93.9,29
		c-22.3,19.2-33.6,49.6-33.6,90.8c0,18.2,4.3,39.3,12.7,63.1c8.3,23.8,24.3,46.6,47.6,67.9c23.3,21.3,56.5,39.3,98.4,53.6
		c42.1,14.3,97.1,21.5,163.2,21.5c99.9,0,186.3-22.3,257.1-66.4c70.6-44.1,129.9-104.6,176-179.9c46.1-75.4,80.4-164.7,101.7-265.3
		c21.5-100.8,32.3-209.8,32.3-324.4c0-97.6-12.8-185.5-38.1-261.3c-25.3-75.9-60.4-140.7-104.6-192.7
		c-44.1-51.8-97.1-91.9-157.4-119.2C1607.2,18,1541.7,4.2,1473,4.2c-58.3,0-116.2,11.8-172,35.1c-55.8,23.3-106.1,55.6-149.5,95.8
		c-43.5,40.3-78.9,87.6-105.6,140.7l0,0c-26.6,53.1-40,110.9-40,171.9s12.2,118.9,36.1,171.9c24,53.1,56.8,100.1,97.8,139.7
		s88.6,71.1,141.7,93.8c53.1,22.6,110.4,34.1,170,34.1c39,0,72.8-4.3,100.6-12.7c27.8-8.3,51.3-19.2,70.1-32.1
		c18.7-12.8,34.1-27,45.6-41.8c11.7-14.8,21.5-28.3,29.3-40.1l0.5-0.8h6.8v2c0,95.1-4,184.7-11.8,266.1c-7.8,81.4-23,153-45.3,212.5
		c-22.3,59.6-52.8,107.1-90.8,141.1c-38.1,34.1-88.8,51.5-150.4,51.5c-12.3,0-25.6-0.3-39.3-1c-14.5-0.7-28.3-4-41-10
		c-12.7-6-23.1-15.2-31.1-27.1c-8-12-12.2-29.6-12.2-52.1c0-8,1.3-18.2,4-29.8c2.5-11.7,5.2-23.8,7.8-37.3
		c2.8-14.2,5.3-26.6,7.8-38.3c2.5-12.3,3.8-22.5,3.8-30c0-17.8-3.2-32-9.5-42.1c-6.3-10.2-14.7-18.2-24.8-23.8s-21.1-9.3-32.6-10.7
		C1227.2,1129.2,1216,1128.6,1206,1128.6z M1465,863.6c-67.3,0-117.6-29.6-149.9-88.3l0,0c-32.1-58.1-48.3-156.5-48.3-292.4
		c0-99.1,6-179.5,17.7-238.8c11.8-59.5,27.6-105.9,47.3-138.1c19.8-32.3,42.8-53.6,68.6-63.6c25.6-9.8,52.6-14.8,80.1-14.8
		c23.5,0,48.8,3.7,75.1,10.8c26.5,7.3,51.3,27.3,73.6,59.6c22.3,32.1,40.8,82.3,55.3,148.9c14.3,66.6,21.6,161,21.6,281.1
		c0,32.8-1,64.3-3,93.4c-2,29.3-4.3,50.1-6.8,62.1c-11.8,56.5-38.8,101.1-80.3,132.6C1574.9,847.6,1524.1,863.6,1465,863.6z
		 M1480.8,31.5c-27.1,0-53.6,5-78.8,14.7c-25,9.7-47.5,30.5-66.8,61.9c-19.5,31.8-35.1,77.8-46.8,136.7
		c-11.7,59.1-17.7,139.2-17.7,238.1c0,135.2,16.2,233,47.8,290.4l0,0c31.5,57.3,80.8,86.3,146.5,86.3c58.1,0,108.2-15.7,148.9-46.6
		s67.1-74.8,78.8-130.4c2.7-11.8,4.8-32.5,6.8-61.6c2-29,3-60.3,3-93.1c0-119.7-7.2-214-21.5-280.3
		c-14.3-66.1-32.6-115.7-54.6-147.5c-21.8-31.5-46-51.1-71.6-58.1C1528.8,35.1,1503.9,31.5,1480.8,31.5z"/>
</g>
</svg>
