<?xml version="1.0" encoding="utf-8"?>
<!-- Generator: Adobe Illustrator 26.0.2, SVG Export Plug-In . SVG Version: 6.00 Build 0)  -->
<svg version="1.1" id="レイヤー_1" xmlns="http://www.w3.org/2000/svg" xmlns:xlink="http://www.w3.org/1999/xlink" x="0px"
	 y="0px" viewBox="0 0 1473.7 1982.3" style="enable-background:new 0 0 1473.7 1982.3;" xml:space="preserve">
<style type="text/css">
	.st0{fill:url(#SVGID_1_);}
	.st1{fill:url(#SVGID_00000061465682522463794350000000162945407437675960_);}
</style>
<linearGradient id="SVGID_1_" gradientUnits="userSpaceOnUse" x1="-1639.5038" y1="7440.3506" x2="-1639.5038" y2="8914.0498" gradientTransform="matrix(6.123234e-17 1 -1 6.123234e-17 8914.0498 2126.9502)">
	<stop  offset="0" style="stop-color:#FFE900"/>
	<stop  offset="1" style="stop-color:#F38200"/>
</linearGradient>
<path class="st0" d="M0,487.7c0-80.9,14.8-150.1,43.8-205.8c29.1-55.7,67.5-102.2,113.6-138c46.6-36,98.6-63.9,154.3-83
	c54.2-18.7,109.6-33,165.9-42.9c54-9.3,104.8-14.6,151.1-16c45.6-1.3,81.6-2,107.2-2c31.8,0,72.2,2,120.2,5.9l0,0
	c48.1,3.9,100.1,11.6,155,22.9c56.4,11.8,111.6,28.4,164.9,49.8c54.9,21.9,104.7,51.2,148.3,86.8c43.6,35.7,79.9,80.6,107.5,132.9
	c27.8,52.3,41.9,116,41.9,189c0,80.9-15.1,150.1-44.8,205.8c-29.6,55.7-68,102.2-113.6,138c-45.6,35.8-97.6,63.6-154.3,83
	c-56.7,19.2-113.4,33.7-168,42.7c-54.7,9.3-105.5,14.6-151,16c-45.4,1.3-81.1,2-106.2,2c-31.6,0-72-2-120.2-5.9
	s-100.5-11.8-155-22.9c-56-11.6-111.1-28.3-164.1-49.8c-53.5-21.5-103.5-50.7-148.3-86.8c-44.3-35.8-80.6-80.6-107.7-132.9
	C13.8,624.2,0,560.6,0,487.7z M1470,487.7c0-72.2-14-135.1-41.4-187.1c-27.4-52-63.3-96.3-106.5-131.6s-92.7-64.5-147.3-86.2
	c-53.2-21.4-108.2-38-164.4-49.6c-54.7-11.3-106.5-18.8-154.5-22.9l0,0c-47.8-3.9-88.2-5.9-119.8-5.9c-25.6,0-61.6,0.7-107,1.9
	C583.1,7.6,532.5,13,478.6,22c-53.9,9.3-109.4,23.6-165.4,42.7c-55.2,18.7-107,46.6-153.1,82.3c-45.8,35.3-83.6,81.5-112.6,136.6
	S4,407.6,4,487.7c0,72.2,13.6,135.1,40.6,187.1s62.8,96.1,106.5,131.6c44.6,36,94.1,65,147.3,86.2c52.8,21.5,107.5,38,163.4,49.6
	c54.5,11.1,106.4,18.8,154.5,22.9s88.5,5.9,119.8,5.9c25.1,0,60.8-0.7,106-2c45.3-1.3,95.9-6.7,150.4-15.8
	c54.4-9.3,110.7-23.6,167.3-42.7c56.4-19.2,107.9-46.8,153.1-82.3c45.3-35.5,83.1-81.5,112.6-136.7
	C1455,636.5,1470,567.8,1470,487.7L1470,487.7z M26.3,487.7c0-52,13.8-92.9,41.2-121.5c27.3-28.6,70-50.5,126.9-65.1
	c56.7-14.6,131.1-23.6,220.6-26.8l0,0c89.2-3.4,197.2-4.9,321.6-4.9c125.5,0,233.9,1.7,322.4,4.9c89,3.4,162.9,12.3,219.6,26.8
	c57,14.6,99.6,36.5,126.9,65.1c27.3,28.8,41.2,69.7,41.2,121.5c0,51.8-12.6,92.7-37.2,121.5c-24.7,28.6-65.6,50.7-122,65.1
	c-56,14.6-130.1,23.6-219.8,26.9c-89.7,3.4-201.3,4.9-331.5,4.9c-123.5,0-231.7-1.7-321.6-4.9C325,698.1,250.7,689,194,674.3
	c-57-14.6-99.6-36.5-126.9-65.1C40.1,580.6,26.3,539.5,26.3,487.7z M1443.1,487.7c0-51-13.5-90.7-40.2-118.8
	c-26.8-28.1-68.8-49.6-125-63.9c-56.5-14.5-130.1-23.6-218.8-26.8c-88.5-3.4-196.9-4.9-322.3-4.9c-124.2,0-232.2,1.7-321.3,4.9l0,0
	c-89.4,3.2-163.4,12.3-219.8,26.8c-56.2,14.3-98.3,35.8-125,63.9s-40.1,68-40.1,118.8s13.5,90.7,40.1,118.8
	c26.6,28.1,68.8,49.6,125,63.9c56.5,14.5,130.4,23.6,219.8,26.8c89.7,3.4,197.9,4.9,321.3,4.9c130.1,0,241.7-1.7,331.2-4.9
	c89.4-3.4,163.1-12.3,218.8-26.8c55.5-14.3,95.9-35.8,120-63.8C1431,578.6,1443.1,538.5,1443.1,487.7L1443.1,487.7z"/>
<g>
	
		<linearGradient id="SVGID_00000080913687681875345310000014493058294806136245_" gradientUnits="userSpaceOnUse" x1="-634.5637" y1="7440.688" x2="-634.5637" y2="8914.0498" gradientTransform="matrix(6.123234e-17 1 -1 6.123234e-17 8914.0498 2126.9502)">
		<stop  offset="0" style="stop-color:#FFE900"/>
		<stop  offset="1" style="stop-color:#F38200"/>
	</linearGradient>
	<path style="fill:url(#SVGID_00000080913687681875345310000014493058294806136245_);" d="M0,1404.9c0-67.3,7.4-123.2,21.9-166.3
		c14.5-42.9,33-76.9,54.9-100.8c22-24.1,45.6-40.6,70.2-49.1c24.4-8.6,46.3-13,65.1-13c42.7,0,74.6,11.9,94.7,35.3
		c20,23.4,30.1,56.2,30.1,97.4c0,10.3-0.7,21.7-2,34c-1.3,12.1-5.2,23.7-11.1,34.5c-6.1,10.8-14.6,19.7-25.4,26.4
		c-10.9,6.7-25.9,10.3-44.6,10.3c-7.9,0-18.5-1.3-31.1-4c-11.8-2.5-24.4-5-38.7-7.9c-13.6-2.7-25.9-5.4-37.7-7.9
		c-11.6-2.5-21.5-3.9-29.3-3.9c-22,0-39,3.9-50.5,11.6s-20.4,17.8-26.1,30c-5.9,12.3-9.1,25.7-9.8,39.9c-0.7,13.8-1,27.1-1,39.5
		c0,61.3,17.2,111.6,51,149.4c34,37.9,81.5,68.5,141,90.7c59.7,22.4,131.6,37.7,213.7,45.4c81.6,7.9,171.3,11.8,266.6,11.9v-1
		c-11.8-7.9-25.1-17.7-39.9-29.3c-15.3-11.9-29.8-27.8-43.1-47c-13.3-19.4-24.4-43.4-33-71.9c-8.6-28.4-13-62.9-13-102.7
		c0-60.8,11.8-119.1,34.8-173.3c23.1-54.2,55.2-102.7,95.6-144.4c40.4-41.7,88.4-75.2,142.4-99.6c54.2-24.4,113.1-36.9,175.4-36.9
		c62.1,0,121.2,13.8,175.4,40.9l0,0c54.2,27.1,102.3,63.3,143.4,107.5c41.1,44.3,73.9,95.6,97.6,152.3
		c23.7,56.9,35.8,115.8,35.8,175.4c0,70-14.1,136.7-41.9,198.1s-68.7,115.3-121.5,160.4c-52.8,44.9-118.8,80.8-196.1,106.5
		c-77.1,25.7-166.4,38.7-265.4,38.7c-116,0-226.5-10.9-328.7-32.8c-102.2-21.7-192.9-56.5-269.3-103.3
		c-76.6-47-138.2-107.2-183.1-179.1C22.9,1594.7,0,1506.5,0,1404.9z M333.2,1208.7c0-40.4-9.9-72.2-29.3-94.9
		c-19.4-22.6-50.1-34-91.7-34c-18.3,0-39.7,4.4-63.8,12.8s-47.1,24.6-68.7,48.1c-21.5,23.6-39.7,57-54.2,99.5
		c-14.5,42.6-21.7,98.1-21.7,164.9c0,101,22.6,188.3,67.1,259.8c44.6,71.4,105.7,131.3,181.8,177.9
		c76.2,46.6,166.4,81.3,268.1,102.8c101.8,21.7,212,32.6,327.8,32.6c98.6,0,187.5-13,264-38.5c76.7-25.6,142.2-61.1,194.7-105.7
		c52.3-44.6,92.9-98.1,120.5-159c27.6-60.9,41.6-127.1,41.6-196.6c0-58.9-11.9-117.5-35.5-173.8c-23.6-56.4-56.2-107.2-96.8-151.1
		c-40.7-43.9-88.5-79.8-142.2-106.7l0,0c-53.7-26.9-112.1-40.4-173.7-40.4s-120.2,12.3-173.7,36.5c-53.7,24.2-101.1,57.4-141.2,98.8
		s-71.9,89.5-94.7,143.2c-22.9,53.7-34.5,111.6-34.5,171.8c0,39.4,4.4,73.5,12.8,101.6c8.4,28.1,19.4,51.8,32.5,70.8
		c13,18.8,27.3,34.5,42.2,46.1c15,11.8,28.6,21.7,40.6,29.6l0.8,0.5v6.9h-2c-96.1,0-186.6-4-268.9-11.9
		c-82.3-7.9-154.7-23.2-214.7-45.8c-60.2-22.6-108.2-53.3-142.5-91.7c-34.5-38.5-52-89.7-52-152c0-12.5,0.3-25.9,1-39.7
		c0.7-14.6,4-28.6,10.1-41.4s15.3-23.4,27.4-31.5c12.1-8.1,30-12.3,52.7-12.3c8.1,0,18.3,1.3,30.1,4c11.8,2.5,24.1,5.2,37.7,7.9
		c14.3,2.9,26.9,5.4,38.7,7.9c12.5,2.5,22.7,3.9,30.3,3.9c18,0,32.3-3.2,42.6-9.6c10.3-6.4,18.3-14.8,24.1-25.1
		c5.7-10.3,9.4-21.4,10.8-33C332.5,1230,333.2,1218.8,333.2,1208.7z M601,1470.3c0-68,30-118.8,89.2-151.5l0,0
		c58.7-32.5,158.2-48.8,295.5-48.8c100.1,0,181.4,6.1,241.3,17.8c60.1,11.9,107,27.9,139.5,47.8c32.6,20,54.2,43.3,64.3,69.3
		c9.9,25.9,15,53.2,15,80.9c0,23.7-3.7,49.3-10.9,75.9c-7.4,26.8-27.6,51.8-60.2,74.4c-32.5,22.6-83.1,41.2-150.4,55.9
		c-67.3,14.5-162.7,21.9-284.1,21.9c-33.2,0-65-1-94.4-3c-29.6-2-50.7-4.4-62.8-6.9c-57-11.9-102.2-39.2-134-81.1
		C617.1,1581.4,601,1530.1,601,1470.3z M1441.9,1486.3c0-27.4-5-54.2-14.8-79.6c-9.8-25.2-30.8-48-62.6-67.5
		c-32.1-19.7-78.6-35.5-138.2-47.3c-59.7-11.8-140.7-17.8-240.7-17.8c-136.7,0-235.4,16.3-293.5,48.3l0,0
		c-57.9,31.8-87.2,81.6-87.2,148.1c0,58.7,15.8,109.4,47.1,150.4c31.3,41.1,75.6,67.8,131.8,79.6c11.9,2.7,32.8,4.9,62.3,6.9
		c29.3,2,60.9,3,94.1,3c121,0,216.3-7.2,283.2-21.7c66.8-14.5,117-33,149.1-55.2c31.8-22,51.7-46.4,58.7-72.4
		C1438.2,1534.8,1441.9,1509.7,1441.9,1486.3z"/>
</g>
</svg>
