<?xml version="1.0" encoding="utf-8"?>
<!-- Generator: Adobe Illustrator 26.0.2, SVG Export Plug-In . SVG Version: 6.00 Build 0)  -->
<svg version="1.1" id="レイヤー_1" xmlns="http://www.w3.org/2000/svg" xmlns:xlink="http://www.w3.org/1999/xlink" x="0px"
	 y="0px" viewBox="0 0 1673.5 1458.3" style="enable-background:new 0 0 1673.5 1458.3;" xml:space="preserve">
<style type="text/css">
	.st0{fill:url(#SVGID_1_);}
	.st1{fill:url(#SVGID_00000021824295087311158870000002467085252276022673_);}
</style>
<linearGradient id="SVGID_1_" gradientUnits="userSpaceOnUse" x1="2417.8501" y1="397.39" x2="961.45" y2="397.39" gradientTransform="matrix(6.123234e-17 -1 -1 -6.123234e-17 1588.6401 2419.6499)">
	<stop  offset="0" style="stop-color:#FFE900"/>
	<stop  offset="1" style="stop-color:#F38200"/>
</linearGradient>
<path class="st0" d="M1191.4,1458.2c-79.9,0-148.3-14.6-203.4-43.3c-55.1-28.7-100.9-66.6-136.3-112.3
	c-35.5-46-63.2-97.5-81.9-152.5c-18.5-53.5-32.6-108.3-42.4-164c-9.1-53.4-14.4-103.6-15.8-149.3c-1.3-45-2-80.6-2-105.9
	c0-31.5,2-71.4,5.9-118.8l0,0c3.9-47.5,11.5-99,22.6-153.1c11.6-55.7,28.1-110.2,49.3-163c21.6-54.2,50.5-103.5,85.8-146.5
	s79.6-78.9,131.3-106.3s114.6-41.4,186.7-41.4c79.9,0,148.3,14.9,203.4,44.3s100.9,67.2,136.3,112.3s62.9,96.4,81.9,152.5
	s33.2,112,42.3,165.9c9.1,54.1,14.4,104.3,15.8,149.2c1.4,44.9,2,80.2,2,104.9c0,31.2-2,71.1-5.9,118.7s-11.6,99.2-22.6,153.1
	c-11.5,55.4-28,109.7-49.3,162.1c-21.2,52.8-50.1,102.2-85.8,146.5c-35.4,43.8-79.6,79.6-131.4,106.4
	C1326.3,1444.7,1263.5,1458.2,1191.4,1458.2z M1191.4,5.8c-71.4,0-133.6,13.8-184.9,40.9c-51.3,27.1-95.1,62.6-130.1,105.3
	s-63.7,91.7-85.2,145.5c-21.1,52.6-37.5,106.9-49.1,162.4c-11.1,54-18.7,105.3-22.6,152.6l0,0c-3.9,47.2-5.9,87.1-5.9,118.4
	c0,25.3,0.7,60.9,1.9,105.8c1.3,45.4,6.6,95.5,15.7,148.7c9.1,53.2,23.3,108.1,42.2,163.4c18.5,54.6,46,105.7,81.3,151.3
	c35,45.3,80.4,82.7,135,111.2s122.3,42.9,201.6,42.9c71.4,0,133.6-13.4,184.9-40s95-62,130.1-105.3c35.5-44,64.2-93,85.2-145.5
	c21.2-52.2,37.6-106.2,49-161.4c11-53.8,18.6-105.1,22.6-152.7S1669,762,1669,731c0-24.7-0.7-60-2-104.8s-6.6-94.8-15.7-148.7
	c-9.1-53.7-23.3-109.4-42.2-165.3c-18.9-55.7-46.2-106.6-81.3-151.3c-35.1-44.7-80.5-82.1-135-111.2
	C1338.5,20.7,1270.6,5.8,1191.4,5.8L1191.4,5.8z M1191.4,1432.4c-51.3,0-91.8-13.7-120.1-40.7c-28.3-27-49.9-69.1-64.3-125.4
	c-14.4-56.1-23.3-129.5-26.5-218l0,0c-3.3-88.1-4.9-194.9-4.9-317.7c0-124,1.7-231.2,4.9-318.6c3.3-87.9,12.2-160.9,26.5-217
	c14.4-56.3,36.1-98.5,64.3-125.4c28.4-27,68.8-40.8,120.1-40.8c51.3,0,91.7,12.4,120,36.8s50,64.9,64.4,120.6
	c14.4,55.4,23.3,128.5,26.6,217.1c3.3,88.6,4.9,198.9,4.9,327.5c0,122.1-1.7,229-4.9,317.7c-3.2,88.7-12.2,162-26.6,218
	c-14.4,56.3-36,98.5-64.3,125.4S1242.7,1432.4,1191.4,1432.4z M1191.4,32.6c-50.3,0-89.7,13.3-117.4,39.7
	c-27.7,26.4-49,68-63.2,123.5c-14.3,55.8-23.2,128.6-26.4,216.2c-3.3,87.4-4.9,194.5-4.9,318.5c0,122.7,1.7,229.5,4.9,317.5l0,0
	c3.2,88.3,12.1,161.4,26.4,217.2c14.2,55.6,35.5,97.1,63.2,123.5s67.1,39.6,117.4,39.6s89.7-13.3,117.4-39.6
	c27.7-26.3,49-68,63.2-123.5c14.3-55.8,23.2-128.9,26.5-217.2c3.3-88.7,4.9-195.5,4.9-317.5c0-128.5-1.7-238.7-4.9-327.3
	c-3.3-88.3-12.2-161.1-26.4-216.2c-14.2-54.9-35.4-94.8-63.1-118.6S1241.7,32.6,1191.4,32.6L1191.4,32.6z"/>
<linearGradient id="SVGID_00000176743086725119379370000010869978541930200458_" gradientUnits="userSpaceOnUse" x1="2419.5498" y1="1238.8401" x2="961.45" y2="1238.8401" gradientTransform="matrix(6.123234e-17 -1 -1 -6.123234e-17 1588.6401 2419.6499)">
	<stop  offset="0" style="stop-color:#FFE900"/>
	<stop  offset="1" style="stop-color:#F38200"/>
</linearGradient>
<path style="fill:url(#SVGID_00000176743086725119379370000010869978541930200458_);" d="M699.5,1458.2H89.3v-32h185v-1239
	c-42,23.3-84.7,47.6-126.9,72.3c-43.4,25.4-86.4,50.3-127.9,74l-1.7,1L0,305.1l1.7-1c45.6-27,87.9-51.9,126-74
	c36.6-21.2,71.3-42.7,103.2-63.9s64.7-45,97.3-70.8s69.1-57.7,108.2-94.8l0.6-0.5h81.6v1426.3h181L699.5,1458.2L699.5,1458.2z
	 M93.3,1454.2h602.2v-24h-181V4h-76c-39,36.9-75.3,68.7-107.9,94.5s-65.6,49.8-97.6,71s-66.8,42.7-103.4,64
	c-37.5,21.8-79.3,46.3-124.2,72.9L19.1,329c40.9-23.4,83.4-47.9,126.2-73c43.2-25.3,86.9-50.1,129.9-74l3-1.6v1249.9h-185v24
	C93.2,1454.2,93.3,1454.2,93.3,1454.2z"/>
</svg>
