<?xml version="1.0" encoding="utf-8"?>
<!-- Generator: Adobe Illustrator 25.4.1, SVG Export Plug-In . SVG Version: 6.00 Build 0)  -->
<svg version="1.1" id="レイヤー_1" xmlns="http://www.w3.org/2000/svg" xmlns:xlink="http://www.w3.org/1999/xlink" x="0px"
	 y="0px" viewBox="0 0 181.5 1689.3" style="enable-background:new 0 0 181.5 1689.3;" xml:space="preserve">
<style type="text/css">
	.st0{fill:url(#SVGID_1_);}
	.st1{fill:url(#SVGID_00000063613789595895792380000008533925146872190896_);}
	.st2{fill:url(#SVGID_00000124865492397220572240000018402264404203252414_);}
	.st3{fill:url(#SVGID_00000150080025157958007670000005769484266705201538_);}
	.st4{fill:url(#SVGID_00000158734177008286711760000015699630936135733396_);}
	.st5{fill:url(#SVGID_00000055668274225126755070000004257931536805117867_);}
	.st6{fill:url(#SVGID_00000102517273112432817980000009758238083431547288_);}
	.st7{fill:url(#SVGID_00000011716646662939124670000005864661780463005857_);}
	.st8{fill:url(#SVGID_00000000936057795494882720000010536989197241788082_);}
	.st9{fill:url(#SVGID_00000074434648914260622970000016872960031636509318_);}
	.st10{fill:url(#SVGID_00000052088460265150589780000012756563634147345335_);}
	.st11{fill:url(#SVGID_00000134970600250061286710000004801645031803199127_);}
	.st12{fill:url(#SVGID_00000160879932182259599840000009615336171816842675_);}
	.st13{fill:url(#SVGID_00000140706339000926056520000016793571661970107264_);}
	.st14{fill:url(#SVGID_00000046333094841252669690000013714931944533057981_);}
	.st15{fill:url(#SVGID_00000136386346712280121430000004183797384166771091_);}
	.st16{fill:url(#SVGID_00000133520535784192571710000016978176406274454702_);}
	.st17{fill:url(#SVGID_00000102504112767279349550000016730542583284603817_);}
</style>
<g>
	
		<linearGradient id="SVGID_1_" gradientUnits="userSpaceOnUse" x1="-6721.229" y1="-74.1714" x2="-6721.1191" y2="-79.0413" gradientTransform="matrix(0 27.63 -48.33 0 -3613.9333 185757.8594)">
		<stop  offset="0" style="stop-color:#FFD800"/>
		<stop  offset="1" style="stop-color:#A25200"/>
	</linearGradient>
	<path class="st0" d="M0.7,29.2l92.5,33.6V46L0.7,12.4V0.2l168.2,61.2c6.9,2.8,11.6,9.2,12.1,16.5v16.9c0,6.7-5.6,10.1-12.1,7.7
		L0.7,41.4V29.2z M95.9,63.8l77.6,28.2c1.6,0.9,3.6,0.3,4.5-1.3c0,0,0,0,0,0c0.3-0.6,0.4-1.2,0.4-1.8v-7c-0.2-3-2.1-5.6-4.9-6.7
		L95.9,47V63.8z"/>
	
		<linearGradient id="SVGID_00000160881097973592119260000000950788664022448822_" gradientUnits="userSpaceOnUse" x1="-6719.147" y1="-74.1649" x2="-6719.0269" y2="-79.0448" gradientTransform="matrix(0 28.62 -48.33 0 -3611.3552 192440.5156)">
		<stop  offset="0" style="stop-color:#FFD800"/>
		<stop  offset="1" style="stop-color:#A25200"/>
	</linearGradient>
	<path style="fill:url(#SVGID_00000160881097973592119260000000950788664022448822_);" d="M3.4,100v29l-2.7-1V86.8l180.3,65.7v41.1
		l-2.7-1v-29l-82.5-30v12.7l-2.7-1v-12.7L3.4,100z"/>
	
		<linearGradient id="SVGID_00000111894978534598583190000003878612699162343610_" gradientUnits="userSpaceOnUse" x1="-6715.8594" y1="-74.2422" x2="-6715.7495" y2="-79.122" gradientTransform="matrix(0 26.65 -48.28 0 -3614.1001 179202.6875)">
		<stop  offset="0" style="stop-color:#FFD800"/>
		<stop  offset="1" style="stop-color:#A25200"/>
	</linearGradient>
	<path style="fill:url(#SVGID_00000111894978534598583190000003878612699162343610_);" d="M180.5,250.9v16.9
		c0,6.7-5.4,10.2-12.1,7.7L105,252.4c-4.9-2-8.8-5.8-10.9-10.7c-2.4,3.5-7.1,4.7-10.9,2.8l-70.7-25.7c-6.9-2.7-11.6-9.1-12.2-16.5
		v-16.9c0-6.7,5.4-10.2,12.2-7.7l70.7,25.7c4.9,2,8.8,5.8,10.9,10.7c2.5-3.5,7.1-4.6,10.9-2.7l63.4,23.1
		C175.3,237.1,180,243.5,180.5,250.9z M178,254.9c-0.3-3-2.2-5.6-5.1-6.7l-72.7-26.5c-1.6-0.9-3.6-0.3-4.5,1.3
		c-0.3,0.5-0.4,1.2-0.4,1.8v7.1c0.2,3,2.1,5.6,4.9,6.7l72.7,26.5c2.7,1,5.1-0.3,5.1-3V254.9z M92.8,231.6v-7.1
		c-0.2-3-2.1-5.6-4.9-6.7L8,188.8c-2.7-1-5.1,0.3-5.1,3.1v7c0.3,3,2.2,5.7,5.1,6.8l79.9,29.1c1.6,0.9,3.6,0.3,4.5-1.3
		C92.7,232.9,92.8,232.3,92.8,231.6z"/>
	
		<linearGradient id="SVGID_00000118364178184236011700000011526009563998211743_" gradientUnits="userSpaceOnUse" x1="-6713.7759" y1="-74.2462" x2="-6713.6558" y2="-79.1261" gradientTransform="matrix(0 26.65 -48.28 0 -3621.8188 179227.5469)">
		<stop  offset="0" style="stop-color:#FFD800"/>
		<stop  offset="1" style="stop-color:#A25200"/>
	</linearGradient>
	<path style="fill:url(#SVGID_00000118364178184236011700000011526009563998211743_);" d="M180.5,331.5v17c0,6.5-5.4,10-12.1,7.5
		l-31.7-11.5v-12l36.4,13.3c1.7,0.9,3.7,0.2,4.6-1.5c0.3-0.6,0.4-1.2,0.4-1.8v-6.9c-0.1-3.1-2.1-5.8-4.9-6.9l-77.7-28.2V315
		c0,8-6.5,12.1-14.5,9.2l-68.3-24.9c-6.9-2.7-11.6-9-12.2-16.4v-17.1c0-6.7,5.4-10.2,12.2-7.7l80.3,29.2l2.5,0.9l73.1,26.6
		C175.3,317.7,180,324.1,180.5,331.5z M92.8,306.1v-6.5L8,268.7c-1.7-0.9-3.7-0.3-4.6,1.3c0,0,0,0,0,0c-0.3,0.6-0.5,1.2-0.4,1.9v6.9
		c0.3,3.1,2.2,5.7,5.1,6.9l78.8,28.7c2,1.1,4.5,0.3,5.5-1.7c0.4-0.7,0.5-1.4,0.5-2.1L92.8,306.1z"/>
	
		<linearGradient id="SVGID_00000005949154285420895170000008974948709719582879_" gradientUnits="userSpaceOnUse" x1="-6709.4429" y1="-74.2361" x2="-6709.3228" y2="-79.106" gradientTransform="matrix(0 27.63 -48.28 0 -3613.9985 185848.6406)">
		<stop  offset="0" style="stop-color:#FFD800"/>
		<stop  offset="1" style="stop-color:#A25200"/>
	</linearGradient>
	<path style="fill:url(#SVGID_00000005949154285420895170000008974948709719582879_);" d="M180.9,482.4v29c0,6.7-5.4,10.2-12.1,7.7
		l-63.4-23.1c-5.5-2.2-9.7-6.8-11.4-12.5c-1.6,4.3-6.2,6.1-11.6,4.1L0.7,458v-12.1l83.9,30.5c2.8,1.5,6.3,0.5,7.8-2.2
		c0.5-1,0.8-2.1,0.7-3.2v-8.5L0.7,428.8v-12l92.5,33.7l2.5,0.9l82.7,30.1L180.9,482.4z M178.4,493.5l-82.7-30.1v8.5
		c0.4,5.2,3.7,9.7,8.5,11.6l65.6,23.9c2.8,1.5,6.3,0.5,7.8-2.3c0.5-1,0.8-2,0.7-3.1V493.5z"/>
	
		<linearGradient id="SVGID_00000070078400809132127680000013525644316891767426_" gradientUnits="userSpaceOnUse" x1="-6708.1323" y1="-74.1562" x2="-6708.0127" y2="-79.0361" gradientTransform="matrix(0 28.62 -48.33 0 -3611.3552 192542.1094)">
		<stop  offset="0" style="stop-color:#FFD800"/>
		<stop  offset="1" style="stop-color:#A25200"/>
	</linearGradient>
	<path style="fill:url(#SVGID_00000070078400809132127680000013525644316891767426_);" d="M3.4,516.8v29l-2.7-1v-41.1l180.3,65.6
		v41.2l-2.7-1v-29l-82.5-30v12.7l-2.7-1v-12.7L3.4,516.8z"/>
	
		<linearGradient id="SVGID_00000139982122049071286410000009402221962303637645_" gradientUnits="userSpaceOnUse" x1="-6704.5239" y1="-74.1528" x2="-6704.4038" y2="-79.0226" gradientTransform="matrix(0 26.65 -48.34 0 -3603.6794 179307.8906)">
		<stop  offset="0" style="stop-color:#FFD800"/>
		<stop  offset="1" style="stop-color:#A25200"/>
	</linearGradient>
	<path style="fill:url(#SVGID_00000139982122049071286410000009402221962303637645_);" d="M180.9,658.1v17c0,6.7-5.6,10.1-12.1,7.7
		l-39.5-14.4v-12.1l44.1,16c1.6,0.8,3.7,0.2,4.5-1.4c0.3-0.6,0.4-1.2,0.4-1.9v-6.9c-0.2-3-2.1-5.7-4.9-6.8l-72.7-26.5
		c-1.7-0.8-3.7-0.2-4.5,1.5c-0.3,0.5-0.4,1.2-0.3,1.8v12c0,6.7-5.4,10.2-12.1,7.7L12.7,626c-6.9-2.7-11.6-9.2-12.2-16.5v-17.1
		c0-6.5,5.6-9.9,12.2-7.5l34.4,12.5v12l-39-14.2c-1.7-0.8-3.7-0.2-4.6,1.5c-0.3,0.6-0.4,1.2-0.3,1.8v6.9c0.1,3,2.1,5.7,4.9,6.8
		L88,641.4c1.7,0.9,3.8,0.3,4.7-1.3c0,0,0,0,0,0c0.3-0.6,0.4-1.2,0.4-1.8v-12c0-6.5,5.4-10,12-7.6l63.6,23.2
		C175.6,644.4,180.3,650.8,180.9,658.1z"/>
	
		<linearGradient id="SVGID_00000093895938459551426230000009766520899229572535_" gradientUnits="userSpaceOnUse" x1="-6700.2207" y1="-74.2414" x2="-6700.1006" y2="-79.1113" gradientTransform="matrix(0 25.4 -48.28 0 -3621.7251 170904.0938)">
		<stop  offset="0" style="stop-color:#FFD800"/>
		<stop  offset="1" style="stop-color:#A25200"/>
	</linearGradient>
	<path style="fill:url(#SVGID_00000093895938459551426230000009766520899229572535_);" d="M180.9,738.3v29.2l-2.5-0.9v-17L0.7,684.9
		v-12.2l177.6,64.7v-20.1l2.5,0.9V738.3z"/>
	
		<linearGradient id="SVGID_00000016059715054836498070000006389624479784662961_" gradientUnits="userSpaceOnUse" x1="-6700.5205" y1="-74.1715" x2="-6700.4004" y2="-79.0414" gradientTransform="matrix(0 26.65 -48.33 0 -3621.699 179353.0312)">
		<stop  offset="0" style="stop-color:#FFD800"/>
		<stop  offset="1" style="stop-color:#A25200"/>
	</linearGradient>
	<path style="fill:url(#SVGID_00000016059715054836498070000006389624479784662961_);" d="M180.9,810.1v17c0,6.7-5.6,10.1-12.1,7.7
		L12.7,778.1c-6.9-2.8-11.6-9.2-12.2-16.6v-17c0-6.5,5.6-9.9,12.2-7.5l156.1,56.8C175.6,796.5,180.3,802.8,180.9,810.1z
		 M178.2,814.2c-0.2-3-2.1-5.7-4.9-6.9L8.1,747.2c-1.7-0.8-3.7-0.2-4.5,1.5c-0.3,0.5-0.4,1.2-0.3,1.8v7.1c0.2,3,2.1,5.6,4.9,6.7
		l165.1,60.1c1.6,0.9,3.6,0.3,4.5-1.3c0.3-0.5,0.4-1.2,0.4-1.8L178.2,814.2z"/>
	
		<linearGradient id="SVGID_00000047032404471032464030000017746937988876141503_" gradientUnits="userSpaceOnUse" x1="-6698.7744" y1="-74.2366" x2="-6698.6646" y2="-79.1064" gradientTransform="matrix(0 27.63 -48.28 0 -3613.9985 185956.5156)">
		<stop  offset="0" style="stop-color:#FFD800"/>
		<stop  offset="1" style="stop-color:#A25200"/>
	</linearGradient>
	<path style="fill:url(#SVGID_00000047032404471032464030000017746937988876141503_);" d="M180.9,884.9v29c0,6.7-5.4,10.2-12.1,7.7
		l-63.4-23.1c-5.5-2.2-9.7-6.8-11.4-12.5c-1.6,4.3-6.2,6.1-11.6,4.1L0.7,860.5v-12.1l83.9,30.5c2.8,1.5,6.3,0.5,7.8-2.3
		c0.5-1,0.8-2.1,0.7-3.2V865L0.7,831.3v-12L93.2,853l2.5,0.9l82.6,30.1L180.9,884.9z M178.4,896l-82.7-30.1v8.5
		c0.4,5.2,3.7,9.7,8.5,11.6l65.6,23.9c2.8,1.5,6.3,0.5,7.8-2.3c0.5-1,0.8-2.1,0.7-3.2V896z"/>
	
		<linearGradient id="SVGID_00000173847945657912027360000006530267150117485971_" gradientUnits="userSpaceOnUse" x1="-6697.8374" y1="-74.1563" x2="-6697.7173" y2="-79.0362" gradientTransform="matrix(0 28.62 -48.33 0 -3611.3552 192649.9844)">
		<stop  offset="0" style="stop-color:#FFD800"/>
		<stop  offset="1" style="stop-color:#A25200"/>
	</linearGradient>
	<path style="fill:url(#SVGID_00000173847945657912027360000006530267150117485971_);" d="M3.4,919.3v29l-2.7-1v-41.1l180.3,65.6
		v41.2l-2.7-1v-29l-82.5-30v12.7l-2.7-1V952L3.4,919.3z"/>
	
		<linearGradient id="SVGID_00000088816602044519235310000009917060446324944283_" gradientUnits="userSpaceOnUse" x1="-6691.9907" y1="-74.2353" x2="-6691.8706" y2="-79.1052" gradientTransform="matrix(0 27.63 -48.28 0 -3621.7251 186023.8438)">
		<stop  offset="0" style="stop-color:#FFD800"/>
		<stop  offset="1" style="stop-color:#A25200"/>
	</linearGradient>
	<path style="fill:url(#SVGID_00000088816602044519235310000009917060446324944283_);" d="M180.9,1139.9v29c0,6.7-5.4,10.2-12.1,7.7
		l-63.4-23.1c-6.9-2.7-11.6-9.2-12.1-16.6v-16.9l-92.5-33.6v-12.2l92.4,33.7l2.5,0.9l82.7,30.1L180.9,1139.9z M178.4,1151.2
		l-82.7-30.1v8.3c0.4,5.2,3.7,9.7,8.5,11.6l65.6,23.9c2.8,1.5,6.3,0.5,7.8-2.3c0.5-1,0.8-2.1,0.7-3.2V1151.2z"/>
	
		<linearGradient id="SVGID_00000170989055926161113540000012226544530812494004_" gradientUnits="userSpaceOnUse" x1="-6690.4331" y1="-74.253" x2="-6690.3232" y2="-79.1229" gradientTransform="matrix(0 27.62 -48.28 0 -3613.9985 186000.9844)">
		<stop  offset="0" style="stop-color:#FFD800"/>
		<stop  offset="1" style="stop-color:#A25200"/>
	</linearGradient>
	<path style="fill:url(#SVGID_00000170989055926161113540000012226544530812494004_);" d="M180.9,1226.7v29c0,6.7-5.4,10.2-12.1,7.7
		l-63.4-23.1c-5.5-2.2-9.7-6.8-11.4-12.5c-1.6,4.3-6.2,6.1-11.6,4.1l-81.6-29.7v-12.1l83.9,30.6c2.8,1.5,6.3,0.5,7.8-2.3
		c0.5-1,0.8-2.1,0.7-3.2v-8.5l-92.5-33.6v-12l92.5,33.6l2.5,0.9l82.7,30.1L180.9,1226.7z M178.4,1237.7l-82.7-30v8.5
		c0.4,5.2,3.7,9.7,8.5,11.6l65.6,23.9c2.8,1.5,6.3,0.5,7.8-2.3c0.5-1,0.8-2,0.7-3.1V1237.7z"/>
	
		<linearGradient id="SVGID_00000148638618534701991310000002129972603173064613_" gradientUnits="userSpaceOnUse" x1="-6685.4351" y1="-74.1481" x2="-6685.3149" y2="-79.018" gradientTransform="matrix(0 26.66 -48.33 0 -3621.699 179533.0938)">
		<stop  offset="0" style="stop-color:#FFD800"/>
		<stop  offset="1" style="stop-color:#A25200"/>
	</linearGradient>
	<path style="fill:url(#SVGID_00000148638618534701991310000002129972603173064613_);" d="M180.9,1325.3v17c0,6.7-5.6,10.1-12.1,7.7
		l-156.1-56.8c-6.9-2.8-11.6-9.2-12.2-16.5v-17c0-6.5,5.6-9.9,12.2-7.5l156.1,56.8C175.6,1311.7,180.2,1318.1,180.9,1325.3z
		 M178.2,1329.4c-0.2-3-2.1-5.7-4.9-6.9L8.1,1262.5c-1.7-0.8-3.7-0.2-4.5,1.5c-0.3,0.6-0.4,1.2-0.3,1.8v7c0.2,3,2.1,5.6,4.9,6.7
		l165.1,60.1c1.6,0.9,3.6,0.3,4.5-1.3c0,0,0,0,0,0c0.3-0.6,0.4-1.2,0.4-1.8V1329.4z"/>
	
		<linearGradient id="SVGID_00000004511788926722731110000009296101574635594140_" gradientUnits="userSpaceOnUse" x1="-6685.0063" y1="-74.1535" x2="-6684.896" y2="-79.0234" gradientTransform="matrix(0 27.64 -48.33 0 -3613.9333 186161.8125)">
		<stop  offset="0" style="stop-color:#FFD800"/>
		<stop  offset="1" style="stop-color:#A25200"/>
	</linearGradient>
	<path style="fill:url(#SVGID_00000004511788926722731110000009296101574635594140_);" d="M181.1,1441.4l-168.2-61.2
		c-6.9-2.8-11.6-9.2-12.2-16.6v-17c0-6.5,5.6-9.9,12.2-7.5l35.5,12.9v12l-40-14.6c-1.7-0.8-3.7-0.2-4.5,1.5
		c-0.3,0.6-0.4,1.2-0.3,1.8v6.9c0.1,3.1,2.1,5.7,4.9,6.9l172.7,62.8V1441.4z"/>
	
		<linearGradient id="SVGID_00000176742681650009634720000005602218457098525107_" gradientUnits="userSpaceOnUse" x1="-6685.0078" y1="-74.1645" x2="-6684.8979" y2="-79.0443" gradientTransform="matrix(0 28.62 -48.33 0 -3611.3552 192798.1562)">
		<stop  offset="0" style="stop-color:#FFD800"/>
		<stop  offset="1" style="stop-color:#A25200"/>
	</linearGradient>
	<path style="fill:url(#SVGID_00000176742681650009634720000005602218457098525107_);" d="M3.4,1434.5v29l-2.7-1v-41.2l180.3,65.7
		v41.2l-2.7-1v-29l-82.5-30v12.7l-2.7-1v-12.7L3.4,1434.5z"/>
	
		<linearGradient id="SVGID_00000103951324728894784100000002550758357571665827_" gradientUnits="userSpaceOnUse" x1="-6678.8965" y1="-74.1422" x2="-6678.7866" y2="-79.0121" gradientTransform="matrix(0 26.65 -48.34 0 -3603.6404 179541.7969)">
		<stop  offset="0" style="stop-color:#FFD800"/>
		<stop  offset="1" style="stop-color:#A25200"/>
	</linearGradient>
	<path style="fill:url(#SVGID_00000103951324728894784100000002550758357571665827_);" d="M181.1,1575v16.9c0,6.7-5.6,10.1-12.1,7.7
		l-39.5-14.4V1573l44,16c1.6,0.9,3.6,0.3,4.5-1.3c0.3-0.6,0.5-1.2,0.4-1.8v-7.1c-0.2-3-2.1-5.6-4.9-6.7L8.3,1512.1
		c-1.6-0.9-3.6-0.3-4.5,1.3c0,0,0,0,0,0c-0.3,0.6-0.4,1.2-0.4,1.8v7.1c0.2,3,2.1,5.6,4.9,6.7l44,16v12.2l-39.5-14.4
		c-6.9-2.7-11.6-9.2-12.1-16.5v-16.8c0-6.7,5.6-10.1,12.2-7.7l156.1,56.8C175.8,1561.2,180.5,1567.6,181.1,1575z"/>
	
		<linearGradient id="SVGID_00000142874276858493053220000002529896813490520203_" gradientUnits="userSpaceOnUse" x1="-6673.6934" y1="-74.2415" x2="-6673.5737" y2="-79.1114" gradientTransform="matrix(0 25.4 -48.28 0 -3621.7251 171150.7656)">
		<stop  offset="0" style="stop-color:#FFD800"/>
		<stop  offset="1" style="stop-color:#A25200"/>
	</linearGradient>
	<path style="fill:url(#SVGID_00000142874276858493053220000002529896813490520203_);" d="M180.9,1658.8v29.2l-2.5-0.9v-17
		L0.7,1605.4v-12.1l177.6,64.7v-20.1l2.5,0.9V1658.8z"/>
</g>
</svg>
