<?xml version="1.0" encoding="utf-8"?>
<!-- Generator: Adobe Illustrator 26.2.1, SVG Export Plug-In . SVG Version: 6.00 Build 0)  -->
<svg version="1.1" id="レイヤー_1" xmlns="http://www.w3.org/2000/svg" xmlns:xlink="http://www.w3.org/1999/xlink" x="0px"
	 y="0px" viewBox="0 0 1689.3 181.5" style="enable-background:new 0 0 1689.3 181.5;" xml:space="preserve">
<style type="text/css">
	.st0{fill:url(#SVGID_1_);}
	.st1{fill:url(#SVGID_00000029015658579642937850000002893541096564407468_);}
	.st2{fill:url(#SVGID_00000083796351838940970760000006625065067828759742_);}
	.st3{fill:url(#SVGID_00000160911322961118279260000009574409631063992496_);}
	.st4{fill:url(#SVGID_00000170972024889507945410000003493951991973555638_);}
	.st5{fill:url(#SVGID_00000071554349828131348140000011785200581587921798_);}
	.st6{fill:url(#SVGID_00000129928071406910919330000006919757305987034295_);}
	.st7{fill:url(#SVGID_00000116201670962919718330000010541680310126754440_);}
	.st8{fill:url(#SVGID_00000119091133904576899640000018103509389648537219_);}
	.st9{fill:url(#SVGID_00000082340532934995893460000003173896359215898785_);}
	.st10{fill:url(#SVGID_00000144334734805679320410000003367505224887491721_);}
	.st11{fill:url(#SVGID_00000103968418707059602590000013507274648047011978_);}
	.st12{fill:url(#SVGID_00000026121893611121976310000003781699980340922558_);}
	.st13{fill:url(#SVGID_00000080179649121615707390000002118232823792778916_);}
	.st14{fill:url(#SVGID_00000120557063956824599160000014051435849974221753_);}
	.st15{fill:url(#SVGID_00000015340122150313605140000009655231689510020512_);}
	.st16{fill:url(#SVGID_00000067921067404063827250000010133409816269417917_);}
	.st17{fill:url(#SVGID_00000160882363806481962400000016361075285774444426_);}
</style>
<g>
	
		<linearGradient id="SVGID_1_" gradientUnits="userSpaceOnUse" x1="842.9974" y1="-771.9387" x2="846.0831" y2="-635.1567" gradientTransform="matrix(6.123234e-17 -1 1 6.123234e-17 754.4501 934.85)">
		<stop  offset="0" style="stop-color:#FFD800"/>
		<stop  offset="1" style="stop-color:#A25200"/>
	</linearGradient>
	<path class="st0" d="M29.8,180.2l33.6-92.5H46.6L13,180.2H0.8L62,12c2.8-6.9,9.2-11.6,16.5-12.1h16.9c6.7,0,10.1,5.6,7.7,12.1
		L42,180.2H29.8z M64.4,85L92.6,7.4c0.9-1.6,0.3-3.6-1.3-4.5l0,0c-0.6-0.3-1.2-0.4-1.8-0.4h-7c-3,0.2-5.6,2.1-6.7,4.9L47.6,85H64.4z
		"/>
	
		<linearGradient id="SVGID_00000100344079823857639820000006532374627988360863_" gradientUnits="userSpaceOnUse" x1="-6843.9053" y1="723.2248" x2="-6843.7852" y2="728.1047" gradientTransform="matrix(28.62 0 0 -48.33 196011.6094 35161.3672)">
		<stop  offset="0" style="stop-color:#FFD800"/>
		<stop  offset="1" style="stop-color:#A25200"/>
	</linearGradient>
	<path style="fill:url(#SVGID_00000100344079823857639820000006532374627988360863_);" d="M100.6,177.5h29l-1,2.7H87.4L153.1-0.1
		h41.1l-1,2.7h-29l-30,82.5h12.7l-1,2.7h-12.7L100.6,177.5z"/>
	
		<linearGradient id="SVGID_00000168076364779917927870000018153193046899094946_" gradientUnits="userSpaceOnUse" x1="842.7813" y1="-594.7564" x2="845.7608" y2="-462.4166" gradientTransform="matrix(6.123234e-17 -1 1 6.123234e-17 754.4501 934.85)">
		<stop  offset="0" style="stop-color:#FFD800"/>
		<stop  offset="1" style="stop-color:#A25200"/>
	</linearGradient>
	<path style="fill:url(#SVGID_00000168076364779917927870000018153193046899094946_);" d="M251.5,0.4h16.9c6.7,0,10.2,5.4,7.7,12.1
		L253,75.9c-2,4.9-5.8,8.8-10.7,10.9c3.5,2.4,4.7,7.1,2.8,10.9l-25.7,70.7c-2.7,6.9-9.1,11.6-16.5,12.2H186
		c-6.7,0-10.2-5.4-7.7-12.2L204,97.7c2-4.9,5.8-8.8,10.7-10.9c-3.5-2.5-4.6-7.1-2.7-10.9l23.1-63.4C237.7,5.6,244.1,0.9,251.5,0.4z
		 M255.5,2.9c-3,0.3-5.6,2.2-6.7,5.1l-26.5,72.7c-0.9,1.6-0.3,3.6,1.3,4.5c0.5,0.3,1.2,0.4,1.8,0.4h7.1c3-0.2,5.6-2.1,6.7-4.9
		L265.7,8c1-2.7-0.3-5.1-3-5.1H255.5z M232.2,88.1h-7.1c-3,0.2-5.6,2.1-6.7,4.9l-29,79.9c-1,2.7,0.3,5.1,3.1,5.1h7
		c3-0.3,5.7-2.2,6.8-5.1L235.4,93c0.9-1.6,0.3-3.6-1.3-4.5C233.5,88.2,232.9,88.1,232.2,88.1z"/>
	
		<linearGradient id="SVGID_00000095312097944341325390000001180363462731614614_" gradientUnits="userSpaceOnUse" x1="842.6242" y1="-518.8442" x2="845.8935" y2="-386.0264" gradientTransform="matrix(6.123234e-17 -1 1 6.123234e-17 754.4501 934.85)">
		<stop  offset="0" style="stop-color:#FFD800"/>
		<stop  offset="1" style="stop-color:#A25200"/>
	</linearGradient>
	<path style="fill:url(#SVGID_00000095312097944341325390000001180363462731614614_);" d="M332.1,0.4h17c6.5,0,10,5.4,7.5,12.1
		l-11.5,31.7h-12l13.3-36.4c0.9-1.7,0.2-3.7-1.5-4.6c-0.6-0.3-1.2-0.4-1.8-0.4h-6.9c-3.1,0.1-5.8,2.1-6.9,4.9l-28.2,77.7h14.5
		c8,0,12.1,6.5,9.2,14.5l-24.9,68.3c-2.7,6.9-9,11.6-16.4,12.2h-17.1c-6.7,0-10.2-5.4-7.7-12.2l29.2-80.3l0.9-2.5l26.6-73.1
		C318.3,5.6,324.7,0.9,332.1,0.4z M306.7,88.1h-6.5l-30.9,84.8c-0.9,1.7-0.3,3.7,1.3,4.6l0,0c0.6,0.3,1.2,0.5,1.9,0.4h6.9
		c3.1-0.3,5.7-2.2,6.9-5.1L315,94c1.1-2,0.3-4.5-1.7-5.5c-0.7-0.4-1.4-0.5-2.1-0.5L306.7,88.1z"/>
	
		<linearGradient id="SVGID_00000023993689070321068760000008333129100749050000_" gradientUnits="userSpaceOnUse" x1="842.9207" y1="-355.8394" x2="846.2991" y2="-218.8662" gradientTransform="matrix(6.123234e-17 -1 1 6.123234e-17 754.4501 934.85)">
		<stop  offset="0" style="stop-color:#FFD800"/>
		<stop  offset="1" style="stop-color:#A25200"/>
	</linearGradient>
	<path style="fill:url(#SVGID_00000023993689070321068760000008333129100749050000_);" d="M483,0h29c6.7,0,10.2,5.4,7.7,12.1
		l-23.1,63.4c-2.2,5.5-6.8,9.7-12.5,11.4c4.3,1.6,6.1,6.2,4.1,11.6l-29.6,81.7h-12.1L477,96.3c1.5-2.8,0.5-6.3-2.2-7.8
		c-1-0.5-2.1-0.8-3.2-0.7H463l-33.7,92.4h-12l33.7-92.5l0.9-2.5l30.1-82.7L483,0z M494.1,2.5L464,85.2h8.5c5.2-0.4,9.7-3.7,11.6-8.5
		L508,11.1c1.5-2.8,0.5-6.3-2.3-7.8c-1-0.5-2-0.8-3.1-0.7h-8.5V2.5z"/>
	
		<linearGradient id="SVGID_00000113355438592174972700000007049356934881014405_" gradientUnits="userSpaceOnUse" x1="-6832.8882" y1="723.216" x2="-6832.7686" y2="728.0959" gradientTransform="matrix(28.62 0 0 -48.33 196113.2031 35161.3672)">
		<stop  offset="0" style="stop-color:#FFD800"/>
		<stop  offset="1" style="stop-color:#A25200"/>
	</linearGradient>
	<path style="fill:url(#SVGID_00000113355438592174972700000007049356934881014405_);" d="M517.4,177.5h29l-1,2.7h-41.1L569.9-0.1
		h41.2l-1,2.7h-29l-30,82.5h12.7l-1,2.7h-12.7L517.4,177.5z"/>
	
		<linearGradient id="SVGID_00000150797936423952081610000007004812510185716377_" gradientUnits="userSpaceOnUse" x1="-6830.0679" y1="723.2089" x2="-6829.9478" y2="728.0787" gradientTransform="matrix(26.65 0 0 -48.34 182654.2031 35160.0039)">
		<stop  offset="0" style="stop-color:#FFD800"/>
		<stop  offset="1" style="stop-color:#A25200"/>
	</linearGradient>
	<path style="fill:url(#SVGID_00000150797936423952081610000007004812510185716377_);" d="M658.7,0h17c6.7,0,10.1,5.6,7.7,12.1
		L669,51.6h-12.1l16-44.1c0.8-1.6,0.2-3.7-1.4-4.5c-0.6-0.3-1.2-0.4-1.9-0.4h-6.9c-3,0.2-5.7,2.1-6.8,4.9l-26.5,72.7
		c-0.8,1.7-0.2,3.7,1.5,4.5c0.5,0.3,1.2,0.4,1.8,0.3h12c6.7,0,10.2,5.4,7.7,12.1l-25.8,71.1c-2.7,6.9-9.2,11.6-16.5,12.2H593
		c-6.5,0-9.9-5.6-7.5-12.2l12.5-34.4h12l-14.2,39c-0.8,1.7-0.2,3.7,1.5,4.6c0.6,0.3,1.2,0.4,1.8,0.3h6.9c3-0.1,5.7-2.1,6.8-4.9
		L642,92.9c0.9-1.7,0.3-3.8-1.3-4.7l0,0c-0.6-0.3-1.2-0.4-1.8-0.4h-12c-6.5,0-10-5.4-7.6-12l23.2-63.6C645,5.3,651.4,0.6,658.7,0z"
		/>
	
		<linearGradient id="SVGID_00000101093217505791356460000017617069729026653359_" gradientUnits="userSpaceOnUse" x1="-6826.3306" y1="723.3199" x2="-6826.2104" y2="728.1898" gradientTransform="matrix(25.4 0 0 -48.28 174107.7812 35140.1797)">
		<stop  offset="0" style="stop-color:#FFD800"/>
		<stop  offset="1" style="stop-color:#A25200"/>
	</linearGradient>
	<path style="fill:url(#SVGID_00000101093217505791356460000017617069729026653359_);" d="M738.9,0h29.2l-0.9,2.5h-17l-64.7,177.7
		h-12.2L738,2.6h-20.1l0.9-2.5L738.9,0L738.9,0z"/>
	
		<linearGradient id="SVGID_00000035506349102449774190000008826212811421103762_" gradientUnits="userSpaceOnUse" x1="842.8338" y1="-39.7071" x2="846.0939" y2="92.4682" gradientTransform="matrix(6.123234e-17 -1 1 6.123234e-17 754.4501 934.85)">
		<stop  offset="0" style="stop-color:#FFD800"/>
		<stop  offset="1" style="stop-color:#A25200"/>
	</linearGradient>
	<path style="fill:url(#SVGID_00000035506349102449774190000008826212811421103762_);" d="M810.7,0h17c6.7,0,10.1,5.6,7.7,12.1
		l-56.7,156.1c-2.8,6.9-9.2,11.6-16.6,12.2h-17c-6.5,0-9.9-5.6-7.5-12.2l56.8-156.1C797.1,5.3,803.4,0.6,810.7,0z M814.8,2.7
		c-3,0.2-5.7,2.1-6.9,4.9l-60.1,165.2c-0.8,1.7-0.2,3.7,1.5,4.5c0.5,0.3,1.2,0.4,1.8,0.3h7.1c3-0.2,5.6-2.1,6.7-4.9L825,7.6
		c0.9-1.6,0.3-3.6-1.3-4.5c-0.5-0.3-1.2-0.4-1.8-0.4H814.8z"/>
	
		<linearGradient id="SVGID_00000064343925916346481540000009177223723598762923_" gradientUnits="userSpaceOnUse" x1="843.0752" y1="46.7782" x2="846.1606" y2="183.5448" gradientTransform="matrix(6.123234e-17 -1 1 6.123234e-17 754.4501 934.85)">
		<stop  offset="0" style="stop-color:#FFD800"/>
		<stop  offset="1" style="stop-color:#A25200"/>
	</linearGradient>
	<path style="fill:url(#SVGID_00000064343925916346481540000009177223723598762923_);" d="M885.5,0h29c6.7,0,10.2,5.4,7.7,12.1
		l-23.1,63.4c-2.2,5.5-6.8,9.7-12.5,11.4c4.3,1.6,6.1,6.2,4.1,11.6l-29.6,81.7H849l30.5-83.9c1.5-2.8,0.5-6.3-2.3-7.8
		c-1-0.5-2.1-0.8-3.2-0.7h-8.4l-33.7,92.4h-12l33.7-92.5l0.9-2.5l30.1-82.6L885.5,0z M896.6,2.5l-30.1,82.7h8.5
		c5.2-0.4,9.7-3.7,11.6-8.5l23.9-65.6c1.5-2.8,0.5-6.3-2.3-7.8c-1-0.5-2.1-0.8-3.2-0.7h-8.4V2.5z"/>
	
		<linearGradient id="SVGID_00000114780711128735806400000001006066800863039372_" gradientUnits="userSpaceOnUse" x1="-6822.5942" y1="723.2161" x2="-6822.4741" y2="728.096" gradientTransform="matrix(28.62 0 0 -48.33 196221.0781 35161.3672)">
		<stop  offset="0" style="stop-color:#FFD800"/>
		<stop  offset="1" style="stop-color:#A25200"/>
	</linearGradient>
	<path style="fill:url(#SVGID_00000114780711128735806400000001006066800863039372_);" d="M919.9,177.5h29l-1,2.7h-41.1L972.4-0.1
		h41.2l-1,2.7h-29l-30,82.5h12.7l-1,2.7h-12.7L919.9,177.5z"/>
	
		<linearGradient id="SVGID_00000122694538543114888860000001638695883932347575_" gradientUnits="userSpaceOnUse" x1="843.2132" y1="296.9438" x2="846.5965" y2="434.1125" gradientTransform="matrix(6.123234e-17 -1 1 6.123234e-17 754.4501 934.85)">
		<stop  offset="0" style="stop-color:#FFD800"/>
		<stop  offset="1" style="stop-color:#A25200"/>
	</linearGradient>
	<path style="fill:url(#SVGID_00000122694538543114888860000001638695883932347575_);" d="M1140.5,0h29c6.7,0,10.2,5.4,7.7,12.1
		l-23.1,63.4c-2.7,6.9-9.2,11.6-16.6,12.1h-16.9l-33.6,92.5h-12.2l33.7-92.4l0.9-2.5l30.1-82.7L1140.5,0z M1151.8,2.5l-30.1,82.7
		h8.3c5.2-0.4,9.7-3.7,11.6-8.5l23.9-65.6c1.5-2.8,0.5-6.3-2.3-7.8c-1-0.5-2.1-0.8-3.2-0.7h-8.2V2.5z"/>
	
		<linearGradient id="SVGID_00000147918943889228914400000009119711799789810322_" gradientUnits="userSpaceOnUse" x1="843.1367" y1="389.0386" x2="846.2222" y2="525.8069" gradientTransform="matrix(6.123234e-17 -1 1 6.123234e-17 754.4501 934.85)">
		<stop  offset="0" style="stop-color:#FFD800"/>
		<stop  offset="1" style="stop-color:#A25200"/>
	</linearGradient>
	<path style="fill:url(#SVGID_00000147918943889228914400000009119711799789810322_);" d="M1227.2,0h29c6.7,0,10.2,5.4,7.7,12.1
		l-23.1,63.4c-2.2,5.5-6.8,9.7-12.5,11.4c4.3,1.6,6.1,6.2,4.1,11.6l-29.7,81.6h-12.1l30.6-83.9c1.5-2.8,0.5-6.3-2.3-7.8
		c-1-0.5-2.1-0.8-3.2-0.7h-8.5l-33.6,92.5h-12l33.6-92.5l0.9-2.5l30.1-82.7L1227.2,0z M1238.2,2.5l-30,82.7h8.5
		c5.2-0.4,9.7-3.7,11.6-8.5l23.9-65.6c1.5-2.8,0.5-6.3-2.3-7.8c-1-0.5-2-0.8-3.1-0.7h-8.6V2.5z"/>
	
		<linearGradient id="SVGID_00000131337225752506955090000011693963287875836329_" gradientUnits="userSpaceOnUse" x1="842.8182" y1="474.8584" x2="846.0783" y2="607.0349" gradientTransform="matrix(6.123234e-17 -1 1 6.123234e-17 754.4501 934.85)">
		<stop  offset="0" style="stop-color:#FFD800"/>
		<stop  offset="1" style="stop-color:#A25200"/>
	</linearGradient>
	<path style="fill:url(#SVGID_00000131337225752506955090000011693963287875836329_);" d="M1325.9,0h17c6.7,0,10.1,5.6,7.7,12.1
		l-56.8,156.1c-2.8,6.9-9.2,11.6-16.5,12.2h-17c-6.5,0-9.9-5.6-7.5-12.2l56.8-156.1C1312.2,5.3,1318.7,0.7,1325.9,0z M1330,2.7
		c-3,0.2-5.7,2.1-6.9,4.9l-60,165.2c-0.8,1.7-0.2,3.7,1.5,4.5c0.6,0.3,1.2,0.4,1.8,0.3h7c3-0.2,5.6-2.1,6.7-4.9l60.1-165.1
		c0.9-1.6,0.3-3.6-1.3-4.5l0,0c-0.6-0.3-1.2-0.4-1.8-0.4H1330z"/>
	
		<linearGradient id="SVGID_00000122683687512984566530000017669667487692633484_" gradientUnits="userSpaceOnUse" x1="-6810.1411" y1="723.2133" x2="-6810.0308" y2="728.0833" gradientTransform="matrix(27.64 0 0 -48.33 189621.0781 35163.9453)">
		<stop  offset="0" style="stop-color:#FFD800"/>
		<stop  offset="1" style="stop-color:#A25200"/>
	</linearGradient>
	<path style="fill:url(#SVGID_00000122683687512984566530000017669667487692633484_);" d="M1442-0.2L1380.8,168
		c-2.8,6.9-9.2,11.6-16.6,12.2h-17c-6.5,0-9.9-5.6-7.5-12.2l12.9-35.5h12l-14.6,40c-0.8,1.7-0.2,3.7,1.5,4.5
		c0.6,0.3,1.2,0.4,1.8,0.3h6.9c3.1-0.1,5.7-2.1,6.9-4.9l62.8-172.7h12.1V-0.2z"/>
	
		<linearGradient id="SVGID_00000029755549613140702840000016998681282353433265_" gradientUnits="userSpaceOnUse" x1="-6809.7661" y1="723.2244" x2="-6809.6562" y2="728.1042" gradientTransform="matrix(28.62 0 0 -48.33 196369.25 35161.3672)">
		<stop  offset="0" style="stop-color:#FFD800"/>
		<stop  offset="1" style="stop-color:#A25200"/>
	</linearGradient>
	<path style="fill:url(#SVGID_00000029755549613140702840000016998681282353433265_);" d="M1435.1,177.5h29l-1,2.7h-41.2l65.7-180.3
		h41.2l-1,2.7h-29l-30,82.5h12.7l-1,2.7h-12.7L1435.1,177.5z"/>
	
		<linearGradient id="SVGID_00000057842693029893780860000010675741318498099101_" gradientUnits="userSpaceOnUse" x1="-6804.4365" y1="723.1982" x2="-6804.3267" y2="728.0681" gradientTransform="matrix(26.65 0 0 -48.34 182888.1094 35159.9648)">
		<stop  offset="0" style="stop-color:#FFD800"/>
		<stop  offset="1" style="stop-color:#A25200"/>
	</linearGradient>
	<path style="fill:url(#SVGID_00000057842693029893780860000010675741318498099101_);" d="M1575.6-0.2h16.9c6.7,0,10.1,5.6,7.7,12.1
		l-14.4,39.5h-12.2l16-44c0.9-1.6,0.3-3.6-1.3-4.5c-0.6-0.3-1.2-0.5-1.8-0.4h-7.1c-3,0.2-5.6,2.1-6.7,4.9l-60,165.2
		c-0.9,1.6-0.3,3.6,1.3,4.5l0,0c0.6,0.3,1.2,0.4,1.8,0.4h7.1c3-0.2,5.6-2.1,6.7-4.9l16-44h12.2l-14.4,39.5
		c-2.7,6.9-9.2,11.6-16.5,12.1H1510c-6.7,0-10.1-5.6-7.7-12.2l56.8-156.1C1561.8,5.1,1568.2,0.4,1575.6-0.2z"/>
	
		<linearGradient id="SVGID_00000180350002424527830500000017425122476163707040_" gradientUnits="userSpaceOnUse" x1="-6799.7998" y1="723.3199" x2="-6799.6802" y2="728.1898" gradientTransform="matrix(25.4 0 0 -48.28 174354.4531 35140.1797)">
		<stop  offset="0" style="stop-color:#FFD800"/>
		<stop  offset="1" style="stop-color:#A25200"/>
	</linearGradient>
	<path style="fill:url(#SVGID_00000180350002424527830500000017425122476163707040_);" d="M1659.4,0h29.2l-0.9,2.5h-17L1606,180.2
		h-12.1l64.7-177.6h-20.1l0.9-2.5L1659.4,0L1659.4,0z"/>
</g>
</svg>
