<?xml version="1.0" encoding="utf-8"?>
<!-- Generator: Adobe Illustrator 26.0.1, SVG Export Plug-In . SVG Version: 6.00 Build 0)  -->
<svg version="1.1" id="レイヤー_1" xmlns="http://www.w3.org/2000/svg" xmlns:xlink="http://www.w3.org/1999/xlink" x="0px"
	 y="0px" viewBox="0 0 181.5 1689.3" style="enable-background:new 0 0 181.5 1689.3;" xml:space="preserve">
<g>
	<path d="M0.7,29.2l92.5,33.6V46L0.7,12.4V0.2l168.2,61.2c6.9,2.8,11.6,9.2,12.1,16.5v16.9c0,6.7-5.6,10.1-12.1,7.7L0.7,41.4V29.2z
		 M95.9,63.8L173.5,92c1.6,0.9,3.6,0.3,4.5-1.3l0,0c0.3-0.6,0.4-1.2,0.4-1.8v-7c-0.2-3-2.1-5.6-4.9-6.7L95.9,47V63.8z"/>
	<path d="M3.4,100v29l-2.7-1V86.8L181,152.5v41.1l-2.7-1v-29l-82.5-30v12.7l-2.7-1v-12.7L3.4,100z"/>
	<path d="M180.5,250.9v16.9c0,6.7-5.4,10.2-12.1,7.7L105,252.4c-4.9-2-8.8-5.8-10.9-10.7c-2.4,3.5-7.1,4.7-10.9,2.8l-70.7-25.7
		c-6.9-2.7-11.6-9.1-12.2-16.5v-16.9c0-6.7,5.4-10.2,12.2-7.7l70.7,25.7c4.9,2,8.8,5.8,10.9,10.7c2.5-3.5,7.1-4.6,10.9-2.7
		l63.4,23.1C175.3,237.1,180,243.5,180.5,250.9z M178,254.9c-0.3-3-2.2-5.6-5.1-6.7l-72.7-26.5c-1.6-0.9-3.6-0.3-4.5,1.3
		c-0.3,0.5-0.4,1.2-0.4,1.8v7.1c0.2,3,2.1,5.6,4.9,6.7l72.7,26.5c2.7,1,5.1-0.3,5.1-3V254.9z M92.8,231.6v-7.1
		c-0.2-3-2.1-5.6-4.9-6.7L8,188.8c-2.7-1-5.1,0.3-5.1,3.1v7c0.3,3,2.2,5.7,5.1,6.8l79.9,29.1c1.6,0.9,3.6,0.3,4.5-1.3
		C92.7,232.9,92.8,232.3,92.8,231.6z"/>
	<path d="M180.5,331.5v17c0,6.5-5.4,10-12.1,7.5l-31.7-11.5v-12l36.4,13.3c1.7,0.9,3.7,0.2,4.6-1.5c0.3-0.6,0.4-1.2,0.4-1.8v-6.9
		c-0.1-3.1-2.1-5.8-4.9-6.9l-77.7-28.2V315c0,8-6.5,12.1-14.5,9.2l-68.3-24.9c-6.9-2.7-11.6-9-12.2-16.4v-17.1
		c0-6.7,5.4-10.2,12.2-7.7L93,287.3l2.5,0.9l73.1,26.6C175.3,317.7,180,324.1,180.5,331.5z M92.8,306.1v-6.5L8,268.7
		c-1.7-0.9-3.7-0.3-4.6,1.3l0,0c-0.3,0.6-0.5,1.2-0.4,1.9v6.9c0.3,3.1,2.2,5.7,5.1,6.9l78.8,28.7c2,1.1,4.5,0.3,5.5-1.7
		c0.4-0.7,0.5-1.4,0.5-2.1L92.8,306.1z"/>
	<path d="M180.9,482.4v29c0,6.7-5.4,10.2-12.1,7.7L105.4,496c-5.5-2.2-9.7-6.8-11.4-12.5c-1.6,4.3-6.2,6.1-11.6,4.1L0.7,458v-12.1
		l83.9,30.5c2.8,1.5,6.3,0.5,7.8-2.2c0.5-1,0.8-2.1,0.7-3.2v-8.5L0.7,428.8v-12l92.5,33.7l2.5,0.9l82.7,30.1L180.9,482.4z
		 M178.4,493.5l-82.7-30.1v8.5c0.4,5.2,3.7,9.7,8.5,11.6l65.6,23.9c2.8,1.5,6.3,0.5,7.8-2.3c0.5-1,0.8-2,0.7-3.1v-8.5H178.4z"/>
	<path d="M3.4,516.8v29l-2.7-1v-41.1L181,569.3v41.2l-2.7-1v-29l-82.5-30v12.7l-2.7-1v-12.7L3.4,516.8z"/>
	<path d="M180.9,658.1v17c0,6.7-5.6,10.1-12.1,7.7l-39.5-14.4v-12.1l44.1,16c1.6,0.8,3.7,0.2,4.5-1.4c0.3-0.6,0.4-1.2,0.4-1.9v-6.9
		c-0.2-3-2.1-5.7-4.9-6.8l-72.7-26.5c-1.7-0.8-3.7-0.2-4.5,1.5c-0.3,0.5-0.4,1.2-0.3,1.8v12c0,6.7-5.4,10.2-12.1,7.7L12.7,626
		c-6.9-2.7-11.6-9.2-12.2-16.5v-17.1c0-6.5,5.6-9.9,12.2-7.5l34.4,12.5v12l-39-14.2c-1.7-0.8-3.7-0.2-4.6,1.5
		c-0.3,0.6-0.4,1.2-0.3,1.8v6.9c0.1,3,2.1,5.7,4.9,6.8L88,641.4c1.7,0.9,3.8,0.3,4.7-1.3l0,0c0.3-0.6,0.4-1.2,0.4-1.8v-12
		c0-6.5,5.4-10,12-7.6l63.6,23.2C175.6,644.4,180.3,650.8,180.9,658.1z"/>
	<path d="M180.9,738.3v29.2l-2.5-0.9v-17L0.7,684.9v-12.2l177.6,64.7v-20.1l2.5,0.9L180.9,738.3L180.9,738.3z"/>
	<path d="M180.9,810.1v17c0,6.7-5.6,10.1-12.1,7.7L12.7,778.1c-6.9-2.8-11.6-9.2-12.2-16.6v-17c0-6.5,5.6-9.9,12.2-7.5l156.1,56.8
		C175.6,796.5,180.3,802.8,180.9,810.1z M178.2,814.2c-0.2-3-2.1-5.7-4.9-6.9L8.1,747.2c-1.7-0.8-3.7-0.2-4.5,1.5
		c-0.3,0.5-0.4,1.2-0.3,1.8v7.1c0.2,3,2.1,5.6,4.9,6.7l165.1,60.1c1.6,0.9,3.6,0.3,4.5-1.3c0.3-0.5,0.4-1.2,0.4-1.8V814.2z"/>
	<path d="M180.9,884.9v29c0,6.7-5.4,10.2-12.1,7.7l-63.4-23.1c-5.5-2.2-9.7-6.8-11.4-12.5c-1.6,4.3-6.2,6.1-11.6,4.1L0.7,860.5
		v-12.1l83.9,30.5c2.8,1.5,6.3,0.5,7.8-2.3c0.5-1,0.8-2.1,0.7-3.2V865L0.7,831.3v-12L93.2,853l2.5,0.9l82.6,30.1L180.9,884.9z
		 M178.4,896l-82.7-30.1v8.5c0.4,5.2,3.7,9.7,8.5,11.6l65.6,23.9c2.8,1.5,6.3,0.5,7.8-2.3c0.5-1,0.8-2.1,0.7-3.2V896H178.4z"/>
	<path d="M3.4,919.3v29l-2.7-1v-41.1L181,971.8v41.2l-2.7-1v-29l-82.5-30v12.7l-2.7-1V952L3.4,919.3z"/>
	<path d="M180.9,1139.9v29c0,6.7-5.4,10.2-12.1,7.7l-63.4-23.1c-6.9-2.7-11.6-9.2-12.1-16.6V1120l-92.5-33.6v-12.2l92.4,33.7
		l2.5,0.9l82.7,30.1L180.9,1139.9z M178.4,1151.2l-82.7-30.1v8.3c0.4,5.2,3.7,9.7,8.5,11.6l65.6,23.9c2.8,1.5,6.3,0.5,7.8-2.3
		c0.5-1,0.8-2.1,0.7-3.2v-8.2H178.4z"/>
	<path d="M180.9,1226.7v29c0,6.7-5.4,10.2-12.1,7.7l-63.4-23.1c-5.5-2.2-9.7-6.8-11.4-12.5c-1.6,4.3-6.2,6.1-11.6,4.1l-81.6-29.7
		v-12.1l83.9,30.6c2.8,1.5,6.3,0.5,7.8-2.3c0.5-1,0.8-2.1,0.7-3.2v-8.5l-92.5-33.6v-12l92.5,33.6l2.5,0.9l82.7,30.1L180.9,1226.7z
		 M178.4,1237.7l-82.7-30v8.5c0.4,5.2,3.7,9.7,8.5,11.6l65.6,23.9c2.8,1.5,6.3,0.5,7.8-2.3c0.5-1,0.8-2,0.7-3.1v-8.6H178.4z"/>
	<path d="M180.9,1325.3v17c0,6.7-5.6,10.1-12.1,7.7l-156.1-56.8c-6.9-2.8-11.6-9.2-12.2-16.5v-17c0-6.5,5.6-9.9,12.2-7.5l156.1,56.8
		C175.6,1311.7,180.2,1318.1,180.9,1325.3z M178.2,1329.4c-0.2-3-2.1-5.7-4.9-6.9l-165.2-60c-1.7-0.8-3.7-0.2-4.5,1.5
		c-0.3,0.6-0.4,1.2-0.3,1.8v7c0.2,3,2.1,5.6,4.9,6.7l165.1,60.1c1.6,0.9,3.6,0.3,4.5-1.3l0,0c0.3-0.6,0.4-1.2,0.4-1.8V1329.4z"/>
	<path d="M181.1,1441.4l-168.2-61.2c-6.9-2.8-11.6-9.2-12.2-16.6v-17c0-6.5,5.6-9.9,12.2-7.5l35.5,12.9v12l-40-14.6
		c-1.7-0.8-3.7-0.2-4.5,1.5c-0.3,0.6-0.4,1.2-0.3,1.8v6.9c0.1,3.1,2.1,5.7,4.9,6.9l172.7,62.8v12.1H181.1z"/>
	<path d="M3.4,1434.5v29l-2.7-1v-41.2L181,1487v41.2l-2.7-1v-29l-82.5-30v12.7l-2.7-1v-12.7L3.4,1434.5z"/>
	<path d="M181.1,1575v16.9c0,6.7-5.6,10.1-12.1,7.7l-39.5-14.4V1573l44,16c1.6,0.9,3.6,0.3,4.5-1.3c0.3-0.6,0.5-1.2,0.4-1.8v-7.1
		c-0.2-3-2.1-5.6-4.9-6.7l-165.2-60c-1.6-0.9-3.6-0.3-4.5,1.3l0,0c-0.3,0.6-0.4,1.2-0.4,1.8v7.1c0.2,3,2.1,5.6,4.9,6.7l44,16v12.2
		l-39.5-14.4c-6.9-2.7-11.6-9.2-12.1-16.5v-16.8c0-6.7,5.6-10.1,12.2-7.7l156.1,56.8C175.8,1561.2,180.5,1567.6,181.1,1575z"/>
	<path d="M180.9,1658.8v29.2l-2.5-0.9v-17L0.7,1605.4v-12.1l177.6,64.7v-20.1l2.5,0.9L180.9,1658.8L180.9,1658.8z"/>
</g>
</svg>
