<?xml version="1.0" encoding="utf-8"?>
<!-- Generator: Adobe Illustrator 26.0.2, SVG Export Plug-In . SVG Version: 6.00 Build 0)  -->
<svg version="1.1" id="レイヤー_1" xmlns="http://www.w3.org/2000/svg" xmlns:xlink="http://www.w3.org/1999/xlink" x="0px"
	 y="0px" viewBox="0 0 188.4 21.1" style="enable-background:new 0 0 188.4 21.1;" xml:space="preserve">
<style type="text/css">
	.st0{fill:#FFA219;}
</style>
<g>
	<path class="st0" d="M0,15.9V5.2C0,1.1,2.7,0,7.4,0s7.4,1.1,7.4,4.9v2.4h-4.5v-2c0-1.6-0.5-2.5-2.8-2.5S4.5,3.6,4.5,5.5v10
		c0,1.9,0.5,2.8,2.8,2.8s2.8-1,2.8-2.6v-2h4.5v2.3c0,3.8-2.8,5-7.4,5S0,19.9,0,15.9z"/>
	<path class="st0" d="M28.1,17.6h-6.5l-0.8,3.2h-4l5.5-20.5H28l5.4,20.5h-4.6L28.1,17.6z M27.3,14.6l-2.5-9.7l-2.4,9.7L27.3,14.6z"
		/>
	<path class="st0" d="M43.2,13.7h-2.6v7.1h-4.5V0.3h7.4c4.5,0,7.2,1.1,7.2,4.7v3.8c0.2,1.9-1,3.7-2.8,4.3l3.8,7.7h-4.8L43.2,13.7z
		 M40.6,11h2.8c2.2,0,2.7-0.9,2.7-2.4V5.4c0-1.5-0.5-2.3-2.7-2.3h-2.8V11z"/>
	<path class="st0" d="M78.3,5.4v10.3c0,4-2.6,5.1-7.2,5.1h-7.6V0.3h7.6C75.7,0.3,78.3,1.4,78.3,5.4z M73.8,6c0-2-0.5-2.9-2.7-2.9
		h-2.9v15h2.9c2.3,0,2.7-0.9,2.7-2.9L73.8,6z"/>
	<path class="st0" d="M86.7,3.5v5.1h6.8v3.2h-6.8v5.7h6.8v3.2H82.2V0.3h11.4v3.2H86.7z"/>
	<path class="st0" d="M108.5,17.6v3.2H97.3V0.3h4.6v17.3H108.5z"/>
	<path class="st0" d="M112.3,0.3h4.5v20.5h-4.5V0.3z"/>
	<path class="st0" d="M137,0.3l-5.4,20.5h-5.6l-5.5-20.5h4.6l4,15.9l4-15.9L137,0.3z"/>
	<path class="st0" d="M145,3.5v5.1h6.9v3.2H145v5.7h6.9v3.2h-11.4V0.3h11.4v3.2H145z"/>
	<path class="st0" d="M162.7,13.7h-2.6v7.1h-4.5V0.3h7.4c4.5,0,7.2,1.1,7.2,4.7v3.8c0.2,1.9-1,3.7-2.9,4.3l3.8,7.7h-4.8L162.7,13.7z
		 M160.1,11h2.8c2.2,0,2.7-0.9,2.7-2.4V5.4c0-1.5-0.5-2.3-2.7-2.3h-2.8V11z"/>
	<path class="st0" d="M188.4,0.3l-6,14.5v6h-4.6v-6l-6-14.5h4.6l4.1,9.9l4-9.9L188.4,0.3z"/>
</g>
</svg>
