<svg xmlns="http://www.w3.org/2000/svg" viewBox="0 0 3509.54 1084.27" style=""><defs><style>.a,.b,.c{fill:none;stroke:#fff;}.a{stroke-miterlimit:10;}.b,.c{stroke-linejoin:bevel;}.c{stroke-linecap:square;}</style></defs><path class="a dxymJzam_0" d="M77.1,625.61L77.1,637.91L260.5,639.5L260.52,625.61L77.1,625.61Z"></path><path class="a dxymJzam_1" d="M116.13,527.22L80.84,616.52L80.84,621.37L77.1,622.68L77.1,625.61L200.97,625.61L239.56,527.22L116.13,527.22Z"></path><path class="a dxymJzam_2" d="M240.69,524.36L289.38,524.36L255.82,622.41L202.18,622.41L240.69,524.36Z"></path><path class="a dxymJzam_3" d="M116.13,527.22s-.36-6.66,4.59-6.66l3.6-7.43,182.35-4.85-12.09,9.47Z"></path><path class="b dxymJzam_4" d="M124.32,513.13s-3.75-1.12-.93-4.85l17.14-17.83s1.61-2.22,11.28-3.83,355.31-71.87,355.31-71.87l400.41-64.39L1024,333.73H1143.4v3.7s-22.82,85.34-28.19,115.26c0,0-12.08,63-13.42,84.06,0,0-8.5,73.38-2.69,132.89,0,0,8.5,82.33,13,94.41l3.13,20.58,24.61,81.44h-54.27l-7.48-1.62-81.85-85.06-54.89.32S907.76,687,848.64,639.89c0,0-59.13-52.24-151-64.29,0,0-87.82-12.06-167.61,27,0,0-19.39,9.63-44.21,30.73-26.23,22.32-58.52,57.46-80.35,107.6,0,0-21.81,24.4-40.75,171.63H122.34L69.13,910l-8-2.3-1.72-10.5s-1-6.85,7.54-9.25l-23.29,5.48-2.05-4.79V811.88L32,788.25l-4.45-3.42L8,778.32s-6.16-4.79-5.82-14.73v-12L8.7,745.1l-4.45-2.74a11,11,0,0,1-2.07-9.59l-.33-3.42V688.94s-2.39-13.36,0-17.13l5.48-6.16.34-8.22a24.06,24.06,0,0,1,14.39-7.88l36.64-5.48S65,633.8,77.1,633.46l290.37,4.45,6.41-6.15L486,633.5"></path><path class="a dxymJzam_5" d="M8.05,691s22.26,1.86,48.68,2.32H67.4v44.51l-56.56-1.85s-9-1.11-9-6.58V688.94Z"></path><path class="a dxymJzam_6" d="M71.57,694.66l5.53,6,340.33,3.71s4.63-3.71,5.1-7.88C422.53,696.52,75.74,696.05,71.57,694.66Z"></path><path class="a dxymJzam_7" d="M7.33,665.65L20.57,667.77L317.75,667.77L403.52,667.77L451.33,667.77"></path><path class="a dxymJzam_8" d="M392.7,749.44,21.32,746.67,10.5,745.5,25,753.6l143.8,2.77H386.7s4.92.27,6-1.83Z"></path><path class="b dxymJzam_9" d="M8.5,778.5s202.7,4.13,237.28,3.07l105.31,3.19h16.49l7.44,4.79-10.27,123-17.38-19.28L66.92,887.91s-.94-25.5-13.14-46.24l-12.2-29.79L32,788.25"></path><path class="a dxymJzam_10" d="M369.42,792.53L347.37,893.26L352.54,899L369.42,792.53Z"></path><path class="b dxymJzam_11" d="M74.79,903.12s133.46,3.91,189.34,2.49l85.77.31L347.37,899l-141.61-1.93L150.24,899l-61.57-5.13L189,892.09l16-1.54,142.31,2.71,13.81,15.33,3.57,3.95H155.22Z"></path><path class="a dxymJzam_12" d="M274.45,600.59L306.67,508.28L310.92,508.28L299.17,551.16L280.13,603.43L274.45,605.08L274.45,600.59Z"></path><path class="a dxymJzam_13" d="M274.45,605.08L264.85,627.46L264.85,632.68L274.45,632.68L286.49,603.43L280.13,603.43L274.45,605.08Z"></path><path class="a dxymJzam_14" d="M293.72,523.02L258.99,622.41L260.52,625.61L264.85,627.46L274.45,605.08L274.45,600.59L268.82,601.03L294.65,527.22L293.72,523.02Z"></path><path class="a dxymJzam_15" d="M274.45,632.68L368,632.68L373.88,631.76L385.11,631.76L412.76,601.42L286.49,603.43L274.45,632.68Z"></path><path class="a dxymJzam_16" d="M385.11,631.76L397.1,631.76L419.62,605.08L457.47,573.38L522.62,536.98L498.06,545.5L453.86,567.67L412.76,601.42L385.11,631.76Z"></path><path class="a dxymJzam_17" d="M485.85,633.31L460.69,631.76L410.81,628.17L419.66,617.05L410.81,620.71L425.26,604.39L437.85,595.53L467.22,572.22L529.7,540.98L567,527.46L629.47,512.08L695.68,514.87L766.08,529.79L803.85,544.71L829.49,561.03L885.91,596L930.2,658.01L967.04,708.37L996.22,779.39L941.33,779.71"></path><path class="a dxymJzam_18" d="M460.69,631.76L492.83,602.5L535.34,579.41L587.99,564.77L536.65,580.63L511.14,594.88L495.06,603.61L465.42,632.05L460.69,631.76Z"></path><path class="a dxymJzam_19" d="M941.33,779.71L961.44,927.1L971.95,926.1L986.48,903.36L967.53,810.51L957.42,789.67L941.33,779.71Z"></path><path class="a dxymJzam_20" d="M989.46,898.69L1018.59,883.76L1074.11,866.79L1079.43,868.43L1074.93,871.29L1028.67,884.34L989.46,898.69Z"></path><path class="a dxymJzam_21" d="M1131.68,870.48L1128.04,874.34L1120.54,888.89L1125.99,894.02L1131.68,874.34L1131.68,870.48Z"></path><path class="a dxymJzam_22" d="M941.33,645.89L944.06,650.61L969.98,687.49L1095.33,686.15L1100.88,686.16L1098.02,655.92L1097.45,644.44L941.33,645.89Z"></path><path class="a dxymJzam_23" d="M961.13,673.58L1099.89,672.06"></path><path class="a dxymJzam_24" d="M1101.22,643.68L1103.15,667.22L1105.21,685.36L2248.46,672.47L2249.54,661.83L2252.73,630.32L1294.58,640.78L1101.22,643.68Z"></path><path class="a dxymJzam_25" d="M1104.37,672.19L2250.36,658.07"></path><path class="a dxymJzam_26" d="M1097.45,644.44L1098.02,655.92L1100.88,686.16L1105.66,726.23L1115.21,784.63L999.22,782.51L996.22,779.39"></path><path class="a dxymJzam_27" d="M885.91,596L1097.66,593.89"></path><path class="a dxymJzam_28" d="M1119.11,784.67L2232.69,783.68L2224.58,826.45L2213.53,855.2L2195.83,865.52L1362.13,866.79L1142.68,866.18L1119.11,784.67Z"></path><path class="b dxymJzam_29" d="M406.24,887.2l-18.67-1-.91-95.3s-11.6,44.77-21.91,121.68l41.49-25.34,22.42,3.35"></path><path class="a dxymJzam_30" d="M1246.17,329.26L1205.68,359.42L1197.83,368.1L1197.83,372.23L1202.31,373.02L1231.84,373.02L1231.47,365.17L1236.7,353.39L1246.17,329.26Z"></path><path class="a dxymJzam_31" d="M1251.24,320.64l-36.36,27.48L1203,357.7s-7.27,6.56-7.62,9.57v4.79l2.45.17,4.48.79h114.83l21.17-20.21s7.44-6.16,8.29-15.38c0,0-2.57-41-2.86-44.12L1338,259.26h-17.74l-14.59,3.15L1292,270.13l-21,22.6-2.78,10Z"></path><path class="b dxymJzam_32" d="M989.46,901.63L2369.97,903.08L2375.5,899.5L2357.65,899.97L1131.68,896.63L1048.81,898.69L989.46,901.63Z"></path><path class="a dxymJzam_33" d="M1271,292.73l-75.61,58.41-12.12,13.16s-9.13,24.35,18.88,23.75l235-4.87,703.4-15.35a23.34,23.34,0,0,0,14.33-18.31L2109.46,54.13s-2-15.63-14.78-21.07c0,0-10.72-3.32-31-2.58l-177,2.58-126.39,5.55-39.91,4.06L1691.87,46l-12.57,2.21-8.5,1.85-17.73,6.65L1598,85.54l-87.21,50.26-63.93,38.06L1329.71,251.1l-9.43,8.16"></path><path class="a dxymJzam_34" d="M1338,259.26l48.89-33.56L1465,174,1544.11,129l67.06-37.37,44-23.64s11.54-8.79,45.62-12.64l28.58-3.85,52.77-3.84,116-4.95L2030,39.92h46.17s16.33-.42,17.59,7.15l33.53,202.27,14.29,96.19s2.2,7.69-7.7,8.79l-172,4.95-206.11,4.94-230.31,5L1341.84,373h-24.7"></path><path class="a dxymJzam_35" d="M1339.41,267.52l49.7-35.77,90.69-57.16,70.36-40.68,83-45.07L1659,75.1s13.19-8.8,38.47-10.44l107.19-8.8,122-3.3,157.2-3.84s10.63-.22,12.7,15.29"></path><path class="a dxymJzam_36" d="M1344.07,327.83s-15.45,1.25-21.29,1.25c0,0-.42,7.52-3.34,7.52,0,0-15.86-20.87-14.19-58,0,0-2.92,34.23,3.34,49.25,0,0,4.17,15.44,12.1,15.44l18-.41s7.16.41,8-5.43Z"></path><path class="a dxymJzam_37" d="M1269.36,307.38L1271.44,352.87L1234.71,369.57L1266.85,351.2L1269.36,307.38Z"></path><path class="a dxymJzam_38" d="M1275.2,349.95L1288.14,347.87L1275.97,352.65L1275.2,349.95Z"></path><path class="c dxymJzam_39" d="M2201.25,864.99L2204.71,867.3L2237.4,867.3L2248.17,864.22L2214.71,864.99L2206.25,864.61L2201.25,864.99Z"></path><path class="a dxymJzam_40" d="M2255.08,577.51s-1.53,42.36-2.35,52.81"></path><path class="a dxymJzam_41" d="M2232.69,783.69s6.29-35.89,8.19-45.37l4.31-29.13,2.07-16.9,1-14.82.17-5"></path><path class="a dxymJzam_42" d="M1101.04,592.91L1100.71,609.97L1100.84,630.55L1101.22,643.68"></path><path class="a dxymJzam_43" d="M1105.21,685.36L1107.78,713.02L1110.23,731.03L1114.09,757.53L1119.11,784.67"></path><path class="a dxymJzam_44" d="M2046.03,419.59L2133.4,419.59L2152.24,421.59L2157.74,424.84L2157.99,443.84L2146.49,448.34L2132.74,448.59L2047.01,449.09L2032.76,448.34L2022.52,445.59L2021.77,428.84L2022.77,425.09L2025.52,422.59L2046.03,419.59Z"></path><path class="a dxymJzam_45" d="M2047.01,449.09L2046.76,428.09L2048.51,426.09L2129.25,426.09L2131.99,428.09L2132.74,448.59"></path><path class="a dxymJzam_46" d="M2139.69,489.26A8.86,8.86 0,1,1 2157.4100000000003,489.26A8.86,8.86 0,1,1 2139.69,489.26"></path><path class="a dxymJzam_47" d="M2136.68,489.48A11.8,11.8 0,1,1 2160.28,489.48A11.8,11.8 0,1,1 2136.68,489.48"></path><path class="a dxymJzam_48" d="M2257.99,577.46L2255.73,630.34L2437.91,628.33L2413.13,670.19L2252.38,672.2L2250.04,703.34L2243.34,745.87L2235.64,787.39L2228.27,825.24L2216.55,856.38L2201.25,864.99"></path><path class="b dxymJzam_49" d="M2245.01,866.72L2246.18,869.64L2364.8,899.62L2375.5,899.5L2366.56,892.73L2259.91,868.47L2254.65,866.14L2255.24,863.51L2325.07,818.34L2377.37,784.03L2383.51,781.99L2434.06,783.15L2435.5,778.5L2384.38,778.77L2374.74,781.11L2328.87,811.67L2252.9,861.17L2245.01,866.72Z"></path><path class="a dxymJzam_50" d="M2499.2,58.51L2497.86,33.88L2492.9,27.77L2568.84,48.84L2656.96,76.58L2766.29,112.07L2836.46,136.14L2940.08,172.85L3046.56,212.83L3154.66,254.04L3188.93,267.5L3203.62,271.99L3221.16,277.7L3255.43,282.59L3270.93,285.04L3296.63,286.67L3319.07,288.71L3333.35,291.98L3345.59,297.28L3363.53,313.6L3387.2,356.43L3401.07,383.36L3405.96,396L3405.15,399.68L3401.07,400.9L3346,401.5"></path><path class="a dxymJzam_51" d="M1041.29,323.32L1041.29,333.32L1049.92,332.63L1080.96,309.87L1091.3,305.73L1093.72,305.73L1094.75,301.59L1090.61,300.55L1086.47,304.35L1041.29,323.32Z"></path><path class="a dxymJzam_52" d="M907.53,350.36L909.9,345.67L914.79,342.68L924.3,338.88L928.92,347.3"></path><path class="a dxymJzam_53" d="M1220.87,278.29,1136,323.37l-2.06,1.05,2.52,9.59,7-.28s-40.63,180.5-42.36,259.18l1154-15.4v-40A397.58,397.58,0,0,0,2238.6,451s-17.72-74.58-29.26-85.3l-46.06-208L2129,13"></path><path class="a dxymJzam_54" d="M2495.34,57.95L2495.34,33.91L2488.18,25.73L2446.53,17.8L2385.52,9.32L2234.67,2.54L2107.55,0.85L1893.99,5.93L1682.12,19.49L1644.83,24.58L1619.41,29.66L1589.04,40.55L1575.86,46.85L1569.5,56.5L1575.86,46.85L1589.04,40.55L1627.19,42.99L1596.42,59.13L1502.1,112.08L1433.01,150.42L1340.71,209.43L1287.24,243.72L1224.7,284.58L1152.58,334.01L1136.44,334.01L1240.84,265.41L1331.63,205.39L1396.69,166.05L1479.41,116.62L1591.38,55.09L1593.13,51.09L1576.75,52.57L1115.99,309.31"></path><path class="a dxymJzam_55" d="M1090.61,300.55L1094.53,296.9L1103.08,297.16L1108.43,304.92L1131.17,318.56L1137.39,322.54L1133.92,324.42L1129.03,323.64L1100.14,308.13L1104.69,315.62L1101.75,319.36L1093.72,305.73"></path><path class="a dxymJzam_56" d="M1094.61,307.81L1088.64,310.27L1084.63,317.76L1091.58,323.64"></path><path class="a dxymJzam_57" d="M1100.24,317.56L1075.49,333.32"></path><path class="a dxymJzam_58" d="M893.5,917.7L959,917.64"></path><path class="a dxymJzam_59" d="M972,926.1l1438.55.25,23.56-143.2s12.56-44.08,32-74.64c0,0,55.57-91.7,173.2-119.48,0,0,90.76-25,195.42,4.63,0,0,46.31,13,75.95,33.34l507.54-5.56,11.11-.92,12-61.13.31-4.95-5.34-11.91-51.34.41"></path><path class="a dxymJzam_60" d="M3429.29,620.52l9.64,12.22,53.63,9.29L3509,655.62l-.71,17.87-537.68,6.43-8.58-2.86s-37-42.21-51.39-50.06"></path><path class="a dxymJzam_61" d="M2962,677.06s36.4,33.7,51.5,85.64c0,0,17.52,86.37,16.91,99.66l195.7-14.5,170.32-14.49s2.41,0,6.64-6.65l3.63-19.32,9.06-13.89,41.07-21.14,2.41-6,32-15.71,6.65-23,2.41-6.64,7.95-47.54"></path><path class="a dxymJzam_62" d="M3030.5,862.5L2958.5,838.5"></path><path class="a dxymJzam_63" d="M3401.07,400.9L3408.17,418.69L3416.24,440.2L3432.37,467.09L3446.49,518.18L3436.3,542.53"></path><path class="a dxymJzam_64" d="M3416.24,440.2L3370.53,440.87L3357.08,438.19"></path><path class="a dxymJzam_65" d="M3370.53,440.87L3390.94,527.9L3441.97,527.52"></path><path class="a dxymJzam_66" d="M3159.01,242.64L3166.09,249.34L3200.74,270.58L3221.16,277.7L3226.81,278.77L3218.62,265.36L3164.97,241.89L3159.01,242.64Z"></path><path class="a dxymJzam_67" d="M3222.72,272.81L3401.91,250.46L3406.38,250.46L3412.71,258.28L3409.36,266.11L3384.95,290.78L3368.01,307.46L3365.4,317.15"></path><path class="a dxymJzam_68" d="M2210.37,45.57l3.09-2.58,174.92,7.43,58.31,10.07L2741.4,157l347.71,130.39-8,25.44s-9,8.48-14.31,8.48l-393.3,12.19L2426,340.35l-121.39,2.12-6.36-2.65L2212.4,57.31l-1.88-6.81Z"></path><path class="a dxymJzam_69" d="M2088,355.29,2061.42,92.35s-7.52-6.51-15.53-6.51c0,0-39.07-1.51-67.11-.51,0,0-203.34,4.51-245.41,10.52,0,0,1.13,4.65-36.06,10.52,0,0-19,3-25,3,0,0-87.65,48.59-104.68,61.61,0,0-159.14,102.28-174.26,115.85,0,0-5.42-.39-7,4.27,0,0-7,.38-6.21,5.81,0,0-4.65-1.55-7,4.27,0,0-5.42-1.17-6.59,7.36,0,0-5.42-7.75-22.09-5.81"></path><path class="a dxymJzam_70" d="M2039.68,356.56L2074.14,219.91"></path><path class="a dxymJzam_71" d="M2070.62,183.88s-3.92-8.22-23.5-8.22c0,0-5.09-1.57-17.62,1.17,0,0-7.44,0-14.1,14.49L1979.77,301s-4.3,13.31,9.4,14.1l2,.09"></path><path class="a dxymJzam_72" d="M2072.49,205.22l-24.39-6.37s-17.74-2.77-23,10.25l-36.87,116.42s-2.49,9.7-13.58,20.51c0,0-10.81,11.64-20,13.3"></path><path class="a dxymJzam_73" d="M2252.38,672.2L2255.73,630.34"></path><path class="a dxymJzam_74" d="M2476.67,840.98A240.89,240.89 0,1,1 2958.45,840.98A240.89,240.89 0,1,1 2476.67,840.98"></path><path class="a dxymJzam_75" d="M2866.27,860.5,2823,843.93s-11.75-4.43-13.64-15.73c0,0-3.11-14.7-3.11-18.7,0-6,4.68-10.28,4.68-10.28l36.72-34"></path><path class="a dxymJzam_76" d="M2796.27,968.5,2791,955.13l-10.75-30.63s-3.48-7.71.26-11.86,16.74-20.14,19.74-23.14,10-2,10-2l34,4,14.41,1.21"></path><path class="a dxymJzam_77" d="M2671.27,983.5l10-20L2695,937.82s2.24-5.32,14.17-4.2l18.88.53a15.82,15.82,0,0,1,14.16,8.39l25,40"></path><path class="a dxymJzam_78" d="M2574.77,887.5l38.44,0,16.06,0s8,0,12.38,5.63a122.85,122.85,0,0,1,10.9,16.89c2.72,5.48.72,11.48.72,11.48l-15,47"></path><path class="a dxymJzam_79" d="M2589.27,763.5l33.91,29s8.69,6,8.39,10.49-4.3,25.22-4.8,28.85-6.22,5.24-6.22,5.24l-52.28,19.39"></path><path class="a dxymJzam_80" d="M2703.27,691.5l-7.19,53.3s-.57,5-4.19,7.87-22,9.9-26.23,12.06c-5.39,2.77-8.39,0-8.39,0l-44-32.23"></path><path class="a dxymJzam_81" d="M2825.27,736.5l-44.13,25.19s-4.87,3.81-8.87,1.81-21-9-24-11c-3-1-3.65-7-3.65-7l-7.35-53"></path><path class="a dxymJzam_82" d="M2543.46,840.98A174.1,174.1 0,1,1 2891.66,840.98A174.1,174.1 0,1,1 2543.46,840.98"></path><path class="a dxymJzam_83" d="M2559.36,840.98A158.2,158.2 0,1,1 2875.7599999999998,840.98A158.2,158.2 0,1,1 2559.36,840.98"></path><path class="a dxymJzam_84" d="M2567.4,840.98A150.16,150.16 0,1,1 2867.72,840.98A150.16,150.16 0,1,1 2567.4,840.98"></path><path class="a dxymJzam_85" d="M2716.44,778.65L2710.35,784.1L2710.35,793.13L2716.44,798.71L2724.4,798.71L2730.42,793.13L2730.42,784.1L2724.4,778.65L2716.44,778.65Z"></path><path class="a dxymJzam_86" d="M2716.44,885.78L2710.35,891.23L2710.35,900.26L2716.44,905.85L2724.4,905.85L2730.42,900.26L2730.42,891.23L2724.4,885.78L2716.44,885.78Z"></path><path class="a dxymJzam_87" d="M2663.42,830.87L2657.33,836.32L2657.33,845.35L2663.42,850.94L2671.38,850.94L2677.4,845.35L2677.4,836.32L2671.38,830.87L2663.42,830.87Z"></path><path class="a dxymJzam_88" d="M2770.16,830.87L2764.07,836.32L2764.07,845.35L2770.16,850.94L2778.12,850.94L2784.14,845.35L2784.14,836.32L2778.12,830.87L2770.16,830.87Z"></path><path class="a dxymJzam_89" d="M2618.27,788.5s-14.22,26.18-10,53"></path><path class="a dxymJzam_90" d="M2644.27,755.32s19.16-24.9,54-28.35"></path><path class="a dxymJzam_91" d="M2742.27,727.5s41.08,8.76,52,26"></path><path class="a dxymJzam_92" d="M2823.2,788.28s15.81,19.56,10.07,59.22"></path><path class="a dxymJzam_93" d="M2613.21,887.47s6.74,29.36,36.06,46"></path><path class="a dxymJzam_94" d="M2687.27,952.5s38.61,7.06,60.45-1"></path><path class="a dxymJzam_95" d="M2824.27,889.5s-7.33,25.27-39.85,46.86"></path><path class="a dxymJzam_96" d="M2702.04,788.68A18.34,18.34 0,1,1 2738.7200000000003,788.68A18.34,18.34 0,1,1 2702.04,788.68"></path><path class="a dxymJzam_97" d="M2649.0299999999997,840.91A18.34,18.34 0,1,1 2685.71,840.91A18.34,18.34 0,1,1 2649.0299999999997,840.91"></path><path class="a dxymJzam_98" d="M2702.04,895.82A18.34,18.34 0,1,1 2738.7200000000003,895.82A18.34,18.34 0,1,1 2702.04,895.82"></path><path class="a dxymJzam_99" d="M2755.7599999999998,840.91A18.34,18.34 0,1,1 2792.44,840.91A18.34,18.34 0,1,1 2755.7599999999998,840.91"></path><path class="a dxymJzam_100" d="M2702.48,895.5A55.84,55.84,0,0,1,2666.77,859"></path><path class="a dxymJzam_101" d="M2773.06,859.78a55.87,55.87,0,0,1-34.3,35.33"></path><path class="a dxymJzam_102" d="M2738.27,790.5c16.32,5.08,27.77,16.38,33.83,32.25"></path><path class="a dxymJzam_103" d="M2668.1,822.44a55.9,55.9,0,0,1,33.4-32.37"></path><path class="a dxymJzam_104" d="M2702.45,842.15A4.32,4.32 0,1,1 2711.09,842.15A4.32,4.32 0,1,1 2702.45,842.15"></path><path class="a dxymJzam_105" d="M2721.9199999999996,842.15A4.32,4.32 0,1,1 2730.56,842.15A4.32,4.32 0,1,1 2721.9199999999996,842.15"></path><path class="a dxymJzam_106" d="M2694.01,837.87L2701.74,837.87"></path><path class="a dxymJzam_107" d="M2697.87,837.87L2697.87,846.87"></path><path class="a dxymJzam_108" d="M2730.96,837.87L2738.69,837.87"></path><path class="a dxymJzam_109" d="M2734.83,837.87L2734.83,846.87"></path><path class="a dxymJzam_110" d="M2712.59,837.87L2716.39,841.74L2720.01,837.83"></path><path class="a dxymJzam_111" d="M2716.39,841.74L2716.39,846.87"></path><path class="a dxymJzam_112" d="M2739.28,846.87L2742.79,837.83L2746.76,846.87"></path><path class="a dxymJzam_113" d="M2740.87,843.03L2745.17,843.03"></path><path class="a dxymJzam_114" d="M1627.19,43a174.9,174.9,0,0,1,50.63-14.07S1957.54,3,2129,13l3.22.36,50.91,216.31,30.32,133.47s10.7,8,27.19,82.38c0,0,15.07,43.6,17.38,88.8v43.15l248.17-4s87.75-49.14,138.89-56.16l72.1-7.09,73.25,3.57s78.08,17.48,110.84,37.13l24,15.29,442.05-4.54,4.94-1.34v-4.49l7.33-12,5.39-.9-6-20.81-15.27-63.77-23.8-75-10.78-11.22-208.37-90.72-4.05,3.14-18.41,41.77L3088,334l-17.06,5.39-637.58,19-126.85,3.53s-25.54-4-32.59-24.44L2217.5,146.94l-28.18-89.85L2185.79,43l1.76-10.57,10.57-5.28,128.61,3.52L2421,39.47l88.09,21.14,198.2,67,409.95,152.21.38,3.92"></path><path class="a dxymJzam_115" d="M1451.78,370l-15.79-58s-2-12.73,6.62-13.74c0,0,9.17-3.57,13.24,6.11l23.93,65.17"></path><path class="a dxymJzam_116" d="M1471.12,368.94L1455.34,314.46L1455.6,311.59L1457.32,313.51L1473.43,369.87"></path><path class="a dxymJzam_117" d="M1393.33,286.83s5.91-1.13,7.94,1.16c0,0,4.07,4.83,7.89,35.37l2.29,32.58s-2.8,13-14,15.52"></path><path class="a dxymJzam_118" d="M1625.5,93.5s18.41,16.31,46.77,15.87"></path><path class="a dxymJzam_119" d="M1659,75.1s70.61,2.63,74.38,20.75"></path><path class="a dxymJzam_120" d="M1600.5,106.5s-3.21,34.45-8.43,43.32c0,0-2.09,12.26-24.26,11.74,0,0-6.26,1.14-18.26-4.78"></path><path class="a dxymJzam_121" d="M1541.41,138.64s-3.7,5.08.92,12c0,0,5.39,8.94,19.88,8,0,0,17.88-.62,23.85-15.12,0,0,6.92-26.44,5-32.1"></path><path class="a dxymJzam_122" d="M2506.15,573.45s-60.5,56.19-96.63,128.45c0,0-20.86,39-34.78,79.21l-138.42,2.52"></path><path class="a dxymJzam_123" d="M2370.41,656.97L2421.01,656.51"></path><path class="a dxymJzam_124" d="M2253.98,658.09L2278.83,657.87"></path><path class="a dxymJzam_125" d="M2925.25,566.19s31.82,33.29,44.81,60.36"></path><path class="a dxymJzam_126" d="M2224.25,60.73l3.69-2.95,74.52,3s48.27,3,92.73,16.94l185,61,164.28,57.58L2985,289l32.6,13.13s5.64,1.63,4.48,4.41l-5.33,7.42s-2.23,3.59-15.29,3.48l-513.73,12L2319.09,333s-9.59.51-14.41-15.6l-61.8-201Z"></path><path class="a dxymJzam_127" d="M2933.5,318.5,2746,230.38l-236.43-96v-10.2L2644,175.77s164.42,63,174.62,66.61l182.79,75"></path><path class="a dxymJzam_128" d="M2509.61,124.16L2627.49,163.68L2834.81,242.85L3014.5,315.5"></path><path class="a dxymJzam_129" d="M2624.5,162.5L2749.69,204.41L2905.5,258.5"></path><path class="a dxymJzam_130" d="M2593.62,326.15l14.19-73.23s1.37-12.81,15.1-13.73L2653,237l-6.6-3c-13.2-5.4-226.23-84-226.23-84-19.2-6.61-117.62-35.41-117.62-35.41l-63.08-8.06"></path><path class="a dxymJzam_131" d="M2638,325.23l12.81-76s2.75-17.39,12.36-19.22l30.2-4.12h21.06s8.24,0,8.24,7.78l-7.79,89.7"></path><path class="a dxymJzam_132" d="M2662.5,78.5l-2.1-4.36,14.91,1.14,195.44,67.06,1-6.36,6.25.94,18.73,7.18s3.12.62,1.87,4.05l-2.18,2.81,171.86,64.42,6.69,3.4.76,3-3.4.75"></path><path class="a dxymJzam_133" d="M2898.61,148.15L3057.5,201.93L3159.01,242.64L3166.09,249.34L3054.75,204.99L2896.43,150.96"></path><path class="a dxymJzam_134" d="M3413,431.74l-45.28.49a4.18,4.18,0,0,1-3.9-2.19l.73-2.2,46.26-.24"></path><path class="a dxymJzam_135" d="M3496.5,733.5L3036.4,747.07L3028.64,740.17L3499.5,724.5"></path><path class="a dxymJzam_136" d="M3047.83,770.28L3491.28,750.62"></path><path class="a dxymJzam_137" d="M3451.78,774.79L3060.92,792.4L3056.4,787.88L3459.27,766.33"></path><path class="a dxymJzam_138" d="M3023.75,860.55c0,20.85-5.59,36.64-12.83,36.64s-13.46-24.64-13.46-45.49"></path><path class="a dxymJzam_139" d="M3026.79,861.05c0,20.85-5.31,41.21-15.52,41.5-12.55.35-16.34-31.27-16.34-52.11"></path><path class="a dxymJzam_140" d="M3011.27,902.55l303.3-.63s3.68,3.22,10.12,1.38c0,0,16.11-11.51,13.35-65.36"></path><path class="a dxymJzam_141" d="M3404.32,821.37h37.75s3.68-3.23,7.36-2.3c0,0,8.28-3.23,7.36,27.61,0,0-.46,32.68-9.66,24.86l-110-.92"></path><path class="a dxymJzam_142" d="M3434,784.6l13.28,18.7s2.24,2.2,4.24,1.2a10.66,10.66,0,0,0,3-2s1.05-1.52-.21-4.58-5.79-7.42-12.79-17.42"></path><path class="a dxymJzam_143" d="M3436.92,782.94l10.49,15.35s1.68,2.52,3,2.52c0,0,2.35-.17-1.34-5.88l-10.25-13.78"></path><path class="a dxymJzam_144" d="M2412.92,913.79L2485.25,907.46"></path><path class="a dxymJzam_145" d="M129.5,526.5L140.07,532.98L207.77,532.98L186.94,614.35L111.44,613.05L80.84,621.37"></path><path class="a dxymJzam_146" d="M2012.94,196.48s-11.15-2-18.35,22.94l-28.84,85.19s-5.24,13.11,1.31,19h6.55l5.9-15.73"></path><path class="a dxymJzam_147" d="M1967.06,323.62L1958.32,357.73"></path><path class="a dxymJzam_148" d="M2278.95,636.13L2278.95,659.78L2295.09,659.78L2295.09,653.05L2288.35,653.05L2288.35,636.13L2278.95,636.13Z"></path><path class="a dxymJzam_149" d="M2297.44,635.97L2297.44,660.25L2315.46,660.25L2315.46,653.83L2306.84,653.83L2306.84,649.91L2315.46,649.91L2315.46,644.74L2307.16,644.74L2307.16,640.36L2315.46,640.36L2315.46,635.97L2297.44,635.97Z"></path><path class="a dxymJzam_150" d="M2323.61,659.94L2330.34,659.94L2338.33,636.07L2315.46,635.97L2323.61,659.94Z"></path><path class="a dxymJzam_151" d="M2325.21,635.9L2332.23,653.23"></path><path class="a dxymJzam_152" width="9.36" height="23.42" d="M2338.33 636.07 L2347.69 636.07 L2347.69 659.49 L2338.33 659.49 Z"></path><path class="a dxymJzam_153" d="M2349.64,636.07L2349.64,659.74L2357.08,659.74L2357.08,648.92L2362.83,659.66L2370.43,659.66L2370.43,636.07L2361.9,636.07L2361.9,645.99L2356.66,636.07L2349.64,636.07Z"></path><path class="a dxymJzam_154" d="M423.5,841.37A240.89,240.89 0,1,1 905.28,841.37A240.89,240.89 0,1,1 423.5,841.37"></path><path class="a dxymJzam_155" d="M813.1,860.89l-43.25-16.56s-11.75-4.44-13.64-15.74c0,0-3.11-14.7-3.11-18.7,0-6,4.69-10.28,4.69-10.28l36.71-34"></path><path class="a dxymJzam_156" d="M743.1,968.89l-5.25-13.37L727.1,924.89s-3.47-7.71.26-11.85,16.74-20.15,19.74-23.15,10-2,10-2l34,4,14.42,1.22"></path><path class="a dxymJzam_157" d="M618.1,983.89l10-20,13.77-25.67s2.23-5.33,14.16-4.2l18.88.52a15.84,15.84,0,0,1,14.16,8.4l25,39.95"></path><path class="a dxymJzam_158" d="M521.6,887.89l38.44,0,16.06,0s8,0,12.39,5.64a123.19,123.19,0,0,1,10.89,16.89c2.72,5.47.72,11.47.72,11.47l-15,47"></path><path class="a dxymJzam_159" d="M536.1,763.89l33.91,29s8.69,6,8.39,10.49-4.29,25.21-4.8,28.84-6.21,5.25-6.21,5.25L515.1,856.89"></path><path class="a dxymJzam_160" d="M650.1,691.89l-7.18,53.31s-.58,5-4.2,7.86-22,9.9-26.22,12.07c-5.4,2.76-8.4,0-8.4,0l-44-32.24"></path><path class="a dxymJzam_161" d="M772.1,736.89,728,762.08s-4.87,3.81-8.87,1.81-21-9-24-11c-3-1-3.65-6.94-3.65-6.94l-7.35-53.06"></path><path class="a dxymJzam_162" d="M490.28999999999996,842.16A174.1,174.1 0,1,1 838.49,842.16A174.1,174.1 0,1,1 490.28999999999996,842.16"></path><path class="a dxymJzam_163" d="M506.19,842.16A158.2,158.2 0,1,1 822.5899999999999,842.16A158.2,158.2 0,1,1 506.19,842.16"></path><path class="a dxymJzam_164" d="M514.23,842.16A150.16,150.16 0,1,1 814.55,842.16A150.16,150.16 0,1,1 514.23,842.16"></path><path class="a dxymJzam_165" d="M663.27,779.04L657.18,784.49L657.18,793.52L663.27,799.11L671.23,799.11L677.25,793.52L677.25,784.49L671.23,779.04L663.27,779.04Z"></path><path class="a dxymJzam_166" d="M663.27,886.18L657.18,891.63L657.18,900.66L663.27,906.25L671.23,906.25L677.25,900.66L677.25,891.63L671.23,886.18L663.27,886.18Z"></path><path class="a dxymJzam_167" d="M610.26,831.27L604.17,836.72L604.17,845.75L610.26,851.34L618.22,851.34L624.24,845.75L624.24,836.72L618.22,831.27L610.26,831.27Z"></path><path class="a dxymJzam_168" d="M716.99,831.27L710.9,836.72L710.9,845.75L716.99,851.34L724.95,851.34L730.97,845.75L730.97,836.72L724.95,831.27L716.99,831.27Z"></path><path class="a dxymJzam_169" d="M565.1,788.89s-14.21,26.19-10,53"></path><path class="a dxymJzam_170" d="M591.11,755.72s19.15-24.91,54-28.35"></path><path class="a dxymJzam_171" d="M689.1,727.89s41.08,8.76,52,26"></path><path class="a dxymJzam_172" d="M770,788.67s15.81,19.57,10.06,59.22"></path><path class="a dxymJzam_173" d="M560,887.86s6.75,29.37,36.06,46"></path><path class="a dxymJzam_174" d="M634.1,952.89s38.61,7.06,60.45-1"></path><path class="a dxymJzam_175" d="M771.1,889.89s-7.32,25.27-39.84,46.86"></path><path class="a dxymJzam_176" d="M648.88,789.08A18.34,18.34 0,1,1 685.5600000000001,789.08A18.34,18.34 0,1,1 648.88,789.08"></path><path class="a dxymJzam_177" d="M595.86,841.3A18.34,18.34 0,1,1 632.5400000000001,841.3A18.34,18.34 0,1,1 595.86,841.3"></path><path class="a dxymJzam_178" d="M648.88,896.21A18.34,18.34 0,1,1 685.5600000000001,896.21A18.34,18.34 0,1,1 648.88,896.21"></path><path class="a dxymJzam_179" d="M702.6,841.3A18.34,18.34 0,1,1 739.2800000000001,841.3A18.34,18.34 0,1,1 702.6,841.3"></path><path class="a dxymJzam_180" d="M649.31,895.9a55.87,55.87,0,0,1-35.71-36.55"></path><path class="a dxymJzam_181" d="M719.89,860.17A55.86,55.86,0,0,1,685.6,895.5"></path><path class="a dxymJzam_182" d="M685.1,790.89c16.33,5.08,27.78,16.39,33.84,32.26"></path><path class="a dxymJzam_183" d="M614.94,822.84a55.85,55.85,0,0,1,33.39-32.37"></path><path class="a dxymJzam_184" d="M649.65,842.07A4.32,4.32 0,1,1 658.2900000000001,842.07A4.32,4.32 0,1,1 649.65,842.07"></path><path class="a dxymJzam_185" d="M669.12,842.07A4.32,4.32 0,1,1 677.7600000000001,842.07A4.32,4.32 0,1,1 669.12,842.07"></path><path class="a dxymJzam_186" d="M641.21,837.79L648.94,837.79"></path><path class="a dxymJzam_187" d="M645.08,837.79L645.08,846.79"></path><path class="a dxymJzam_188" d="M678.17,837.79L685.89,837.79"></path><path class="a dxymJzam_189" d="M682.03,837.79L682.03,846.79"></path><path class="a dxymJzam_190" d="M659.79,837.79L663.6,841.66L667.22,837.75"></path><path class="a dxymJzam_191" d="M663.6,841.66L663.6,846.79"></path><path class="a dxymJzam_192" d="M686.49,846.79L690,837.75L693.96,846.79"></path><path class="a dxymJzam_193" d="M688.08,842.95L692.37,842.95"></path><style data-made-with="vivus-instant">.dxymJzam_0{stroke-dasharray:394 396;stroke-dashoffset:395;animation:dxymJzam_draw 2333ms linear 0ms forwards;}.dxymJzam_1{stroke-dasharray:461 463;stroke-dashoffset:462;animation:dxymJzam_draw 2333ms linear 6ms forwards;}.dxymJzam_2{stroke-dasharray:312 314;stroke-dashoffset:313;animation:dxymJzam_draw 2333ms linear 12ms forwards;}.dxymJzam_3{stroke-dasharray:394 396;stroke-dashoffset:395;animation:dxymJzam_draw 2333ms linear 18ms forwards;}.dxymJzam_4{stroke-dasharray:3803 3805;stroke-dashoffset:3804;animation:dxymJzam_draw 2333ms linear 24ms forwards;}.dxymJzam_5{stroke-dasharray:220 222;stroke-dashoffset:221;animation:dxymJzam_draw 2333ms linear 30ms forwards;}.dxymJzam_6{stroke-dasharray:710 712;stroke-dashoffset:711;animation:dxymJzam_draw 2333ms linear 36ms forwards;}.dxymJzam_7{stroke-dasharray:445 447;stroke-dashoffset:446;animation:dxymJzam_draw 2333ms linear 42ms forwards;}.dxymJzam_8{stroke-dasharray:773 775;stroke-dashoffset:774;animation:dxymJzam_draw 2333ms linear 48ms forwards;}.dxymJzam_9{stroke-dasharray:905 907;stroke-dashoffset:906;animation:dxymJzam_draw 2333ms linear 54ms forwards;}.dxymJzam_10{stroke-dasharray:219 221;stroke-dashoffset:220;animation:dxymJzam_draw 2333ms linear 60ms forwards;}.dxymJzam_11{stroke-dasharray:1117 1119;stroke-dashoffset:1118;animation:dxymJzam_draw 2333ms linear 66ms forwards;}.dxymJzam_12{stroke-dasharray:213 215;stroke-dashoffset:214;animation:dxymJzam_draw 2333ms linear 72ms forwards;}.dxymJzam_13{stroke-dasharray:84 86;stroke-dashoffset:85;animation:dxymJzam_draw 2333ms linear 78ms forwards;}.dxymJzam_14{stroke-dasharray:231 233;stroke-dashoffset:232;animation:dxymJzam_draw 2333ms linear 84ms forwards;}.dxymJzam_15{stroke-dasharray:310 312;stroke-dashoffset:311;animation:dxymJzam_draw 2333ms linear 90ms forwards;}.dxymJzam_16{stroke-dasharray:341 343;stroke-dashoffset:342;animation:dxymJzam_draw 2333ms linear 96ms forwards;}.dxymJzam_17{stroke-dasharray:894 896;stroke-dashoffset:895;animation:dxymJzam_draw 2333ms linear 102ms forwards;}.dxymJzam_18{stroke-dasharray:294 296;stroke-dashoffset:295;animation:dxymJzam_draw 2333ms linear 108ms forwards;}.dxymJzam_19{stroke-dasharray:324 326;stroke-dashoffset:325;animation:dxymJzam_draw 2333ms linear 114ms forwards;}.dxymJzam_20{stroke-dasharray:192 194;stroke-dashoffset:193;animation:dxymJzam_draw 2333ms linear 120ms forwards;}.dxymJzam_21{stroke-dasharray:54 56;stroke-dashoffset:55;animation:dxymJzam_draw 2333ms linear 126ms forwards;}.dxymJzam_22{stroke-dasharray:380 382;stroke-dashoffset:381;animation:dxymJzam_draw 2333ms linear 132ms forwards;}.dxymJzam_23{stroke-dasharray:139 141;stroke-dashoffset:140;animation:dxymJzam_draw 2333ms linear 139ms forwards;}.dxymJzam_24{stroke-dasharray:2380 2382;stroke-dashoffset:2381;animation:dxymJzam_draw 2333ms linear 145ms forwards;}.dxymJzam_25{stroke-dasharray:1147 1149;stroke-dashoffset:1148;animation:dxymJzam_draw 2333ms linear 151ms forwards;}.dxymJzam_26{stroke-dasharray:262 264;stroke-dashoffset:263;animation:dxymJzam_draw 2333ms linear 157ms forwards;}.dxymJzam_27{stroke-dasharray:212 214;stroke-dashoffset:213;animation:dxymJzam_draw 2333ms linear 163ms forwards;}.dxymJzam_28{stroke-dasharray:2347 2349;stroke-dashoffset:2348;animation:dxymJzam_draw 2333ms linear 169ms forwards;}.dxymJzam_29{stroke-dasharray:309 311;stroke-dashoffset:310;animation:dxymJzam_draw 2333ms linear 175ms forwards;}.dxymJzam_30{stroke-dasharray:148 150;stroke-dashoffset:149;animation:dxymJzam_draw 2333ms linear 181ms forwards;}.dxymJzam_31{stroke-dasharray:440 442;stroke-dashoffset:441;animation:dxymJzam_draw 2333ms linear 187ms forwards;}.dxymJzam_32{stroke-dasharray:2774 2776;stroke-dashoffset:2775;animation:dxymJzam_draw 2333ms linear 193ms forwards;}.dxymJzam_33{stroke-dasharray:2274 2276;stroke-dashoffset:2275;animation:dxymJzam_draw 2333ms linear 199ms forwards;}.dxymJzam_34{stroke-dasharray:1948 1950;stroke-dashoffset:1949;animation:dxymJzam_draw 2333ms linear 205ms forwards;}.dxymJzam_35{stroke-dasharray:823 825;stroke-dashoffset:824;animation:dxymJzam_draw 2333ms linear 211ms forwards;}.dxymJzam_36{stroke-dasharray:200 202;stroke-dashoffset:201;animation:dxymJzam_draw 2333ms linear 217ms forwards;}.dxymJzam_37{stroke-dasharray:167 169;stroke-dashoffset:168;animation:dxymJzam_draw 2333ms linear 223ms forwards;}.dxymJzam_38{stroke-dasharray:29 31;stroke-dashoffset:30;animation:dxymJzam_draw 2333ms linear 229ms forwards;}.dxymJzam_39{stroke-dasharray:96 98;stroke-dashoffset:97;animation:dxymJzam_draw 2333ms linear 235ms forwards;}.dxymJzam_40{stroke-dasharray:53 55;stroke-dashoffset:54;animation:dxymJzam_draw 2333ms linear 241ms forwards;}.dxymJzam_41{stroke-dasharray:113 115;stroke-dashoffset:114;animation:dxymJzam_draw 2333ms linear 247ms forwards;}.dxymJzam_42{stroke-dasharray:51 53;stroke-dashoffset:52;animation:dxymJzam_draw 2333ms linear 253ms forwards;}.dxymJzam_43{stroke-dasharray:101 103;stroke-dashoffset:102;animation:dxymJzam_draw 2333ms linear 259ms forwards;}.dxymJzam_44{stroke-dasharray:314 316;stroke-dashoffset:315;animation:dxymJzam_draw 2333ms linear 265ms forwards;}.dxymJzam_45{stroke-dasharray:129 131;stroke-dashoffset:130;animation:dxymJzam_draw 2333ms linear 272ms forwards;}.dxymJzam_46{stroke-dasharray:56 58;stroke-dashoffset:57;animation:dxymJzam_draw 2333ms linear 278ms forwards;}.dxymJzam_47{stroke-dasharray:75 77;stroke-dashoffset:76;animation:dxymJzam_draw 2333ms linear 284ms forwards;}.dxymJzam_48{stroke-dasharray:651 653;stroke-dashoffset:652;animation:dxymJzam_draw 2333ms linear 290ms forwards;}.dxymJzam_49{stroke-dasharray:690 692;stroke-dashoffset:691;animation:dxymJzam_draw 2333ms linear 296ms forwards;}.dxymJzam_50{stroke-dasharray:1110 1112;stroke-dashoffset:1111;animation:dxymJzam_draw 2333ms linear 302ms forwards;}.dxymJzam_51{stroke-dasharray:134 136;stroke-dashoffset:135;animation:dxymJzam_draw 2333ms linear 308ms forwards;}.dxymJzam_52{stroke-dasharray:31 33;stroke-dashoffset:32;animation:dxymJzam_draw 2333ms linear 314ms forwards;}.dxymJzam_53{stroke-dasharray:2113 2115;stroke-dashoffset:2114;animation:dxymJzam_draw 2333ms linear 320ms forwards;}.dxymJzam_54{stroke-dasharray:2685 2687;stroke-dashoffset:2686;animation:dxymJzam_draw 2333ms linear 326ms forwards;}.dxymJzam_55{stroke-dasharray:129 131;stroke-dashoffset:130;animation:dxymJzam_draw 2333ms linear 332ms forwards;}.dxymJzam_56{stroke-dasharray:25 27;stroke-dashoffset:26;animation:dxymJzam_draw 2333ms linear 338ms forwards;}.dxymJzam_57{stroke-dasharray:30 32;stroke-dashoffset:31;animation:dxymJzam_draw 2333ms linear 344ms forwards;}.dxymJzam_58{stroke-dasharray:66 68;stroke-dashoffset:67;animation:dxymJzam_draw 2333ms linear 350ms forwards;}.dxymJzam_59{stroke-dasharray:2812 2814;stroke-dashoffset:2813;animation:dxymJzam_draw 2333ms linear 356ms forwards;}.dxymJzam_60{stroke-dasharray:728 730;stroke-dashoffset:729;animation:dxymJzam_draw 2333ms linear 362ms forwards;}.dxymJzam_61{stroke-dasharray:783 785;stroke-dashoffset:784;animation:dxymJzam_draw 2333ms linear 368ms forwards;}.dxymJzam_62{stroke-dasharray:76 78;stroke-dashoffset:77;animation:dxymJzam_draw 2333ms linear 374ms forwards;}.dxymJzam_63{stroke-dasharray:153 155;stroke-dashoffset:154;animation:dxymJzam_draw 2333ms linear 380ms forwards;}.dxymJzam_64{stroke-dasharray:60 62;stroke-dashoffset:61;animation:dxymJzam_draw 2333ms linear 386ms forwards;}.dxymJzam_65{stroke-dasharray:141 143;stroke-dashoffset:142;animation:dxymJzam_draw 2333ms linear 392ms forwards;}.dxymJzam_66{stroke-dasharray:159 161;stroke-dashoffset:160;animation:dxymJzam_draw 2333ms linear 398ms forwards;}.dxymJzam_67{stroke-dasharray:273 275;stroke-dashoffset:274;animation:dxymJzam_draw 2333ms linear 405ms forwards;}.dxymJzam_68{stroke-dasharray:2040 2042;stroke-dashoffset:2041;animation:dxymJzam_draw 2333ms linear 411ms forwards;}.dxymJzam_69{stroke-dasharray:1051 1053;stroke-dashoffset:1052;animation:dxymJzam_draw 2333ms linear 417ms forwards;}.dxymJzam_70{stroke-dasharray:141 143;stroke-dashoffset:142;animation:dxymJzam_draw 2333ms linear 423ms forwards;}.dxymJzam_71{stroke-dasharray:203 205;stroke-dashoffset:204;animation:dxymJzam_draw 2333ms linear 429ms forwards;}.dxymJzam_72{stroke-dasharray:224 226;stroke-dashoffset:225;animation:dxymJzam_draw 2333ms linear 435ms forwards;}.dxymJzam_73{stroke-dasharray:42 44;stroke-dashoffset:43;animation:dxymJzam_draw 2333ms linear 441ms forwards;}.dxymJzam_74{stroke-dasharray:1514 1516;stroke-dashoffset:1515;animation:dxymJzam_draw 2333ms linear 447ms forwards;}.dxymJzam_75{stroke-dasharray:149 151;stroke-dashoffset:150;animation:dxymJzam_draw 2333ms linear 453ms forwards;}.dxymJzam_76{stroke-dasharray:149 151;stroke-dashoffset:150;animation:dxymJzam_draw 2333ms linear 459ms forwards;}.dxymJzam_77{stroke-dasharray:151 153;stroke-dashoffset:152;animation:dxymJzam_draw 2333ms linear 465ms forwards;}.dxymJzam_78{stroke-dasharray:150 152;stroke-dashoffset:151;animation:dxymJzam_draw 2333ms linear 471ms forwards;}.dxymJzam_79{stroke-dasharray:153 155;stroke-dashoffset:154;animation:dxymJzam_draw 2333ms linear 477ms forwards;}.dxymJzam_80{stroke-dasharray:156 158;stroke-dashoffset:157;animation:dxymJzam_draw 2333ms linear 483ms forwards;}.dxymJzam_81{stroke-dasharray:149 151;stroke-dashoffset:150;animation:dxymJzam_draw 2333ms linear 489ms forwards;}.dxymJzam_82{stroke-dasharray:1095 1097;stroke-dashoffset:1096;animation:dxymJzam_draw 2333ms linear 495ms forwards;}.dxymJzam_83{stroke-dasharray:995 997;stroke-dashoffset:996;animation:dxymJzam_draw 2333ms linear 501ms forwards;}.dxymJzam_84{stroke-dasharray:944 946;stroke-dashoffset:945;animation:dxymJzam_draw 2333ms linear 507ms forwards;}.dxymJzam_85{stroke-dasharray:67 69;stroke-dashoffset:68;animation:dxymJzam_draw 2333ms linear 513ms forwards;}.dxymJzam_86{stroke-dasharray:67 69;stroke-dashoffset:68;animation:dxymJzam_draw 2333ms linear 519ms forwards;}.dxymJzam_87{stroke-dasharray:67 69;stroke-dashoffset:68;animation:dxymJzam_draw 2333ms linear 525ms forwards;}.dxymJzam_88{stroke-dasharray:67 69;stroke-dashoffset:68;animation:dxymJzam_draw 2333ms linear 531ms forwards;}.dxymJzam_89{stroke-dasharray:55 57;stroke-dashoffset:56;animation:dxymJzam_draw 2333ms linear 537ms forwards;}.dxymJzam_90{stroke-dasharray:63 65;stroke-dashoffset:64;animation:dxymJzam_draw 2333ms linear 544ms forwards;}.dxymJzam_91{stroke-dasharray:60 62;stroke-dashoffset:61;animation:dxymJzam_draw 2333ms linear 550ms forwards;}.dxymJzam_92{stroke-dasharray:62 64;stroke-dashoffset:63;animation:dxymJzam_draw 2333ms linear 556ms forwards;}.dxymJzam_93{stroke-dasharray:60 62;stroke-dashoffset:61;animation:dxymJzam_draw 2333ms linear 562ms forwards;}.dxymJzam_94{stroke-dasharray:62 64;stroke-dashoffset:63;animation:dxymJzam_draw 2333ms linear 568ms forwards;}.dxymJzam_95{stroke-dasharray:63 65;stroke-dashoffset:64;animation:dxymJzam_draw 2333ms linear 574ms forwards;}.dxymJzam_96{stroke-dasharray:116 118;stroke-dashoffset:117;animation:dxymJzam_draw 2333ms linear 580ms forwards;}.dxymJzam_97{stroke-dasharray:116 118;stroke-dashoffset:117;animation:dxymJzam_draw 2333ms linear 586ms forwards;}.dxymJzam_98{stroke-dasharray:116 118;stroke-dashoffset:117;animation:dxymJzam_draw 2333ms linear 592ms forwards;}.dxymJzam_99{stroke-dasharray:116 118;stroke-dashoffset:117;animation:dxymJzam_draw 2333ms linear 598ms forwards;}.dxymJzam_100{stroke-dasharray:54 56;stroke-dashoffset:55;animation:dxymJzam_draw 2333ms linear 604ms forwards;}.dxymJzam_101{stroke-dasharray:51 53;stroke-dashoffset:52;animation:dxymJzam_draw 2333ms linear 610ms forwards;}.dxymJzam_102{stroke-dasharray:49 51;stroke-dashoffset:50;animation:dxymJzam_draw 2333ms linear 616ms forwards;}.dxymJzam_103{stroke-dasharray:48 50;stroke-dashoffset:49;animation:dxymJzam_draw 2333ms linear 622ms forwards;}.dxymJzam_104{stroke-dasharray:28 30;stroke-dashoffset:29;animation:dxymJzam_draw 2333ms linear 628ms forwards;}.dxymJzam_105{stroke-dasharray:28 30;stroke-dashoffset:29;animation:dxymJzam_draw 2333ms linear 634ms forwards;}.dxymJzam_106{stroke-dasharray:8 10;stroke-dashoffset:9;animation:dxymJzam_draw 2333ms linear 640ms forwards;}.dxymJzam_107{stroke-dasharray:9 11;stroke-dashoffset:10;animation:dxymJzam_draw 2333ms linear 646ms forwards;}.dxymJzam_108{stroke-dasharray:8 10;stroke-dashoffset:9;animation:dxymJzam_draw 2333ms linear 652ms forwards;}.dxymJzam_109{stroke-dasharray:9 11;stroke-dashoffset:10;animation:dxymJzam_draw 2333ms linear 658ms forwards;}.dxymJzam_110{stroke-dasharray:11 13;stroke-dashoffset:12;animation:dxymJzam_draw 2333ms linear 664ms forwards;}.dxymJzam_111{stroke-dasharray:6 8;stroke-dashoffset:7;animation:dxymJzam_draw 2333ms linear 670ms forwards;}.dxymJzam_112{stroke-dasharray:20 22;stroke-dashoffset:21;animation:dxymJzam_draw 2333ms linear 677ms forwards;}.dxymJzam_113{stroke-dasharray:5 7;stroke-dashoffset:6;animation:dxymJzam_draw 2333ms linear 683ms forwards;}.dxymJzam_114{stroke-dasharray:4842 4844;stroke-dashoffset:4843;animation:dxymJzam_draw 2333ms linear 689ms forwards;}.dxymJzam_115{stroke-dasharray:163 165;stroke-dashoffset:164;animation:dxymJzam_draw 2333ms linear 695ms forwards;}.dxymJzam_116{stroke-dasharray:121 123;stroke-dashoffset:122;animation:dxymJzam_draw 2333ms linear 701ms forwards;}.dxymJzam_117{stroke-dasharray:100 102;stroke-dashoffset:101;animation:dxymJzam_draw 2333ms linear 707ms forwards;}.dxymJzam_118{stroke-dasharray:51 53;stroke-dashoffset:52;animation:dxymJzam_draw 2333ms linear 713ms forwards;}.dxymJzam_119{stroke-dasharray:80 82;stroke-dashoffset:81;animation:dxymJzam_draw 2333ms linear 719ms forwards;}.dxymJzam_120{stroke-dasharray:93 95;stroke-dashoffset:94;animation:dxymJzam_draw 2333ms linear 725ms forwards;}.dxymJzam_121{stroke-dasharray:98 100;stroke-dashoffset:99;animation:dxymJzam_draw 2333ms linear 731ms forwards;}.dxymJzam_122{stroke-dasharray:387 389;stroke-dashoffset:388;animation:dxymJzam_draw 2333ms linear 737ms forwards;}.dxymJzam_123{stroke-dasharray:51 53;stroke-dashoffset:52;animation:dxymJzam_draw 2333ms linear 743ms forwards;}.dxymJzam_124{stroke-dasharray:25 27;stroke-dashoffset:26;animation:dxymJzam_draw 2333ms linear 749ms forwards;}.dxymJzam_125{stroke-dasharray:76 78;stroke-dashoffset:77;animation:dxymJzam_draw 2333ms linear 755ms forwards;}.dxymJzam_126{stroke-dasharray:1842 1844;stroke-dashoffset:1843;animation:dxymJzam_draw 2333ms linear 761ms forwards;}.dxymJzam_127{stroke-dasharray:1002 1004;stroke-dashoffset:1003;animation:dxymJzam_draw 2333ms linear 767ms forwards;}.dxymJzam_128{stroke-dasharray:541 543;stroke-dashoffset:542;animation:dxymJzam_draw 2333ms linear 773ms forwards;}.dxymJzam_129{stroke-dasharray:297 299;stroke-dashoffset:298;animation:dxymJzam_draw 2333ms linear 779ms forwards;}.dxymJzam_130{stroke-dasharray:562 564;stroke-dashoffset:563;animation:dxymJzam_draw 2333ms linear 785ms forwards;}.dxymJzam_131{stroke-dasharray:256 258;stroke-dashoffset:257;animation:dxymJzam_draw 2333ms linear 791ms forwards;}.dxymJzam_132{stroke-dasharray:466 468;stroke-dashoffset:467;animation:dxymJzam_draw 2333ms linear 797ms forwards;}.dxymJzam_133{stroke-dasharray:574 576;stroke-dashoffset:575;animation:dxymJzam_draw 2333ms linear 803ms forwards;}.dxymJzam_134{stroke-dasharray:99 101;stroke-dashoffset:100;animation:dxymJzam_draw 2333ms linear 810ms forwards;}.dxymJzam_135{stroke-dasharray:942 944;stroke-dashoffset:943;animation:dxymJzam_draw 2333ms linear 816ms forwards;}.dxymJzam_136{stroke-dasharray:444 446;stroke-dashoffset:445;animation:dxymJzam_draw 2333ms linear 822ms forwards;}.dxymJzam_137{stroke-dasharray:802 804;stroke-dashoffset:803;animation:dxymJzam_draw 2333ms linear 828ms forwards;}.dxymJzam_138{stroke-dasharray:91 93;stroke-dashoffset:92;animation:dxymJzam_draw 2333ms linear 834ms forwards;}.dxymJzam_139{stroke-dasharray:106 108;stroke-dashoffset:107;animation:dxymJzam_draw 2333ms linear 840ms forwards;}.dxymJzam_140{stroke-dasharray:383 385;stroke-dashoffset:384;animation:dxymJzam_draw 2333ms linear 846ms forwards;}.dxymJzam_141{stroke-dasharray:218 220;stroke-dashoffset:219;animation:dxymJzam_draw 2333ms linear 852ms forwards;}.dxymJzam_142{stroke-dasharray:58 60;stroke-dashoffset:59;animation:dxymJzam_draw 2333ms linear 858ms forwards;}.dxymJzam_143{stroke-dasharray:47 49;stroke-dashoffset:48;animation:dxymJzam_draw 2333ms linear 864ms forwards;}.dxymJzam_144{stroke-dasharray:73 75;stroke-dashoffset:74;animation:dxymJzam_draw 2333ms linear 870ms forwards;}.dxymJzam_145{stroke-dasharray:272 274;stroke-dashoffset:273;animation:dxymJzam_draw 2333ms linear 876ms forwards;}.dxymJzam_146{stroke-dasharray:165 167;stroke-dashoffset:166;animation:dxymJzam_draw 2333ms linear 882ms forwards;}.dxymJzam_147{stroke-dasharray:36 38;stroke-dashoffset:37;animation:dxymJzam_draw 2333ms linear 888ms forwards;}.dxymJzam_148{stroke-dasharray:80 82;stroke-dashoffset:81;animation:dxymJzam_draw 2333ms linear 894ms forwards;}.dxymJzam_149{stroke-dasharray:119 121;stroke-dashoffset:120;animation:dxymJzam_draw 2333ms linear 900ms forwards;}.dxymJzam_150{stroke-dasharray:81 83;stroke-dashoffset:82;animation:dxymJzam_draw 2333ms linear 906ms forwards;}.dxymJzam_151{stroke-dasharray:19 21;stroke-dashoffset:20;animation:dxymJzam_draw 2333ms linear 912ms forwards;}.dxymJzam_152{stroke-dasharray:66 68;stroke-dashoffset:67;animation:dxymJzam_draw 2333ms linear 918ms forwards;}.dxymJzam_153{stroke-dasharray:122 124;stroke-dashoffset:123;animation:dxymJzam_draw 2333ms linear 924ms forwards;}.dxymJzam_154{stroke-dasharray:1514 1516;stroke-dashoffset:1515;animation:dxymJzam_draw 2333ms linear 930ms forwards;}.dxymJzam_155{stroke-dasharray:149 151;stroke-dashoffset:150;animation:dxymJzam_draw 2333ms linear 936ms forwards;}.dxymJzam_156{stroke-dasharray:149 151;stroke-dashoffset:150;animation:dxymJzam_draw 2333ms linear 943ms forwards;}.dxymJzam_157{stroke-dasharray:151 153;stroke-dashoffset:152;animation:dxymJzam_draw 2333ms linear 949ms forwards;}.dxymJzam_158{stroke-dasharray:150 152;stroke-dashoffset:151;animation:dxymJzam_draw 2333ms linear 955ms forwards;}.dxymJzam_159{stroke-dasharray:153 155;stroke-dashoffset:154;animation:dxymJzam_draw 2333ms linear 961ms forwards;}.dxymJzam_160{stroke-dasharray:156 158;stroke-dashoffset:157;animation:dxymJzam_draw 2333ms linear 967ms forwards;}.dxymJzam_161{stroke-dasharray:149 151;stroke-dashoffset:150;animation:dxymJzam_draw 2333ms linear 973ms forwards;}.dxymJzam_162{stroke-dasharray:1095 1097;stroke-dashoffset:1096;animation:dxymJzam_draw 2333ms linear 979ms forwards;}.dxymJzam_163{stroke-dasharray:995 997;stroke-dashoffset:996;animation:dxymJzam_draw 2333ms linear 985ms forwards;}.dxymJzam_164{stroke-dasharray:944 946;stroke-dashoffset:945;animation:dxymJzam_draw 2333ms linear 991ms forwards;}.dxymJzam_165{stroke-dasharray:67 69;stroke-dashoffset:68;animation:dxymJzam_draw 2333ms linear 997ms forwards;}.dxymJzam_166{stroke-dasharray:67 69;stroke-dashoffset:68;animation:dxymJzam_draw 2333ms linear 1003ms forwards;}.dxymJzam_167{stroke-dasharray:67 69;stroke-dashoffset:68;animation:dxymJzam_draw 2333ms linear 1009ms forwards;}.dxymJzam_168{stroke-dasharray:67 69;stroke-dashoffset:68;animation:dxymJzam_draw 2333ms linear 1015ms forwards;}.dxymJzam_169{stroke-dasharray:55 57;stroke-dashoffset:56;animation:dxymJzam_draw 2333ms linear 1021ms forwards;}.dxymJzam_170{stroke-dasharray:63 65;stroke-dashoffset:64;animation:dxymJzam_draw 2333ms linear 1027ms forwards;}.dxymJzam_171{stroke-dasharray:60 62;stroke-dashoffset:61;animation:dxymJzam_draw 2333ms linear 1033ms forwards;}.dxymJzam_172{stroke-dasharray:62 64;stroke-dashoffset:63;animation:dxymJzam_draw 2333ms linear 1039ms forwards;}.dxymJzam_173{stroke-dasharray:60 62;stroke-dashoffset:61;animation:dxymJzam_draw 2333ms linear 1045ms forwards;}.dxymJzam_174{stroke-dasharray:62 64;stroke-dashoffset:63;animation:dxymJzam_draw 2333ms linear 1051ms forwards;}.dxymJzam_175{stroke-dasharray:63 65;stroke-dashoffset:64;animation:dxymJzam_draw 2333ms linear 1057ms forwards;}.dxymJzam_176{stroke-dasharray:116 118;stroke-dashoffset:117;animation:dxymJzam_draw 2333ms linear 1063ms forwards;}.dxymJzam_177{stroke-dasharray:116 118;stroke-dashoffset:117;animation:dxymJzam_draw 2333ms linear 1069ms forwards;}.dxymJzam_178{stroke-dasharray:116 118;stroke-dashoffset:117;animation:dxymJzam_draw 2333ms linear 1075ms forwards;}.dxymJzam_179{stroke-dasharray:116 118;stroke-dashoffset:117;animation:dxymJzam_draw 2333ms linear 1082ms forwards;}.dxymJzam_180{stroke-dasharray:54 56;stroke-dashoffset:55;animation:dxymJzam_draw 2333ms linear 1088ms forwards;}.dxymJzam_181{stroke-dasharray:51 53;stroke-dashoffset:52;animation:dxymJzam_draw 2333ms linear 1094ms forwards;}.dxymJzam_182{stroke-dasharray:49 51;stroke-dashoffset:50;animation:dxymJzam_draw 2333ms linear 1100ms forwards;}.dxymJzam_183{stroke-dasharray:48 50;stroke-dashoffset:49;animation:dxymJzam_draw 2333ms linear 1106ms forwards;}.dxymJzam_184{stroke-dasharray:28 30;stroke-dashoffset:29;animation:dxymJzam_draw 2333ms linear 1112ms forwards;}.dxymJzam_185{stroke-dasharray:28 30;stroke-dashoffset:29;animation:dxymJzam_draw 2333ms linear 1118ms forwards;}.dxymJzam_186{stroke-dasharray:8 10;stroke-dashoffset:9;animation:dxymJzam_draw 2333ms linear 1124ms forwards;}.dxymJzam_187{stroke-dasharray:9 11;stroke-dashoffset:10;animation:dxymJzam_draw 2333ms linear 1130ms forwards;}.dxymJzam_188{stroke-dasharray:8 10;stroke-dashoffset:9;animation:dxymJzam_draw 2333ms linear 1136ms forwards;}.dxymJzam_189{stroke-dasharray:9 11;stroke-dashoffset:10;animation:dxymJzam_draw 2333ms linear 1142ms forwards;}.dxymJzam_190{stroke-dasharray:11 13;stroke-dashoffset:12;animation:dxymJzam_draw 2333ms linear 1148ms forwards;}.dxymJzam_191{stroke-dasharray:6 8;stroke-dashoffset:7;animation:dxymJzam_draw 2333ms linear 1154ms forwards;}.dxymJzam_192{stroke-dasharray:20 22;stroke-dashoffset:21;animation:dxymJzam_draw 2333ms linear 1160ms forwards;}.dxymJzam_193{stroke-dasharray:5 7;stroke-dashoffset:6;animation:dxymJzam_draw 2333ms linear 1166ms forwards;}@keyframes dxymJzam_draw{100%{stroke-dashoffset:0;}}@keyframes dxymJzam_fade{0%{stroke-opacity:1;}94.8051948051948%{stroke-opacity:1;}100%{stroke-opacity:0;}}</style></svg>