<svg id="レイヤー_1" data-name="レイヤー 1" xmlns="http://www.w3.org/2000/svg" viewBox="0 0 192.87 21.05"><defs><style>.cls-1{isolation:isolate;}.cls-2{fill:#f49e23;}</style></defs><g id="COMMING_SOON" data-name="COMMING SOON" class="cls-1"><g class="cls-1"><path class="cls-2" d="M.78,16.07V5.32c0-4,2.69-5.15,7.35-5.15S15.51,1.31,15.51,5V7.4H11V5.35c0-1.61-.5-2.52-2.84-2.52s-2.81.91-2.81,2.81V15.72c0,1.93.49,2.84,2.81,2.84s2.84-1,2.84-2.64V14h4.54v2.31c0,3.75-2.76,4.95-7.38,4.95S.78,20.05.78,16.07Z" transform="translate(-0.78 -0.17)"/><path class="cls-2" d="M19.9,16.07V5.32c0-4,2.78-5.15,7.35-5.15s7.38,1.14,7.38,5.15V16.07c0,4-2.84,5.15-7.38,5.15S19.9,20.08,19.9,16.07Zm10.19-.53V5.85c0-2-.59-2.93-2.84-2.93s-2.81.91-2.81,2.93v9.69c0,2,.58,2.93,2.81,2.93S30.09,17.56,30.09,15.54Z" transform="translate(-0.78 -0.17)"/><path class="cls-2" d="M59.08.46V21H54.8V6.46L50.53,21H47.48L43.21,6.46V21H39.46V.46h5.86l4,13.71L53.19.46Z" transform="translate(-0.78 -0.17)"/><path class="cls-2" d="M64,.46h4.54V21H64Z" transform="translate(-0.78 -0.17)"/><path class="cls-2" d="M88.4.46V21H84.15l-6.7-12.8V21H73.67V.46h4.07L84.59,14V.46Z" transform="translate(-0.78 -0.17)"/><path class="cls-2" d="M103.51,7.34V5.41c0-1.58-.53-2.49-2.84-2.49s-2.84.91-2.84,2.81v9.9c0,1.9.5,2.84,2.84,2.84s2.84-1,2.84-2.64V12.44h-2.78V9.25h7.32v7c0,3.78-2.78,5-7.41,5s-7.35-1.17-7.35-5.15V5.32c0-4,2.69-5.15,7.35-5.15s7.41,1.14,7.41,4.86V7.34Z" transform="translate(-0.78 -0.17)"/><path class="cls-2" d="M120.67,16.83V14.11h4.54v2.34c0,1.32,1,2,2.87,2s2.78-.7,2.78-2V14.14c0-1.26-.56-1.94-2-2l-3.19-.05c-3.37-.09-5-1.15-5-3.75V4.85c0-3.71,3.63-4.68,7.35-4.68,3.87,0,7.41,1,7.41,4.42V7.4h-4.54V5c0-1.38-1-2.08-2.87-2.08s-2.81.7-2.81,2V7.26c0,1.25.61,1.78,2,1.81l3.22.09c3.4.06,5.07,1.23,5.07,3.66v3.75c0,3.66-3.6,4.65-7.35,4.65S120.67,20.23,120.67,16.83Z" transform="translate(-0.78 -0.17)"/><path class="cls-2" d="M139.94,16.07V5.32c0-4,2.78-5.15,7.35-5.15s7.38,1.14,7.38,5.15V16.07c0,4-2.84,5.15-7.38,5.15S139.94,20.08,139.94,16.07Zm10.19-.53V5.85c0-2-.59-2.93-2.84-2.93s-2.81.91-2.81,2.93v9.69c0,2,.58,2.93,2.81,2.93S150.13,17.56,150.13,15.54Z" transform="translate(-0.78 -0.17)"/><path class="cls-2" d="M159.35,16.07V5.32c0-4,2.79-5.15,7.35-5.15s7.38,1.14,7.38,5.15V16.07c0,4-2.84,5.15-7.38,5.15S159.35,20.08,159.35,16.07Zm10.19-.53V5.85c0-2-.58-2.93-2.84-2.93s-2.81.91-2.81,2.93v9.69c0,2,.59,2.93,2.81,2.93S169.54,17.56,169.54,15.54Z" transform="translate(-0.78 -0.17)"/><path class="cls-2" d="M193.64.46V21H189.4l-6.71-12.8V21h-3.77V.46H183L189.84,14V.46Z" transform="translate(-0.78 -0.17)"/></g></g></svg>