<svg xmlns="http://www.w3.org/2000/svg" viewBox="0 0 218.93 21.63"><defs><style>.a{isolation:isolate;}.b{fill:#f49e23;}</style></defs><g class="a"><g class="a"><path class="b" d="M.26,16.07V5.32C.26,1.31,3,.17,7.61.17S15,1.31,15,5V7.4H10.45V5.35c0-1.61-.5-2.52-2.84-2.52S4.8,3.74,4.8,5.64V15.72c0,1.93.49,2.84,2.81,2.84s2.84-1,2.84-2.64V14H15v2.31c0,3.75-2.76,4.95-7.38,4.95S.26,20.05.26,16.07Z"/><path class="b" d="M19.38,16.07V5.32c0-4,2.78-5.15,7.35-5.15s7.38,1.14,7.38,5.15V16.07c0,4-2.84,5.15-7.38,5.15S19.38,20.08,19.38,16.07Zm10.19-.53V5.85c0-2-.59-2.93-2.84-2.93s-2.81.91-2.81,2.93v9.69c0,2,.58,2.93,2.81,2.93S29.57,17.56,29.57,15.54Z"/><path class="b" d="M58.56.46V21H54.28V6.46L50,21H47L42.69,6.46V21H38.94V.46H44.8l4,13.71L52.67.46Z"/><path class="b" d="M83.33.46V21H79.06V6.46L74.78,21h-3L67.46,6.46V21H63.71V.46h5.86l4,13.71L77.45.46Z"/><path class="b" d="M88.49.46H93V21H88.49Z"/><path class="b" d="M112.88.46V21h-4.25l-6.7-12.8V21H98.15V.46h4.07L109.07,14V.46Z"/><path class="b" d="M128,7.34V5.41c0-1.58-.53-2.49-2.84-2.49s-2.84.91-2.84,2.81v9.9c0,1.9.5,2.84,2.84,2.84s2.84-1,2.84-2.64V12.44h-2.78V9.25h7.32v7c0,3.78-2.78,5-7.41,5s-7.35-1.17-7.35-5.15V5.32c0-4,2.7-5.15,7.35-5.15s7.41,1.14,7.41,4.86V7.34Z"/><path class="b" d="M145.15,16.83V14.11h4.54v2.34c0,1.32,1,2,2.87,2s2.78-.7,2.78-2V14.14c0-1.26-.56-1.94-2-2l-3.19-.05c-3.37-.09-5-1.15-5-3.75V4.85c0-3.71,3.63-4.68,7.35-4.68,3.87,0,7.41,1,7.41,4.42V7.4h-4.54V5c0-1.38-1-2.08-2.87-2.08s-2.81.7-2.81,2V7.26c0,1.25.61,1.78,2,1.81l3.22.09c3.4.06,5.07,1.23,5.07,3.66v3.75c0,3.66-3.6,4.65-7.35,4.65S145.15,20.23,145.15,16.83Z"/><path class="b" d="M164.42,16.07V5.32c0-4,2.78-5.15,7.35-5.15s7.38,1.14,7.38,5.15V16.07c0,4-2.84,5.15-7.38,5.15S164.42,20.08,164.42,16.07Zm10.19-.53V5.85c0-2-.59-2.93-2.84-2.93S169,3.83,169,5.85v9.69c0,2,.58,2.93,2.81,2.93S174.61,17.56,174.61,15.54Z"/><path class="b" d="M183.83,16.07V5.32c0-4,2.79-5.15,7.35-5.15s7.38,1.14,7.38,5.15V16.07c0,4-2.84,5.15-7.38,5.15S183.83,20.08,183.83,16.07ZM194,15.54V5.85c0-2-.58-2.93-2.84-2.93s-2.81.91-2.81,2.93v9.69c0,2,.59,2.93,2.81,2.93S194,17.56,194,15.54Z"/><path class="b" d="M218.12.46V21h-4.24l-6.71-12.8V21H203.4V.46h4.07L214.32,14V.46Z"/></g></g></svg>