<?xml version="1.0" encoding="utf-8"?>
<!-- Generator: Adobe Illustrator 26.2.1, SVG Export Plug-In . SVG Version: 6.00 Build 0)  -->
<svg version="1.1" id="レイヤー_1" xmlns="http://www.w3.org/2000/svg" xmlns:xlink="http://www.w3.org/1999/xlink" x="0px"
	 y="0px" viewBox="0 0 2839 1459.6" style="enable-background:new 0 0 2839 1459.6;" xml:space="preserve">
<style type="text/css">
	.st0{fill:none;stroke:url(#SVGID_1_);stroke-width:2.5;stroke-miterlimit:10;}
	.st1{fill:none;stroke:url(#SVGID_00000127032536545608016700000013304869332643680900_);stroke-width:2.5;stroke-miterlimit:10;}
</style>
<linearGradient id="SVGID_1_" gradientUnits="userSpaceOnUse" x1="699.2" y1="1459.95" x2="699.2" y2="-1.25">
	<stop  offset="0" style="stop-color:#00C143"/>
	<stop  offset="1" style="stop-color:#00DB43"/>
</linearGradient>
<path class="st0" d="M699.2,1458.7c-98.4,0-192-17.9-278.2-53.3c-83.8-34.4-158.2-84.1-221-147.8
	c-62.8-63.7-111.9-139.2-145.7-224.2C19.4,945.8,1.7,850.8,1.7,750.9c0-100.4,18.9-198.3,56.1-290.9c35.8-89.2,86.9-169.5,152-238.8
	c64.9-69.2,140-123.6,223.3-161.7C519.3,20,610.3,0,703.3,0c74,0,133.7,8.9,193.5,28.8c60.3,20.1,121.5,51.6,198.6,102.2l69.7-77.9
	l36.6,17.2l-0.1,0.9c-6.9,57-10.3,122.8-10.3,201.1c0,74,6.8,154.9,14.4,238.1l0.1,1.2l-51.7,6.5l-0.2-1.2
	c-26.4-140-50.3-207.7-98.4-278.9C981.2,130.7,865.9,64,754.6,64c-55,0-116.7,17.8-173.7,50.2c-56.4,32-104.5,76-135.4,123.9
	c-37.1,57.1-67.5,134.5-87.9,223.7c-20.3,88.7-31,190-31,293.2c0,198,38.3,380.5,102.5,488.2c27.2,45.3,68.7,84.1,119.9,112.3
	c51.5,28.3,108.4,43.2,164.5,43.2c70.1,0,134.9-22.6,182.2-63.6c47.2-40.9,73.3-96.6,73.3-157v-173.3l-205.4-2.1v-53.8h633.1v53.8
	h-1.2l-156.9,2v188l-0.1,0.3c-30.7,57.3-73.3,102.4-138,146.3C991.8,1415.2,845.6,1458.7,699.2,1458.7z M703.3,2.5
	c-92.7,0-183.3,19.9-269.2,59.3c-83,38-157.9,92.2-222.6,161.1C146.8,292,95.8,372.1,60.1,461C23,553.3,4.2,650.9,4.2,750.9
	c0,99.6,17.6,194.3,52.4,281.5c33.8,84.7,82.6,159.9,145.2,223.4s136.7,113,220.2,147.3c85.9,35.2,179.2,53.1,277.3,53.1
	c145.8,0,291.6-43.3,399.8-118.9c64.3-43.6,106.6-88.3,137.1-145.1v-189.9h1.2l156.9-2v-48.9H766.2v48.9l205.4,2.1v175.8
	c0,61-26.3,117.5-74.1,158.8c-47.8,41.4-113.1,64.2-183.9,64.2c-56.5,0-113.8-15.1-165.7-43.5c-51.7-28.4-93.5-67.5-120.9-113.2
	c-64.4-108.1-102.9-291-102.9-489.5c0-103.3,10.8-204.9,31.1-293.7c20.5-89.6,51-167.2,88.2-224.5c31.1-48.2,79.5-92.5,136.2-124.7
	C637,79.5,699.1,61.6,754.5,61.6c112.1,0,228.2,67.1,303,175.1c48.2,71.3,72.2,139.1,98.6,278.7l46.9-5.9
	c-7.5-82.9-14.3-163.4-14.3-237.2c0-78.1,3.3-143.7,10.2-200.5l-33.3-15.7l-69.9,78.2l-0.9-0.6C1017.6,82.9,956.3,51.3,896,31.2
	C836.5,11.3,777.1,2.5,703.3,2.5z"/>
<linearGradient id="SVGID_00000143577741904217417050000001108351421035326908_" gradientUnits="userSpaceOnUse" x1="2129.7002" y1="1462.05" x2="2129.7002" y2="0.6501">
	<stop  offset="0" style="stop-color:#00C143"/>
	<stop  offset="1" style="stop-color:#00DB43"/>
</linearGradient>
<path style="fill:none;stroke:url(#SVGID_00000143577741904217417050000001108351421035326908_);stroke-width:2.5;stroke-miterlimit:10;" d="
	M2123.6,1460.8c-94,0-185.6-19.2-272-57c-83.5-36.5-158.5-88.7-223.2-155.2s-115.5-143.7-151-229.6c-36.8-89-55.5-183.4-55.5-280.4
	c0-97.5,18.5-192.8,55-283.5c35.2-87.4,85.4-166.3,149.2-234.5c63.8-68.3,137.6-122,219.4-159.7c84.9-39.1,174.3-59,265.7-59
	c196.7,0,380,75.9,515.9,213.7c66.2,67.1,118.1,145.6,154.2,233.3c37.3,90.5,56.2,187.3,56.2,287.5c0,97.1-18.9,191.5-56.3,280.7
	c-36.1,86.1-87.7,163.6-153.3,230.3c-65.7,66.8-142.1,119.2-227,155.9C2312.9,1441.5,2219.6,1460.8,2123.6,1460.8z M2111.3,4.6
	c-91.1,0-180.1,19.8-264.7,58.7c-81.5,37.5-155,91.1-218.6,159.1S1514.4,369,1479.3,456.1c-36.4,90.3-54.9,185.4-54.9,282.5
	c0,96.7,18.6,190.7,55.3,279.4c35.4,85.6,86,162.6,150.5,228.8c64.4,66.2,139.2,118.2,222.4,154.6c86.1,37.7,177.3,56.8,271,56.8
	c95.7,0,188.6-19.2,276.4-57.1c84.6-36.6,160.7-88.8,226.2-155.3c65.4-66.5,116.8-143.7,152.8-229.6c37.2-88.9,56.1-183,56.1-279.7
	c0-99.9-18.8-196.3-56-286.5c-36-87.4-87.7-165.6-153.7-232.5C2489.9,80.2,2307.3,4.6,2111.3,4.6z M2146.6,1411.6
	c-2.2,0-4.4,0-6.6-0.1c-56.1,0-109.1-14-157.5-41.8c-47.9-27.4-89.9-67.5-124.9-119c-36.1-55.8-63.6-126.8-81.6-211.2
	c-18.2-85.6-27.5-188.2-27.5-305c0-134.2,8.9-241.8,27.2-328.9c18.2-86.3,46.3-155.6,86-212c63.7-90.4,160.6-142.3,266-142.3
	c116.5,0,214.6,61.1,283.7,176.7c69.1,115.7,105.7,280.2,105.7,475.6c0,117.6-15.8,242.6-44.5,352.1
	c-28.8,109.9-69.3,198.9-114,250.6l0,0c-30,35.2-63.7,62-100,79.6C2223.7,1403,2186,1411.6,2146.6,1411.6z M2127.7,53.8
	c-104.5,0-200.7,51.5-263.9,141.2c-39.5,56.1-67.5,125.1-85.5,211.1c-18.3,86.9-27.2,194.3-27.2,328.4c0,116.6,9.2,219.1,27.4,304.5
	c17.9,84.1,45.3,154.9,81.2,210.4c34.8,51.2,76.6,91,124.1,118.2c48,27.5,100.5,41.4,156.3,41.4c41.4,1,80.9-7.5,117.5-25.3
	c36-17.5,69.4-44.1,99.2-79l0,0c44.5-51.4,84.8-140,113.5-249.6c28.6-109.2,44.4-234,44.4-351.4c0-195-36.4-359-105.3-474.3
	C2340.7,114.5,2243.3,53.8,2127.7,53.8z"/>
</svg>
