<?xml version="1.0" encoding="utf-8"?>
<!-- Generator: Adobe Illustrator 26.0.2, SVG Export Plug-In . SVG Version: 6.00 Build 0)  -->
<svg version="1.1" id="レイヤー_1" xmlns="http://www.w3.org/2000/svg" xmlns:xlink="http://www.w3.org/1999/xlink" x="0px"
	 y="0px" viewBox="0 0 1473.7 2837.9" style="enable-background:new 0 0 1473.7 2837.9;" xml:space="preserve">
<style type="text/css">
	.st0{fill:#00C143;}
</style>
<path class="st0" d="M518.3,1395.8h-53.8l-2.1-158.2h-188l-0.3-0.1c-57.3-30.7-102.4-73.3-146.3-138C52,990.9,8.5,844.6,8.5,698.3
	c0-98.4,17.9-192,53.3-278.2c34.4-83.8,84.1-158.2,147.8-221c63.7-62.8,139.2-111.9,224.2-145.7C521.4,18.4,616.4,0.7,716.3,0.7
	c100.4,0,198.3,18.9,290.9,56.1c89.2,35.8,169.5,86.9,238.8,152c69.2,64.9,123.6,140,161.7,223.3c39.5,86.3,59.5,177.2,59.5,270.3
	c0,74-8.9,133.7-28.8,193.5c-20.1,60.3-51.6,121.5-102.2,198.6l77.9,69.7l-17.2,36.6l-0.9-0.1c-57-6.9-122.8-10.3-201.1-10.3
	c-74,0-154.9,6.8-238.1,14.4l-1.2,0.1l-6.5-51.7l1.2-0.2c140-26.4,207.7-50.3,278.9-98.4c107.3-74.3,174-189.6,174-300.9
	c0-55-17.8-116.7-50.2-173.7c-32-56.4-76-104.5-123.9-135.4c-57.1-37.1-134.5-67.5-223.7-87.9c-88.7-20.3-190-31-293.2-31
	c-198,0-380.5,38.3-488.2,102.5c-45.3,27.2-84.1,68.7-112.3,119.9c-28.3,51.5-43.2,108.4-43.2,164.5c0,70.1,22.6,134.9,63.6,182.2
	c40.9,47.2,96.6,73.3,157,73.3h173.3l2.1-205.4h53.8V1395.8z M467,1393.3h48.9V765.3H467l-2.1,205.4H289.1
	c-61,0-117.5-26.3-158.8-74.1C88.8,848.7,66,783.4,66,712.7c0-56.5,15.1-113.8,43.5-165.7c28.4-51.7,67.5-93.5,113.2-120.9
	c108.1-64.4,291-102.9,489.5-102.9c103.3,0,204.9,10.8,293.7,31.1c89.6,20.5,167.2,51,224.5,88.2c48.2,31.1,92.5,79.5,124.7,136.2
	c32.6,57.4,50.5,119.5,50.5,174.9c0,112.1-67.1,228.2-175.1,303c-71.3,48.2-139.1,72.2-278.7,98.6l5.9,46.9
	c82.9-7.5,163.4-14.3,237.2-14.3c78.1,0,143.7,3.3,200.5,10.2l15.7-33.3l-78.2-69.9l0.6-0.9c50.8-77.3,82.5-138.7,102.6-198.9
	c19.8-59.5,28.7-118.9,28.7-192.7c0-92.7-19.9-183.3-59.3-269.2c-38-83-92.2-157.9-161.1-222.6c-69.1-64.8-149.2-115.7-238.1-151.5
	c-92.3-37.1-189.9-55.9-290-55.9c-99.6,0-194.3,17.6-281.5,52.4c-84.7,33.8-159.9,82.6-223.4,145.2C147.9,263.4,98.4,337.5,64.1,421
	C28.9,506.9,11,600.2,11,698.3c0,145.8,43.3,291.6,118.9,399.8c43.6,64.3,88.3,106.6,145.1,137.1h189.9L467,1393.3z"/>
<path class="st0" d="M730.7,2836.6c-97.1,0-191.5-18.9-280.7-56.3c-86.1-36.1-163.6-87.7-230.3-153.3
	c-66.8-65.7-119.2-142.1-155.9-227c-38-88-57.3-181.4-57.3-277.4c0-94,19.2-185.5,57-272c36.5-83.5,88.7-158.5,155.2-223.2
	c66.5-64.7,143.7-115.5,229.6-151c89-36.8,183.4-55.5,280.4-55.5c97.5,0,192.8,18.5,283.5,55c87.4,35.2,166.3,85.4,234.5,149.2
	c68.3,63.8,122,137.6,159.7,219.4c39.1,84.9,59,174.3,59,265.7c0,196.7-75.9,380-213.7,515.9c-67.1,66.2-145.6,118.1-233.3,154.2
	C927.6,2817.7,830.9,2836.6,730.7,2836.6z M728.6,1423.5c-96.7,0-190.7,18.6-279.4,55.3c-85.6,35.4-162.6,86-228.8,150.5
	c-66.2,64.4-118.2,139.2-154.6,222.4C28.1,1937.8,9,2029,9,2122.7c0,95.7,19.2,188.6,57.1,276.4c36.6,84.6,88.8,160.7,155.3,226.2
	c66.5,65.4,143.7,116.8,229.6,152.8c88.9,37.2,183,56.1,279.7,56.1c99.9,0,196.3-18.8,286.5-56c87.4-36,165.6-87.7,232.5-153.7
	c137.3-135.5,213-318.1,213-514.1c0-91.1-19.8-180.1-58.7-264.7c-37.5-81.5-91.1-155-159.1-218.6c-68-63.6-146.6-113.6-233.7-148.7
	C920.8,1442,825.8,1423.5,728.6,1423.5z M763.6,2516.2c-117.6,0-242.6-15.8-352.1-44.5c-109.9-28.8-198.9-69.3-250.6-114
	c-35.2-30-62-63.7-79.6-100c-18-37-26.6-76.9-25.5-118.7c0-56.1,14-109.1,41.8-157.5c27.4-47.9,67.5-89.9,119-124.9
	c55.8-36.1,126.8-63.6,211.2-81.6c85.6-18.2,188.2-27.5,305-27.5c134.2,0,241.8,8.9,328.9,27.2c86.3,18.2,155.6,46.3,212,86
	c90.4,63.7,142.3,160.6,142.3,266c0,116.5-61.1,214.6-176.7,283.7C1123.5,2479.7,959,2516.2,763.6,2516.2z M732.7,1750.1
	c-116.6,0-219.1,9.2-304.5,27.4c-84.1,17.9-154.9,45.3-210.4,81.2c-51.2,34.8-91,76.6-118.2,124.1c-27.5,48-41.4,100.5-41.4,156.3
	c-1,41.4,7.5,80.9,25.3,117.5c17.5,36,44.1,69.4,79,99.2l0,0c51.4,44.5,140,84.8,249.6,113.5c109.2,28.6,234,44.4,351.4,44.4
	c195,0,359-36.4,474.3-105.3c114.8-68.6,175.5-166,175.5-281.6c0-104.5-51.5-200.7-141.2-263.9c-56.1-39.5-125.1-67.5-211.1-85.5
	C974.2,1759,866.8,1750.1,732.7,1750.1z"/>
</svg>
