<svg xmlns="http://www.w3.org/2000/svg" viewBox="0 0 3141.54 380.27"><defs><style>.a,.d{fill:#fff;}.b{fill:#e60012;}.c{fill:none;stroke:#fff;stroke-miterlimit:10;stroke-width:0.47px;}.d{font-size:201.58px;font-family:BokutohRuika-07, BokutohRuika;}</style></defs><path class="a" d="M783.25,125.21c-38.57,58.8-62.47,136.61-74.14,188,0,0,130.9-1.49,188.34-2.59s92.63,7.82,121.15-35.6a332.52,332.52,0,0,0,38.23-88.2c4.63-15.78,8.31-30.8,11.35-44l-111.67,3.76c-34.92.65-45.76,10.43-67.87,43.25,0,0,53.9-.94,115.08-2.06-6.81.14-13.61.3-20.15.41a224.84,224.84,0,0,1-23.38,49.35c-21.55,32.85-48.15,26.08-91.54,26.87s-52.09.34-52.09.34a454.63,454.63,0,0,1,54-123c23.63-36,52.19-38.69,99.81-39.59l71.29-1.23c34.93-.76,45.78-10.56,67.9-43.31,0,0-85.58,1.48-163.3,2.94S821.79,66.44,783.25,125.21Z"/><path class="a" d="M1275.79,260.91c3.68-10.86,27.14-80.51,33.43-98.43,11.86-34-24.35-41.87-83.58-41.87-21.3,0-24.76.81-41.21,1.12a103.44,103.44,0,0,0-75.5,36.62A1027,1027,0,0,1,1219.42,153c13.85,0,30-1.15,23.43,16.76-1.22,3.16-2.78,7.68-4.6,13h-51.46c-37.55,0-83,12.56-102.28,40.19s-26.66,56.26-4.27,76.65c17.57,16,108.48,9.48,134.75,7.68s64.07-.91,64.07-.91C1266.62,296.47,1270.82,275.94,1275.79,260.91Zm-86.3,9.32c-21.55,2.71-42.88,2.45-48.8-2.74-12.44-10.77-3.13-27.17,4.76-35.05a80.44,80.44,0,0,1,57.47-19.07h24.75c-6.75,19.6-13.47,39-16.08,44.64C1208.88,263.85,1202.5,268.54,1189.49,270.23Z"/><path class="a" d="M1678.32,306.3c-12.5-9.8-8.31-30.36-3.3-45.39,3.62-10.86,27.12-80.51,33.4-98.43,11.88-34-24.32-41.87-83.56-41.87-21.28,0-7.49.81-23.91,1.12a103.62,103.62,0,0,0-75.53,36.64,557.19,557.19,0,0,1,93.25-5.39c13.84,0,30-1.15,23.4,16.76-1.15,3.16-2.74,7.68-4.57,13h-51.45c-37.58,0-83,12.57-102.29,40.19s-26.65,56.27-4.24,76.65c17.57,16,108.48,9.48,134.75,7.68S1678.32,306.3,1678.32,306.3Zm-89.61-36.07c-21.55,2.71-42.88,2.45-48.83-2.74-12.4-10.77-3.11-27.17,4.74-35.05a80.52,80.52,0,0,1,57.48-19.07h24.78c-6.77,19.6-13.48,39-16.1,44.64-2.66,5.84-9.11,10.53-22.06,12.22Z"/><path class="a" d="M1523.4,121.56c-16.41-.35-39.65-1-58.21-1-59.27,0-94.58,2.65-113.93,49.11-6.6,17.91-24.34,77.67-29.19,88.32-5,15-8.94,32.05,1.79,43.59a15.53,15.53,0,0,0,10.44,5.24c25.87,0,58.35-.55,58.35-.55-12.51-9.8-8.31-30.35-3.3-45.39,3.61-10.86,17.79-62.56,24.07-80.5a38.33,38.33,0,0,1,40.6-24.37c13.47,0,21.24.11,32.72.27A173.73,173.73,0,0,0,1523.4,121.56Z"/><path class="a" d="M1739.07,182c-18.56,28-37.4,79.21-12.7,105.5,18.87,20,76.74,17.92,112.45,14.16-13.55,35.91-31.06,38.47-59.38,41.09-13.84,1.22-112.21-.24-125-.24s-44.29,25.53-53.75,36.66c16.39.38,179.54,1,198.09,1,75.49,0,91.68-42.05,100-67.37,3.59-10.9,53.52-175.81,59.78-193.72h-87.72C1833.28,119.09,1777.94,123.32,1739.07,182Zm114,65.34a31.18,31.18,0,0,1-23.5,17.51c-21.53,2.74-37.38-.31-42.26-6.41-13.47-16.79,3.52-55.12,8.91-64.51,25.06-43.58,68-44.1,90-44.1-11.38,33.9-29.5,89.38-33.2,97.53Z"/><path class="a" d="M2019.26,245.4a57.42,57.42,0,0,1,0-8.5c23.19-.19,84.91-2.45,119.59-18.48,43.34-20,50.15-98.35,50.15-98.35s-53.28-3-86.2-3c-99.82,0-139.72,49.54-150.58,125.89s81.35,63.17,108.58,63.17,61.61,1.49,80.36-17a136.47,136.47,0,0,0,28-42.74C2101.51,274,2021.38,271,2019.26,245.4Zm73.87-95a248.33,248.33,0,0,1,28.59,1.89,50.93,50.93,0,0,1-37.19,41.95,419.24,419.24,0,0,1-56.45,5.9,129.26,129.26,0,0,1,13-26.28c13.08-19,44.11-23.51,52.07-23.51Z"/><path d="M304.6,337.49H.72L87.16.27H391Z"/><path class="b" d="M608.43,337.49H304.63L391,.27h303.8Z"/><path class="c" d="M608.43,337.49H.72L87.16.27H694.77Z"/><path class="a" d="M191,173.81H320L328.16,142H184.68c-37.56,0-98,3-117.15,57.29,0,0-13.21,36.75-17.78,51.62S32,309.67,92.38,309.67H285.2l24.87-97.17H197l-8.19,31.85h53.9L235.15,274H142.52c-42.53,0-24.39-32.28-11.21-64.51A58.41,58.41,0,0,1,191,173.81Z"/><path class="a" d="M546.34,241.2h9.15c22.62,0,56.59-7.15,67-47.55S603.51,142,580.88,142H379L336.11,309.7H404L438.8,173.85H549.24a14.39,14.39,0,0,1,14.18,18.81,35,35,0,0,1-33.72,24H455.78l63.09,93.1h73.87Z"/><text class="d" transform="translate(2229.16 286.97) scale(1.14 1)">福岡空港</text></svg>