<?xml version="1.0" encoding="utf-8"?>
<!-- Generator: Adobe Illustrator 26.0.1, SVG Export Plug-In . SVG Version: 6.00 Build 0)  -->
<svg version="1.1" id="レイヤー_1" xmlns="http://www.w3.org/2000/svg" xmlns:xlink="http://www.w3.org/1999/xlink" x="0px"
	 y="0px" viewBox="0 0 3141.5 380.3" style="enable-background:new 0 0 3141.5 380.3;" xml:space="preserve">
<style type="text/css">
	.st0{fill:#FFFFFF;}
	.st1{fill:#E60012;}
	.st2{fill:none;stroke:#FFFFFF;stroke-width:0.47;stroke-miterlimit:10;}
	.st3{enable-background:new    ;}
</style>
<path class="st0" d="M783.2,125.2c-38.6,58.8-62.5,136.6-74.1,188c0,0,130.9-1.5,188.3-2.6s92.6,7.8,121.2-35.6
	c16.9-27.4,29.8-57.1,38.2-88.2c4.6-15.8,8.3-30.8,11.3-44l-111.7,3.8c-34.9,0.6-45.8,10.4-67.9,43.2c0,0,53.9-0.9,115.1-2.1
	c-6.8,0.1-13.6,0.3-20.2,0.4c-5.8,17.3-13.6,33.9-23.4,49.4c-21.5,32.9-48.2,26.1-91.5,26.9s-52.1,0.3-52.1,0.3
	c11.8-43.4,30-84.9,54-123c23.6-36,52.2-38.7,99.8-39.6l71.3-1.2c34.9-0.8,45.8-10.6,67.9-43.3c0,0-85.6,1.5-163.3,2.9
	S821.8,66.4,783.2,125.2z"/>
<path class="st0" d="M1275.8,260.9c3.7-10.9,27.1-80.5,33.4-98.4c11.9-34-24.3-41.9-83.6-41.9c-21.3,0-24.8,0.8-41.2,1.1
	c-29.2,1-56.6,14.3-75.5,36.6c36.7-3.8,73.6-5.6,110.5-5.4c13.8,0,30-1.1,23.4,16.8c-1.2,3.2-2.8,7.7-4.6,13h-51.5
	c-37.6,0-83,12.6-102.3,40.2s-26.7,56.3-4.3,76.7c17.6,16,108.5,9.5,134.8,7.7s64.1-0.9,64.1-0.9
	C1266.6,296.5,1270.8,275.9,1275.8,260.9z M1189.5,270.2c-21.6,2.7-42.9,2.5-48.8-2.7c-12.4-10.8-3.1-27.2,4.8-35.1
	c15.9-13.6,36.6-20.4,57.5-19.1h24.8c-6.8,19.6-13.5,39-16.1,44.6C1208.9,263.9,1202.5,268.5,1189.5,270.2z"/>
<path class="st0" d="M1678.3,306.3c-12.5-9.8-8.3-30.4-3.3-45.4c3.6-10.9,27.1-80.5,33.4-98.4c11.9-34-24.3-41.9-83.6-41.9
	c-21.3,0-7.5,0.8-23.9,1.1c-29.2,1-56.6,14.3-75.5,36.6c30.9-4.4,62.1-6.2,93.2-5.4c13.8,0,30-1.1,23.4,16.8
	c-1.2,3.2-2.7,7.7-4.6,13H1586c-37.6,0-83,12.6-102.3,40.2s-26.7,56.3-4.2,76.7c17.6,16,108.5,9.5,134.8,7.7
	S1678.3,306.3,1678.3,306.3z M1588.7,270.2c-21.6,2.7-42.9,2.5-48.8-2.7c-12.4-10.8-3.1-27.2,4.7-35.1
	c15.9-13.6,36.6-20.4,57.5-19.1h24.8c-6.8,19.6-13.5,39-16.1,44.6C1608.1,263.9,1601.7,268.5,1588.7,270.2L1588.7,270.2z"/>
<path class="st0" d="M1523.4,121.6c-16.4-0.3-39.7-1-58.2-1c-59.3,0-94.6,2.7-113.9,49.1c-6.6,17.9-24.3,77.7-29.2,88.3
	c-5,15-8.9,32,1.8,43.6c2.7,3,6.4,4.9,10.4,5.2c25.9,0,58.3-0.5,58.3-0.5c-12.5-9.8-8.3-30.4-3.3-45.4c3.6-10.9,17.8-62.6,24.1-80.5
	c6.3-16.5,23.1-26.6,40.6-24.4c13.5,0,21.2,0.1,32.7,0.3C1500.6,146.6,1512.9,134.9,1523.4,121.6z"/>
<path class="st0" d="M1739.1,182c-18.6,28-37.4,79.2-12.7,105.5c18.9,20,76.7,17.9,112.4,14.2c-13.6,35.9-31.1,38.5-59.4,41.1
	c-13.8,1.2-112.2-0.2-125-0.2s-44.3,25.5-53.8,36.7c16.4,0.4,179.5,1,198.1,1c75.5,0,91.7-42,100-67.4
	c3.6-10.9,53.5-175.8,59.8-193.7h-87.7C1833.3,119.1,1777.9,123.3,1739.1,182z M1853.1,247.3c-4.4,9.4-13.2,15.9-23.5,17.5
	c-21.5,2.7-37.4-0.3-42.3-6.4c-13.5-16.8,3.5-55.1,8.9-64.5c25.1-43.6,68-44.1,90-44.1C1874.8,183.7,1856.7,239.2,1853.1,247.3
	L1853.1,247.3z"/>
<path class="st0" d="M2019.3,245.4c-0.2-2.8-0.2-5.7,0-8.5c23.2-0.2,84.9-2.4,119.6-18.5c43.3-20,50.1-98.3,50.1-98.3
	s-53.3-3-86.2-3c-99.8,0-139.7,49.5-150.6,125.9s81.3,63.2,108.6,63.2s61.6,1.5,80.4-17c11.9-12.4,21.4-26.9,28-42.7
	C2101.5,274,2021.4,271,2019.3,245.4z M2093.1,150.4c9.6,0.1,19.1,0.7,28.6,1.9c-2.9,20.2-17.5,36.7-37.2,41.9
	c-18.7,3.2-37.5,5.2-56.4,5.9c3.3-9.2,7.7-18,13-26.3C2054.2,154.9,2085.2,150.3,2093.1,150.4L2093.1,150.4z"/>
<path d="M304.6,337.5H0.7L87.2,0.3H391L304.6,337.5z"/>
<path class="st1" d="M608.4,337.5H304.6L391,0.3h303.8L608.4,337.5z"/>
<path class="st2" d="M608.4,337.5H0.7L87.2,0.3h607.6L608.4,337.5z"/>
<path class="st0" d="M191,173.8h129l8.2-31.8H184.7c-37.6,0-98,3-117.2,57.3c0,0-13.2,36.8-17.8,51.6c-4.6,14.9-17.7,58.8,42.6,58.8
	h192.8l24.9-97.2H197l-8.2,31.9h53.9l-7.6,29.6h-92.6c-42.5,0-24.4-32.3-11.2-64.5C141.2,185.8,165.4,171.3,191,173.8z"/>
<path class="st0" d="M546.3,241.2h9.2c22.6,0,56.6-7.1,67-47.6s-19-51.6-41.6-51.6H379l-42.9,167.7H404l34.8-135.9h110.4
	c7.9-0.3,14.6,6,14.9,13.9c0.1,1.7-0.2,3.3-0.7,4.9c-4.8,14.5-18.4,24.2-33.7,24h-73.9l63.1,93.1h73.9L546.3,241.2z"/>
<g class="st3">
	<path class="st0" d="M2298.8,301.5h-32.6v-57.7c-6.4,6-13.5,12.2-21.1,18.3l-12.2-28.2c25.1-21,42.8-40.9,53.1-59.7h-46v-26.6h26.2
		v-27.2h32.6v27.2h21.8v23.2c-5.2,10.8-11.6,21.5-19.3,32.3c6.4,6.3,14.2,13.2,23.4,20.8v-12.5h120.6v89.5H2413v-8.1h-55.8v8.1
		h-32.4v-67.5l-11.5,18.3c-4.8-4.3-9.6-8.8-14.5-13.5V301.5z M2447,149.7h-123.9v-25.8H2447V149.7z M2439.4,205.3H2330v-49.2h109.4
		V205.3z M2371.9,241.6v-9.3h-16.3v9.3H2371.9z M2371.9,270v-9.9h-16.3v9.9H2371.9z M2408.4,186v-9.3h-47.1v9.3H2408.4z
		 M2414.6,241.6v-9.3h-16.5v9.3H2414.6z M2414.6,270v-9.9h-16.5v9.9H2414.6z"/>
	<path class="st0" d="M2632,207.5h-43v37.1h11.5V213h25v58.5h0.2c4.1,0,6.8-0.8,8-2.4c1.2-1.2,1.8-3.7,1.8-7.5V154.1h-123.4v147
		h-34.9V126.3h193.3v142.1c0,14.2-2.1,23.1-6.4,26.7c-4.3,3.6-14.3,5.3-30.1,5.3h-25l-9.7-27.2h-46.2v10.1h-31V213h25.5v31.6h11.3
		v-37.1h-43v-25.6h18.8c-2-5.4-5.1-12.1-9.4-20.2l32.2-6c4.7,10.5,8.3,19.2,10.6,26.2h11c4.6-10.1,7.8-18.8,9.7-26.2l31.9,4.6
		c-2.6,8.3-5.4,15.5-8.3,21.6h19.5V207.5z"/>
	<path class="st0" d="M2904.8,296.6H2703v-28.8h81.1v-16.3h-64.6v-26.4h7.8l-17.7-20.6c17.2-4.3,29.6-8.5,37.2-12.7
		c10.3-5.6,16.9-13.4,19.8-23.4h-28v20.8h-34.9v-48.4h80.7v-19.8h37.5v19.8h82.3v44.3h-24.6l14,3.6c-2.1,12.6-5.7,20.8-10.6,24.6
		c-3.5,2.7-10.1,4-19.8,4h-34.2c-10,0-16-0.9-18.3-2.8c-2.2-1.9-3.3-6.5-3.3-13.7v-32.5h-34.5l26,8.1c-8,22.7-27.7,38.9-59.1,48.6
		h147.3v26.4h-64.8v16.3h82.5V296.6z M2869.2,182.6v-14.1h-27.8v18.9c0,2.6,0.3,4,0.8,4.4c0.5,0.4,2.3,0.6,5.4,0.6h7.1
		c3.5,0,5.8-1.2,6.9-3.6c0.2-0.4,0.6-3,1.4-7.9L2869.2,182.6z"/>
	<path class="st0" d="M2980.4,242.4c-7.2,21.6-16,40.8-26.4,57.4l-30.8-12.9c11.2-15.5,21.3-36.6,30.3-63.5l17.7,8.9l-1.6-1.6
		c17-10.6,29.6-21.1,37.9-31.4h-29.2v-2.8l-15.2,19.4c-13.3-8.7-26.5-15.8-39.5-21.2l17.9-24.2c11,4.2,23.3,10.3,36.8,18.5v-15.9
		h32.9v-12.9h-25.3v-17.7l-18.4,23.4c-12.4-8.5-25.4-15.5-38.8-21.2l18.2-24.2c11.6,4.7,24.7,11.6,39.1,20.8v-7.1h25.3v-14.1h33.6
		v14.1h25.7v-14.1h33.8v14.1h26.7v26h-26.7v12.9h33.8v26.2h-31.9c8.3,10.3,20.9,20.8,37.9,31.4l-21.1,23.2c-9.3-7-17.7-14.1-25-21.4
		v20.6l30.8,7.1c-1.1,15.7-3.8,26.1-8,31c-4.8,5.5-14.1,8.3-28,8.3h-67.8c-10.1,0-16.7-1.3-19.8-4c-3.5-3.1-5.3-9.9-5.3-20.6v-27.8
		c-3.5,3-6.4,5.2-8.7,6.9L2980.4,242.4z M3016.5,231.9c-4,4-7.2,7.1-9.7,9.3h59.1v-9.3H3016.5z M3096.2,262.4h-64.6v7.5
		c0,3,1.5,4.4,4.6,4.4h51.5C3092.9,274.3,3095.7,270.3,3096.2,262.4z M3042.9,199.3c-1.2,1.9-3.7,5.3-7.4,10.3h42.5
		c-1.7-2.3-4.1-5.7-7.4-10.3H3042.9z M3044.7,173.1h25.7v-12.9h-25.7V173.1z"/>
</g>
</svg>
