<?xml version="1.0" encoding="utf-8"?>
<!-- Generator: Adobe Illustrator 25.4.1, SVG Export Plug-In . SVG Version: 6.00 Build 0)  -->
<svg version="1.1" id="レイヤー_1" xmlns="http://www.w3.org/2000/svg" xmlns:xlink="http://www.w3.org/1999/xlink" x="0px"
	 y="0px" viewBox="0 0 1547.5 699.4" style="enable-background:new 0 0 1547.5 699.4;" xml:space="preserve">
<style type="text/css">
	.st0{fill:none;stroke:#ED7700;stroke-width:3;stroke-miterlimit:10;}
	.st1{fill:none;stroke:#FFFFFF;stroke-width:3;}
	.st2{fill:#FFFFFF;}
	.st3{fill:url(#SVGID_1_);}
	.st4{fill:url(#SVGID_00000155827650548742805000000004153602427168903608_);}
	.st5{fill:url(#SVGID_00000065794989273007622180000006211345795759064980_);}
	.st6{fill:url(#SVGID_00000048496885670410150450000012507400810307541923_);}
	.st7{fill:url(#SVGID_00000120542314963964196120000018432786090904252315_);}
	.st8{fill:url(#SVGID_00000092421143975346948900000009561447283217561234_);}
	.st9{fill:url(#SVGID_00000160152732606699351360000016331802603834751677_);}
	.st10{fill:url(#SVGID_00000080182836797457716400000007623839986144155529_);}
	.st11{fill:url(#SVGID_00000122707172351815880200000012350256657398370725_);}
	.st12{fill:url(#SVGID_00000129906044764661272930000003186801298116381872_);}
	.st13{fill:url(#SVGID_00000083782121099279826480000006700364448963928475_);}
	.st14{fill:url(#SVGID_00000088131640382716859560000016755896176253080480_);}
	.st15{fill:url(#SVGID_00000137128647089541554920000017824989843496215483_);}
	.st16{fill:url(#SVGID_00000130609054695426046470000015676542182215516585_);}
	.st17{fill:url(#SVGID_00000045618030191130520910000008259337801606345904_);}
	.st18{fill:url(#SVGID_00000106838307068073747330000010985411472906570652_);}
	.st19{fill:url(#SVGID_00000008844522791627335080000007714699666167051165_);}
	.st20{fill:url(#SVGID_00000127726890322296136060000014199219763951923356_);}
	.st21{fill:none;stroke:#FFFFFF;stroke-width:3;stroke-miterlimit:10;}
</style>
<path class="st0" d="M0.7,698L1540,1.9h-321.4"/>
<path class="st1" d="M373.5,269.7c5.1,0.1,10.2-0.1,15.3-0.5c1.7,0,3.7-0.3,5.4-0.3c4.5,0,6.9,4.2,8.8,7.3c2.8,3.9,4.7,6.2,3.5,9.5
	s-4.7,6.7-11.1,19c-32.8,61.8-64.4,106.3-129.3,147.9c-7.3,4.8-35.6,22.4-42,22.4c-6.1,0-13.7-16.2-12-20.7
	c1.1-3.1,7.2-5.3,10.3-6.7c21.2-9.8,41.1-22.2,59.3-36.9c21.8-17.5,40.8-38.1,56.4-61.2c9.3-13.8,17.3-28.4,24-43.6
	c2.3-6.4-3-7-8.4-7H252.2c-5.1,0.4-9.5,3.6-11.4,8.4L227,345c-2.4,6.7-4.4,13.7-7,20.7c-2.6,7.3-5.4,7.3-19.1,7.3
	c-12.3,0-14.6-0.6-12.4-6.7c2.6-7.3,5.8-14.3,8.4-21.5l17.8-48.9c1.4-3.9,2.5-7.5,3.9-11.5c3.9-10.6,6.5-14.8,20.8-14.8
	c10.3,0,20.3,0.3,30.4,0.3L373.5,269.7z"/>
<path class="st1" d="M634.8,331c-1.7,4.8-16.9,15.7-21.8,19.3c-58.2,43.8-122.2,79.3-190.2,105.5c-10.9,4.5-11.2,4.7-15.2,9.5
	c-0.8,1.1-2.1,1.7-3.4,1.7c-3.1,0-4.9-11.2-5.6-14.5c-1.6-5.5-2.3-11.1-2.3-16.8c1.1-3.1,6.4-3.6,10.4-4.8
	c68.4-18.2,157.6-71,215.7-121.6c1.6-1.6,3.6-2.7,5.9-3.1C633.8,306.1,636.4,326.8,634.8,331z M507.3,284.8
	c2.7,2.5,12.8,11.7,11.3,15.9c-2.3,6.4-21,21.5-26.3,21.5c-2.2,0-6-4.2-8.4-7.6c-8.4-9.5-17.7-18.2-27.7-26
	c-1.7-1.4-3.5-2.8-2.5-5.3c1.5-4.2,19.2-22.1,25.7-22.1C483.7,261.3,503.4,280.9,507.3,284.8z"/>
<path class="st1" d="M831.3,287.9c4.7,0.2,9.4-0.1,14-0.9c0.8-0.3,1.7-0.3,2.6-0.3c5.3,0,10.9,15.4,9.1,20.4c-0.7,1.4-1.7,2.7-3,3.6
	c-3.9,3.8-7.5,7.8-10.8,12c-13.8,17-28,33.8-43.3,49.8c-2.4,2.2-4.4,4.9-5.9,7.8c-1.3,3.6,0.3,5.3,2.4,7.3
	c2.4,2.5,11.7,10.9,10.4,14.5c-1.6,4.5-20.3,21.2-25.9,21.2c-1.4-0.2-2.7-1-3.3-2.2c-3.8-5-4.3-5-7.8-9.2c-1-1.8-2.9-3-5-3.1
	c-3.9,0-8.4,3.9-12,6.7c-24.1,18.9-50.5,34.7-78.4,47.3c-7.1,3.4-32.9,14.3-38.8,14.3c-7.2,0-13.9-17.9-12.5-21.8
	c1.5-4.2,11.5-5.6,14.6-6.4c33.6-7.8,67.8-27.1,98.3-50.3c2.8-1.7,5.2-4.1,6.7-7c1.2-2.4,0.2-5.2-2.1-6.4
	c-7.8-5.7-15.8-11.1-24.1-15.9c-1.6-0.9-4.5-2.2-3.6-4.8c1.4-3.9,18.3-21,24.7-21c4.2,0,24.2,14.3,28.2,17.1
	c1.5,1.8,3.6,2.9,5.9,3.1c5,0,9.1-5,12.9-9.2c9.8-10.5,18.7-21.7,26.8-33.6c2-5.6-5-5.6-9.2-5.6h-53.7c-5.8,0-11.4,2.7-15,7.3
	c-15,13.7-35.7,31.3-51.7,43.1c-3.1,2.7-6.8,4.5-10.9,5.3c-5,0-19.2-11.8-17.5-16.5c0.8-2.2,4.2-3.9,6.4-5.3
	c41.9-27,78.9-60.9,109.5-100.3c1.7-2.2,4.5-7,7.6-7c3.4,0,10.8,5.6,14.9,7.6s12.1,6.7,11.4,8.7c-0.8,1.6-2.2,2.7-3.9,3.1
	c-4.8,1.7-5.3,2.2-12.6,10.1c-1.4,1.7-3.8,4.2-6.5,7c-1.8,1.5-3.3,3.4-4.3,5.6c-1,2.8,1.1,3.9,3.2,4.2L831.3,287.9L831.3,287.9z
	 M882.9,274.5c-4.8,5.6-11.4,9.6-18.6,11.2c-2,0-2.2-1.7-2.5-3.1c-2-8.5-4.7-16.8-8-24.9c-0.7-1.2-0.9-2.6-0.5-3.9
	c1.2-3.4,15-9.8,18.1-9.8S884.1,271.1,882.9,274.5L882.9,274.5z M915.3,245.4c2,4.3,3.1,9,3.4,13.7c-1.5,4.2-15.3,11.2-18.6,11.2
	c-2,0-2.4-2-2.9-3.6c-2.2-8.2-4.9-16.4-7.9-24.3c-0.8-1-1-2.4-0.6-3.6c1.3-3.6,15.1-10.1,18.2-10.1c2.2,0,7.4,12,7.8,14.8
	C914.8,244.1,915,244.8,915.3,245.4L915.3,245.4z"/>
<path class="st1" d="M1067.7,275.9c5.9,0,19.6,0,25.4-0.6c1.1,0,4.4-0.6,5.2-0.6c6.7,0,13.2,15.1,12.2,17.9s-4.7,5.9-11.3,17.9
	c-29.2,54-62.5,91.2-119.5,123c-20.5,11.4-41.9,20.9-64.1,28.5c-3.2,1.3-6.7,2.2-10.1,2.5c-6.7,0-10-18.8-8.3-23.2
	c1.2-2.6,3.8-4.3,6.7-4.5c29.4-8,57.4-20.4,83-36.8c31.9-20.1,58-48.3,75.6-81.6c1.1-2.2,2.1-4.4,3-6.7c1.9-5.3-2.6-5.9-7.7-5.9
	h-99.2c-11.8,0-23.4,0.6-35.2,0.6c-8.7,0-7.5-2.5-2.9-15.1c4.7-12.9,5.5-15.9,13.3-15.9c12,0,23.9,0.6,35.9,0.6L1067.7,275.9
	L1067.7,275.9z"/>
<path class="st1" d="M1208.9,277.3c3.2,0.6,6.8,0.6,5.8,3.4c-0.5,1.4-2.7,2.8-4.2,3.9c-2.2,2.6-3.8,5.6-4.7,9l-2.2,6.2
	c-21.1,57.9-42.9,107.1-102.8,149.6c-2.9,2-7.7,5.9-10.8,5.9c-4.2,0-21.1-10.4-19.3-15.4c0.7-1.9,3.7-3.9,5.5-5
	c55.3-35.2,74.9-74.4,93.8-126.4c3-8.4,6.8-19.6,9-27.7c0.3-0.8,0.5-2.2,0.8-3.1c0.6-2,2.6-3.3,4.7-3.1
	C1189.8,274.5,1203.3,276.4,1208.9,277.3z M1232.6,394.2c-3.2,8.7-4.4,12.9-0.2,12.9c9.2,0,82.2-49.2,94.5-58.4
	c1.9-1.8,4.3-3.1,6.9-3.6c4.7,0,7.7,17.9,6.1,22.4c-1.5,4.2-15.7,13.1-20.4,16.2c-22.1,14.5-44,28.8-66.4,41.9
	c-9.7,5.9-25,14.8-33.8,20.7c-3.1,2.5-6.7,4.2-10.5,5c-5.9-1.7-11.4-4.6-16.2-8.4c-3.1-2.2-7.1-5-5.3-10.1c0.7-2,8.4-20.1,13.3-33.6
	l35.6-97.9c3.6-9.3,6.7-18.9,9.2-28.5l0.5-1.4c0.5-1.7,2.1-2.8,3.8-2.8c1.7,0,8.2,1.1,10.4,1.4c13.8,2,21.6,2.8,20.5,5.9
	c-0.7,2-2,2.5-3.7,3.9c-2.3,1.9-4.1,4.4-5.2,7.3c-2.6,6.4-7.7,20.4-10.2,27.4L1232.6,394.2z"/>
<path class="st2" d="M300.6,160.8c-6.5,17.9-18,51.9-18.8,54.1c-2.4,6.5-4.7,7.7-11.8,7.7H251c-7.1,0-8.5-1.2-6.2-7.7
	c0.8-2.2,14.1-36.2,20.6-54.1l34.7-95.2c6.5-17.9,18-52,18.8-54.1c2.4-6.5,4.7-7.7,11.8-7.7h19.1c7.1,0,8.5,1.2,6.1,7.7
	c-0.8,2.2-14.1,36.2-20.6,54.1l-9.4,26c-1.2,3.4-1.2,4.9,0.4,4.9c1.9-0.3,3.6-1.2,4.9-2.5l47-36.5c17.8-13.9,34.5-26.9,58.7-46.7
	c4.7-4.9,11.3-7.4,18-7.1H483c4,0,5.5,0.9,4.9,2.8c-0.9,1.8-2.3,3.3-4,4.3c-33.5,25-52,39.3-73.8,55.7l-19.7,15.1
	c-2.9,1.8-5.3,4.4-7,7.4c-0.5,2.4-0.3,4.8,0.5,7.1l13.7,54.1c5.3,17.6,10.1,34.9,18.2,64.6c0.7,1.7,0.9,3.5,0.6,5.2
	c-0.7,1.9-3.1,2.5-7.7,2.5h-25.4c-8.1,0-9.5-1.2-11-8.1c-4.7-22.9-8.8-38.7-13.4-55l-9.8-36.8c-0.9-3.4-1.9-4.9-3.5-4.9
	c-1.9,0-3.9,1.2-7.3,4l-26.7,20.7c-4,2.6-6.9,6.6-8.4,11.1L300.6,160.8z"/>
<path class="st2" d="M452.2,222.7c-7.1,0-8.5-1.2-6.1-7.7c0.8-2.2,14.1-36.2,20.6-54.1l34.7-95.2c6.5-17.9,18-52,18.8-54.1
	c2.4-6.5,4.7-7.7,11.8-7.7h19.8c7.1,0,8.5,1.2,6.2,7.7c-0.8,2.2-14.1,36.2-20.6,54.1l-34.7,95.2c-6.5,17.9-18,51.9-18.8,54.1
	c-2.4,6.5-4.7,7.7-11.8,7.7H452.2z"/>
<path class="st2" d="M683.8,208.1c-1,2.8-3.7,4.3-9.2,6.5c-17.9,6.5-36.8,9.8-55.8,9.9c-64,0-89.6-42.7-66.5-106.1
	C575.8,53.9,634,1.9,711.2,1.9c14.3-0.4,28.5,2.2,41.7,7.7c4,1.9,5.5,3.4,4.5,6.2c-1,2.1-2.2,4.1-3.7,5.9l-13.5,18.5
	c-3.5,4.6-5.2,6.5-7.6,6.5c-2-0.2-3.9-0.8-5.5-1.9c-9.5-4.8-19.9-7.2-30.5-7.1c-51.3,0-90.8,36.2-106.6,79.8s0.8,73.3,45,73.3
	c13.3,0,26.5-2.6,38.7-7.8c2.2-1.2,4.6-1.9,7-2.2c2.5,0,3,1.9,3.2,6.5l0.5,14.9C684.6,204.2,684.4,206.2,683.8,208.1z"/>
<linearGradient id="SVGID_1_" gradientUnits="userSpaceOnUse" x1="-5156.1592" y1="95.6632" x2="-5156.1592" y2="102.3815" gradientTransform="matrix(11.02 0 0 19.22 56923.9883 -1261.5431)">
	<stop  offset="0" style="stop-color:#ED7700"/>
	<stop  offset="1" style="stop-color:#FFE200"/>
</linearGradient>
<path class="st3" d="M86.8,697.7l24.1-66.2H98.8l-24.1,66.2h-8.7L110,577.3c2-4.9,6.6-8.3,11.9-8.7h12.1c3.3-0.2,6,2.3,6.2,5.6
	c0.1,1.1-0.2,2.1-0.7,3.1L95.6,697.7H86.8z M111.6,629.6l20.2-55.5c0.6-1.1,0.2-2.6-0.9-3.2c-0.4-0.2-0.9-0.3-1.3-0.3h-5
	c-2.1,0.1-4,1.5-4.8,3.5l-20.3,55.5H111.6z"/>
<linearGradient id="SVGID_00000086675918282287295510000012416274317025378720_" gradientUnits="userSpaceOnUse" x1="-5158.333" y1="95.6632" x2="-5158.333" y2="102.3812" gradientTransform="matrix(11.39 0 0 19.22 58919.7461 -1261.8947)">
	<stop  offset="0" style="stop-color:#ED7700"/>
	<stop  offset="1" style="stop-color:#FFE200"/>
</linearGradient>
<path style="fill:url(#SVGID_00000086675918282287295510000012416274317025378720_);" d="M137.5,695.7h20.8l-0.7,1.9h-29.5l47-129.1
	h29.5l-0.7,1.9h-20.8l-21.5,59.1h9.1l-0.7,1.9h-9.1L137.5,695.7z"/>
<linearGradient id="SVGID_00000149367335190148299750000004192432383082920847_" gradientUnits="userSpaceOnUse" x1="-5138.5654" y1="95.7306" x2="-5138.5654" y2="102.4475" gradientTransform="matrix(10.66 0 0 19.21 55005.2109 -1267.0002)">
	<stop  offset="0" style="stop-color:#ED7700"/>
	<stop  offset="1" style="stop-color:#FFE200"/>
</linearGradient>
<path style="fill:url(#SVGID_00000149367335190148299750000004192432383082920847_);" d="M245.6,569h12.1c3.2-0.2,6,2.3,6.2,5.5
	c0.1,1.1-0.2,2.2-0.7,3.1l-16.6,45.4c-1.4,3.5-4.2,6.3-7.7,7.8c2.5,1.7,3.3,5,2,7.8l-18.4,50.6c-1.9,5-6.6,8.4-11.9,8.7h-12.1
	c-3.2,0.2-6-2.2-6.3-5.5c-0.1-1.1,0.2-2.3,0.7-3.2l18.4-50.6c1.4-3.5,4.2-6.3,7.6-7.8c-2.5-1.7-3.3-5.1-2-7.8l16.6-45.4
	C235.6,572.7,240.2,569.3,245.6,569z M248.4,570.8c-2.2,0.2-4,1.6-4.8,3.6l-18.9,52c-0.6,1.1-0.2,2.6,0.9,3.2c0,0,0,0,0,0
	c0.4,0.2,0.8,0.3,1.3,0.3h5.1c2.1-0.1,4-1.5,4.8-3.5l18.9-52c0.7-1.9-0.2-3.6-2.2-3.6H248.4z M231.8,631.8h-5.1
	c-2.1,0.1-4,1.5-4.8,3.5l-20.8,57.2c-0.7,1.9,0.2,3.6,2.2,3.6h5c2.2-0.2,4-1.6,4.8-3.6l20.8-57.2c0.6-1.1,0.2-2.6-0.9-3.2
	C232.6,631.8,232.2,631.7,231.8,631.8L231.8,631.8z"/>
<linearGradient id="SVGID_00000059303119799761507370000014718316651293442226_" gradientUnits="userSpaceOnUse" x1="-5134.4897" y1="95.7306" x2="-5134.4897" y2="102.4478" gradientTransform="matrix(10.65 0 0 19.21 54966.6055 -1266.9807)">
	<stop  offset="0" style="stop-color:#ED7700"/>
	<stop  offset="1" style="stop-color:#FFE200"/>
</linearGradient>
<path style="fill:url(#SVGID_00000059303119799761507370000014718316651293442226_);" d="M301.7,569H314c3.2-0.1,6,2.4,6.1,5.6
	c0,1.1-0.2,2.1-0.7,3.1l-8.2,22.7h-8.6l9.5-26.1c0.6-1.2,0.1-2.6-1.1-3.2c-0.4-0.2-0.8-0.3-1.3-0.2h-4.9c-2.2,0.1-4.1,1.5-4.9,3.5
	L279.6,630H290c3.9-0.2,7.2,2.8,7.4,6.6c0.1,1.3-0.2,2.6-0.8,3.7l-17.8,48.9c-1.9,4.9-6.5,8.3-11.8,8.7h-12.2
	c-3.2,0.2-6-2.2-6.3-5.5c-0.1-1.1,0.2-2.3,0.7-3.2l20.9-57.5l0.7-1.8l19-52.3C291.8,572.7,296.4,569.3,301.7,569z M283.6,631.7h-4.7
	l-22.1,60.7c-0.6,1.2-0.2,2.7,1,3.3c0,0,0,0,0,0c0.4,0.2,0.9,0.3,1.3,0.3h4.9c2.2-0.2,4.1-1.6,5-3.6l20.6-56.4
	c0.8-1.4,0.3-3.2-1.1-4c0,0,0,0-0.1,0c-0.5-0.2-1-0.4-1.5-0.3L283.6,631.7z"/>
<linearGradient id="SVGID_00000008114150097028817160000014302563271454028417_" gradientUnits="userSpaceOnUse" x1="-5134.7319" y1="95.7306" x2="-5134.7319" y2="102.4459" gradientTransform="matrix(11.01 0 0 19.21 56932.2734 -1278.9026)">
	<stop  offset="0" style="stop-color:#ED7700"/>
	<stop  offset="1" style="stop-color:#FFE200"/>
</linearGradient>
<path style="fill:url(#SVGID_00000008114150097028817160000014302563271454028417_);" d="M408.8,568.7h20.8c3.2-0.2,6,2.3,6.2,5.5
	c0.1,1.1-0.2,2.2-0.7,3.2l-16.5,45.4c-1.6,3.9-4.9,6.9-9,8.2c3,1.3,4.4,4.8,3.2,7.8c-0.1,0.2-0.1,0.3-0.2,0.5l-21.2,58.4h-8.7
	l21.9-60.1c1.1-2,0.4-4.5-1.6-5.6c-0.7-0.4-1.5-0.5-2.2-0.5h-6.1l-24.1,66.2h-8.6l24.1-66.2l0.7-1.8l21.5-59.2L408.8,568.7z
	 M416.7,570.5l-21.5,59.2h6.1c3.7-0.3,7-2.6,8.3-6.1l17.1-47c1.1-2,0.3-4.5-1.7-5.6c-0.7-0.4-1.4-0.5-2.2-0.5L416.7,570.5z"/>
<linearGradient id="SVGID_00000155837631799797705500000003495190390006696106_" gradientUnits="userSpaceOnUse" x1="-5136.2593" y1="95.6632" x2="-5136.2593" y2="102.3812" gradientTransform="matrix(11.39 0 0 19.22 58963.7266 -1261.8947)">
	<stop  offset="0" style="stop-color:#ED7700"/>
	<stop  offset="1" style="stop-color:#FFE200"/>
</linearGradient>
<path style="fill:url(#SVGID_00000155837631799797705500000003495190390006696106_);" d="M433,695.7h20.8l-0.7,1.9h-29.5l47-129.1
	H500l-0.7,1.9h-20.8L457,629.6h9.1l-0.7,1.9h-9.1L433,695.7z"/>
<linearGradient id="SVGID_00000059282551147885557560000008204002395781941380_" gradientUnits="userSpaceOnUse" x1="-5117.3042" y1="95.6258" x2="-5117.3042" y2="102.3399" gradientTransform="matrix(10.64 0 0 19.23 54964.3555 -1275.2032)">
	<stop  offset="0" style="stop-color:#ED7700"/>
	<stop  offset="1" style="stop-color:#FFE200"/>
</linearGradient>
<path style="fill:url(#SVGID_00000059282551147885557560000008204002395781941380_);" d="M533.6,568.7h12.2c3.3-0.2,6,2.3,6.2,5.6
	c0.1,1.1-0.2,2.1-0.7,3.1L541,605.7h-8.7l11.5-31.6c0.6-1.2,0.2-2.6-1-3.2c-0.4-0.2-0.9-0.3-1.4-0.3h-4.9c-2.2,0.1-4.1,1.5-4.9,3.5
	l-18.9,52c-0.6,1.2-0.1,2.7,1.1,3.3c0.4,0.2,0.8,0.3,1.3,0.2h8.6c3.2-0.2,6,2.3,6.2,5.5c0.1,1.1-0.2,2.2-0.7,3.2l-18.5,50.7
	c-2,4.9-6.6,8.3-11.9,8.7h-12.2c-3.3,0.1-6-2.5-6.1-5.7c0-1,0.2-2.1,0.7-3l9-24.7h8.5l-10.1,27.9c-0.6,1.2-0.1,2.6,1.1,3.2
	c0,0,0,0,0,0c0.4,0.2,0.8,0.3,1.3,0.2h4.9c2.2-0.1,4.1-1.5,4.9-3.5l20.8-57.2c0.6-1.2,0.2-2.7-1-3.3c-0.4-0.2-0.9-0.3-1.3-0.3h-8.6
	c-3.2,0.2-6-2.3-6.1-5.5c-0.1-1.1,0.2-2.1,0.7-3.1l16.6-45.6C523.8,572.5,528.3,569.1,533.6,568.7z"/>
<linearGradient id="SVGID_00000023991452015384151740000000199149606426758845_" gradientUnits="userSpaceOnUse" x1="-5097.3623" y1="95.7306" x2="-5097.3623" y2="102.4458" gradientTransform="matrix(10.1 0 0 19.21 52060.8555 -1278.4924)">
	<stop  offset="0" style="stop-color:#ED7700"/>
	<stop  offset="1" style="stop-color:#FFE200"/>
</linearGradient>
<path style="fill:url(#SVGID_00000023991452015384151740000000199149606426758845_);" d="M590.5,568.7h20.9l-0.7,1.8h-12.2
	l-46.3,127.2h-8.7l46.3-127.2h-14.4l0.7-1.8L590.5,568.7z"/>
<linearGradient id="SVGID_00000167365316193578120980000000257705656213258925_" gradientUnits="userSpaceOnUse" x1="-5107.6533" y1="95.6258" x2="-5107.6533" y2="102.3424" gradientTransform="matrix(10.65 0 0 19.23 55020.6758 -1269.0939)">
	<stop  offset="0" style="stop-color:#ED7700"/>
	<stop  offset="1" style="stop-color:#FFE200"/>
</linearGradient>
<path style="fill:url(#SVGID_00000167365316193578120980000000257705656213258925_);" d="M641.5,568.7h12.2c3.3-0.2,6,2.3,6.2,5.6
	c0,0,0,0,0,0c0.1,1.1-0.2,2.1-0.7,3.1l-40.7,111.7c-2,4.9-6.6,8.3-11.8,8.7h-12.2c-3.3,0.1-6-2.4-6.1-5.7c0-1.1,0.2-2.1,0.7-3
	l40.7-111.7C631.8,572.5,636.3,569.1,641.5,568.7z M644.4,570.6c-2.2,0.1-4.1,1.5-4.9,3.5l-43,118.2c-0.6,1.2-0.1,2.6,1.1,3.3
	c0,0,0,0,0,0c0.4,0.2,0.8,0.3,1.3,0.2h5c2.1-0.1,4-1.5,4.8-3.5l43-118.2c0.6-1.1,0.2-2.6-0.9-3.2c-0.4-0.2-0.9-0.3-1.3-0.3
	L644.4,570.6z"/>
<linearGradient id="SVGID_00000181784104342922543970000014435953776965920949_" gradientUnits="userSpaceOnUse" x1="-5112.3979" y1="95.7306" x2="-5112.3979" y2="102.4459" gradientTransform="matrix(11.01 0 0 19.21 56972.125 -1278.9026)">
	<stop  offset="0" style="stop-color:#ED7700"/>
	<stop  offset="1" style="stop-color:#FFE200"/>
</linearGradient>
<path style="fill:url(#SVGID_00000181784104342922543970000014435953776965920949_);" d="M694.6,568.7h20.8c3.2-0.2,6,2.3,6.2,5.5
	c0.1,1.1-0.2,2.2-0.7,3.2l-16.5,45.4c-1.6,3.9-4.9,6.9-9,8.2c3,1.3,4.4,4.8,3.2,7.8c-0.1,0.2-0.2,0.3-0.2,0.5l-21.3,58.4h-8.7
	l21.9-60.1c1.1-2,0.3-4.5-1.7-5.6c-0.7-0.4-1.4-0.5-2.2-0.5h-6.1l-24.1,66.2h-8.6l24.1-66.2l0.7-1.8l21.6-59.2L694.6,568.7z
	 M702.5,570.5L681,629.7h6.1c3.7-0.3,7-2.6,8.3-6.1l17.1-47c1.1-2,0.4-4.5-1.6-5.6c-0.7-0.4-1.5-0.6-2.3-0.5L702.5,570.5z"/>
<linearGradient id="SVGID_00000128469784567332996530000008664641858167290008_" gradientUnits="userSpaceOnUse" x1="-5114.9067" y1="95.6632" x2="-5114.9067" y2="102.3812" gradientTransform="matrix(11.39 0 0 19.22 59006.2773 -1261.8947)">
	<stop  offset="0" style="stop-color:#ED7700"/>
	<stop  offset="1" style="stop-color:#FFE200"/>
</linearGradient>
<path style="fill:url(#SVGID_00000128469784567332996530000008664641858167290008_);" d="M718.7,695.7h20.8l-0.7,1.9h-29.5l47-129.1
	h29.5l-0.7,1.9h-20.8l-21.5,59.1h9.1l-0.7,1.9H742L718.7,695.7z"/>
<linearGradient id="SVGID_00000049941263410667826240000007509170980562286741_" gradientUnits="userSpaceOnUse" x1="-5096.9326" y1="95.7306" x2="-5096.9326" y2="102.446" gradientTransform="matrix(11.02 0 0 19.21 57033.8281 -1277.1135)">
	<stop  offset="0" style="stop-color:#ED7700"/>
	<stop  offset="1" style="stop-color:#FFE200"/>
</linearGradient>
<path style="fill:url(#SVGID_00000049941263410667826240000007509170980562286741_);" d="M875.6,568.7h20.8c3.2-0.2,6,2.2,6.2,5.5
	c0.1,1.1-0.2,2.2-0.7,3.2l-16.5,45.4c-1.9,4.9-6.6,8.3-11.9,8.7h-12.1l-24.1,66.2h-8.7l24.1-66.2l0.7-1.8l21.6-59.2L875.6,568.7z
	 M883.7,570.5l-21.5,59.2h6c3.7-0.3,7-2.6,8.3-6.1l17.1-47c1.1-2,0.4-4.5-1.6-5.6c-0.7-0.4-1.5-0.5-2.2-0.5L883.7,570.5z"/>
<linearGradient id="SVGID_00000065060520267305581650000005874878487164189365_" gradientUnits="userSpaceOnUse" x1="-5093.3955" y1="95.7306" x2="-5093.3955" y2="102.4459" gradientTransform="matrix(11.01 0 0 19.21 57005.5742 -1278.9026)">
	<stop  offset="0" style="stop-color:#ED7700"/>
	<stop  offset="1" style="stop-color:#FFE200"/>
</linearGradient>
<path style="fill:url(#SVGID_00000065060520267305581650000005874878487164189365_);" d="M937.3,568.7H958c3.2-0.2,6,2.3,6.2,5.5
	c0.1,1.1-0.2,2.2-0.7,3.2L947,622.8c-1.6,3.9-4.9,6.9-9,8.2c3,1.3,4.4,4.8,3.2,7.8c-0.1,0.2-0.2,0.3-0.2,0.5l-21.3,58.4h-8.7
	l21.9-60.1c1.1-2,0.3-4.5-1.7-5.6c-0.7-0.4-1.4-0.5-2.2-0.5H923l-24.1,66.2h-8.6l24.1-66.2l0.7-1.8l21.5-59.2L937.3,568.7z
	 M945.2,570.5l-21.5,59.2h6.1c3.7-0.3,7-2.6,8.3-6.1l17.1-47c1.1-2,0.3-4.5-1.7-5.6c-0.7-0.4-1.4-0.5-2.2-0.5L945.2,570.5z"/>
<linearGradient id="SVGID_00000052089467099455076600000003825660233448929981_" gradientUnits="userSpaceOnUse" x1="-5077.7524" y1="95.6258" x2="-5077.7524" y2="102.3424" gradientTransform="matrix(10.65 0 0 19.23 55068.0469 -1268.9532)">
	<stop  offset="0" style="stop-color:#ED7700"/>
	<stop  offset="1" style="stop-color:#FFE200"/>
</linearGradient>
<path style="fill:url(#SVGID_00000052089467099455076600000003825660233448929981_);" d="M1007.3,568.7h12.2c3.3-0.2,6,2.3,6.2,5.6
	c0,0,0,0,0,0c0.1,1.1-0.2,2.1-0.7,3.1l-40.7,111.7c-2,4.9-6.6,8.3-11.9,8.7h-12.2c-3.3,0.1-6-2.5-6.1-5.7c0-1,0.2-2.1,0.7-3
	l40.7-111.7C997.6,572.5,1002.1,569.2,1007.3,568.7z M1010.2,570.6c-2.2,0.1-4.1,1.5-4.9,3.5l-43,118.2c-0.6,1.2-0.1,2.7,1.1,3.3
	c0.4,0.2,0.8,0.3,1.3,0.2h5c2.1-0.1,4-1.5,4.8-3.5l43-118.2c0.6-1.2,0.2-2.6-1-3.2c-0.4-0.2-0.8-0.3-1.3-0.3H1010.2z"/>
<linearGradient id="SVGID_00000082337605486349559580000009720036053679326376_" gradientUnits="userSpaceOnUse" x1="-5084.6211" y1="95.6258" x2="-5084.6211" y2="102.342" gradientTransform="matrix(11.01 0 0 19.23 57033.0742 -1273.4923)">
	<stop  offset="0" style="stop-color:#ED7700"/>
	<stop  offset="1" style="stop-color:#FFE200"/>
</linearGradient>
<path style="fill:url(#SVGID_00000082337605486349559580000009720036053679326376_);" d="M1088.4,568.6L1044.6,689
	c-2,4.9-6.6,8.3-11.9,8.7h-12.2c-3.3,0.1-6-2.5-6.1-5.7c0-1,0.2-2.1,0.7-3l9.2-25.4h8.5l-10.5,28.7c-0.6,1.2-0.1,2.6,1.1,3.2
	c0,0,0,0,0,0c0.4,0.2,0.8,0.3,1.3,0.2h4.9c2.2-0.1,4.1-1.5,4.9-3.5l45-123.7L1088.4,568.6L1088.4,568.6z"/>
<linearGradient id="SVGID_00000102518898808945591440000009072644211778214793_" gradientUnits="userSpaceOnUse" x1="-5087.8765" y1="95.6632" x2="-5087.8765" y2="102.3812" gradientTransform="matrix(11.39 0 0 19.22 59063.2578 -1261.8947)">
	<stop  offset="0" style="stop-color:#ED7700"/>
	<stop  offset="1" style="stop-color:#FFE200"/>
</linearGradient>
<path style="fill:url(#SVGID_00000102518898808945591440000009072644211778214793_);" d="M1083.5,695.7h20.8l-0.7,1.9h-29.5
	l47-129.1h29.5l-0.7,1.9h-20.8l-21.5,59.1h9.1l-0.7,1.9h-9.1L1083.5,695.7z"/>
<linearGradient id="SVGID_00000181788864562868803180000012136391790334858629_" gradientUnits="userSpaceOnUse" x1="-5063.9126" y1="95.6258" x2="-5063.9126" y2="102.3422" gradientTransform="matrix(10.65 0 0 19.23 55097.207 -1271.5548)">
	<stop  offset="0" style="stop-color:#ED7700"/>
	<stop  offset="1" style="stop-color:#FFE200"/>
</linearGradient>
<path style="fill:url(#SVGID_00000181788864562868803180000012136391790334858629_);" d="M1184,568.6h12.1c3.3-0.2,6,2.4,6.2,5.6
	c0.1,1.1-0.2,2.1-0.7,3.1l-10.3,28.3h-8.7l11.5-31.5c0.6-1.1,0.2-2.6-0.9-3.2c-0.4-0.2-0.9-0.3-1.3-0.3h-5.1c-2.1,0.1-4,1.5-4.8,3.5
	l-43,118.2c-0.6,1.1-0.2,2.6,0.9,3.2c0.4,0.2,0.9,0.3,1.3,0.3h5.1c2.1-0.1,4-1.5,4.8-3.5l11.5-31.5h8.7L1161,689
	c-2,4.9-6.6,8.3-11.9,8.7H1137c-3.3,0.2-6-2.3-6.2-5.6c-0.1-1.1,0.2-2.2,0.7-3.2l40.7-111.7C1174.1,572.3,1178.7,569,1184,568.6z"/>
<linearGradient id="SVGID_00000160180971245969299780000005284462777830429570_" gradientUnits="userSpaceOnUse" x1="-5042.8184" y1="95.7306" x2="-5042.8184" y2="102.4458" gradientTransform="matrix(10.1 0 0 19.21 52163.4961 -1278.4924)">
	<stop  offset="0" style="stop-color:#ED7700"/>
	<stop  offset="1" style="stop-color:#FFE200"/>
</linearGradient>
<path style="fill:url(#SVGID_00000160180971245969299780000005284462777830429570_);" d="M1244,568.7h20.9l-0.7,1.8h-12.2
	l-46.3,127.2h-8.7l46.3-127.2H1229l0.7-1.8H1244z"/>
<path class="st2" d="M150.5,532.9c-0.7,0.4-1.4,0.7-2.2,1c-0.7,0.3-1.5,0.5-2.2,0.7c-0.9,0.2-1.9,0.4-2.8,0.5
	c-0.8,0.1-1.5,0.2-2.3,0.2c-3,0.3-5.9-1-7.7-3.4c-1.5-2.2-2.1-4.9-1.8-7.5c0.1-0.6,0.1-1.2,0.3-1.8c0.1-0.6,0.3-1.1,0.5-1.7
	c0,0,0-0.1,0-0.1c0,0,0.1-0.1,0.1-0.1v-0.1c0-0.1,0-0.1,0.1-0.2c0,0,0.1-0.1,0.1-0.1c1.2-3.3,3.2-6.2,5.8-8.5
	c2.1-1.8,4.5-3.3,7.1-4.5c1.3-0.5,2.7-0.9,4.1-1.2c1-0.2,2-0.3,3-0.4c1.4,0,2.8,0.1,4.2,0.5c1,0.3,2,0.7,2.9,1.4l-1.5,4.1
	c-0.4-0.4-0.8-0.7-1.2-1c-0.4-0.3-0.8-0.6-1.3-0.8c-0.6-0.3-1.3-0.6-2-0.8c-0.7-0.2-1.4-0.2-2.2-0.2c-3.4,0.1-6.7,1.3-9.3,3.5
	c-2.8,2-4.9,4.7-6.2,7.8c-1.4,2.7-1.2,5.9,0.4,8.5c1.6,2.1,4.1,3.3,6.7,3.2c0.3,0,0.7,0,1,0c0.4,0,0.7-0.1,1.1-0.2
	c1.1-0.2,2.2-0.5,3.2-0.9c1.2-0.4,2.3-1,3.3-1.7L150.5,532.9z"/>
<path class="st2" d="M158.3,524.9c0.1-0.2,0.2-0.4,0.3-0.7c1.1-2.1,2.7-3.9,4.6-5.3c2.2-1.6,4.9-2.4,7.6-2.4c0.5,0,1.1,0,1.6,0.1
	c0.5,0.1,1.1,0.2,1.6,0.4c2.9,0.8,4.5,3.8,3.7,6.6c0,0,0,0,0,0c-0.1,0.4-0.3,0.8-0.4,1.1l-0.2,0.6c-0.1,0.3-0.2,0.6-0.4,0.9
	s-0.3,0.6-0.5,0.9c-1.2,2.1-2.9,3.8-4.8,5.2c-2.1,1.6-4.6,2.4-7.2,2.4c-2,0.3-4.1-0.4-5.6-1.8c-0.9-1.1-1.4-2.4-1.4-3.8
	c0-0.7,0.1-1.3,0.3-2c0.1-0.6,0.3-1.2,0.5-1.8C158.2,525.3,158.3,525.1,158.3,524.9z M173.4,525.2c0.2-0.9,0.2-1.8,0.1-2.7
	c-0.2-0.7-0.5-1.3-1.1-1.8c-0.8-0.6-1.8-0.9-2.8-0.8c-1.9-0.1-3.9,0.6-5.3,1.8c-1.2,1.1-2.2,2.5-2.8,4.1c-0.5,1.3-0.4,2.8,0.3,4
	c0.6,0.9,1.6,1.5,2.7,1.7c0.2,0,0.4,0.1,0.6,0.1c0.2,0,0.4,0,0.6,0c1.6,0,3.1-0.6,4.4-1.6c1.3-0.9,2.3-2.2,3.1-3.5
	c0.1-0.1,0.1-0.3,0.2-0.4c0.1-0.1,0.1-0.3,0.2-0.4L173.4,525.2L173.4,525.2z"/>
<path class="st2" d="M188.1,519.9c0.9-0.9,1.9-1.7,3-2.2c0.9-0.4,1.8-0.7,2.8-0.7c0.3,0,0.5,0,0.8,0c0.3,0,0.6,0.1,0.9,0.1
	c0.2,0.1,0.3,0.1,0.5,0.2l0.5,0.2l-2.9,3.3c-0.2-0.2-0.3-0.3-0.5-0.4c-0.2-0.1-0.4-0.2-0.7-0.3l-0.4-0.1h-0.4c-1,0.1-2,0.4-2.8,1.1
	c-1.1,0.8-1.9,1.9-2.4,3.2l-3.7,10.2h-3.5l6.3-17.3h3.6L188.1,519.9z"/>
<path class="st2" d="M197,524.9l0.3-0.7c1.1-2.1,2.7-3.9,4.6-5.3c2.2-1.6,4.9-2.4,7.6-2.4c0.5,0,1.1,0,1.6,0.1
	c0.5,0.1,1.1,0.2,1.6,0.4c2.9,0.8,4.5,3.8,3.7,6.7c0,0,0,0,0,0c-0.1,0.3-0.2,0.7-0.4,1l-0.2,0.6c-0.1,0.3-0.2,0.6-0.4,0.9
	s-0.3,0.6-0.5,0.9c-1.2,2.1-2.9,3.8-4.8,5.2c-2.1,1.6-4.6,2.4-7.2,2.4c-2,0.3-4.1-0.4-5.6-1.8c-0.9-1.1-1.4-2.4-1.3-3.8
	c0-0.7,0.1-1.3,0.3-2c0.1-0.6,0.3-1.2,0.5-1.8C196.8,525.3,196.9,525.1,197,524.9z M212,525.2c0.2-0.9,0.2-1.8,0.1-2.7
	c-0.2-0.7-0.5-1.3-1.1-1.8c-0.8-0.6-1.8-0.9-2.8-0.8c-1.9-0.1-3.9,0.6-5.3,1.8c-1.2,1.1-2.2,2.5-2.8,4.1c-0.6,1.3-0.5,2.8,0.2,4
	c0.6,0.9,1.6,1.5,2.7,1.7c0.2,0,0.4,0.1,0.6,0.1c0.2,0,0.4,0,0.6,0c1.6,0,3.1-0.6,4.3-1.6c1.3-0.9,2.3-2.2,3.1-3.5
	c0-0.1,0.1-0.3,0.2-0.4c0.1-0.1,0.1-0.3,0.2-0.4l0.2-0.5L212,525.2z"/>
<path class="st2" d="M233.4,502.2l-11.8,32.5h-3.5l11.8-32.5H233.4z"/>
<path class="st2" d="M244.5,502.2l-11.8,32.5h-3.5l11.8-32.5H244.5z"/>
<path class="st2" d="M263.4,517.1l-6.4,17.6h-3.6l1.1-2.9c-0.9,0.9-1.9,1.6-3,2.3c-1.3,0.7-2.8,1-4.3,0.9c-2,0.2-4-0.7-5.2-2.3
	c-0.9-2.2-0.9-4.6,0.2-6.7c0.9-2.8,2.7-5.3,5.1-7c1.9-1.5,4.2-2.4,6.6-2.5c0.4,0,0.9,0,1.3,0.1c0.5,0.1,0.9,0.2,1.3,0.4
	c0.6,0.2,1.1,0.6,1.5,1c0.5,0.5,0.8,1.1,0.9,1.7l1-2.6L263.4,517.1L263.4,517.1z M257,521.5c-0.4-1.2-1.5-1.8-3.4-1.8
	c-1.7,0-3.4,0.5-4.7,1.5c-1.5,1.2-2.6,2.9-3.2,4.7c-0.6,1.4-0.7,2.9-0.1,4.3c0.5,1.1,1.7,1.8,2.9,1.8c1.8,0,3.6-0.6,5-1.7
	c1.5-1.2,2.6-2.9,3.2-4.7C257.2,524.3,257.3,522.9,257,521.5L257,521.5z"/>
<path class="st2" d="M311.5,506.6l-1.2,3.3h-10l-2.7,7.4h9.7l-1.2,3.2h-9.7l-5.1,14.2h-3.5l10.2-28L311.5,506.6L311.5,506.6z"/>
<path class="st2" d="M329.4,517.3l-3.6,10c-0.8,2.1-2.1,4-3.7,5.6c-1.8,1.7-4.1,2.6-6.6,2.5c-1.8,0.1-3.5-0.6-4.7-1.9
	c-1.1-1.7-1.2-3.9-0.2-5.7l3.9-10.6h3.5l-3.6,9.8c-0.1,0.3-0.2,0.6-0.3,0.9c-0.1,0.3-0.1,0.6-0.1,0.9c-0.1,0.8,0,1.6,0.4,2.4
	c0.5,0.8,1.4,1.2,2.3,1.1c1.3,0.1,2.6-0.5,3.5-1.4c0.9-1,1.6-2.3,2.1-3.6l3.6-10L329.4,517.3z"/>
<path class="st2" d="M346.5,517.3h4.1l-9.8,7.3l4.6,10.1h-4.4l-3.4-7.9l-1.2,0.9l-2.6,7h-3.5l11.8-32.5h3.5l-7.8,21.6L346.5,517.3z"
	/>
<path class="st2" d="M369.8,517.3l-3.6,10c-0.8,2.1-2.1,4-3.7,5.6c-1.7,1.7-4.1,2.6-6.5,2.5c-1.8,0.1-3.5-0.6-4.7-1.9
	c-1.1-1.7-1.2-3.9-0.2-5.7l3.9-10.6h3.5l-3.6,9.8c-0.1,0.3-0.2,0.6-0.3,0.9c-0.3,1.1-0.2,2.3,0.2,3.3c0.5,0.8,1.4,1.2,2.3,1.1
	c1.3,0.1,2.6-0.5,3.5-1.4c0.9-1,1.6-2.3,2.1-3.6l3.7-10L369.8,517.3z"/>
<path class="st2" d="M372.6,524.9c0.1-0.2,0.2-0.4,0.3-0.7c1.1-2.1,2.7-3.9,4.6-5.3c2.2-1.6,4.9-2.4,7.6-2.4c0.5,0,1.1,0,1.6,0.1
	c0.5,0.1,1.1,0.2,1.6,0.4c2.9,0.8,4.5,3.8,3.7,6.7c0,0,0,0,0,0c-0.1,0.3-0.2,0.7-0.4,1l-0.2,0.6c-0.1,0.3-0.2,0.6-0.4,0.9
	s-0.3,0.6-0.5,0.9c-1.2,2.1-2.9,3.9-4.8,5.2c-2.1,1.6-4.6,2.4-7.2,2.4c-2,0.3-4.1-0.4-5.6-1.8c-0.9-1.1-1.4-2.4-1.3-3.8
	c0-0.7,0.1-1.3,0.3-2c0.1-0.6,0.3-1.2,0.5-1.8C372.4,525.3,372.5,525.1,372.6,524.9z M387.7,525.2c0.2-0.9,0.2-1.8,0.1-2.7
	c-0.2-0.7-0.5-1.3-1.1-1.8c-0.8-0.6-1.8-0.9-2.8-0.8c-1.9-0.1-3.9,0.6-5.3,1.8c-1.2,1.1-2.2,2.5-2.8,4.1c-0.5,1.3-0.4,2.8,0.2,4
	c0.6,0.9,1.6,1.5,2.7,1.7c0.2,0,0.4,0.1,0.6,0.1c0.2,0,0.4,0,0.5,0c1.6,0,3.1-0.6,4.3-1.6c1.3-0.9,2.3-2.2,3.1-3.5l0.2-0.4
	c0.1-0.1,0.1-0.3,0.2-0.4l0.2-0.5L387.7,525.2z"/>
<path class="st2" d="M409.6,517.3h4.1l-9.8,7.3l4.6,10.1h-4.4l-3.4-7.9l-1.2,0.9l-2.6,7h-3.5l11.8-32.5h3.5l-7.8,21.6L409.6,517.3z"
	/>
<path class="st2" d="M436.9,517.1l-6.4,17.6h-3.6l1.1-2.9c-0.9,0.9-1.9,1.6-3,2.2c-1.3,0.7-2.8,1-4.3,0.9c-2,0.2-4-0.7-5.2-2.3
	c-0.9-2.2-0.9-4.6,0.2-6.7c0.9-2.8,2.7-5.2,5.1-7c1.9-1.5,4.2-2.4,6.6-2.5c0.4,0,0.9,0,1.3,0.1c0.5,0.1,0.9,0.2,1.3,0.4
	c0.6,0.2,1.1,0.6,1.5,1c0.5,0.5,0.8,1.1,0.9,1.8l1-2.6L436.9,517.1L436.9,517.1z M430.5,521.5c-0.4-1.2-1.5-1.8-3.4-1.8
	c-1.7,0-3.4,0.5-4.7,1.5c-1.5,1.2-2.6,2.9-3.2,4.7c-0.6,1.4-0.6,2.9-0.1,4.3c0.5,1.1,1.7,1.8,2.9,1.8c1.8,0,3.6-0.6,5-1.7
	c1.5-1.2,2.6-2.9,3.2-4.7C430.7,524.4,430.8,522.9,430.5,521.5L430.5,521.5z"/>
<path class="st2" d="M513.5,506.6l-4.5,12.4l16.6-12.4h4.5l-17,12.7l7.4,15.3h-5l-5.9-13l-2,1.5l-4.2,11.5h-3.5l10.2-28L513.5,506.6
	L513.5,506.6z"/>
<path class="st2" d="M546.3,517.3l-3.7,10c-0.8,2.1-2.1,4-3.7,5.6c-1.7,1.7-4.1,2.6-6.5,2.5c-1.8,0.1-3.5-0.6-4.7-1.9
	c-1.1-1.7-1.2-3.9-0.2-5.7l3.9-10.6h3.5l-3.5,9.8c-0.1,0.3-0.2,0.6-0.3,0.9c-0.1,0.3-0.1,0.6-0.2,0.9c-0.1,0.8,0,1.6,0.4,2.4
	c0.5,0.8,1.4,1.2,2.3,1.1c1.3,0.1,2.6-0.5,3.5-1.4c0.9-1,1.7-2.3,2.1-3.6l3.7-10L546.3,517.3z"/>
<path class="st2" d="M555.8,519.9c0.9-0.9,1.9-1.7,3-2.2c0.9-0.4,1.8-0.7,2.8-0.7c0.3,0,0.5,0,0.8,0c0.3,0,0.6,0.1,0.9,0.1
	c0.2,0.1,0.3,0.1,0.5,0.2l0.5,0.2l-2.9,3.3c-0.2-0.2-0.3-0.3-0.5-0.4c-0.2-0.1-0.4-0.2-0.6-0.3c-0.1,0-0.3-0.1-0.4-0.1h-0.4
	c-1,0-2,0.4-2.8,1.1c-1.1,0.8-1.9,1.9-2.4,3.2l-3.8,10.2H547l6.3-17.3h3.5L555.8,519.9z"/>
<path class="st2" d="M583.6,517.3l-3.7,10c-0.8,2.1-2.1,4-3.7,5.6c-1.7,1.7-4.1,2.6-6.6,2.5c-1.8,0.1-3.5-0.6-4.7-1.9
	c-1.1-1.7-1.2-3.9-0.2-5.7l3.9-10.6h3.5l-3.6,9.8c-0.1,0.3-0.2,0.6-0.3,0.9c-0.1,0.3-0.1,0.6-0.2,0.9c-0.1,0.8,0,1.6,0.4,2.4
	c0.5,0.8,1.4,1.2,2.3,1.1c1.3,0.1,2.6-0.5,3.5-1.4c0.9-1,1.7-2.3,2.1-3.6l3.7-10L583.6,517.3z"/>
<path class="st2" d="M592.9,519.1c0.2-0.2,0.3-0.4,0.5-0.5c0.2-0.2,0.5-0.5,0.9-0.8c0.6-0.4,1.2-0.7,1.8-0.9
	c0.8-0.3,1.6-0.4,2.5-0.4h0.6c0.2,0,0.4,0,0.5,0.1c0.7,0.1,1.3,0.4,1.8,0.9c0.6,0.6,0.9,1.4,0.9,2.3c0.2-0.2,0.3-0.3,0.5-0.5
	c0.2-0.2,0.4-0.4,0.6-0.5c0.8-0.6,1.6-1.1,2.5-1.5c1-0.5,2-0.7,3.1-0.7h0.7c1.9,0.3,3,1.1,3.2,2.4c0.1,1.8-0.2,3.6-0.9,5.2
	l-3.9,10.6H605l3.9-10.6c0.4-1,0.6-2.1,0.4-3.2c-0.2-0.8-0.9-1.2-2.1-1.2c-1.1,0-2.3,0.3-3.2,1c-1.1,1-2,2.2-2.4,3.7l-3.7,10.3h-3.5
	l4.1-11.2c0.5-1.3,0.5-2.2,0.1-2.8c-0.4-0.5-0.9-0.9-1.6-0.9c-0.1,0-0.2,0-0.2,0h-0.6c-0.1,0-0.2,0-0.3,0c-0.9,0.1-1.8,0.5-2.5,1
	c-1,0.9-1.8,2-2.2,3.3l-3.8,10.6h-3.5l6.3-17.3h3.5L592.9,519.1z"/>
<path class="st2" d="M632.2,530.2l-0.7,0.7c-0.2,0.2-0.5,0.5-0.8,0.8c-1,0.9-2.2,1.7-3.5,2.4c-1.6,0.8-3.3,1.1-5.1,1.1
	c-2,0.2-3.9-0.8-4.8-2.6c-0.9-1.8-1-3.9-0.4-5.8c0-0.1,0-0.3,0.1-0.4l0.2-0.5c0-0.1,0-0.1,0.1-0.2c0-0.1,0.1-0.1,0.1-0.2
	c0-0.1,0-0.1,0.1-0.2l0.1-0.1c1.1-2.4,2.6-4.6,4.6-6.3c2-1.8,4.6-2.8,7.3-2.8c1.8-0.3,3.6,0.5,4.6,2c0.7,1.4,1,2.9,0.8,4.5
	c-0.1,0.5-0.2,1-0.3,1.5c-0.1,0.5-0.3,1-0.4,1.5l-0.3,0.8h-13.3c-0.6,1.3-0.6,2.8,0.1,4c0.7,1.1,1.9,1.8,3.2,1.7h0.5
	c0.2,0,0.3,0,0.5-0.1c0.9-0.2,1.8-0.5,2.5-1c0.9-0.6,1.7-1.3,2.3-2.1L632.2,530.2z M631.1,520.4c-0.6-0.9-1.6-1.5-2.7-1.3
	c-0.3,0-0.6,0-0.8,0.1c-0.3,0-0.6,0.1-0.9,0.2c-1,0.3-1.9,0.8-2.7,1.5c-1,0.8-1.8,1.8-2.3,3h9.8
	C631.7,522.7,631.6,521.5,631.1,520.4L631.1,520.4z"/>
<path class="st2" d="M673,506.6l-10.2,28h-3.5l10.2-28H673z"/>
<path class="st2" d="M680.1,517.3l-0.9,2.4c0.5-0.4,1-0.7,1.3-1s0.8-0.5,1.2-0.8c0.6-0.3,1.2-0.6,1.8-0.8c0.8-0.2,1.6-0.4,2.4-0.4
	c0.3,0,0.6,0,0.8,0c0.3,0,0.6,0.1,0.8,0.2c1,0.2,1.9,0.9,2.4,1.8c0.6,1.3,0.5,2.9-0.2,4.2l-4.3,11.8H682l4.3-11.8
	c0.3-0.7,0.3-1.5-0.2-2.2c-0.4-0.6-1.1-0.9-1.8-1h-0.7c-1.2,0-2.4,0.4-3.3,1.1c-1.3,1-2.2,2.3-2.7,3.8l-3.6,10.1h-3.5l6.3-17.3
	L680.1,517.3z"/>
<path class="st2" d="M721.3,501.9l-11.9,32.7h-3.2l1.1-2.9c-0.5,0.6-1.2,1.1-1.8,1.6c-0.6,0.4-1.1,0.8-1.8,1.1
	c-0.6,0.3-1.3,0.5-2,0.7c-0.5,0.1-1,0.2-1.5,0.2h-0.5c-1.7,0.2-3.4-0.5-4.4-1.8c-0.8-1.2-1.2-2.6-1.2-4c0-0.6,0-1.1,0.2-1.7
	c0.1-0.5,0.3-1.1,0.5-1.6c0.9-2.8,2.6-5.3,5-7.2c1.8-1.4,4-2.3,6.2-2.6h1.6c0.3,0,0.6,0.1,0.9,0.2c0.7,0.2,1.4,0.5,2,1
	c0.6,0.5,1,1.2,1.1,2l6.5-17.8h3.5L721.3,501.9z M709.5,521.1c-0.5-1.1-1.6-1.7-3.4-1.7c-1.6,0-3.2,0.5-4.5,1.6
	c-1.2,1-2.2,2.2-2.9,3.6c-0.2,0.3-0.3,0.5-0.4,0.8l-0.3,0.8c-0.1,0.4-0.2,0.8-0.3,1.2c-0.1,0.4-0.1,0.9-0.1,1.3
	c0,0.9,0.2,1.8,0.8,2.5c0.7,0.9,1.9,1.3,3,1.2c1.6,0,3.1-0.5,4.2-1.5c1.1-1,2-2.1,2.7-3.4c0.2-0.3,0.3-0.6,0.5-0.9
	c0.1-0.3,0.2-0.5,0.3-0.8C709.8,524.3,710,522.6,709.5,521.1z"/>
<path class="st2" d="M737.9,517.3l-3.7,10c-0.8,2.1-2.1,4-3.7,5.6c-1.7,1.7-4.1,2.6-6.6,2.5c-1.8,0.1-3.5-0.6-4.7-1.9
	c-1.1-1.7-1.2-3.9-0.2-5.7l3.9-10.6h3.5l-3.6,9.8c-0.1,0.3-0.2,0.6-0.3,0.9c-0.1,0.3-0.1,0.6-0.2,0.9c-0.1,0.8,0,1.6,0.4,2.4
	c0.5,0.8,1.4,1.2,2.3,1.1c1.3,0.1,2.6-0.5,3.5-1.4c0.9-1,1.7-2.3,2.1-3.6l3.6-10L737.9,517.3z"/>
<path class="st2" d="M750.8,520.1c-0.2-0.2-0.5-0.4-0.8-0.5l-0.3-0.1h-0.5h-0.2c-0.4,0.1-0.8,0.3-1.2,0.5c-0.4,0.2-0.7,0.6-0.8,1
	v0.1l0,0c0,0,0,0.1,0,0.1v0.1c-0.2,0.5-0.1,1.1,0.3,1.4c0.5,0.4,1,0.7,1.5,1c0.2,0.1,0.4,0.2,0.6,0.3c0.2,0.1,0.4,0.2,0.6,0.3
	c0.8,0.5,1.6,1.1,2.2,1.8c0.6,1,0.6,2.3,0.1,3.4c0,0.1-0.1,0.2-0.2,0.3c-0.1,0.1-0.1,0.2-0.2,0.3c-0.8,1.4-2,2.5-3.4,3.3
	c-1.3,0.9-2.9,1.4-4.6,1.5c-1.2,0.1-2.4-0.2-3.4-0.9c-0.6-0.6-1-1.3-1.2-2.1c-0.1-0.1-0.1-0.2-0.1-0.3c0-0.1,0-0.3,0-0.4l3.4-1.5
	c-0.1,0.6,0.2,1.1,0.6,1.5c0.4,0.4,1,0.6,1.6,0.7c0.1,0,0.1,0,0.2,0h0.2c0.6,0,1.3-0.2,1.8-0.5c0.6-0.3,1.1-0.8,1.4-1.4l0.1-0.2
	c0-0.1,0.1-0.2,0.1-0.4c0-0.1,0-0.2,0-0.4c-0.1-0.4-0.3-0.8-0.6-1.2c-0.4-0.4-0.7-0.7-1.1-1.1c-0.2-0.1-0.3-0.2-0.5-0.3l-0.5-0.3
	l-0.1-0.1h-0.2c-0.9-0.4-1.7-1.1-2.2-2c-0.3-1-0.3-2.1,0.2-3c0-0.1,0.1-0.2,0.1-0.3c0-0.1,0.1-0.2,0.2-0.3c0.6-1.1,1.4-2,2.4-2.6
	c1.1-0.8,2.5-1.2,3.9-1.2c1-0.1,1.9,0.2,2.8,0.6c0.7,0.5,1.1,1.2,1.3,2l-3.2,1.5C751.2,520.6,751,520.3,750.8,520.1z"/>
<path class="st2" d="M765.3,510.7h3.3l-2.4,6.5h3.5l-1.2,3.2H765l-5.2,14.2h-3.3l5.2-14.2h-2l1.2-3.2h2L765.3,510.7z"/>
<path class="st2" d="M776.4,519.9c0.9-0.9,1.9-1.7,3-2.2c0.9-0.4,1.8-0.7,2.8-0.7c0.3,0,0.5,0,0.8,0c0.3,0,0.6,0.1,0.9,0.1
	c0.2,0.1,0.3,0.1,0.5,0.2l0.5,0.2l-2.9,3.3c-0.2-0.2-0.3-0.3-0.5-0.4c-0.2-0.1-0.4-0.2-0.7-0.3c-0.1,0-0.3-0.1-0.4-0.1H780
	c-1,0.1-2,0.4-2.8,1.1c-1.1,0.8-1.9,1.9-2.3,3.2l-3.8,10.3h-3.5l6.3-17.3h3.5L776.4,519.9z"/>
<path class="st2" d="M796.8,507.6c0.2,0.3,0.3,0.6,0.3,0.9c0,0.1,0,0.2,0,0.4c0,0.1-0.1,0.3-0.1,0.4c-0.3,0.6-0.7,1.1-1.2,1.5
	c-0.4,0.4-1,0.6-1.6,0.6c-0.8,0-1.2-0.2-1.4-0.7c-0.2-0.5-0.2-1,0-1.5c0.2-0.6,0.6-1.1,1.1-1.5c0.5-0.5,1.2-0.7,1.9-0.7
	C796.2,507,796.6,507.2,796.8,507.6z M793.8,517.3l-6.3,17.3H784l6.3-17.3H793.8z"/>
<path class="st2" d="M819.2,517.1l-6.4,17.6h-3.6l1.1-2.9c-0.9,0.9-1.9,1.6-3,2.2c-1.3,0.7-2.8,1-4.3,0.9c-2,0.2-4-0.7-5.2-2.3
	c-0.9-2.2-0.9-4.6,0.2-6.7c0.9-2.8,2.7-5.2,5.1-7c1.9-1.5,4.2-2.4,6.6-2.5c0.4,0,0.9,0,1.3,0.1c0.5,0.1,0.9,0.2,1.3,0.4
	c0.6,0.2,1.1,0.6,1.5,1c0.5,0.5,0.8,1.1,0.9,1.8l1-2.6L819.2,517.1L819.2,517.1z M812.8,521.5c-0.4-1.2-1.5-1.8-3.4-1.8
	c-1.7,0-3.4,0.5-4.7,1.5c-1.5,1.2-2.6,2.9-3.2,4.7c-0.6,1.4-0.6,2.9-0.1,4.3c0.5,1.1,1.7,1.8,2.9,1.8c1.8,0,3.6-0.6,5-1.7
	c1.5-1.2,2.6-2.9,3.2-4.7C813,524.4,813.1,522.9,812.8,521.5L812.8,521.5z"/>
<path class="st2" d="M835,502.2l-11.8,32.5h-3.5l11.8-32.5H835z"/>
<path class="st2" d="M875.3,532.9c-0.7,0.4-1.4,0.7-2.2,1c-0.7,0.3-1.5,0.5-2.2,0.7c-1,0.2-1.9,0.4-2.8,0.5
	c-0.8,0.1-1.5,0.2-2.3,0.2c-3,0.3-5.9-1-7.7-3.4c-1.5-2.2-2.1-4.9-1.8-7.5c0.1-0.6,0.2-1.2,0.3-1.8c0.1-0.6,0.3-1.1,0.5-1.7
	c0,0,0-0.1,0-0.1c0,0,0.1-0.1,0.1-0.1v-0.1c0-0.1,0.1-0.1,0.1-0.2c0,0,0-0.1,0.1-0.1c1.2-3.3,3.2-6.2,5.8-8.5
	c2.1-1.8,4.5-3.3,7.1-4.5c1.3-0.5,2.6-0.9,4-1.2c1-0.2,2-0.3,3-0.4c1.4,0,2.8,0.1,4.2,0.5c1.1,0.3,2,0.7,2.9,1.4l-1.5,4.1
	c-0.4-0.4-0.8-0.7-1.2-1c-0.4-0.3-0.8-0.6-1.3-0.8c-0.6-0.3-1.3-0.6-2-0.8c-0.7-0.2-1.4-0.2-2.2-0.2c-3.4,0.1-6.7,1.3-9.3,3.5
	c-2.8,2-4.9,4.7-6.2,7.8c-1.4,2.7-1.2,5.9,0.4,8.5c1.6,2.1,4.1,3.3,6.7,3.2c0.3,0,0.7,0,1,0c0.4,0,0.7-0.1,1.1-0.2
	c1.1-0.2,2.2-0.5,3.2-0.9c1.2-0.4,2.3-1,3.3-1.7L875.3,532.9z"/>
<path class="st2" d="M883,524.9c0.1-0.2,0.2-0.4,0.3-0.7c1.1-2.1,2.7-3.9,4.6-5.3c2.2-1.6,4.9-2.4,7.6-2.4c0.5,0,1.1,0,1.6,0.1
	c0.5,0.1,1.1,0.2,1.6,0.4c1.3,0.4,2.4,1.3,3.2,2.5c0.8,1.6,0.9,3.6,0.1,5.2l-0.2,0.6c-0.1,0.3-0.2,0.6-0.3,0.9l-0.5,0.9
	c-1.2,2.1-2.9,3.9-4.8,5.2c-2.1,1.6-4.6,2.4-7.2,2.4c-2,0.3-4.1-0.4-5.6-1.8c-0.9-1.1-1.4-2.4-1.3-3.8c0-0.7,0.1-1.3,0.3-2
	c0.1-0.6,0.3-1.2,0.5-1.8C882.7,525.4,882.8,525.1,883,524.9z M898,525.2c0.2-0.9,0.2-1.8,0.1-2.7c-0.2-0.7-0.5-1.3-1.1-1.8
	c-0.8-0.6-1.8-0.9-2.8-0.8c-1.9-0.1-3.9,0.6-5.3,1.8c-1.3,1.1-2.2,2.5-2.8,4.1c-0.5,1.3-0.5,2.8,0.2,4c0.6,0.9,1.6,1.5,2.7,1.7
	c0.2,0,0.4,0.1,0.6,0.1c0.2,0,0.4,0,0.6,0c1.6,0,3.1-0.6,4.3-1.6c1.3-0.9,2.3-2.2,3-3.5c0-0.1,0.1-0.3,0.2-0.4l0.2-0.4l0.2-0.5
	L898,525.2z"/>
<path class="st2" d="M919.2,502.2l-11.8,32.5H904l11.8-32.5H919.2z"/>
<path class="st2" d="M930.2,502.2l-11.8,32.5h-3.5l11.8-32.5H930.2z"/>
<path class="st2" d="M942.5,530.2l-0.7,0.7c-0.2,0.2-0.5,0.5-0.8,0.8c-1,0.9-2.2,1.7-3.5,2.4c-1.6,0.8-3.3,1.1-5.1,1.1
	c-2,0.2-3.9-0.8-4.8-2.6c-0.9-1.8-1-3.9-0.4-5.8c0-0.1,0.1-0.3,0.1-0.4c0-0.2,0.1-0.3,0.2-0.5c0,0,0-0.1,0-0.2
	c0-0.1,0.1-0.1,0.1-0.2c0-0.1,0-0.1,0.1-0.2c0,0,0-0.1,0-0.1c1.1-2.4,2.6-4.6,4.6-6.3c2-1.8,4.6-2.8,7.3-2.8c1.8-0.3,3.6,0.5,4.6,2
	c0.7,1.4,1,2.9,0.8,4.5c-0.1,0.5-0.2,1-0.3,1.5c-0.1,0.5-0.3,1-0.4,1.5l-0.3,0.8H931c-0.6,1.3-0.6,2.8,0.1,4
	c0.7,1.1,1.9,1.6,3.2,1.5h0.5c0.2,0,0.3,0,0.5-0.1c0.9-0.2,1.8-0.5,2.5-1c0.9-0.6,1.7-1.3,2.3-2.1L942.5,530.2z M941.3,520.4
	c-0.6-0.9-1.6-1.5-2.7-1.3c-0.3,0-0.6,0-0.8,0.1c-0.3,0-0.6,0.1-0.9,0.2c-1,0.3-1.9,0.8-2.7,1.5c-1,0.8-1.8,1.8-2.3,3h9.8
	C942,522.7,941.9,521.4,941.3,520.4L941.3,520.4z"/>
<path class="st2" d="M966.2,517.3h3.6l-6.3,17.3c-0.8,3.1-2.6,5.8-5.1,7.8c-1.7,1.2-3.8,1.9-5.8,2.1H951c-2,0.2-4-0.6-5.2-2.2
	c-1-1.8-1-3.9-0.1-5.8h3.2c-0.1,0.3-0.2,0.6-0.3,1c-0.1,0.4-0.1,0.8-0.1,1.2c0,0.7,0.3,1.5,0.8,2c0.9,0.7,2.1,1,3.2,0.9h0.3
	c0.1,0,0.2,0,0.4,0c1.2-0.1,2.4-0.6,3.4-1.2c1.3-0.9,2.2-2.2,2.7-3.7l1.6-4.3l-0.5,0.5c-0.2,0.2-0.4,0.3-0.5,0.5
	c-0.7,0.6-1.5,1-2.4,1.3c-1.3,0.4-2.7,0.6-4.2,0.6c-2,0.2-3.9-0.8-4.7-2.6c-0.8-2.3-0.7-4.8,0.3-7c0-0.1,0.1-0.2,0.1-0.3
	c0-0.1,0.1-0.2,0.1-0.3c1.1-2.3,2.6-4.3,4.6-5.9c1.9-1.7,4.4-2.6,7-2.7c0.4,0,0.9,0.1,1.3,0.2c0.5,0.2,1,0.3,1.4,0.6
	c0.5,0.3,0.8,0.7,1.2,1.1c0.4,0.5,0.6,1.1,0.7,1.7L966.2,517.3z M963.8,521.5c-0.4-0.9-1.1-1.6-2-1.9c-0.2-0.1-0.5-0.1-0.8-0.2
	c-0.3,0-0.5-0.1-0.8-0.1c-1.9,0-3.7,0.7-5,2c-1.4,1.2-2.4,2.7-3.1,4.4v0.2c0,0,0,0,0,0.1v0.1c-0.5,1.4-0.6,2.9-0.1,4.3
	c0.5,1.4,1.9,2.2,3.3,2c1.6,0,3.2-0.5,4.5-1.4c1.6-1,2.8-2.6,3.4-4.4l0.2-0.7C964.1,524.5,964.2,522.9,963.8,521.5L963.8,521.5z"/>
<path class="st2" d="M987.1,530.2l-0.7,0.7c-0.2,0.2-0.5,0.5-0.8,0.8c-1,0.9-2.2,1.7-3.4,2.4c-1.6,0.8-3.4,1.1-5.1,1.1
	c-2,0.2-3.9-0.8-4.8-2.6c-0.9-1.8-1-3.9-0.4-5.8c0-0.1,0.1-0.3,0.1-0.4c0-0.2,0.1-0.3,0.2-0.5c0,0,0-0.1,0-0.2
	c0-0.1,0.1-0.1,0.1-0.2c0-0.1,0-0.1,0.1-0.2l0.1-0.1c1.1-2.4,2.6-4.6,4.6-6.3c2-1.8,4.6-2.8,7.3-2.8c1.8-0.3,3.6,0.5,4.7,2
	c0.7,1.4,1,2.9,0.8,4.5c-0.1,0.5-0.2,1-0.3,1.5c-0.1,0.5-0.3,1-0.4,1.5l-0.3,0.8h-13.2c-0.6,1.3-0.6,2.8,0.1,4
	c0.7,1.1,1.9,1.6,3.2,1.5h0.5c0.2,0,0.3,0,0.5-0.1c0.9-0.2,1.8-0.5,2.5-1c0.9-0.6,1.7-1.3,2.4-2.1L987.1,530.2z M986,520.4
	c-0.6-0.9-1.6-1.5-2.7-1.3c-0.3,0-0.5,0-0.8,0.1c-0.3,0.1-0.6,0.1-0.9,0.2c-1,0.3-1.9,0.8-2.7,1.5c-1,0.8-1.8,1.8-2.3,3h9.8
	C986.6,522.7,986.5,521.5,986,520.4z"/>
<path class="st2" d="M1016.3,524.9c0.1-0.2,0.2-0.4,0.3-0.7c1.1-2.1,2.7-3.9,4.6-5.3c2.2-1.6,4.9-2.4,7.6-2.4c0.5,0,1.1,0,1.6,0.1
	c0.5,0.1,1.1,0.2,1.6,0.4c2.9,0.8,4.5,3.8,3.7,6.6c0,0,0,0,0,0c-0.1,0.4-0.3,0.8-0.4,1.1l-0.2,0.6c-0.1,0.3-0.2,0.6-0.4,0.9
	c-0.1,0.3-0.3,0.6-0.5,0.9c-1.2,2.1-2.9,3.9-4.8,5.2c-2.1,1.6-4.6,2.4-7.2,2.4c-2,0.3-4.1-0.4-5.6-1.8c-0.9-1.1-1.4-2.4-1.3-3.8
	c0-0.7,0.1-1.3,0.3-2c0.1-0.6,0.3-1.2,0.5-1.8C1016.1,525.4,1016.2,525.1,1016.3,524.9z M1031.4,525.2c0.2-0.9,0.2-1.8,0.1-2.7
	c-0.2-0.7-0.5-1.3-1.1-1.8c-0.8-0.6-1.8-0.9-2.8-0.8c-1.9-0.1-3.8,0.6-5.3,1.8c-1.3,1.1-2.2,2.5-2.8,4.1c-0.5,1.3-0.5,2.8,0.3,4
	c0.6,0.9,1.6,1.5,2.7,1.7c0.2,0,0.4,0.1,0.6,0.1c0.2,0,0.4,0,0.5,0c1.6,0,3.1-0.6,4.3-1.6c1.3-0.9,2.3-2.2,3.1-3.5
	c0-0.1,0.1-0.3,0.2-0.4s0.1-0.3,0.2-0.4l0.2-0.5L1031.4,525.2z"/>
<path class="st2" d="M1041.4,520.2l1.1-2.9h1.5l3.1-8.6c0.1-0.4,0.3-0.9,0.5-1.4c0.2-0.6,0.5-1.2,0.9-1.8c0.6-1.1,1.4-2,2.4-2.8
	c1.1-0.9,2.5-1.3,3.9-1.2c0.3,0,0.7,0,1,0.1c0.4,0,0.8,0.1,1.2,0.2c0.1,0,0.2,0,0.3,0l0.2,0.1l-1.3,3.5c-0.1-0.1-0.2-0.2-0.4-0.3
	c-0.1-0.1-0.3-0.1-0.4-0.2l-0.7-0.2c-0.2-0.1-0.4-0.1-0.6-0.1c-0.7,0-1.5,0.3-2,0.9c-0.8,0.7-1.3,1.6-1.7,2.6l-3.4,9.2h4.8l-1.1,2.9
	h-4.8l-5.3,14.4h-3.2l5.2-14.4L1041.4,520.2L1041.4,520.2z"/>
<path class="st2" d="M1095.8,534.6h-3.8l-0.7-7h-12.7l-5.8,7h-3.8l24-29.5L1095.8,534.6z M1081,524.3h10.1l-0.9-11.2L1081,524.3z"/>
<path class="st2" d="M1121.9,517.3l-3.7,10c-0.8,2.1-2.1,4-3.7,5.6c-1.7,1.7-4.1,2.6-6.6,2.5c-1.8,0.1-3.5-0.6-4.7-1.9
	c-1.1-1.7-1.2-3.9-0.2-5.7l3.9-10.6h3.5l-3.6,9.8c-0.1,0.3-0.2,0.6-0.3,0.9c-0.1,0.3-0.1,0.6-0.2,0.9c-0.1,0.8,0,1.6,0.4,2.4
	c0.5,0.8,1.4,1.2,2.3,1.1c1.3,0.1,2.6-0.5,3.5-1.4c0.9-1,1.7-2.3,2.1-3.6l3.7-10L1121.9,517.3z"/>
<path class="st2" d="M1132.2,510.7h3.3l-2.4,6.5h3.6l-1.2,3.2h-3.6l-5.1,14.2h-3.2l5.2-14.2h-2l1.2-3.2h2L1132.2,510.7z"/>
<path class="st2" d="M1136.8,524.9l0.3-0.7c1.1-2.1,2.7-3.9,4.6-5.3c2.2-1.6,4.9-2.4,7.6-2.4c0.5,0,1.1,0,1.6,0.1
	c0.5,0.1,1.1,0.2,1.6,0.4c2.9,0.8,4.5,3.8,3.7,6.6c0,0,0,0,0,0c-0.1,0.4-0.3,0.8-0.4,1.1l-0.2,0.6c-0.1,0.3-0.2,0.6-0.4,0.9
	s-0.3,0.6-0.5,0.9c-1.2,2.1-2.9,3.9-4.8,5.2c-2.1,1.6-4.6,2.4-7.2,2.4c-2,0.3-4.1-0.4-5.6-1.8c-0.9-1.1-1.4-2.4-1.3-3.8
	c0-0.7,0.1-1.3,0.3-2c0.1-0.6,0.3-1.2,0.5-1.8C1136.6,525.4,1136.7,525.2,1136.8,524.9z M1151.8,525.2c0.2-0.9,0.2-1.8,0.1-2.7
	c-0.1-0.7-0.5-1.3-1-1.8c-0.8-0.6-1.8-0.9-2.8-0.8c-1.9-0.1-3.9,0.6-5.3,1.8c-1.2,1.1-2.2,2.5-2.8,4.1c-0.6,1.3-0.5,2.8,0.2,4
	c0.6,0.9,1.6,1.5,2.7,1.7c0.2,0,0.4,0.1,0.6,0.1c0.2,0,0.4,0,0.6,0c1.6,0,3.1-0.6,4.3-1.6c1.3-0.9,2.3-2.2,3-3.5
	c0-0.1,0.1-0.3,0.2-0.4s0.1-0.3,0.2-0.4l0.2-0.5L1151.8,525.2z"/>
<path class="st2" d="M1166.3,519.1c0.1-0.1,0.3-0.3,0.5-0.5s0.5-0.5,0.9-0.8c0.6-0.4,1.2-0.7,1.8-0.9c0.8-0.3,1.6-0.4,2.5-0.4h0.6
	c0.2,0,0.4,0,0.6,0.1c0.7,0.1,1.3,0.4,1.8,0.9c0.6,0.6,0.9,1.4,0.9,2.3c0.2-0.2,0.3-0.3,0.5-0.5s0.4-0.4,0.6-0.5
	c0.8-0.6,1.6-1.1,2.5-1.5c1-0.5,2-0.7,3.1-0.7h0.7c1.9,0.3,3,1.1,3.2,2.4c0.1,1.8-0.2,3.6-0.9,5.2l-3.9,10.6h-3.2l3.9-10.6
	c0.4-1,0.6-2.1,0.4-3.2c-0.2-0.8-0.9-1.2-2.1-1.2c-1.1,0-2.3,0.3-3.2,1c-1.1,1-2,2.2-2.4,3.7l-3.8,10.3h-3.6l4.1-11.2
	c0.5-0.9,0.5-1.9,0.1-2.8c-0.4-0.5-1-0.9-1.6-0.9c-0.1,0-0.2,0-0.2,0h-0.6c-0.1,0-0.2,0-0.3,0c-0.9,0.1-1.8,0.5-2.5,1
	c-1,0.9-1.8,2-2.2,3.3l-3.9,10.6h-3.5l6.3-17.3h3.5L1166.3,519.1z"/>
<path class="st2" d="M1191.1,524.9l0.3-0.7c1.1-2.1,2.7-3.9,4.6-5.2c2.2-1.6,4.9-2.4,7.6-2.4c0.5,0,1.1,0,1.6,0.1
	c0.5,0.1,1.1,0.2,1.6,0.4c2.9,0.8,4.5,3.8,3.7,6.6c0,0,0,0,0,0c-0.1,0.4-0.3,0.8-0.4,1.1l-0.2,0.6c-0.1,0.3-0.2,0.6-0.4,0.9
	s-0.3,0.6-0.5,0.9c-1.2,2.1-2.9,3.9-4.8,5.2c-2.1,1.6-4.6,2.4-7.2,2.4c-2,0.3-4.1-0.4-5.6-1.8c-0.9-1.1-1.4-2.4-1.3-3.8
	c0-0.7,0.1-1.3,0.3-2c0.2-0.7,0.3-1.2,0.5-1.8C1190.9,525.4,1191,525.1,1191.1,524.9z M1206.1,525.2c0.2-0.9,0.2-1.8,0.1-2.7
	c-0.2-0.7-0.5-1.3-1.1-1.8c-0.8-0.6-1.8-0.9-2.8-0.8c-1.9-0.1-3.9,0.6-5.3,1.8c-1.3,1.1-2.2,2.5-2.8,4.1c-0.5,1.3-0.4,2.8,0.3,4
	c0.6,0.9,1.6,1.5,2.7,1.7c0.2,0,0.4,0.1,0.6,0.1c0.2,0,0.4,0,0.6,0c1.6,0,3.1-0.6,4.3-1.6c1.3-0.9,2.3-2.2,3.1-3.5
	c0-0.1,0.1-0.3,0.2-0.4c0.1-0.1,0.1-0.3,0.2-0.4l0.2-0.5L1206.1,525.2z"/>
<path class="st2" d="M1223.8,501.9h3.5l-6.5,17.8c0.8-0.7,1.7-1.4,2.6-1.9c0.9-0.5,1.8-0.8,2.8-1.1c0.3-0.1,0.6-0.2,0.9-0.2h0.8
	c0.5,0,1,0,1.5,0.1c0.5,0.1,1.1,0.2,1.6,0.4c1.2,0.5,2.2,1.5,2.8,2.7c0.7,1.8,0.6,3.8-0.3,5.6c-0.8,2.4-2.1,4.6-3.9,6.3
	c-1.3,1.3-2.9,2.3-4.6,3c-0.7,0.2-1.3,0.4-2,0.5c-0.5,0.1-1.1,0.2-1.7,0.2c-1.2,0.1-2.4-0.3-3.5-0.9c-0.8-0.6-1.3-1.4-1.6-2.2
	l-1,2.6h-3.5L1223.8,501.9z M1229.9,521.3c-0.4-1.1-1.6-1.7-3.5-1.7c-1.7,0-3.3,0.6-4.6,1.7c-1.5,1.2-2.6,2.8-3.2,4.6
	c-0.1,0.4-0.3,0.8-0.3,1.1c-0.1,0.4-0.2,0.9-0.2,1.3c-0.1,1,0.1,1.9,0.5,2.8c0.4,0.8,1.5,1.3,3,1.3c1.7,0,3.4-0.7,4.7-1.9
	c1.6-1.4,2.8-3.2,3.5-5.2C1230.2,524,1230.3,522.6,1229.9,521.3L1229.9,521.3z"/>
<path class="st2" d="M1249.6,507.6c0.2,0.3,0.3,0.6,0.3,0.9c0,0.1,0,0.2,0,0.4c0,0.1-0.1,0.3-0.1,0.4c-0.3,0.6-0.7,1.1-1.2,1.5
	c-0.4,0.4-1,0.6-1.6,0.6c-0.8,0-1.2-0.2-1.4-0.7c-0.2-0.5-0.2-1,0-1.5c0.2-0.6,0.6-1.1,1.1-1.5c0.5-0.5,1.2-0.7,1.9-0.7
	C1249,507,1249.3,507.2,1249.6,507.6z M1246.6,517.3l-6.3,17.3h-3.5l6.3-17.3H1246.6L1246.6,517.3z"/>
<path class="st2" d="M1264.2,502.2l-11.8,32.5h-3.5l11.8-32.5H1264.2z"/>
<path class="st2" d="M1276.6,530.2l-0.7,0.7c-0.2,0.2-0.5,0.5-0.8,0.8c-1,0.9-2.2,1.7-3.4,2.4c-1.6,0.8-3.3,1.1-5.1,1.1
	c-2,0.2-3.9-0.8-4.8-2.6c-0.9-1.8-1-3.9-0.4-5.8c0-0.1,0-0.3,0.1-0.4l0.2-0.5c0-0.1,0-0.1,0.1-0.2c0-0.1,0.1-0.1,0.1-0.2
	c0-0.1,0-0.1,0.1-0.2l0.1-0.1c1-2.4,2.6-4.6,4.6-6.3c2-1.8,4.6-2.8,7.3-2.8c1.8-0.3,3.6,0.5,4.6,2c0.7,1.4,1,2.9,0.8,4.5
	c-0.1,0.5-0.2,1-0.3,1.5c-0.1,0.5-0.3,1-0.4,1.5l-0.3,0.8h-13.2c-0.6,1.3-0.6,2.8,0.1,4c0.7,1.1,1.9,1.6,3.2,1.5h0.5
	c0.2,0,0.3,0,0.5-0.1c0.9-0.2,1.8-0.5,2.5-1c0.9-0.6,1.7-1.3,2.4-2.1L1276.6,530.2z M1275.5,520.4c-0.6-0.9-1.6-1.5-2.7-1.3
	c-0.3,0-0.6,0-0.8,0.1c-0.3,0.1-0.6,0.1-0.9,0.2c-1,0.3-1.9,0.8-2.7,1.5c-1,0.8-1.8,1.8-2.3,3h9.8
	C1276.1,522.7,1276,521.5,1275.5,520.4L1275.5,520.4z"/>
<line class="st21" x1="451.4" y1="534" x2="489.6" y2="506"/>
<line class="st21" x1="479.4" y1="534" x2="461.6" y2="506"/>
</svg>
