<svg xmlns="http://www.w3.org/2000/svg" xmlns:xlink="http://www.w3.org/1999/xlink" viewBox="0 0 1540.04 696.34"><defs><style>.a,.b,.v{fill:none;}.a{stroke:#ed7700;}.a,.v{stroke-miterlimit:10;stroke-width:0.32px;}.b,.v{stroke:#fff;}.b{stroke-width:0.5px;}.c{fill:#fff;}.d{fill:url(#a);}.e{fill:url(#b);}.f{fill:url(#c);}.g{fill:url(#d);}.h{fill:url(#e);}.i{fill:url(#f);}.j{fill:url(#g);}.k{fill:url(#h);}.l{fill:url(#i);}.m{fill:url(#j);}.n{fill:url(#k);}.o{fill:url(#l);}.p{fill:url(#m);}.q{fill:url(#n);}.r{fill:url(#o);}.s{fill:url(#p);}.t{fill:url(#q);}.u{fill:url(#r);}</style><linearGradient id="a" x1="-2713.5" y1="2056.16" x2="-2713.5" y2="2049.44" gradientTransform="matrix(11.02, 0, 0, -19.22, 29997.43, 40095.43)" gradientUnits="userSpaceOnUse"><stop offset="0" stop-color="#ed7700"/><stop offset="1" stop-color="#ffe200"/></linearGradient><linearGradient id="b" x1="-2707.93" y1="2056.16" x2="-2707.93" y2="2049.44" gradientTransform="matrix(11.39, 0, 0, -19.22, 30998.87, 40095.08)" xlink:href="#a"/><linearGradient id="c" x1="-2704.4" y1="2056.13" x2="-2704.4" y2="2049.41" gradientTransform="matrix(10.66, 0, 0, -19.21, 29046.1, 40069.17)" xlink:href="#a"/><linearGradient id="d" x1="-2699.92" y1="2056.13" x2="-2699.92" y2="2049.41" gradientTransform="matrix(10.65, 0, 0, -19.21, 29034.37, 40069.19)" xlink:href="#a"/><linearGradient id="e" x1="-2690.65" y1="2056.13" x2="-2690.65" y2="2049.41" gradientTransform="matrix(11.01, 0, 0, -19.21, 30032.59, 40057.27)" xlink:href="#a"/><linearGradient id="f" x1="-2685.85" y1="2056.16" x2="-2685.85" y2="2049.44" gradientTransform="matrix(11.39, 0, 0, -19.22, 31042.85, 40095.08)" xlink:href="#a"/><linearGradient id="g" x1="-2681.38" y1="2056.16" x2="-2681.38" y2="2049.44" gradientTransform="matrix(10.64, 0, 0, -19.23, 29058.99, 40102.57)" xlink:href="#a"/><linearGradient id="h" x1="-2675.88" y1="2056.13" x2="-2675.88" y2="2049.41" gradientTransform="matrix(10.1, 0, 0, -19.21, 27606.66, 40057.68)" xlink:href="#a"/><linearGradient id="i" x1="-2672.75" y1="2056.16" x2="-2672.75" y2="2049.44" gradientTransform="matrix(10.65, 0, 0, -19.23, 29088.44, 40108.68)" xlink:href="#a"/><linearGradient id="j" x1="-2668.57" y1="2056.13" x2="-2668.57" y2="2049.41" gradientTransform="matrix(11.01, 0, 0, -19.21, 30072.44, 40057.27)" xlink:href="#a"/><linearGradient id="k" x1="-2664.49" y1="2056.16" x2="-2664.49" y2="2049.44" gradientTransform="matrix(11.39, 0, 0, -19.22, 31085.4, 40095.08)" xlink:href="#a"/><linearGradient id="l" x1="-2654.59" y1="2056.13" x2="-2654.59" y2="2049.42" gradientTransform="matrix(11.02, 0, 0, -19.21, 30107.27, 40059.06)" xlink:href="#a"/><linearGradient id="m" x1="-2649.81" y1="2056.13" x2="-2649.81" y2="2049.41" gradientTransform="matrix(11.01, 0, 0, -19.21, 30105.89, 40057.27)" xlink:href="#a"/><linearGradient id="n" x1="-2643.51" y1="2056.16" x2="-2643.51" y2="2049.44" gradientTransform="matrix(10.65, 0, 0, -19.23, 29135.81, 40108.82)" xlink:href="#a"/><linearGradient id="o" x1="-2640.23" y1="2056.16" x2="-2640.23" y2="2049.45" gradientTransform="matrix(11.01, 0, 0, -19.23, 30133.39, 40104.28)" xlink:href="#a"/><linearGradient id="p" x1="-2637.22" y1="2056.16" x2="-2637.22" y2="2049.44" gradientTransform="matrix(11.39, 0, 0, -19.22, 31142.38, 40095.08)" xlink:href="#a"/><linearGradient id="q" x1="-2629.4" y1="2056.16" x2="-2629.4" y2="2049.45" gradientTransform="matrix(10.65, 0, 0, -19.23, 29164.97, 40106.22)" xlink:href="#a"/><linearGradient id="r" x1="-2620.83" y1="2056.13" x2="-2620.83" y2="2049.41" gradientTransform="matrix(10.1, 0, 0, -19.21, 27709.3, 40057.68)" xlink:href="#a"/></defs><path class="a" d="M.76,696.89,1540,.85H1218.6" transform="translate(-0.69 -0.69)"/><path class="b" d="M373.53,268.67a126,126,0,0,0,15.3-.55c1.69,0,3.74-.28,5.38-.28,4.48,0,6.87,4.19,8.82,7.27,2.77,3.9,4.74,6.16,3.52,9.5s-4.66,6.72-11.1,19C362.61,365.43,331,409.88,266.11,451.56c-7.33,4.76-35.55,22.37-42,22.37-6.15,0-13.67-16.23-12-20.7,1.11-3.07,7.25-5.31,10.26-6.71a285.71,285.71,0,0,0,59.3-36.91,279,279,0,0,0,56.42-61.24,277.26,277.26,0,0,0,24-43.62c2.34-6.43-3.05-7-8.36-7H252.21a13.32,13.32,0,0,0-11.42,8.39L227,343.9c-2.44,6.72-4.42,13.69-7,20.69-2.64,7.27-5.43,7.27-19.13,7.27-12.3,0-14.62-.56-12.38-6.72,2.65-7.26,5.75-14.26,8.4-21.53l17.81-48.93c1.43-3.92,2.47-7.55,3.88-11.47,3.88-10.63,6.53-14.82,20.83-14.82,10.34,0,20.29.28,30.38.28Z" transform="translate(-0.69 -0.69)"/><path class="b" d="M634.88,329.91c-1.74,4.76-16.89,15.67-21.84,19.3A787.51,787.51,0,0,1,422.81,454.66c-10.85,4.47-11.22,4.74-15.2,9.5a4.23,4.23,0,0,1-3.41,1.68c-3.07,0-4.88-11.19-5.61-14.55a57.75,57.75,0,0,1-2.27-16.79c1.11-3.08,6.35-3.65,10.39-4.76,68.4-18.18,157.56-71,215.69-121.64a10.75,10.75,0,0,1,5.88-3.08C633.87,305,636.4,325.72,634.88,329.91ZM507.37,283.78c2.69,2.51,12.76,11.74,11.26,15.94-2.34,6.42-21,21.53-26.3,21.53-2.24,0-6-4.19-8.43-7.56a205.52,205.52,0,0,0-27.73-26c-1.72-1.41-3.45-2.8-2.54-5.32,1.53-4.19,19.22-22.09,25.66-22.09C483.77,260.28,503.48,279.85,507.37,283.78Z" transform="translate(-0.69 -0.69)"/><path class="b" d="M831.35,286.85a73.79,73.79,0,0,0,14-.85,7.44,7.44,0,0,1,2.61-.29c5.31,0,10.9,15.38,9.08,20.42a10.28,10.28,0,0,1-3,3.63,120.85,120.85,0,0,0-10.8,12c-13.76,17-28,33.83-43.29,49.78a26.47,26.47,0,0,0-5.92,7.81c-1.34,3.63.31,5.31,2.39,7.28,2.44,2.52,11.69,10.89,10.36,14.54-1.62,4.48-20.32,21.25-25.92,21.25a4.39,4.39,0,0,1-3.35-2.24c-3.76-5-4.31-5-7.82-9.21a6,6,0,0,0-5-3.08c-3.92,0-8.43,3.93-11.95,6.71a377.42,377.42,0,0,1-78.43,47.26c-7.1,3.36-32.91,14.26-38.75,14.26-7.25,0-13.89-17.88-12.47-21.81,1.53-4.2,11.54-5.59,14.64-6.43,33.58-7.82,67.75-27.12,98.3-50.34a17.89,17.89,0,0,0,6.71-7,4.81,4.81,0,0,0-2.13-6.42,271.85,271.85,0,0,0-24.13-15.94c-1.64-.85-4.49-2.24-3.58-4.76,1.43-3.91,18.26-21,24.7-21,4.19,0,24.18,14.26,28.17,17.06a8.8,8.8,0,0,0,5.88,3.07c5,0,9.1-5,12.86-9.22a276.2,276.2,0,0,0,26.75-33.59c2-5.59-5-5.59-9.15-5.59h-53.7a19.12,19.12,0,0,0-15,7.27c-15,13.7-35.72,31.32-51.72,43.06a23.21,23.21,0,0,1-10.88,5.31c-5,0-19.21-11.75-17.46-16.5.82-2.24,4.22-3.91,6.4-5.31A442.63,442.63,0,0,0,769.25,247.69c1.66-2.25,4.51-7,7.59-7,3.36,0,10.83,5.59,14.87,7.55s12.09,6.72,11.41,8.67a5.87,5.87,0,0,1-3.91,3.09c-4.81,1.68-5.3,2.24-12.62,10.07-1.44,1.69-3.76,4.2-6.45,7a15.61,15.61,0,0,0-4.27,5.59c-1,2.8,1.09,3.93,3.22,4.2h52.26Zm51.59-13.44a34.53,34.53,0,0,1-18.63,11.19c-2,0-2.18-1.68-2.51-3.08a168.89,168.89,0,0,0-8-24.85,5.52,5.52,0,0,1-.54-3.92c1.23-3.36,15-9.79,18.14-9.79s12.75,27.11,11.54,30.47Zm32.39-29.07a38.41,38.41,0,0,1,3.4,13.69c-1.52,4.2-15.26,11.19-18.61,11.19-2,0-2.36-2-2.87-3.63a246.82,246.82,0,0,0-7.92-24.34,4.17,4.17,0,0,1-.64-3.62c1.34-3.64,15.13-10.08,18.21-10.08,2.24,0,7.39,12,7.75,14.82a19.07,19.07,0,0,0,.68,2Z" transform="translate(-0.69 -0.69)"/><path class="b" d="M1067.73,274.83c5.87,0,19.57,0,25.37-.56,1.11,0,4.4-.57,5.24-.57,6.72,0,13.24,15.1,12.22,17.9s-4.65,5.87-11.26,17.9c-29.15,54-62.54,91.17-119.45,123a398.38,398.38,0,0,1-64.07,28.52,36.6,36.6,0,0,1-10.14,2.52c-6.72,0-10-18.75-8.34-23.22a7.76,7.76,0,0,1,6.66-4.47A299.83,299.83,0,0,0,987,399a214.33,214.33,0,0,0,75.58-81.65,69.5,69.5,0,0,0,3-6.72c1.93-5.31-2.61-5.87-7.65-5.87H958.69c-11.75,0-23.41.56-35.15.56-8.68,0-7.49-2.51-2.91-15.09,4.71-12.87,5.52-15.94,13.34-15.94,12,0,23.86.56,35.88.56h97.88Z" transform="translate(-0.69 -0.69)"/><path class="b" d="M1208.93,276.22c3.15.56,6.78.56,5.77,3.36-.52,1.4-2.69,2.79-4.23,3.91a21.61,21.61,0,0,0-4.66,8.95l-2.24,6.16c-21.07,57.88-42.89,107.11-102.83,149.6-2.94,2-7.73,5.87-10.81,5.87-4.19,0-21.12-10.35-19.28-15.38.71-1.94,3.66-3.91,5.46-5,55.32-35.24,74.89-74.38,93.82-126.4,3-8.39,6.84-19.57,9-27.68.31-.83.53-2.24.85-3.07a4.46,4.46,0,0,1,4.74-3.08C1189.83,273.42,1203.36,275.38,1208.93,276.22Zm23.73,116.87c-3.16,8.67-4.4,12.87-.21,12.87,9.23,0,82.22-49.22,94.54-58.43a14.82,14.82,0,0,1,6.92-3.64c4.74,0,7.74,17.89,6.1,22.36-1.53,4.2-15.67,13.15-20.43,16.23-22.08,14.54-44,28.8-66.44,41.94-9.7,5.88-25,14.82-33.83,20.7a25,25,0,0,1-10.5,5,47.32,47.32,0,0,1-16.24-8.38c-3.1-2.23-7.12-5-5.29-10.08.71-2,8.45-20.15,13.33-33.58l35.6-97.87a280.52,280.52,0,0,0,9.25-28.52l.53-1.4a3.85,3.85,0,0,1,3.81-2.79c1.67,0,8.25,1.11,10.39,1.39,13.84,2,21.64,2.8,20.51,5.87-.71,2-2,2.52-3.65,3.92a16.75,16.75,0,0,0-5.17,7.27c-2.61,6.42-7.71,20.4-10.24,27.4Z" transform="translate(-0.69 -0.69)"/><path class="c" d="M300.68,159.77c-6.53,17.93-18,51.94-18.78,54.11-2.36,6.49-4.7,7.73-11.78,7.73H251c-7.12,0-8.52-1.24-6.16-7.73.79-2.17,14.11-36.17,20.62-54.11l34.66-95.23c6.53-17.93,18-51.95,18.77-54.12,2.36-6.49,4.7-7.73,11.79-7.73H349.8c7.1,0,8.52,1.23,6.15,7.73-.79,2.17-14.1,36.17-20.63,54.12l-9.44,26c-1.25,3.39-1.19,4.94.36,4.94A9,9,0,0,0,331.16,93l47-36.48c17.75-13.91,34.54-26.91,58.73-46.7a23.41,23.41,0,0,1,18-7.1H483c4,0,5.54.92,4.87,2.78a10.39,10.39,0,0,1-4,4.33c-33.55,25-52,39.27-73.75,55.66L390.38,80.63a20.8,20.8,0,0,0-7,7.39,12.91,12.91,0,0,0,.5,7.1l13.7,54.12c5.34,17.63,10.15,34.93,18.21,64.62a9.43,9.43,0,0,1,.57,5.25c-.67,1.87-3.07,2.48-7.71,2.48H383.29c-8.06,0-9.46-1.24-11-8.06-4.66-22.87-8.82-38.65-13.37-55l-9.79-36.78c-.93-3.41-1.91-4.95-3.47-4.95-1.86,0-3.85,1.24-7.33,4l-26.72,20.73a20.92,20.92,0,0,0-8.38,11.13Z" transform="translate(-0.69 -0.69)"/><path class="c" d="M452.23,221.61c-7.12,0-8.51-1.24-6.15-7.73.79-2.17,14.11-36.17,20.61-54.11l34.67-95.23c6.52-17.93,18-51.95,18.77-54.12,2.37-6.49,4.66-7.73,11.77-7.73h19.84c7.09,0,8.51,1.23,6.15,7.73-.79,2.17-14.11,36.17-20.62,54.12l-34.66,95.23c-6.52,17.93-18,51.94-18.77,54.11-2.36,6.49-4.7,7.73-11.78,7.73Z" transform="translate(-0.69 -0.69)"/><path class="c" d="M683.85,207.07c-1,2.78-3.74,4.33-9.16,6.5a164.49,164.49,0,0,1-55.85,9.88c-64,0-89.61-42.67-66.55-106.06C575.83,52.79,634,.84,711.29.84A100.49,100.49,0,0,1,753,8.57c3.95,1.86,5.55,3.4,4.54,6.19a27.31,27.31,0,0,1-3.68,5.87L740.32,39.18c-3.54,4.63-5.15,6.49-7.62,6.49a12.06,12.06,0,0,1-5.51-1.86,66.37,66.37,0,0,0-30.49-7.09c-51.33,0-90.77,36.17-106.63,79.77s.85,73.28,45,73.28A100.2,100.2,0,0,0,673.81,182a19.54,19.54,0,0,1,7-2.16c2.48,0,3,1.86,3.2,6.49l.48,14.85A17.55,17.55,0,0,1,683.85,207.07Z" transform="translate(-0.69 -0.69)"/><path class="d" d="M86.89,696.63,111,630.44H98.89L74.82,696.63H66.14L110,576.2a13.93,13.93,0,0,1,11.86-8.69h12.09a5.93,5.93,0,0,1,6.21,5.61,6,6,0,0,1-.68,3.08L95.6,696.63Zm24.8-68.13L131.9,573a2.36,2.36,0,0,0-2.23-3.51h-5a5.51,5.51,0,0,0-4.77,3.51L99.64,628.5Z" transform="translate(-0.69 -0.69)"/><path class="e" d="M137.55,694.68h20.77l-.67,1.94H128.14l47-129.12h29.46l-.71,1.93H183.13L161.64,628.5h9.09l-.71,1.93h-9.09Z" transform="translate(-0.69 -0.69)"/><path class="f" d="M245.6,567.9h12.09a5.89,5.89,0,0,1,5.53,8.68L246.67,622A14.28,14.28,0,0,1,239,629.8a6.17,6.17,0,0,1,2,7.78l-18.43,50.6a13.75,13.75,0,0,1-11.86,8.73H198.62a5.88,5.88,0,0,1-5.52-8.73l18.41-50.6a14.18,14.18,0,0,1,7.64-7.78,6.18,6.18,0,0,1-2-7.79l16.55-45.43A13.72,13.72,0,0,1,245.6,567.9Zm2.83,1.81a5.72,5.72,0,0,0-4.83,3.63l-18.95,52a2.37,2.37,0,0,0,.94,3.22,2.28,2.28,0,0,0,1.3.28H232a5.51,5.51,0,0,0,4.78-3.5l18.93-52c.71-1.94-.23-3.63-2.18-3.63Zm-16.61,61h-5.07a5.5,5.5,0,0,0-4.77,3.5l-20.83,57.24c-.67,1.94.23,3.62,2.19,3.62h5a5.71,5.71,0,0,0,4.83-3.62l20.83-57.24a2.38,2.38,0,0,0-.94-3.21A2.33,2.33,0,0,0,231.82,630.68Z" transform="translate(-0.69 -0.69)"/><path class="g" d="M301.78,567.9H314a5.86,5.86,0,0,1,5.38,8.68l-8.24,22.72h-8.56l9.49-26.08A2.42,2.42,0,0,0,311,570a2.47,2.47,0,0,0-1.28-.25h-4.92a5.55,5.55,0,0,0-4.92,3.51l-20.26,55.66H290a7.06,7.06,0,0,1,6.62,10.39l-17.81,48.92A13.74,13.74,0,0,1,267,696.92H254.82a5.88,5.88,0,0,1-5.52-8.73l20.92-57.51.67-1.82,19-52.31A13.75,13.75,0,0,1,301.78,567.9ZM283.6,630.68h-4.7l-22.1,60.74a2.45,2.45,0,0,0,1,3.33,2.49,2.49,0,0,0,1.34.29H264a5.87,5.87,0,0,0,4.95-3.62L289.53,635a2.92,2.92,0,0,0-1.19-4,2.88,2.88,0,0,0-1.49-.35Z" transform="translate(-0.69 -0.69)"/><path class="h" d="M408.87,567.63h20.77a5.89,5.89,0,0,1,5.55,8.68l-16.54,45.43a14.11,14.11,0,0,1-8.95,8.17,6,6,0,0,1,3.18,7.81,4.59,4.59,0,0,1-.24.5l-21.25,58.4h-8.7l21.87-60.1a4.13,4.13,0,0,0-3.88-6.1h-6.1l-24.08,66.2h-8.57L386,630.42l.67-1.81,21.54-59.18Zm7.91,1.81-21.53,59.17h6.09a9.65,9.65,0,0,0,8.32-6.1l17.1-47a4.14,4.14,0,0,0-3.88-6.11Z" transform="translate(-0.69 -0.69)"/><path class="i" d="M433,694.68h20.76l-.67,1.94H423.55l47-129.12H500l-.67,1.93H478.53L457,628.5h9.08l-.67,1.93h-9.12Z" transform="translate(-0.69 -0.69)"/><path class="j" d="M533.61,567.63H545.8a5.91,5.91,0,0,1,5.53,8.68L541,604.62h-8.69l11.48-31.57a2.4,2.4,0,0,0-1-3.24,2.37,2.37,0,0,0-1.38-.27h-4.94a5.72,5.72,0,0,0-4.91,3.51L512.68,625.1a2.44,2.44,0,0,0,1.1,3.26,2.41,2.41,0,0,0,1.27.24h8.57a5.89,5.89,0,0,1,5.53,8.69L510.68,688a13.88,13.88,0,0,1-11.86,8.73h-12.2a5.92,5.92,0,0,1-5.38-8.73l9-24.65h8.53l-10.15,27.9a2.42,2.42,0,0,0,1.08,3.25,2.34,2.34,0,0,0,1.28.25h4.93a5.53,5.53,0,0,0,4.91-3.5L521.62,634a2.45,2.45,0,0,0-2.31-3.62h-8.56a5.82,5.82,0,0,1-5.44-8.56l16.58-45.56A13.87,13.87,0,0,1,533.61,567.63Z" transform="translate(-0.69 -0.69)"/><path class="k" d="M590.57,567.63h20.89l-.67,1.81H598.6L552.31,696.62h-8.7l46.3-127.19h-14.4l.67-1.81Z" transform="translate(-0.69 -0.69)"/><path class="l" d="M641.56,567.63h12.21a5.91,5.91,0,0,1,6.2,5.61,5.84,5.84,0,0,1-.68,3.07L618.62,688.05a13.9,13.9,0,0,1-11.85,8.73H594.54a5.9,5.9,0,0,1-5.37-8.73l40.67-111.74A13.9,13.9,0,0,1,641.56,567.63Zm2.93,1.94a5.71,5.71,0,0,0-4.91,3.51l-43,118.22a2.42,2.42,0,0,0,1.07,3.26,2.47,2.47,0,0,0,1.28.25h5a5.52,5.52,0,0,0,4.78-3.51l43-118.21a2.36,2.36,0,0,0-2.23-3.51Z" transform="translate(-0.69 -0.69)"/><path class="m" d="M694.63,567.63h20.76a5.89,5.89,0,0,1,5.54,8.68L704.4,621.74a14.06,14.06,0,0,1-8.95,8.17,6,6,0,0,1,3.19,7.8c-.07.17-.16.34-.24.51l-21.26,58.4h-8.7l21.87-60.1a4.14,4.14,0,0,0-1.67-5.61,4.26,4.26,0,0,0-2.21-.49h-6.1l-24.09,66.2h-8.56l24.09-66.2.67-1.8L694,569.44Zm7.92,1.81L681,628.61h6.13a9.65,9.65,0,0,0,8.32-6.1l17.06-47a4.13,4.13,0,0,0-3.89-6.11Z" transform="translate(-0.69 -0.69)"/><path class="n" d="M718.7,694.68h20.78l-.72,1.94H709.3l47-129.12h29.46l-.71,1.93H764.29l-21.5,59.07h9.08l-.71,1.93h-9.07Z" transform="translate(-0.69 -0.69)"/><path class="o" d="M875.65,567.63h20.76a5.87,5.87,0,0,1,5.53,8.68l-16.53,45.43a13.76,13.76,0,0,1-11.87,8.69H861.45l-24.08,66.19h-8.7l24.08-66.19.68-1.81L875,569.43Zm8.06,1.81-21.54,59.17h6a9.65,9.65,0,0,0,8.32-6.1l17.1-47a4.13,4.13,0,0,0-3.88-6.1Z" transform="translate(-0.69 -0.69)"/><path class="p" d="M937.3,567.63h20.76a5.89,5.89,0,0,1,5.54,8.68l-16.54,45.43a14.06,14.06,0,0,1-8.95,8.17,6,6,0,0,1,3.18,7.83c-.07.16-.15.32-.23.48l-21.26,58.4h-8.68L933,636.52a4.14,4.14,0,0,0-3.89-6.1H923l-24.08,66.2h-8.57l24.08-66.2.68-1.81,21.53-59.18Zm7.91,1.81-21.55,59.17h6.1a9.65,9.65,0,0,0,8.32-6.1l17.1-47a4.14,4.14,0,0,0-1.66-5.61,4.09,4.09,0,0,0-2.22-.49Z" transform="translate(-0.69 -0.69)"/><path class="q" d="M1007.36,567.63h12.19a5.92,5.92,0,0,1,6.22,5.61,5.84,5.84,0,0,1-.68,3.07L984.42,688.05a13.88,13.88,0,0,1-11.86,8.73h-12.2a5.92,5.92,0,0,1-5.38-8.73l40.67-111.74A13.93,13.93,0,0,1,1007.36,567.63Zm2.92,1.94a5.66,5.66,0,0,0-4.91,3.51l-43,118.21a2.43,2.43,0,0,0,1.08,3.26,2.49,2.49,0,0,0,1.29.25h5a5.53,5.53,0,0,0,4.79-3.51l43-118.21a2.38,2.38,0,0,0-2.24-3.51Z" transform="translate(-0.69 -0.69)"/><path class="r" d="M1088.43,567.51l-43.84,120.41a13.91,13.91,0,0,1-11.86,8.74h-12.2a5.92,5.92,0,0,1-6.09-5.73,6,6,0,0,1,.72-3l9.25-25.42h8.51l-10.45,28.68a2.42,2.42,0,0,0,1.08,3.25,2.39,2.39,0,0,0,1.29.25h4.93a5.54,5.54,0,0,0,4.91-3.5l45-123.67h8.74Z" transform="translate(-0.69 -0.69)"/><path class="s" d="M1083.52,694.68h20.76l-.67,1.94h-29.46l47-129.12h29.47l-.67,1.93H1129.2l-21.5,59.07h9.1l-.72,1.93H1107Z" transform="translate(-0.69 -0.69)"/><path class="t" d="M1184.05,567.51h12.09a5.92,5.92,0,0,1,5.53,8.68l-10.29,28.29h-8.7L1194.15,573a2.36,2.36,0,0,0-2.23-3.51h-5.05a5.54,5.54,0,0,0-4.78,3.51l-43,118.21a2.37,2.37,0,0,0,.91,3.22,2.44,2.44,0,0,0,1.32.29h5.06a5.49,5.49,0,0,0,4.77-3.51l11.48-31.53h8.73L1161,687.92a13.88,13.88,0,0,1-11.86,8.73h-12.09a5.91,5.91,0,0,1-5.52-8.73L1172.2,576.2A13.88,13.88,0,0,1,1184.05,567.51Z" transform="translate(-0.69 -0.69)"/><path class="u" d="M1244.07,567.63H1265l-.68,1.81h-12.19l-46.3,127.19h-8.69l46.29-127.19H1229l.67-1.81Z" transform="translate(-0.69 -0.69)"/><path class="c" d="M150.58,531.82a15.73,15.73,0,0,1-2.18,1,20.87,20.87,0,0,1-2.21.67c-.95.21-1.87.39-2.75.5a15.94,15.94,0,0,1-2.29.17,8.53,8.53,0,0,1-7.74-3.42,11,11,0,0,1-1.76-7.5,17.19,17.19,0,0,1,.27-1.75,16.44,16.44,0,0,1,.51-1.69.22.22,0,0,1,0-.12.29.29,0,0,1,.1-.12v-.1a.48.48,0,0,1,.08-.16.35.35,0,0,0,.07-.12,20.57,20.57,0,0,1,5.76-8.5,27.51,27.51,0,0,1,7.11-4.45,22.85,22.85,0,0,1,4.06-1.21,16.38,16.38,0,0,1,3-.35,16.18,16.18,0,0,1,4.16.45,8.2,8.2,0,0,1,2.9,1.39l-1.5,4.1a8.65,8.65,0,0,0-1.17-1,9.48,9.48,0,0,0-1.29-.79,8.2,8.2,0,0,0-2-.75,10.5,10.5,0,0,0-2.16-.23,15.14,15.14,0,0,0-9.27,3.53,17.62,17.62,0,0,0-6.17,7.82,8.67,8.67,0,0,0,.4,8.47,7.89,7.89,0,0,0,6.72,3.17,6.5,6.5,0,0,0,1,0,9.83,9.83,0,0,0,1.07-.15,16,16,0,0,0,3.25-.89,17.71,17.71,0,0,0,3.3-1.69Z" transform="translate(-0.69 -0.69)"/><path class="c" d="M158.39,523.88c.1-.2.2-.42.31-.67a15.12,15.12,0,0,1,4.57-5.26,12.27,12.27,0,0,1,7.58-2.37,10.51,10.51,0,0,1,1.58.12,6.47,6.47,0,0,1,1.57.4,5.37,5.37,0,0,1,3.72,6.63,5.53,5.53,0,0,1-.45,1.1l-.2.57c-.11.27-.22.56-.37.86s-.29.61-.47.93a17.3,17.3,0,0,1-4.84,5.24,11.79,11.79,0,0,1-7.17,2.38,6.87,6.87,0,0,1-5.56-1.75,5.83,5.83,0,0,1-1.35-3.81,10.48,10.48,0,0,1,.29-2,13.23,13.23,0,0,1,.53-1.76A5.18,5.18,0,0,1,158.39,523.88Zm15.09.3a7.17,7.17,0,0,0,.08-2.69,3.53,3.53,0,0,0-1.07-1.82,3.93,3.93,0,0,0-2.82-.83,7.44,7.44,0,0,0-5.33,1.84,10.65,10.65,0,0,0-2.8,4.11,4.54,4.54,0,0,0,.26,4,4.23,4.23,0,0,0,2.69,1.71,3.68,3.68,0,0,0,.58.07,2.53,2.53,0,0,0,.55,0A6.86,6.86,0,0,0,170,529a10.66,10.66,0,0,0,3.06-3.55c.05-.14.11-.26.17-.41a1.92,1.92,0,0,0,.17-.39l.18-.53Z" transform="translate(-0.69 -0.69)"/><path class="c" d="M188.1,518.86a10.86,10.86,0,0,1,3-2.23,6.44,6.44,0,0,1,2.79-.67,5.63,5.63,0,0,1,.82,0,8.11,8.11,0,0,1,.86.14,3.65,3.65,0,0,0,.53.19l.52.18-2.93,3.26a2.88,2.88,0,0,0-.52-.4,3.44,3.44,0,0,0-.67-.26l-.43-.06h-.44a4.92,4.92,0,0,0-2.81,1.06,7.11,7.11,0,0,0-2.36,3.18l-3.73,10.24h-3.54l6.31-17.34h3.55Z" transform="translate(-0.69 -0.69)"/><path class="c" d="M197,523.88l.29-.67a15.35,15.35,0,0,1,4.58-5.26,12.2,12.2,0,0,1,7.58-2.37,10.41,10.41,0,0,1,1.58.12,6.47,6.47,0,0,1,1.57.4,5.41,5.41,0,0,1,3.69,6.71,4.77,4.77,0,0,1-.42,1l-.21.57c-.1.27-.22.56-.36.86s-.29.61-.47.93a17.3,17.3,0,0,1-4.84,5.24,11.83,11.83,0,0,1-7.17,2.38,6.89,6.89,0,0,1-5.57-1.75,5.87,5.87,0,0,1-1.34-3.81,10.46,10.46,0,0,1,.28-2,17,17,0,0,1,.53-1.76A4.11,4.11,0,0,1,197,523.88Zm15.08.3a7,7,0,0,0,.08-2.69,3.52,3.52,0,0,0-1.06-1.82,4,4,0,0,0-2.83-.83,7.44,7.44,0,0,0-5.33,1.84,10.35,10.35,0,0,0-2.78,4.11,4.48,4.48,0,0,0,.25,4,4.23,4.23,0,0,0,2.69,1.71,3.68,3.68,0,0,0,.58.07,2.62,2.62,0,0,0,.56,0,6.92,6.92,0,0,0,4.33-1.62,10.88,10.88,0,0,0,3.06-3.55c0-.14.11-.28.17-.41a2.71,2.71,0,0,0,.17-.39l.19-.53Z" transform="translate(-0.69 -0.69)"/><path class="c" d="M233.47,501.09l-11.81,32.47h-3.49L230,501.09Z" transform="translate(-0.69 -0.69)"/><path class="c" d="M244.5,501.09l-11.82,32.47h-3.5L241,501.09h3.5Z" transform="translate(-0.69 -0.69)"/><path class="c" d="M263.42,516,257,533.56h-3.56l1.06-2.93a15,15,0,0,1-3,2.26,8.67,8.67,0,0,1-4.3.94A5.56,5.56,0,0,1,242,531.5a7.94,7.94,0,0,1,.18-6.72,14.27,14.27,0,0,1,5.1-7,11.5,11.5,0,0,1,6.64-2.49,7.69,7.69,0,0,1,1.27.11,6.26,6.26,0,0,1,1.34.4,4.13,4.13,0,0,1,1.48,1,3.18,3.18,0,0,1,.87,1.74l.95-2.64h3.61ZM257,520.43c-.36-1.22-1.5-1.84-3.41-1.84a7.53,7.53,0,0,0-4.7,1.54,9.85,9.85,0,0,0-3.19,4.7,5.46,5.46,0,0,0-.08,4.34,3,3,0,0,0,2.89,1.78,7.78,7.78,0,0,0,5-1.68,10.33,10.33,0,0,0,3.23-4.7,6.49,6.49,0,0,0,.25-4.15Z" transform="translate(-0.69 -0.69)"/><path class="c" d="M311.52,505.56l-1.19,3.26h-10l-2.69,7.39h9.72l-1.17,3.2h-9.73l-5.14,14.19h-3.5l10.19-28h13.54Z" transform="translate(-0.69 -0.69)"/><path class="c" d="M329.41,516.22l-3.65,10a15,15,0,0,1-3.7,5.61,9.09,9.09,0,0,1-6.57,2.55,5.78,5.78,0,0,1-4.73-1.93,5.56,5.56,0,0,1-.22-5.65l3.86-10.61h3.54L314.38,526c-.1.29-.2.58-.28.9a5,5,0,0,0-.15.94,4.08,4.08,0,0,0,.38,2.38,2.37,2.37,0,0,0,2.33,1.06,4.6,4.6,0,0,0,3.55-1.42,10.44,10.44,0,0,0,2.1-3.58l3.65-10Z" transform="translate(-0.69 -0.69)"/><path class="c" d="M346.52,516.22h4.1l-9.76,7.3,4.63,10.07h-4.38l-3.36-7.91-1.21.89-2.56,7h-3.54l11.83-32.47h3.52L338,522.69Z" transform="translate(-0.69 -0.69)"/><path class="c" d="M369.83,516.22l-3.65,10a15,15,0,0,1-3.72,5.61,8.94,8.94,0,0,1-6.55,2.55,5.75,5.75,0,0,1-4.74-1.93,5.58,5.58,0,0,1-.22-5.65l3.86-10.61h3.54L354.8,526c-.1.29-.19.58-.28.9a5.12,5.12,0,0,0,.23,3.32,2.36,2.36,0,0,0,2.32,1.06,4.59,4.59,0,0,0,3.54-1.43,10.35,10.35,0,0,0,2.1-3.58l3.66-10Z" transform="translate(-0.69 -0.69)"/><path class="c" d="M372.64,523.88c.1-.2.19-.42.31-.67a15.06,15.06,0,0,1,4.58-5.26,12.2,12.2,0,0,1,7.58-2.37,10.38,10.38,0,0,1,1.57.12,6.66,6.66,0,0,1,1.58.4,5.4,5.4,0,0,1,3.68,6.71,5.31,5.31,0,0,1-.41,1l-.21.57c-.11.27-.22.56-.36.86s-.31.61-.49.93a17,17,0,0,1-4.83,5.24,11.84,11.84,0,0,1-7.18,2.38,6.87,6.87,0,0,1-5.56-1.75,5.87,5.87,0,0,1-1.34-3.81,10.57,10.57,0,0,1,.28-2,17.83,17.83,0,0,1,.53-1.76A6.46,6.46,0,0,1,372.64,523.88Zm15.09.3a6.77,6.77,0,0,0,.08-2.69,3.47,3.47,0,0,0-1.07-1.82,3.88,3.88,0,0,0-2.82-.83,7.41,7.41,0,0,0-5.32,1.84,10.48,10.48,0,0,0-2.79,4.11,4.54,4.54,0,0,0,.25,4,4.27,4.27,0,0,0,2.68,1.71,4,4,0,0,0,.59.07,2.53,2.53,0,0,0,.55,0,6.86,6.86,0,0,0,4.33-1.62,10.46,10.46,0,0,0,3.06-3.55l.17-.41a2.76,2.76,0,0,0,.18-.39l.18-.53Z" transform="translate(-0.69 -0.69)"/><path class="c" d="M409.62,516.22h4.09l-9.77,7.3,4.65,10.07H404.2l-3.36-7.91-1.21.89-2.56,7h-3.54l11.83-32.47h3.52l-7.83,21.57Z" transform="translate(-0.69 -0.69)"/><path class="c" d="M436.91,516l-6.41,17.62h-3.59l1.07-2.92a15.54,15.54,0,0,1-3,2.25,8.67,8.67,0,0,1-4.3.94,5.54,5.54,0,0,1-5.19-2.33,7.87,7.87,0,0,1,.18-6.72,14.38,14.38,0,0,1,5.11-7,11.47,11.47,0,0,1,6.63-2.49,7.81,7.81,0,0,1,1.28.12,6.24,6.24,0,0,1,1.34.39,4.35,4.35,0,0,1,1.49,1,3.09,3.09,0,0,1,.86,1.75l1-2.63h3.61Zm-6.41,4.48c-.36-1.22-1.49-1.84-3.41-1.84a7.53,7.53,0,0,0-4.7,1.54,9.94,9.94,0,0,0-3.2,4.7,5.5,5.5,0,0,0-.08,4.34A3,3,0,0,0,422,531a7.78,7.78,0,0,0,5-1.68,10.35,10.35,0,0,0,3.24-4.7,6.63,6.63,0,0,0,.26-4.15Z" transform="translate(-0.69 -0.69)"/><path class="c" d="M513.54,505.56,509,518l16.6-12.4h4.48l-17,12.68,7.39,15.33h-5l-5.89-13-2,1.47-4.23,11.53h-3.48l10.18-28h3.49Z" transform="translate(-0.69 -0.69)"/><path class="c" d="M546.36,516.22l-3.65,10a15,15,0,0,1-3.72,5.61,8.94,8.94,0,0,1-6.55,2.55,5.78,5.78,0,0,1-4.74-1.93,5.58,5.58,0,0,1-.22-5.65l3.86-10.61h3.54L531.33,526c-.1.29-.19.58-.28.9a6,6,0,0,0-.16.94,4.25,4.25,0,0,0,.39,2.38,2.37,2.37,0,0,0,2.33,1.06,4.55,4.55,0,0,0,3.52-1.43,10.28,10.28,0,0,0,2.11-3.58l3.65-10Z" transform="translate(-0.69 -0.69)"/><path class="c" d="M555.85,518.86a10.66,10.66,0,0,1,3-2.23,6.44,6.44,0,0,1,2.79-.67,5.63,5.63,0,0,1,.82,0,8.11,8.11,0,0,1,.86.14,3.65,3.65,0,0,0,.53.19l.52.18-2.93,3.26a2.7,2.7,0,0,0-.54-.4,2.47,2.47,0,0,0-.63-.26,3,3,0,0,0-.43-.06h-.43a4.87,4.87,0,0,0-2.81,1.06,7.06,7.06,0,0,0-2.37,3.18l-3.75,10.24H547l6.31-17.34h3.54Z" transform="translate(-0.69 -0.69)"/><path class="c" d="M583.6,516.22l-3.65,10a14.81,14.81,0,0,1-3.71,5.61,9,9,0,0,1-6.56,2.55,5.75,5.75,0,0,1-4.73-1.93,5.56,5.56,0,0,1-.23-5.65l3.87-10.61h3.54L568.57,526c-.1.29-.2.58-.28.9a3.69,3.69,0,0,0-.15.94,4.08,4.08,0,0,0,.38,2.38,2.36,2.36,0,0,0,2.32,1.06,4.56,4.56,0,0,0,3.53-1.43,10.22,10.22,0,0,0,2.11-3.58l3.65-10Z" transform="translate(-0.69 -0.69)"/><path class="c" d="M592.91,518a6.14,6.14,0,0,1,.51-.51c.24-.22.53-.47.89-.76a10.8,10.8,0,0,1,1.82-.94,6.87,6.87,0,0,1,2.5-.41h.58a3.45,3.45,0,0,1,.55.07,3.5,3.5,0,0,1,1.78.89,3.33,3.33,0,0,1,.89,2.26,6.54,6.54,0,0,1,.53-.5c.21-.18.39-.36.61-.54a15.11,15.11,0,0,1,2.5-1.51,7,7,0,0,1,3.12-.67h.67c1.92.31,3,1.11,3.16,2.39a11.74,11.74,0,0,1-.94,5.23l-3.89,10.59H605l3.86-10.61a5.78,5.78,0,0,0,.43-3.18c-.19-.82-.9-1.18-2.09-1.18a5.26,5.26,0,0,0-3.19,1,7.62,7.62,0,0,0-2.37,3.65l-3.74,10.32h-3.55l4.08-11.21c.49-1.31.53-2.24.12-2.8a2.09,2.09,0,0,0-1.59-.91.53.53,0,0,0-.25,0h-.6a1,1,0,0,0-.35,0,5.67,5.67,0,0,0-2.52,1,6.75,6.75,0,0,0-2.18,3.31l-3.85,10.6h-3.46l6.31-17.34h3.49Z" transform="translate(-0.69 -0.69)"/><path class="c" d="M632.21,529.17l-.67.72c-.24.24-.51.52-.76.81a16.87,16.87,0,0,1-3.45,2.36,10.85,10.85,0,0,1-5.1,1.08,4.89,4.89,0,0,1-4.83-2.63,8.08,8.08,0,0,1-.38-5.84,1.31,1.31,0,0,1,.1-.4l.16-.45a.23.23,0,0,1,.06-.15.42.42,0,0,1,.11-.18c0-.06,0-.12.07-.19l.06-.14a18.5,18.5,0,0,1,4.58-6.32,10.52,10.52,0,0,1,7.32-2.77,4.77,4.77,0,0,1,4.62,2,7.55,7.55,0,0,1,.83,4.45c-.07.52-.17,1-.28,1.55a12.43,12.43,0,0,1-.44,1.47l-.29.8H620.66a4.41,4.41,0,0,0,.1,4A3.51,3.51,0,0,0,624,531h.49a2.89,2.89,0,0,0,.5-.08,8.17,8.17,0,0,0,2.55-1,9.19,9.19,0,0,0,2.35-2.09Zm-1.11-9.84a2.85,2.85,0,0,0-2.73-1.35,5.83,5.83,0,0,0-.83.08,7.21,7.21,0,0,0-.92.21,9.49,9.49,0,0,0-2.69,1.46,8.53,8.53,0,0,0-2.34,3h9.75a4.55,4.55,0,0,0-.23-3.38Z" transform="translate(-0.69 -0.69)"/><path class="c" d="M673,505.56l-10.16,28h-3.49l10.18-28H673Z" transform="translate(-0.69 -0.69)"/><path class="c" d="M680.15,516.22l-.86,2.36c.52-.39,1-.72,1.34-1s.79-.53,1.15-.75a9.39,9.39,0,0,1,1.83-.82,13.75,13.75,0,0,1,2.39-.42,5.69,5.69,0,0,1,.83,0,4,4,0,0,1,.83.18,3.78,3.78,0,0,1,2.37,1.76,4.87,4.87,0,0,1-.15,4.17l-4.29,11.79h-3.54l4.31-11.78a2.15,2.15,0,0,0-.18-2.15,2.73,2.73,0,0,0-1.78-1h-.65a5.83,5.83,0,0,0-3.32,1.14,7.6,7.6,0,0,0-2.69,3.8l-3.63,10.07h-3.54l6.31-17.34Z" transform="translate(-0.69 -0.69)"/><path class="c" d="M721.38,500.81l-11.92,32.75h-3.25l1.07-2.93a12.89,12.89,0,0,1-1.8,1.58,13.77,13.77,0,0,1-1.76,1.07,11,11,0,0,1-2,.67,8.1,8.1,0,0,1-1.55.18l-.54,0a5.06,5.06,0,0,1-4.43-1.84,6.67,6.67,0,0,1-1.19-4,8,8,0,0,1,.15-1.69,9.88,9.88,0,0,1,.46-1.61,14.45,14.45,0,0,1,5-7.15,12.76,12.76,0,0,1,6.23-2.59h1.6a4,4,0,0,1,.86.15,4.92,4.92,0,0,1,2,1,3,3,0,0,1,1.07,2l6.47-17.76h3.52ZM709.57,520c-.47-1.12-1.58-1.68-3.36-1.68a6.52,6.52,0,0,0-4.46,1.62,12.76,12.76,0,0,0-2.92,3.62,4.88,4.88,0,0,0-.4.79l-.32.8a8.41,8.41,0,0,0-.33,1.19,5,5,0,0,0-.11,1.34,4.14,4.14,0,0,0,.76,2.52,3.42,3.42,0,0,0,3,1.17,6,6,0,0,0,4.22-1.55,13,13,0,0,0,2.73-3.44,8.38,8.38,0,0,0,.45-.9c.12-.29.23-.55.33-.84A6.53,6.53,0,0,0,709.57,520Z" transform="translate(-0.69 -0.69)"/><path class="c" d="M737.94,516.22l-3.65,10a15,15,0,0,1-3.72,5.61,9,9,0,0,1-6.56,2.55,5.78,5.78,0,0,1-4.73-1.93,5.56,5.56,0,0,1-.22-5.65l3.86-10.61h3.54L722.91,526a9.37,9.37,0,0,0-.28.9,3.69,3.69,0,0,0-.15.94,4,4,0,0,0,.38,2.38,2.36,2.36,0,0,0,2.32,1.06,4.56,4.56,0,0,0,3.53-1.43,10.37,10.37,0,0,0,2.11-3.58l3.64-10Z" transform="translate(-0.69 -0.69)"/><path class="c" d="M750.83,519a2.12,2.12,0,0,0-.84-.5l-.32-.08h-.53l-.17,0a2.91,2.91,0,0,0-1.18.55,2.35,2.35,0,0,0-.83,1v.08h0a.11.11,0,0,1,0,.08v.07a1.35,1.35,0,0,0,.33,1.44,6.6,6.6,0,0,0,1.51,1c.17.11.37.21.57.32a4.92,4.92,0,0,0,.61.3,7.59,7.59,0,0,1,2.19,1.84,3.49,3.49,0,0,1,.06,3.4,2.63,2.63,0,0,1-.15.35,3.68,3.68,0,0,0-.15.35,10,10,0,0,1-3.36,3.33,8.43,8.43,0,0,1-4.57,1.49,4.91,4.91,0,0,1-3.42-.94,3.89,3.89,0,0,1-1.21-2.12.93.93,0,0,1-.12-.33,2.33,2.33,0,0,1,0-.38l3.44-1.46a1.73,1.73,0,0,0,.58,1.46,2.48,2.48,0,0,0,1.59.67.41.41,0,0,0,.19.05h.21a3.78,3.78,0,0,0,1.83-.5,3.26,3.26,0,0,0,1.43-1.44l.08-.22a2.37,2.37,0,0,0,.09-.36,2.16,2.16,0,0,0,0-.36,2.65,2.65,0,0,0-.6-1.18,14.28,14.28,0,0,0-1.12-1.08,3.7,3.7,0,0,1-.46-.31l-.46-.31-.09-.07h-.16a4.83,4.83,0,0,1-2.22-2,4,4,0,0,1,.19-3,1.11,1.11,0,0,1,.1-.29,2.54,2.54,0,0,1,.16-.28,7.62,7.62,0,0,1,2.44-2.64,6.71,6.71,0,0,1,3.9-1.18,5,5,0,0,1,2.75.64,3.47,3.47,0,0,1,1.34,2l-3.18,1.45A1.32,1.32,0,0,0,750.83,519Z" transform="translate(-0.69 -0.69)"/><path class="c" d="M765.33,509.67h3.26l-2.38,6.55h3.55l-1.17,3.2h-3.53l-5.17,14.15h-3.26l5.15-14.15h-2l1.17-3.2h2Z" transform="translate(-0.69 -0.69)"/><path class="c" d="M776.48,518.86a10.71,10.71,0,0,1,3-2.23,6.48,6.48,0,0,1,2.8-.67,5.49,5.49,0,0,1,.81,0,8.11,8.11,0,0,1,.86.14,5.44,5.44,0,0,0,.52.19l.53.18-2.93,3.26a3,3,0,0,0-.53-.4,3.21,3.21,0,0,0-.67-.26,3,3,0,0,0-.43-.06H780a4.92,4.92,0,0,0-2.81,1.06,7.09,7.09,0,0,0-2.35,3.18l-3.77,10.32h-3.53l6.32-17.34h3.54Z" transform="translate(-0.69 -0.69)"/><path class="c" d="M796.86,506.51a1.82,1.82,0,0,1,.29.94,1.09,1.09,0,0,1,0,.36,2.22,2.22,0,0,1-.12.39,5.77,5.77,0,0,1-1.21,1.48,2.39,2.39,0,0,1-1.57.59c-.75,0-1.23-.23-1.42-.68a1.94,1.94,0,0,1,0-1.53,3.42,3.42,0,0,1,1.08-1.49,2.81,2.81,0,0,1,1.92-.68A1.39,1.39,0,0,1,796.86,506.51Zm-3,9.69-6.32,17.34H784l6.32-17.34Z" transform="translate(-0.69 -0.69)"/><path class="c" d="M819.2,516l-6.41,17.62h-3.58l1.06-2.92a15,15,0,0,1-3,2.25,8.67,8.67,0,0,1-4.3.94,5.56,5.56,0,0,1-5.19-2.33,7.9,7.9,0,0,1,.18-6.72,14.4,14.4,0,0,1,5.12-7,11.45,11.45,0,0,1,6.63-2.49,7.81,7.81,0,0,1,1.28.12,6.24,6.24,0,0,1,1.34.39,4.27,4.27,0,0,1,1.47,1,3.32,3.32,0,0,1,.88,1.75l1-2.64h3.61Zm-6.41,4.48c-.36-1.22-1.5-1.84-3.41-1.84a7.62,7.62,0,0,0-4.73,1.54,9.93,9.93,0,0,0-3.19,4.7,5.5,5.5,0,0,0-.08,4.34,3,3,0,0,0,2.9,1.78,7.72,7.72,0,0,0,5-1.68,10.35,10.35,0,0,0,3.24-4.7,6.56,6.56,0,0,0,.28-4.15Z" transform="translate(-0.69 -0.69)"/><path class="c" d="M835.05,501.09l-11.82,32.47h-3.49l11.82-32.47h3.49Z" transform="translate(-0.69 -0.69)"/><path class="c" d="M875.32,531.82a16.15,16.15,0,0,1-2.17,1,22.39,22.39,0,0,1-2.21.67c-1,.21-1.88.39-2.75.5a16.07,16.07,0,0,1-2.3.17,8.54,8.54,0,0,1-7.74-3.42,11.16,11.16,0,0,1-1.76-7.5,17.22,17.22,0,0,1,.28-1.75,13.7,13.7,0,0,1,.5-1.69.22.22,0,0,1,0-.12.29.29,0,0,1,.1-.12v-.1a.51.51,0,0,1,.09-.16.67.67,0,0,0,.06-.12,20.57,20.57,0,0,1,5.76-8.5,27.4,27.4,0,0,1,7.12-4.45,23.39,23.39,0,0,1,4-1.21,16.48,16.48,0,0,1,3-.35,16.18,16.18,0,0,1,4.16.45,8,8,0,0,1,2.9,1.39l-1.49,4.1a10.08,10.08,0,0,0-1.17-1,9.59,9.59,0,0,0-1.3-.79,8,8,0,0,0-2-.75,10.5,10.5,0,0,0-2.16-.23,15.16,15.16,0,0,0-9.27,3.53,17.69,17.69,0,0,0-6.17,7.82,8.67,8.67,0,0,0,.4,8.47,7.89,7.89,0,0,0,6.72,3.17,6.44,6.44,0,0,0,1,0,9.83,9.83,0,0,0,1.07-.15,16,16,0,0,0,3.25-.89,18,18,0,0,0,3.3-1.69Z" transform="translate(-0.69 -0.69)"/><path class="c" d="M883,523.88c.09-.2.18-.42.3-.67a15.35,15.35,0,0,1,4.58-5.26,12.31,12.31,0,0,1,7.59-2.37,10.41,10.41,0,0,1,1.58.12,6.58,6.58,0,0,1,1.57.4,6,6,0,0,1,3.18,2.48,6.11,6.11,0,0,1,.1,5.25l-.22.57c-.1.27-.21.56-.35.86l-.48.93a16.83,16.83,0,0,1-4.84,5.24,11.78,11.78,0,0,1-7.18,2.38,6.87,6.87,0,0,1-5.56-1.75,5.87,5.87,0,0,1-1.34-3.81,9.73,9.73,0,0,1,.28-2,17.77,17.77,0,0,1,.52-1.76C882.79,524.29,882.87,524.06,883,523.88Zm15.08.3a6.42,6.42,0,0,0,.08-2.69,3.52,3.52,0,0,0-1.06-1.82,4,4,0,0,0-2.83-.83,7.38,7.38,0,0,0-5.31,1.84,10.4,10.4,0,0,0-2.8,4.11,4.51,4.51,0,0,0,.25,4,4.32,4.32,0,0,0,2.69,1.71c.21,0,.42.07.58.07a2.62,2.62,0,0,0,.56,0,7,7,0,0,0,4.34-1.62,10.54,10.54,0,0,0,3.05-3.55c0-.14.12-.26.18-.41l.17-.39.19-.53Z" transform="translate(-0.69 -0.69)"/><path class="c" d="M919.28,501.09l-11.82,32.47H904l11.82-32.47Z" transform="translate(-0.69 -0.69)"/><path class="c" d="M930.25,501.09l-11.83,32.47h-3.48l11.82-32.47Z" transform="translate(-0.69 -0.69)"/><path class="c" d="M942.51,529.17l-.67.72c-.24.24-.51.52-.75.81a16.87,16.87,0,0,1-3.45,2.36,10.87,10.87,0,0,1-5.11,1.08,4.85,4.85,0,0,1-4.81-2.63,8.08,8.08,0,0,1-.4-5.84,2.6,2.6,0,0,1,.1-.4c.05-.15.11-.29.17-.45a.26.26,0,0,1,0-.15.46.46,0,0,1,.13-.18c0-.06,0-.12.07-.19a.58.58,0,0,1,0-.14,18.3,18.3,0,0,1,4.59-6.32,10.43,10.43,0,0,1,7.3-2.77,4.78,4.78,0,0,1,4.63,2,7.63,7.63,0,0,1,.83,4.45,15.7,15.7,0,0,1-.29,1.55,12.38,12.38,0,0,1-.43,1.47l-.29.8H931a4.41,4.41,0,0,0,.1,4,3.53,3.53,0,0,0,3.2,1.55h.49a2.89,2.89,0,0,0,.5-.08,8.17,8.17,0,0,0,2.55-1,9.19,9.19,0,0,0,2.35-2.09Zm-1.12-9.84a2.82,2.82,0,0,0-2.68-1.35,5.69,5.69,0,0,0-.83.08,6.84,6.84,0,0,0-.92.21,9.49,9.49,0,0,0-2.69,1.46,8.76,8.76,0,0,0-2.35,3h9.76A4.55,4.55,0,0,0,941.39,519.33Z" transform="translate(-0.69 -0.69)"/><path class="c" d="M966.27,516.22h3.58l-6.31,17.34a15.23,15.23,0,0,1-5.13,7.85,13,13,0,0,1-5.85,2.14H951a5.71,5.71,0,0,1-5.24-2.24,6.36,6.36,0,0,1-.13-5.76h3.18c-.1.31-.19.63-.26,1a4.73,4.73,0,0,0-.12,1.18,2.72,2.72,0,0,0,.77,2,4.36,4.36,0,0,0,3.19.87h.35a1.5,1.5,0,0,0,.37,0,7.69,7.69,0,0,0,3.4-1.24,7.06,7.06,0,0,0,2.69-3.7l1.58-4.33-.51.47c-.19.15-.37.31-.55.47a9.94,9.94,0,0,1-2.4,1.35,11.65,11.65,0,0,1-4.15.57,4.73,4.73,0,0,1-4.74-2.61,9,9,0,0,1,.33-7,1.22,1.22,0,0,1,.11-.32c.05-.11.08-.21.14-.35a15.8,15.8,0,0,1,4.63-5.87,10.82,10.82,0,0,1,7-2.65,5.07,5.07,0,0,1,1.29.17,9.46,9.46,0,0,1,1.41.57,5,5,0,0,1,1.18,1.11,4.08,4.08,0,0,1,.74,1.66Zm-2.47,4.2a3.53,3.53,0,0,0-2-1.94c-.25-.07-.52-.11-.79-.17a5.16,5.16,0,0,0-.78-.08,7.14,7.14,0,0,0-5,2,11.7,11.7,0,0,0-3.09,4.4v.15a.06.06,0,0,0,0,.06v.08a6.44,6.44,0,0,0-.12,4.33,3.05,3.05,0,0,0,3.28,2,8.66,8.66,0,0,0,4.55-1.42,8.1,8.1,0,0,0,3.41-4.37l.24-.67a5.84,5.84,0,0,0,.25-4.4Z" transform="translate(-0.69 -0.69)"/><path class="c" d="M987.13,529.17l-.67.72c-.24.24-.51.52-.77.81a16.53,16.53,0,0,1-3.44,2.36,10.91,10.91,0,0,1-5.12,1.08,4.83,4.83,0,0,1-4.8-2.63,8.08,8.08,0,0,1-.4-5.84,1.32,1.32,0,0,1,.11-.4c0-.15.1-.29.16-.45a.26.26,0,0,1,0-.15.44.44,0,0,1,.12-.18c0-.06,0-.12.07-.19l.06-.14a18.4,18.4,0,0,1,4.58-6.32,10.47,10.47,0,0,1,7.3-2.77,4.79,4.79,0,0,1,4.65,2,7.55,7.55,0,0,1,.82,4.45,13.22,13.22,0,0,1-.28,1.55,12.38,12.38,0,0,1-.43,1.47l-.3.8H975.6a4.47,4.47,0,0,0,.1,4,3.55,3.55,0,0,0,3.21,1.55h.49a2.94,2.94,0,0,0,.49-.08,8.17,8.17,0,0,0,2.55-1,9.24,9.24,0,0,0,2.36-2.09ZM986,519.33a2.85,2.85,0,0,0-2.73-1.35,5.69,5.69,0,0,0-.82.08,7.77,7.77,0,0,0-.93.21,9.41,9.41,0,0,0-2.65,1.46,8.64,8.64,0,0,0-2.35,3h9.75A4.55,4.55,0,0,0,986,519.33Z" transform="translate(-0.69 -0.69)"/><path class="c" d="M1016.36,523.88c.08-.2.18-.42.3-.67a15,15,0,0,1,4.58-5.26,12.26,12.26,0,0,1,7.57-2.37,10.41,10.41,0,0,1,1.58.12,6.66,6.66,0,0,1,1.58.4,5.36,5.36,0,0,1,3.71,6.63,5.53,5.53,0,0,1-.45,1.1l-.21.57a7.12,7.12,0,0,1-.36.86c-.14.31-.29.61-.47.93a16.94,16.94,0,0,1-4.84,5.24,11.81,11.81,0,0,1-7.17,2.38,6.89,6.89,0,0,1-5.57-1.75,5.87,5.87,0,0,1-1.34-3.81,11.31,11.31,0,0,1,.28-2,17.83,17.83,0,0,1,.53-1.76C1016.18,524.29,1016.27,524.06,1016.36,523.88Zm15.09.3a7,7,0,0,0,.08-2.69,3.64,3.64,0,0,0-1.07-1.82,4,4,0,0,0-2.84-.83,7.37,7.37,0,0,0-5.3,1.84,10.4,10.4,0,0,0-2.8,4.11,4.48,4.48,0,0,0,.26,4,4.23,4.23,0,0,0,2.69,1.71,3.7,3.7,0,0,0,.57.07,2.53,2.53,0,0,0,.55,0,6.94,6.94,0,0,0,4.34-1.62,10.66,10.66,0,0,0,3.06-3.55c0-.14.11-.28.17-.41s.13-.27.18-.39l.18-.53Z" transform="translate(-0.69 -0.69)"/><path class="c" d="M1041.45,519.15l1.08-2.93H1044l3.11-8.58q.21-.57.54-1.41a11.51,11.51,0,0,1,.89-1.75,10.44,10.44,0,0,1,2.41-2.8,6,6,0,0,1,3.93-1.25c.34,0,.68,0,1,.08a11.84,11.84,0,0,1,1.19.21,1.31,1.31,0,0,1,.28,0l.25.08-1.28,3.54a3.28,3.28,0,0,0-.38-.27,2.14,2.14,0,0,0-.4-.2l-.67-.19a2.76,2.76,0,0,0-.63-.1,3.16,3.16,0,0,0-2,.86,5.88,5.88,0,0,0-1.65,2.59l-3.36,9.18H1052l-1.07,2.93h-4.81l-5.26,14.41h-3.2l5.25-14.41h-1.48Z" transform="translate(-0.69 -0.69)"/><path class="c" d="M1095.85,533.56H1092l-.68-7h-12.72l-5.8,7H1069l24-29.49ZM1081,523.24h10.07l-.92-11.21Z" transform="translate(-0.69 -0.69)"/><path class="c" d="M1121.93,516.22l-3.65,10a15,15,0,0,1-3.72,5.61,9,9,0,0,1-6.56,2.55,5.75,5.75,0,0,1-4.73-1.93,5.56,5.56,0,0,1-.22-5.65l3.86-10.61h3.53l-3.55,9.75c-.11.29-.19.58-.28.9a4.85,4.85,0,0,0-.15.94,4.08,4.08,0,0,0,.38,2.38,2.36,2.36,0,0,0,2.32,1.06,4.59,4.59,0,0,0,3.54-1.43,10.37,10.37,0,0,0,2.11-3.58l3.65-10Z" transform="translate(-0.69 -0.69)"/><path class="c" d="M1132.2,509.67h3.27l-2.38,6.55h3.58l-1.17,3.2h-3.58l-5.14,14.15h-3.25l5.15-14.15h-2l1.18-3.2h2Z" transform="translate(-0.69 -0.69)"/><path class="c" d="M1136.81,523.88l.29-.67a15.09,15.09,0,0,1,4.59-5.26,12.24,12.24,0,0,1,7.57-2.37,10.41,10.41,0,0,1,1.58.12,6.66,6.66,0,0,1,1.58.4,5.37,5.37,0,0,1,3.71,6.63,5.53,5.53,0,0,1-.45,1.1l-.2.57c-.11.27-.22.56-.36.86s-.3.61-.47.93a17.21,17.21,0,0,1-4.85,5.24,11.79,11.79,0,0,1-7.17,2.38,6.9,6.9,0,0,1-5.57-1.75,5.82,5.82,0,0,1-1.34-3.81,11.44,11.44,0,0,1,.28-2,17.77,17.77,0,0,1,.52-1.76A6.53,6.53,0,0,0,1136.81,523.88Zm15.08.3a7,7,0,0,0,.08-2.69,3.54,3.54,0,0,0-1-1.82,4,4,0,0,0-2.84-.83,7.39,7.39,0,0,0-5.31,1.84,10.38,10.38,0,0,0-2.79,4.11,4.48,4.48,0,0,0,.25,4,4.29,4.29,0,0,0,2.69,1.71,3.68,3.68,0,0,0,.58.07,2.53,2.53,0,0,0,.55,0,6.9,6.9,0,0,0,4.33-1.62,10.43,10.43,0,0,0,3-3.55c0-.14.11-.26.18-.41s.12-.27.17-.39l.19-.53Z" transform="translate(-0.69 -0.69)"/><path class="c" d="M1166.36,518c.11-.11.28-.29.52-.51s.54-.47.9-.76a10.11,10.11,0,0,1,1.82-.94,6.82,6.82,0,0,1,2.49-.41h.58a3.57,3.57,0,0,1,.56.07,3.51,3.51,0,0,1,1.77.89,3.38,3.38,0,0,1,.89,2.26c.17-.17.32-.32.52-.5s.39-.36.62-.54a15.53,15.53,0,0,1,2.5-1.51,7,7,0,0,1,3.12-.67h.67c1.93.31,3,1.11,3.16,2.39a11.74,11.74,0,0,1-.94,5.23l-3.86,10.61h-3.2l3.86-10.61a5.61,5.61,0,0,0,.43-3.18c-.19-.82-.89-1.2-2.08-1.2a5.39,5.39,0,0,0-3.2,1,7.62,7.62,0,0,0-2.37,3.65l-3.75,10.32h-3.58l4.08-11.22a3.17,3.17,0,0,0,.14-2.8,2.14,2.14,0,0,0-1.6-.9.42.42,0,0,0-.24,0h-.59a.83.83,0,0,0-.35,0,5.77,5.77,0,0,0-2.52,1,6.8,6.8,0,0,0-2.18,3.31l-3.86,10.61h-3.49l6.32-17.34H1167Z" transform="translate(-0.69 -0.69)"/><path class="c" d="M1191.1,523.88l.31-.67A15,15,0,0,1,1196,518a12.31,12.31,0,0,1,7.59-2.37,10.41,10.41,0,0,1,1.58.12,6.58,6.58,0,0,1,1.57.4,5.37,5.37,0,0,1,3.72,6.63,5.53,5.53,0,0,1-.45,1.1l-.21.57c-.1.27-.22.56-.36.86s-.29.61-.48.93a17.15,17.15,0,0,1-4.83,5.24,11.84,11.84,0,0,1-7.18,2.38,6.87,6.87,0,0,1-5.56-1.75,5.88,5.88,0,0,1-1.35-3.81,11.44,11.44,0,0,1,.28-2c.17-.67.33-1.22.52-1.76C1190.91,524.29,1191,524.06,1191.1,523.88Zm15.08.3a6.59,6.59,0,0,0,.08-2.69,3.52,3.52,0,0,0-1.06-1.82,4,4,0,0,0-2.83-.83,7.43,7.43,0,0,0-5.32,1.84,10.4,10.4,0,0,0-2.8,4.11,4.51,4.51,0,0,0,.26,4,4.27,4.27,0,0,0,2.69,1.71,3.68,3.68,0,0,0,.58.07,2.53,2.53,0,0,0,.55,0,6.86,6.86,0,0,0,4.33-1.62,10.66,10.66,0,0,0,3.06-3.55c0-.14.11-.26.17-.41a2,2,0,0,0,.18-.39l.19-.53Z" transform="translate(-0.69 -0.69)"/><path class="c" d="M1223.84,500.82h3.52l-6.46,17.76a13.26,13.26,0,0,1,2.61-1.91,12,12,0,0,1,2.76-1.1,3.9,3.9,0,0,1,.9-.19h.84a8.81,8.81,0,0,1,1.54.13,10.9,10.9,0,0,1,1.61.43,5.68,5.68,0,0,1,2.82,2.69,7,7,0,0,1-.31,5.58,15.56,15.56,0,0,1-3.9,6.35,15,15,0,0,1-4.64,3,17.36,17.36,0,0,1-2,.5,8.5,8.5,0,0,1-1.66.17,5.52,5.52,0,0,1-3.46-.94,4.59,4.59,0,0,1-1.6-2.25l-1,2.63h-3.54Zm6.13,19.43c-.39-1.12-1.55-1.67-3.47-1.67a7.59,7.59,0,0,0-4.63,1.65,9.68,9.68,0,0,0-3.25,4.58,10.76,10.76,0,0,0-.35,1.14q-.15.66-.24,1.26a5,5,0,0,0,.54,2.77c.44.85,1.46,1.28,3,1.28a7.17,7.17,0,0,0,4.7-1.89,12,12,0,0,0,3.47-5.24A5.58,5.58,0,0,0,1230,520.25Z" transform="translate(-0.69 -0.69)"/><path class="c" d="M1249.63,506.51a2,2,0,0,1,.29.94,1.09,1.09,0,0,1,0,.36,1.36,1.36,0,0,1-.12.39,5.14,5.14,0,0,1-1.22,1.48,2.34,2.34,0,0,1-1.55.59c-.75,0-1.23-.23-1.43-.68a2,2,0,0,1,0-1.53,3.44,3.44,0,0,1,1.09-1.49,2.78,2.78,0,0,1,1.9-.68A1.46,1.46,0,0,1,1249.63,506.51Zm-3,9.71-6.31,17.34h-3.54l6.32-17.34h3.53Z" transform="translate(-0.69 -0.69)"/><path class="c" d="M1264.24,501.09l-11.82,32.47h-3.48l11.82-32.47Z" transform="translate(-0.69 -0.69)"/><path class="c" d="M1276.65,529.17l-.67.72c-.23.24-.51.52-.77.81a16.53,16.53,0,0,1-3.44,2.36,10.85,10.85,0,0,1-5.1,1.08,4.84,4.84,0,0,1-4.81-2.63,8,8,0,0,1-.4-5.84,1.31,1.31,0,0,1,.1-.4l.16-.45a.23.23,0,0,1,.06-.15.36.36,0,0,1,.12-.18.49.49,0,0,1,.07-.19l.06-.14a18.06,18.06,0,0,1,4.58-6.32,10.45,10.45,0,0,1,7.31-2.77,4.75,4.75,0,0,1,4.62,2,7.48,7.48,0,0,1,.83,4.45c-.07.52-.17,1-.28,1.55a14.6,14.6,0,0,1-.43,1.47l-.3.8h-13.24a4.44,4.44,0,0,0,.1,4,3.55,3.55,0,0,0,3.21,1.55h.47a3.17,3.17,0,0,0,.51-.08,8,8,0,0,0,2.54-1,9.24,9.24,0,0,0,2.36-2.09Zm-1.12-9.84a2.84,2.84,0,0,0-2.72-1.35,5.69,5.69,0,0,0-.83.08,7.77,7.77,0,0,0-.93.21,9.57,9.57,0,0,0-2.68,1.46,8.44,8.44,0,0,0-2.35,3h9.76a4.6,4.6,0,0,0-.25-3.38Z" transform="translate(-0.69 -0.69)"/><line class="v" x1="450.75" y1="532.21" x2="488.93" y2="504.22"/><line class="v" x1="478.74" y1="532.21" x2="460.94" y2="504.22"/></svg>