<svg xmlns="http://www.w3.org/2000/svg" viewBox="0 0 2035.54 414.27"><path d="M188.33,414H1.72V395.43H3.83c36,0,53.05-6.15,53.05-41.12V74c0-16.85-2.59-26.73-8.38-32S32.94,35.6,20.15,35.6H6.23V17.35L133.14.16V354.31c0,35,17.12,41.12,53.08,41.12h2.11ZM5.94,409.83h178.2V399.55c-35.81-.31-55.17-8-55.17-45.24V4.89L10.4,20.91V31.49h9.75c28.89,0,41,5.89,41,42.48V354.31c0,18.87-5,30.86-15.67,37.62a75.35,75.35,0,0,1-39.5,7.62Z"/><path d="M.41,231.2H21v33.62h.29c2-2.88,4.18-5.57,6.4-8.29l20.74-25.28H74.09l-30.4,32.33,31.9,43.65H51.45L28.78,273,21,281v26.28H.41Z"/><path d="M188.79,305.19a73.13,73.13,0,0,1-23.46,3.26c-31.8,0-48.16-16.47-48.16-38.2,0-25.93,22.42-40.29,50.19-40.29A64.26,64.26,0,0,1,190,233.41L185.67,247a51.75,51.75,0,0,0-17.49-2.83c-16.38,0-29.2,8.19-29.2,25.21,0,15.26,11,24.8,29.37,24.8a59.25,59.25,0,0,0,17.45-2.44Z"/><rect x="84.32" y="231.2" width="20.73" height="76.04"/><path d="M283.5,366.11H292v21.66h.21l12.44-21.66h8.51l-11.62,19,13.8,28.39h-9.06l-9.69-21L292,399.33v14.18H283.5Z"/><path d="M361.11,402.87a8.73,8.73,0,0,1-1.12,4.35,11.19,11.19,0,0,1-2.94,3.51,14.38,14.38,0,0,1-4.41,2.33,14.81,14.81,0,0,1-5.32.86,15.23,15.23,0,0,1-5.35-.86,15,15,0,0,1-4.39-2.33,12.23,12.23,0,0,1-3-3.51,9.28,9.28,0,0,1-1.08-4.35V366.11h8.54v36.15a4.58,4.58,0,0,0,1.48,3.73,6.12,6.12,0,0,0,3.77,1.15A5.89,5.89,0,0,0,351,406a4.45,4.45,0,0,0,1.51-3.73V366.11h8.55v36.76Z"/><path d="M383.6,366.11h13.69q15,0,15,13.92a14,14,0,0,1-1.65,7.11,11.4,11.4,0,0,1-5.69,4.74l9.19,21.64h-9l-7.94-20.25h-5.09v20.25h-8.51V366.11Zm8.5,21.18h4.83a9.87,9.87,0,0,0,3.58-.51,4,4,0,0,0,2.08-1.43,5.51,5.51,0,0,0,1-2.3,18.62,18.62,0,0,0,.25-3.16,19.83,19.83,0,0,0-.25-3.17,5.46,5.46,0,0,0-1-2.33,4.28,4.28,0,0,0-2.2-1.43,13.12,13.12,0,0,0-3.79-.45h-4.41Z"/><path d="M461.2,402.87a9,9,0,0,1-1.08,4.35,12.11,12.11,0,0,1-3,3.51,14.43,14.43,0,0,1-4.4,2.33,14.84,14.84,0,0,1-5.32.86,15.23,15.23,0,0,1-5.35-.86,14.55,14.55,0,0,1-4.38-2.33,11.3,11.3,0,0,1-2.94-3.51,8.63,8.63,0,0,1-1.12-4.35V366.11h8.54v36.15a4.45,4.45,0,0,0,1.51,3.73,6,6,0,0,0,3.74,1.15,5.91,5.91,0,0,0,3.74-1.15,4.49,4.49,0,0,0,1.53-3.73V366.11h8.51Z"/><path d="M483.65,366.11h8.19l10.94,25.12H503l10.86-25.12h8.28v47.41h-8.52v-28.8h-.19L505,405.08h-4.23l-8.38-20.38h-.14v28.82h-8.56Z"/><path d="M544.57,366.11H570v6.4H553.08v13.93h14.74v6.39H553.08v13.92H570v6.77H544.57Z"/><path d="M620.2,366.11h8.5v47.41h-8.5Z"/><path d="M650.55,366.11h8.2l12.83,28.56h.19V366.11h8.55v47.41h-8l-13-28.44h-.19v28.44h-8.51Z"/><path d="M702.4,366.11H715a17.13,17.13,0,0,1,11.14,3.2,11.33,11.33,0,0,1,3.85,9v22.17a11.64,11.64,0,0,1-4.07,9.85,18.68,18.68,0,0,1-11.66,3.14H702.39v-47.4Zm8.5,41h3.93a7.23,7.23,0,0,0,5.06-1.41,5.85,5.85,0,0,0,1.52-4.52V378.35A6.28,6.28,0,0,0,720,374a7,7,0,0,0-5.18-1.53h-3.93v34.63Z"/><path d="M779.88,402.87a8.8,8.8,0,0,1-1.08,4.35,11.82,11.82,0,0,1-2.94,3.51,14.21,14.21,0,0,1-4.4,2.33,16.38,16.38,0,0,1-10.71,0,14.74,14.74,0,0,1-4.35-2.33,12.14,12.14,0,0,1-3-3.51,8.83,8.83,0,0,1-1.11-4.35V366.11h8.54v36.15a4.59,4.59,0,0,0,1.5,3.73,6,6,0,0,0,3.76,1.15,5.81,5.81,0,0,0,3.74-1.15,4.53,4.53,0,0,0,1.53-3.73V366.11h8.51Z"/><path d="M829.89,379.77h-8.52v-1.53a6.17,6.17,0,0,0-1.38-4.06,5.7,5.7,0,0,0-4.66-1.73,6.36,6.36,0,0,0-2.85.54,4.06,4.06,0,0,0-1.72,1.35,4.74,4.74,0,0,0-.86,1.93,9.94,9.94,0,0,0-.25,2.3,15.36,15.36,0,0,0,.12,2.35,2.9,2.9,0,0,0,.67,1.66,3.77,3.77,0,0,0,1.41,1.25,19.38,19.38,0,0,0,2.63,1.08l6.52,2a18.46,18.46,0,0,1,4.65,2.07,8.9,8.9,0,0,1,2.66,2.7,9.28,9.28,0,0,1,1.3,3.62A29.76,29.76,0,0,1,830,400a20.54,20.54,0,0,1-.74,5.57,10.27,10.27,0,0,1-2.5,4.38,11.77,11.77,0,0,1-4.55,2.93,20.33,20.33,0,0,1-7,1.06,17.47,17.47,0,0,1-5.74-.87,14.57,14.57,0,0,1-4.56-2.32,11.87,11.87,0,0,1-3.08-3.61,9.09,9.09,0,0,1-1.13-4.45v-2.53h8.52v2.15a4.82,4.82,0,0,0,1.38,3.36,6.09,6.09,0,0,0,4.61,1.47,9.64,9.64,0,0,0,3.45-.48,4.26,4.26,0,0,0,1.81-1.41,4.76,4.76,0,0,0,.82-2.25c.06-.86.16-1.84.16-2.9,0-1.24-.1-2.28-.16-3.07a3.83,3.83,0,0,0-.75-1.91,3.41,3.41,0,0,0-1.5-1.21,19.54,19.54,0,0,0-2.52-1l-6-2a13.37,13.37,0,0,1-7.43-4.72,13.69,13.69,0,0,1-1.91-7.47,14.1,14.1,0,0,1,1-5.05,11.06,11.06,0,0,1,2.72-4.15,13.58,13.58,0,0,1,4.54-2.76,18.74,18.74,0,0,1,6.44-1,17,17,0,0,1,5.78.95,14.89,14.89,0,0,1,4.52,2.52,10.87,10.87,0,0,1,2.91,3.45,8.3,8.3,0,0,1,1,3.87v3.33Z"/><path d="M856.23,372.51h-9.86v-6.4h28.24v6.4h-9.84v41h-8.54Z"/><path d="M892.73,366.11h13.69c10.07,0,15.06,4.64,15.06,13.92a14.67,14.67,0,0,1-1.65,7.11,11.36,11.36,0,0,1-5.73,4.74l9.19,21.64h-9l-8-20.25h-5v20.25h-8.53Zm8.55,21.18h4.83a10.41,10.41,0,0,0,3.59-.51,4.16,4.16,0,0,0,2-1.43,4.9,4.9,0,0,0,.92-2.29,16.08,16.08,0,0,0,.25-3.17,16.7,16.7,0,0,0-.25-3.16,4.54,4.54,0,0,0-3.23-3.76,13.34,13.34,0,0,0-3.77-.46h-4.41v14.78Z"/><path d="M943,366.11h8.5v47.41H943Z"/><path d="M983.61,366.11h7.1L1004,413.52h-8.54L993,403.35H981.36l-2.5,10.17H970.3Zm3.61,13.66H987L982.84,397h8.55Z"/><path d="M1022.54,366.11h8.53v40.63H1048v6.78h-25.41V366.1Z"/><path d="M1124.85,403a8.92,8.92,0,0,1-1,4.18,11,11,0,0,1-2.84,3.51,15.2,15.2,0,0,1-4.31,2.4,15.72,15.72,0,0,1-5.3.92,23.35,23.35,0,0,1-4.93-.55,14,14,0,0,1-4.49-1.79,10.14,10.14,0,0,1-4.63-8.85V376.65a9.17,9.17,0,0,1,1.06-4.35,10.73,10.73,0,0,1,2.79-3.45,13.92,13.92,0,0,1,4.41-2.28,18.23,18.23,0,0,1,5.63-.86,17.58,17.58,0,0,1,5.44.86,14.33,14.33,0,0,1,4.36,2.33,10.83,10.83,0,0,1,2.84,3.6,10,10,0,0,1,1,4.57v2.68h-8.5v-2.28a4.64,4.64,0,0,0-1.44-3.45,4.94,4.94,0,0,0-3.83-1.47,4.65,4.65,0,0,0-4.2,1.57,6.92,6.92,0,0,0-1,3.94v24.27a5.35,5.35,0,0,0,1.12,3.45,4.84,4.84,0,0,0,4,1.41,8,8,0,0,0,1.82-.22,5.67,5.67,0,0,0,1.72-.77,3.82,3.82,0,0,0,1.31-1.48,4.94,4.94,0,0,0,.46-2.3v-2.34h8.51V403Z"/><path d="M1145.69,377.29a9.73,9.73,0,0,1,1.28-5.08,11.25,11.25,0,0,1,3.24-3.59,14.76,14.76,0,0,1,4.63-2.17,17.82,17.82,0,0,1,10.28,0,14.19,14.19,0,0,1,4.58,2.17,11.31,11.31,0,0,1,3.33,3.59,10.59,10.59,0,0,1,1.23,5.08v25.09a10.17,10.17,0,0,1-1.23,5.09,11.24,11.24,0,0,1-3.33,3.6,14.21,14.21,0,0,1-4.58,2.14,17.45,17.45,0,0,1-5.12.76,17.8,17.8,0,0,1-5.18-.76,15.12,15.12,0,0,1-4.63-2.14,11,11,0,0,1-3.24-3.6,9.46,9.46,0,0,1-1.28-5.09Zm8.55,25.08A4.13,4.13,0,0,0,1156,406a7.08,7.08,0,0,0,4.07,1.15,6.93,6.93,0,0,0,4-1.15,4.08,4.08,0,0,0,1.73-3.62V377.29a4.11,4.11,0,0,0-1.73-3.62,7.68,7.68,0,0,0-8.12,0,4.13,4.13,0,0,0-1.72,3.62Z"/><path d="M1196.2,366.11h8.51v40.63h16.86v6.78h-25.35V366.1Z"/><path d="M1241.49,366.11H1250v40.63h16.87v6.78H1241.5V366.1Z"/><path d="M1286.78,366.11h25.38v6.4h-16.85v13.93H1310v6.39h-14.65v13.92h16.85v6.77h-25.38Z"/><path d="M1331.59,377.29a10.47,10.47,0,0,1,1.25-5.08,11.27,11.27,0,0,1,3.28-3.59,15,15,0,0,1,4.63-2.17,16.78,16.78,0,0,1,5.17-.76,17.4,17.4,0,0,1,5.12.76,14.88,14.88,0,0,1,4.59,2.17,11.38,11.38,0,0,1,3.28,3.59,9.83,9.83,0,0,1,1.26,5.08v2.42h-8.52v-2.42a4.08,4.08,0,0,0-1.72-3.62,7.66,7.66,0,0,0-8.09,0,4,4,0,0,0-1.72,3.62v25.09a4,4,0,0,0,1.72,3.62,6.94,6.94,0,0,0,4.07,1.15,6.78,6.78,0,0,0,4-1.15,4.06,4.06,0,0,0,1.73-3.62v-9h-6.8v-6h15.32v14.93a9.56,9.56,0,0,1-1.26,5.09,11.3,11.3,0,0,1-3.28,3.6,14.8,14.8,0,0,1-4.59,2.14,17.79,17.79,0,0,1-10.29,0,15.25,15.25,0,0,1-4.63-2.14,11,11,0,0,1-3.28-3.6,10.08,10.08,0,0,1-1.25-5.09Z"/><path d="M1382,366.11h25.41v6.4h-16.92v13.93h14.66v6.39h-14.66v13.92h16.9v6.77H1382Z"/><path d="M1456.83,377.29a10.57,10.57,0,0,1,1.21-5.08,12.53,12.53,0,0,1,3.29-3.59,15,15,0,0,1,4.64-2.17,16.78,16.78,0,0,1,5.17-.76,17.45,17.45,0,0,1,5.17.76,15.34,15.34,0,0,1,4.61,2.17,11.1,11.1,0,0,1,3.26,3.59,10.13,10.13,0,0,1,1.29,5.08v25.09a9.77,9.77,0,0,1-1.29,5.09,10.92,10.92,0,0,1-3.26,3.6,15.27,15.27,0,0,1-4.61,2.14,17.78,17.78,0,0,1-5.17.76,17.4,17.4,0,0,1-5.17-.76,15.19,15.19,0,0,1-4.64-2.14,12,12,0,0,1-3.29-3.6,10.36,10.36,0,0,1-1.21-5.09Zm8.46,25.08A4.08,4.08,0,0,0,1467,406a6.89,6.89,0,0,0,4.06,1.15,6.79,6.79,0,0,0,4-1.15,4,4,0,0,0,1.72-3.62V377.29a4.06,4.06,0,0,0-1.72-3.62,7.66,7.66,0,0,0-8.09,0,4,4,0,0,0-1.72,3.62Z"/><path d="M1507.3,366.11h25.34v6.4h-16.87v14.37h14.71v6.4h-14.71v20.24h-8.48V366.11Z"/><path d="M1591.94,366.11h7.11l13.31,47.41h-8.56l-2.5-10.16h-11.61l-2.42,10.16h-8.62Zm3.62,13.66h-.18l-4.2,17.19h8.57Z"/><path d="M1658.46,402.87a9.28,9.28,0,0,1-1.08,4.35,12.57,12.57,0,0,1-2.94,3.51,16.39,16.39,0,0,1-15.1,2.33,14.05,14.05,0,0,1-4.39-2.33,11.5,11.5,0,0,1-3-3.51,8.7,8.7,0,0,1-1.09-4.35V366.11h8.51v36.15a4.59,4.59,0,0,0,1.51,3.73,6,6,0,0,0,3.76,1.15,5.92,5.92,0,0,0,3.75-1.15,4.59,4.59,0,0,0,1.53-3.73V366.11h8.5Z"/><path d="M1686.48,372.51h-9.85v-6.4h28.25v6.4H1695v41h-8.51Z"/><path d="M1721.06,377.29a10.47,10.47,0,0,1,1.25-5.08,11.11,11.11,0,0,1,3.33-3.59,14,14,0,0,1,4.58-2.17,16.82,16.82,0,0,1,5.17-.76,17.47,17.47,0,0,1,5.18.76,15.83,15.83,0,0,1,4.61,2.17,11.38,11.38,0,0,1,3.28,3.59,10.44,10.44,0,0,1,1.22,5.08v25.09a9.85,9.85,0,0,1-1.22,5.09,11.3,11.3,0,0,1-3.28,3.6,15.75,15.75,0,0,1-4.61,2.14,17.89,17.89,0,0,1-10.3,0,14.21,14.21,0,0,1-4.58-2.14,10.9,10.9,0,0,1-3.32-3.6,10.06,10.06,0,0,1-1.25-5.09Zm8.51,25.08a4.16,4.16,0,0,0,1.73,3.62,7.76,7.76,0,0,0,8.13,0,4.13,4.13,0,0,0,1.72-3.62V377.29a4.13,4.13,0,0,0-1.72-3.62,7.7,7.7,0,0,0-8.13,0,4.11,4.11,0,0,0-1.73,3.62Z"/><path d="M1771.65,366.11h8.2l10.93,25.12h.18l10.85-25.12h8.31v47.41h-8.57v-28.8h-.14l-8.47,20.38h-4.26l-8.33-20.38h-.15v28.8h-8.53V366.11Z"/><path d="M1832,377.29a10.57,10.57,0,0,1,1.24-5.08,11.13,11.13,0,0,1,3.34-3.59,13.89,13.89,0,0,1,4.58-2.17,16.78,16.78,0,0,1,5.17-.76,17.45,17.45,0,0,1,5.17.76,15.35,15.35,0,0,1,4.59,2.17,11.33,11.33,0,0,1,3.3,3.59,10.32,10.32,0,0,1,1.21,5.08v25.09a9.94,9.94,0,0,1-1.21,5.09,11.15,11.15,0,0,1-3.3,3.6,15.27,15.27,0,0,1-4.59,2.14,17.85,17.85,0,0,1-10.29,0,14.21,14.21,0,0,1-4.58-2.14,11,11,0,0,1-3.34-3.6,10.39,10.39,0,0,1-1.24-5.09Zm8.54,25.08a4.11,4.11,0,0,0,1.73,3.62,7.76,7.76,0,0,0,8.13,0,4.13,4.13,0,0,0,1.72-3.62V377.29a4.13,4.13,0,0,0-1.72-3.62,7.7,7.7,0,0,0-8.13,0,4.07,4.07,0,0,0-1.73,3.62Z"/><path d="M1882.57,366.11H1895a21.94,21.94,0,0,1,7,1,14.75,14.75,0,0,1,4.74,2.68,9.43,9.43,0,0,1,2.58,3.8,13.39,13.39,0,0,1,.78,4.52v1.77a11.29,11.29,0,0,1-.35,3.22,6.81,6.81,0,0,1-1.13,2.33,8.63,8.63,0,0,1-1.8,1.77,19,19,0,0,1-2.58,1.43,8.44,8.44,0,0,1,4.45,3.36,11.39,11.39,0,0,1,1.37,6v2.69a12,12,0,0,1-3.74,9.56,18.11,18.11,0,0,1-12.18,3.32h-11.62V366.11Zm8.51,19.45h3.84a5.84,5.84,0,0,0,7.11-4.22,5.78,5.78,0,0,0,.1-2.45,6.52,6.52,0,0,0-1.64-4.79,8.35,8.35,0,0,0-5.88-1.59h-3.54v13.05Zm0,21.18h3.72a11.16,11.16,0,0,0,4-.6,5.12,5.12,0,0,0,2.23-1.64,5.89,5.89,0,0,0,.92-2.59,24.27,24.27,0,0,0,.17-3.19,19.61,19.61,0,0,0-.25-3.16,4.32,4.32,0,0,0-3.29-3.59,13.29,13.29,0,0,0-3.71-.46h-3.75v15.2Z"/><path d="M1932.9,366.11h8.5v47.41h-8.5Z"/><path d="M1964.15,366.11h8.47v40.63h16.91v6.78h-25.37V366.1Z"/><path d="M2009.51,366.11h25.4v6.4H2018v13.93h14.65v6.39H2018v13.92h16.88v6.77h-25.4Z"/><path d="M343.84,226.16c-.86,0-7.34-.12-12.28-.22V230c0,1.62.12,3.73.12,5.69s0,6.36-9.15,6.36A23.9,23.9,0,0,1,311,239.12c-.26-.09-.3-.36-.3-.8,0-1,.64-2.46,1.21-2.46H312a24.61,24.61,0,0,0,7.6,1.35c4.81,0,5.31-1.91,5.31-4.31v-7.06H302.41c-4.18,0-16.64.09-18.11.29H284c-.3,0-.44-.07-.44-.29a2,2,0,0,1,.13-.58,6.25,6.25,0,0,0,.11-1.06,5.89,5.89,0,0,0-.11-1,3,3,0,0,1-.21-.74c0-.23.07-.36.44-.36h.34c1.45.23,13.92.36,18.11.36h22.41l-.25-2.83v-.3c0-.55.31-.69.78-.69h.48a8.1,8.1,0,0,0,.86.13,13.8,13.8,0,0,0,4-.64,1,1,0,0,1,.38-.05c.38,0,.57.17.57.7v.14c-.09,1.24-.12,2.37-.12,3.55,4.93-.19,11.43-.36,12.38-.51h0a.46.46,0,0,1,.49.44.09.09,0,0,1,0,.07,1.67,1.67,0,0,1-.12.7,2.66,2.66,0,0,0-.15,1,2.8,2.8,0,0,0,.15,1,1.53,1.53,0,0,1,.12.67c0,.25-.12.36-.49.36h-.13Zm-7.35-8.76c-1.38-.09-6.34-.09-9.23-.09h-27c-3.68,0-6.9,0-8.91.09-1,0-1.37-.22-1.37-.78v-.21c.13-1,.28-4.1.28-5.66v-9.18c0-1.47-.12-4.67-.16-5.65a1.4,1.4,0,0,0-.13-.36c0-.57.29-.7.86-.7h.37c.86.12,5.37.13,9.08.13h10.2v-4.57h-8.68c-4.25,0-15.26.16-16.76.32-.22,0-.23,0-.23,0-.51,0-.61-.16-.61-.48,0-.13.1-.36.1-.55a2,2,0,0,0,.21-.86,2.28,2.28,0,0,0-.21-1c0-.26-.1-.7-.1-.95s0-.39.44-.39h.32c1.57.27,12.57.49,17,.49h8.51c-.09-1.79-.13-4.06-.29-5.27v-.26c0-.44.18-.68.6-.68h1a18.28,18.28,0,0,0,4.54-.51,1.79,1.79,0,0,1,.51-.07c.25,0,.39.19.39.65v.35c-.14,1.51-.3,3.9-.3,5.79h9c4,0,15.81-.38,17.08-.49h.25a.32.32,0,0,1,.37.29v0a2.19,2.19,0,0,1-.34.92v1.72a1.46,1.46,0,0,1,.22.76c0,.26-.06.44-.5.44-1.31-.07-13.08-.33-17-.33h-9.05V195h10a66.94,66.94,0,0,0,9.81-.45h.49c.45,0,.49.09.49.57v.74c0,1.52-.14,3.74-.14,5.76V211c0,1.56.1,4.41.14,5.21v.24c0,.64-.24,1-1,1h-.26ZM307,239c-.23,0-.44-.27-.61-.51a33.09,33.09,0,0,0-11.75-9.06.62.62,0,0,1-.29-.55c0-.8.77-2,1.51-2,1.67,0,16.1,4.41,16.1,6,0,.25-.12.53-.63.77a11.14,11.14,0,0,0-3.45,4.5c-.26.58-.55.81-.86.81m3.49-40.69H296.76v6.18h13.69Zm0,9.36H296.76V214h13.69ZM331,198.32h-14v6.18h14Zm0,9.36h-14V214h14Z"/><path d="M353.78,241c.19-1.34.34-11.21.34-15V191.72c0-1.77-.13-6.33-.13-7.62v-.23c0-.55.19-.74.8-.74H355c1.93.13,4.39.13,6.52.13h7.71a62.2,62.2,0,0,0,8.06-.61.85.85,0,0,0,.31-.09c.6,0,.77.25.77.86v.26c-.19,2.4-.19,5.18-.19,6.65V208.2c0,.61-.16.77-1.08.77-1.38-.1-2.76-.18-5.23-.18h-11.3v17.89c0,2.81,0,13.2.16,14v.7c0,.26,0,.57-.45.57a1.16,1.16,0,0,1-.49-.09,13.26,13.26,0,0,0-2.59-.22c-.86,0-1.72.07-2.21.07a1.36,1.36,0,0,1-.68.24c-.34,0-.55-.24-.55-.78V241Zm18.1-54.4H360.6v7.58h11.28Zm0,10.92H360.6v8h11.28Zm36.73,35.95c0,5.53-3,7.54-8.91,7.54a26.72,26.72,0,0,1-12-2.88.93.93,0,0,1-.17-.67c0-1,.65-2.81,1.1-2.81h.07a28.94,28.94,0,0,0,8,1.18c4,0,5-1.24,5-4.55V208.9H390.93c-3.24,0-4.14.07-6,.18h-.29c-.86,0-1.18-.2-1.18-.77v-.13c.12-1.09.25-4.93.25-6.26V190.36c0-1.06,0-5.22-.15-6.47v-.25c0-.49.15-.65.51-.65s.29.09.58.09a56.56,56.56,0,0,0,6.24.2h7.75q4.45-.09,8.88-.61c.25,0,.25-.1.43-.1.46,0,.61.26.61.76v.31c-.25,2.2-.25,6.48-.25,8.73v28.26c0,3.75,0,9.12.25,12.07v.8Zm-6.94-46.85H390.12v7.58h11.55Zm0,10.91H390.12v8h11.55Z"/><path d="M343.14,300.38c-1.12-.13-10.72-.35-15.09-.35a21,21,0,0,1,.25,3.27c-.09,10.57-8.9,14.5-18.28,14.5a35.83,35.83,0,0,1-15.9-3.78,1.23,1.23,0,0,1-.14-.53c0-.92.75-2.49,1.25-2.49h.13a35,35,0,0,0,12.06,2.23c6.73,0,13.32-2.37,13.38-10.16a10.79,10.79,0,0,0-.35-3.05H300.68c-3.71,0-14.17.14-15.67.35h-.23c-.38,0-.51-.22-.51-.55v-.49a3.93,3.93,0,0,0,.18-1.18,2.8,2.8,0,0,0-.18-1,5.08,5.08,0,0,1-.13-.78c0-.25.09-.45.44-.45a.9.9,0,0,0,.32.09c1.57.27,11.94.44,15.74.44H318.4a15,15,0,0,0-8.48-4.31.86.86,0,0,1-.69-.92,1.29,1.29,0,0,1,.51-1A97.51,97.51,0,0,0,319.81,284H307.66c-2.36,0-10.35.23-11.21.36h-.25c-.39,0-.45-.13-.45-.36a1.29,1.29,0,0,1,.06-.48,3.5,3.5,0,0,0,.14-1,4.8,4.8,0,0,0-.14-1.25,5.58,5.58,0,0,1-.18-.81c0-.23.12-.34.44-.34h.36c1.09.27,8.89.44,11.38.44H319a111.94,111.94,0,0,0,11.41-.35h.24c.55,0,.71.32.71.61v2.68c0,.51-.41.86-1.21,1.28A109,109,0,0,1,317.61,290a15.78,15.78,0,0,1,9,6.46h.23c3.85,0,14.81-.19,16.38-.53h0c.38,0,.51.21.51.45a3.42,3.42,0,0,1-.19.78,2.29,2.29,0,0,0-.18,1,2.67,2.67,0,0,0,.18,1.11,6.35,6.35,0,0,1,.19.67.5.5,0,0,1-.53.46h-.1Zm-.15-22c0,1.38.1,3.24.15,4.36,0,.23.1.44.1.57,0,.46-.15.68-.57.68a10,10,0,0,1-1-.22,9.47,9.47,0,0,0-2.12-.21,15,15,0,0,0-2.5.21,4.83,4.83,0,0,1-.74.22c-.42,0-.48-.22-.48-.54a4.69,4.69,0,0,1,.06-.92c.09-1,.09-3.1.09-4.48v-3.8h-44.2v4.13c0,1.5,0,3.45.06,4.31,0,.22.09.42.09.65s-.09.46-.48.46a1.22,1.22,0,0,1-.65-.12,21.75,21.75,0,0,0-2.91-.17,5.93,5.93,0,0,0-1.83.17c-.32,0-.67.12-.86.12-.39,0-.52-.12-.52-.73v-.26c.13-1.5.29-3.17.29-4.41v-2.59c0-1-.12-2.21-.17-3.94,0-.23-.09-.44-.09-.57,0-.49.14-.61.86-.61H286c2.4.17,7,.17,11.2.17a1.88,1.88,0,0,1-.28-.61,25.18,25.18,0,0,0-6.34-11.07c-.13-.13-.13-.17-.13-.17,0-.64,1.43-1.59,1.93-1.59h.13a28.89,28.89,0,0,1,11.65,9c0,.27-.16.58-.81.78a14.69,14.69,0,0,0-5.06,3.55l-.07.1H323.3c-.68-.3-1.57-1.09-1.57-1.53a.23.23,0,0,1,.13-.25,35.28,35.28,0,0,0,7.43-12c.26-.44.48-.76.76-.76a1.3,1.3,0,0,1,.77.32,16.68,16.68,0,0,0,5.85,2.28c.47.09.58.34.58.58a38.15,38.15,0,0,1-13,11.36h5.67c4.6,0,10.16-.39,12.33-.61h.07c.67,0,.81.3.81.87a6.29,6.29,0,0,1-.05.86,36.46,36.46,0,0,0-.1,3.91v2.52Zm-35-21.87a38.05,38.05,0,0,1,10.85,8.9c.16.16.42.34.42.64s-.26.61-1,.87a10.47,10.47,0,0,0-4.87,3.32,1.31,1.31,0,0,1-.78.44c-.28,0-.52-.32-.64-.78a31.67,31.67,0,0,0-6.13-11.68c-.07,0-.07,0-.07-.12,0-.61,1.52-1.55,2-1.55Z"/><path d="M366.65,317.59c0,.58-.13.86-.63.86a6.21,6.21,0,0,1-.86-.16,12.21,12.21,0,0,0-1.6-.16,14.75,14.75,0,0,0-1.88.16c-.44.07-.78.16-1,.16-.44,0-.61-.21-.61-.69,0-.1.08-.44.08-.73.13-2,.26-10.84.36-13.9l.34-17.92A39.63,39.63,0,0,1,351,303.47c-.66,0-1.72-.92-1.72-1.5a.43.43,0,0,1,0-.22,87.77,87.77,0,0,0,10.11-29.26h-.13c-2.71,0-7.2.14-8.13.25h-.33c-.42,0-.48-.12-.48-.36a2.34,2.34,0,0,1,.13-.7,3.2,3.2,0,0,0,.11-.93,1.15,1.15,0,0,0-.11-.6,3.18,3.18,0,0,1-.16-.86c0-.25,0-.44.41-.44h.38a67.9,67.9,0,0,0,8.31.51h1.18V267.5c0-2.12-.23-8.06-.26-9.66v-.34c0-.46.19-.58.58-.58h1.05a16,16,0,0,0,3.44-.44,2.62,2.62,0,0,1,.78-.14c.25,0,.47.14.47.58v.21c-.22,2-.22,8.23-.22,10.09v2.22a56.33,56.33,0,0,0,7.68-.55h.22a.44.44,0,0,1,.44.44,5.69,5.69,0,0,1-.22.78,3.36,3.36,0,0,0-.15.7,4.19,4.19,0,0,0,.15.86c0,.29.22.55.22.77s-.18.37-.54.37H374c-1-.19-5.31-.25-7.51-.25h-.09v3.32a30.51,30.51,0,0,1,8.09,10,1.07,1.07,0,0,1-.56.78,10.74,10.74,0,0,0-3,3.31.61.61,0,0,1-.58.44c-.21,0-.47-.34-.55-.8a33.48,33.48,0,0,0-3.37-10.83v24.34c0,3.11.09,12.55.22,14Zm4.63,1c-.7,0-1.47-1.31-1.47-2a.51.51,0,0,1,.18-.42,41.35,41.35,0,0,0,18.88-12.47,47.64,47.64,0,0,1-6.65-18.45c0-.44,1.25-.86,2-.86.48,0,.7.12.77.29a34.45,34.45,0,0,0,6.69,15.11,38.3,38.3,0,0,0,5.06-15.6c.08-.44.25-.76.57-.76a.7.7,0,0,1,.54.22,8.62,8.62,0,0,0,4.64,1c.86,0,1.13.35,1.13.61a44.6,44.6,0,0,1-7.93,18.44,43.47,43.47,0,0,0,16.95,7.13c.39.1.58.27.58.55a.84.84,0,0,1-.44.65,12.35,12.35,0,0,0-4.5,5,1.1,1.1,0,0,1-.92.54,36.41,36.41,0,0,1-15.23-9.67,45.08,45.08,0,0,1-20.86,10.71m2.34-29.31v-.25a42.87,42.87,0,0,0,8.41-18c.09-.49.23-.78.57-.78a5.84,5.84,0,0,1,.73.29,12.65,12.65,0,0,0,4.9.87c1.22,0,1.37.34,1.37.55a2.37,2.37,0,0,1-.25.86,44.52,44.52,0,0,1-14,18.1c-.64,0-1.76-.94-1.76-1.54m36.45-20.84c-1.34-.12-7.62-.36-11.38-.36H386.51c-3.83,0-10.07.25-11.21.36H375c-.44,0-.47-.21-.47-.5v-.56a7,7,0,0,0,0-1,6,6,0,0,0,0-1,6.63,6.63,0,0,0-.16-.77c0-.32.16-.49.39-.49s.2.1.34.1c1.35.23,7.36.44,11.37.44h1.91v-1.23a42,42,0,0,0-.22-5.49v-.29c0-.55.22-.74.87-.74h.86a25.13,25.13,0,0,0,4.8-.61,2,2,0,0,1,.6-.06c.36,0,.44.18.44.53a3.25,3.25,0,0,1-.06.76,55.2,55.2,0,0,0-.28,6v1.09h3.3c3.94,0,10.07-.36,11.41-.54h.16a.46.46,0,0,1,.46.44v.05a1.44,1.44,0,0,1-.22.64,8,8,0,0,0-.09,1.09,5.31,5.31,0,0,0,.09,1,1.91,1.91,0,0,1,.22.62.48.48,0,0,1-.46.51h-.22ZM396.19,272a4.56,4.56,0,0,1,2.24-1.57l.14.05a57.76,57.76,0,0,1,13.08,14,.71.71,0,0,1-.51.78,10.56,10.56,0,0,0-4.26,3.58c-.28.44-.48.67-.67.67-.38,0-.57-.35-.66-.74a50.43,50.43,0,0,0-9.41-16.71V272Z"/><path d="M534.11,213.17a120.85,120.85,0,0,1-15.73,43.91,90.12,90.12,0,0,0,49.19,37.82c1.12.42,2.14.7,2.14,1.45,0,.29-.42.86-1.3,1.4a68.87,68.87,0,0,0-18.75,16.3c-.7,1.11-1.34,1.38-2.07,1.38a4.73,4.73,0,0,1-1.17-.27c-16.62-8.64-29-31.37-33.42-49.72a128.48,128.48,0,0,1-79.63,52.38c-1.89,0-4-4.7-4-7,0-.76.13-1.13.57-1.35,38.26-12,68.11-46.65,77.83-92.87H487.18c-19.23,37.12-45.37,50.55-46.4,50.55a6.81,6.81,0,0,1-5.06-4.89,1.2,1.2,0,0,1,.25-.63c18.4-16.47,31.76-46.51,36.72-78.31.35-1.19.44-2.17,1.8-2.17.23,0,.7.19,1.26.31a82.91,82.91,0,0,0,21.94,2.87c1.89,0,2.33.44,2.33,1.17,0,.25-4.74,14-8.1,21.23h18.91a118,118,0,0,0,21-1.43h.47c1.08,0,1.8,1,1.8,2.29v5.55Z"/><path d="M624.63,222.52a59.85,59.85,0,0,0-6.78-13v-.22a12.87,12.87,0,0,1,6-4.7h.25a82,82,0,0,1,24.1,22.67,2.89,2.89,0,0,1-1.43,1.91,52.22,52.22,0,0,0-14.42,12.55A3.33,3.33,0,0,1,630,243a1.25,1.25,0,0,1-1.29-1.18,1.41,1.41,0,0,1,0-.2A84.47,84.47,0,0,0,627.09,231a172.65,172.65,0,0,1-39.47,19,1.59,1.59,0,0,1-1.72-1.46v0a41.87,41.87,0,0,0-7.07-14.2,3.76,3.76,0,0,1-1-2c0-.7.42-1.18,1.32-1.28,2.85-.27,6.48-.75,10.55-1.31l-2.21-21.19a58.61,58.61,0,0,0-2.08-11.29,2.51,2.51,0,0,1-.22-1.15c0-.74.42-1.2,1.43-1.2.48,0,1.21.18,1.93.26a89.33,89.33,0,0,0,12.4,1.72,89.51,89.51,0,0,0,22.54-15.39,2.51,2.51,0,0,1,1.79-1c.38,0,.9.25,1.4,1a97.5,97.5,0,0,0,15.07,13.85c.8.74,1.22,1.28,1.22,1.88,0,3-24,6.63-36.5,7.36l1.72,21.63ZM611.5,309.09c.14,2.25.25,4.31.25,5.35v.25c0,2.05-1,2.63-2.18,2.63-.43,0-.74-.14-1.15-.14a58.07,58.07,0,0,0-8.22-.7,34.26,34.26,0,0,0-5.36.39,12,12,0,0,1-2,.14c-1.48,0-2.08-.39-2.08-1.44v-.63c.26-1.22.26-4.42.26-18V270.61c0-1.26-.08-14.73-.26-17.15v-1.18c0-.92.19-1.28,1.42-1.28h.95c4.31.36,11.39.57,19.57.57h59.75c9.49,0,20.55-.21,25.44-.57h.87c1.18,0,1.56.26,1.56,1.59,0,.35-.13,1-.13,1.53-.43,5.39-.43,10.44-.43,14.19v29.46c0,3.92,0,14.05.43,16.5a4.49,4.49,0,0,1,.13,1.21c0,1.26-.56,1.84-2.44,1.84h-.41c-3.35-.13-6.77-.57-10.14-.57a31.92,31.92,0,0,0-5.35.44,8.31,8.31,0,0,1-1.72.13c-1.13,0-1.62-.44-1.62-1.43,0-.41.19-.7.19-1.2.12-1.12.12-3.34.12-5.61H611.5Zm23.27-47.71H611.3V275h23.46Zm0,23.18H611.3v14.65h23.46Zm44.83-84.14c-3.37,27.9-14.26,40.6-38.29,49.72h-.12c-1.22,0-5-4.81-5-6.29,0-.12,0-.25.16-.25a47,47,0,0,0,22.86-43.11c-6.4.23-13.35.52-13.35.52a2.5,2.5,0,0,1-.86.14c-.86,0-1-.44-1-1a6.39,6.39,0,0,1,.25-1.44,11.8,11.8,0,0,0,.34-3.07,9.6,9.6,0,0,0-.34-2.82,14,14,0,0,1-.51-2.2c0-.42.25-.73,1.28-.73h.74a182.35,182.35,0,0,0,20.77.86h20.83a124.2,124.2,0,0,0,18.17-1.43,3.23,3.23,0,0,1,1.11-.14c1.12,0,1.42.58,1.42,1.44v.77c-.19,2.23-.29,5.4-.29,7.3-.75,31.81-1.13,49.28-21.56,49.28A36.58,36.58,0,0,1,665,240.73c0-1.92,2.24-7,3-7h.16a20.55,20.55,0,0,0,8.38,1.86,8.13,8.13,0,0,0,8.22-4.45,90.79,90.79,0,0,0,3.11-27.45v-3.29H679.6Zm-.4,61H655.14V275h24Zm0,23.18H655.14v14.65h24Z"/><path d="M781.53,270a110.41,110.41,0,0,1-53.89,38.69c-1.56,0-4.93-4.61-4.93-6.55,0-.41,0-.53.29-.7a122.11,122.11,0,0,0,50-55.95h-1.59c-10.84,0-27.19.29-40.86.74h-.34c-1.25,0-1.56-.44-1.56-1a4.84,4.84,0,0,1,.29-1.73,16.71,16.71,0,0,0,0-5.76,16.66,16.66,0,0,1-.78-2.58c0-.61.49-1,1.9-1h.48c10.35.44,30.27,1,40.73,1h9V218.44c0-9.37-.16-27.86-.6-32.66,0-.57-.17-1-.17-1.25,0-1.18.61-1.29,2.46-1.29a131.24,131.24,0,0,0,17.49-1.44c.33-.05.66-.11,1-.19,1.12,0,1.36.45,1.36.9,0,.29-.14.42-.14.73-.44,3.45-.44,24.32-.44,34.08v17.8h10.1c9.25,0,41.22-.61,42.52-1.18h.29c.4,0,.69.57.69,1.47a9.45,9.45,0,0,1-.28,2,15.9,15.9,0,0,0-.31,2.92,11.13,11.13,0,0,0,.31,2.7,5.22,5.22,0,0,1,.48,1.89c0,.74-.31,1.29-1.18,1.29h-.15c-.62,0-33.22-.75-42.34-.75h-8.5a84.53,84.53,0,0,0,58,39.23c.86.12,1.25.53,1.25,1.11a1.84,1.84,0,0,1-.91,1.47,85.87,85.87,0,0,0-17.7,16,2.45,2.45,0,0,1-2,1.31c-.6,0-25.25-6.82-40.17-44v24.22c0,9,.32,25.75.86,30.84,0,.63.18,1,.18,1.43,0,.71-.34,1.15-1.34,1.15-.48,0-1.24-.16-2.15-.26a78.87,78.87,0,0,0-8.55-.46,51,51,0,0,0-7.1.46c-1,.12-1.72.26-2.16.26-1,0-1.3-.44-1.3-1.44,0-.39.19-1,.19-1.57.41-4.91,1.12-29.21,1.28-33.75ZM755.9,232.59a2.74,2.74,0,0,1-1.73.76c-.53,0-1.08-.44-1.26-1.43a98.33,98.33,0,0,0-15.12-35.71v-.14c0-1.32,4.71-4.72,6.48-4.72a.6.6,0,0,1,.44.12,100.81,100.81,0,0,1,31.63,28.6c0,.54-.26,1-1.11,1.26a62.14,62.14,0,0,0-19.33,11.26m57.18.19c-2.11,0-6.11-3.51-6.11-4.93,0-.14.13-.14.13-.27a100.76,100.76,0,0,0,15.08-37.27c.12-1,.42-1.87,1.29-1.87a2.53,2.53,0,0,1,1.72.72,61.11,61.11,0,0,0,22.58,6.48c1,.16,1.46.74,1.46,1.31a3,3,0,0,1-.76,1.86c-17.93,26.21-34.74,34-35.35,34"/><path d="M907.92,304.62c.13,3.57.13,7.51.43,10.57v.38c0,1.44-.56,2.22-2.46,2.22a3.48,3.48,0,0,1-1.28-.22,74.7,74.7,0,0,0-10.35-.72c-1.82,0-3.63.1-5.44.29a6.14,6.14,0,0,1-1.54.14c-1.61,0-2.12-.58-2.12-1.57a9.38,9.38,0,0,0,.18-1.06c.34-1.59.55-18.55.55-19.34V211a62.06,62.06,0,0,0-.41-7.59c0-.26-.14-.53-.14-.86a1.31,1.31,0,0,1,1.21-1.42h.26a1.43,1.43,0,0,1,.81.17c1.09.08,13.8.25,20.13.25h7.06a49.85,49.85,0,0,0,8.8-19c.38-1.59.77-2.16,1.65-2.16a3.28,3.28,0,0,1,1,.12A249.72,249.72,0,0,0,954,184.59c1.86.29,2.65.77,2.65,1.28,0,2.94-19.15,12.87-25.06,15.62h32.54c7,0,22.62-1.28,24.26-1.58a3.55,3.55,0,0,1,1.21-.17c.91,0,1.21.46,1.21,1.19,0,.38-.16,1-.16,1.73-.13,3.2-.27,4.36-.27,8.62v83.81c0,.27.53,14.52,1,19.49v.27c0,1.91-1.18,2.63-2.91,2.63a3.58,3.58,0,0,1-1.3-.16,64.9,64.9,0,0,0-8.12-.56,70.8,70.8,0,0,0-8.23.56,5.15,5.15,0,0,1-1.56.16c-2,0-2.41-.86-2.41-2.12v-.65c0-1.08.09-5.6.25-10.21H907.92ZM967.22,212H907.79v19.35h59.44Zm0,29H907.79v20.51h59.44Zm0,30.17H907.79V294h59.44Z"/><path d="M1065.9,294.19c8.95-.74,17.59-1.72,25.54-2.87.86-.14,1.72,3.87,1.72,5.94v.42c6.9-15.19,9.38-33.37,10.53-62.44l.4-15.26c-4.4.14-9.18.51-9.48.51a2.12,2.12,0,0,1-.86.16c-.75,0-1-.39-1-.86a8.77,8.77,0,0,1,.41-2,15.92,15.92,0,0,0,.25-2.49,13.5,13.5,0,0,0-.25-2.46,19.73,19.73,0,0,1-.6-2.38c0-.54.34-.81,1.5-.81h.75c2.42.27,6.12.56,9.48.7,0-2.83,0-5.73-.18-8.34v-5.81a111.29,111.29,0,0,0-.39-11.26v-.73c0-1,.36-1.14.91-1.14.74,0,1.41.13,2.58.13h1.29A82.93,82.93,0,0,0,1122,181.8h.52c.73,0,1.08.57,1.08,1.72,0,.77-.25,1.64-.25,2.59-.1,3.8-.18,11.3-.18,16,0,2.59-.26,5.6-.35,8.68H1128a102.6,102.6,0,0,0,18.56-2.46,1,1,0,0,0,.54-.23c1.18,0,1.45.74,1.45,1.66v.55c-.42,3.67-.42,12.29-.42,20.93,0,59.7,0,84.42-22.49,84.42a41.53,41.53,0,0,1-17.17-4.37c-.64-.25-1-1.25-1-2.59,0-2.59,1.46-6.2,2.45-6.2h.19a28.34,28.34,0,0,0,6.47,1,8.54,8.54,0,0,0,8.52-6.55c4.95-12,3.37-54.88,3.93-77.14h-6.34c-1.41,60.11-13.31,79.9-31.09,97.23a2,2,0,0,1-.86.29,8.9,8.9,0,0,1-6-4.9v-.14a93.89,93.89,0,0,0,8.25-13.85,349.89,349.89,0,0,1-69.68,16.78c-.8,0-1.54-.36-1.67-2.1a40.92,40.92,0,0,0-5.4-14.85,2.58,2.58,0,0,1-.42-1.2c0-.58.76-.7,1.8-.7,15.51,0,21.21-.23,30.41-.86v-9.85h-2.16c-8.48,0-14.66.29-21.4.74h-.25c-1.32,0-1.62-.74-1.62-1.47a1.57,1.57,0,0,1,.15-.8,14.86,14.86,0,0,0,.33-2.81,6.75,6.75,0,0,0-.33-2.18,5.73,5.73,0,0,1-.55-1.82c0-.6.41-.94,1.54-.94h.74c5.37.51,12.61.94,21.27.94H1048v-9h-7.9c-13.18,0-14,.17-14.44.17h-.51c-1.11,0-1.86-.46-1.86-1.31v-.25a69,69,0,0,0,.34-8.25V232.12a41.58,41.58,0,0,0-.17-7v-.77c0-.86.39-1,1.22-1h.46c3.26.1,11.32.27,16,.27h6.9V216.4h-4.93c-7.9,0-14.38.22-21.94.6h-.28c-1.18,0-1.48-.38-1.48-1a5.23,5.23,0,0,1,.31-1.16,15,15,0,0,0,.28-2.76,7.68,7.68,0,0,0-.28-2.18,5,5,0,0,1-.55-1.92c0-.49.25-.86,1.6-.86h.36c5.54.33,14.49.86,21.94.86H1048V201.3c-8.47.25-16.7.55-23.66.55-1.26,0-2.48-3.9-2.48-5.64,0-.63,0-1,.32-1a242.33,242.33,0,0,0,56.09-13.16,6.09,6.09,0,0,1,1.72-.56c.7,0,1.31.29,1.81,1.61a58.47,58.47,0,0,0,9.25,13,1.64,1.64,0,0,1,.49,1c0,1.44-.59,2.17-25.69,3.38v7.56h.48c7.42,0,24.41-1.12,24.41-1.12h.29c.34,0,.49.28.49.7a6.34,6.34,0,0,1-.36,1.93,13.91,13.91,0,0,0-.13,2.58,13.49,13.49,0,0,0,.13,2.46,8.51,8.51,0,0,1,.51,1.72c0,.39-.29.7-.93.7h-.12c-1-.14-17.19-.6-24.57-.6h-.22v7.26h7c5.1,0,8.29-.19,15.2-.46.53,0,1.13,0,1.13,1v.39c-.13,3-.13,6-.13,8.83v24.86c0,1.6.26,6.48.26,7.86,0,2.12-.14,2.28-1.73,2.28-2.25,0-10.34-.16-14.39-.16h-7.33v9c8.72,0,22.72-1.21,23.07-1.21h.25c.28,0,.48.25.48.76a9.19,9.19,0,0,1-.34,1.72,16.81,16.81,0,0,0-.26,3,10.92,10.92,0,0,0,.26,2.35,12.69,12.69,0,0,1,.49,1.59c0,.61-.35.87-1,.87-1.28,0-14.22-.75-22.94-.75v8.62Zm-16.47-62.57H1041v10h8.47Zm0,17.6H1041v10.69h8.47Zm22.82-17.6h-7.83v10h7.83Zm0,17.6h-7.83v10.69h7.83Z"/><path d="M1240.14,296.48c0,6.21.35,14.21.67,19v.42c0,1.54-.67,2.17-1.92,2.17-.5,0-1.24-.16-2.27-.25a33.56,33.56,0,0,0-6.17-.48,42.16,42.16,0,0,0-8,.74,8.08,8.08,0,0,1-1.56.12c-1.39,0-1.72-.58-1.72-2.28v-.69l.36-18.72H1208c-10.91,0-29.24.32-42.24.78h-.26c-1.28,0-1.6-.35-1.6-.87a10.34,10.34,0,0,1,.44-1.72,17,17,0,0,0,.25-2.47c0-1-.12-1.92-.25-2.87s-.76-1.73-.76-2.44.45-1,1.92-1h.42c14.44.74,31.49,1,41.89,1h11.9V275.11h-20.88c-7.36,0-14.87,0-18.73.19h-.67c-1.56,0-2.42-.61-2.42-1.89v-.25c.26-2.08.61-9.12.61-11.48V232.54c0-2.59-.18-11.61-.53-13.23v-.7c0-1.16.53-1.45,1.82-1.45h.75c1.67.16,14.11.29,20.15.29h19.89V207.11h-8.44c-10.81,0-31.1.25-42.66.7h-.23c-1.32,0-1.58-.25-1.58-.86a8.67,8.67,0,0,1,.43-1.81,15.22,15.22,0,0,0,.25-2.23,25.66,25.66,0,0,0-.25-2.79,20,20,0,0,1-.92-2.74c0-.6.49-.86,1.82-.86h.48c12.3.73,32.18,1,42.53,1h8.33c-.12-5.17-.22-11.21-.55-13.6,0-.29-.1-.57-.1-.86,0-.74.44-.93,1.66-.93h3.81a68.14,68.14,0,0,0,14.32-1.28,4,4,0,0,1,1.08-.11c1,0,1.18.61,1.18,1.28s-.08,1.19-.08,1.72l-.48,13.73H1249c9,0,45-1.17,45.24-1.17h.44c.57,0,.92.3.92.74a9.69,9.69,0,0,1-.78,2.59,15,15,0,0,0-.29,2.59,9.68,9.68,0,0,0,.29,2.46,5.58,5.58,0,0,1,.44,2,.91.91,0,0,1-.77,1h-.41c-.7,0-36-.71-45.08-.71h-8.86v10.34h21.34a167,167,0,0,0,21.64-1.86c.48,0,.76-.16,1-.16.72,0,.86.25.86,1.28v1.43c-.15,4.13-.34,10.43-.34,14.46v29.36c0,1.73.2,9.41.34,10.84v.74c0,1.16-.44,1.89-1.89,1.89h-.36c-3.11-.14-13.73-.32-19.83-.32H1240.2v11.75H1253c8.93,0,44.57-1.21,44.82-1.21h.52a.72.72,0,0,1,.78.65v.09a9.13,9.13,0,0,1-.7,2.63,20.65,20.65,0,0,0-.35,2.59,11.1,11.1,0,0,0,.35,2.63,5.18,5.18,0,0,1,.38,2,.91.91,0,0,1-.76,1,.6.6,0,0,1-.23,0h-.18c-.71,0-35.5-.78-44.66-.78h-12.73Zm-20.41-69.79h-21.6v14.43h21.6Zm0,23.51h-21.6v15.68h21.6Zm44-23.51h-23.55v14.43h23.55Zm0,23.51h-23.55v15.68h23.55Z"/><path d="M1352.48,307.77c-8.44,0-33.31.61-40.35.67-1.66,0-2-.25-2-.8a5.57,5.57,0,0,1,.31-1.28,18.54,18.54,0,0,0,.42-4.06,16.81,16.81,0,0,0-.42-4.36,7.3,7.3,0,0,1-.49-1.79c0-.77.49-.95,1.44-.95h1c6.64.27,32,1.18,40.17,1.18h12.67V208.63h-6.89c-8,0-31.55.3-38.33,1.06h-.86c-.87,0-1.43-.34-1.43-1.3a7,7,0,0,1,.42-2,10.42,10.42,0,0,0,.44-3.19,11.47,11.47,0,0,0-.44-3.45,6,6,0,0,1-.29-2c0-1,.29-1.31,1.21-1.31.22,0,.66.15,1.13.15,5.17.62,30.35,1.32,38,1.32h40.35c7.43,0,34.49-1.07,37.54-1.47.46,0,.77-.14,1-.14.74,0,.93.29.93,1a6,6,0,0,1-.49,2.44,13.73,13.73,0,0,0-.31,3.2,18,18,0,0,0,.31,3.44A14.42,14.42,0,0,1,1438,209c0,.63-.36.76-1.15.76h-.66c-4.62-.35-30.05-1.06-37.88-1.06h-9.08v87.72h11.88c8.08,0,36.38-1,42.29-1.44h.44c.86,0,1.29.25,1.29,1a7.55,7.55,0,0,1-.27,1.48,14.1,14.1,0,0,0-.61,4.61,11.28,11.28,0,0,0,.61,4.19,3.64,3.64,0,0,1,.44,1.4c0,.55-.44.8-1.45.8h-.44c-8.26-.38-34.39-.67-42.67-.67h-48.23Z"/><path d="M1482.23,261.94a82.91,82.91,0,0,1-22.63,27.94c-2.15,0-5.18-2.35-5.18-3.94a.67.67,0,0,1,.12-.44,151.06,151.06,0,0,0,23.9-54.75c-8,.12-16.59.39-17.59.72h-.53a1.07,1.07,0,0,1-1.21-.91,1.61,1.61,0,0,1,0-.31,11.86,11.86,0,0,1,.31-1.34,9.69,9.69,0,0,0,.17-2.22,7.22,7.22,0,0,0-.17-2.17c0-.86-.31-1.79-.31-2.46s.25-.87,1-.87a2.55,2.55,0,0,1,1,.14,187.17,187.17,0,0,0,20.22,1V208.31c-7.29.75-14.85,1.47-22.24,1.63-.86,0-1.72-3.78-1.72-5.95,0-1,.19-1.55.46-1.73A112.22,112.22,0,0,0,1506,181.88a3.16,3.16,0,0,1,1.73-.73c.74,0,1.33.6,1.72,2.17a59.75,59.75,0,0,0,9,15,3.07,3.07,0,0,1,1,2.12c0,.71-.57,2.29-19.83,5.49v16.38c8.29-.32,17.51-1.06,17.7-1.06h.17c.6,0,.7.41.7,1.06a6.26,6.26,0,0,1-.29,1.72,13.64,13.64,0,0,0-.13,2.47,10,10,0,0,0,.13,2.25,5.35,5.35,0,0,1,.39,1.77c0,.53-.2,1-1,1h-.19c-.86,0-9.54-.6-17.51-.71v5.58a1.31,1.31,0,0,1,.48-.12,72.33,72.33,0,0,1,21.24,23c0,.69-.44,1.28-1.73,1.84a38.51,38.51,0,0,0-9.41,10.88c-.54,1-1.12,1.43-1.56,1.43s-1.12-.86-1.53-2.3a97.59,97.59,0,0,0-7.49-27.64v37.48c0,9.43,1,25.68,1,34.38,0,1.87-.34,2.75-1.89,2.75-.77,0-1.44-.17-2.48-.25a37.67,37.67,0,0,0-5.3-.37,47.87,47.87,0,0,0-6.44.37,21.47,21.47,0,0,1-3.2.36c-.77,0-1.13-.36-1.13-1.29,0-.38.19-1.13.19-2.05.7-9.38.25-21,1-33.9Zm97.92,17.18c0,5.12,0,29.71.44,36.92v.86c0,1-.17,1.29-.86,1.29a17.37,17.37,0,0,1-2.59-.37,36.86,36.86,0,0,0-6.55-.44,52.73,52.73,0,0,0-8.79.7,3.42,3.42,0,0,1-1,.12c-1.21,0-1.55-.57-1.55-2.27v-.7c.22-5.22.46-28.8.46-35.59v-.57l-19.59,4.63c-7.22,1.73-18.29,4.19-21.86,5.63a1.64,1.64,0,0,1-.79.12c-.68,0-.76-.38-.76-1.13s.09-1.57.09-2.17a17.16,17.16,0,0,0-1.91-7,3,3,0,0,1-.86-1.73c0-.53.55-1,2-1h.86a120.08,120.08,0,0,0,21.46-3.67l21.46-4.81v-61c0-3.2-.25-20-.7-23a2.23,2.23,0,0,0-.22-.66c0-.76.55-.93,1.73-.93h3.89a60.86,60.86,0,0,0,14.3-1.5,6.4,6.4,0,0,1,1.16-.08c.86,0,1,.41,1,1.14s-.13,1.19-.13,1.88c-.13,3.56-.57,19.53-.57,23.42V263a78.57,78.57,0,0,0,10.43-3.65,2.24,2.24,0,0,1,1.28-.38c.86,0,1.3.86,1.3,2.44V263a12,12,0,0,0,.86,4.18,5,5,0,0,1,1.09,2.59c0,.74-.39,1.33-1.09,1.33-1.92.14-7.24,1.45-13.86,3.07v5ZM1538.5,265c-.57,0-1-.63-1.54-2a133.15,133.15,0,0,0-17.81-30.3,1.07,1.07,0,0,1-.12-.6,9.1,9.1,0,0,1,5.17-5.61c2.5,0,31.14,16.87,31.14,20.24a1.54,1.54,0,0,1-.78,1.19,57.94,57.94,0,0,0-14.71,15.71c-.39.86-.8,1.34-1.31,1.34m2-36.88c-.57,0-1-.58-1.45-1.6a105.91,105.91,0,0,0-16.85-31,.87.87,0,0,1-.4-.7c0-1.73,3.68-4.77,5.53-4.77a.46.46,0,0,1,.44.18c23.58,11.38,29,20.69,29,21.21s-.58.9-1.36,1.34a43.08,43.08,0,0,0-12.69,13.4c-.69,1.32-1.43,1.9-2.17,1.9"/><path d="M1681.83,232.34a97.52,97.52,0,0,0,58.84,61.72,1.15,1.15,0,0,1,.86,1.13,1.7,1.7,0,0,1-.6,1.18,114.65,114.65,0,0,0-18.74,16.95,2,2,0,0,1-1.79,1.12,3.16,3.16,0,0,1-1.28-.34c-22.59-10.53-39.19-42.06-41.62-74.51-6,38.14-23.77,63.18-72,77.79h-.29c-1.73,0-4-4.26-4-6.41,0-.71.1-1.18.57-1.24,35.2-15.93,50.29-42,53.35-77.38H1647c-9.86,0-25.32.25-39,.71-1.5,0-1.86-.45-1.86-1a11.06,11.06,0,0,1,.36-1.82,19.94,19.94,0,0,0,.35-3.27,20.34,20.34,0,0,0-.35-3.2,19.35,19.35,0,0,1-.58-2.27c0-.46.47-.86,1.72-.86h.47c14.05.72,30,1,38.75,1h9c.25-6.2.55-12.55.55-18.91a161.5,161.5,0,0,0-.7-17v-.44c0-1.18.4-1.77,1.64-1.77a1.84,1.84,0,0,1,.92.17,25,25,0,0,0,3.67.29,99.4,99.4,0,0,0,16.92-2.15c.28,0,.63-.19.86-.19,1.32,0,1.45.74,1.45,2V185c-1,13.36-1,24.59-1.68,36.67h14.66c11.34,0,28.77-.58,40.19-1.18h.14c.73,0,.86.46.86,1.06a6.71,6.71,0,0,1-.44,2.17,13.79,13.79,0,0,0-.31,3.62,7.54,7.54,0,0,0,.31,2.63,4.45,4.45,0,0,1,.55,2c0,.67-.26,1.13-1.28,1.13-10.43-.27-29.76-.72-40.16-.72h-12.15Z"/><path d="M1848.28,278.75a27.38,27.38,0,0,1,.55,6.32v.43c0,23.14-19.64,32.09-40.59,32.09a75.59,75.59,0,0,1-33.82-7.88,2.71,2.71,0,0,1-.86-2.37c0-2.58,1.47-6,3.23-6h.41a83.69,83.69,0,0,0,22.5,3.45c12.75,0,25.35-4.13,25.35-19.13v-.42a27.7,27.7,0,0,0-1-6.65h-35.77c-8.16,0-24,.44-34.77.75-1.51,0-1.8-.58-1.8-1.34a7,7,0,0,1,.29-1.64,13.54,13.54,0,0,0,.31-2.7,10.07,10.07,0,0,0-.31-2.44,7.34,7.34,0,0,1-.67-2.3c0-.86.36-1.4,1.92-1.4h.35c9.3.51,26.72,1.28,34.67,1.28h29.38a35.83,35.83,0,0,0-14.91-7.26,1.73,1.73,0,0,1-1.34-1.62,2.13,2.13,0,0,1,.92-1.59,156.94,156.94,0,0,0,18.52-14.59H1807.1c-4.48,0-20.53.46-27.71.86H1779c-1.13,0-1.44-.57-1.44-1.11a3.57,3.57,0,0,1,.31-1.4,16,16,0,0,0,.29-2.37,25.3,25.3,0,0,0-.29-3,11.75,11.75,0,0,1-.64-2.17c0-.58.32-1,1.51-1h.63c6.76.6,23,.92,27.93.92h15.39c21.94,0,25.38-.16,29.88-.45h.63c1.41,0,1.72.57,1.72,2.14v5.83a4.23,4.23,0,0,1-2.87,3.73,141.51,141.51,0,0,1-26,10.67,34.74,34.74,0,0,1,18.1,12.5c8.38,0,25.57-.61,37.17-1.43h.12c1,0,1.31.51,1.31,1.43a10,10,0,0,1-.48,2.17,24.36,24.36,0,0,0-.22,2.7,15.37,15.37,0,0,0,.22,2.44,3.35,3.35,0,0,1,.48,1.72,1.38,1.38,0,0,1-1.24,1.51,1.29,1.29,0,0,1-.34,0ZM1882,231c0,3.22.22,5.66.22,8.27v1c0,1.13-.1,1.59-1.1,1.59-.54,0-1.37-.14-2.44-.27a46.69,46.69,0,0,0-7.38-.48,52.64,52.64,0,0,0-8.87.63,3.28,3.28,0,0,1-1.13.14c-1.32,0-1.67-.58-1.67-1.8,0-.41.13-.67.13-1.11.09-2,.22-7.64.22-11v-5.34h-86.49v8.1c0,3.44,0,7.37,0,8.5v.64a1.62,1.62,0,0,1-1.43,1.77h-.3a1.75,1.75,0,0,1-.81-.19,48.43,48.43,0,0,0-8.84-.6,46.19,46.19,0,0,0-7.24.48,12.11,12.11,0,0,1-1.82.29,1.32,1.32,0,0,1-1.44-1.52v-.54c.26-2.71.39-7,.39-9.65v-3.2c0-2.47-.13-6.39-.13-11.3,0-.5-.18-1.12-.18-1.52,0-.65.3-1.06,1.8-1.06.41,0,1,.14,1.73.14,1.67.19,11.11.19,20.39.19a4,4,0,0,1-.35-1.16,53.1,53.1,0,0,0-10-22.72c-.18-.14-.18-.3-.18-.61,0-1.57,3.81-4.41,5-4.41h.22a55.26,55.26,0,0,1,28.41,17.44c0,.74-.86,1.45-3.06,2a48.16,48.16,0,0,0-15.18,9.48h27.19l-.48-1.63a67.48,67.48,0,0,0-8.82-23.71c-.16-.12-.16-.26-.16-.48,0-1.57,4.18-4.25,5.69-4.25h.32a50.5,50.5,0,0,1,26.27,18.46c0,.57-.58,1.32-2.78,1.72a38.59,38.59,0,0,0-16.12,9.48l-.48.33h23.61c-1.35-1-2.47-2.36-2.47-3.21a.51.51,0,0,1,.13-.41,54.79,54.79,0,0,0,12.87-25.62c.19-1.13.59-2.15,1.61-2.15a3.4,3.4,0,0,1,2,.87,78.82,78.82,0,0,0,20.22,8.08c.93.29,1.21.76,1.21,1a2.58,2.58,0,0,1-1.21,1.84,83.68,83.68,0,0,1-25.94,19.58h4.74c11.75,0,32.13-1.9,32.47-1.9a5.06,5.06,0,0,0,.77-.18c1.09,0,1.25.91,1.25,1.88s-.16,1.95-.16,2.89c0,1.24-.22,5.49-.22,11.71V231Z"/><path d="M1976.21,208.25c-8.12,0-24,.67-24.92.81-.22,0-.38.18-.7.18a.8.8,0,0,0-.41-.18,13,13,0,0,1-.58,2.2,8.63,8.63,0,0,0-.12,1.9,9.37,9.37,0,0,0,.12,2,9.7,9.7,0,0,1,.58,2.3.61.61,0,0,1-.51.7.61.61,0,0,1-.19,0H1949c-1.18-.09-8.52-.53-14.59-.7v6.22a51.37,51.37,0,0,1,16.8,19.47c0,.61-.44,1.13-1.48,2.06a37,37,0,0,0-7.17,7.18c-.64.75-1.2,1.09-1.48,1.09-.92,0-1.13-1.79-1.13-2.78v-.54a48,48,0,0,0-5.53-20.09v49.27c0,8.54.69,33.76.93,36.15,0,.41.23.67.23,1,0,1.31-.58,1.84-1.85,1.84a10.12,10.12,0,0,1-2.62-.44,24.48,24.48,0,0,0-5.27-.45,38.39,38.39,0,0,0-6.61.45,12.6,12.6,0,0,1-2.5.44c-1.25,0-1.87-.53-1.87-1.95a13.84,13.84,0,0,0,.24-1.41c.38-3.83.6-27.54.81-35.64l.9-25.86c-9.12,23.92-17.46,31.44-18,31.44-1.82,0-5.27-2.28-5.27-3.73,0-.12.16-.25.16-.42a274,274,0,0,0,19-63.31c-6.9.17-13.55.61-14.76.7h-.55c-1,0-1.15-.32-1.15-.86,0-.7.27-1.45.27-2a13.21,13.21,0,0,0,.13-2.08,5.59,5.59,0,0,0-.13-1.47,16.45,16.45,0,0,1-.63-2.58c0-.75.34-1.22,1.3-1.22.29,0,.55.22.86.22,1,.13,9.48,1,17.91,1v-2.65c0-3.58-.13-20.54-.44-22.41v-.54c0-.86.31-1,1-1s1.43.16,2.59.16h2.34a59.62,59.62,0,0,0,10.08-.74,13.74,13.74,0,0,1,2.21-.26c.86,0,1.27.26,1.27,1v.29c-.58,3.19-.58,19.46-.58,22.69v3.45c6.46-.18,14.42-1.21,14.71-1.21h.32a8.35,8.35,0,0,1,.12-1.73,10.86,10.86,0,0,0,.29-2.34,18.21,18.21,0,0,0-.29-3.29c0-.86-.12-1.65-.12-2.18,0-.86.12-1.3.86-1.3a4.79,4.79,0,0,1,1.13.28c.51.16,17,1,24.71,1h.13V197c0-4.95-.13-10.14-.25-12.29v-.57c0-1.31.48-1.72,2.21-1.72h2.66a96.78,96.78,0,0,0,15.47-1.64,4.68,4.68,0,0,1,1.18-.11c1,0,1.28.42,1.28,1.28a5.57,5.57,0,0,1-.12,1.41,123.83,123.83,0,0,0-.58,13.48v1.6h3.29c7.76,0,26-1.18,26-1.18h.12a.66.66,0,0,1,.76.53.89.89,0,0,1,0,.23,13.18,13.18,0,0,1-.32,2c-.12,1.21-.25,2.46-.25,3.62a15.29,15.29,0,0,0,.25,2.44,15.4,15.4,0,0,1,.48,1.86,1,1,0,0,1-.87,1h-.25c-.9,0-18.27-.81-26.39-.81h-24.86ZM1942.4,318.59c-1.62,0-3.83-3.94-3.83-5.76a1.32,1.32,0,0,1,.45-1,88.36,88.36,0,0,0,38.69-27.87,79,79,0,0,1-12.17-37.57l.17-.61a76.1,76.1,0,0,1-13.73,11,6.63,6.63,0,0,1-5-4.4,1.52,1.52,0,0,1,.09-.67,83.87,83.87,0,0,0,16.5-38.52c.13-1,.25-1.63,1.17-1.63a5.58,5.58,0,0,1,2,.6,58.41,58.41,0,0,0,16.61,3.55c1.73.19,2.21.74,2.21,1.47A91.88,91.88,0,0,1,1966.28,245a12.75,12.75,0,0,1,5.66-1.29c.86,0,1.51.12,1.51.46a53.56,53.56,0,0,0,12.64,26.28,100,100,0,0,0,9.25-28.73c.17-.92.29-1.66,1-1.66a11.84,11.84,0,0,1,1,.63,31.35,31.35,0,0,0,13.8,4.9,102.44,102.44,0,0,0-15-29.59c0-.19-.13-.19-.13-.36,0-1.25,4.45-3.88,6.31-3.88,2.2,0,29.63,23.81,29.63,28.6a2.28,2.28,0,0,1-1.42,2.17,40.07,40.07,0,0,0-14.16,9.82c-.86,1.21-1.57,1.64-2,1.64a1.42,1.42,0,0,1-.55-.27,110.73,110.73,0,0,1-14,28.45,83.2,83.2,0,0,0,34.14,12.84,1.23,1.23,0,0,1,1.17,1.15,2.6,2.6,0,0,1-.92,1.82A52.9,52.9,0,0,0,2021,314.66a2.15,2.15,0,0,1-2,1.21,83.44,83.44,0,0,1-31.54-19.93,112.4,112.4,0,0,1-44.93,22.67"/></svg>