<svg xmlns="http://www.w3.org/2000/svg" viewBox="0 0 323.4 89.61" style=""><defs><style>.a{fill:none;stroke:#fff;stroke-miterlimit:10;stroke-width:2px;}</style></defs><path class="a iMymxbLp_0" d="M7.93,3.08H38.48v66H69.8V90.69H7.93V3.08H38.48" transform="translate(-6.93 -2.08)"></path><path class="a iMymxbLp_1" d="M31.92,75.78H63v8.46H14.75V10.32H31.92Z" transform="translate(-6.93 -2.08)"></path><path class="a iMymxbLp_2" d="M245.09,9.61h-19.2V85h19.2Z" transform="translate(-6.93 -2.08)"></path><path class="a iMymxbLp_3" d="M323.85,9.61h-19.2V57.84L280,9.61h-19.2V85H280V38.44L304.65,85h19.2V9.61Z" transform="translate(-6.93 -2.08)"></path><path class="a iMymxbLp_4" d="M286.43,3.08" transform="translate(-6.93 -2.08)"></path><path class="a iMymxbLp_5" d="M329.33,3.08H298.62V34.17L284.39,3.08h-29.1V90.69H286v-27l14.24,27h29.1Z" transform="translate(-6.93 -2.08)"></path><path class="a iMymxbLp_6" d="M165.82,10.15H147.37l27.74,74.26H191.5l.45-3.28Z" transform="translate(-6.93 -2.08)"></path><path class="a iMymxbLp_7" d="M130.82,18.66H99.74V42.84h31.08v8.51H99.74V75.9h31.08v8.51H82.58V10.15h48.24Z" transform="translate(-6.93 -2.08)"></path><path class="a iMymxbLp_8" d="M250.32,3.08V90.69H220.66V3.08Zm-113.41,0V25.54H107.43V36.37H136.9V58H107.43V69H136.9V90.69H75V3.08Zm83.75,3L197,90.69h-28.1l-32-84.08V3.08h83.75Z" transform="translate(-6.93 -2.08)"></path><path class="a iMymxbLp_9" d="M194.75,69.34l16.38-59.6h-37Z" transform="translate(-6.93 -2.08)"></path><style data-made-with="vivus-instant">.iMymxbLp_0{stroke-dasharray:330 332;stroke-dashoffset:331;animation:iMymxbLp_draw 1666ms linear 0ms forwards;}.iMymxbLp_1{stroke-dasharray:245 247;stroke-dashoffset:246;animation:iMymxbLp_draw 1666ms linear 92ms forwards;}.iMymxbLp_2{stroke-dasharray:190 192;stroke-dashoffset:191;animation:iMymxbLp_draw 1666ms linear 185ms forwards;}.iMymxbLp_3{stroke-dasharray:430 432;stroke-dashoffset:431;animation:iMymxbLp_draw 1666ms linear 277ms forwards;}.iMymxbLp_4{stroke-dasharray:0 2;stroke-dashoffset:1;animation:iMymxbLp_draw 1666ms linear 370ms forwards;}.iMymxbLp_5{stroke-dasharray:418 420;stroke-dashoffset:419;animation:iMymxbLp_draw 1666ms linear 462ms forwards;}.iMymxbLp_6{stroke-dasharray:194 196;stroke-dashoffset:195;animation:iMymxbLp_draw 1666ms linear 555ms forwards;}.iMymxbLp_7{stroke-dasharray:370 372;stroke-dashoffset:371;animation:iMymxbLp_draw 1666ms linear 648ms forwards;}.iMymxbLp_8{stroke-dasharray:948 950;stroke-dashoffset:949;animation:iMymxbLp_draw 1666ms linear 740ms forwards;}.iMymxbLp_9{stroke-dasharray:162 164;stroke-dashoffset:163;animation:iMymxbLp_draw 1666ms linear 833ms forwards;}@keyframes iMymxbLp_draw{100%{stroke-dashoffset:0;}}@keyframes iMymxbLp_fade{0%{stroke-opacity:1;}94.02985074626866%{stroke-opacity:1;}100%{stroke-opacity:0;}}</style></svg>