<svg xmlns="http://www.w3.org/2000/svg" viewBox="0 0 323.4 89.61"><defs><style>.a{fill:none;stroke:#fff;stroke-miterlimit:10;stroke-width:2px;}</style></defs><path class="a" d="M7.93,3.08H38.48v66H69.8V90.69H7.93V3.08H38.48" transform="translate(-6.93 -2.08)"/><path class="a" d="M31.92,75.78H63v8.46H14.75V10.32H31.92Z" transform="translate(-6.93 -2.08)"/><path class="a" d="M245.09,9.61h-19.2V85h19.2Z" transform="translate(-6.93 -2.08)"/><path class="a" d="M323.85,9.61h-19.2V57.84L280,9.61h-19.2V85H280V38.44L304.65,85h19.2V9.61Z" transform="translate(-6.93 -2.08)"/><path class="a" d="M286.43,3.08" transform="translate(-6.93 -2.08)"/><path class="a" d="M329.33,3.08H298.62V34.17L284.39,3.08h-29.1V90.69H286v-27l14.24,27h29.1Z" transform="translate(-6.93 -2.08)"/><path class="a" d="M165.82,10.15H147.37l27.74,74.26H191.5l.45-3.28Z" transform="translate(-6.93 -2.08)"/><path class="a" d="M130.82,18.66H99.74V42.84h31.08v8.51H99.74V75.9h31.08v8.51H82.58V10.15h48.24Z" transform="translate(-6.93 -2.08)"/><path class="a" d="M250.32,3.08V90.69H220.66V3.08Zm-113.41,0V25.54H107.43V36.37H136.9V58H107.43V69H136.9V90.69H75V3.08Zm83.75,3L197,90.69h-28.1l-32-84.08V3.08h83.75Z" transform="translate(-6.93 -2.08)"/><path class="a" d="M194.75,69.34l16.38-59.6h-37Z" transform="translate(-6.93 -2.08)"/></svg>