<svg xmlns="http://www.w3.org/2000/svg" viewBox="0 0 3509.54 1084.27"><defs><style>.a,.b,.c{fill:none;stroke:#fff;}.a{stroke-miterlimit:10;}.b,.c{stroke-linejoin:bevel;}.c{stroke-linecap:square;}.d{fill:#fff;}</style></defs><polygon class="a" points="77.1 625.61 77.1 637.91 260.5 639.5 260.52 625.61 77.1 625.61"/><polygon class="a" points="116.13 527.22 80.84 616.52 80.84 621.37 77.1 622.68 77.1 625.61 200.97 625.61 239.56 527.22 116.13 527.22"/><polygon class="a" points="240.69 524.36 289.38 524.36 255.82 622.41 202.18 622.41 240.69 524.36"/><path class="a" d="M116.13,527.22s-.36-6.66,4.59-6.66l3.6-7.43,182.35-4.85-12.09,9.47Z"/><path class="b" d="M124.32,513.13s-3.75-1.12-.93-4.85l17.14-17.83s1.61-2.22,11.28-3.83,355.31-71.87,355.31-71.87l400.41-64.39L1024,333.73H1143.4v3.7s-22.82,85.34-28.19,115.26c0,0-12.08,63-13.42,84.06,0,0-8.5,73.38-2.69,132.89,0,0,8.5,82.33,13,94.41l3.13,20.58,24.61,81.44h-54.27l-7.48-1.62-81.85-85.06-54.89.32S907.76,687,848.64,639.89c0,0-59.13-52.24-151-64.29,0,0-87.82-12.06-167.61,27,0,0-19.39,9.63-44.21,30.73-26.23,22.32-58.52,57.46-80.35,107.6,0,0-21.81,24.4-40.75,171.63H122.34L69.13,910l-8-2.3-1.72-10.5s-1-6.85,7.54-9.25l-23.29,5.48-2.05-4.79V811.88L32,788.25l-4.45-3.42L8,778.32s-6.16-4.79-5.82-14.73v-12L8.7,745.1l-4.45-2.74a11,11,0,0,1-2.07-9.59l-.33-3.42V688.94s-2.39-13.36,0-17.13l5.48-6.16.34-8.22a24.06,24.06,0,0,1,14.39-7.88l36.64-5.48S65,633.8,77.1,633.46l290.37,4.45,6.41-6.15L486,633.5"/><path class="a" d="M8.05,691s22.26,1.86,48.68,2.32H67.4v44.51l-56.56-1.85s-9-1.11-9-6.58V688.94Z"/><path class="a" d="M71.57,694.66l5.53,6,340.33,3.71s4.63-3.71,5.1-7.88C422.53,696.52,75.74,696.05,71.57,694.66Z"/><polyline class="a" points="7.33 665.65 20.57 667.77 317.75 667.77 403.52 667.77 451.33 667.77"/><path class="a" d="M392.7,749.44,21.32,746.67,10.5,745.5,25,753.6l143.8,2.77H386.7s4.92.27,6-1.83Z"/><path class="b" d="M8.5,778.5s202.7,4.13,237.28,3.07l105.31,3.19h16.49l7.44,4.79-10.27,123-17.38-19.28L66.92,887.91s-.94-25.5-13.14-46.24l-12.2-29.79L32,788.25"/><polygon class="a" points="369.42 792.53 347.37 893.26 352.54 899 369.42 792.53"/><path class="b" d="M74.79,903.12s133.46,3.91,189.34,2.49l85.77.31L347.37,899l-141.61-1.93L150.24,899l-61.57-5.13L189,892.09l16-1.54,142.31,2.71,13.81,15.33,3.57,3.95H155.22Z"/><polygon class="a" points="274.45 600.59 306.67 508.28 310.92 508.28 299.17 551.16 280.13 603.43 274.45 605.08 274.45 600.59"/><polygon class="a" points="274.45 605.08 264.85 627.46 264.85 632.68 274.45 632.68 286.49 603.43 280.13 603.43 274.45 605.08"/><polygon class="a" points="293.72 523.02 258.99 622.41 260.52 625.61 264.85 627.46 274.45 605.08 274.45 600.59 268.82 601.03 294.65 527.22 293.72 523.02"/><polygon class="a" points="274.45 632.68 368 632.68 373.88 631.76 385.11 631.76 412.76 601.42 286.49 603.43 274.45 632.68"/><polygon class="a" points="385.11 631.76 397.1 631.76 419.62 605.08 457.47 573.38 522.62 536.98 498.06 545.5 453.86 567.67 412.76 601.42 385.11 631.76"/><path class="a" d="M485.85,633.31l-25.16-1.55-49.89-3.59,8.86-11.12-8.86,3.66,14.46-16.32,12.59-8.86,29.37-23.31L529.7,541,567,527.46l62.47-15.38,66.21,2.79,70.4,14.92,37.77,14.92L829.49,561l56.42,35,44.29,62L967,708.36l29.18,71-54.89.32"/><polygon class="a" points="460.69 631.76 492.83 602.5 535.34 579.41 587.99 564.77 536.65 580.63 511.14 594.88 495.06 603.61 465.42 632.05 460.69 631.76"/><polygon class="a" points="941.33 779.71 961.44 927.1 971.95 926.1 986.48 903.36 967.53 810.51 957.42 789.67 941.33 779.71"/><polygon class="a" points="989.46 898.69 1018.59 883.76 1074.11 866.79 1079.43 868.43 1074.93 871.29 1028.67 884.34 989.46 898.69"/><polygon class="a" points="1131.68 870.48 1128.04 874.34 1120.54 888.89 1125.99 894.02 1131.68 874.34 1131.68 870.48"/><polygon class="a" points="941.33 645.89 944.06 650.61 969.98 687.49 1095.33 686.15 1100.88 686.16 1098.02 655.92 1097.45 644.44 941.33 645.89"/><line class="a" x1="961.13" y1="673.58" x2="1099.89" y2="672.06"/><polygon class="a" points="1101.22 643.68 1103.15 667.22 1105.21 685.36 2248.46 672.47 2249.54 661.83 2252.73 630.32 1294.58 640.78 1101.22 643.68"/><line class="a" x1="1104.37" y1="672.19" x2="2250.36" y2="658.07"/><polyline class="a" points="1097.45 644.44 1098.02 655.92 1100.88 686.16 1105.66 726.23 1115.21 784.63 999.22 782.51 996.22 779.39"/><line class="a" x1="885.91" y1="596" x2="1097.66" y2="593.89"/><polygon class="a" points="1119.11 784.67 2232.69 783.68 2224.58 826.45 2213.53 855.2 2195.83 865.52 1362.13 866.79 1142.68 866.18 1119.11 784.67"/><path class="b" d="M406.24,887.2l-18.67-1-.91-95.3s-11.6,44.77-21.91,121.68l41.49-25.34,22.42,3.35"/><polygon class="a" points="1246.17 329.26 1205.68 359.42 1197.83 368.1 1197.83 372.23 1202.31 373.02 1231.84 373.02 1231.47 365.17 1236.7 353.39 1246.17 329.26"/><path class="a" d="M1251.24,320.64l-36.36,27.48L1203,357.7s-7.27,6.56-7.62,9.57v4.79l2.45.17,4.48.79h114.83l21.17-20.21s7.44-6.16,8.29-15.38c0,0-2.57-41-2.86-44.12L1338,259.26h-17.74l-14.59,3.15L1292,270.13l-21,22.6-2.78,10Z"/><polygon class="b" points="989.46 901.63 2369.97 903.08 2375.5 899.5 2357.65 899.97 1131.68 896.63 1048.81 898.69 989.46 901.63"/><path class="a" d="M1271,292.73l-75.61,58.41-12.12,13.16s-9.13,24.35,18.88,23.75l235-4.87,703.4-15.35a23.34,23.34,0,0,0,14.33-18.31L2109.46,54.13s-2-15.63-14.78-21.07c0,0-10.72-3.32-31-2.58l-177,2.58-126.39,5.55-39.91,4.06L1691.87,46l-12.57,2.21-8.5,1.85-17.73,6.65L1598,85.54l-87.21,50.26-63.93,38.06L1329.71,251.1l-9.43,8.16"/><path class="a" d="M1338,259.26l48.89-33.56L1465,174,1544.11,129l67.06-37.37,44-23.64s11.54-8.79,45.62-12.64l28.58-3.85,52.77-3.84,116-4.95L2030,39.92h46.17s16.33-.42,17.59,7.15l33.53,202.27,14.29,96.19s2.2,7.69-7.7,8.79l-172,4.95-206.11,4.94-230.31,5L1341.84,373h-24.7"/><path class="a" d="M1339.41,267.52l49.7-35.77,90.69-57.16,70.36-40.68,83-45.07L1659,75.1s13.19-8.8,38.47-10.44l107.19-8.8,122-3.3,157.2-3.84s10.63-.22,12.7,15.29"/><path class="a" d="M1344.07,327.83s-15.45,1.25-21.29,1.25c0,0-.42,7.52-3.34,7.52,0,0-15.86-20.87-14.19-58,0,0-2.92,34.23,3.34,49.25,0,0,4.17,15.44,12.1,15.44l18-.41s7.16.41,8-5.43Z"/><polygon class="a" points="1269.36 307.38 1271.44 352.87 1234.71 369.57 1266.85 351.2 1269.36 307.38"/><polygon class="a" points="1275.2 349.95 1288.14 347.87 1275.97 352.65 1275.2 349.95"/><polygon class="c" points="2201.25 864.99 2204.71 867.3 2237.4 867.3 2248.17 864.22 2214.71 864.99 2206.25 864.61 2201.25 864.99"/><path class="a" d="M2255.08,577.51s-1.53,42.36-2.35,52.81"/><path class="a" d="M2232.69,783.69s6.29-35.89,8.19-45.37l4.31-29.13,2.07-16.9,1-14.82.17-5"/><polyline class="a" points="1101.04 592.91 1100.71 609.97 1100.84 630.55 1101.22 643.68"/><polyline class="a" points="1105.21 685.36 1107.78 713.02 1110.23 731.03 1114.09 757.53 1119.11 784.67"/><polygon class="a" points="2046.03 419.59 2133.4 419.59 2152.24 421.59 2157.74 424.84 2157.99 443.84 2146.49 448.34 2132.74 448.59 2047.01 449.09 2032.76 448.34 2022.52 445.59 2021.77 428.84 2022.77 425.09 2025.52 422.59 2046.03 419.59"/><polyline class="a" points="2047.01 449.09 2046.76 428.09 2048.51 426.09 2129.25 426.09 2131.99 428.09 2132.74 448.59"/><circle class="a" cx="2148.55" cy="489.26" r="8.86"/><circle class="a" cx="2148.48" cy="489.48" r="11.8"/><polyline class="a" points="2257.99 577.46 2255.73 630.34 2437.91 628.33 2413.13 670.19 2252.38 672.2 2250.04 703.34 2243.34 745.87 2235.64 787.39 2228.27 825.24 2216.55 856.38 2201.25 864.99"/><polygon class="b" points="2245.01 866.72 2246.18 869.64 2364.8 899.62 2375.5 899.5 2366.56 892.73 2259.91 868.47 2254.65 866.14 2255.24 863.51 2325.07 818.34 2377.37 784.03 2383.51 781.99 2434.06 783.15 2435.5 778.5 2384.38 778.77 2374.74 781.11 2328.87 811.67 2252.9 861.17 2245.01 866.72"/><polyline class="a" points="2499.2 58.51 2497.86 33.88 2492.9 27.77 2568.84 48.84 2656.96 76.58 2766.29 112.07 2836.46 136.14 2940.08 172.85 3046.56 212.83 3154.66 254.04 3188.93 267.5 3203.62 271.99 3221.16 277.7 3255.43 282.59 3270.93 285.04 3296.63 286.67 3319.07 288.71 3333.35 291.98 3345.59 297.28 3363.53 313.6 3387.2 356.43 3401.07 383.36 3405.96 396 3405.15 399.68 3401.07 400.9 3346 401.5"/><polygon class="a" points="1041.29 323.32 1041.29 333.32 1049.92 332.63 1080.96 309.87 1091.3 305.73 1093.72 305.73 1094.75 301.59 1090.61 300.55 1086.47 304.35 1041.29 323.32"/><polyline class="a" points="907.53 350.36 909.9 345.67 914.79 342.68 924.3 338.88 928.92 347.3"/><path class="a" d="M1220.87,278.29,1136,323.37l-2.06,1.05,2.52,9.59,7-.28s-40.63,180.5-42.36,259.18l1154-15.4v-40A397.58,397.58,0,0,0,2238.6,451s-17.72-74.58-29.26-85.3l-46.06-208L2129,13"/><polyline class="a" points="2495.34 57.95 2495.34 33.91 2488.18 25.73 2446.53 17.8 2385.52 9.32 2234.67 2.54 2107.55 0.85 1893.99 5.93 1682.12 19.49 1644.83 24.58 1619.41 29.66 1589.04 40.55 1575.86 46.85 1569.5 56.5 1575.86 46.85 1589.04 40.55 1627.19 42.99 1596.42 59.13 1502.1 112.08 1433.01 150.42 1340.71 209.43 1287.24 243.72 1224.7 284.58 1152.58 334.01 1136.44 334.01 1240.84 265.41 1331.63 205.39 1396.69 166.05 1479.41 116.62 1591.38 55.09 1593.13 51.09 1576.75 52.57 1115.99 309.31"/><polyline class="a" points="1090.61 300.55 1094.53 296.9 1103.08 297.16 1108.43 304.92 1131.17 318.56 1137.39 322.54 1133.92 324.42 1129.03 323.64 1100.14 308.13 1104.69 315.62 1101.75 319.36 1093.72 305.73"/><polyline class="a" points="1094.61 307.81 1088.64 310.27 1084.63 317.76 1091.58 323.64"/><line class="a" x1="1100.24" y1="317.56" x2="1075.49" y2="333.32"/><line class="a" x1="893.5" y1="917.7" x2="959" y2="917.64"/><path class="a" d="M972,926.1l1438.55.25,23.56-143.2s12.56-44.08,32-74.64c0,0,55.57-91.7,173.2-119.48,0,0,90.76-25,195.42,4.63,0,0,46.31,13,75.95,33.34l507.54-5.56,11.11-.92,12-61.13.31-4.95-5.34-11.91-51.34.41"/><path class="a" d="M3429.29,620.52l9.64,12.22,53.63,9.29L3509,655.62l-.71,17.87-537.68,6.43-8.58-2.86s-37-42.21-51.39-50.06"/><path class="a" d="M2962,677.06s36.4,33.7,51.5,85.64c0,0,17.52,86.37,16.91,99.66l195.7-14.5,170.32-14.49s2.41,0,6.64-6.65l3.63-19.32,9.06-13.89,41.07-21.14,2.41-6,32-15.71,6.65-23,2.41-6.64,7.95-47.54"/><line class="a" x1="3030.5" y1="862.5" x2="2958.5" y2="838.5"/><polyline class="a" points="3401.07 400.9 3408.17 418.69 3416.24 440.2 3432.37 467.09 3446.49 518.18 3436.3 542.53"/><polyline class="a" points="3416.24 440.2 3370.53 440.87 3357.08 438.19"/><polyline class="a" points="3370.53 440.87 3390.94 527.9 3441.97 527.52"/><polygon class="a" points="3159.01 242.64 3166.09 249.34 3200.74 270.58 3221.16 277.7 3226.81 278.77 3218.62 265.36 3164.97 241.89 3159.01 242.64"/><polyline class="a" points="3222.72 272.81 3401.91 250.46 3406.38 250.46 3412.71 258.28 3409.36 266.11 3384.95 290.78 3368.01 307.46 3365.4 317.15"/><path class="a" d="M2210.37,45.57l3.09-2.58,174.92,7.43,58.31,10.07L2741.4,157l347.71,130.39-8,25.44s-9,8.48-14.31,8.48l-393.3,12.19L2426,340.35l-121.39,2.12-6.36-2.65L2212.4,57.31l-1.88-6.81Z"/><path class="a" d="M2088,355.29,2061.42,92.35s-7.52-6.51-15.53-6.51c0,0-39.07-1.51-67.11-.51,0,0-203.34,4.51-245.41,10.52,0,0,1.13,4.65-36.06,10.52,0,0-19,3-25,3,0,0-87.65,48.59-104.68,61.61,0,0-159.14,102.28-174.26,115.85,0,0-5.42-.39-7,4.27,0,0-7,.38-6.21,5.81,0,0-4.65-1.55-7,4.27,0,0-5.42-1.17-6.59,7.36,0,0-5.42-7.75-22.09-5.81"/><line class="a" x1="2039.68" y1="356.56" x2="2074.14" y2="219.91"/><path class="a" d="M2070.62,183.88s-3.92-8.22-23.5-8.22c0,0-5.09-1.57-17.62,1.17,0,0-7.44,0-14.1,14.49L1979.77,301s-4.3,13.31,9.4,14.1l2,.09"/><path class="a" d="M2072.49,205.22l-24.39-6.37s-17.74-2.77-23,10.25l-36.87,116.42s-2.49,9.7-13.58,20.51c0,0-10.81,11.64-20,13.3"/><line class="a" x1="2252.38" y1="672.2" x2="2255.73" y2="630.34"/><circle class="a" cx="2717.56" cy="840.98" r="240.89"/><path class="a" d="M2866.27,860.5,2823,843.93s-11.75-4.43-13.64-15.73c0,0-3.11-14.7-3.11-18.7,0-6,4.68-10.28,4.68-10.28l36.72-34"/><path class="a" d="M2796.27,968.5,2791,955.13l-10.75-30.63s-3.48-7.71.26-11.86,16.74-20.14,19.74-23.14,10-2,10-2l34,4,14.41,1.21"/><path class="a" d="M2671.27,983.5l10-20L2695,937.82s2.24-5.32,14.17-4.2l18.88.53a15.82,15.82,0,0,1,14.16,8.39l25,40"/><path class="a" d="M2574.77,887.5l38.44,0,16.06,0s8,0,12.38,5.63a122.85,122.85,0,0,1,10.9,16.89c2.72,5.48.72,11.48.72,11.48l-15,47"/><path class="a" d="M2589.27,763.5l33.91,29s8.69,6,8.39,10.49-4.3,25.22-4.8,28.85-6.22,5.24-6.22,5.24l-52.28,19.39"/><path class="a" d="M2703.27,691.5l-7.19,53.3s-.57,5-4.19,7.87-22,9.9-26.23,12.06c-5.39,2.77-8.39,0-8.39,0l-44-32.23"/><path class="a" d="M2825.27,736.5l-44.13,25.19s-4.87,3.81-8.87,1.81-21-9-24-11c-3-1-3.65-7-3.65-7l-7.35-53"/><circle class="a" cx="2717.56" cy="840.98" r="174.1"/><circle class="a" cx="2717.56" cy="840.98" r="158.2"/><circle class="a" cx="2717.56" cy="840.98" r="150.16"/><polygon class="a" points="2716.44 778.65 2710.35 784.1 2710.35 793.13 2716.44 798.71 2724.4 798.71 2730.42 793.13 2730.42 784.1 2724.4 778.65 2716.44 778.65"/><polygon class="a" points="2716.44 885.78 2710.35 891.23 2710.35 900.26 2716.44 905.85 2724.4 905.85 2730.42 900.26 2730.42 891.23 2724.4 885.78 2716.44 885.78"/><polygon class="a" points="2663.42 830.87 2657.33 836.32 2657.33 845.35 2663.42 850.94 2671.38 850.94 2677.4 845.35 2677.4 836.32 2671.38 830.87 2663.42 830.87"/><polygon class="a" points="2770.16 830.87 2764.07 836.32 2764.07 845.35 2770.16 850.94 2778.12 850.94 2784.14 845.35 2784.14 836.32 2778.12 830.87 2770.16 830.87"/><path class="a" d="M2618.27,788.5s-14.22,26.18-10,53"/><path class="a" d="M2644.27,755.32s19.16-24.9,54-28.35"/><path class="a" d="M2742.27,727.5s41.08,8.76,52,26"/><path class="a" d="M2823.2,788.28s15.81,19.56,10.07,59.22"/><path class="a" d="M2613.21,887.47s6.74,29.36,36.06,46"/><path class="a" d="M2687.27,952.5s38.61,7.06,60.45-1"/><path class="a" d="M2824.27,889.5s-7.33,25.27-39.85,46.86"/><circle class="a" cx="2720.38" cy="788.68" r="18.34"/><circle class="a" cx="2667.37" cy="840.91" r="18.34"/><circle class="a" cx="2720.38" cy="895.82" r="18.34"/><circle class="a" cx="2774.1" cy="840.91" r="18.34"/><path class="d" d="M2696.37,839.63h-3.46v-1.25h8.54v1.25h-3.51v8h-1.57Z"/><path class="d" d="M2706.64,847.82a4.54,4.54,0,0,1-4.74-4.7,4.71,4.71,0,0,1,4.87-4.91,4.53,4.53,0,0,1,4.79,4.71,4.68,4.68,0,0,1-4.9,4.9Zm.07-1.23c2,0,3.17-1.54,3.17-3.6,0-1.82-1.1-3.55-3.15-3.55s-3.18,1.66-3.18,3.63a3.24,3.24,0,0,0,3.15,3.52Z"/><path class="d" d="M2715.87,847.65V843.7l-3.54-5.32h1.84l1.52,2.6c.41.73.69,1.15,1,1.74h0c.28-.53.63-1,1-1.73l1.57-2.61h1.84l-3.75,5.31v4Z"/><path class="d" d="M2726.54,847.82a4.54,4.54,0,0,1-4.75-4.7,4.71,4.71,0,0,1,4.87-4.91,4.53,4.53,0,0,1,4.79,4.71,4.67,4.67,0,0,1-4.9,4.9Zm.07-1.23c2,0,3.16-1.54,3.16-3.6,0-1.82-1.1-3.55-3.15-3.55s-3.18,1.66-3.18,3.63a3.24,3.24,0,0,0,3.15,3.52Z"/><path class="d" d="M2735.39,839.63h-3.47v-1.25h8.55v1.25H2737v8h-1.57Z"/><path class="d" d="M2743.27,844.89l-.93,2.76h-1.63l3.23-9.27h2l3.3,9.27h-1.71l-1-2.76Zm3-1.19-.88-2.46c-.21-.58-.36-1.13-.5-1.64h0c-.16.51-.29,1.09-.47,1.62l-.87,2.48Z"/><path class="a" d="M2702.48,895.5A55.84,55.84,0,0,1,2666.77,859"/><path class="a" d="M2773.06,859.78a55.87,55.87,0,0,1-34.3,35.33"/><path class="a" d="M2738.27,790.5c16.32,5.08,27.77,16.38,33.83,32.25"/><path class="a" d="M2668.1,822.44a55.9,55.9,0,0,1,33.4-32.37"/><path class="a" d="M1627.19,43a174.9,174.9,0,0,1,50.63-14.07S1957.54,3,2129,13l3.22.36,50.91,216.31,30.32,133.47s10.7,8,27.19,82.38c0,0,15.07,43.6,17.38,88.8v43.15l248.17-4s87.75-49.14,138.89-56.16l72.1-7.09,73.25,3.57s78.08,17.48,110.84,37.13l24,15.29,442.05-4.54,4.94-1.34v-4.49l7.33-12,5.39-.9-6-20.81-15.27-63.77-23.8-75-10.78-11.22-208.37-90.72-4.05,3.14-18.41,41.77L3088,334l-17.06,5.39-637.58,19-126.85,3.53s-25.54-4-32.59-24.44L2217.5,146.94l-28.18-89.85L2185.79,43l1.76-10.57,10.57-5.28,128.61,3.52L2421,39.47l88.09,21.14,198.2,67,409.95,152.21.38,3.92"/><path class="a" d="M1451.78,370l-15.79-58s-2-12.73,6.62-13.74c0,0,9.17-3.57,13.24,6.11l23.93,65.17"/><polyline class="a" points="1471.12 368.94 1455.34 314.46 1455.6 311.59 1457.32 313.51 1473.43 369.87"/><path class="a" d="M1393.33,286.83s5.91-1.13,7.94,1.16c0,0,4.07,4.83,7.89,35.37l2.29,32.58s-2.8,13-14,15.52"/><path class="a" d="M1625.5,93.5s18.41,16.31,46.77,15.87"/><path class="a" d="M1659,75.1s70.61,2.63,74.38,20.75"/><path class="a" d="M1600.5,106.5s-3.21,34.45-8.43,43.32c0,0-2.09,12.26-24.26,11.74,0,0-6.26,1.14-18.26-4.78"/><path class="a" d="M1541.41,138.64s-3.7,5.08.92,12c0,0,5.39,8.94,19.88,8,0,0,17.88-.62,23.85-15.12,0,0,6.92-26.44,5-32.1"/><path class="a" d="M2506.15,573.45s-60.5,56.19-96.63,128.45c0,0-20.86,39-34.78,79.21l-138.42,2.52"/><line class="a" x1="2370.41" y1="656.97" x2="2421.01" y2="656.51"/><line class="a" x1="2253.98" y1="658.09" x2="2278.83" y2="657.87"/><path class="a" d="M2925.25,566.19s31.82,33.29,44.81,60.36"/><path class="a" d="M2224.25,60.73l3.69-2.95,74.52,3s48.27,3,92.73,16.94l185,61,164.28,57.58L2985,289l32.6,13.13s5.64,1.63,4.48,4.41l-5.33,7.42s-2.23,3.59-15.29,3.48l-513.73,12L2319.09,333s-9.59.51-14.41-15.6l-61.8-201Z"/><path class="a" d="M2933.5,318.5,2746,230.38l-236.43-96v-10.2L2644,175.77s164.42,63,174.62,66.61l182.79,75"/><polyline class="a" points="2509.61 124.16 2627.49 163.68 2834.81 242.85 3014.5 315.5"/><polyline class="a" points="2624.5 162.5 2749.69 204.41 2905.5 258.5"/><path class="a" d="M2593.62,326.15l14.19-73.23s1.37-12.81,15.1-13.73L2653,237l-6.6-3c-13.2-5.4-226.23-84-226.23-84-19.2-6.61-117.62-35.41-117.62-35.41l-63.08-8.06"/><path class="a" d="M2638,325.23l12.81-76s2.75-17.39,12.36-19.22l30.2-4.12h21.06s8.24,0,8.24,7.78l-7.79,89.7"/><path class="a" d="M2662.5,78.5l-2.1-4.36,14.91,1.14,195.44,67.06,1-6.36,6.25.94,18.73,7.18s3.12.62,1.87,4.05l-2.18,2.81,171.86,64.42,6.69,3.4.76,3-3.4.75"/><polyline class="a" points="2898.61 148.15 3057.5 201.93 3159.01 242.64 3166.09 249.34 3054.75 204.99 2896.43 150.96"/><path class="a" d="M3413,431.74l-45.28.49a4.18,4.18,0,0,1-3.9-2.19l.73-2.2,46.26-.24"/><polyline class="a" points="3496.5 733.5 3036.4 747.07 3028.64 740.17 3499.5 724.5"/><line class="a" x1="3047.83" y1="770.28" x2="3491.28" y2="750.62"/><polyline class="a" points="3451.78 774.79 3060.92 792.4 3056.4 787.88 3459.27 766.33"/><path class="a" d="M3023.75,860.55c0,20.85-5.59,36.64-12.83,36.64s-13.46-24.64-13.46-45.49"/><path class="a" d="M3026.79,861.05c0,20.85-5.31,41.21-15.52,41.5-12.55.35-16.34-31.27-16.34-52.11"/><path class="a" d="M3011.27,902.55l303.3-.63s3.68,3.22,10.12,1.38c0,0,16.11-11.51,13.35-65.36"/><path class="a" d="M3404.32,821.37h37.75s3.68-3.23,7.36-2.3c0,0,8.28-3.23,7.36,27.61,0,0-.46,32.68-9.66,24.86l-110-.92"/><path class="a" d="M3434,784.6l13.28,18.7s2.24,2.2,4.24,1.2a10.66,10.66,0,0,0,3-2s1.05-1.52-.21-4.58-5.79-7.42-12.79-17.42"/><path class="a" d="M3436.92,782.94l10.49,15.35s1.68,2.52,3,2.52c0,0,2.35-.17-1.34-5.88l-10.25-13.78"/><line class="a" x1="2412.92" y1="913.79" x2="2485.25" y2="907.46"/><polyline class="a" points="129.5 526.5 140.07 532.98 207.77 532.98 186.94 614.35 111.44 613.05 80.84 621.37"/><path class="a" d="M2012.94,196.48s-11.15-2-18.35,22.94l-28.84,85.19s-5.24,13.11,1.31,19h6.55l5.9-15.73"/><line class="a" x1="1967.06" y1="323.62" x2="1958.32" y2="357.73"/><polygon class="a" points="2278.95 636.13 2278.95 659.78 2295.09 659.78 2295.09 653.05 2288.35 653.05 2288.35 636.13 2278.95 636.13"/><polygon class="a" points="2297.44 635.97 2297.44 660.25 2315.46 660.25 2315.46 653.83 2306.84 653.83 2306.84 649.91 2315.46 649.91 2315.46 644.74 2307.16 644.74 2307.16 640.36 2315.46 640.36 2315.46 635.97 2297.44 635.97"/><polygon class="a" points="2323.61 659.94 2330.34 659.94 2338.33 636.07 2315.46 635.97 2323.61 659.94"/><line class="a" x1="2325.21" y1="635.9" x2="2332.23" y2="653.23"/><rect class="a" x="2338.33" y="636.07" width="9.36" height="23.42"/><polygon class="a" points="2349.64 636.07 2349.64 659.74 2357.08 659.74 2357.08 648.92 2362.83 659.66 2370.43 659.66 2370.43 636.07 2361.9 636.07 2361.9 645.99 2356.66 636.07 2349.64 636.07"/><circle class="a" cx="664.39" cy="841.37" r="240.89"/><path class="a" d="M813.1,860.89l-43.25-16.56s-11.75-4.44-13.64-15.74c0,0-3.11-14.7-3.11-18.7,0-6,4.69-10.28,4.69-10.28l36.71-34"/><path class="a" d="M743.1,968.89l-5.25-13.37L727.1,924.89s-3.47-7.71.26-11.85,16.74-20.15,19.74-23.15,10-2,10-2l34,4,14.42,1.22"/><path class="a" d="M618.1,983.89l10-20,13.77-25.67s2.23-5.33,14.16-4.2l18.88.52a15.84,15.84,0,0,1,14.16,8.4l25,39.95"/><path class="a" d="M521.6,887.89l38.44,0,16.06,0s8,0,12.39,5.64a123.19,123.19,0,0,1,10.89,16.89c2.72,5.47.72,11.47.72,11.47l-15,47"/><path class="a" d="M536.1,763.89l33.91,29s8.69,6,8.39,10.49-4.29,25.21-4.8,28.84-6.21,5.25-6.21,5.25L515.1,856.89"/><path class="a" d="M650.1,691.89l-7.18,53.31s-.58,5-4.2,7.86-22,9.9-26.22,12.07c-5.4,2.76-8.4,0-8.4,0l-44-32.24"/><path class="a" d="M772.1,736.89,728,762.08s-4.87,3.81-8.87,1.81-21-9-24-11c-3-1-3.65-6.94-3.65-6.94l-7.35-53.06"/><circle class="a" cx="664.39" cy="841.37" r="174.1"/><circle class="a" cx="664.39" cy="841.37" r="158.2"/><circle class="a" cx="664.39" cy="841.37" r="150.16"/><polygon class="a" points="663.27 779.04 657.18 784.49 657.18 793.52 663.27 799.11 671.23 799.11 677.25 793.52 677.25 784.49 671.23 779.04 663.27 779.04"/><polygon class="a" points="663.27 886.18 657.18 891.63 657.18 900.66 663.27 906.25 671.23 906.25 677.25 900.66 677.25 891.63 671.23 886.18 663.27 886.18"/><polygon class="a" points="610.26 831.27 604.17 836.72 604.17 845.75 610.26 851.34 618.22 851.34 624.24 845.75 624.24 836.72 618.22 831.27 610.26 831.27"/><polygon class="a" points="716.99 831.27 710.9 836.72 710.9 845.75 716.99 851.34 724.95 851.34 730.97 845.75 730.97 836.72 724.95 831.27 716.99 831.27"/><path class="a" d="M565.1,788.89s-14.21,26.19-10,53"/><path class="a" d="M591.11,755.72s19.15-24.91,54-28.35"/><path class="a" d="M689.1,727.89s41.08,8.76,52,26"/><path class="a" d="M770,788.67s15.81,19.57,10.06,59.22"/><path class="a" d="M560,887.86s6.75,29.37,36.06,46"/><path class="a" d="M634.1,952.89s38.61,7.06,60.45-1"/><path class="a" d="M771.1,889.89s-7.32,25.27-39.84,46.86"/><circle class="a" cx="667.22" cy="789.08" r="18.34"/><circle class="a" cx="614.2" cy="841.3" r="18.34"/><circle class="a" cx="667.22" cy="896.21" r="18.34"/><circle class="a" cx="720.94" cy="841.3" r="18.34"/><path class="d" d="M643.21,840h-3.47v-1.25h8.55V840h-3.51v8h-1.57Z"/><path class="d" d="M653.48,848.21a4.54,4.54,0,0,1-4.75-4.69,4.71,4.71,0,0,1,4.87-4.91,4.52,4.52,0,0,1,4.79,4.7,4.67,4.67,0,0,1-4.9,4.9Zm.07-1.22c2,0,3.16-1.54,3.16-3.61,0-1.82-1.1-3.55-3.15-3.55s-3.18,1.67-3.18,3.63a3.25,3.25,0,0,0,3.15,3.53Z"/><path class="d" d="M662.7,848.05V844.1l-3.54-5.33H661l1.51,2.6c.42.73.69,1.16,1,1.75h0c.29-.54.63-1,1-1.73l1.56-2.62H668l-3.76,5.31v4Z"/><path class="d" d="M673.37,848.21a4.54,4.54,0,0,1-4.75-4.69,4.71,4.71,0,0,1,4.88-4.91,4.52,4.52,0,0,1,4.78,4.7,4.67,4.67,0,0,1-4.9,4.9Zm.07-1.22c2,0,3.17-1.54,3.17-3.61a3.26,3.26,0,0,0-3.16-3.55c-2.06,0-3.18,1.67-3.18,3.63a3.25,3.25,0,0,0,3.16,3.53Z"/><path class="d" d="M682.22,840h-3.46v-1.25h8.54V840h-3.51v8h-1.57Z"/><path class="d" d="M690.1,845.28l-.92,2.77h-1.64l3.23-9.28h2l3.3,9.28h-1.7l-1-2.77Zm3-1.18-.88-2.47c-.2-.57-.36-1.12-.49-1.63h0c-.15.51-.29,1.08-.47,1.62l-.87,2.48Z"/><path class="a" d="M649.31,895.9a55.87,55.87,0,0,1-35.71-36.55"/><path class="a" d="M719.89,860.17A55.86,55.86,0,0,1,685.6,895.5"/><path class="a" d="M685.1,790.89c16.33,5.08,27.78,16.39,33.84,32.26"/><path class="a" d="M614.94,822.84a55.85,55.85,0,0,1,33.39-32.37"/></svg>