<?xml version="1.0" encoding="utf-8"?>
<!-- Generator: Adobe Illustrator 26.2.1, SVG Export Plug-In . SVG Version: 6.00 Build 0)  -->
<svg version="1.1" id="a" xmlns="http://www.w3.org/2000/svg" xmlns:xlink="http://www.w3.org/1999/xlink" x="0px" y="0px"
	 viewBox="0 0 176.6 29.9" style="enable-background:new 0 0 176.6 29.9;" xml:space="preserve">
<style type="text/css">
	.st0{fill:#F5AC18;}
</style>
<g id="b" transform="translate(0 97)">
	<g>
		<path class="st0" d="M14.6-71.1v3.7H0.3v-29.3h5.1v25.6H14.6z"/>
		<path class="st0" d="M23.6-74.4v-15.2c0-5.8,3.4-7.3,9.5-7.3s9.5,1.5,9.5,7.3v15.2c0,5.8-3.5,7.3-9.5,7.3S23.6-68.6,23.6-74.4z
			 M37.5-74.8v-14.5c0-2.9-0.9-4.4-4.4-4.4s-4.4,1.5-4.4,4.4v14.5c0,2.9,0.8,4.4,4.4,4.4S37.5-71.9,37.5-74.8z"/>
		<path class="st0" d="M66-72h-9.4l-1.1,4.6h-4.5l7.6-29.3h6.2l7.6,29.3h-5.2L66-72L66-72z M65.1-75.6l-3.8-15.2l-3.8,15.2H65.1z"/>
		<path class="st0" d="M100.4-89.4v14.7c0,5.8-3.3,7.3-9.3,7.3h-9.7v-29.3h9.7C97.2-96.8,100.4-95.2,100.4-89.4z M95.3-89
			c0-2.9-0.7-4.3-4.2-4.3h-4.6v22.7h4.6c3.5,0,4.2-1.5,4.2-4.4V-89z"/>
		<path class="st0" d="M111.3-96.7h5.1v29.3h-5.1V-96.7z"/>
		<path class="st0" d="M146.8-96.7v29.3H142l-9.9-20.2v20.2h-4.2v-29.3h4.8l10,21.1v-21.1H146.8L146.8-96.7z"/>
		<path class="st0" d="M171.8-87.4v-2.8c0-2.1-0.8-3.6-4.4-3.6s-4.4,1.5-4.4,4.3v14.7c0,2.8,0.8,4.3,4.4,4.3s4.4-1.6,4.4-3.8v-6.1
			h-4.4V-84h9.5v10.1c0,5.1-3.4,6.8-9.5,6.8s-9.5-1.5-9.5-7.3v-15.2c0-5.8,3.4-7.3,9.5-7.3s9.5,1.5,9.5,6.6v3.1H171.8z"/>
	</g>
</g>
</svg>
