<?xml version="1.0" encoding="UTF-8"?><svg id="a" xmlns="http://www.w3.org/2000/svg" viewBox="0 0 176.6 29.9"><defs><style>.c{fill:#f5ac18;}.d{isolation:isolate;}</style></defs><g id="b" class="d" transform="translate(0 97)"><g><path class="c" d="M14.32,25.92v3.68H0V.29H5.11V25.92H14.32Z"/><path class="c" d="M23.28,22.57V7.33C23.28,1.55,26.71,.04,32.78,.04s9.5,1.51,9.5,7.29v15.24c0,5.82-3.52,7.33-9.5,7.33s-9.5-1.51-9.5-7.33Zm13.9-.38V7.7c0-2.93-.88-4.4-4.4-4.4s-4.4,1.47-4.4,4.4v14.49c0,2.93,.84,4.4,4.4,4.4s4.4-1.47,4.4-4.4Z"/><path class="c" d="M65.69,25h-9.42l-1.13,4.61h-4.48L58.28,.29h6.16l7.62,29.31h-5.19l-1.17-4.61Zm-.88-3.56l-3.85-15.24-3.81,15.24h7.66Z"/><path class="c" d="M100.15,7.58v14.74c0,5.78-3.27,7.29-9.29,7.29h-9.71V.29h9.71c6.03-.04,9.29,1.51,9.29,7.29Zm-5.11,.38c0-2.89-.71-4.35-4.23-4.35h-4.56V26.29h4.56c3.52,0,4.23-1.51,4.23-4.4V7.96Z"/><path class="c" d="M111.04,.29h5.11V29.6h-5.11V.29Z"/><path class="c" d="M146.54,.29V29.6h-4.86l-9.88-20.18V29.6h-4.23V.29h4.77l9.97,21.1V.29h4.23Z"/><path class="c" d="M171.5,9.63v-2.76c0-2.09-.79-3.56-4.4-3.56s-4.4,1.47-4.4,4.31v14.65c0,2.81,.79,4.31,4.4,4.31s4.4-1.63,4.4-3.77v-6.15h-4.35v-3.64h9.46v10.09c0,5.11-3.43,6.78-9.5,6.78s-9.5-1.55-9.5-7.33V7.33c0-5.82,3.39-7.33,9.5-7.33s9.5,1.51,9.5,6.57v3.06h-5.11Z"/></g></g></svg>