<svg id="レイヤー_1" data-name="レイヤー 1" xmlns="http://www.w3.org/2000/svg" viewBox="0 0 102.13 87.59"><defs><style>.cls-1{fill:#f5ac16;}.cls-2{isolation:isolate;}</style></defs><rect class="cls-1" width="102.13" height="4.69"/><rect class="cls-1" x="27.66" y="32.37" width="74.47" height="4.69"/><g id="NEW"><g class="cls-2"><path class="cls-1" d="M14,87.17l2-11.69h-.09l-6,11.69H7.37l-2-11.69H5.24L3.39,87.17H0L2.72,70.85H7.78L9.57,81.43h.08l5.2-10.58h5.37L17.5,87.17Z"/><path class="cls-1" d="M32.68,87.17,35.4,70.85h9.85l-.55,3.27H38.31l-.52,3.16h6.09l-.53,3.09H37.27l-.57,3.5h7l-.54,3.3Z"/><path class="cls-1" d="M67,87.17,62.77,76.34h-.06L61,87.17H57.4l2.72-16.32h4.06L68.4,81.62h0l1.74-10.77h3.56L71,87.17Z"/><path class="cls-1" d="M99.65,83.82a6.27,6.27,0,0,1-1.43,2,6.11,6.11,0,0,1-2.09,1.3,8.87,8.87,0,0,1-5.32.1,5.53,5.53,0,0,1-1.91-1,4.28,4.28,0,0,1-1.22-1.6,5.14,5.14,0,0,1-.43-2.12c0-.21,0-.44,0-.69s0-.48.07-.71l1.7-10.24h3.59L91,80.74a3.54,3.54,0,0,0,0,.48c0,.17,0,.33,0,.46a3.39,3.39,0,0,0,.14,1,2.13,2.13,0,0,0,.45.82,2.08,2.08,0,0,0,.8.57,3.27,3.27,0,0,0,1.2.2A3.22,3.22,0,0,0,95,83.93a2.85,2.85,0,0,0,1-.8A3.77,3.77,0,0,0,96.58,82a11.07,11.07,0,0,0,.31-1.23l1.67-9.94h3.57l-1.7,10.33A10.44,10.44,0,0,1,99.65,83.82Z"/></g></g></svg>