<?xml version="1.0" encoding="utf-8"?>
<!-- Generator: Adobe Illustrator 26.0.1, SVG Export Plug-In . SVG Version: 6.00 Build 0)  -->
<svg version="1.1" id="レイヤー_1" xmlns="http://www.w3.org/2000/svg" xmlns:xlink="http://www.w3.org/1999/xlink" x="0px"
	 y="0px" viewBox="0 0 235 95" style="enable-background:new 0 0 235 95;" xml:space="preserve">
<style type="text/css">
	.st0{enable-background:new    ;}
	.st1{fill:#FFB100;}
</style>
<g>
	<g class="st0">
		<path class="st1" d="M89.5,38.8c-0.1,0.1-0.3,0.1-0.6,0.1c-0.7,0.9-2.2,2.2-3.3,2.9l-0.2-0.1c0.8-0.8,1.8-2,2.4-2.9h-4.4v5.8
			c0,0.6-0.2,1.1-1.6,1.2c0-0.2-0.2-0.4-0.4-0.6c-0.3-0.1-0.8-0.2-1.6-0.3v-0.2c0,0,1.9,0.1,2.3,0.1c0.3,0,0.4-0.1,0.4-0.3v-5.8
			h-5.9l-0.1-0.4H84l0,0c-0.5-0.7-1.7-1.8-3.5-2.6l0.1-0.2c1.1,0.3,1.9,0.6,2.5,0.9c0.9-0.5,2.1-1.3,2.9-1.9h-7.7L78.2,34h8.2
			l0.6-0.6l1,1c-0.1,0.1-0.3,0.1-0.6,0.1c-0.9,0.6-2.7,1.5-4,2c1.3,0.8,1.4,1.6,1.1,1.8h3.5l0.6-0.6L89.5,38.8z"/>
		<path class="st1" d="M119.9,37.7c0,0,0.7,0.6,1.2,1c0,0.2-0.2,0.2-0.4,0.2h-12.2l-0.1-0.4h6v-2.7h-3.1c-0.4,0.8-1,1.6-1.6,2.2
			l-0.2-0.1c0.8-1.1,1.5-3,1.9-4.7l1.3,0.4c0,0.2-0.2,0.3-0.5,0.3c-0.2,0.5-0.4,1.1-0.7,1.6h2.9v-2.4l1.3,0.2c0,0.2-0.2,0.3-0.5,0.4
			v1.8h3l0.6-0.8c0,0,0.7,0.6,1.2,1c0,0.2-0.2,0.2-0.4,0.2h-4.5v2.7h4.1L119.9,37.7z M118.3,40.1l1,0.8c-0.1,0.1-0.3,0.2-0.6,0.3
			v4.3c0,0.1-0.4,0.3-0.6,0.3H118v-1h-6.5v0.7c0,0.1-0.3,0.3-0.6,0.3h-0.1v-5.6l0.8,0.4h6.3L118.3,40.1z M118,44.4V41h-6.5v3.4H118z
			"/>
		<path class="st1" d="M143.4,33.5c-0.1,0.2-0.2,0.3-0.5,0.3c-0.5,0.7-1,1.6-1.5,2.2c0.9,0.8,0.5,1.7-0.1,1.3
			c-0.1-0.6-0.8-1.4-1.3-1.8l0.1-0.1c0.4,0.1,0.7,0.3,1,0.5c0.3-0.8,0.7-1.8,1-2.7L143.4,33.5z M143,39.5v6.1c0,0.1-0.3,0.3-0.6,0.3
			h-0.1v-6.2c-0.5,0.1-1,0.2-1.6,0.2c-0.1,0.2-0.2,0.3-0.3,0.3l-0.4-1c0.3,0,0.7,0,1.3,0c0.8-1.3,1.8-3.2,2.5-4.5l1.2,0.5
			c-0.1,0.1-0.3,0.2-0.6,0.2c-0.6,1.1-1.7,2.5-2.7,3.7c0.7,0,1.5-0.1,2.3-0.1c-0.2-0.5-0.4-0.9-0.7-1.3l0.2-0.1
			c2.2,1.4,1.5,3,0.8,2.4c0-0.2-0.1-0.5-0.2-0.7L143,39.5z M140,44.3c0.4-1,0.7-2.3,0.9-3.6L142,41c0,0.2-0.2,0.3-0.5,0.3
			c-0.3,1.1-0.7,2.3-1.3,3.1L140,44.3z M143.7,40.7c1.9,1.4,1.1,2.8,0.4,2.2c0-0.7-0.3-1.6-0.6-2.1L143.7,40.7z M152,39.5l1,0.7
			c-0.1,0.1-0.3,0.2-0.5,0.2v4.3c0,0.6-0.1,1-1,1.1c0-0.2-0.1-0.4-0.2-0.5c-0.1-0.1-0.3-0.2-0.7-0.2v-0.2c0,0,0.8,0.1,1,0.1
			c0.2,0,0.2-0.1,0.2-0.3v-1.9h-1.2v2.6c0,0.1-0.2,0.3-0.6,0.3h-0.1v-2.9h-1.2v2.7c0,0.1-0.2,0.3-0.6,0.3H148v-2.9h-1.1v2.8
			c0,0.1-0.3,0.2-0.6,0.2h-0.1v-4.6c-0.3,1.4-0.8,2.9-2,4.1l-0.2-0.1c1.5-2.1,1.7-4.6,1.7-6.9v-2.9l0.9,0.4h4.6l0.5-0.5l1,0.8
			c-0.1,0.1-0.4,0.2-0.6,0.3v2.5c0,0.1-0.4,0.3-0.6,0.3h-0.1v-0.5h-4.9c0,0.3,0,0.7,0,1.1l0.6,0.3h4.7L152,39.5z M151.9,33.3
			c0,0,0.7,0.5,1.1,0.9c0,0.1-0.2,0.2-0.4,0.2H145l-0.1-0.4h6.4L151.9,33.3z M146.4,36.2v2h4.9v-2H146.4z M148,42.4v-2h-1.1v2H148z
			 M149.8,42.4v-2h-1.2v2H149.8z M151.7,42.4v-2h-1.2v2H151.7z"/>
	</g>
</g>
<g>
	<g class="st0">
		<path class="st1" d="M110.4,0l13.1,7.6l-13.1,7.6V0z"/>
	</g>
</g>
<g>
	<g class="st0">
		<path class="st1" d="M20,73.8v21h-3.4V79.4l-4.5,15.4H9.5L5,79.6v15.2H2v-21h4.5l4.6,15.4l4.4-15.4H20z"/>
	</g>
	<g class="st0">
		<path class="st1" d="M28.2,89.7V78.8c0-4.1,2.5-5.2,6.8-5.2c4.3,0,6.8,1.1,6.8,5.2v10.9c0,4.2-2.5,5.2-6.8,5.2
			C30.7,95,28.2,93.9,28.2,89.7z M38.2,89.5V79.1c0-2.1-0.6-3.1-3.1-3.1c-2.5,0-3.1,1-3.1,3.1v10.4c0,2.1,0.6,3.1,3.1,3.1
			C37.5,92.6,38.2,91.6,38.2,89.5z"/>
	</g>
	<g class="st0">
		<path class="st1" d="M63.5,73.8l-5.5,21h-4.3l-5.5-21h3.7l4.2,16.9l4.2-16.9H63.5z"/>
	</g>
	<g class="st0">
		<path class="st1" d="M70.2,73.8h3.7v21h-3.7V73.8z"/>
		<path class="st1" d="M86,76.4v6.2h6.8v2.6H86v6.9h6.8v2.6H82.4v-21h10.5v2.6H86z"/>
		<path class="st1" d="M123.7,76.4h-5v18.4H115V76.4h-5v-2.6h13.7V76.4z"/>
		<path class="st1" d="M137.1,87.2h-3.1v7.6h-3.7v-21h6.7c4.3,0,6.7,1,6.7,4.9v3.5c0,2.6-1,4-3,4.7l3.8,8h-3.9L137.1,87.2z
			 M134.1,84.8l3.1,0c2.5,0,3-1.1,3-2.7v-3.3c0-1.6-0.5-2.7-3-2.7h-3.1V84.8z"/>
	</g>
	<g class="st0">
		<path class="st1" d="M161,91.5h-6.8l-0.8,3.3h-3.2l5.5-21h4.4l5.5,21h-3.7L161,91.5z M160.3,88.9L157.6,78l-2.7,10.9H160.3z"/>
	</g>
	<g class="st0">
		<path class="st1" d="M172.3,73.8h3.7v21h-3.7V73.8z"/>
	</g>
	<g class="st0">
		<path class="st1" d="M194.8,92.1v2.6h-10.3v-21h3.7v18.4H194.8z"/>
	</g>
	<g class="st0">
		<path class="st1" d="M205.4,76.4v6.2h6.8v2.6h-6.8v6.9h6.8v2.6h-10.5v-21h10.5v2.6H205.4z"/>
		<path class="st1" d="M226.9,87.2h-3.1v7.6h-3.7v-21h6.8c4.3,0,6.7,1,6.7,4.9v3.5c0,2.6-1,4-3,4.7l3.8,8h-3.9L226.9,87.2z
			 M223.8,84.8l3.1,0c2.5,0,3-1.1,3-2.7v-3.3c0-1.6-0.5-2.7-3-2.7h-3.1V84.8z"/>
	</g>
</g>
<rect y="58.8" class="st1" width="235" height="2"/>
</svg>
