<svg xmlns="http://www.w3.org/2000/svg" viewBox="0 0 2210.54 816.27"><defs><style>.a{isolation:isolate;}.b{fill:#ffb100;}</style></defs><g class="a"><g class="a"><path class="b" d="M842.63,396.26c-1,1-2.85,1.29-6,1.43-7.42,9.43-22.71,22.43-33.85,30l-1.72-1.43a217.2,217.2,0,0,0,24.57-30H780.35v59.43c0,6.57-1.86,11.43-16,12.71a8.3,8.3,0,0,0-3.71-5.85c-2.72-1.29-7.72-2.43-16-3.29V457s19.85,1.42,23.71,1.42c3.14,0,4.14-.85,4.14-3.14v-59H712.21l-1.14-4.14h75.57l-.29-.14c-4.71-7.43-17.57-18.86-36.14-26.57l.85-2.29a108.28,108.28,0,0,1,25.86,9.14c9.29-5.42,21.86-13.42,30-19.85H728.35l-1.28-4.15h83.14l6.28-5.71,10.29,9.71c-1.29,1-3.15,1.29-6.43,1.43-9.43,6.57-27.29,15-40.71,20,13.28,8,14.57,16.29,11.28,18.43h35.57l6-5.71Z"/><path class="b" d="M1153.06,385.69s7.43,5.86,12.14,10.14c-.43,1.58-1.71,2.29-3.71,2.29H1036.78l-1.29-4.14h60.86V366.26h-31.86c-4.57,8.57-10.14,16.57-16.28,22.43l-2.15-1.43c8.15-11.28,15.72-30.28,19.29-47.57l12.86,3.57c-.43,1.72-2.15,2.86-4.86,2.86a150.45,150.45,0,0,1-6.72,16h29.72v-24l13,1.57c-.29,1.86-1.86,3.29-5.15,3.86v18.57h30.86l6.57-8.28s7.43,6,12.14,10.14c-.28,1.57-1.71,2.28-3.71,2.28H1104.2V394h42.15Zm-16.43,24.14L1147.2,418c-1,1.14-3.14,2.28-6.14,2.85v44c-.14.86-4,3-6.43,3h-1.14v-9.71h-66.57v7.57c0,.57-3.14,2.57-6.43,2.57h-1.28V411l8.42,4h64.43Zm-3.14,44V419.12h-66.57v34.71Z"/><path class="b" d="M1393.2,342.69c-.71,1.72-2.43,2.86-5.14,2.72a266,266,0,0,1-15.43,22.43c9.57,8.14,4.72,17-1.28,13-1.43-6.42-7.72-14.14-13-18.57l1.28-1.14a46.35,46.35,0,0,1,10.29,4.72c3.28-7.72,7.43-18.29,10.57-27.72Zm-4.14,60.72v62.14c0,.71-2.57,2.71-6.28,2.71h-1V404.69c-4.86.72-10.15,1.57-15.86,2.43a4.72,4.72,0,0,1-3.43,2.86l-4-9.72c3.14,0,7.57-.14,13-.28a517.54,517.54,0,0,0,25.14-45.43l12,5.43c-.71,1.43-2.71,2.43-5.71,1.86a344.5,344.5,0,0,1-27.29,38c7.15-.28,15.43-.71,23.86-1.14a74.84,74.84,0,0,0-6.72-13.14l1.72-.72c22.57,14.58,14.86,30.86,7.71,24.15a38.6,38.6,0,0,0-1.71-7.43Zm-30.57,49.85c3.86-9.71,7.14-23.57,8.86-36.57l11.43,2.86c-.43,1.71-2,3-4.86,3-3,11.43-7.43,23.57-13,31.85Zm37.57-37.14c19.14,14.28,11,29,4.29,22.28-.15-6.85-3.15-15.85-6.29-21.57Zm84-12.14,9.86,7.43c-.58.85-2.72,1.85-5.29,2.28v43.57c0,6.43-1,10.29-9.71,11.29-.29-2-.72-4.29-2-5.57s-3.43-1.86-7.15-2.29v-2.43s7.72.72,9.72.72c1.71,0,2.14-.72,2.14-2.58v-19h-12.71v26.72c0,.71-2.43,2.57-5.86,2.57h-1V437.4H1446.2v27.29c0,.57-2.43,2.57-6,2.57h-1V437.4h-11.43v28.29c0,.71-2.85,2.43-6,2.43h-1.14V421.26c-2.57,14.57-8.28,29.72-20,41.86l-2-1.43c14.86-21.43,16.86-47.28,16.86-70.71V361.84l8.85,4.28h47.29l4.71-5,10.43,8c-1,1.14-3.57,2.14-6.28,2.71v25.43c-.15.86-3.86,2.72-6.29,2.72h-1.14v-5.15h-50.14c0,3.43-.15,7-.43,10.72l6,3h47.85Zm-.72-63.43s7.15,5.43,11.43,9.57c-.28,1.43-1.57,2.14-3.57,2.14h-78.28l-1-4.14h65.28Zm-56.42,29.86v20.28h50.14V370.41Zm16.28,62.71V412.69h-11.43v20.43Zm18.86,0V412.69H1446.2v20.43Zm19.57,0V412.69h-12.71v20.43Z"/></g></g><g class="a"><g class="a"><path class="b" d="M1056.51.84,1190.14,78,1056.51,155.1Z"/></g></g><g class="a"><g class="a"><path class="b" d="M164.25,600.4V814.69h-25.1V654.28L92,814.69H70.58L24.05,656.42V814.69H2V600.4H31.7L83.44,770.61,134.56,600.4Z"/><path class="b" d="M250,763.26V652.44c0-42.85,20.81-53,61.53-53s61.84,10.11,61.84,53V763.26c0,42.86-21.13,53-61.84,53S250,806.12,250,763.26Zm96.12,0V652.44c0-21.43-6.12-33.67-34.59-33.67S277.21,631,277.21,652.44V763.26c0,21.43,5.82,33.67,34.29,33.67S346.09,784.69,346.09,763.26Z"/><path class="b" d="M580,600.4l-55.1,214.29h-29.7L440.07,600.4h28.16L512.93,778,556.09,600.4Z"/><path class="b" d="M650.07,600.4h27.25V814.69H650.07Z"/><path class="b" d="M793.33,620.61v73.77h67v19.9h-67v80.2h67v20.21H766.09V600.4h94.28v20.21Z"/><path class="b" d="M1157,620.61h-48.67V814.69h-27.25V620.61h-48.37V600.4H1157Z"/><path class="b" d="M1326.28,814.69l-37-80.51h-34.59v80.51h-27.24V600.4l60.3-.3c40.72,0,60.92,10.71,60.92,50.51v30c0,29.38-8.88,44.38-30.92,50.51l38,83.57Zm-71.63-99.8h33.06c28.47,0,33.68-12.24,33.68-30.61V650.61c0-18.37-5.21-30.62-33.68-30.62h-33.06Z"/><path class="b" d="M1516.07,780.1h-70.4l-8.58,34.59h-23.87l55.1-214.29H1498l55.11,214.29H1525Zm-4.89-19.9-30.92-121.84-29.7,121.84Z"/><path class="b" d="M1623.83,600.4h27.24V814.69h-27.24Z"/><path class="b" d="M1832.6,794.48v20.21h-92.76V600.4h27.25V794.48Z"/><path class="b" d="M1933.31,620.61v73.77h67v19.9h-67v80.2h67v20.21h-94.28V600.4h94.28v20.21Z"/><path class="b" d="M2180.35,814.69l-37-80.51h-34.59v80.51h-27.25V600.4l60.31-.3c40.71,0,60.92,10.71,60.92,50.51v30c0,29.38-8.88,44.38-30.92,50.51l38,83.57Zm-71.63-99.8h33.06c28.47,0,33.67-12.24,33.67-30.61V650.61c0-18.37-5.2-30.62-33.67-30.62h-33.06Z"/></g></g></svg>