<svg id="レイヤー_1" data-name="レイヤー 1" xmlns="http://www.w3.org/2000/svg" viewBox="0 0 235 94.97"><defs><style>.cls-1,.cls-2,.cls-3{isolation:isolate;}.cls-2{font-size:14px;font-family:SourceHanSerif-Light-83pv-RKSJ-H, Source Han Serif;letter-spacing:0.25em;}.cls-2,.cls-3,.cls-4{fill:#ffb100;}.cls-3{font-size:18px;font-family:LucidaGrande, Lucida Grande;letter-spacing:0.15em;}</style></defs><g id="予_告_編" data-name="予 告 編" class="cls-1"><text class="cls-2" transform="translate(76 44.76)"><tspan xml:space="preserve">予  告  編</tspan></text></g><g id="_" data-name=" " class="cls-1"><text class="cls-3" transform="translate(109 14.76)">▶</text></g><g id="MOVIE_TRAILER" data-name="MOVIE TRAILER" class="cls-1"><g class="cls-1"><path class="cls-4" d="M20,73.76v21H16.59V79.4L12.06,94.76H9.48L5,79.58V94.76H2v-21H6.45l4.62,15.36,4.44-15.36Z"/><path class="cls-4" d="M28.2,89.72V78.8c0-4.14,2.46-5.22,6.81-5.22s6.81,1.08,6.81,5.22V89.72C41.82,93.89,39.3,95,35,95S28.2,93.89,28.2,89.72Zm10-.27V79.07c0-2.1-.63-3.15-3.15-3.15s-3.15,1-3.15,3.15V89.45c0,2.1.6,3.15,3.15,3.15S38.16,91.55,38.16,89.45Z"/><path class="cls-4" d="M63.48,73.76,58,94.76H53.64l-5.46-21H51.9l4.23,16.86L60.3,73.76Z"/><path class="cls-4" d="M70.2,73.76h3.66v21H70.2Z"/><path class="cls-4" d="M86,76.4v6.24h6.81v2.61H86v6.87h6.81v2.64H82.35v-21H92.82V76.4Z"/><path class="cls-4" d="M123.66,76.4h-5V94.76H115V76.4h-5V73.76h13.68Z"/><path class="cls-4" d="M137.13,87.2h-3.06v7.56h-3.66v-21h6.75c4.32,0,6.66,1,6.66,4.86v3.45c0,2.58-1,4-3,4.68l3.78,8h-3.87Zm-3.06-2.37,3.06,0c2.55,0,3-1.08,3-2.73v-3.3c0-1.65-.48-2.7-3-2.7h-3.06Z"/><path class="cls-4" d="M161,91.46h-6.75l-.81,3.3h-3.21l5.46-21h4.41l5.46,21h-3.72Zm-.63-2.55L157.59,78l-2.73,10.92Z"/><path class="cls-4" d="M172.35,73.76H176v21h-3.66Z"/><path class="cls-4" d="M194.79,92.12v2.64H184.53v-21h3.66V92.12Z"/><path class="cls-4" d="M205.44,76.4v6.24h6.81v2.61h-6.81v6.87h6.81v2.64H201.78v-21h10.47V76.4Z"/><path class="cls-4" d="M226.86,87.2H223.8v7.56h-3.66v-21h6.75c4.32,0,6.66,1,6.66,4.86v3.45c0,2.58-1,4-3,4.68l3.78,8h-3.87Zm-3.06-2.37,3.06,0c2.55,0,3-1.08,3-2.73v-3.3c0-1.65-.48-2.7-3-2.7H223.8Z"/></g></g><rect id="長方形_8" data-name="長方形 8" class="cls-4" y="58.76" width="235" height="2"/></svg>