<svg xmlns="http://www.w3.org/2000/svg" viewBox="0 0 121.54 89.27"><defs><style>.a{fill:#ffa31a;}</style></defs><path class="a" d="M30.41,87.37C14,87.37,1.11,68.64,1.11,44.68S14,2,30.41,2,59.82,20.49,59.82,44.56,47,87.37,30.41,87.37ZM20.42,76c1.59,6.36,5.22,8.63,10.1,8.63,5.57,0,8.63-2.84,10.22-9.2C42.11,70.11,43,58.53,43,44.56c0-14.19-.91-26-2.39-31.11-1.82-6.36-5.11-8.63-10.22-8.63-5.56,0-8.63,2.84-10.11,8.63s-2.38,16.46-2.38,30.88S19.06,70.79,20.42,76Z"/><path class="a" d="M75.65,39.79a27.4,27.4,0,0,1,14.77-3.86c17.71,0,30.54,10.9,30.54,25.89,0,15.56-13.28,26.69-31.79,26.69-7.16,0-12.84-1.82-16.81-5.57a17.78,17.78,0,0,1-5.79-12.83c0-5,3-8.29,7.38-8.29,4,0,6.7,2.61,6.7,6.36a6.74,6.74,0,0,1-3.18,5.91c-2,1.59-2.5,2.15-2.5,3.63,0,4.32,5.57,7.72,12.49,7.72,10.11,0,17-8.74,17-22.82,0-12.95-7.27-23.28-17.26-23.28A19.76,19.76,0,0,0,74.4,44.56l-2.49-.91L74.18,4.7h35.2c3.75,0,4.54-.56,5.22-3.86h2.5a58.35,58.35,0,0,1-2,12c-1.25,3.41-3.52,4.66-8.75,4.66H77.13Z"/></svg>