<svg xmlns="http://www.w3.org/2000/svg" viewBox="0 0 124.54 89.27"><defs><style>.a{fill:#ff9f15;}</style></defs><path class="a" d="M30.41,87.87c-16.47,0-29.3-18.73-29.3-42.69s12.83-42.7,29.3-42.7S59.82,21,59.82,45.06,47,87.87,30.41,87.87Zm-10-11.35c1.59,6.36,5.22,8.63,10.1,8.63,5.57,0,8.63-2.84,10.22-9.2C42.11,70.61,43,59,43,45.06c0-14.19-.9-26-2.38-31.11-1.82-6.36-5.11-8.63-10.22-8.63-5.56,0-8.63,2.84-10.11,8.63s-2.38,16.46-2.38,30.88S19.05,71.29,20.42,76.52Z"/><path class="a" d="M116,4.18c-9.2,1.25-15.22,4.66-20.67,11.7-5.33,6.7-8.06,13.85-9,23.73,4-4.2,8.86-6.7,14.65-6.7,13.06,0,22.82,11,22.82,25.66,0,17-11.92,30.44-27,30.44-16.35,0-29.07-15.9-29.07-36.34A53.07,53.07,0,0,1,93.29,7.93c6.93-4.09,13.63-6,22.71-6.59ZM98.17,37.23A12.67,12.67,0,0,0,88.41,42c-2.62,3.4-3.87,9.42-3.87,18.73s.91,16,2.84,20a9.29,9.29,0,0,0,9.09,5.56c4.54,0,7.38-2,9-6.24s2.5-11.59,2.5-20.22C107.94,42.68,105.55,37.23,98.17,37.23Z"/></svg>