<svg xmlns="http://www.w3.org/2000/svg" viewBox="0 0 129.54 87.27"><defs><style>.a{fill:#ffb127;}</style></defs><path class="a" d="M30.41,86.36c-16.46,0-29.3-18.74-29.3-42.7S14,1,30.41,1,59.82,19.47,59.82,43.54,47,86.36,30.41,86.36ZM20.42,75c1.59,6.36,5.22,8.63,10.1,8.63,5.57,0,8.63-2.84,10.22-9.2C42.11,69.09,43,57.51,43,43.54c0-14.19-.91-26-2.39-31.11C38.81,6.07,35.52,3.8,30.41,3.8c-5.56,0-8.63,2.84-10.11,8.63S17.92,28.9,17.92,43.32,19.06,69.78,20.42,75Z"/><path class="a" d="M103.75,2h9.08V59.38h8.75c3.52,0,4-.68,4-5.9V50.64h3.18V72.79h-3.18V68.58c-.11-4.77-.45-5.33-4-5.33h-8.75V82.1l9.77.22v3H87.51v-3l9.77-.22V63.25H65.59v-4ZM70.14,59.38H97.28V18.28Z"/></svg>