<svg xmlns="http://www.w3.org/2000/svg" viewBox="0 0 127.54 87.27"><defs><style>.a{fill:#ff980f;}</style></defs><path class="a" d="M30.41,86.44c-16.47,0-29.3-18.74-29.3-42.7S13.94,1.05,30.41,1.05,59.82,19.56,59.82,43.63,47,86.44,30.41,86.44Zm-10-11.36c1.59,6.36,5.22,8.63,10.1,8.63,5.57,0,8.63-2.83,10.22-9.19C42.11,69.18,43,57.6,43,43.63c0-14.19-.9-26-2.38-31.11-1.82-6.36-5.11-8.64-10.22-8.64-5.56,0-8.63,2.84-10.11,8.64S17.92,29,17.92,43.4,19.05,69.86,20.42,75.08Z"/><path class="a" d="M126.55,63.73c0,13.4-12.15,22.71-29.64,22.71-17,0-29.64-9.54-29.64-22.48,0-10.11,8-18.4,21-22-11.81-3.86-18.17-10.79-18.17-20C70.11,10.24,81.92,1.05,97,1.05s26.69,9.08,26.69,20.78c0,8.85-6,15.89-18.28,20.1C119.05,45.67,126.55,53.4,126.55,63.73Zm-20-16.47c-2.15-2.61-5.45-3.86-9.54-3.86C92.6,43.4,89,45,86.69,48.06c-2,2.84-3,7.61-3,16.35,0,8.52,1,12.83,3.75,15.67,2.27,2.39,5.56,3.63,9.53,3.63,4.55,0,7.61-1.24,9.77-4,2.27-3.07,3.29-8.06,3.29-15.33C110.08,55.1,109.06,50.22,106.56,47.26ZM105.43,8c-1.48-2.61-4.66-4.09-8.52-4.09-4.31,0-7.49,1.71-9,4.89-1.25,2.72-1.82,7.27-1.82,13.85,0,7.38.57,11.47,2,14.08s4.08,3.86,8.74,3.86c4.43,0,6.81-1,8.52-3.4,1.7-2.73,2.38-7,2.38-14.2C107.81,15,107.13,10.7,105.43,8Z"/></svg>