<svg xmlns="http://www.w3.org/2000/svg" viewBox="0 0 120.54 87.27"><defs><style>.a{fill:#ffc238;}</style></defs><path class="a" d="M30.41,86.52c-16.46,0-29.3-18.74-29.3-42.7S14,1.12,30.41,1.12,59.82,19.63,59.82,43.71,47,86.52,30.41,86.52Zm-10-11.36c1.59,6.36,5.22,8.63,10.1,8.63,5.57,0,8.63-2.84,10.22-9.19C42.11,69.26,43,57.68,43,43.71c0-14.2-.91-26-2.39-31.12C38.81,6.23,35.52,4,30.41,4,24.85,4,21.78,6.8,20.3,12.59s-2.38,16.47-2.38,30.89S19.06,69.94,20.42,75.16Z"/><path class="a" d="M64,77C73,69.31,82.13,60.8,88.37,54.21c9.54-10,13.52-18.62,13.52-29.07,0-11.24-6.25-18.39-16.13-18.39-7.49,0-14.88,6.13-14.88,12.37,0,1.93,1,2.84,3.75,3.07,5.79.57,8.29,2.72,8.29,6.7s-3.18,7-7.72,7c-5.45,0-9.2-4.54-9.2-11.24a23.44,23.44,0,0,1,4.88-13.86C75.65,4.93,83,1.75,92.35,1.75c15.33,0,25.77,9,25.77,22.14a24.21,24.21,0,0,1-5.56,15.56c-4.2,5.22-7.84,8.18-21.12,18.4A229.26,229.26,0,0,0,74,73.06h34.18c3.41,0,5.45-1.59,6.25-4.77.56-2,.79-4.43,1.13-9.31h3.3l-1.48,26.91H64Z"/></svg>