<svg xmlns="http://www.w3.org/2000/svg" viewBox="0 0 171.54 88.27"><defs><style>.a{fill:#00c143;}</style></defs><path class="a" d="M68.69,4l2,1a109.62,109.62,0,0,0-.56,11.92c0,4.21.34,8.75.79,14.08L68,31.37C66.42,23,64.94,19,62.22,14.9,57.9,8.54,51.09,4.57,44.39,4.57S29.85,9,26.11,14.9c-4.43,6.93-7,18.17-7,30.55,0,11.81,2.27,22.59,6,28.84a20.29,20.29,0,0,0,16.81,9.2c8.63,0,15.1-5.68,15.1-13.06V60.09L44.84,60V56.92H82.09V60l-9.31.11V71.22a24.16,24.16,0,0,1-8.06,8.63,42.56,42.56,0,0,1-23.62,7C17.48,86.89,0,69.18,0,45.22,0,21,18.84.93,41.32.93c8.41,0,14.31,1.93,23.17,7.72Z"/><path class="a" d="M170.63,44.2c0,23.39-19,42.69-42,42.69-22.71,0-41.33-19.19-41.33-42.58S105.79.93,127.82.93C151.78.93,170.63,20.12,170.63,44.2ZM142.35,77.81c5.45-6.36,9.31-21.23,9.31-35.54,0-23.51-9-38.39-22.93-38.39a19.14,19.14,0,0,0-15.67,8.41c-4.66,6.58-6.7,16.12-6.7,31.91,0,14,2.15,23.84,6.47,30.43,4.09,6,10,9.43,16.58,9.43A16.55,16.55,0,0,0,142.35,77.81Z"/></svg>