<svg xmlns="http://www.w3.org/2000/svg" viewBox="0 0 127.54 89.27"><defs><style>.a{fill:#ff9208;}</style></defs><path class="a" d="M30.41,87.35c-16.47,0-29.3-18.74-29.3-42.7S13.94,2,30.41,2,59.82,20.46,59.82,44.54,47,87.35,30.41,87.35ZM20.42,76c1.59,6.36,5.22,8.63,10.1,8.63,5.57,0,8.63-2.84,10.22-9.19C42.11,70.09,43,58.51,43,44.54c0-14.2-.9-26-2.38-31.12-1.82-6.36-5.11-8.63-10.22-8.63-5.56,0-8.63,2.84-10.11,8.63s-2.38,16.47-2.38,30.89S19.05,70.77,20.42,76Z"/><path class="a" d="M75,86.33c11-1.71,17.37-4.66,22.82-10.45,5.68-6,9.09-14.31,10.56-25.89a20,20,0,0,1-15.1,6.24c-13.85,0-24.41-11.58-24.41-26.8C68.87,13.54,81.47.14,96.69.14c17,0,29.07,15.44,29.07,37.24a52.74,52.74,0,0,1-18.85,40.43C98.39,84.62,88.63,88.14,75,89.17ZM97,52c9.08,0,12.15-5.9,12.15-23,0-9.31-.8-16.58-2.27-19.87A10,10,0,0,0,97.14,3c-4.54,0-7.6,1.47-9.54,5.33s-2.83,10.34-2.83,20.1C84.77,46,87.83,52,97,52Z"/></svg>