<svg xmlns="http://www.w3.org/2000/svg" viewBox="0 0 110.54 86.27"><defs><style>.a{fill:#ff8900;}</style></defs><path class="a" d="M16.38,7.44,4.11,7.67V4.61C21,4.61,25.58,3,30.46.52l1.7,1c-.23,3.52-.45,7-.45,10.45V82.05L44,82.16v3H4.11v-3l12.27-.11Z"/><path class="a" d="M79.25,85.51C62.78,85.51,50,66.78,50,42.82S62.78.12,79.25.12s29.41,18.51,29.41,42.58S95.83,85.51,79.25,85.51Zm-10-11.35c1.59,6.36,5.22,8.63,10.1,8.63,5.57,0,8.63-2.84,10.22-9.2C91,68.25,91.85,56.67,91.85,42.7c0-14.19-.9-26-2.38-31.11C87.65,5.23,84.36,3,79.25,3c-5.56,0-8.63,2.84-10.11,8.63s-2.38,16.47-2.38,30.89S67.89,68.94,69.26,74.16Z"/></svg>