<svg xmlns="http://www.w3.org/2000/svg" viewBox="0 0 124.54 87.27"><defs><style>.a{fill:#ffbe33;}</style></defs><path class="a" d="M30.41,86.44C14,86.44,1.11,67.7,1.11,43.74S14,1.05,30.41,1.05,59.82,19.56,59.82,43.63,47,86.44,30.41,86.44Zm-10-11.36c1.59,6.36,5.22,8.63,10.1,8.63,5.57,0,8.63-2.83,10.22-9.19C42.11,69.18,43,57.6,43,43.63c0-14.19-.91-26-2.39-31.11-1.82-6.36-5.11-8.64-10.22-8.64-5.56,0-8.63,2.84-10.11,8.64S17.92,29,17.92,43.4,19.06,69.86,20.42,75.08Z"/><path class="a" d="M79,38.52c1.82.11,3.29.11,4.2.11,14.2,0,18.85-4.77,18.85-19.42,0-10.1-3.75-15.1-11.47-15.1-5.56,0-11.13,3.3-11.13,6.7,0,1,.46,1.59,2.73,2.95,2.5,1.48,3.18,3.18,3.18,5.23,0,3.63-2.61,6-6.59,6C74.57,25,72,21.94,72,17.17A14.62,14.62,0,0,1,76.84,6.72c4.09-3.86,9.43-5.67,16.7-5.67,15.1,0,24.64,7.26,24.64,18.51s-7,17.6-22.94,20.55c8.4.57,12.6,1.59,17.49,4.31,6.7,3.75,10.1,9.88,10.1,17.95,0,14.76-12,24.07-31.11,24.07-8.06,0-13.86-1.93-18.06-5.9A17.15,17.15,0,0,1,68.21,68c0-5.22,3-8.51,7.5-8.51,4.2,0,7.15,2.84,7.15,6.81,0,2.5-.68,3.75-3.29,5.79s-2.84,2.39-2.84,3.75c0,4.2,5.56,7.49,12.6,7.49,11,0,16.81-7.6,16.81-21.69,0-7.94-1.7-12.26-6.13-15.78-4-3.07-8-4.09-15.9-4.09-1,0-2.84,0-5.11.12Z"/></svg>