<svg xmlns="http://www.w3.org/2000/svg" viewBox="0 0 127.54 87.27"><defs><style>.a{fill:#ffcd00;}</style></defs><path class="a" d="M30.41,86.44C14,86.44,1.11,67.7,1.11,43.74S14,1.05,30.41,1.05,59.82,19.56,59.82,43.63,47,86.44,30.41,86.44Zm-10-11.36c1.59,6.36,5.22,8.63,10.1,8.63,5.57,0,8.63-2.83,10.22-9.19C42.11,69.18,43,57.6,43,43.63c0-14.19-.91-26-2.39-31.11-1.82-6.36-5.11-8.64-10.22-8.64-5.56,0-8.63,2.84-10.11,8.64S17.92,29,17.92,43.4,19.06,69.86,20.42,75.08Z"/><path class="a" d="M96.05,86.44c-16.46,0-29.3-18.74-29.3-42.7S79.59,1.05,96.05,1.05s29.41,18.51,29.41,42.58S112.63,86.44,96.05,86.44Zm-10-11.36c1.59,6.36,5.22,8.63,10.11,8.63,5.56,0,8.63-2.83,10.22-9.19,1.36-5.34,2.27-16.92,2.27-30.89,0-14.19-.91-26-2.39-31.11-1.81-6.36-5.11-8.64-10.22-8.64-5.56,0-8.63,2.84-10.1,8.64S83.56,29,83.56,43.4,84.7,69.86,86.06,75.08Z"/></svg>