<svg xmlns="http://www.w3.org/2000/svg" viewBox="0 0 127.54 86.27"><defs><style>.a{fill:#ff9b11;}</style></defs><path class="a" d="M30.41,86C13.94,86,1.11,67.3,1.11,43.34S13.94.64,30.41.64,59.82,19.15,59.82,43.23,47,86,30.41,86Zm-10-11.36C22,81,25.64,83.31,30.52,83.31c5.57,0,8.63-2.84,10.22-9.2C42.11,68.78,43,57.19,43,43.23c0-14.2-.9-26-2.38-31.12-1.82-6.36-5.11-8.63-10.22-8.63-5.56,0-8.63,2.84-10.11,8.63S17.92,28.58,17.92,43,19.05,69.46,20.42,74.68Z"/><path class="a" d="M87.19,13.87c-6.36,0-8.06,1.59-10.44,9.43l-1.48,5.22H71.41L78.9,1h46.22l1.82,2.5c-3.86,7.38-7.38,14.31-11.13,21.57-5.34,10.79-7.38,16.36-9.09,24.87a80.86,80.86,0,0,0-1.47,13.86c0,2.38.23,5.33.45,8.06s.34,4.2.34,5.22c0,5.23-3.06,8.52-7.83,8.52-5.23,0-8.41-3.52-8.41-9.31,0-6.48,3-15.22,10.11-29.64C104.23,38,110,27.27,117.85,13.87Z"/></svg>