<svg xmlns="http://www.w3.org/2000/svg" viewBox="0 0 116.54 86.27"><defs><style>.a{fill:#ffd146;}</style></defs><path class="a" d="M30.41,85.93c-16.46,0-29.3-18.74-29.3-42.7S14,.54,30.41.54,59.82,19.05,59.82,43.12,47,85.93,30.41,85.93Zm-10-11.36c1.59,6.36,5.22,8.63,10.1,8.63,5.57,0,8.63-2.83,10.22-9.19C42.11,68.67,43,57.09,43,43.12c0-14.2-.91-26-2.39-31.12-1.82-6.35-5.11-8.63-10.22-8.63-5.56,0-8.63,2.84-10.11,8.63s-2.38,16.47-2.38,30.89S19.06,69.35,20.42,74.57Z"/><path class="a" d="M81.44,7.36l-12.26.23V4.48C86.1,4.48,90.64,2.87,95.53.34l1.7,1C97,4.94,96.77,8.51,96.77,12V83l12.27.11v3H69.18v-3L81.44,83Z"/></svg>