<svg xmlns="http://www.w3.org/2000/svg" viewBox="0 0 62.62 16.36"><defs><style>.a{isolation:isolate;}.b{fill:#f5c61d;}</style></defs><g class="a"><g class="a"><path class="b" d="M10.2,16.19,5.77,5.53H5.7L3.89,16.19H.17L3,.13H7.25l4.4,10.6h0L13.51.13h3.72L14.39,16.19Z"/><path class="b" d="M21.47,16.19,24.3.13H34.58L34,3.35H27.34L26.8,6.46h6.35l-.54,3H26.25L25.66,13H33l-.57,3.24Z"/><path class="b" d="M54.79,16.19H51l-1.08-11h-.07l-5.33,11H40.79L39.39.13h4l.48,10.8h.06l5-10.8h3.91l.86,10.8h.07L58.53.13h4Z"/></g></g></svg>