<?xml version="1.0" encoding="utf-8"?>
<!-- Generator: Adobe Illustrator 26.0.1, SVG Export Plug-In . SVG Version: 6.00 Build 0)  -->
<svg version="1.1" id="レイヤー_1" xmlns="http://www.w3.org/2000/svg" xmlns:xlink="http://www.w3.org/1999/xlink" x="0px"
	 y="0px" viewBox="0 0 51.3 16.4" style="enable-background:new 0 0 51.3 16.4;" xml:space="preserve">
<style type="text/css">
	.st0{fill:#F5C61D;}
</style>
<path class="st0" d="M8.7,16.2L5,5.5H4.9L3.4,16.2H0.2L2.6,0.1h3.6L10,10.7l0,0l1.6-10.6h3.2l-2.4,16.1H8.7z"/>
<path class="st0" d="M18.6,16.2L21,0.1h8.8l-0.5,3.2h-5.7l-0.5,3.1h5.4l-0.5,3h-5.4L22.2,13h6.3L28,16.2L18.6,16.2z"/>
<path class="st0" d="M45.4,16.2h-2.9l-0.8-11h-0.1l-4.1,11h-2.8L33.7,0.1h3l0.4,10.8h0L41,0.1h3l0.7,10.8h0.1l3.6-10.8h3L45.4,16.2z
	"/>
</svg>
