<svg id="レイヤー_1" data-name="レイヤー 1" xmlns="http://www.w3.org/2000/svg" viewBox="0 0 235 94.17"><defs><style>.cls-1{isolation:isolate;}.cls-2{fill:#ffb100;}</style></defs><g id="_" data-name=" " class="cls-1"><g class="cls-1"><path class="cls-2" d="M110.44,0l13.1,7.56-13.1,7.56Z"/></g></g><g id="MOVIE_TRAILER" data-name="MOVIE TRAILER" class="cls-1"><g class="cls-1"><path class="cls-2" d="M15.26,78.05v3.62c0,3.76-2.07,5-6.52,5H5.57V94H2V73.22H8.68C13,73.19,15.26,74.29,15.26,78.05Zm-3.61.24c0-1.69-.51-2.72-3-2.72H5.57v8.8H8.65c2.49,0,3-1,3-2.7Z"/><path class="cls-2" d="M28.83,86.5h-3V94H22.19V73.22h6.67c4.27,0,6.58,1,6.58,4.8v3.41c0,2.55-.95,3.94-2.94,4.62L36.24,94H32.42Zm-3-2.34,3,0c2.52,0,3-1.07,3-2.7V78.23c0-1.63-.47-2.66-3-2.66h-3Z"/><path class="cls-2" d="M42.75,89V78.2c0-4.09,2.43-5.15,6.73-5.15s6.73,1.06,6.73,5.15V89c0,4.12-2.49,5.18-6.73,5.18S42.75,93.11,42.75,89Zm9.84-.27V78.47c0-2.08-.62-3.11-3.11-3.11s-3.11,1-3.11,3.11V88.72c0,2.08.59,3.11,3.11,3.11S52.59,90.8,52.59,88.72Z"/><path class="cls-2" d="M62.37,91.33h2.25A2.21,2.21,0,0,0,67,88.84V73.22h3.61V89.29c0,3.61-2.51,4.68-5.51,4.68H62.34Z"/><path class="cls-2" d="M82.1,75.83V82h6.72v2.57H82.1v6.79h6.72V94H78.48V73.22H88.82v2.61Z"/><path class="cls-2" d="M96.05,89V78.2c0-4.12,2.4-5.18,6.73-5.18s6.73,1.06,6.73,4.65v2.19h-3.62v-2c0-1.48-.56-2.55-3.11-2.55s-3.11,1.07-3.11,3V88.81c0,2,.56,3.08,3.11,3.08s3.11-1.15,3.11-2.66V87.3h3.62v2.1c0,3.59-2.43,4.77-6.73,4.77S96.05,93.08,96.05,89Z"/><path class="cls-2" d="M128.82,75.83h-4.95V94h-3.61V75.83h-5V73.22h13.51Z"/><path class="cls-2" d="M163.55,73.22V94h-3.38V78.79L155.69,94h-2.54l-4.42-15V94h-3V73.22h4.41l4.57,15.18,4.38-15.18Z"/><path class="cls-2" d="M171.34,89V78.2c0-4.09,2.42-5.15,6.72-5.15s6.73,1.06,6.73,5.15V89c0,4.12-2.49,5.18-6.73,5.18S171.34,93.11,171.34,89Zm9.83-.27V78.47c0-2.08-.62-3.11-3.11-3.11s-3.11,1-3.11,3.11V88.72c0,2.08.59,3.11,3.11,3.11S181.17,90.8,181.17,88.72Z"/><path class="cls-2" d="M205.88,73.22,200.46,94h-4.3l-5.39-20.75h3.68l4.17,16.66,4.12-16.66Z"/><path class="cls-2" d="M212.22,73.22h3.62V94h-3.62Z"/><path class="cls-2" d="M227.54,75.83V82h6.73v2.57h-6.73v6.79h6.73V94H223.92V73.22h10.35v2.61Z"/></g></g><rect id="長方形_8" data-name="長方形 8" class="cls-2" y="58.76" width="235" height="2"/><path class="cls-2" d="M78.35,41.21V36.28a16.94,16.94,0,0,1-6.18,6.26L72,42.27a16.84,16.84,0,0,0,3.17-3.12,20.38,20.38,0,0,0,2.55-4.1H72.45l-.2-.43h6.11V31.14l1.31.12c.27,0,.36.08.36.23s-.09.19-.66.37v2.76h4.12l.72-.92,1.35,1v.35h-6a13.76,13.76,0,0,0,6.36,6l-.14.23a1.32,1.32,0,0,0-1.2.77,16.64,16.64,0,0,1-5.25-6.66v5.82h1.51l.75-.86,1.26.93,0,.36h-3.5v3.27l-1,.12V41.64H74.88l-.19-.43Z"/><path class="cls-2" d="M95.46,43.83a12.9,12.9,0,0,0,.68-4.26l1.06.27s.2,0,.2.14-.08.15-.28.32A13.6,13.6,0,0,1,95.69,44Zm.82-5.15c-.19.18-.2.21-.28.21s-.22-.23-.23-.28l-.28-.9h1.08a37.92,37.92,0,0,0,2.65-4.55l.91.6c.29.19.32.25.32.36s-.06.2-.61.23c-1.57,2-1.74,2.27-2.69,3.37l2.44,0a4.15,4.15,0,0,0-.64-1l.13-.18c.79.32,1.8,1.32,1.8,2,0,.33-.21.72-.55.72A.36.36,0,0,1,100,39l-.2-.78a1,1,0,0,0-.06-.18l-1.26.24v6.6l-.89.16v-6.6Zm-.63-5.15a2.91,2.91,0,0,1,1.07.49,22.47,22.47,0,0,0,.88-2.84l1.22.53c.17.07.22.13.22.21s-.16.2-.49.22l-1.46,2.18a1.52,1.52,0,0,1,.47,1c0,.41-.24.66-.49.66s-.3-.12-.36-.31l-.45-1.06a2.8,2.8,0,0,0-.74-.89Zm3.51,6a2.64,2.64,0,0,1,1.15,1.83c0,.35-.23.72-.55.72a.44.44,0,0,1-.4-.46l0-.8A2.49,2.49,0,0,0,99,39.78Zm.11,4.61c.06-.11.08-.13.08-.14l.52-.83a13.42,13.42,0,0,0,.89-1.89,10.39,10.39,0,0,0,.58-3.88V33.67l.94.52h4.83l.32-.57,1.09.76a.24.24,0,0,1,.14.2c0,.12,0,.13-.47.27v2.06l-1,.2v-.29h-4.91l0,1.33.29.25h5.12l.39-.66,1,.52c.09.05.23.14.23.28s-.15.21-.49.35V44a1,1,0,0,1-1,1c-.21,0-.24-.08-.26-.26,0-.54-.29-.57-.66-.63l0-.28h1V41.24h-1.32v3.19l-.86.14V41.24h-1v3.21l-.88.13V41.24h-1.09v3.7l-.86.15V40.5a9.8,9.8,0,0,1-2.33,3.87Zm1.13-11.38-.16-.43h7.12l.66-.92,1.32,1.09v.26Zm1.92,3.58h4.9V34.62h-4.9Zm.37,4.42h1.09v-2h-1.09Zm2,0h1v-2h-1Zm1.85,0h1.32v-2h-1.32Z"/><path class="cls-2" d="M119.53,43.1V32.61l1.15.71h1.41l.4-.68,1,.77c.06.05.15.15.15.21s-.09.14-.42.28v8.21l-.87.14v-1h-1.89v1.64Zm.89-9.35V37h1.89V33.75Zm0,3.7v3.42h1.89V37.45Zm12.48,6.83a1.74,1.74,0,0,0-.29,0c-.34,0-.4.06-.89.6a9.87,9.87,0,0,1-3.81-5.79,7.05,7.05,0,0,1-3.07,4.41,10.16,10.16,0,0,1-3.36,1.5l-.14-.29a10,10,0,0,0,3.79-2.33A7.19,7.19,0,0,0,127,39h-3.35l-.18-.43h1V33.76l1.16.59h1.69V31.21l1.22.13c.1,0,.27,0,.27.18s-.08.16-.52.36v2.47H130l.37-.69,1.11.81c.06.05.21.15.21.26s-.17.22-.38.29v3.53h.08l.72-.8.9,1V39h-4.7a8.41,8.41,0,0,0,1.68,2.75A8.77,8.77,0,0,0,133,44Zm-7.55-5.73H127a15.94,15.94,0,0,0,.24-3.77h-1.93Zm2.9-3.77a17.15,17.15,0,0,1-.26,3.77h2.3V34.78Z"/><path class="cls-2" d="M142.39,38.84a24.35,24.35,0,0,0,2.67-6.23l.32-1.24s.05-.19.06-.23l1.12.43c.06,0,.34.12.34.27s-.08.16-.63.39l-.17.5a19.93,19.93,0,0,1-1,2.63c.59.11.65.12.65.29s-.19.2-.49.31v8.76l-.95.22V36.77A11.15,11.15,0,0,1,142.59,39ZM145.7,44a14,14,0,0,0,3.15-1.84,19.34,19.34,0,0,0,2.24-1.93l-.27-.4a15.55,15.55,0,0,1-4.95,2.45l-.09-.24a14.66,14.66,0,0,0,4.38-2.86,1.59,1.59,0,0,0-.5-.34,13.46,13.46,0,0,1-3.5,1.54l-.13-.25A12.38,12.38,0,0,0,150,37.68H148.1v.53l-.92.11V35.54a15.05,15.05,0,0,1-1.37,1.19l-.18-.27a17.48,17.48,0,0,0,2.94-4.06l.6-1.19.08-.15,1,.45c.22.09.25.18.25.24s-.14.23-.52.32l-.45.59h2.63l.43-.57,1,.72c.08.06.24.2.24.31s-.2.17-.72.21a18.39,18.39,0,0,1-1.75,1.6h2.9l.36-.55.87.53s.34.23.34.34-.2.2-.45.31v2.38l-.93.15v-.41h-2.53a9.91,9.91,0,0,0,1,2.44,20.1,20.1,0,0,0,1.72-1.83l.87.72a.38.38,0,0,1,.17.28c0,.14-.15.15-.21.15l-.45-.06a7.58,7.58,0,0,1-1,.65l-.83.46a9.65,9.65,0,0,0,3.22,2.74v.17a2.15,2.15,0,0,0-1.06.68,10.08,10.08,0,0,1-3.81-6.4h-.17a8.85,8.85,0,0,1-1.35.92,3.5,3.5,0,0,1,2.26,3.45,4.47,4.47,0,0,1-.48,2,2.32,2.32,0,0,1-1.55.86c-.2,0-.2-.06-.21-.54,0,0-.4-.15-.49-.18l-.72-.19v-.23h1.9a1.82,1.82,0,0,0,.4-.58,4,4,0,0,0,.23-1.29c0-.17,0-.46,0-.54-.28.17-1.58,1-1.89,1.21a20.82,20.82,0,0,1-3.69,1.66Zm3.58-10.91c-.38.52-.6.8-1.5,1.84h3.14A15.19,15.19,0,0,0,152,33.09Zm-1.18,2.27v1.89h2.68V35.36Zm3.56,0v1.89h2.81V35.36Z"/></svg>