<svg xmlns="http://www.w3.org/2000/svg" viewBox="0 0 1516.54 242.27"><defs><style>.a{fill:#ffb100;}</style></defs><path class="a" d="M153.06,58.3v41c0,42.67-23.55,57.12-73.91,57.12H43.2v82.32H2.25V3.54H78.52C126.9,3.2,153.06,15.63,153.06,58.3Zm-41,2.69c0-19.15-5.71-30.9-33.93-30.9H43.21v99.77H78.15c28.22.33,33.93-11.78,33.93-30.58Z"/><path class="a" d="M276.72,154.05H242.45v84.67h-41V3.54H277c48.38-.34,74.6,11.78,74.6,54.41V96.59c0,28.9-10.8,44.69-33.26,52.42l42.32,89.71H317.41Zm-34.27-26.5,34.27.34c28.56,0,33.93-12.1,33.93-30.58v-37c0-18.48-5.38-30.23-33.93-30.23H242.45Z"/><path class="a" d="M404.38,182.25V60c0-46.38,27.55-58.46,76.27-58.46,48.09,0,76.28,12.08,76.28,58.46V182.25c0,46.7-28.24,58.8-76.28,58.8C431.93,241.05,404.38,229,404.38,182.25Zm111.55-3V63c0-23.56-7.06-35.27-35.33-35.27-28.55,0-35.27,11.78-35.27,35.27V179.25c0,23.55,6.73,35.26,35.27,35.26,28.27,0,35.33-11.75,35.33-35.26Z"/><path class="a" d="M729.28,209.15v29.57H614.38V3.54h41V209.15Z"/><path class="a" d="M770.94,182.25V60c0-46.38,27.56-58.46,76.28-58.46,48.09,0,76.26,12.08,76.26,58.46V182.25c0,46.7-28.21,58.8-76.26,58.8C798.5,241.05,770.94,229,770.94,182.25Zm111.54-3V63c0-23.56-7.05-35.27-35.26-35.27-28.56,0-35.28,11.78-35.28,35.27V179.25c0,23.55,6.73,35.26,35.28,35.26C875.43,214.51,882.48,202.76,882.48,179.25Z"/><path class="a" d="M1090.13,78.45V56.27c0-16.8-6.38-28.55-35.28-28.55s-35.26,11.78-35.26,34.61V179.91c0,22.5,6.38,34.6,35.26,34.6s35.28-13.1,35.28-30.23V134.89h-34.94V105.66h76v81c0,41-27.55,54.41-76.29,54.41-49.07,0-76.27-12.43-76.27-58.8V60c0-46.69,27.22-58.8,76.27-58.8,49.39,0,76.29,12.1,76.29,52.75V78.47Z"/><path class="a" d="M1186.9,182.25V3.54h41V179.23c0,23.17,6,35.26,34.94,35.26s35.34-12.09,35.34-35.26V3.54h41V182.25c0,46.37-27.56,58.46-76.28,58.46C1213.77,240.72,1186.9,228.63,1186.9,182.25Z"/><path class="a" d="M1438.88,33.06V103h76.28v29.24h-76.28v76.94h76.28V238.7H1397.9V3.54h117.26V33.06Z"/></svg>