<?xml version="1.0" encoding="utf-8"?>
<!-- Generator: Adobe Illustrator 26.0.1, SVG Export Plug-In . SVG Version: 6.00 Build 0)  -->
<svg version="1.1" id="レイヤー_1" xmlns="http://www.w3.org/2000/svg" xmlns:xlink="http://www.w3.org/1999/xlink" x="0px"
	 y="0px" viewBox="0 0 81.5 1764.3" style="enable-background:new 0 0 81.5 1764.3;" xml:space="preserve">
<style type="text/css">
	.st0{enable-background:new    ;}
</style>
<g>
	<g class="st0">
		<path d="M63.9-0.4c0,2.9-2.9,6.8-4.2,8.1c-0.7,0.7-1.3,1-2,1c-1.2,0-4.9-1.5-7.6-2c-8.4-1.2-26.9-1.1-30.3-0.5
			c-1.3,0.3-2.1,0.5-1.9,2.2c0.5,2.9,3.8,9.7,6.6,14.9c5.1,9.4,16,23.9,24.1,31.6c0,0.4-0.3,0.9-0.6,1c-6-3.6-13.8-11.3-19-17.4
			c-4.9-5.8-11.6-15.1-16.1-23.2c-1.4-2.5-4.6-5.6-4.6-7.6c0-1.9,3.6-6.4,5.5-7.8c0.9-0.8,1.8-1.3,3-1.3c0.9,0,3.7,0.6,6,0.9
			C26.8-0.1,34.5,0,39.2,0C43,0,50.3,0,53.3-0.3C58-0.8,60.7-2,60.7-5.9c0.3-0.4,1-0.4,1.3-0.3C62.5-4.7,63.9-1.8,63.9-0.4z"/>
	</g>
	<g class="st0">
		<path d="M60,199.2c-1,1.7-2,4.5-2,9.9c0,4.5,1.6,11.3,2.7,15.3c0.5,1.9,1.2,3.2,1.8,4.6c0.7,1.7,1.8,3.1,1.8,4.3
			c0,3-5.6,10.3-8.2,10.3c-2.1,0-4.4-3.2-7.8-5.4c-5.4-3.3-9.8-6.2-14.4-9.8c-3.3,9.9-8.3,16.7-12.6,20.9c-1.6,1.5-4.7,3.5-8.2,3.5
			S8,250.9,8,248.9c0-1.3,0.7-2.2,1.8-2.9c2.9-1.4,11.9-5.2,18.4-13.6c1.3-1.7,2.7-3.6,3.9-5.4c-2.1-1.8-4.4-3.8-6.7-6.1
			C17,212.6,9,199.9,7,188c0.3-0.2,0.8-0.4,1.3-0.4c5.4,13.4,15.3,24.3,21.4,29.7c10.4,9,19.9,14.1,25.5,15.9c1.5,0.4,3,0.4,3-0.7
			c0-2.8-4-13.2-5.8-18.1c-0.8-2.2-2.4-5.4-2.4-6.9c0-0.8,0.3-1.5,1-2.4c1-1.6,3.1-3.8,4.6-5c1.2-0.8,2.5-1.4,3.8-1.9
			C59.7,198.3,59.9,198.7,60,199.2z"/>
	</g>
	<g class="st0">
		<path d="M73.6,390.8c0,2.1-2.8,6-4,7c-0.8,0.8-1.4,1.2-2.2,1.2c-2,0-5.6-2.2-21.5-2.2c-0.2,3.2-0.8,7.9-1.3,10.4
			c-1.1,4.4-2.1,8.1-4.3,11c-1.7,2.6-4.1,3.6-6.4,3.6c-2.2,0-4.1-1.1-4.1-3c0-3,5.5-5.7,9.2-11.7c2.1-3.6,4-7.3,4.8-10.2
			c-5.2-0.1-16.8-0.4-24.6-0.2c-6.4,0.3-12,0.4-14.5,0.4c-1.3-0.1-2.8-0.6-3-2.6c-0.2-1-0.1-2.3,1.4-3.2c1.1-0.7,3.8-1.7,5.6-2.1
			c1.4-0.4,2.9-0.4,4.6-0.1c2.5,0.5,5.8,1.1,10.8,1.3c4.9,0.4,14.1,0.7,21.7,0.7c7.7,0,16,0.1,20.4-0.8c2.7-0.5,4.6-1.6,4.6-3.6
			c0.4-0.3,1-0.4,1.5-0.4C72.6,387.1,73.6,389.3,73.6,390.8z"/>
	</g>
	<g class="st0">
		<path d="M1.4,572.1c6.4,7.3,15.6,13.8,23.5,17.5c6.4,3,14.1,5.8,18.7,6.2c2.1,0.2,3.3-1.7,4.2-3.8c0.3-0.6,1.1-0.9,1.5-0.4
			c0.9,1.1,1.3,2.2,1.3,3.3c0,2.4-1.5,5.5-3.1,7.4c2.7,5.5,8,12.1,11.6,14.5c2.7,1.8,3.7,1.2,3.7-1.4c0-3.7-1.8-14.1-3.8-23.6
			c-1.5-6.9-3.9-13.4-3.9-15.8c0-2.6,3.1-6.4,6.4-8.5c0.9-0.5,2.2-1,3.9-1.3c0.4,0.3,0.5,0.6,0.6,1.1c-1.9,2-3,5-3,9
			c0,7.2,2.8,26.1,3.5,31c0.3,2.2,0.7,4.6,1.1,6c0.8,2.6,1.6,3.9,1.6,5.4c0,0.7-0.4,1.5-0.8,2.2c-2.3,3.8-7.4,8.6-9.4,8.6
			c-1.7,0-2.6-1.9-3-3.8c-0.3-1.3-1.1-2.9-2-4.3c-2.2-3.4-6.3-9.8-8.6-17c-0.3,0.1-0.5,0.3-0.7,0.3c-1.9,0-3.1-1.1-6.4-2.3
			c-3.8-1.5-11.1-4.6-16.4-7.7c-7.6-4.5-16-10.8-21.4-21.8C0.5,572.4,1,572.2,1.4,572.1z"/>
	</g>
	<g class="st0">
		<path d="M58.6,766.7c0,6.7,3.1,25,3.7,27.5c0.4,2.2,0.8,3.1,1.3,4.2s1.3,2.3,1.3,3.4c0,2.9-4.1,8.1-7.3,9.9
			c-0.8,0.4-1.3,0.7-2,0.7c-2.1,0-3.1-2.4-9-5.3c-7.4-3.5-14.1-5.8-20.9-11.1c-12.1-9.6-18.6-20-22.6-33.4c0.2-0.4,0.7-0.6,1.2-0.5
			c7.3,14.4,17.9,24.7,30.5,31.9c5.8,3.4,14.5,6.5,19.9,7.6c2.9,0.6,3.9,0.3,3.9-2.5c0-4.4-3.3-19.2-4.7-23.4
			c-1.5-4.7-3.3-6.8-3.3-9.2s2.9-6.6,6.4-9c1-0.7,2.6-1.3,4.1-1.6c0.4,0.2,0.6,0.5,0.5,1.1C59.4,759.3,58.6,761.7,58.6,766.7
			L58.6,766.7z M70.8,809.3c5.1,0,9.4,4.3,9.4,9.5s-4.3,9.4-9.5,9.4s-9.4-4.2-9.4-9.4S65.5,809.3,70.8,809.3L70.8,809.3z M70.6,812
			c-3.7,0-6.6,3-6.6,6.8c0,3.7,3,6.7,6.7,6.7s6.8-3,6.8-6.7S74.5,812,70.6,812L70.6,812z"/>
	</g>
	<g class="st0">
		<path d="M59,954c-0.1,1.2-0.4,3.4-0.9,4.7c-0.8,2.1-2.1,4-3.5,5.8c-0.2,0.3-0.4,0.4-0.6,0.6c-0.1,1.6,0.1,3,0.3,5.3
			c0.5,5.4,1.9,15.7,2.9,20.1c0.8,3.5,2.4,5.2,2.4,7.3c0,2.5-4.7,8.7-7,10.4c-0.8,0.5-1.4,0.8-2.1,0.8c-1.7,0-3.4-1.4-7.3-2.9
			c-3.3-1.3-12.4-3.1-19.3-5c-0.7,2.8-1.9,4.5-1.9,4.5c-0.5,0.6-1.3,0.8-1.9,0.8c-1.7,0-3-0.9-3-2.7c0-1.3,0.7-5.4,0.7-11.7
			c0-7.4-2.3-21-2.3-23.4c0-1,0.5-1.9,1.4-3.3c-2.3,0-4.7-0.1-5.8-0.2c-2-0.2-2.6-1.3-2.6-2.3c0-1.3,0.6-2.1,1.4-2.5
			c1.5-0.8,6.4-2.1,8.7-2.1c3.5,0,7,0.7,11.1,0.7c7.4,0,15-0.2,20.4-1.3c3.3-0.6,6.2-2.1,7.9-4.3C58.2,953.4,58.9,953.6,59,954
			L59,954z M49,965.5c-2.5,0-4.8,0-8.1-0.1c-4.8,0-12.5-0.1-20.2,0c0,8.3,2.1,23.2,3.1,30.3c7.2,1.3,22.6,3.1,26.2,3.1
			c1.8,0,2.9-0.9,2.9-2.5C52.9,992.1,50.3,973.5,49,965.5z"/>
	</g>
	<g class="st0">
		<path d="M52.1,1213.2c-6.4-2.2-16.1-8.4-23.6-15.4c-7-6.4-13.2-14.1-19.7-24.1c-1-1.5-5.4-5.7-5.4-8.8c0-2.3,3-7,5.3-9
			c1.7-1.5,3.6-1.7,6.5-1.8c0.4,0.3,0.7,0.8,0.5,1.3c-1.6,1.1-3.8,3.3-3.8,7.3c0,7.3,12.3,23,17,28.4c7.9,8.8,16.2,15.6,24,20.5
			C52.9,1212.1,52.5,1213,52.1,1213.2z M46.2,1147.5c0.3,2.6,0.2,5.4,0,7.5c-0.8,7.6-4.2,13-7.9,13c-2.4,0-4.2-1.3-4.2-3.6
			c0-0.9,0.3-1.8,0.8-2.5c1.5-1.7,4.1-4.7,5.8-7.2c1.4-2,3.4-5.2,4.1-7.5C45.3,1147.1,45.9,1147.2,46.2,1147.5z M66.6,1156.8
			c0.2,2.7-0.1,5.5-0.4,7.6c-1.3,7.5-4.6,12.4-8.6,12.4c-2.7,0-4.2-1.7-4.2-3.5c0-1,0.3-1.9,1-2.6c1.6-1.7,4.5-4.6,6.4-6.9
			c2.1-2.7,3.7-5,4.5-7.3C65.8,1156.4,66.3,1156.6,66.6,1156.8z M68.1,1194c0.4-0.1,0.9,0.1,1.1,0.4c-0.4,3.8-1.9,8.3-4.2,11.4
			c-1.4,1.8-2.9,2.8-4.6,2.9c-2.1,0.3-3.2-0.7-3.5-2.1c-0.2-1.2,0.3-2.3,2.5-3.8C61.6,1201.4,64.9,1199.9,68.1,1194z M75.5,1201.3
			c0.4-0.2,0.8,0,1.1,0.3c-0.2,3.8-1.3,8.3-3.2,11.2c-1.3,1.8-2.7,2.9-4.3,3.1c-2.1,0.4-3.3-0.6-3.7-2.1c-0.3-1.2,0.2-2.3,2.3-3.8
			C69.8,1208.6,72.8,1207.3,75.5,1201.3z"/>
	</g>
	<g class="st0">
		<path d="M18.4,1331.7c-0.8,0.6-1.3,1.3-1.7,2.2c-0.8,2.1-0.9,5.5-0.9,7.6c0,3.6,0.5,9.1,0.9,13.2c5.5,0.4,11.3,0.4,13.8,0
			c2.8-0.4,3.5-1.1,4.1-1.9c-0.6-3.4-1.3-5.8-1.3-7.3c0-0.7-0.1-1.3,0.6-2.3c1.7-2.5,3.6-4.2,6.1-4.9c0.4,0,0.9,0.4,0.9,1.1
			c-1.3,2.1-1.6,4.6-1.6,7.7c0,2.9,0.3,5.7,0.5,8.2c0.4,3.3,0.7,5.3,1.1,6.4c0.4,1.8,1.5,3.5,1.9,4.3c0.4,0.9,0.4,1.5,0.4,2.2
			c0,1.3-0.4,4.7-1,6c-0.4,1.1-1,1.5-2.1,1.5c-2.2,0-3-1.5-3.2-3.6l-1.5-13.8c-0.5,1.3-1.2,2.2-1.7,3c-0.6,0.8-1.3,1-1.8,1
			c-1.3,0-2.8-1.1-5.1-1.5c-2.9-0.6-6.6-0.8-9.7-1.1c0.4,4.5,0.7,10.3,1,12.1s0.5,2.7,0.8,3.5c0.4,1.3,0.6,2.4,0.6,3.1
			c0,2-1.9,6.1-2.7,7.3c-0.8,1.3-1.6,1.6-2.2,1.6c-2.2,0-3.3-1.6-3.3-2.9c0-2,1.6-7.8,1.6-12.9c0-7.8-0.7-17.9-1.9-25.4
			c-0.5-3.3-1.6-8-1.6-9.3c0-0.8,0.2-1.5,0.6-2.2c0.9-1.4,2.4-3,3.8-3.8c0.8-0.4,2.3-0.6,4-0.6C18.3,1330.7,18.4,1331.2,18.4,1331.7
			z"/>
	</g>
	<g class="st0">
		<path d="M32.6,1560.3c9,7.1,16.7,10.5,19.4,10.5c1.4,0,1.9-0.8,1.9-1.9c0-3.1-4.8-13.9-4.8-16.2c0-1.3,1.7-3.3,3.4-4.7
			c-3.6-2.7-7.2-5.7-9.8-8.7c-4.1-4.6-8.1-10.2-10.2-16.2c0.2-0.4,0.6-0.6,1.1-0.6c4.8,6.5,10.9,12.1,16.3,16.1
			c5,3.8,13.2,8.9,17.2,8.9c1.7,0,3.8-1.3,4-3.8c0.4-0.2,1.2-0.2,1.4,0.1c0.3,1.3,0.5,3,0.5,4.1c0,1-0.3,2.1-0.6,3.2
			c-0.5,1.7-2.2,4.6-3.2,5.5c-0.5,0.6-1.1,0.9-1.6,0.9c-1.3,0-3.7-2.1-5.7-3.3c-1.9-1.1-4.1-2.4-6.4-3.9c0,0.7,0,1.3,0.1,2.1
			c0.1,2.4,0.8,8.6,1.5,11.4c0.4,1.9,0.8,2.8,1.2,3.5c0.9,1.7,1.6,2.8,1.6,4c0,3.3-5.2,8.3-7.3,9.8c-0.8,0.5-1.4,0.7-2.2,0.7
			c-1.2,0-2-0.8-3.5-2.4c-0.9-1-2.1-2-3.2-2.9c-5.8-4-8.9-6.2-14.2-10.7c-9.3-7.8-21.6-20.7-27.1-41.7c0.2-0.4,0.7-0.6,1.2-0.4
			C10.8,1539,20.9,1551.3,32.6,1560.3z"/>
	</g>
	<g class="st0">
		<path d="M73.6,1718c0,2.1-2.8,6-4,7c-0.8,0.8-1.4,1.2-2.2,1.2c-2,0-5.6-2.2-21.5-2.2c-0.2,3.2-0.8,7.9-1.3,10.4
			c-1.1,4.4-2.1,8.1-4.3,11c-1.7,2.6-4.1,3.6-6.4,3.6c-2.2,0-4.1-1.1-4.1-3c0-3,5.5-5.7,9.2-11.7c2.1-3.6,4-7.3,4.8-10.2
			c-5.2-0.1-16.8-0.4-24.6-0.2c-6.4,0.3-12,0.4-14.5,0.4c-1.3-0.1-2.8-0.6-3-2.6c-0.2-1-0.1-2.3,1.4-3.2c1.1-0.7,3.8-1.7,5.6-2.1
			c1.4-0.4,2.9-0.4,4.6-0.1c2.5,0.5,5.8,1.1,10.8,1.3c4.9,0.4,14.1,0.7,21.7,0.7c7.7,0,16,0.1,20.4-0.8c2.7-0.5,4.6-1.6,4.6-3.6
			c0.4-0.3,1-0.4,1.5-0.4C72.6,1714.3,73.6,1716.5,73.6,1718z"/>
	</g>
</g>
</svg>
