<svg xmlns="http://www.w3.org/2000/svg" viewBox="0 0 141.91 47.71"><defs><style>.a{isolation:isolate;}.b{fill:#e88b13;}</style></defs><g class="a"><g class="a"><path class="b" d="M.61,37.83V33H6.54v4.79c0,3.66,2.93,5.32,7.59,5.32s7.38-1.66,7.38-5.65V31.44c0-3.33-1-5.59-5.25-5.66l-5.13-.2C4.87,25.45.61,24.18.61,17.46v-7C.61,1.75,7,.22,14,.22s13.45,1.53,13.45,9.85v4.66H21.51V10.07c0-4-3.19-5.65-7.52-5.65s-7.45,1.66-7.45,6v5.85c0,3.33,1.26,5,5.12,5.13l5.13.2c6.45.13,10.65,1.8,10.65,7.32V37.5c0,8.32-6.66,9.85-13.31,9.85S.61,45.82.61,37.83Z"/><path class="b" d="M74.49,47.08H68.43l-9.32-21.5H51.66v21.5H45.74V.49h5.92V20.86l6.52-.14L68.5.49h5.66L63.51,21.26Z"/><path class="b" d="M89.86.49h5.92V47.08H89.86Z"/><path class="b" d="M141.57,11.4v6.53c0,8.65-3.52,11.65-13,11.65H121v17.5h-5.93V.49L128.4.42C137.25.42,141.57,2.75,141.57,11.4Zm-5.92,0c0-4-1.06-6.65-7.25-6.65H121V25.38h7.39c6.19,0,7.25-2.66,7.25-6.65Z"/></g></g></svg>