<svg xmlns="http://www.w3.org/2000/svg" viewBox="0 0 57.39 50.34"><defs><style>.a{fill:#040000;}</style></defs><path class="a" d="M57.39,7.83a24,24,0,0,1-6.76,1.79A11.52,11.52,0,0,0,55.8,3.29a24.38,24.38,0,0,1-7.48,2.78,11.84,11.84,0,0,0-8.59-3.62A11.61,11.61,0,0,0,28,13.92h0a11.4,11.4,0,0,0,.3,2.6A33.74,33.74,0,0,1,4,4.55a11.16,11.16,0,0,0-1.61,5.77,11.41,11.41,0,0,0,5.24,9.54,11.79,11.79,0,0,1-5.32-1.44v.15a11.55,11.55,0,0,0,9.44,11.24,12.06,12.06,0,0,1-3.11.4A11.73,11.73,0,0,1,6.43,30a11.74,11.74,0,0,0,11,8A24,24,0,0,1,2.81,42.88,26.31,26.31,0,0,1,0,42.73a34,34,0,0,0,18.06,5.15A32.81,32.81,0,0,0,51.53,15.74v-.49c0-.5,0-1,0-1.48A24,24,0,0,0,57.39,7.83Z"/></svg>