<svg xmlns="http://www.w3.org/2000/svg" viewBox="0 0 50.34 50.34"><defs><style>.a{fill:#040000;}</style></defs><path class="a" d="M36,50.34H14.33A14.35,14.35,0,0,1,0,36V14.33A14.35,14.35,0,0,1,14.33,0H36A14.35,14.35,0,0,1,50.34,14.33V36A14.35,14.35,0,0,1,36,50.34Zm-21.69-46a10,10,0,0,0-10,10V36a10,10,0,0,0,10,10H36A10,10,0,0,0,46,36V14.33a10,10,0,0,0-10-10Z"/><path class="a" d="M25.17,37.7A12.53,12.53,0,1,1,37.7,25.17,12.53,12.53,0,0,1,25.17,37.7Zm0-20.87a8.34,8.34,0,1,0,8.34,8.34A8.33,8.33,0,0,0,25.17,16.83Z"/><path class="a" d="M41.68,11.49a3,3,0,1,1-3-3,3,3,0,0,1,3,3Z"/></svg>