<svg xmlns="http://www.w3.org/2000/svg" viewBox="0 0 52.51 50.34"><defs><style>.a{fill:#040000;}</style></defs><path class="a" d="M26.26,0C11.77,0,0,9.61,0,21.44,0,32,9.35,40.91,22,42.59c.85.18,2,.56,2.31,1.29a5.67,5.67,0,0,1,.09,2.39S24,48.13,24,48.54c-.11.66-.53,2.61,2.27,1.42A85.18,85.18,0,0,0,46.88,34.63a19.09,19.09,0,0,0,5.63-13.19C52.51,9.61,40.74,0,26.26,0ZM17,27.74a.52.52,0,0,1-.51.52H9.13a.53.53,0,0,1-.36-.15h0a.51.51,0,0,1-.15-.35V16.24a.52.52,0,0,1,.51-.52H11a.51.51,0,0,1,.51.51h0v9.14h5a.51.51,0,0,1,.51.51h0Zm4.44,0a.52.52,0,0,1-.51.52H19.08a.53.53,0,0,1-.52-.52V16.24a.52.52,0,0,1,.52-.52h1.85a.51.51,0,0,1,.51.52h0Zm12.68,0a.53.53,0,0,1-.51.52H31.75l-.13,0h-.07l0,0h0l0,0h0a.37.37,0,0,1-.12-.13l-5.26-7.13v6.83a.5.5,0,0,1-.5.52H23.76a.51.51,0,0,1-.51-.51h0V16.24a.52.52,0,0,1,.5-.52h2l0,0h.06l0,0h0l0,0h0l0,0h0l0,.06L31.27,23V16.24a.51.51,0,0,1,.5-.52h1.85a.51.51,0,0,1,.51.5V27.74Zm10.17-9.65a.53.53,0,0,1-.52.51h-5v1.94h5a.51.51,0,0,1,.51.52h0V22.9a.5.5,0,0,1-.5.52h-5v1.95h5a.51.51,0,0,1,.51.51h0v1.85a.51.51,0,0,1-.51.52H36.42a.51.51,0,0,1-.36-.15h0a.48.48,0,0,1-.15-.36V16.24h0a.51.51,0,0,1,.14-.36h0a.51.51,0,0,1,.36-.15h7.35a.51.51,0,0,1,.51.51h0Z"/></svg>