<?xml version="1.0" encoding="utf-8"?>
<!-- Generator: Adobe Illustrator 26.0.2, SVG Export Plug-In . SVG Version: 6.00 Build 0)  -->
<svg version="1.1" id="レイヤー_1" xmlns="http://www.w3.org/2000/svg" xmlns:xlink="http://www.w3.org/1999/xlink" x="0px"
	 y="0px" viewBox="0 0 265.2 24.4" style="enable-background:new 0 0 265.2 24.4;" xml:space="preserve">
<style type="text/css">
	.st0{fill:#FFFFFF;}
</style>
<path class="st0" d="M18.4,4.5h-6.8v18.7H6.7V4.5H0V0.3h18.4V4.5z"/>
<path class="st0" d="M38.9,11.7c0,3.6-0.9,6.4-2.7,8.5c-1.8,2.2-4.3,3.2-7.5,3.2s-5.7-1.1-7.5-3.2s-2.7-4.9-2.7-8.5s0.9-6.4,2.7-8.6
	C23,1.1,25.5,0,28.8,0s5.7,1.1,7.5,3.2C38,5.3,38.9,8.1,38.9,11.7z M34,11.7c0-2.6-0.5-4.6-1.5-5.8c-0.9-1.2-2.2-1.7-3.8-1.7
	c-3.5,0-5.2,2.5-5.2,7.6c0,5,1.7,7.6,5.2,7.6c1.6,0,2.9-0.6,3.8-1.7C33.5,16.3,34,14.3,34,11.7z"/>
<path class="st0" d="M58.7,0.3l-7.9,14v9h-5v-9l-8.1-14h5.5l5.1,9.2l4.8-9.2C53.1,0.3,58.7,0.3,58.7,0.3z"/>
<path class="st0" d="M77.9,11.7c0,3.6-0.9,6.4-2.7,8.5c-1.8,2.2-4.3,3.2-7.5,3.2s-5.7-1.1-7.5-3.2s-2.7-4.9-2.7-8.5s0.9-6.4,2.7-8.6
	C62,1.1,64.5,0,67.8,0s5.7,1.1,7.5,3.2C77,5.3,77.9,8.1,77.9,11.7z M73,11.7c0-2.6-0.5-4.6-1.5-5.8c-0.9-1.2-2.2-1.7-3.8-1.7
	c-3.5,0-5.2,2.5-5.2,7.6c0,5,1.7,7.6,5.2,7.6c1.6,0,2.9-0.6,3.8-1.7C72.5,16.3,73,14.3,73,11.7z"/>
<path class="st0" d="M96.5,4.5h-6.8v18.7h-4.9V4.5h-6.7V0.3h18.4V4.5z"/>
<path class="st0" d="M108.5,18.5H100l-1.4,4.7h-5l7.5-22.9h6.1l7.9,22.9h-5L108.5,18.5z M101.3,14.4h5.9l-3-9.3L101.3,14.4z"/>
<path class="st0" d="M143.6,16.4c-0.7,2.4-1.8,4.2-3.1,5.3c-1.5,1.2-3.6,1.8-6.2,1.8c-3.2,0-5.7-1-7.5-3.1c-1.7-2.1-2.6-4.9-2.6-8.7
	c0-3.6,0.9-6.4,2.7-8.5s4.3-3.2,7.4-3.2c2.5,0,4.5,0.6,6,1.7c1.4,1.1,2.4,2.7,3.1,4.9l-4.5,1.6c-0.4-1.5-1-2.5-1.7-3.1
	s-1.7-0.9-2.9-0.9c-1.6,0-2.8,0.6-3.7,1.7c-1,1.3-1.5,3.3-1.5,5.8c0,5,1.7,7.6,5.2,7.6c1.2,0,2.2-0.3,2.9-1c0.7-0.6,1.3-1.7,1.7-3.3
	L143.6,16.4z"/>
<path class="st0" d="M164.5,11.7c0,3.6-0.9,6.4-2.7,8.5c-1.8,2.2-4.3,3.2-7.5,3.2s-5.7-1.1-7.5-3.2s-2.7-4.9-2.7-8.5
	s0.9-6.4,2.7-8.6c1.8-2.1,4.3-3.2,7.5-3.2s5.7,1.1,7.5,3.2C163.7,5.3,164.5,8.1,164.5,11.7z M159.6,11.7c0-2.6-0.5-4.6-1.5-5.8
	c-0.9-1.2-2.2-1.7-3.8-1.7c-3.5,0-5.2,2.5-5.2,7.6c0,5,1.7,7.6,5.2,7.6c1.6,0,2.9-0.6,3.8-1.7C159.1,16.3,159.6,14.3,159.6,11.7z"/>
<path class="st0" d="M185.9,23.2h-5.3l-2.8-6.6c-0.7-1.5-2-2.3-3.9-2.3h-2.5v8.9h-4.8V0.3h10.7c2.1,0,3.8,0.5,5.1,1.6
	c1.5,1.2,2.3,2.9,2.3,5.2c0,3-1.4,5-4.1,6.1c0.9,0.6,1.7,1.5,2.2,2.8L185.9,23.2z M171.4,10.2h5.3c1.1,0,1.9-0.3,2.4-1
	c0.5-0.5,0.7-1.2,0.7-2s-0.2-1.4-0.7-1.9c-0.6-0.6-1.4-0.9-2.4-0.9h-5.3V10.2z"/>
<path class="st0" d="M206.7,11.7c0,3.6-0.9,6.4-2.7,8.5c-1.8,2.2-4.3,3.2-7.5,3.2s-5.7-1.1-7.5-3.2s-2.7-4.9-2.7-8.5
	s0.9-6.4,2.7-8.6c1.8-2.1,4.3-3.2,7.5-3.2s5.7,1.1,7.5,3.2C205.8,5.3,206.7,8.1,206.7,11.7z M201.8,11.7c0-2.6-0.5-4.6-1.5-5.8
	c-0.9-1.2-2.2-1.7-3.8-1.7c-3.5,0-5.2,2.5-5.2,7.6c0,5,1.7,7.6,5.2,7.6c1.6,0,2.9-0.6,3.8-1.7C201.3,16.3,201.8,14.3,201.8,11.7z"/>
<path class="st0" d="M224.2,23.2h-15.5V0.3h4.8v18.6h10.7V23.2z"/>
<path class="st0" d="M241.7,23.2h-15.5V0.3h4.8v18.6h10.7V23.2z"/>
<path class="st0" d="M258.6,18.5h-8.5l-1.4,4.7h-5l7.5-22.9h6.1l7.9,22.9h-5L258.6,18.5z M251.4,14.4h5.9l-3-9.3L251.4,14.4z"/>
</svg>
