<?xml version="1.0" encoding="utf-8"?>
<!-- Generator: Adobe Illustrator 26.0.2, SVG Export Plug-In . SVG Version: 6.00 Build 0)  -->
<svg version="1.1" id="レイヤー_1" xmlns="http://www.w3.org/2000/svg" xmlns:xlink="http://www.w3.org/1999/xlink" x="0px"
	 y="0px" viewBox="0 0 265.2 39.2" style="enable-background:new 0 0 265.2 39.2;" xml:space="preserve">
<style type="text/css">
	.st0{enable-background:new    ;}
	.st1{fill:#FFFFFF;}
</style>
<g class="st0">
	<path class="st1" d="M7.4,26.9c0.2,1.7,0.7,2.9,1.4,3.8c1.3,1.5,3.5,2.3,6.6,2.3c1.9,0,3.4-0.2,4.5-0.6c2.2-0.8,3.3-2.2,3.3-4.3
		c0-1.2-0.5-2.2-1.6-2.8c-1.1-0.7-2.8-1.2-5.1-1.7l-4-0.9c-3.9-0.9-6.6-1.8-8.1-2.8c-2.5-1.7-3.7-4.4-3.7-8c0-3.3,1.2-6.1,3.7-8.2
		s6-3.3,10.7-3.3c3.9,0,7.3,1,10.1,3.1s4.2,5.1,4.4,9H22c-0.1-2.2-1.1-3.8-3-4.7c-1.2-0.6-2.8-0.9-4.6-0.9c-2,0-3.7,0.4-4.9,1.2
		s-1.8,1.9-1.8,3.4c0,1.3,0.6,2.3,1.8,3c0.8,0.4,2.4,0.9,4.9,1.5l6.5,1.5c2.8,0.7,5,1.6,6.4,2.7c2.2,1.7,3.3,4.3,3.3,7.5
		c0,3.4-1.3,6.2-3.9,8.4c-2.6,2.2-6.3,3.3-11.1,3.3c-4.9,0-8.7-1.1-11.5-3.3S0,30.7,0,26.9H7.4z"/>
	<path class="st1" d="M43.1,38.3h-7.7V1.4h7.7V38.3z"/>
	<path class="st1" d="M50.1,1.4h8.1l14.7,25.7V1.4h7.2v36.9h-7.7l-15-26.2v26.2h-7.2V1.4z"/>
	<path class="st1" d="M90.8,5.2c3-3,6.8-4.6,11.3-4.6c6.1,0,10.6,2,13.5,6.1c1.6,2.3,2.4,4.6,2.5,6.9h-7.7c-0.5-1.8-1.1-3.1-1.9-4
		c-1.4-1.6-3.4-2.4-6.1-2.4c-2.7,0-4.9,1.1-6.5,3.4c-1.6,2.3-2.4,5.5-2.4,9.6s0.8,7.2,2.5,9.3c1.7,2.1,3.8,3.1,6.4,3.1
		c2.6,0,4.7-0.9,6.1-2.7c0.8-1,1.4-2.4,1.9-4.3h7.7c-0.7,4-2.3,7.3-5.1,9.8s-6.2,3.8-10.4,3.8c-5.3,0-9.4-1.7-12.4-5.1
		c-3-3.4-4.5-8.1-4.5-14.1C85.7,13.7,87.4,8.7,90.8,5.2z"/>
</g>
<g class="st0">
	<path class="st1" d="M151.7,7.9h-19.5v7.8h17.9v6.4h-17.9v9.5h20.4v6.6h-28V1.4h27.1V7.9z"/>
</g>
<g class="st0">
	<path class="st1" d="M163.4,13.2V8.4c2.2-0.1,3.8-0.3,4.7-0.5c1.4-0.3,2.6-1,3.5-1.9c0.6-0.7,1.1-1.5,1.4-2.6
		c0.2-0.7,0.3-1.1,0.3-1.5h6v36.3h-7.3v-25H163.4z"/>
</g>
<g class="st0">
	<path class="st1" d="M186.6,5.3c2.2-2.4,5.2-3.6,8.8-3.6c5.5,0,9.3,2.4,11.4,7.3c1.2,2.8,1.8,6.4,1.8,10.9c0,4.4-0.6,8.1-1.7,11
		c-2.1,5.6-6.1,8.4-11.8,8.4c-2.7,0-5.2-0.8-7.3-2.4c-2.2-1.6-3.4-4-3.7-7.1h7.1c0.2,1.1,0.6,1.9,1.4,2.6s1.7,1,2.9,1
		c2.4,0,4-1.3,5-3.9c0.5-1.4,0.8-3.5,1-6.3c-0.7,0.8-1.3,1.4-2.1,1.9c-1.3,0.8-3,1.2-4.9,1.2c-2.9,0-5.5-1-7.7-3
		c-2.2-2-3.4-4.9-3.4-8.6C183.2,10.8,184.3,7.7,186.6,5.3z M198.6,19.7c1.6-1,2.4-2.8,2.4-5.4c0-2.1-0.5-3.7-1.4-4.9
		c-1-1.2-2.3-1.8-3.9-1.8c-1.2,0-2.3,0.3-3.1,1c-1.4,1.1-2.1,2.9-2.1,5.4c0,2.2,0.4,3.8,1.3,4.8c0.9,1.1,2.2,1.6,4,1.6
		C196.8,20.5,197.7,20.3,198.6,19.7z"/>
	<path class="st1" d="M212.9,22.7c0.9-1.7,2.3-2.9,4-3.7c-1.8-1.2-2.9-2.4-3.4-3.8c-0.5-1.4-0.8-2.6-0.8-3.8c0-2.6,1-4.9,3-6.7
		c2-1.9,4.8-2.8,8.4-2.8c3.6,0,6.4,0.9,8.4,2.8c2,1.9,3,4.1,3,6.7c0,1.2-0.3,2.5-0.8,3.8c-0.5,1.4-1.7,2.5-3.4,3.5
		c1.8,1,3.1,2.3,4.1,4c0.9,1.7,1.4,3.5,1.4,5.5c0,3.1-1.1,5.7-3.4,7.8c-2.3,2.1-5.4,3.2-9.5,3.2s-7.1-1.1-9.2-3.2
		c-2.1-2.1-3.1-4.7-3.1-7.8C211.5,26.2,212,24.3,212.9,22.7z M220.3,31.9c0.9,1,2.2,1.5,3.8,1.5s2.9-0.5,3.8-1.5
		c0.9-1,1.4-2.4,1.4-4.2c0-1.9-0.5-3.3-1.4-4.2c-0.9-1-2.2-1.4-3.8-1.4s-2.9,0.5-3.8,1.4c-0.9,1-1.4,2.4-1.4,4.2
		C218.9,29.5,219.4,30.9,220.3,31.9z M220.8,15.4c0.8,0.8,1.9,1.3,3.4,1.3c1.5,0,2.6-0.4,3.4-1.3c0.8-0.8,1.2-1.9,1.2-3.2
		c0-1.4-0.4-2.6-1.2-3.4c-0.8-0.8-1.9-1.2-3.4-1.2c-1.4,0-2.6,0.4-3.4,1.2c-0.8,0.8-1.2,1.9-1.2,3.4C219.6,13.4,220,14.5,220.8,15.4
		z"/>
	<path class="st1" d="M247.1,27.1c0,1.5,0.2,2.7,0.7,3.6c0.9,1.8,2.4,2.6,4.7,2.6c1.4,0,2.6-0.5,3.7-1.4c1-1,1.6-2.3,1.6-4.1
		c0-2.4-1-4-2.9-4.8c-1.1-0.5-2.8-0.7-5.2-0.7v-5.1c2.3,0,3.9-0.3,4.8-0.7c1.6-0.7,2.4-2.1,2.4-4.3c0-1.4-0.4-2.5-1.2-3.4
		c-0.8-0.9-1.9-1.3-3.4-1.3c-1.7,0-2.9,0.5-3.7,1.6c-0.8,1.1-1.2,2.5-1.1,4.3h-6.7c0.1-1.8,0.4-3.5,0.9-5.1c0.6-1.4,1.5-2.7,2.8-3.9
		c0.9-0.9,2-1.5,3.3-2c1.3-0.5,2.9-0.7,4.7-0.7c3.5,0,6.3,0.9,8.4,2.7c2.1,1.8,3.2,4.2,3.2,7.2c0,2.1-0.6,3.9-1.9,5.4
		c-0.8,0.9-1.6,1.5-2.5,1.9c0.7,0,1.6,0.6,2.8,1.7c1.8,1.7,2.7,4,2.7,6.9c0,3.1-1.1,5.8-3.2,8.1c-2.1,2.3-5.3,3.5-9.4,3.5
		c-5.1,0-8.7-1.7-10.7-5c-1.1-1.8-1.6-4.1-1.8-7H247.1z"/>
</g>
</svg>
