<svg xmlns="http://www.w3.org/2000/svg" viewBox="0 0 1435.54 86.27"><polygon points="53.48 4.88 22.04 4.88 0.41 82.95 31.81 82.95 40.9 50.21 100.95 50.21 105.72 32.99 45.67 32.99 53.48 4.88"/><polygon points="136.29 4.88 133.18 16.08 199.52 16.08 193.34 38.29 127.01 38.29 123.91 49.49 190.24 49.49 184.1 71.72 117.75 71.72 114.61 82.93 212.39 82.93 234.05 4.88 136.29 4.88"/><polygon points="413.64 10.43 416.1 4.88 387.53 4.88 385.06 10.43 362.55 10.43 359.43 21.63 380.11 21.63 353.01 82.95 381.6 82.95 408.71 21.65 439.16 21.65 421.57 71.72 398.5 71.72 395.37 82.93 446.19 82.93 471.67 10.43 413.64 10.43"/><path d="M486.2,4.88,464.54,83h99.11L585.3,4.88Zm12.87,66.84,15.44-55.63h36.28L535.33,71.72Z"/><polygon points="588.87 49.49 641.55 49.49 644.67 38.29 591.98 38.29 588.87 49.49"/><polygon points="665.52 4.88 662.41 16.08 757.98 16.08 761.08 4.88 665.52 4.88"/><polygon points="657.13 35.1 721.26 35.1 711.11 71.72 658.87 71.72 655.76 82.93 739.42 82.93 755.79 23.9 660.24 23.9 657.13 35.1"/><polygon points="249.66 4.88 238.25 45.83 269.69 45.83 277.07 19.23 315.21 19.23 310.71 35.51 286.33 35.51 283.22 46.71 307.59 46.71 297.54 82.95 328.95 82.95 350.63 4.88 249.66 4.88"/><path d="M819.34,58.93a75.57,75.57,0,0,1-6.53-7.44V85H797V56.28a66.54,66.54,0,0,1-8.84,5.93L783.2,46.39A50.94,50.94,0,0,0,805.27,25.7H785.44V13.25H797V.72h15.86V13.25h8.53V2.67h65.28V14h-65V25.7A58.28,58.28,0,0,1,815,37.51a70,70,0,0,0,8.43,6.94v-2.1h60.46V85H869.15V81.82h-31V85H823.4V51ZM881,17.15v22H826.24v-22ZM838.09,51.37v6h9.4v-6Zm0,14.05v6h9.4v-6Zm2.69-39.82v5h25.7v-5Zm19,25.77v6h9.39v-6Zm0,14.05v6h9.39v-6Z"/><path d="M972.2,71.47h2.67c2.76,0,2.76-1,2.76-2.73V15.55H914.2V84.9H898.85V3.15h94.06V76c0,4.8-2.56,8.88-11.31,8.88H963.39l-2.27-12.1H919.43V42.66h13.23V61.14h6.89v-22H917V27.65h9.72a75.84,75.84,0,0,0-3.19-9.51l14.83-1.79a89.15,89.15,0,0,1,3.43,11.3h8.31a48.9,48.9,0,0,0,3.62-11.37l15.37,2.22c-.45,1.14-2.14,5.68-3.85,9.16h9.61V39.12H951.94v22h6.83V42.66h13.44V71.47Z"/><path d="M1067.48,12.17V1h15.23V12.18h21.55V24.82h-21.55v8.44H1106V46h-18.88a58.19,58.19,0,0,0,20.8,19l-6.29,15a57.75,57.75,0,0,1-18.88-20.62V85.1h-15.23V57.37a76.18,76.18,0,0,1-20.16,22.84l-9.4-12.52A63.47,63.47,0,0,0,1061.82,46h-18.67a38.71,38.71,0,0,0,4.79,4.44l-9.14,10.11a37.94,37.94,0,0,1-6.09-12.44v37H1018V51.48a56.7,56.7,0,0,1-10,18.28l-5-17.49a60,60,0,0,0,13.87-24.36H1005V15.64h13V1h14.72V15.66h10.13v5.4a48.79,48.79,0,0,0,6.8-18.48l14.28,1.15c-.43,2.23-.94,4.45-2,8.44h5.56Zm-16.75,21.08L1042,27.92h-9.27v3.9a66.09,66.09,0,0,0,10.13,13.77V33.25Zm16.75,0V24.81h-10.13a47.87,47.87,0,0,1-5.34,8.44Z"/><path d="M1114.24,69.24c.63-.09,17.9-1,19.83-1.24V46.67h-17V33.79H1167V46.67h-16.66V67c12-1.09,16.76-1.79,20.4-2.33l.2,12.63c-12,2-17.16,2.5-55,6Zm91.38-56.07h10.13V26.05H1186a97.91,97.91,0,0,0,7.88,36.09c.63,1.34,3,5.94,5.66,5.94,2.88,0,8.63-6.14,11.18-12.07l6.72,14.13c-1.7,4-7,15.1-17.59,15.1a20.27,20.27,0,0,1-12.91-5c-15.46-14-16.63-39.63-17.27-54.22h-54.6V13.17h54.08c-.14-1.43-.51-11.77-.51-12.36h17V13.17h10.46a48.68,48.68,0,0,0-7.81-8.29L1202.1.28c1.61,1,3,1.78,10.23,10.39Z"/><path d="M1246.84,30.31a93.52,93.52,0,0,1-16.22,6.84l-8.1-13.51c26-8.53,37.11-16,43.4-23.36h19c4.6,4.53,15.46,14.57,42.86,23.2l-8.31,13.4a130.32,130.32,0,0,1-15.9-6.83v5.42h-56.71V30.31ZM1308.15,86c-1.08-1.7-2.25-3.58-4.26-6.23-18.13,2.13-54.4,3.36-73.58,3.82l-2.56-13.81c.51.12,14.07.12,15.58.12a105.94,105.94,0,0,0,7.45-15.39H1227V41.71h96.17V54.5H1301.1a155.32,155.32,0,0,1,22.41,24.82Zm-16.21-62.41A106.29,106.29,0,0,1,1275.3,11a76.34,76.34,0,0,1-16.41,12.53Zm6.6,30.93h-30c-3.83,7.45-5.11,9.79-8.41,15.39,12.59-.12,24.11-.12,34.74-1-4.46-5-6.8-7.28-8.93-9.43Z"/><path d="M1364.3,85.16h-16.2V55.56c-4.38,3.1-8.23,5.31-11.31,7.12l-4-15.74A68.13,68.13,0,0,0,1358,25.6h-23.34V13.17h13.44V1h16.2V13.17h10.88V25.6a56.63,56.63,0,0,1-8.53,12.9,52.83,52.83,0,0,0,14.6,9.5l-8,12.71a55.71,55.71,0,0,1-9-8.54v33ZM1396,1h16.62V23h20.8V36.71h-20.8V69.24H1435V82.75h-63.43V69.24H1396V36.71h-19.22V23H1396V1Z"/></svg>