<?xml version="1.0" encoding="utf-8"?>
<!-- Generator: Adobe Illustrator 26.0.1, SVG Export Plug-In . SVG Version: 6.00 Build 0)  -->
<svg version="1.1" id="レイヤー_1" xmlns="http://www.w3.org/2000/svg" xmlns:xlink="http://www.w3.org/1999/xlink" x="0px"
	 y="0px" viewBox="0 0 1435.5 86.3" style="enable-background:new 0 0 1435.5 86.3;" xml:space="preserve">
<style type="text/css">
	.st0{fill:#FFFFFF;stroke:#FFFFFF;stroke-miterlimit:10;}
</style>
<polygon class="st0" points="53.5,4.9 22,4.9 0.4,82.9 31.8,82.9 40.9,50.2 100.9,50.2 105.7,33 45.7,33 "/>
<polygon class="st0" points="136.3,4.9 133.2,16.1 199.5,16.1 193.3,38.3 127,38.3 123.9,49.5 190.2,49.5 184.1,71.7 117.8,71.7 
	114.6,82.9 212.4,82.9 234.1,4.9 "/>
<polygon class="st0" points="413.6,10.4 416.1,4.9 387.5,4.9 385.1,10.4 362.5,10.4 359.4,21.6 380.1,21.6 353,82.9 381.6,82.9 
	408.7,21.6 439.2,21.6 421.6,71.7 398.5,71.7 395.4,82.9 446.2,82.9 471.7,10.4 "/>
<path class="st0" d="M486.2,4.9L464.5,83h99.1l21.6-78.1H486.2z M499.1,71.7l15.4-55.6h36.3l-15.5,55.6L499.1,71.7z"/>
<polygon class="st0" points="588.9,49.5 641.5,49.5 644.7,38.3 592,38.3 "/>
<polygon class="st0" points="665.5,4.9 662.4,16.1 758,16.1 761.1,4.9 "/>
<polygon class="st0" points="657.1,35.1 721.3,35.1 711.1,71.7 658.9,71.7 655.8,82.9 739.4,82.9 755.8,23.9 660.2,23.9 "/>
<polygon class="st0" points="249.7,4.9 238.2,45.8 269.7,45.8 277.1,19.2 315.2,19.2 310.7,35.5 286.3,35.5 283.2,46.7 307.6,46.7 
	297.5,82.9 329,82.9 350.6,4.9 "/>
<path class="st0" d="M819.3,58.9c-2.3-2.3-4.5-4.8-6.5-7.4V85H797V56.3c-2.8,2.2-5.7,4.2-8.8,5.9l-5-15.8c9.3-4.5,17-11.7,22.1-20.7
	h-19.8V13.2H797V0.7h15.9v12.5h8.5V2.7h65.3V14h-65v11.7c-1.8,4.2-4,8.1-6.7,11.8c2.6,2.5,5.4,4.8,8.4,6.9v-2.1h60.5V85h-14.7v-3.2
	h-31V85h-14.8V51L819.3,58.9z M881,17.1v22h-54.8v-22L881,17.1z M838.1,51.4v6h9.4v-6H838.1z M838.1,65.4v6h9.4v-6H838.1z
	 M840.8,25.6v5h25.7v-5H840.8z M859.8,51.4v6h9.4v-6H859.8z M859.8,65.4v6h9.4v-6H859.8z"/>
<path class="st0" d="M972.2,71.5h2.7c2.8,0,2.8-1,2.8-2.7V15.6h-63.4v69.3h-15.4V3.2h94.1V76c0,4.8-2.6,8.9-11.3,8.9h-18.2
	l-2.3-12.1h-41.7V42.7h13.2v18.5h6.9v-22H917V27.6h9.7c-0.9-3.2-1.9-6.4-3.2-9.5l14.8-1.8c1.4,3.7,2.5,7.5,3.4,11.3h8.3
	c1.7-3.6,2.9-7.4,3.6-11.4l15.4,2.2c-0.5,1.1-2.1,5.7-3.8,9.2h9.6v11.5h-22.9v22h6.8V42.7h13.4L972.2,71.5L972.2,71.5z"/>
<path class="st0" d="M1067.5,12.2V1h15.2v11.2h21.6v12.6h-21.6v8.4h23.3V46h-18.9c5.3,7.9,12.4,14.5,20.8,19l-6.3,15
	c-7.9-5.2-14.4-12.3-18.9-20.6v25.7h-15.2V57.4c-5.1,8.9-12,16.7-20.2,22.8l-9.4-12.5c9.7-5.1,17.9-12.5,23.9-21.7h-18.7
	c1.5,1.6,3.1,3.1,4.8,4.4l-9.1,10.1c-2.8-3.7-4.8-8-6.1-12.4v37H1018V51.5c-2.2,6.7-5.6,12.9-10,18.3l-5-17.5
	c6.5-6.9,11.2-15.3,13.9-24.4H1005V15.6h13V1h14.7v14.7h10.1v5.4c3.5-5.6,5.8-11.9,6.8-18.5l14.3,1.2c-0.4,2.2-0.9,4.5-2,8.4H1067.5
	L1067.5,12.2z M1050.7,33.2l-8.7-5.3h-9.3v3.9c2.8,5,6.2,9.6,10.1,13.8V33.2H1050.7z M1067.5,33.2v-8.4h-10.1
	c-1.5,3-3.3,5.8-5.3,8.4H1067.5z"/>
<path class="st0" d="M1114.2,69.2c0.6-0.1,17.9-1,19.8-1.2V46.7h-17V33.8h49.9v12.9h-16.7V67c12-1.1,16.8-1.8,20.4-2.3l0.2,12.6
	c-12,2-17.2,2.5-55,6L1114.2,69.2z M1205.6,13.2h10.1V26H1186c0.3,12.4,3,24.7,7.9,36.1c0.6,1.3,3,5.9,5.7,5.9
	c2.9,0,8.6-6.1,11.2-12.1l6.7,14.1c-1.7,4-7,15.1-17.6,15.1c-4.8-0.1-9.3-1.9-12.9-5c-15.5-14-16.6-39.6-17.3-54.2h-54.6V13.2h54.1
	c-0.1-1.4-0.5-11.8-0.5-12.4h17v12.4h10.5c-2.3-3.1-4.9-5.8-7.8-8.3l13.8-4.6c1.6,1,3,1.8,10.2,10.4L1205.6,13.2z"/>
<path class="st0" d="M1246.8,30.3c-5.2,2.8-10.6,5.1-16.2,6.8l-8.1-13.5c26-8.5,37.1-16,43.4-23.4h19c4.6,4.5,15.5,14.6,42.9,23.2
	l-8.3,13.4c-5.4-1.9-10.8-4.2-15.9-6.8v5.4h-56.7L1246.8,30.3L1246.8,30.3z M1308.2,86c-1.1-1.7-2.2-3.6-4.3-6.2
	c-18.1,2.1-54.4,3.4-73.6,3.8l-2.6-13.8c0.5,0.1,14.1,0.1,15.6,0.1c2.9-4.9,5.4-10.1,7.4-15.4H1227V41.7h96.2v12.8h-22.1
	c8.3,7.4,15.9,15.8,22.4,24.8L1308.2,86z M1291.9,23.6c-5.9-3.6-11.5-7.9-16.6-12.6c-4.9,4.9-10.4,9.1-16.4,12.5L1291.9,23.6z
	 M1298.5,54.5h-30c-3.8,7.5-5.1,9.8-8.4,15.4c12.6-0.1,24.1-0.1,34.7-1c-4.5-5-6.8-7.3-8.9-9.4L1298.5,54.5z"/>
<path class="st0" d="M1364.3,85.2h-16.2V55.6c-4.4,3.1-8.2,5.3-11.3,7.1l-4-15.7c10-4.9,18.7-12.3,25.2-21.3h-23.3V13.2h13.4V1h16.2
	v12.2h10.9v12.4c-2.2,4.7-5.1,9-8.5,12.9c4.3,4,9.2,7.2,14.6,9.5l-8,12.7c-3.3-2.5-6.3-5.4-9-8.5L1364.3,85.2L1364.3,85.2z M1396,1
	h16.6v22h20.8v13.7h-20.8v32.5h22.4v13.5h-63.4V69.2h24.4V36.7h-19.2V23h19.2V1z"/>
</svg>
