<svg xmlns="http://www.w3.org/2000/svg" viewBox="0 0 197.43 16.53"><defs><style>.a{isolation:isolate;}.b{fill:#ffa219;}</style></defs><g class="a"><g class="a"><path class="b" d="M3.56,2.76v4H8.94V9.29H3.56V13.8H8.94v2.53H0V.23H8.94V2.76Z"/><path class="b" d="M24.24.23v16.1H20.9l-5.26-10v10h-3V.23h3.2l5.38,10.6V.23Z"/><path class="b" d="M36.11,5.63V4.12c0-1.25-.42-2-2.23-2s-2.23.71-2.23,2.21v7.77c0,1.5.39,2.23,2.23,2.23s2.23-.76,2.23-2.07V9.63H33.92V7.13h5.75v5.49c0,3-2.18,3.91-5.82,3.91s-5.77-.92-5.77-4V4.05c0-3.15,2.12-4,5.77-4s5.82.9,5.82,3.82V5.63Z"/><path class="b" d="M43.47.23H47v16.1H43.47Z"/><path class="b" d="M62.63.23v16.1H59.29L54,6.28v10h-3V.23h3.2l5.38,10.6V.23Z"/><path class="b" d="M70.22,2.76v4H75.6V9.29H70.22V13.8H75.6v2.53H66.65V.23H75.6V2.76Z"/><path class="b" d="M85.47,12.49V4.05c0-3.15,2.18-4,5.77-4S97,.9,97,4.05v8.44c0,3.15-2.23,4-5.79,4S85.47,15.64,85.47,12.49Zm8-.42V4.46c0-1.59-.46-2.3-2.23-2.3S89,2.87,89,4.46v7.61c0,1.59.46,2.3,2.21,2.3S93.47,13.66,93.47,12.07Z"/><path class="b" d="M112.44.23l-4.25,16.1h-4.44L99.52.23h3.59l3.15,12.49L109.39.23Z"/><path class="b" d="M118.75,2.76v4h5.38V9.29h-5.38V13.8h5.38v2.53h-8.95V.23h8.95V2.76Z"/><path class="b" d="M133.47,10.78h-2.05v5.55h-3.56V.23h5.81c3.54,0,5.64.83,5.64,3.68v3a3.25,3.25,0,0,1-2.23,3.38l2.94,6h-3.75Zm-2.05-2.16h2.18c1.75,0,2.14-.71,2.14-1.86V4.23c0-1.15-.39-1.84-2.14-1.84h-2.18Z"/><path class="b" d="M154.67.23v16.1h-3.56v-7h-4.44v7H143.1V.23h3.57V6.78h4.44V.23Z"/><path class="b" d="M166.33,13.84h-5.06l-.62,2.49h-3.1L161.8.23h4.51l4.23,16.1H167Zm-.6-2.39L163.8,3.86l-1.91,7.59Z"/><path class="b" d="M173.14,12.49V.23h3.57V12.07c0,1.59.41,2.3,2.23,2.3s2.23-.71,2.23-2.3V.23h3.56V12.49c0,3.12-2.18,4-5.79,4S173.14,15.61,173.14,12.49Z"/><path class="b" d="M197.43,13.8v2.53h-8.79V.23h3.57V13.8Z"/></g></g></svg>