<svg xmlns="http://www.w3.org/2000/svg" viewBox="0 0 223.17 16.53"><defs><style>.a{isolation:isolate;}.b{fill:#ffa219;}</style></defs><g class="a"><g class="a"><path class="b" d="M11.57.23v16.1H8v-7H3.56v7H0V.23H3.56V6.78H8V.23Z"/><path class="b" d="M19.18,2.76v4h5.38V9.29H19.18V13.8h5.38v2.53H15.62V.23h8.94V2.76Z"/><path class="b" d="M35.9,13.84H30.84l-.62,2.49h-3.1L31.37.23h4.51l4.23,16.1H36.52Zm-.6-2.39L33.37,3.86l-1.91,7.59Z"/><path class="b" d="M54.53,4.23v8.1c0,3.12-2.07,4-5.63,4H43V.23H48.9C52.46.23,54.53,1.1,54.53,4.23ZM51,4.67c0-1.59-.37-2.28-2.14-2.28h-2.3V14.17h2.3c1.77,0,2.14-.72,2.14-2.28Z"/><path class="b" d="M58.21,12.49V4.05C58.21.9,60.33,0,64,0s5.8.9,5.8,3.82V5.68H66.21V4.07c0-1.27-.39-2-2.23-2s-2.2.71-2.2,2.21v7.91c0,1.52.39,2.23,2.2,2.23s2.23-.76,2.23-2.07V10.83h3.57v1.82c0,2.94-2.16,3.88-5.8,3.88S58.21,15.61,58.21,12.49Z"/><path class="b" d="M73.23,12.49V4.05C73.23.9,75.42,0,79,0s5.8.9,5.8,4.05v8.44c0,3.15-2.23,4-5.8,4S73.23,15.64,73.23,12.49Zm8-.42V4.46c0-1.59-.46-2.3-2.23-2.3s-2.2.71-2.2,2.3v7.61c0,1.59.46,2.3,2.2,2.3S81.23,13.66,81.23,12.07Z"/><path class="b" d="M100.21.23,96,16.33H91.52L87.28.23h3.59L94,12.72,97.15.23Z"/><path class="b" d="M106.51,2.76v4h5.38V9.29h-5.38V13.8h5.38v2.53H103V.23h8.94V2.76Z"/><path class="b" d="M121.23,10.78h-2v5.55h-3.56V.23h5.82c3.54,0,5.63.83,5.63,3.68v3a3.25,3.25,0,0,1-2.23,3.38l2.94,6H124Zm-2-2.16h2.19c1.75,0,2.14-.71,2.14-1.86V4.23c0-1.15-.39-1.84-2.14-1.84h-2.19Z"/><path class="b" d="M142.8,10.78h-2v5.55h-3.57V.23H143c3.54,0,5.64.83,5.64,3.68v3a3.26,3.26,0,0,1-2.24,3.38l3,6h-3.75Zm-2-2.16h2.18c1.75,0,2.14-.71,2.14-1.86V4.23c0-1.15-.39-1.84-2.14-1.84h-2.18Z"/><path class="b" d="M156,2.76v4h5.38V9.29H156V13.8h5.38v2.53h-8.95V.23h8.95V2.76Z"/><path class="b" d="M180.52.23v16.1h-3.36V4.94l-3.35,11.39h-2.39L168.06,4.94V16.33h-2.94V.23h4.59L172.89,11l3-10.76Z"/><path class="b" d="M192.18,13.84h-5.06l-.62,2.49h-3.1L187.65.23h4.51l4.23,16.1H192.8Zm-.59-2.39-1.93-7.59-1.91,7.59Z"/><path class="b" d="M211.43,16.33h-3.61l-3-7h-2v7h-3.56V.23h3.56V6.78l1.91,0,3.2-6.53h3.4l-3.54,7.2Z"/><path class="b" d="M217.78,2.76v4h5.39V9.29h-5.39V13.8h5.39v2.53h-8.95V.23h8.95V2.76Z"/></g></g></svg>