<?xml version="1.0" encoding="UTF-8"?><svg id="a" xmlns="http://www.w3.org/2000/svg" viewBox="0 0 1854.65 140.83"><defs><style>.b{fill:#ffa219;}</style></defs><path class="b" d="M0,139.66V1.17H41.58c9.11,0,16.88,.97,23.3,2.92,6.42,1.95,11.67,4.54,15.77,7.78,4.09,3.24,7.02,6.97,8.79,11.18,1.77,4.22,2.65,8.59,2.65,13.13v5.06c0,3.76-.42,6.94-1.26,9.53-.84,2.6-2.09,4.86-3.77,6.81-3.17,3.63-8,6.74-14.51,9.34,6.7,2.21,11.62,5.45,14.79,9.73,3.16,4.28,4.74,10.11,4.74,17.51v7.78c0,12.19-4.23,21.53-12.7,28.01-8.47,6.49-22,9.73-40.6,9.73H0ZM28.46,19.84V57.97h12.83c9.49,0,15.86-1.65,19.11-4.96,3.25-3.31,4.88-8.14,4.88-14.49s-1.81-10.89-5.44-14c-3.63-3.11-10.18-4.67-19.67-4.67h-11.72Zm0,55.63v44.35h12.28c5.76,0,10.28-.58,13.53-1.75,3.25-1.17,5.72-2.79,7.39-4.86,1.67-2.07,2.69-4.54,3.07-7.39,.37-2.85,.56-5.96,.56-9.34s-.28-6.55-.84-9.14c-.56-2.59-1.67-4.8-3.35-6.61-1.86-1.81-4.37-3.14-7.53-3.99-3.17-.84-7.35-1.26-12.56-1.26h-12.56Z"/><path class="b" d="M124.17,33.85c0-5.57,1.4-10.5,4.19-14.78,2.79-4.28,6.51-7.84,11.16-10.7,4.46-2.72,9.53-4.8,15.21-6.22,5.67-1.42,11.39-2.14,17.16-2.14s11.48,.71,17.16,2.14c5.67,1.43,10.83,3.5,15.49,6.22,4.46,2.85,8.09,6.42,10.88,10.7,2.79,4.28,4.19,9.21,4.19,14.78V106.98c0,5.84-1.4,10.83-4.19,14.98-2.79,4.15-6.42,7.59-10.88,10.31-4.65,2.85-9.81,4.99-15.49,6.42-5.68,1.42-11.4,2.14-17.16,2.14s-11.49-.71-17.16-2.14c-5.68-1.43-10.74-3.57-15.21-6.42-4.65-2.72-8.37-6.16-11.16-10.31-2.79-4.15-4.19-9.14-4.19-14.98V33.85Zm28.46,73.14c0,4.8,1.91,8.33,5.72,10.6,3.81,2.27,8.32,3.4,13.53,3.4s9.72-1.13,13.53-3.4c3.81-2.27,5.72-5.8,5.72-10.6V33.85c0-4.8-1.91-8.33-5.72-10.6-3.81-2.27-8.33-3.4-13.53-3.4s-9.72,1.14-13.53,3.4c-3.81,2.27-5.72,5.8-5.72,10.6V106.98Z"/><path class="b" d="M250.56,139.66V1.17h27.34l42.97,83.45h.56V1.17h28.46V139.66h-26.79l-43.53-83.25h-.56v83.25h-28.46Z"/><path class="b" d="M381.42,139.66V1.17h27.34l42.97,83.45h.56V1.17h28.46V139.66h-26.79l-43.53-83.25h-.56v83.25h-28.46Z"/><path class="b" d="M513.4,139.66V1.17h84.82V19.84h-56.36V60.49h49.11v18.67h-49.11v40.65h56.36v19.84h-84.82Z"/><path class="b" d="M642.31,139.66V19.84h-32.92V1.17h94.31V19.84h-32.92v119.82h-28.46Z"/><path class="b" d="M862.73,97.84h-56.36v13.42c0,3.11,1.25,5.51,3.77,7.2,2.51,1.69,5.9,2.53,10.18,2.53,5.39,0,8.97-1.1,10.74-3.31,1.77-2.2,2.83-4.41,3.21-6.61h28.46c0,8.69-3.82,15.69-11.44,21.01-3.72,2.72-8.19,4.86-13.39,6.42-5.21,1.56-11.07,2.33-17.58,2.33-8.93,0-16.51-1.29-22.74-3.89-6.23-2.59-11.02-6.03-14.37-10.31-2.05-2.59-3.44-5.57-4.19-8.95-.75-3.37-1.12-7.07-1.12-11.09v-32.48c0-4.02,.37-7.71,1.12-11.09,.74-3.37,2.14-6.35,4.19-8.95,3.35-4.28,8.13-7.71,14.37-10.31,6.23-2.59,13.81-3.89,22.74-3.89,6.51,0,12.42,.78,17.72,2.33,5.3,1.56,9.81,3.7,13.53,6.42,7.44,5.83,11.16,13.16,11.16,21.98v27.23Zm-56.36-15.56h27.9v-11.28c0-3.76-1.26-6.58-3.77-8.46-2.51-1.88-5.91-2.82-10.18-2.82s-7.67,.94-10.18,2.82c-2.51,1.88-3.77,4.7-3.77,8.46v11.28Z"/><path class="b" d="M890.63,41.04V11.09h28.46v29.96h17.58v15.56h-17.58v54.66c0,2.33,.32,4.15,.98,5.45,.65,1.3,1.72,2.27,3.21,2.92,1.49,.65,3.3,1.04,5.44,1.17,2.14,.13,4.79,.19,7.95,.19v18.67h-11.72c-6.51,0-11.95-.71-16.32-2.14-4.37-1.43-7.86-3.24-10.46-5.45-2.61-2.2-4.51-4.7-5.72-7.49-1.21-2.79-1.81-5.48-1.81-8.07V56.6h-14.23v-15.56h14.23Z"/><path class="b" d="M984.66,111.26c0,3.11,1.26,5.51,3.77,7.2,2.51,1.69,5.9,2.53,10.18,2.53,5.39,0,8.97-1.1,10.74-3.31,1.77-2.2,2.83-4.41,3.21-6.61h28.46c0,8.69-3.81,15.69-11.44,21.01-3.72,2.72-8.19,4.86-13.39,6.42-5.21,1.56-11.07,2.33-17.58,2.33-8.93,0-16.51-1.29-22.74-3.89-6.23-2.59-11.02-6.03-14.37-10.31-2.05-2.59-3.44-5.57-4.18-8.95-.75-3.37-1.12-7.07-1.12-11.09v-32.48c0-4.02,.37-7.71,1.12-11.09,.74-3.37,2.14-6.35,4.18-8.95,3.35-4.28,8.14-7.71,14.37-10.31,6.23-2.59,13.81-3.89,22.74-3.89,6.51,0,12.42,.78,17.72,2.33,5.3,1.56,9.81,3.7,13.53,6.42,7.44,5.83,11.16,13.42,11.16,22.76h-28.46c0-4.02-1.26-6.97-3.77-8.85-2.51-1.88-5.91-2.82-10.18-2.82s-7.67,.94-10.18,2.82c-2.51,1.88-3.77,4.7-3.77,8.46v40.26Z"/><path class="b" d="M1125.29,139.66V1.17h45.76c33.48,0,50.22,13.55,50.22,40.65,0,8.17-1.81,15.11-5.44,20.81-3.63,5.71-10,10.31-19.11,13.81l30.69,63.22h-30.13l-26.51-59.13h-17.02v59.13h-28.46Zm28.46-119.82V63.02h16.18c5.02,0,9.02-.49,12-1.46,2.97-.97,5.3-2.36,6.98-4.18,1.49-1.81,2.51-4.05,3.07-6.71,.56-2.66,.84-5.74,.84-9.24s-.28-6.58-.84-9.24c-.56-2.66-1.67-4.96-3.35-6.91-3.54-3.63-10.23-5.45-20.09-5.45h-14.79Z"/><path class="b" d="M1251.12,139.66V1.17h84.82V19.84h-56.36V60.49h49.11v18.67h-49.11v40.65h56.36v19.84h-84.82Z"/><path class="b" d="M1361.34,139.66V1.17h27.34l36.55,73.33h.56L1462.07,1.17h27.62V139.66h-28.46V55.44h-.56l-28.18,59.52h-14.23l-27.9-59.52h-.56v84.22h-28.46Z"/><path class="b" d="M1510.62,139.66L1554.98,1.17h23.72l44.37,138.49h-28.46l-8.37-29.76h-38.78l-8.37,29.76h-28.46Zm70.32-48.43l-13.95-50.18h-.56l-13.95,50.18h28.46Z"/><path class="b" d="M1643.99,139.66V1.17h28.46v63.22h.56L1714.58,1.17h28.46l-38.78,55.44,46.04,83.06h-30.13l-32.37-61.47-15.35,20.04v41.43h-28.46Z"/><path class="b" d="M1769.83,139.66V1.17h84.82V19.84h-56.36V60.49h49.11v18.67h-49.11v40.65h56.36v19.84h-84.82Z"/></svg>