<?xml version="1.0" encoding="UTF-8"?><svg id="a" xmlns="http://www.w3.org/2000/svg" viewBox="0 0 1247.67 202.61"><defs><style>.b{fill:#ffa219;}</style></defs><path class="b" d="M0,200.93V1.68H122.04V28.54H40.95v58.49H111.6v26.87H40.95v58.49H122.04v28.54H0Z"/><path class="b" d="M158.57,200.93V1.68h61.42c11.24,0,21.14,1.03,29.71,3.08,8.56,2.06,16.32,5.69,23.28,10.91,6.96,5.23,11.77,11.33,14.45,18.33,2.67,7,4.01,16.47,4.01,28.4,0,8.96-.74,16.51-2.21,22.67-1.47,6.16-4.62,11.94-9.43,17.35-5.62,6.53-13.12,11.61-22.48,15.25-9.37,3.64-21.68,5.46-36.93,5.46h-20.88v77.8h-40.95ZM199.52,28.54V96.27h19.67c8.29,0,14.72-.84,19.27-2.52,4.55-1.68,7.89-4.01,10.04-7,2.14-2.8,3.41-6.25,3.81-10.35,.4-4.1,.6-8.68,.6-13.71,0-4.66-.14-9.1-.4-13.29-.27-4.2-1.47-7.88-3.61-11.05-2.15-3.17-5.36-5.6-9.63-7.28-4.28-1.68-10.44-2.52-18.47-2.52h-21.28Z"/><path class="b" d="M333.19,200.93V1.68h40.95V200.93h-40.95Z"/><path class="b" d="M423.92,200.93V1.68h40.95V172.39h81.09v28.54h-122.04Z"/><path class="b" d="M580.08,48.69c0-8.02,2.01-15.11,6.02-21.27,4.01-6.16,9.36-11.29,16.06-15.39,6.42-3.92,13.71-6.9,21.88-8.96,8.16-2.05,16.39-3.08,24.69-3.08s16.52,1.03,24.69,3.08c8.16,2.05,15.59,5.04,22.28,8.96,6.42,4.11,11.64,9.23,15.66,15.39,4.01,6.16,6.02,13.25,6.02,21.27v105.22c0,8.4-2.01,15.58-6.02,21.55-4.01,5.97-9.23,10.91-15.66,14.83-6.69,4.11-14.12,7.18-22.28,9.24-8.17,2.05-16.4,3.08-24.69,3.08s-16.53-1.03-24.69-3.08c-8.17-2.05-15.46-5.13-21.88-9.24-6.69-3.92-12.04-8.86-16.06-14.83-4.01-5.97-6.02-13.15-6.02-21.55V48.69Zm40.95,105.22c0,6.91,2.74,11.99,8.23,15.25,5.48,3.27,11.97,4.9,19.47,4.9s13.98-1.63,19.47-4.9c5.48-3.26,8.23-8.35,8.23-15.25V48.69c0-6.9-2.75-11.99-8.23-15.25-5.49-3.26-11.98-4.9-19.47-4.9s-13.99,1.64-19.47,4.9c-5.49,3.27-8.23,8.35-8.23,15.25v105.22Z"/><path class="b" d="M761.13,48.69c0-8.02,2.01-15.11,6.02-21.27,4.01-6.16,9.37-11.29,16.06-15.39,6.42-3.92,13.71-6.9,21.88-8.96,8.16-2.05,16.39-3.08,24.69-3.08s16.52,1.03,24.69,3.08c8.16,2.05,15.59,5.04,22.28,8.96,6.42,4.11,11.64,9.23,15.66,15.39,4.01,6.16,6.02,13.25,6.02,21.27v10.07h-40.95v-10.07c0-6.9-2.75-11.99-8.23-15.25-5.49-3.26-11.98-4.9-19.47-4.9s-13.99,1.64-19.47,4.9c-5.49,3.27-8.23,8.35-8.23,15.25v105.22c0,6.91,2.74,11.99,8.23,15.25,5.48,3.27,11.97,4.9,19.47,4.9s13.98-1.63,19.47-4.9c5.48-3.26,8.23-8.35,8.23-15.25v-37.5h-32.52v-25.19h73.46v62.69c0,8.4-2.01,15.58-6.02,21.55-4.01,5.97-9.23,10.91-15.66,14.83-6.69,4.11-14.12,7.18-22.28,9.24-8.17,2.05-16.4,3.08-24.69,3.08s-16.53-1.03-24.69-3.08c-8.17-2.05-15.46-5.13-21.88-9.24-6.69-3.92-12.04-8.86-16.06-14.83-4.01-5.97-6.02-13.15-6.02-21.55V48.69Z"/><path class="b" d="M1077.06,1.68V156.16c0,6.53-1.67,12.55-5.02,18.05-3.35,5.5-8.1,10.4-14.25,14.69-6.16,4.29-13.25,7.65-21.28,10.08-8.03,2.42-16.6,3.64-25.69,3.64s-17.6-1.22-25.49-3.64c-7.9-2.42-14.92-5.78-21.08-10.08-6.16-4.29-10.98-9.19-14.45-14.69-3.48-5.5-5.22-11.52-5.22-18.05V1.68h40.95V153.36c0,7.09,2.41,12.31,7.23,15.67s10.84,5.04,18.06,5.04,13.25-1.68,18.07-5.04,7.23-8.58,7.23-15.67V1.68h40.95Z"/><path class="b" d="M1125.63,200.93V1.68h122.04V28.54h-81.09v58.49h70.65v26.87h-70.65v58.49h81.09v28.54h-122.04Z"/></svg>