<svg xmlns="http://www.w3.org/2000/svg" viewBox="0 0 165.8 16.53"><defs><style>.a{isolation:isolate;}.b{fill:#ffa219;}</style></defs><g class="a"><g class="a"><path class="b" d="M6.6,16.33H0V.23H6.44c2.73,0,5,.48,5,3.24V5.36A2.53,2.53,0,0,1,9.52,8a2.67,2.67,0,0,1,2,2.89l0,2.16C11.59,15.84,9.34,16.33,6.6,16.33ZM6.3,2.41H3.56V6.9H6.3c1,0,1.54-.37,1.54-1.34V3.72C7.84,2.76,7.29,2.41,6.3,2.41ZM8,12.83V10.49c0-1-.55-1.34-1.56-1.34H3.56v5h2.9C7.45,14.14,8,13.8,8,12.83Z"/><path class="b" d="M15.13,12.49V4.05c0-3.15,2.19-4,5.78-4S26.7.9,26.7,4.05v8.44c0,3.15-2.23,4-5.79,4S15.13,15.64,15.13,12.49Zm8-.42V4.46c0-1.59-.46-2.3-2.23-2.3s-2.21.71-2.21,2.3v7.61c0,1.59.46,2.3,2.21,2.3S23.14,13.66,23.14,12.07Z"/><path class="b" d="M42.06,4.23v8.1c0,3.12-2.06,4-5.63,4H30.5V.23h5.93C40,.23,42.06,1.1,42.06,4.23Zm-3.56.44c0-1.59-.37-2.28-2.14-2.28h-2.3V14.17h2.3c1.77,0,2.14-.72,2.14-2.28Z"/><path class="b" d="M57.17.23l-4.73,11.4v4.7H48.87V11.61L44.23.23h3.56L51,8,54.16.23Z"/><path class="b" d="M77.64,4V7.29c0,2.87-2,3.84-5.61,3.82H69.76v5.22H66.19V.23H72C75.58.23,77.64,1.08,77.64,4Zm-3.56.36c0-1.24-.37-1.93-2.14-1.93H69.76V8.94h2.18c1.77,0,2.14-.71,2.14-1.93Z"/><path class="b" d="M87.81,13.84H82.75l-.62,2.49H79L83.28.23h4.51L92,16.33H88.43Zm-.6-2.39L85.28,3.86l-1.91,7.59Z"/><path class="b" d="M94.87.23h3.57v16.1H94.87Z"/><path class="b" d="M114,.23v16.1H110.7l-5.27-10v10h-3V.23h3.2L111,10.83V.23Z"/><path class="b" d="M128.43,2.76h-4.05V16.33h-3.56V2.76h-4V.23h11.61Z"/><path class="b" d="M131.21.23h3.57v16.1h-3.57Z"/><path class="b" d="M150.37.23v16.1H147l-5.27-10v10h-3V.23H142l5.38,10.6V.23Z"/><path class="b" d="M162.24,5.63V4.12c0-1.25-.42-2-2.23-2s-2.23.71-2.23,2.21v7.77c0,1.5.39,2.23,2.23,2.23s2.23-.76,2.23-2.07V9.63h-2.19V7.13h5.75v5.49c0,3-2.18,3.91-5.81,3.91s-5.78-.92-5.78-4V4.05c0-3.15,2.12-4,5.78-4s5.81.9,5.81,3.82V5.63Z"/></g></g></svg>